<?xml version="1.0" encoding="UTF-8" standalone="no"?>
<!DOCTYPE svg PUBLIC "-//W3C//DTD SVG 1.1//EN" "http://www.w3.org/Graphics/SVG/1.1/DTD/svg11.dtd">
<svg width="100%" height="100%" viewBox="0 0 32 32" version="1.1" xmlns="http://www.w3.org/2000/svg" xmlns:xlink="http://www.w3.org/1999/xlink" xml:space="preserve" xmlns:serif="http://www.serif.com/" style="fill-rule:evenodd;clip-rule:evenodd;stroke-linejoin:round;stroke-miterlimit:2;">
    <g id="a">
        <path d="M25.981,18.128C25.981,18.128 25.74,22.351 24.1,25.365C22.84,27.682 20.428,28.973 18.647,28.985C14.48,29.013 9.929,28.813 8.518,27.892C5.721,26.065 6.464,20.686 6.464,20.686L3.479,20.686L7.648,15.711L12.805,20.686L9.513,20.686C9.513,20.686 8.694,24.037 10.729,25.164C11.689,25.695 15.247,25.825 18.738,25.813C22.645,25.8 22.532,18.216 22.532,18.216L25.981,18.128Z" style="fill:#f4f4f4;fill-rule:nonzero;"/>
        <path d="M6.019,13.872C6.019,13.872 6.26,9.649 7.9,6.635C9.16,4.318 11.572,3.027 13.353,3.015C17.52,2.987 22.071,3.187 23.482,4.108C26.279,5.935 25.536,11.314 25.536,11.314L28.521,11.314L24.352,16.289L19.195,11.314L22.487,11.314C22.487,11.314 23.306,7.963 21.271,6.836C20.311,6.305 16.753,6.175 13.262,6.187C9.355,6.2 9.468,13.784 9.468,13.784L6.019,13.872Z" style="fill:#f4f4f4;fill-rule:nonzero;"/>
    </g>
</svg>
