<svg xmlns="http://www.w3.org/2000/svg" xml:space="preserve" fill-rule="evenodd" stroke-linejoin="round" stroke-miterlimit="2" clip-rule="evenodd" viewBox="0 0 64 64">
  <g id="white">
    <path fill="#f4f4f4" d="m38.451 34.34.004.002a1.62 1.62 0 0 1-1.417-1.718V31.17a1.62 1.62 0 0 1 1.417-1.716c-.102.01.004-.001.004-.001l.014-.002.027-.001h15.365l-3.936-4.577-.014-.014-.01-.014a1.89 1.89 0 0 1-.024-2.296.413.413 0 0 0-.022.035c-.012.022.092-.108.05-.066l-.018.019.858-1.048a1.385 1.385 0 0 1 2.183.001l7.568 9.243.016.017a1.876 1.876 0 0 1-.001 2.296l-.014.016-7.565 9.234c-.267.368-.68.552-1.095.552a1.354 1.354 0 0 1-1.091-.545l-.843-1.028-.023-.027a1.88 1.88 0 0 1 .021-2.302l.01-.011 3.947-4.59H38.5l-.015-.001a.197.197 0 0 1-.034-.004Zm-12.957.001.006.003H10.043l3.938 4.579.011.012.01.014c.531.673.536 1.627.014 2.308l-.014.017-.844 1.029a1.383 1.383 0 0 1-2.183.001L3.406 33.06l-.015-.016-.007-.01a1.878 1.878 0 0 1 0-2.276c-.026.034.067-.071.025-.03l-.017.02 7.579-9.252a1.349 1.349 0 0 1 1.098-.549c.41-.001.82.182 1.088.544L14 22.519c.011.01.021.022.029.035l.009.011c.504.679.49 1.619-.036 2.282l-.025.029-3.932 4.573H25.5a.341.341 0 0 0 .015.001h.014l.016.001a1.623 1.623 0 0 1 1.417 1.718l-.001 1.447.001.007a1.608 1.608 0 0 1-1.419 1.717l-.002.001a.369.369 0 0 1-.047 0Z"/>
  </g>
  <g id="grey">
    <path fill="#909090" d="M34.215 29.696a3.25 3.25 0 1 1-4.596 4.595 3.25 3.25 0 0 1 4.596-4.595Z"/>
  </g>
</svg>
