<svg xmlns="http://www.w3.org/2000/svg" xml:space="preserve" fill-rule="evenodd" stroke-linejoin="round" stroke-miterlimit="2" clip-rule="evenodd" viewBox="0 0 64 64">
  <g id="white">
    <path fill="#f4f4f4" d="M45.129 15.688h-6.621V20.5H24.82v-4.812h-5.949L31.742 2.45l13.387 13.238Zm-6.621 27.933v4.691h6.621L31.742 61.55 18.871 48.312h5.949V43.5l13.688.121Z"/>
    <path fill="#f3f4f4" fill-rule="nonzero" d="M40.868 30.766h-2.342v-2.778c0-3.232-2.943-5.863-6.558-5.863-3.616 0-6.556 2.631-6.556 5.863v2.778h-1.923c-1.143 0-1.182.83-1.182 1.851v7.407c0 1.021.039 1.851 1.182 1.851h17.379c1.145 0 .764-.83.764-1.851v-7.407c-.003-1.021.381-1.851-.764-1.851Zm-5.792 0h-6.212v-2.778a2.97 2.97 0 0 1 3.104-2.776 2.97 2.97 0 0 1 3.105 2.776l.003 2.778Z"/>
  </g>
</svg>
