<?xml version="1.0" encoding="UTF-8" standalone="no"?><!DOCTYPE svg PUBLIC "-//W3C//DTD SVG 1.1//EN" "http://www.w3.org/Graphics/SVG/1.1/DTD/svg11.dtd"><svg width="100%" height="100%" viewBox="0 0 64 64" version="1.1" xmlns="http://www.w3.org/2000/svg" xmlns:xlink="http://www.w3.org/1999/xlink" xml:space="preserve" xmlns:serif="http://www.serif.com/" style="fill-rule:evenodd;clip-rule:evenodd;stroke-linejoin:round;stroke-miterlimit:2;"><g id="white"><path d="M54.324,15.195L45.541,23.978L48.336,24.188C49.759,24.294 51.156,25.606 51.347,27.045L51.348,27.051C51.769,28.654 51.222,30.58 49.978,31.335C49.367,31.706 48.576,31.886 47.588,31.618C43.854,31.247 40.12,30.872 36.386,30.504C36.307,30.496 36.229,30.482 36.152,30.461C34.366,29.991 33.689,28.841 33.423,27.432C33.262,26.581 33.33,25.592 33.163,24.755C33.153,24.707 33.146,24.658 33.141,24.609L32.25,15.637C32.21,15.278 32.229,14.915 32.308,14.563L32.486,14.042L32.768,13.572L33.369,13.003C33.651,12.811 33.979,12.668 34.34,12.577C35.143,12.374 36.161,12.465 36.896,12.592C36.946,12.6 36.995,12.611 37.043,12.625C38.834,13.124 39.514,14.328 39.758,15.794C39.898,16.635 39.829,17.596 39.941,18.412L45.277,13.076L51.479,6.877C51.581,6.775 51.698,6.688 51.825,6.619C53.104,5.927 54.762,6.247 56.023,7.256C57.215,8.211 57.953,9.713 57.77,11.049C57.745,11.226 57.69,11.396 57.606,11.553C56.858,12.951 55.437,13.901 54.403,15.109C54.377,15.139 54.351,15.168 54.324,15.195ZM18.66,50.861L12.571,56.947C12.531,56.986 12.489,57.024 12.445,57.059C11.204,58.046 10.024,57.898 8.952,57.257C8.289,56.861 7.677,56.202 7.178,55.678L7.154,55.652C6.465,54.891 6.235,54.165 6.221,53.51C6.207,52.838 6.433,52.2 6.842,51.61C7.315,50.928 8.109,50.312 8.629,49.73L8.687,49.669L13.078,45.279L18.49,39.866L15.694,39.656L15.648,39.651C13.887,39.465 12.626,37.676 12.541,35.83C12.488,34.684 12.882,33.6 13.634,32.928C14.194,32.428 14.958,32.106 15.974,32.18L16.014,32.183C19.891,32.569 23.768,32.956 27.645,33.34C27.723,33.348 27.799,33.361 27.874,33.381C29.644,33.84 30.334,35.004 30.606,36.43C30.77,37.293 30.706,38.292 30.87,39.111C30.88,39.161 30.887,39.211 30.892,39.262C31.186,42.359 31.534,45.452 31.795,48.551C31.803,48.656 31.801,48.762 31.788,48.867C31.558,50.668 29.717,51.621 27.741,51.352C26.752,51.217 25.796,50.785 25.176,50.182C24.913,49.929 24.698,49.631 24.541,49.302L24.346,48.743L24.276,48.132L24.281,48.241L24.071,45.45L19.499,50.022L19.5,50.023L18.66,50.861Z" style="fill:#f3f4f4;"/></g></svg>