<svg xmlns="http://www.w3.org/2000/svg" xml:space="preserve" fill-rule="evenodd" stroke-linejoin="round" stroke-miterlimit="2" clip-rule="evenodd" viewBox="0 0 64 64">
  <g id="white">
    <path fill="#f3f4f4" d="M55.7 22.392a1.01 1.01 0 0 1-.872.288l-1.261-.124h-.003a1.49 1.49 0 0 1-1.289-1.312l.001-.005-.465-6.174L37 29.875l-.01.009a1.243 1.243 0 0 1-1.728-.173l-.973-.973a1.242 1.242 0 0 1-.172-1.727l.009-.011 14.811-14.811-6.176-.465h-.005a1.502 1.502 0 0 1-1.312-1.286v-.004l-.125-1.261a1.023 1.023 0 0 1 1.162-1.162l11.113 1.106h.005c.671.088 1.2.616 1.285 1.285v.005l1.104 11.111c.054.337-.068.654-.288.874ZM8.301 41.609c.218-.219.534-.341.871-.289l1.261.124h.003a1.49 1.49 0 0 1 1.289 1.312l-.001.005.465 6.174L27 34.125l.01-.009a1.243 1.243 0 0 1 1.728.173l.973.973c.517.431.593 1.204.172 1.727l-.009.011-14.811 14.811 6.176.465h.005a1.502 1.502 0 0 1 1.312 1.286v.004l.125 1.261a1.023 1.023 0 0 1-1.162 1.162l-11.113-1.106h-.005a1.489 1.489 0 0 1-1.285-1.285v-.005L8.012 42.482a1.002 1.002 0 0 1 .289-.873Z"/>
  </g>
</svg>
