<?xml version="1.0" encoding="UTF-8" standalone="no"?>
<!DOCTYPE svg PUBLIC "-//W3C//DTD SVG 1.1//EN" "http://www.w3.org/Graphics/SVG/1.1/DTD/svg11.dtd">
<svg width="100%" height="100%" viewBox="0 0 64 64" version="1.1" xmlns="http://www.w3.org/2000/svg" xmlns:xlink="http://www.w3.org/1999/xlink" xml:space="preserve" xmlns:serif="http://www.serif.com/" style="fill-rule:evenodd;clip-rule:evenodd;stroke-linecap:round;stroke-linejoin:round;stroke-miterlimit:1.5;">
    <g id="surface1">
        <path d="M16.168,27.389C15.882,27.546 15.525,27.439 15.368,27.153C15.211,26.865 15.317,26.504 15.604,26.347C17.053,25.555 19.081,25.036 20.818,25.472C21.493,25.642 22.091,25.916 22.702,26.147C23.23,26.347 23.767,26.509 24.415,26.499C25.365,26.485 26.286,26.23 27.208,25.971C28.217,25.679 29.227,25.378 30.269,25.286C31.379,25.188 32.348,25.443 33.301,25.744C34.135,26.004 34.955,26.296 35.89,26.31C36.973,26.328 37.996,26.069 39.016,25.8C40.122,25.504 41.229,25.188 42.391,25.124C43.262,25.073 44.122,25.513 44.929,25.722C46.003,26.004 46.998,26.082 48.11,25.907C48.429,25.851 48.735,26.073 48.791,26.393C48.842,26.716 48.619,27.022 48.3,27.073C47.017,27.282 45.869,27.194 44.627,26.869C43.933,26.689 43.206,26.264 42.456,26.305C41.377,26.366 40.349,26.665 39.322,26.944C38.195,27.245 37.071,27.513 35.871,27.495C34.816,27.481 33.89,27.166 32.95,26.874C32.139,26.619 31.32,26.383 30.375,26.466C29.407,26.55 28.472,26.842 27.532,27.11C26.509,27.403 25.486,27.671 24.434,27.685C23.623,27.699 22.943,27.504 22.285,27.255C21.711,27.041 21.16,26.782 20.526,26.619C19.076,26.254 17.382,26.721 16.168,27.389Z" style="fill:#ebebeb;"/>
        <path d="M17.789,29.667C17.493,29.81 17.142,29.685 16.998,29.388C16.854,29.097 16.979,28.74 17.276,28.601C19.068,27.736 21.077,27.588 23.101,27.847C24.16,27.986 25.253,28.333 26.337,28.292C28.134,28.217 29.686,27.537 31.519,27.588C33.25,27.639 35.117,28.375 36.82,28.193C37.695,28.101 38.506,27.814 39.322,27.546C40.233,27.25 41.151,26.981 42.14,26.967C43.641,26.939 45.077,27.495 46.577,27.546C46.906,27.554 47.161,27.828 47.151,28.157C47.137,28.486 46.864,28.74 46.535,28.732C45.058,28.681 43.641,28.125 42.159,28.147C41.294,28.166 40.493,28.412 39.691,28.676C38.793,28.967 37.904,29.273 36.946,29.375C35.19,29.555 33.269,28.824 31.486,28.773C29.681,28.722 28.153,29.403 26.388,29.472C25.24,29.523 24.073,29.171 22.948,29.023C21.155,28.791 19.373,28.902 17.789,29.667Z" style="fill:#ebebeb;"/>
        <path d="M18.993,30.959C18.683,31.051 18.354,30.865 18.262,30.551C18.174,30.236 18.359,29.912 18.67,29.82C20.271,29.366 21.799,29.403 23.327,29.583C24.763,29.759 26.203,30.056 27.704,30.134C28.819,30.194 29.902,29.972 30.991,29.745C32.167,29.504 33.347,29.25 34.571,29.264C36.218,29.278 37.692,29.912 39.279,30.171C40.678,30.403 41.97,30.236 43.369,30.213C43.697,30.204 43.966,30.467 43.97,30.792C43.974,31.12 43.716,31.389 43.391,31.399C41.919,31.421 40.558,31.584 39.089,31.343C37.557,31.088 36.149,30.463 34.561,30.449C33.422,30.435 32.324,30.68 31.231,30.908C30.046,31.153 28.86,31.385 27.643,31.319C26.115,31.241 24.652,30.935 23.188,30.763C21.809,30.602 20.433,30.551 18.993,30.959Z" style="fill:#ebebeb;"/>
        <path d="M27.111,16.586L32.408,22.424L21.813,22.424L27.111,16.586Z" style="fill:#f3f4f4;stroke:#f3f4f4;stroke-width:3.3px;"/>
        <path d="M27.111,23.452L27.116,37.562C26.926,49.175 39.39,56.38 51.184,48.327" style="fill:none;fill-rule:nonzero;stroke:#f3f4f4;stroke-width:3.56px;"/>
        <path d="M7.417,12.251L56.583,12.251L44.294,32.597L19.712,32.597L7.417,12.251Z" style="fill:none;fill-rule:nonzero;stroke:#565656;stroke-width:3.56px;"/>
        <path d="M41.581,27.435C40.914,27.37 40.243,27.37 39.571,27.435L39.242,29.041C38.603,29.143 37.974,29.31 37.372,29.546L36.279,28.314C35.668,28.592 35.084,28.931 34.537,29.32L35.061,30.88C34.552,31.287 34.093,31.746 33.691,32.25L32.13,31.732C31.736,32.278 31.403,32.857 31.125,33.473L32.353,34.561C32.12,35.167 31.95,35.793 31.852,36.432L30.24,36.765C30.176,37.431 30.176,38.103 30.24,38.774L31.852,39.104C31.95,39.743 32.12,40.372 32.353,40.974L31.125,42.067C31.403,42.678 31.736,43.261 32.13,43.803L33.691,43.289C34.093,43.794 34.552,44.252 35.061,44.655L34.537,46.216C35.084,46.61 35.668,46.943 36.279,47.22L37.372,45.993C37.974,46.225 38.603,46.396 39.242,46.494L39.571,48.105C40.243,48.17 40.914,48.17 41.581,48.105L41.914,46.494C42.553,46.396 43.178,46.225 43.785,45.993L44.873,47.22C45.489,46.943 46.068,46.61 46.614,46.216L46.095,44.655C46.6,44.252 47.063,43.794 47.466,43.289L49.026,43.803C49.415,43.261 49.753,42.678 50.032,42.067L48.8,40.974C49.036,40.372 49.202,39.743 49.304,39.104L50.911,38.774C50.976,38.103 50.976,37.431 50.911,36.765L49.304,36.432C49.202,35.793 49.036,35.167 48.8,34.561L50.032,33.473C49.753,32.857 49.415,32.278 49.026,31.732L47.466,32.25C47.063,31.746 46.6,31.287 46.095,30.88L46.614,29.32C46.068,28.931 45.489,28.592 44.873,28.314L43.785,29.546C43.178,29.31 42.553,29.143 41.914,29.041L41.581,27.435ZM40.576,35.691C41.724,35.691 42.655,36.622 42.655,37.77C42.655,38.913 41.724,39.845 40.576,39.845C39.432,39.845 38.501,38.913 38.501,37.77C38.501,36.622 39.432,35.691 40.576,35.691Z" style="fill:#c1bcbc;stroke:#c1bcbc;stroke-width:1.19px;"/>
    </g>
</svg>
