<svg xmlns="http://www.w3.org/2000/svg" xml:space="preserve" fill-rule="evenodd" stroke-linejoin="round" stroke-miterlimit="2" clip-rule="evenodd" viewBox="0 0 64 64">
  <g id="brown">
    <path fill="#acabab" d="M23.5 35.797a1.5 1.5 0 0 1-1.5 1.5H8a1.5 1.5 0 0 1-1.5-1.5V16.886a1.5 1.5 0 0 1 1.5-1.5h14a1.5 1.5 0 0 1 1.5 1.5 1.5 1.5 0 0 1 1.5-1.5h14a1.5 1.5 0 0 1 1.5 1.5 1.5 1.5 0 0 1 1.5-1.5h14a1.5 1.5 0 0 1 1.5 1.5v18.911a1.5 1.5 0 0 1-1.5 1.5H42a1.5 1.5 0 0 1-1.5-1.5 1.5 1.5 0 0 1-1.5 1.5H25a1.5 1.5 0 0 1-1.5-1.5Zm-3-1.5V18.386h-11v15.911h11Zm34 0V18.386h-11v15.911h11Zm-17 0V18.386h-11v15.911h11Z"/>
    <path fill="#ebebeb" d="M54.5 34.297h-11V18.386h11v15.911Zm-17 0h-11V18.386h11v15.911Zm-17 0h-11V18.386h11v15.911Z"/>
  </g>
  <g id="blue">
    <path fill="#f3f4f4" d="M40.5 47.114a1.5 1.5 0 0 1-3 0v-7a1.5 1.5 0 0 1 3 0 1.5 1.5 0 0 1 3 0v7a1.5 1.5 0 0 1-3 0Zm-17 0a1.5 1.5 0 0 1-3 0v-7a1.5 1.5 0 0 1 3 0 1.5 1.5 0 0 1 3 0v7a1.5 1.5 0 0 1-3 0Zm31-7a1.5 1.5 0 0 1 3 0v7a1.5 1.5 0 0 1-3 0v-7Zm-48 0a1.5 1.5 0 0 1 3 0v7a1.5 1.5 0 0 1-3 0v-7Z"/>
  </g>
</svg>
