<svg xmlns="http://www.w3.org/2000/svg" xml:space="preserve" fill-rule="evenodd" stroke-linejoin="round" stroke-miterlimit="2" clip-rule="evenodd" viewBox="0 0 40 40">
  <g id="white">
    <path fill="#ebebeb" fill-rule="nonzero" d="m2.462 16.695 18.271 15.331 16.525-9.54L18.922 7.191l-16.46 9.504Z"/>
  </g>
  <g id="grey">
    <path fill="#808080" d="m22.402 17.069-2.229 1.261-.003 6.3-1.223.74.003-8.598.782.664.031-2.162 6.338-3.774.038 1.877-.712.45-.038 2.454-.657-.531-1.124.636.017-1.558-1.195.755-.028 1.486Zm-3.021-3.798v-1.103l4.193-2.489-.095 1.313-4.098 2.279Zm4.5 14.35v-6.42l4.47-2.528v6.367l-4.47 2.581ZM14.334 21.5v-8.186l.86.595v7.127l-.86.464Z"/>
    <path fill="#525252" fill-rule="nonzero" d="m22.402 17.069.028-1.486 1.195-.755-.017 1.558-1.206.683Z"/>
    <path fill="#ababab" d="m23.643 9.437 2.458 2.063-6.337 3.774L12.5 9.228l2.429-1.402.203.776.025 1.19 4.224 3.479v-.067l4.083-2.293.036-1.045.143-.429Zm1.089 6.313 3.619 2.923-4.476 2.528-3.702-3.041 4.559-2.41ZM12.881 14.5l-2.889-2.453 2.508-1.449V9.583v1.462l.381.263V14.5Z"/>
    <path fill="#d4d4d4" d="M12.892 19.009 10 16.5V12l2.881 2.5v-3.192l-.381-.263V9.228l7.264 6.041-.032 2.167-.782-.662-.003 8.596-2.328-2.048v-1.213l-1.408-1.1-.017.01v-7.11l-.86-.595V21.5l-1.453-1.202.011-1.289Zm2.626-3.958v5.262l.874.725v-5.184l-.874-.803Zm-.361-5.259-.033-1.22 4.257 3.535v1.164l-4.224-3.479Zm5.016 8.369 3.708 2.934-.003 6.668-3.708-3.176.003-6.426Z"/>
    <path fill="#b5b5b5" fill-rule="nonzero" d="M15.518 15.051v5.262l.874.725v-5.184l-.874-.803Z"/>
    <path fill="#b5b5b5" fill-rule="nonzero" d="m14.619 8.172 4.815 3.966-.053-10.019-4.762 6.053Z"/>
    <path fill="#909090" fill-rule="nonzero" d="m19.381 2.119 4.976 7.111-4.976 2.938V2.119Z"/>
    <path fill="#434343" fill-rule="nonzero" d="m2.462 18.317 18.229 15.648 16.562-9.76.005-1.719-16.525 9.54L2.5 16.728l-.038 1.589Z"/>
  </g>
</svg>
