<?xml version="1.0" encoding="UTF-8" standalone="no"?>
<!DOCTYPE svg PUBLIC "-//W3C//DTD SVG 1.1//EN" "http://www.w3.org/Graphics/SVG/1.1/DTD/svg11.dtd">
<svg width="100%" height="100%" viewBox="0 0 64 64" version="1.1" xmlns="http://www.w3.org/2000/svg" xmlns:xlink="http://www.w3.org/1999/xlink" xml:space="preserve" xmlns:serif="http://www.serif.com/" style="fill-rule:evenodd;clip-rule:evenodd;stroke-linejoin:round;stroke-miterlimit:2;">
    <g id="surface1">
        <path d="M23.406,46.777C23.406,44.445 20.59,42.551 17.117,42.551C13.645,42.551 10.832,44.445 10.832,46.777C10.832,49.113 13.645,51.004 17.117,51.004C20.59,51.004 23.406,49.113 23.406,46.777Z" style="fill:#f4f4f4;"/>
        <path d="M24.141,41.254C24.141,39.258 22.035,37.637 19.441,37.637C16.844,37.637 14.738,39.258 14.738,41.254C14.738,43.254 16.844,44.871 19.441,44.871C22.035,44.871 24.141,43.254 24.141,41.254Z" style="fill:#f4f4f4;"/>
        <path d="M27.367,44.988C27.367,43.645 25.723,42.555 23.688,42.555C21.656,42.555 20.008,43.645 20.008,44.988C20.008,46.336 21.656,47.426 23.688,47.426C25.723,47.426 27.367,46.336 27.367,44.988Z" style="fill:#f4f4f4;"/>
        <path d="M16.211,44.066C16.211,42.816 14.59,41.805 12.586,41.805C10.586,41.805 8.961,42.816 8.961,44.066C8.961,45.313 10.586,46.324 12.586,46.324C14.59,46.324 16.211,45.313 16.211,44.066Z" style="fill:#f4f4f4;"/>
        <path d="M19.441,39.223C19.441,36.547 17.715,34.375 15.59,34.375C13.461,34.375 11.738,36.547 11.738,39.223C11.738,41.898 13.461,44.066 15.59,44.066C17.715,44.066 19.441,41.898 19.441,39.223Z" style="fill:#f4f4f4;"/>
        <path d="M51.047,47.344C51.047,45.758 49.445,44.473 47.469,44.473C45.496,44.473 43.895,45.758 43.895,47.344C43.895,48.934 45.496,50.219 47.469,50.219C49.445,50.219 51.047,48.934 51.047,47.344Z" style="fill:#f4f4f4;"/>
        <path d="M51.461,40.055C51.461,36.375 49.859,33.395 47.883,33.395C45.906,33.395 44.305,36.375 44.305,40.055C44.305,43.73 45.906,46.715 47.883,46.715C49.859,46.715 51.461,43.73 51.461,40.055Z" style="fill:#f4f4f4;"/>
        <path d="M47.883,43.891C47.883,41.098 46.281,38.836 44.305,38.836C42.332,38.836 40.73,41.098 40.73,43.891C40.73,46.684 42.332,48.945 44.305,48.945C46.281,48.945 47.883,46.684 47.883,43.891Z" style="fill:#f4f4f4;"/>
        <path d="M42.832,14.273C42.832,13.09 42.098,12.133 41.191,12.133C40.285,12.133 39.551,13.09 39.551,14.273C39.551,15.453 40.285,16.41 41.191,16.41C42.098,16.41 42.832,15.453 42.832,14.273Z" style="fill:#f4f4f4;"/>
        <path d="M33.852,21.152L33.035,21.316L33.086,27.645L34.598,28.016L33.852,21.152Z" style="fill:#f4f4f4;"/>
        <path d="M16.813,46.832L16.156,47.777L16.805,53.867L18.457,53.988L16.813,46.832Z" style="fill:#f4f4f4;"/>
        <path d="M47.914,46.781L47.039,46.777L47.008,52.762L48.875,52.844L47.914,46.781Z" style="fill:#f4f4f4;"/>
        <path d="M40.965,39.25L40.605,39.574L45.941,45.395L46.297,45.066L40.965,39.25Z" style="fill:#f4f4f4;"/>
        <path d="M46.352,31.969L45.887,32.098L48.039,39.691L48.504,39.563L46.352,31.969Z" style="fill:#f4f4f4;"/>
        <path d="M23.688,38.043L23.25,37.613L17.34,43.637L17.781,44.066L23.688,38.043Z" style="fill:#f4f4f4;"/>
        <path d="M40.523,15.797L40.199,15.273L33.035,19.734L33.359,20.258L40.523,15.797Z" style="fill:#f4f4f4;"/>
        <path d="M33.105,19.645L33.496,19.258L29.883,15.598L29.492,15.984L33.105,19.645Z" style="fill:#f4f4f4;"/>
        <path d="M54.973,36.758L54.652,36.395L48.734,41.621L49.055,41.984L54.973,36.758Z" style="fill:#f4f4f4;"/>
        <path d="M55.035,42.285C55.035,39.227 53.434,36.742 51.461,36.742C49.484,36.742 47.883,39.227 47.883,42.285C47.883,45.348 49.484,47.828 51.461,47.828C53.434,47.828 55.035,45.348 55.035,42.285Z" style="fill:#f4f4f4;"/>
        <path d="M20.012,46.777L19.441,46.785L19.516,53.715L20.086,53.707L20.012,46.777Z" style="fill:#f4f4f4;"/>
        <path d="M22.258,50.703L21.918,50.246L19.441,52.074L19.777,52.531L22.258,50.703Z" style="fill:#f4f4f4;"/>
        <path d="M36.559,20.641C36.559,18.531 34.98,16.82 33.035,16.82C31.09,16.82 29.512,18.531 29.512,20.641C29.512,22.75 31.09,24.457 33.035,24.457C34.98,24.457 36.559,22.75 36.559,20.641Z" style="fill:#f4f4f4;"/>
        <path d="M42.203,16.82C40.816,17.629 37.59,17.566 35.004,16.68C32.414,15.797 31.441,14.426 32.828,13.617C34.215,12.813 37.438,12.875 40.027,13.758C42.613,14.645 43.59,16.016 42.203,16.82Z" style="fill:#f4f4f4;"/>
        <path d="M31.344,14.355C31.344,12.68 29.598,11.32 27.441,11.32C25.285,11.32 23.539,12.68 23.539,14.355C23.539,16.027 25.285,17.387 27.441,17.387C29.598,17.387 31.344,16.027 31.344,14.355Z" style="fill:#f4f4f4;"/>
        <path d="M33.016,21.871C33.016,20.199 31.266,18.84 29.113,18.84C26.957,18.84 25.211,20.199 25.211,21.871C25.211,23.547 26.957,24.906 29.113,24.906C31.266,24.906 33.016,23.547 33.016,21.871Z" style="fill:#f4f4f4;"/>
        <path d="M40.891,22.109C40.891,20.438 39.145,19.078 36.988,19.078C34.832,19.078 33.086,20.438 33.086,22.109C33.086,23.785 34.832,25.145 36.988,25.145C39.145,25.145 40.891,23.785 40.891,22.109Z" style="fill:#f4f4f4;"/>
        <path d="M40.891,13.379C40.891,11.703 39.969,10.344 38.836,10.344C37.699,10.344 36.777,11.703 36.777,13.379C36.777,15.055 37.699,16.41 38.836,16.41C39.969,16.41 40.891,15.055 40.891,13.379Z" style="fill:#f4f4f4;"/>
        <path d="M35.098,12.629C35.098,10.992 33.418,9.66 31.344,9.66C29.27,9.66 27.59,10.992 27.59,12.629C27.59,14.27 29.27,15.598 31.344,15.598C33.418,15.598 35.098,14.27 35.098,12.629Z" style="fill:#f4f4f4;"/>
        <path d="M52.566,36.43C52.566,35.586 52.07,34.902 51.461,34.902C50.848,34.902 50.352,35.586 50.352,36.43C50.352,37.273 50.848,37.961 51.461,37.961C52.07,37.961 52.566,37.273 52.566,36.43Z" style="fill:#f4f4f4;"/>
        <path d="M45.727,37.957C45.727,36.801 44.98,35.863 44.063,35.863C43.141,35.863 42.395,36.801 42.395,37.957C42.395,39.113 43.141,40.055 44.063,40.055C44.98,40.055 45.727,39.113 45.727,37.957Z" style="fill:#f4f4f4;"/>
    </g>
</svg>
