<?xml version="1.0" encoding="UTF-8" standalone="no"?>
<!DOCTYPE svg PUBLIC "-//W3C//DTD SVG 1.1//EN" "http://www.w3.org/Graphics/SVG/1.1/DTD/svg11.dtd">
<svg width="100%" height="100%" viewBox="0 0 64 64" version="1.1" xmlns="http://www.w3.org/2000/svg" xmlns:xlink="http://www.w3.org/1999/xlink" xml:space="preserve" xmlns:serif="http://www.serif.com/" style="fill-rule:evenodd;clip-rule:evenodd;stroke-linejoin:round;stroke-miterlimit:2;">
    <g id="CinematicCameraOff">
        <path id="Icon_awesome-camera" d="M57.984,21.116L57.984,49.102C57.983,51.66 55.878,53.765 53.32,53.766L10.678,53.766C8.121,53.764 6.017,51.659 6.016,49.102L6.016,21.116C6.017,18.559 8.121,16.454 10.678,16.452L20.494,16.452L21.694,13.252C22.375,11.441 24.117,10.235 26.052,10.234L38.252,10.234C40.189,10.234 41.934,11.442 42.614,13.256L43.814,16.456L53.32,16.456C55.877,16.457 57.981,18.559 57.984,21.116ZM43.814,35.116C43.814,28.72 38.55,23.456 32.154,23.456C25.758,23.456 20.494,28.72 20.494,35.116C20.494,41.512 25.758,46.776 32.154,46.776C38.551,46.771 43.812,41.507 43.814,35.11L43.814,35.116ZM40.704,35.116C40.704,39.806 36.844,43.666 32.154,43.666C27.464,43.666 23.604,39.806 23.604,35.116C23.604,30.426 27.464,26.566 32.154,26.566C36.839,26.574 40.693,30.425 40.704,35.11L40.704,35.116Z" style="fill:#f3f4f4;fill-rule:nonzero;"/>
    </g>
</svg>
