<?xml version="1.0" encoding="UTF-8" standalone="no"?>
<!DOCTYPE svg PUBLIC "-//W3C//DTD SVG 1.1//EN" "http://www.w3.org/Graphics/SVG/1.1/DTD/svg11.dtd">
<svg width="100%" height="100%" viewBox="0 0 64 64" version="1.1" xmlns="http://www.w3.org/2000/svg" xmlns:xlink="http://www.w3.org/1999/xlink" xml:space="preserve" xmlns:serif="http://www.serif.com/" style="fill-rule:evenodd;clip-rule:evenodd;">
    <g id="Advisor">
        <g id="Info">
            <circle cx="32" cy="32" r="23" style="fill:none;stroke:#f3f4f4;stroke-width:6px;"/>
        </g>
        <path d="M29.22,36.686C29.206,35.8 29.355,34.918 29.66,34.086C29.918,33.383 30.279,32.723 30.73,32.126C31.15,31.586 31.704,30.955 32.392,30.234C32.842,29.78 33.27,29.303 33.672,28.806C33.982,28.411 34.241,27.98 34.446,27.522C34.659,27.041 34.767,26.52 34.762,25.994L34.762,25.978C34.802,25.322 34.57,24.677 34.122,24.196C33.632,23.751 32.983,23.522 32.322,23.562C31.653,23.524 31,23.78 30.536,24.262C30.08,24.813 29.845,25.515 29.878,26.23L29.878,26.246L24.446,26.246L24.446,26.23C24.469,24.895 24.83,23.587 25.496,22.43C26.132,21.381 27.067,20.545 28.18,20.03C29.473,19.449 30.879,19.166 32.296,19.202C33.751,19.166 35.199,19.419 36.556,19.946C37.653,20.369 38.595,21.115 39.258,22.086C39.897,23.102 40.219,24.286 40.184,25.486L40.184,25.502C40.196,26.303 40.057,27.1 39.774,27.85C39.524,28.505 39.183,29.122 38.762,29.682C38.263,30.316 37.728,30.923 37.162,31.498C36.538,32.165 36.051,32.722 35.7,33.17C35.334,33.648 35.035,34.173 34.812,34.732C34.565,35.352 34.442,36.015 34.45,36.682L29.22,36.686ZM29.24,39.372L34.474,39.372L34.474,44L29.24,44L29.24,39.372Z" style="fill:#f3f4f4;fill-rule:nonzero;"/>
    </g>
</svg>
