<svg xmlns="http://www.w3.org/2000/svg" xml:space="preserve" fill-rule="evenodd" stroke-linejoin="round" stroke-miterlimit="2" clip-rule="evenodd" viewBox="0 0 64 64">
  <g id="blue">
    <path fill="#909090" fill-rule="nonzero" d="M48.531 57.09H15.655c-7.092 0-12.862-6.8-12.862-15.16a15.27 15.27 0 0 1 8.6-14.308v-.118c0-.242-.014-.49-.014-.734a21.525 21.525 0 0 1 4.438-13.332 18.24 18.24 0 0 1 14.8-6.51c.318 0 .642 0 .964.018 10.312.764 17.256 3.83 20.64 9.118 4.828 6.43 1.28 13 1.28 13 12.216 5.755 9.466 26.734-4.97 28.026Z"/>
  </g>
  <g id="white">
    <path fill="#fafafa" d="M28.675 23.637H22.5l9.5-9.5 9.5 9.5h-6.175v26.227h-6.65V23.637Z"/>
  </g>
</svg>
