<svg xmlns="http://www.w3.org/2000/svg" xml:space="preserve" fill-rule="evenodd" stroke-linejoin="round" stroke-miterlimit="2" clip-rule="evenodd" viewBox="0 0 64 64">
  <g id="white">
    <path fill="#ebebeb" d="M44.872 10.334c10.039 5.795 12.421 20.491 5.317 32.797-.458.792-.772 2.866-1.455 2.289-10.856-9.175-22.373-4.082-27.787 10.418-.235.631-1.226-.57-1.819-.913-10.039-5.796-12.421-20.491-5.317-32.797 7.105-12.305 21.023-17.59 31.061-11.794Zm3.423 23.881a3.049 3.049 0 1 0-3.049 5.28 3.049 3.049 0 0 0 3.049-5.28Z"/>
  </g>
  <g id="grey">
    <path fill="#6e6e6e" d="M49.902 22.625a3.728 3.728 0 0 1 1.364 5.09 3.727 3.727 0 1 1-1.364-5.09Z"/>
    <path fill="#808080" d="M44.15 12.263a3.727 3.727 0 0 1-3.727 6.454 3.728 3.728 0 0 1-1.364-5.09 3.73 3.73 0 0 1 5.091-1.364Z"/>
    <path fill="#909090" d="M32.176 12a3.728 3.728 0 0 1 1.364 5.09A3.727 3.727 0 1 1 32.176 12Z"/>
    <path fill="#c2bdbd" d="M22.818 18.723a3.728 3.728 0 0 1 1.364 5.09 3.728 3.728 0 0 1-5.09 1.364 3.728 3.728 0 0 1-1.364-5.09 3.728 3.728 0 0 1 5.09-1.364Z"/>
    <path fill="#bdbdbd" d="M17.601 29.792a3.728 3.728 0 0 1 1.364 5.09 3.727 3.727 0 1 1-1.364-5.09Z"/>
    <path fill="#d4d4d4" d="M19.56 42.658a3.727 3.727 0 0 1-3.726 6.454 3.728 3.728 0 0 1-1.364-5.09 3.728 3.728 0 0 1 5.09-1.364Z"/>
  </g>
</svg>
