<?xml version="1.0" encoding="UTF-8" standalone="no"?>
<!DOCTYPE svg PUBLIC "-//W3C//DTD SVG 1.1//EN" "http://www.w3.org/Graphics/SVG/1.1/DTD/svg11.dtd">
<svg width="100%" height="100%" viewBox="0 0 64 64" version="1.1" xmlns="http://www.w3.org/2000/svg" xmlns:xlink="http://www.w3.org/1999/xlink" xml:space="preserve" xmlns:serif="http://www.serif.com/" style="fill-rule:evenodd;clip-rule:evenodd;stroke-linecap:round;stroke-linejoin:round;stroke-miterlimit:1.5;">
    <g id="surface1">
        <path d="M12,30.395C13.652,30.219 15.191,31.398 16.609,31.055C17.98,30.723 19.336,29.602 21.082,29.953C23.176,30.379 24.863,31.016 26.395,31.285C29.184,31.777 31.227,30.008 32.805,29.953C34.73,29.883 36.531,31.52 38.16,31.289C40.094,31.016 41.555,30.266 43.141,29.953C44.57,29.672 46.016,30.547 47.465,31.059C49.039,31.621 50.438,30.621 51.848,30.496" style="fill:none;fill-rule:nonzero;stroke:#ebebeb;stroke-width:1.5px;"/>
        <rect x="11.047" y="31.043" width="41.434" height="19.879" style="fill:#b4b4b4;stroke:#b4b4b4;stroke-width:1px;"/>
        <path d="M15.465,13.094C15.465,13.094 12.633,18.422 12.633,20.703C12.633,22.266 13.902,23.535 15.465,23.535C17.027,23.535 18.297,22.266 18.297,20.703C18.297,18.422 15.465,13.094 15.465,13.094Z" style="fill:#f3f4f4;"/>
        <path d="M26.32,13.094C26.32,13.094 23.488,18.422 23.488,20.703C23.488,22.266 24.758,23.535 26.32,23.535C27.883,23.535 29.152,22.266 29.152,20.703C29.152,18.422 26.32,13.094 26.32,13.094Z" style="fill:#f3f4f4;"/>
        <path d="M37.68,13.094C37.68,13.094 34.848,18.422 34.848,20.703C34.848,22.266 36.117,23.535 37.68,23.535C39.242,23.535 40.512,22.266 40.512,20.703C40.512,18.422 37.68,13.094 37.68,13.094Z" style="fill:#f3f4f4;"/>
        <path d="M48.535,13.094C48.535,13.094 45.703,18.422 45.703,20.703C45.703,22.266 46.973,23.535 48.535,23.535C50.098,23.535 51.367,22.266 51.367,20.703C51.367,18.422 48.535,13.094 48.535,13.094Z" style="fill:#f3f4f4;"/>
        <path d="M12.074,28.285C13.73,28.113 15.27,29.289 16.684,28.945C18.055,28.617 19.414,27.492 21.156,27.848C23.254,28.273 24.938,28.91 26.473,29.18C29.258,29.668 31.305,27.902 32.879,27.848C34.805,27.777 36.609,29.41 38.238,29.18C40.172,28.906 41.629,28.16 43.215,27.848C44.648,27.563 46.09,28.438 47.539,28.953C49.117,29.516 50.516,28.516 51.926,28.391" style="fill:none;fill-rule:nonzero;stroke:#f3f4f4;stroke-width:1.5px;"/>
        <path d="M20.543,36.512L20.543,45.453L24.117,41.949L16.898,41.949L20.543,45.453" style="fill:#565656;stroke:#565656;stroke-width:2px;"/>
        <path d="M32.289,36.512L32.289,45.453L35.863,41.949L28.641,41.949L32.289,45.453" style="fill:#565656;stroke:#565656;stroke-width:2px;"/>
        <path d="M44.035,36.512L44.035,45.453L47.609,41.949L40.387,41.949L44.035,45.453" style="fill:#565656;stroke:#565656;stroke-width:2px;"/>
        <rect x="10.402" y="27.965" width="2.23" height="22.957" style="fill:#b4b4b4;stroke:#b4b4b4;stroke-width:1px;"/>
        <rect x="51.367" y="27.891" width="2.23" height="23.031" style="fill:#b4b4b4;stroke:#b4b4b4;stroke-width:1px;"/>
    </g>
</svg>
