<svg xmlns="http://www.w3.org/2000/svg" xml:space="preserve" fill-rule="evenodd" stroke-linejoin="round" stroke-miterlimit="2" clip-rule="evenodd" viewBox="0 0 64 64">
  <g id="grey">
    <path fill="#909090" d="M28.5 40.5c-.397-.684-4.004-15-4.004-15H26l5 17-2.297.5s.194-1.816-.203-2.5Z"/>
    <path fill="#909090" d="m39 30-5.5 14h1.274L40.5 30.5 39 30Z"/>
    <path fill="#909090" d="M28.318 40c-6.846-2.023-9.995-5.682-12.072-9.816.279-.419 9.461 4.15 11.502 7.566l.57 2.25Z"/>
    <path fill="#838383" d="M33.5 26.5c-2.591 2.375-4.433 5.906-4.5 9.2l.761 2.587c1.884.165 5.584-8.769 3.739-11.787Z"/>
    <path fill="#b5b5b5" d="M36.895 39c3.757-2.768 7.871-4.153 12.254-4.5-3.287 4.352-7.44 6.381-12.678 5.5l.424-1Z"/>
    <path fill="#6e6e6e" d="M28.278 41h13.96l-4.746 16.766h-5.654L28.278 41Z"/>
    <path fill="#ababab" d="m21.762 41 4.746 16.766h5.33L28.278 41h-6.516Z"/>
    <path fill="#bdbdbd" d="M24.512 19a2.751 2.751 0 0 1 0 5.5 2.751 2.751 0 0 1 0-5.5Zm15.238 7.75a2.751 2.751 0 0 1 0 5.5 2.751 2.751 0 0 1 0-5.5Z"/>
  </g>
  <g id="white">
    <path fill="#f4f4f4" d="M22.753 15.243a1.76 1.76 0 0 1 1.743-1.685c.934 0 1.711.751 1.743 1.685a1.761 1.761 0 0 1 2.382-.638 1.761 1.761 0 0 1 .638 2.382 1.761 1.761 0 0 1 2.382.638c.481.833.195 1.9-.638 2.382a1.76 1.76 0 0 1 1.685 1.743c0 .934-.751 1.711-1.685 1.743a1.761 1.761 0 0 1 .638 2.382 1.761 1.761 0 0 1-2.382.638c.478.828.19 1.903-.638 2.382-.833.481-1.9.195-2.382-.638a1.76 1.76 0 0 1-1.743 1.685 1.76 1.76 0 0 1-1.743-1.685 1.761 1.761 0 0 1-2.382.638 1.761 1.761 0 0 1-.638-2.382c-.829.473-1.9.186-2.382-.638a1.761 1.761 0 0 1 .638-2.382 1.76 1.76 0 0 1-1.685-1.743c0-.934.751-1.711 1.685-1.743a1.761 1.761 0 0 1-.638-2.382 1.761 1.761 0 0 1 2.382-.638 1.761 1.761 0 0 1 .638-2.382 1.761 1.761 0 0 1 2.382.638ZM24.512 19a2.751 2.751 0 0 0 0 5.5 2.751 2.751 0 0 0 0-5.5Zm13.495 3.993a1.76 1.76 0 0 1 1.743-1.685c.934 0 1.711.751 1.743 1.685a1.761 1.761 0 0 1 2.382-.638 1.761 1.761 0 0 1 .638 2.382 1.761 1.761 0 0 1 2.382.638c.481.833.195 1.9-.638 2.382a1.76 1.76 0 0 1 1.685 1.743c0 .934-.751 1.711-1.685 1.743a1.761 1.761 0 0 1 .638 2.382 1.761 1.761 0 0 1-2.382.638c.478.828.19 1.903-.638 2.382-.833.481-1.9.195-2.382-.638a1.76 1.76 0 0 1-1.743 1.685 1.76 1.76 0 0 1-1.743-1.685 1.761 1.761 0 0 1-2.382.638 1.761 1.761 0 0 1-.638-2.382c-.829.473-1.9.186-2.382-.638a1.761 1.761 0 0 1 .638-2.382 1.76 1.76 0 0 1-1.685-1.743c0-.934.751-1.711 1.685-1.743a1.761 1.761 0 0 1-.638-2.382 1.761 1.761 0 0 1 2.382-.638 1.761 1.761 0 0 1 .638-2.382 1.761 1.761 0 0 1 2.382.638Zm1.743 3.757a2.751 2.751 0 0 0 0 5.5 2.751 2.751 0 0 0 0-5.5Z"/>
  </g>
</svg>
