<svg xmlns="http://www.w3.org/2000/svg" xml:space="preserve" fill-rule="evenodd" stroke-linejoin="round" stroke-miterlimit="2" clip-rule="evenodd" viewBox="0 0 64 64">
  <g id="brown">
    <path fill="#b5b5b5" d="m47.263 11.426 1.997-1.152 1.159.972-1.98 1.167-1.176-.987Z"/>
    <path fill="#707070" d="M50.419 19.084v3.85l4.275 3.653v2.145l-6.263-5.256.008-11.058 1.98-1.172v3.693l-.365-.305-1.141.636v2.524l1.506 1.29Zm5.442-.414 1.989-1.149v24.305l-1.936 1.098v-8.896l-5.076 2.91v8.937l-2.06 1.19V35.642l7.083-4.047V18.67ZM43.406 33.563v6.076l-2.06 1.19v-9.028l2.06 1.762Z"/>
    <path fill="#b5b5b5" d="m40.193 28.485 7.087-4.091 8.581 7.2-7.083 4.048-8.585-7.157Z"/>
    <path fill="#b5b5b5" d="m54.694 17.667 1.969-1.141 1.187.995-1.989 1.149-1.167-1.003Z"/>
    <path fill="#ababab" d="m55.861 31.595-8.595-7.213V11.434l1.173.979-.006 11.065 6.261 5.254v-5.983l-5.781-4.955V15.27l5.781 4.844v-2.447l1.167.979v12.949Z"/>
    <path fill="#b5b5b5" d="M40.193 39.861V28.485l8.585 7.157v11.402l-1.372-1.129-.007-8.938-6.053-5.176v9.028l-1.153-.968Z"/>
    <path fill="#b5b5b5" fill-rule="nonzero" d="m55.914 42.924-1.313-1.046v-7.086l1.313-.764v8.896Z"/>
    <path fill="#b5b5b5" d="m48.913 15.27 1.141-.636 4.64 3.893v1.602l-5.781-4.859Z"/>
    <path fill="#ababab" d="M13.581 19.312v3.849l-4.275 3.653v2.145l6.263-5.255-.008-11.058-1.98-1.173v3.693l.365-.305 1.141.637v2.524l-1.506 1.29Zm-5.442-.415L6.15 17.749v24.305l1.936 1.097v-8.895l5.076 2.909v8.937l2.06 1.19V35.868l-7.083-4.047V18.897Zm12.455 14.892v6.078l2.06 1.189v-9.028l-2.06 1.761Z"/>
    <path fill="#b5b5b5" d="m23.807 28.713-7.087-4.091-8.581 7.199 7.083 4.047 8.585-7.155Z"/>
    <path fill="#b5b5b5" d="m9.306 17.895-1.969-1.142-1.187.996 1.989 1.148 1.167-1.002Z"/>
    <path fill="#b5b5b5" d="m15.087 15.498-1.141-.637-4.64 3.894v1.602l5.781-4.859Z"/>
    <path fill="#b5b5b5" d="m16.737 11.654-1.997-1.153-1.159.972 1.98 1.168 1.176-.987Z"/>
    <path fill="#707070" d="m8.139 31.821 8.595-7.211V11.661l-1.173.98.006 11.065-6.261 5.253v-5.983l5.781-4.954v-2.524l-5.781 4.843v-2.446l-1.167.978v12.948Zm15.668 8.268V28.713l-8.585 7.155v11.404l1.372-1.129.007-8.938 6.053-5.177v9.028l1.153-.967Z"/>
    <path fill="#707070" fill-rule="nonzero" d="m8.086 43.151 1.313-1.046v-7.087l-1.313-.762v8.895Z"/>
    <path fill="#707070" d="M38.761 49.169c.151 1.138-.48 2.322-1.9 3.229-2.619 1.674-6.935 1.78-9.633.238-1.516-.866-2.2-2.071-2.044-3.255.127.96.811 1.888 2.044 2.594 2.698 1.541 7.014 1.435 9.633-.238 1.146-.733 1.778-1.644 1.9-2.568Z"/>
    <path fill="#575757" d="M35.509 42.663v5.195c.281.7-.023 1.479-.918 2.051-1.388.886-3.676.944-5.106.126-.879-.502-1.231-1.219-1.048-1.903v-5.365c2.33.264 4.743.228 7.072-.104Z"/>
    <path fill="#707070" d="M28.437 42.767c-3.026-.342-5.912-1.189-8.295-2.55-3.79-2.166-5.501-5.175-5.109-8.139.318 2.401 2.025 4.722 5.109 6.484 6.743 3.853 17.53 3.587 24.075-.594 2.865-1.831 4.446-4.111 4.75-6.419.378 2.847-1.199 5.805-4.75 8.073-2.452 1.568-5.5 2.584-8.708 3.041a28.092 28.092 0 0 1-7.072.104Z"/>
    <path fill="#909090" d="M35.509 45.365c.427.151.833.334 1.207.547 1.518.867 2.201 2.071 2.045 3.257-.122.924-.754 1.835-1.9 2.568-2.619 1.673-6.935 1.779-9.633.238-1.233-.706-1.917-1.634-2.044-2.594-.151-1.14.48-2.323 1.901-3.231.427-.27.88-.496 1.352-.674v2.656c-.183.684.169 1.401 1.048 1.903 1.43.818 3.718.76 5.106-.126.895-.572 1.199-1.351.918-2.051v-2.493Z"/>
    <path fill="#909090" d="M15.033 32.078c-.378-2.846 1.199-5.804 4.75-8.072 6.545-4.182 17.332-4.448 24.075-.595 3.79 2.165 5.501 5.175 5.109 8.138-.304 2.308-1.885 4.588-4.75 6.419-6.545 4.181-17.332 4.447-24.075.594-3.084-1.762-4.791-4.083-5.109-6.484Z"/>
  </g>
  <g id="white">
    <path fill="#f4f4f4" d="m21.777 24.528 4.483-2.865 4.441 2.539-4.483 2.864-4.441-2.538Zm14.854-3.517.056.009 4.714 2.694-4.974 3.179-4.752-2.715 4.956-3.167ZM47.489 33.76l-4.511 2.883-.715-.41 4.482-2.863.744.39Zm-6.349-3.592-4.481 2.863-4.701-2.686 4.483-2.863 4.699 2.686Zm-14.907-2.514 4.751 2.716-4.69 2.997-4.752-2.715 4.691-2.998Zm10.365 11.601-4.616-2.637 4.691-2.998 4.616 2.638-4.691 2.997Zm.73.997-.954.609-4.036 5.426-.61-.771 2.526-4.166 2.359-1.506.715.408Zm9.762-13.287 1.063.608c.793 1.191 1.088 2.796 1.113 4.621l-.121-.867-.364.145-2.05 1.309-4.617-2.637 4.976-3.179ZM26.019 39.829l-4.701-2.686 4.99-3.187 4.7 2.685-4.989 3.188Zm-10.441-5.966-.127-.073c-.334 1.052-.429 2.265-.525 3.476-.211-2.428-.318-4.786.052-6.815a6.825 6.825 0 0 1 .551-1.932l.598-.382 4.441 2.539-4.99 3.187Z"/>
  </g>
  <g id="red" fill="#c2bdbd">
    <path d="m41.888 23.997 4.7 2.685-4.975 3.179-4.7-2.686 4.975-3.178Zm-15.157-2.639.217-.139a28.045 28.045 0 0 1 8.909-.316l-4.684 2.993-4.442-2.538Zm.05 12.291 4.691-2.997 4.699 2.686-4.691 2.996-4.699-2.685Zm19.462-.561-4.481 2.863-4.617-2.637 4.483-2.864 4.615 2.638Zm-15.055-8.603 4.751 2.715-4.482 2.863-4.751-2.715 4.482-2.863Zm11.303 12.464-4.692 2.997-.714-.409 4.691-2.997.715.409Zm6.762-3.938c-.028 1.124-.141 2.318-.29 3.541-.075-1.357-.144-2.729-.457-3.446l-.574.366-.715-.408 1.586-1.014.45.961Zm-32.654-5.18 4.691-2.997 4.442 2.538-4.691 2.998-4.442-2.539Zm14.798 17.276-3.171-4.012-1.721-.984 4.99-3.188 4.616 2.639-2.185 1.395-.08.082-2.449 4.068Zm-10.58-8.246-4.751-2.716 4.989-3.187 4.752 2.716-4.99 3.187Z"/>
    <path d="M15.571 33.863c-.167-.267-.532-.017-.827.044-.021 1.253.036 2.026.176 3.359l.651-3.403Z"/>
    <path d="m16.12 28.137.479-.306 4.442 2.539 4.691-2.998-4.442-2.538.48-.306 4.441 2.538 4.482-2.864-4.441-2.539.479-.305 4.442 2.538 4.684-2.993c.256.035.512.071.767.108l-4.957 3.167 4.752 2.715 4.975-3.179.494.283-4.975 3.178 4.7 2.686 4.975-3.179.494.283-4.975 3.179 4.616 2.637 2.051-1.309.442-.265.043.987.001.448c-.001.122-.003.245-.007.369l-.45-.961-1.586 1.014.715.408-.45.288-.745-.39-4.481 2.863.715.41-.48.306-.715-.409-4.691 2.997.714.409-.478.306-.715-.408-2.36 1.506-2.525 4.166-.324-.409 2.449-4.068.08-.082 2.185-1.395-4.616-2.639-4.99 3.188-.494-.282 4.99-3.188-4.7-2.685-4.99 3.187-.494-.282 4.99-3.187-4.752-2.716-4.989 3.187-.495-.282 4.99-3.187-4.441-2.539Zm25.013 2.031-4.7-2.686-4.482 2.863 4.7 2.686 4.482-2.863Zm-14.352 3.481 4.699 2.685 4.691-2.996-4.699-2.686-4.691 2.997Zm-.555-5.995-4.691 2.998 4.752 2.715 4.69-2.997-4.751-2.716Zm10.365 11.601 4.691-2.997-4.617-2.638-4.69 2.998 4.616 2.637Zm9.652-6.167-4.615-2.638-4.483 2.864 4.617 2.637 4.481-2.863Zm-15.055-8.603-4.482 2.863 4.751 2.715 4.482-2.863-4.751-2.715Z"/>
  </g>
</svg>
