<svg xmlns="http://www.w3.org/2000/svg" xml:space="preserve" fill-rule="evenodd" stroke-linejoin="round" stroke-miterlimit="2" clip-rule="evenodd" viewBox="0 0 64 64">
  <g id="brown">
    <path fill="#ababab" d="M25 37.387V13.655a1.23 1.23 0 0 1 1.225-1.225h10.547c.674 0 1.228.554 1.228 1.228v23.071a61.98 61.98 0 0 0-3.708-.11c-3.519 0-6.753.288-9.292.768ZM33.289 23.2A4.513 4.513 0 0 0 36 19.07c0-2.484-2.016-4.5-4.5-4.5-2.468.001-4.499 2.032-4.5 4.5a4.513 4.513 0 0 0 2.711 4.13v4.374c-.2.334-.336 1.003-.336 1.774 0 1.104.28 2 .625 2s.625-.896.625-2c0-.628-.091-1.189-.232-1.556v-4.36c.744.19 1.524.185 2.266-.013v7.252c-.171.357-.284.975-.284 1.677 0 1.104.28 2 .625 2s.625-.896.625-2c0-.702-.113-1.32-.284-1.677V23.2h-.052Zm12.004 14.566.162-1.173h2.219l-.261 1.889c-.577-.26-1.291-.5-2.12-.716Zm1.469 5.843-.537 6.084c-.156.993-.729 1.598-1.293 1.368l-.06-.02c-.531-.202-.878-1.138-.773-2.086l.441-5.346h2.222Zm7.098-7.016.398 3.747h-2.22l-.396-3.747h2.218Zm.917 7.016.396 5.345c.108.949-.24 1.89-.773 2.093-.021.006-.042.014-.064.019-.564.225-1.134-.383-1.288-1.374l-.493-6.083h2.222Zm-43.026 0-.408 6.15c-.156.993-.729 1.598-1.293 1.368l-.06-.019c-.531-.202-.878-1.139-.773-2.087l.312-5.412h2.222ZM9.927 40.34l.517-3.747h2.219l-.516 3.747h-2.22Zm8.922-3.747.399 3.747h-2.22l-.397-3.747h2.218Zm.917 7.016.525 5.411c.108.949-.24 1.891-.773 2.093a1.57 1.57 0 0 1-.064.02c-.564.224-1.134-.384-1.289-1.375l-.621-6.149h2.222Zm11.477 7.13v-5.427h6.09v5.34s-.844.894-3.063.894a4.397 4.397 0 0 1-3.027-.807Z"/>
    <path fill="#d4d4d4" d="M20.989 43.276v.473H8V40.24h11.523l.068 2.257c.471.286.934.545 1.398.779Zm-.499-6.543H8.5v-9.014l2.498-2.289h6.994l2.498 2.289v9.014Zm-3.58-8.296v-1.088l-.942-.276h-2.639l-.942.276v1.088h4.523ZM49.067 40.24H56v3.509h-9.242c.884-.372 1.688-.806 2.309-1.252V40.24Zm6.433-3.507H43.51v-9.014l2.498-2.289h6.994l2.498 2.289v9.014Zm-3.579-8.296v-1.088l-.942-.276H48.34l-.942.276v1.088h4.523Zm-17.629 8.182c8.154 0 14.775 1.545 14.775 3.448s-6.621 3.447-14.775 3.447-14.774-1.544-14.774-3.447 6.62-3.448 14.774-3.448ZM30 27.348c.345 0 .625.896.625 2s-.28 2-.625 2-.625-.896-.625-2 .28-2 .625-2Zm3 3c.345 0 .625.896.625 2s-.28 2-.625 2-.625-.896-.625-2 .28-2 .625-2Z"/>
    <path fill="#b5b5b5" d="M19.518 40.067c.137 1.875 6.706 3.447 14.774 3.447 7.581 0 13.932-1.73 14.775-3.447v2.43c-1.315.944-3.451 1.836-5.439 2.196-2.11.382-4.239.653-6.381.758h-6.004a35.362 35.362 0 0 1-6.42-.761 18.202 18.202 0 0 1-5.232-2.193l-.073-2.43Z"/>
  </g>
  <g id="grey">
    <path fill="#2e2e2e" d="M29.711 27.574V23.2h.682v4.592c-.108-.278-.244-.444-.393-.444-.104 0-.202.082-.289.226Zm2.948 3.097V23.2h.682v7.471c-.098-.204-.215-.323-.341-.323-.126 0-.243.119-.341.323Zm-1.582-11.868a.507.507 0 0 1 .22-.19l.196-3.543.21 3.543a.501.501 0 0 1-.203.957.5.5 0 0 1-.379-.174H28.25l2.827-.593Z"/>
  </g>
  <g id="white">
    <path fill="#fefffe" d="M31.5 14.57c2.484 0 4.5 2.016 4.5 4.5s-2.016 4.5-4.5 4.5c-2.468-.001-4.499-2.032-4.5-4.5 0-2.484 2.016-4.5 4.5-4.5Zm-.423 4.233-2.827.593h2.871a.5.5 0 1 0 .582-.783l-.21-3.543-.196 3.543a.507.507 0 0 0-.22.19Z"/>
    <path fill="#ebebeb" d="M35 21.897v14.726c-.235-.002-.47-.004-.708-.004-2.25 0-4.383.118-6.292.328v-15.05a4.51 4.51 0 0 0 1.711 1.303v4.374c-.2.334-.336 1.003-.336 1.774 0 1.104.28 2 .625 2s.625-.896.625-2c0-.628-.091-1.189-.232-1.556v-4.36c.744.19 1.524.185 2.266-.013v7.252c-.171.357-.284.975-.284 1.677 0 1.104.28 2 .625 2s.625-.896.625-2c0-.702-.113-1.32-.284-1.677V23.2h-.052A4.51 4.51 0 0 0 35 21.897Z"/>
  </g>
</svg>
