<svg xmlns="http://www.w3.org/2000/svg" xml:space="preserve" fill-rule="evenodd" stroke-linejoin="round" stroke-miterlimit="2" clip-rule="evenodd" viewBox="0 0 64 64">
  <g id="grey">
    <ellipse cx="11.225" cy="25.979" fill="#ababab" rx="1.247" ry="2.36"/>
    <ellipse cx="26.475" cy="42.213" fill="#ababab" rx="1.319" ry="2.495"/>
    <path fill="#909090" d="m40.268 44.334.334 2.308a.439.439 0 0 0 .544.384l10.974-2.815a.438.438 0 0 0 .326-.462l-.175-1.941a.435.435 0 0 0-.543-.384l-11.134 2.448a.438.438 0 0 0-.326.462Z"/>
    <path fill="#838383" d="M44.046 22.612c.031-.004.052.03 0 0ZM7.567 16.006a.436.436 0 0 1 .165-.105l17.301-2.182a.435.435 0 0 1 .323.013l3.029 2.561 5.646-1.009a.442.442 0 0 1 .329.073c3.158 1.884 6.371 4.252 9.651 7.232l.035.023a.05.05 0 0 0-.025.011c.09.039.165.108.211.199l3.725 6.599 7.712 6.67a.367.367 0 0 1 .052.044c.761.525 1.25 1.118 1.512 1.767a.42.42 0 0 1 .122.344.459.459 0 0 1 .002.037v.002l.493 5.752c0 .13-.06.252-.162.332-.498.569-1.557 1.497-2.18 1.817a.426.426 0 0 1-.379.073c-1.03-.76-2.152-1.094-3.37-.981l-10.583 2.68a7.244 7.244 0 0 0-2.291 1.38.41.41 0 0 1-.142.094 6.249 6.249 0 0 1-2.11.844.422.422 0 0 1-.39-.041c-.949-.042-1.862-.296-2.749-.713a.42.42 0 0 1-.162-.206l-3.998-4.46a.435.435 0 0 1-.102-.224l-.601-4.358-2.128-1.868-2.091 2.082c-.157.099-.414.073-.733-.434l-2.961-3.119a.468.468 0 0 1-.056-.053l-4.307-4.911-.021-.026-1.988-2.233a.143.143 0 0 1-.014-.02l-.517-2.451a.437.437 0 0 1-.06-.348l-.158-1.713-1.664-2.22-1.486-.495-1.057 1.056a.435.435 0 0 1-.617 0l-1.248-1.247a.495.495 0 0 1-.054-.067l-1.248-1.871a.44.44 0 0 1-.051-.38l1.248-3.742a.44.44 0 0 1 .147-.208Zm25.664 32.053-.33-4.949a.424.424 0 0 1-.065-.118 4.53 4.53 0 0 0-1.217-1.838l-5.459-6.716a.425.425 0 0 1-.141-.214l-2.826-7.996a.471.471 0 0 1-.109-.091l-6.553-6.703-2.811 2.248a.435.435 0 0 1-.556-.009l-5.127-4.628-.012.115-.957 2.869 1.105 1.658.909.908.896-.817c.698-.456 1.475-.395 2.36.397 0 0 2.083 2.332 2.083 2.647.528 1.339.726 2.803.631 4.376l1.971 2.21 4.271 4.869 2.757 2.757c.55-.727 1.246-1.438 2.263-1.541a.438.438 0 0 1 .52.042c.988.145 1.819.876 2.495 2.191.079.069.13.164.145.268.84 1.464.935 2.927.606 4.391l3.151 3.674Zm14.16-18.004a.438.438 0 0 1-.164.067l-20.279 3.932 5.041 6.207 22.341-4.213-6.939-5.993Zm7.828 6.746-22.568 4.225c.368.389.66.845.858 1.345l22.556-4.444c-.062-.402-.329-.779-.846-1.126Zm-38.956-18.27a.427.427 0 0 1 .183-.104l.044-.01.091-.016 10.589-2.049-2.01-1.752-16.425 1.873 4.722 4.302 2.806-2.244Zm27.08 5.001-9.163 1.385-9.547 1.867 2.18 5.958 19.693-3.375-3.163-5.835ZM56.299 39.43c-.292-.312-.644-.446-1.061-.384l-19.795 3.886c-.37.165-.723.365-1.054.599-.305.411-.486.915-.541 1.513l1.431 3.942c.645.219.29.33 1.247.424.747-.069 1.325-.349 1.823-.73.61-.661 1.392-1.115 2.314-1.403a.425.425 0 0 1 .198-.111l10.808-2.735a.435.435 0 0 1 .218.005c1.09-.069 2.18.273 3.27.952.121.15 1.978-1.395 1.849-1.556l-.493-3.5a2.146 2.146 0 0 0-.214-.902ZM42.661 22.351l-8.656-6.175-16.606 2.965 6.183 6.237 19.079-3.027Z"/>
    <path fill="#b5b5b5" d="m47.541 29.502 7.697 6.809-23.382 4.428-5.396-6.923 21.081-4.314Z"/>
    <path fill="#c9c9c9" d="M33.407 43.172a19.191 19.191 0 0 0-1.551-2.433l23.382-4.428a3.306 3.306 0 0 1 1.679 1.871l.127 1.248-23.147 5.278-.49-1.536Z"/>
    <path fill="#d4d4d4" d="m57.044 39.43.466 4.543c-.22.739-1.365 1.802-2.272 1.979-.662-.592-1.458-1.006-2.495-1.099l-12.172 2.97a6.8 6.8 0 0 0-1.731.963c-.486.377-1.018.664-1.567.917a4.315 4.315 0 0 1-1.8.154c-.652-.043-.655-.335-.655-.335s-.709-2.986-.923-4.821l23.149-5.271Z"/>
    <path fill="#838383" d="m34.873 49.547-1.119-.517-4.006-4.322c.104-5.187-1.765-7.076-5.839-5.278l-9.707-10.604c-.435-5.875-2.161-7.782-5.215-5.613-.58-.286-2.349-2.403-2.565-3.119l1.263-3.742 5.763 4.989 3.025-2.635c2.698 1.669 5.147 4.086 7.236 7.582l2.837 7.511 5.31 6.878c.645.763 1.551 2.495 1.551 2.495s1.608 4.694 1.466 6.375Z"/>
    <path fill="#b5b5b5" d="M23.726 26.331c-1.977-2.995-4.447-5.497-7.276-7.639l17.581-3.198a58.48 58.48 0 0 1 9.942 7.341l-20.247 3.496Z"/>
    <path fill="#ababab" d="m25.133 14.05 2.735 2.278-11.575 2.178-2.845 2.573-5.478-4.868 17.163-2.161Z"/>
  </g>
  <g id="black">
    <path d="M26.231 37.552c1.43-.147 2.793 1.692 3.041 4.106.136 1.313.552 2.771.091 3.629-.387.719-1.579.944-2.231 1.011-1.43.147-2.793-1.693-3.041-4.106-.249-2.414.71-4.493 2.14-4.64Zm.244 2.166c-.728 0-1.319 1.118-1.319 2.495s.591 2.495 1.319 2.495 1.319-1.118 1.319-2.495-.591-2.495-1.319-2.495ZM10.989 21.613c1.302-.134 2.56 1.713 2.808 4.123.155 1.498.848 3.457-.015 3.977-.547.33-1.4.582-1.893.632-1.301.135-2.559-1.713-2.807-4.123-.249-2.41.606-4.475 1.907-4.609Zm.236 2.006c-.688 0-1.247 1.057-1.247 2.36s.559 2.36 1.247 2.36c.688 0 1.247-1.057 1.247-2.36s-.559-2.36-1.247-2.36Z"/>
  </g>
  <g id="white">
    <ellipse cx="55.152" cy="42.412" fill="#f4f4f4" rx="1.466" ry="1.673"/>
    <ellipse cx="37.068" cy="46.743" fill="#f4f4f4" rx="1.79" ry="1.919"/>
    <path fill="#ebebeb" d="m47.397 29.233-3.386-6.02-19.843 3.379 2.63 6.909 20.599-4.268Z"/>
    <path fill="#ebebeb" d="m25.562 32.93-2.332-6.599-2.921-3.118-.045 3.93 5.298 5.787Z"/>
    <path fill="#ebebeb" d="m19.933 22.914-3.367-3.508-2.091 1.673 5.418 5.631.04-3.796Z"/>
  </g>
</svg>
