<svg xmlns="http://www.w3.org/2000/svg" xml:space="preserve" fill-rule="evenodd" stroke-linejoin="round" stroke-miterlimit="2" clip-rule="evenodd" viewBox="0 0 64 64">
  <g id="white" fill="#f4f4f4">
    <path d="m20.739 34.833 6.981-11.68 3.903 6.212 7.311-3.877 4.326 9.345H20.739Z"/>
    <ellipse cx="37.269" cy="16.949" rx="3.812" ry="3.949"/>
    <path d="M48.36 46.367v.766c0 .617-.654 1.117-1.46 1.117H17.1c-.806 0-1.46-.5-1.46-1.117v-.766c0-.617.654-1.117 1.46-1.117h29.8c.806 0 1.46.5 1.46 1.117Zm0 8v.766c0 .617-.654 1.117-1.46 1.117H17.1c-.806 0-1.46-.5-1.46-1.117v-.766c0-.617.654-1.117 1.46-1.117h29.8c.806 0 1.46.5 1.46 1.117Z"/>
    <path d="M48.35 13v22.7c0 2.76-2.24 5-5 5h-22.7c-2.76 0-5-2.24-5-5V13c0-2.76 2.24-5 5-5h22.7c2.76 0 5 2.24 5 5Zm-2.5 0a2.5 2.5 0 0 0-2.5-2.5h-22.7a2.5 2.5 0 0 0-2.5 2.5v22.7a2.5 2.5 0 0 0 2.5 2.5h22.7a2.5 2.5 0 0 0 2.5-2.5V13Z"/>
  </g>
</svg>
