<svg xmlns="http://www.w3.org/2000/svg" xml:space="preserve" fill-rule="evenodd" stroke-linejoin="round" stroke-miterlimit="2" clip-rule="evenodd" viewBox="0 0 64 64">
  <g id="white" fill="#f4f4f4">
    <path d="M28.177 12.5a2.324 2.324 0 0 1 2.323 2.323v13.354a2.324 2.324 0 0 1-2.323 2.323H14.323A2.324 2.324 0 0 1 12 28.177V14.823a2.324 2.324 0 0 1 2.323-2.323h13.854Zm0 2H14.323a.323.323 0 0 0-.323.323v13.354c0 .178.145.323.323.323h13.854a.323.323 0 0 0 .323-.323V14.823a.323.323 0 0 0-.323-.323Zm21.5-2A2.324 2.324 0 0 1 52 14.823v13.354a2.324 2.324 0 0 1-2.323 2.323H35.823a2.324 2.324 0 0 1-2.323-2.323V14.823a2.324 2.324 0 0 1 2.323-2.323h13.854Zm0 2H35.823a.323.323 0 0 0-.323.323v13.354c0 .178.145.323.323.323h13.854a.323.323 0 0 0 .323-.323V14.823a.323.323 0 0 0-.323-.323Z"/>
    <path d="M30.5 34.5v1a1 1 0 0 1-1 1H13a1 1 0 0 1-1-1v-1a1 1 0 0 1 1-1h16.5a1 1 0 0 1 1 1Zm21.5 0v1a1 1 0 0 1-1 1H34.5a1 1 0 0 1-1-1v-1a1 1 0 0 1 1-1H51a1 1 0 0 1 1 1Zm-21.5 7.25v1a1 1 0 0 1-1 1H13a1 1 0 0 1-1-1v-1a1 1 0 0 1 1-1h16.5a1 1 0 0 1 1 1Zm21.5 0v1a1 1 0 0 1-1 1H34.5a1 1 0 0 1-1-1v-1a1 1 0 0 1 1-1H51a1 1 0 0 1 1 1ZM30.5 49v1a1 1 0 0 1-1 1H13a1 1 0 0 1-1-1v-1a1 1 0 0 1 1-1h16.5a1 1 0 0 1 1 1ZM52 49v1a1 1 0 0 1-1 1H34.5a1 1 0 0 1-1-1v-1a1 1 0 0 1 1-1H51a1 1 0 0 1 1 1Z"/>
    <path d="m14.786 27.773 4.011-6.712 2.243 3.57 4.201-2.228 2.486 5.37H14.786Zm21.494 0 4.011-6.712 2.242 3.57 4.201-2.228 2.486 5.37H36.28Z"/>
    <path d="M24.284 15.227c1.209 0 2.191 1.017 2.191 2.269 0 1.253-.982 2.269-2.191 2.269-1.209 0-2.19-1.016-2.19-2.269 0-1.252.981-2.269 2.19-2.269Zm21.493 0c1.21 0 2.191 1.017 2.191 2.269 0 1.253-.981 2.269-2.191 2.269-1.209 0-2.19-1.016-2.19-2.269 0-1.252.981-2.269 2.19-2.269Z"/>
  </g>
</svg>
