<svg xmlns="http://www.w3.org/2000/svg" xml:space="preserve" fill-rule="evenodd" stroke-linejoin="round" stroke-miterlimit="2" clip-rule="evenodd" viewBox="0 0 64 64">
  <g id="grey">
    <path fill="#c4c4c4" fill-rule="nonzero" d="m3.99 28.075 28.964 24.304 27.188-15.697v-2.588l-26.95 15.559-29.234-24.53.032 2.952Z"/>
    <path fill="#929191" fill-rule="nonzero" d="m3.858 25.181 29.234 24.53 27.05-15.617L30.908 9.563 3.858 25.181Z"/>
    <path fill="#d4d4d4" d="m12.347 20.339-.042-.036.832-.48.042.036-.832.48Zm9.8-5.657-.042-.036.832-.48.042.036-.832.48Zm3.661 1.891 5.484 4.597-.855.494-5.469-4.606.84-.485Zm9.141 7.662 5.484 4.598-.881.509-5.469-4.607.866-.5Zm9.141 7.663 5.484 4.598-.907.523-5.469-4.606.892-.515Zm-5.223 10.778-5.469-4.606.892-.515 5.484 4.597-.907.524Zm-9.115-7.677-5.469-4.607.866-.5 5.484 4.598-.881.509Zm-9.115-7.678-5.469-4.606.84-.485 5.484 4.597-.855.494Z"/>
    <path fill="#b6b6b6" d="M45.837 22.09V3.886c0-1.039.65-1.882 1.452-1.882.801 0 1.453.843 1.453 1.882v19.859c0 .28-.048.546-.132.785l-2.773-2.44ZM19.93 20.526V41.45c0 1.039-.707 1.882-1.578 1.882-.872 0-1.579-.843-1.579-1.882V20.526c0-1.039.707-1.882 1.579-1.882.871 0 1.578.843 1.578 1.882Z"/>
    <path fill="#e7e7e7" d="M46.65 14.473V6.155L19.542 21.826l.207 8.18m-1.701 2.703V20.76L48.029 3.449v11.9l-29.981 17.36Z"/>
  </g>
  <g id="green">
    <path fill="#707070" d="M46.65 14.473 19.749 30.006l-.207-8.18L46.65 6.155v8.318Z"/>
  </g>
</svg>
