<svg xmlns="http://www.w3.org/2000/svg" xml:space="preserve" fill-rule="evenodd" stroke-linejoin="round" stroke-miterlimit="2" clip-rule="evenodd" viewBox="0 0 64 64">
  <g id="grey">
    <path fill="#909090" d="m53.877 20.878-.146 26.114L32 57.85V29.036l21.877-8.158ZM42.026 37.073l-6.964 3.332v6.534l6.964-3.332v-6.534ZM51.84 32.5l-6.964 3.328v6.537l6.938-3.319.026-.013V32.5Z"/>
    <path fill="#525252" d="M42.026 37.073 42 43.62l-6.938 3.319v-6.534l6.964-3.332Zm-17.508-5.209-.018 7.5-6.719-3.409-.008-7.487 6.745 3.396Zm-.387 9.848L24.194 54l-6.269-3.153V38.565l6.206 3.147ZM51.84 32.5l-.026 6.547-6.938 3.319v-6.534L51.84 32.5Z"/>
    <path fill="#c2bdbd" d="m32 29.036-.078-.029-10.8-15.874L41.977 6.15l11.9 14.728L32 29.036Z"/>
    <path fill="#c9c9c9" d="m17.925 50.847-7.802-3.855V20.878l10.999-7.745 10.8 15.874.078.029V57.85L24.194 54l-.063-12.288-6.206-3.147v12.282Zm6.593-18.983-6.745-3.396.008 7.487 6.719 3.409.018-7.5Z"/>
  </g>
</svg>
