<svg xmlns="http://www.w3.org/2000/svg" xml:space="preserve" fill-rule="evenodd" stroke-linejoin="round" stroke-miterlimit="2" clip-rule="evenodd" viewBox="0 0 64 64">
  <g id="white" fill="#f4f4f4">
    <path d="m15.5 47.996 10.228-17.115 5.719 9.102 10.714-5.681L48.5 47.996h-33Zm24.221-31.992c3.083 0 5.586 2.593 5.586 5.786 0 3.194-2.503 5.786-5.586 5.786s-5.586-2.592-5.586-5.786c0-3.193 2.503-5.786 5.586-5.786Z"/>
    <path d="M56 15.5v33c0 4.139-3.361 7.5-7.5 7.5h-33A7.504 7.504 0 0 1 8 48.5v-33C8 11.361 11.361 8 15.5 8h33c4.139 0 7.5 3.361 7.5 7.5Zm-3 0c0-2.484-2.016-4.5-4.5-4.5h-33a4.502 4.502 0 0 0-4.5 4.5v33c0 2.484 2.016 4.5 4.5 4.5h33c2.484 0 4.5-2.016 4.5-4.5v-33Z"/>
  </g>
</svg>
