<?xml version="1.0" encoding="UTF-8" standalone="no"?>
<!DOCTYPE svg PUBLIC "-//W3C//DTD SVG 1.1//EN" "http://www.w3.org/Graphics/SVG/1.1/DTD/svg11.dtd">
<svg width="100%" height="100%" viewBox="0 0 64 64" version="1.1" xmlns="http://www.w3.org/2000/svg" xmlns:xlink="http://www.w3.org/1999/xlink" xml:space="preserve" xmlns:serif="http://www.serif.com/" style="fill-rule:evenodd;clip-rule:evenodd;stroke-linejoin:round;stroke-miterlimit:1;">
    <g id="surface1">
        <rect x="46.195" y="26.855" width="2.934" height="11.227" style="fill:#f3f4f4;"/>
        <path d="M47.66,14.082L53.363,29.934L41.961,29.934L47.66,14.082Z" style="fill:#f3f4f4;stroke:#f3f4f4;stroke-width:1.03px;"/>
        <path d="M35.797,45.816C35.352,48.082 27.605,49.918 18.484,49.918C9.348,49.918 3.5,48.004 3.918,45.734C4.199,44.199 6.617,42.93 11.781,42.223C10.352,41.313 9.645,40.281 9.844,39.191C10.527,35.48 21.496,32.469 34.324,32.469C41.766,32.469 48.211,33.484 52.172,35.059C57.637,35.207 60.148,36.281 59.887,37.723C59.703,38.715 59.051,39.699 55.883,40.195C53.871,43.059 45.719,45.332 35.797,45.816Z" style="fill:#ababab;stroke:#f3f4f4;stroke-width:1.82px;stroke-linecap:round;stroke-miterlimit:1.5;"/>
    </g>
</svg>
