<svg xmlns="http://www.w3.org/2000/svg" xml:space="preserve" fill-rule="evenodd" stroke-linejoin="round" stroke-miterlimit="2" clip-rule="evenodd" viewBox="0 0 64 64">
  <g id="white" fill="#f4f4f4">
    <path d="M51.996 37.641v1.026a1.02 1.02 0 0 1-1.014 1.025H18.589c-.56 0-1.013-.459-1.013-1.025v-1.026a1.02 1.02 0 0 1 1.013-1.026h32.393c.56 0 1.014.46 1.014 1.026ZM52 13.026v1.025a1.02 1.02 0 0 1-1.014 1.026H18.593c-.56 0-1.013-.459-1.013-1.026v-1.025c0-.567.453-1.026 1.013-1.026h32.393c.56 0 1.014.459 1.014 1.026Zm0 12.307v1.026a1.02 1.02 0 0 1-1.014 1.026H18.593a1.02 1.02 0 0 1-1.013-1.026v-1.026c0-.566.453-1.025 1.013-1.025h32.393c.56 0 1.014.459 1.014 1.025Zm-.004 24.616v1.025A1.02 1.02 0 0 1 50.982 52H18.589c-.56 0-1.013-.459-1.013-1.026v-1.025c0-.567.453-1.026 1.013-1.026h32.393c.56 0 1.014.459 1.014 1.026Z"/>
    <path d="M15.829 37.641v1.026a1.02 1.02 0 0 1-1.014 1.025h-1.774a1.02 1.02 0 0 1-1.014-1.025v-1.026a1.02 1.02 0 0 1 1.014-1.026h1.774c.56 0 1.014.46 1.014 1.026Zm-.027-24.615v1.025a1.02 1.02 0 0 1-1.014 1.026h-1.774A1.02 1.02 0 0 1 12 14.051v-1.025A1.02 1.02 0 0 1 13.014 12h1.774c.56 0 1.014.459 1.014 1.026Zm0 12.307v1.026a1.02 1.02 0 0 1-1.014 1.026h-1.774A1.02 1.02 0 0 1 12 26.359v-1.026a1.02 1.02 0 0 1 1.014-1.025h1.774c.56 0 1.014.459 1.014 1.025Zm.027 24.175v1.014c0 .56-.454 1.014-1.014 1.014h-1.774c-.56 0-1.014-.454-1.014-1.014v-1.014c0-.56.454-1.013 1.014-1.013h1.774c.56 0 1.014.453 1.014 1.013Z"/>
  </g>
</svg>
