<svg xmlns="http://www.w3.org/2000/svg" xml:space="preserve" fill-rule="evenodd" stroke-linejoin="round" stroke-miterlimit="2" clip-rule="evenodd" viewBox="0 0 64 64">
  <g id="white" fill="#f4f4f4">
    <path d="M21.914 25.27v-1.311c0-.53.411-.959.918-.959h25.05c.507 0 .918.429.918.959v1.311c0 .529-.411.959-.918.959h-25.05c-.507 0-.918-.43-.918-.959Zm0 15.271v-1.253c0-.53.411-.96.918-.96h25.05c.507 0 .918.43.918.96v1.253c0 .53-.411.959-.918.959h-25.05c-.507 0-.918-.429-.918-.959ZM48.8 8.959v1.082c0 .53-.411.959-.918.959h-25.05c-.507 0-.918-.429-.918-.959V8.959c0-.53.411-.959.918-.959h25.05c.507 0 .918.429.918.959Zm0 45.5v1.082c0 .53-.411.959-.918.959h-25.05c-.507 0-.918-.429-.918-.959v-1.082c0-.53.411-.959.918-.959h25.05c.507 0 .918.429.918.959Z"/>
    <path d="M16.1 25.229V24c0-.552.463-1 1.035-1h1.812c.572 0 1.035.448 1.035 1v1.229c0 .552-.463 1-1.035 1h-1.812c-.572 0-1.035-.448-1.035-1Zm0 15.271v-1.172c0-.552.463-1 1.035-1h1.812c.572 0 1.035.448 1.035 1V40.5c0 .552-.463 1-1.035 1h-1.812c-.572 0-1.035-.448-1.035-1ZM19.982 9v1c0 .552-.463 1-1.035 1h-1.812c-.572 0-1.035-.448-1.035-1V9c0-.552.463-1 1.035-1h1.812c.572 0 1.035.448 1.035 1Zm0 45.5v1c0 .552-.463 1-1.035 1h-1.812c-.572 0-1.035-.448-1.035-1v-1c0-.552.463-1 1.035-1h1.812c.572 0 1.035.448 1.035 1Z"/>
  </g>
</svg>
