<svg xmlns="http://www.w3.org/2000/svg" xml:space="preserve" fill-rule="evenodd" stroke-linejoin="round" stroke-miterlimit="2" clip-rule="evenodd" viewBox="0 0 64 64">
  <g id="grey">
    <path fill="#838383" d="M38.653 36.387v1.805L17.97 58 6 46.258v-1.45l11.985 11.623 20.668-20.044Zm19.27-18.689v1.806L40.368 36.528l-3.632-1.343-3.027-5.401-4.237-1.094-1.092-4.369v-1.218l1.092 4.369 4.237.8 3.027 5.402 3.629 1.053 17.558-17.029Z"/>
    <path fill="#b5b5b5" d="M38.653 36.387 17.985 56.431 6 44.808l20.667-20.045.989 4.651 4.593.763 2.671 4.927 3.733 1.283ZM28.38 23.103 46.015 6 58 17.624 40.365 34.727l-3.629-1.053-3.027-5.402-4.237-.8-1.092-4.369Z"/>
  </g>
  <g id="white">
    <path fill="#fefffe" d="m17.849 45.617-4.293 4.164-.549-.533 4.293-4.164.549.533Zm6.054-5.87-4.293 4.164-.55-.534 4.293-4.164.55.534Zm6.053-5.871-4.293 4.164-.55-.534 4.293-4.164.55.534Zm12.107-11.741-4.293 4.163-.55-.533 4.293-4.164.55.534Zm6.054-5.871-4.294 4.163-.549-.533 4.293-4.163.55.533Zm4.24-4.113-2.48 2.406-.55-.533 2.481-2.406.549.533Z"/>
    <ellipse cx="30.834" cy="20.636" fill="#fefffe" fill-opacity="0.75" rx="1.362" ry="1.383"/>
    <path fill="#f4f4f4" stroke="#f4f4f4" stroke-width="1.33px" d="M39.983 41.106a13.473 13.473 0 0 1-7.787 2.453c-7.317 0-13.258-5.762-13.258-12.858 0-7.096 5.941-12.858 13.258-12.858 7.317 0 13.258 5.762 13.258 12.858 0 2.858-.964 5.499-2.592 7.634l11.737 11.384a.963.963 0 0 1 0 1.391l-1.433 1.39a1.038 1.038 0 0 1-1.435 0L39.983 41.106Zm-7.787-23.027c-7.183 0-13.015 5.656-13.015 12.622s5.832 12.622 13.015 12.622c7.183 0 13.015-5.656 13.015-12.622s-5.832-12.622-13.015-12.622Z"/>
    <ellipse cx="32.196" cy="30.701" fill="#fefffe" fill-opacity="0.5" rx="13.015" ry="12.622"/>
  </g>
</svg>
