<svg xmlns="http://www.w3.org/2000/svg" xml:space="preserve" fill-rule="evenodd" stroke-linejoin="round" stroke-miterlimit="2" clip-rule="evenodd" viewBox="0 0 64 64">
  <g id="grey">
    <path fill="#7c7c7c" d="M19.623 22.734c-1.079.833-2.674 1.426-2.901 1.51a36.428 36.428 0 0 1 0-6.179c.175-2.056 3.397 1.421 3.851 2.87l-.95 1.799Zm.761 3.307 1.116-.099c.449 1.971 1.99 3.761 3.941 4.14a149.171 149.171 0 0 0 2.313 10.827c.095.121.333.214.674.285l.01.063c-1.12.065-2.244.065-3.364 0-.26-.11-4.021-11.167-5.137-14.322l.447-.894ZM53.75 40.262a2.428 2.428 0 0 1-2.417 2.416h-14.5a2.428 2.428 0 0 1-2.368-2.416 2.429 2.429 0 0 1 2.368-2.417h14.5a2.43 2.43 0 0 1 2.417 2.417Z"/>
    <path fill="#ababab" d="M34.67 41.339c-2.678.107-6.457.15-6.916-.43a149.171 149.171 0 0 1-2.313-10.827l1.369-.506 1.952 9.924h5.777a2.435 2.435 0 0 0 .131 1.839Zm1.899-3.48L36 34.5l-.914-5.663.414.038a53.557 53.557 0 0 0 1.91 8.97h-.577c-.089 0-.177.005-.264.014Zm.841-.014L42 29.5l-8.718-.844c1.663-.251 3.097-.98 3.389-2.486a2.643 2.643 0 0 0 2.579 2.008h5.303l-.208.377 6.999 9.29h-3.027l-5.253-6.972-3.854 6.972h-1.8Z"/>
    <path fill="#444" d="M36.446 23.792c.064-.281.276-.447.798-.447h13.019c1.334 0 1.07 1.083 1.07 2.417a2.439 2.439 0 0 1-2.416 2.416H39.25a2.643 2.643 0 0 1-2.579-2.008c.18-.924.086-1.716-.225-2.378Zm5.526 14.053a9.672 9.672 0 0 1 2.811-4.69l1.464 1.942a7.266 7.266 0 0 0-1.75 2.748h-2.525Zm2.525 4.833a7.27 7.27 0 0 0 6.836 4.834c3.977-.002 7.248-3.273 7.25-7.25-.002-3.978-3.275-7.25-7.253-7.25a7.25 7.25 0 0 0-3.102.697l-1.477-1.96a9.632 9.632 0 0 1 4.582-1.154c5.336 0 9.667 4.332 9.667 9.667s-4.331 9.666-9.667 9.666c-4.501 0-8.287-3.082-9.361-7.25h2.525ZM17.469 31.872a9.677 9.677 0 0 1 4.858 8.385c0 5.303-4.364 9.666-9.666 9.666-5.303 0-9.666-4.363-9.666-9.666 0-5.302 4.363-9.666 9.666-9.666.887 0 1.769.122 2.623.363l-1.163 2.204a7.297 7.297 0 0 0-1.451-.147c-3.978 0-7.252 3.273-7.253 7.251.002 3.977 3.273 7.248 7.25 7.25 3.976-.002 7.248-3.274 7.25-7.25a7.257 7.257 0 0 0-3.53-6.223l1.082-2.167Zm12.114-16.985c0 .667-.541.983-1.208.983h-2.417c-.667 0-1.208-.316-1.208-.983s.541-.815 1.208-.815h2.417c.667 0 1.208.148 1.208.815Z"/>
    <path fill="#8f8f8f" d="M16.387 34.039a7.257 7.257 0 0 1 3.53 6.223c-.002 3.976-3.274 7.248-7.25 7.25-3.977-.002-7.248-3.273-7.25-7.25.001-3.978 3.275-7.251 7.253-7.251.487 0 .973.05 1.451.147l-2.911 5.514c-.663-.241-2.38 2.754.341 3.902 1.761.743 3.053-1.118 3.053-1.118.607-1.357-.303-2.581-.604-2.641l2.387-4.776Zm31.841-.33a7.25 7.25 0 0 1 3.102-.697c3.978 0 7.251 3.272 7.253 7.25-.002 3.977-3.273 7.248-7.25 7.25a7.27 7.27 0 0 1-6.836-4.834h6.836a2.428 2.428 0 0 0 2.374-2.417 2.428 2.428 0 0 0-2.363-2.416l-3.116-4.136Zm.089 4.136h-3.82a7.266 7.266 0 0 1 1.75-2.748l2.07 2.748Z"/>
    <path fill="#c7c7c7" d="M27.338 15.87c-.878.805-2.588 1.433-2.588 1.433L14 38.815c.301.06 1.235 1.261.604 2.641 0 0-1.292 1.861-3.053 1.118-2.721-1.148-1.004-4.143-.341-3.902l10.643-20.163s1.145-2.767 2.455-3.43c.141-.071.29-.121.443-.153.02.64.554.944 1.207.944h1.38Z"/>
    <path fill="#ababab" d="M28.081 32.634a1.124 1.124 0 0 1-.258-.69c0-1.028 1.627-1.862 3.631-1.862 2.005 0 3.632.834 3.632 1.862 0 .243-.092.476-.258.69.166.151.258.316.258.488 0 .211-.137.41-.379.586a6.08 6.08 0 0 1 .198 1.548c0 2.555-1.546 4.63-3.451 4.63-1.904 0-3.45-2.075-3.45-4.63 0-.543.07-1.064.198-1.548-.242-.176-.379-.375-.379-.586 0-.172.092-.337.258-.488Z"/>
    <path fill="#444" d="M34.722 31.443v.545c0 .15-.122.272-.272.272h-5.991a.274.274 0 0 1-.272-.272v-.545c0-.15.122-.272.272-.272h5.991c.15 0 .272.122.272.272Zm0 1.634v.545c0 .15-.122.272-.272.272h-5.991a.274.274 0 0 1-.272-.272v-.545c0-.15.122-.272.272-.272h5.991c.15 0 .272.122.272.272Zm-.544 1.634v.545c0 .15-.122.272-.273.272h-4.902a.274.274 0 0 1-.272-.272v-.545c0-.15.122-.272.273-.272h4.901c.151 0 .273.122.273.272Zm-.545 1.634v.545c0 .15-.122.272-.272.272h-3.813a.274.274 0 0 1-.272-.272v-.545c0-.15.122-.272.272-.272h3.813c.15 0 .272.122.272.272Zm-16.185-3.309-.232.493c-.064.136-.172.22-.241.187l-2.761-1.3c-.07-.032-.074-.169-.01-.305l.232-.493c.064-.136.172-.22.242-.187l2.761 1.3c.069.032.073.169.009.305Zm-.696 1.478-.232.493c-.064.136-.172.22-.241.188l-2.761-1.301c-.07-.032-.074-.169-.01-.305l.232-.493c.064-.136.172-.22.242-.187l2.761 1.3c.069.033.073.169.009.305Zm-.947 1.361-.232.492c-.064.136-.172.22-.241.188l-2.342-1.147c-.07-.033-.074-.17-.01-.306l.232-.492c.064-.136.172-.22.242-.188l2.342 1.147c.069.033.073.17.009.306Zm-.795 1.435-.233.492c-.064.136-.172.22-.241.188l-2.307-1.142c-.069-.032-.073-.169-.009-.305l.232-.493c.064-.136.172-.22.241-.187L15 37.004c.069.033.074.17.01.306Zm30.97-7.363.349.418c.096.115.127.249.068.298l-2.343 1.955c-.059.049-.185-.005-.281-.12l-.349-.418c-.096-.116-.127-.249-.068-.298l2.343-1.956c.059-.049.185.005.281.121Zm1.047 1.254.349.418c.096.116.127.249.068.298l-2.343 1.956c-.059.049-.185-.005-.281-.121l-.349-.418c-.097-.115-.127-.249-.068-.298l2.343-1.955c.059-.049.185.005.281.12Zm.834 1.432.349.419c.096.115.127.248.068.298l-2.028 1.64c-.058.049-.184-.005-.281-.121l-.349-.418c-.096-.115-.126-.249-.068-.298l2.028-1.64c.059-.049.185.005.281.12Zm.965 1.327.349.418c.097.116.127.249.068.298l-2.007 1.611c-.059.049-.185-.005-.281-.121l-.349-.418c-.096-.115-.127-.249-.068-.298l2.007-1.61c.059-.049.185.005.281.12Z"/>
    <path fill="#d4d4d4" d="M36.671 26.17c-.509 2.619-4.469 2.889-7.088 2.38l-4.142 1.532c-2.618-.509-4.499-3.559-3.99-6.177.509-2.619 4.064-3.859 6.683-3.35l4.744.923c2.619.509 4.302 2.074 3.793 4.692ZM42 29.5l-4.59 8.345a53.602 53.602 0 0 1-1.91-8.974l6.5.629Z"/>
  </g>
</svg>
