<svg xmlns="http://www.w3.org/2000/svg" xml:space="preserve" fill-rule="evenodd" stroke-linejoin="round" stroke-miterlimit="2" clip-rule="evenodd" viewBox="0 0 64 64">
  <g id="brown">
    <path fill="#c2bdbd" d="M25.888 25.049a1.622 1.622 0 0 0-1.553-1.641h-3.106a1.622 1.622 0 0 0-1.553 1.641c.776 4.384.219 8.962.402 13.526.015.388-.77 1.216-1.603 1.732-.536.332-1.115.37-1.433.637-.414.62-.291.889.563.889a6.643 6.643 0 0 1 1.62-.398 7.413 7.413 0 0 1 2.085-.542c1.38.115 2.337-.806 4.768.546.498.277 1.748.555 1.15-.3-.475-.679-1.415-1.172-1.748-1.811-2.81-5.331-.553-9.567.408-14.279Z"/>
    <path fill="#707070" d="M23.509 25.414c.057.202 1.494 2.788 1.77 3.117.228-.039.678-.09.858-.104 1.096.014 1.245.335 2.36.312 1.448.023 4.352-.994 7.133-.987 1.951-.007 3.915 1.26 4.559 2.078.185.199.518.552.536 1.507-.018.323.057 1.725-1.126 1.559-.262.75-1.045 2.198-1.931 2.753-.219.143-.552.766-.536 1.143-.016 1.109.81 1.025.804 1.818.006.651-.574.838-.858.883-.343-.002-.927.432-1.073.779-.154.338-.786 1.242-1.179 1.559-.358.326-.99 1.521-1.073 1.714-.027.126.006.095-.108.104-.105.055-.147.04-.214.156-.051.071-.136.175-.215.208-.061.071-.104.118-.053.155.003.066.078.575 0 .728-.04.044-1.075.641-1.18.675-.012-.049-.214-.208-.214-.208l-.376.208s-.103-.522.322-1.039c.083-.091.169-.136.161-.26.008-.283.899-1.583 1.18-1.818.339-.274.787-.889.858-1.402-.153.052-2.024 1.142-2.092 1.194-.093.052-.21.15-.214.261-.029.191-.057.48-.429.415-.237-.038-.523.041-.752.363-.06.095-.079.113-.053.208.01.035.439.867.482.936.01.023.069.096 0 .155-.141.238-.421.341-.589.728-.182.242-.294.53-.322.831.021.116 0 .515-.268.519-.289-.004-.327-.112-.376-.155-.027.027-.102.069-.214.051-.081.018-.284-.055-.268-.311-.016-.253.097-.388.161-.468.032-.127.187-.693.16-1.247.027-.578-.185-2.838-1.501-4.623-.502.041-2.076-.147-2.896-.883-.489-.398-2.575-1.495-3.111-1.663-.295-.044-.838-.349-.858-.884.02-.405.237-.641.429-.727.234-.108 1.906-.87 2.467-.987.026-.425-.366-.907-.858-1.091-.175-.093-.384-.129-.482-.519-.122-.336-.135-.918-1.234-2.182-.518-.611-.774-1.598-.751-2.026-.295.078-.761.01-1.126-.208-.28-.187-.457-.279-.697-.259-.112.023-.648.085-.858.051-.197.014-.358.014-.591-.155-.217-.184-.551-.729-.59-.832-.023-.08-.023-.1-.053-.155-.078-.049-.11-.163-.107-.26-.003-.111.105-.297.268-.364.931-.287 1.146-.369 1.877-1.039.244-.196.662-.494 1.126-.572.356-.069.7-.191 1.02-.363.082-.065.156-.11.192-.197l.237-.052c1.252-.397 1.973.056 2.466.872Zm5.792 14.599c.075.12.526 1.719.644 2.078.107-.151 2.09-1.325 2.682-1.611 1.343-.568 2.301-1.272 2.789-1.818.21-.253.017-.44-.215-.52-1.031-.43-1.667-1.162-1.716-2.493-.035-.459-.593-.345-.698-.26-.317.138-1.912.704-3.861.727-.492-.023-.407.434-.375.572.053.112.365 1.711.375 1.818.15.018.322.059.483.156.203.11.471.225.483.468.009.214-.13.151-.108.364 0 .182.172.058.161.311-.011.224-.526.192-.644.208Zm-1.877-1.507c-.106-.572-.616-1.42-1.179-2.13-.206-.206-.834-.483-1.341-.26a3.721 3.721 0 0 1-1.771.416c-.266-.009-.36.067-.321.156-.01.132.037.129.161.208.729.326 2.125.992 2.949 1.299.346.106.739.038.805 0 .041.031.27.245.322.363.048 0 .375-.052.375-.052Z"/>
    <path fill="#838383" d="M20.806 24.594a.34.34 0 0 0 .022-.114c-.006-.162-.07-.193-.269-.261-.844-.251-1.198-.693-1.662-1.402-.069-.129-.111-.43.16-.416.222-.014.232.122.323.208.038.079.306.349.429.415-.144-.187-.166-.63-.161-.83-.005-.174.06-.299.214-.312.117.013.217.055.215.259.002.122-.033.848.429.936-.034-.094-.062-.399-.054-.572-.008-.146.149-1.045.429-1.04.263-.005.27.167.268.261.002.086-.163.439-.161.675-.002.741.753 1.163 1.127 1.143.272.02.937-.208.912-.363.025-.372-.789-.642-.805-1.611.016-1.523 1.137-2.429 1.287-2.442.287.013.251.185.268.26-.017.376-.832.652-.858 1.974.026.299.34.963.858.987 1.205-.024 3.316-2.523 3.326-5.819-.01-.508.215-.508.268-.519.226.011.366.001.375 1.195a9.288 9.288 0 0 1-.214 1.974c.141.061 1.372.352 2.092.26.032-.189.213-1.133.214-1.247-.022-.136-.161-1.019.215-1.039.299.02.32.682.321 1.091-.001.601-.022.83 0 .935.643-.355.879-.884 1.073-.883.234-.001.256.145.268.259-.012.072-.805 1.193-1.394 1.507.009.102.009.497 0 .572 1.563-.013 2.336-1.861 2.681-1.871.191.01.372.092.375.313-.003.472-1.17 1.693-1.608 1.973-.255.151-.227.143-.483.156-.26.026-.468.105-.59.208-2.247 2.444-3.482 3.856-5.75 4.074-.539.141-1.022.127-1.437-.074a.63.63 0 0 0-.324-.239c.098-.181-.49.005-.579.167l-.392-.315c.284 0 .307-.604 0-.604 0 0-.715-.026-1.171.119l-.237.052Zm8.549-4.323c-.247.039-1.061-.065-1.287-.103-.469-.145-.869.171-1.019.363-.493.867-1.662 2.18-3.272 3.324-.052.074-.081.073-.107.208.026.172.689.224 1.02.209 1.547.015 1.558-.667 1.769-1.663.152-.782 1.106-1.936 1.234-1.922.08-.014.197.015.214.155-.017.834-.77 1.385-.751 1.767-.019.193.109.422.376.415 1.108.007 1.833-2.714 1.823-2.753Zm-8.265 4.904c.185 0 .333.131.333.291 0 .161-.148.292-.333.292-.183 0-.332-.131-.332-.292 0-.16.149-.291.332-.291Z"/>
    <path fill="#ababab" d="M44.18 50.509v6.226a5.887 5.887 0 0 1-2.954 1.115 5.598 5.598 0 0 1-2.905-1.115v-6.278c1.048.126 2.102.211 3.16.252a38.645 38.645 0 0 0 2.699-.2Z"/>
  </g>
  <g id="black">
    <path d="M31.876 44.272c.371.167.792.164 1.287-.104l.05.759-1.292.731-.152-.295-.376.208c-.077-.459.001-.901.483-1.299Z"/>
    <path d="M29.252 43.664c.38.191.828.196 1.213.015.042.255-.03.508-.299.762l-.536.326-.01-.326-.488.486.12-1.263Z"/>
    <path d="M29.132 45.412H30.2c-.352.332-.24.794-.22 1.25h-.485l-.179-.141-.307.141c-.172.056-.349 0-.349 0s-.059-.141-.02-.279c.094-.366.243-.698.492-.971Z"/>
    <path d="m28.262 38.617.365.912c.326.487.66.624 1.172.427.211-.097.193-.262 0-.482.121-.231.128-.419 0-.558-.378-.535-.91-.571-1.537-.299Z"/>
  </g>
  <g id="green">
    <path fill="#d4d4d4" d="M10.66 37.51c.136-1.883 1.821-3.381 3.87-3.441 2.2-.053 4.059 1.567 4.123 3.592.01.307-.021.614-.093.914.635.71.961 1.613.913 2.532-.189 1.743-2.167 3.234-4.83 3.234-1.92 0-3.475-.132-4.345-1.377-1.187-.436-1.973-1.495-1.984-2.671.016-1.303.979-2.445 2.346-2.783Z"/>
    <path fill="#c2bdbd" d="M15.548 34.163c1.771.384 3.051 1.826 3.105 3.5.01.307-.021.614-.093.914.635.709.961 1.613.913 2.531-.19 1.743-2.169 3.233-4.83 3.233-1.921 0-3.476-.132-4.345-1.377-.997-.369-1.725-1.18-1.932-2.15.287.245.622.438.988.567.811 1.091 2.26 1.207 4.05 1.207 2.479 0 4.323-1.308 4.501-2.839a2.98 2.98 0 0 0-.851-2.222c.066-.263.095-.532.085-.802-.047-1.04-.641-1.996-1.591-2.562Z"/>
    <path fill="#d4d4d4" d="M20.362 29.244c-2.671-.216-4.823-.911-6.176-3.015a6.583 6.583 0 0 1-4.121-6.028 6.626 6.626 0 0 1 4.874-6.282c.282-4.25 3.783-7.631 8.039-7.766 4.572-.119 8.435 3.537 8.567 8.108a8.357 8.357 0 0 1-.194 2.062 8.335 8.335 0 0 1 1.447 2.576c-.413.428-1.168 1.725-2.477 1.736.009-.075.009-.47 0-.572.589-.314 1.382-1.435 1.394-1.507-.012-.114-.034-.26-.268-.259-.194-.001-.43.528-1.073.883-.022-.105-.001-.334 0-.935-.001-.409-.022-1.071-.321-1.091-.376.02-.237.903-.215 1.039-.001.114-.182 1.058-.214 1.247-.72.092-1.951-.199-2.092-.26 0 0 .205-.822.214-1.974-.009-1.194-.149-1.184-.375-1.195-.053.011-.278.011-.268.519-.01 3.296-2.121 5.795-3.326 5.819-.518-.024-.832-.688-.858-.987.026-1.322.841-1.598.858-1.974-.017-.075.019-.247-.268-.26-.15.013-1.271.919-1.287 2.442.016.969.83 1.239.805 1.611.025.155-.64.383-.912.363-.374.02-1.129-.402-1.127-1.143-.002-.236.163-.589.161-.675.002-.094-.005-.266-.268-.261-.28-.005-.437.894-.429 1.04-.008.173.02.478.054.572-.462-.088-.427-.814-.429-.936.002-.204-.098-.246-.215-.259-.154.013-.219.138-.214.312-.005.2.017.643.161.83-.123-.066-.391-.336-.429-.415-.091-.086-.101-.222-.323-.208-.271-.014-.229.287-.16.416.464.709.818 1.151 1.662 1.402.199.068.263.099.269.261a.34.34 0 0 1-.022.114c-.036.087-.11.132-.192.197-.32.172-.664.294-1.02.363-.464.078-.882.376-1.126.572-.731.67-.946.752-1.877 1.039-.163.067-.271.253-.268.364-.003.097.029.211.107.26.03.055.03.075.053.155.039.103.373.648.59.832.233.169.394.169.591.155.21.034.746-.028.858-.051.24-.02.417.072.697.259.365.218.831.286 1.126.208-.005.081.001.182.017.297Zm12.682-9.491c.172.743.242 1.511.205 2.284-.284 2.848-2.516 5.398-5.826 6.588-.356-.086-.673-.19-1.286-.198-.18.014-.63.065-.858.104-.276-.329-1.713-2.915-1.77-3.117.415.201.898.215 1.437.074 2.268-.218 3.503-1.63 5.75-4.074.122-.103.33-.182.59-.208.256-.013.228-.005.483-.156.289-.184.895-.778 1.275-1.297Zm-3.689.518c.01.039-.715 2.76-1.823 2.753-.267.007-.395-.222-.376-.415-.019-.382.734-.933.751-1.767-.017-.14-.134-.169-.214-.155-.128-.014-1.082 1.14-1.234 1.922-.211.996-.222 1.678-1.769 1.663-.331.015-.994-.037-1.02-.209.026-.135.055-.134.107-.208 1.61-1.144 2.779-2.457 3.272-3.324.15-.192.55-.508 1.019-.363.226.038 1.04.142 1.287.103Z"/>
    <path fill="#c2bdbd" d="M20.362 29.244c-2.672-.216-4.824-.911-6.177-3.015a6.62 6.62 0 0 1-4.013-4.853 6.376 6.376 0 0 0 2.052 1.28c1.434 2.095 3.827 2.597 6.798 2.7-.224.117-.417.26-.554.37-.731.67-.946.752-1.877 1.039-.163.067-.271.253-.268.364-.003.097.029.211.107.26.03.055.03.075.053.155.039.103.373.648.59.832.233.169.394.169.591.155.21.034.746-.028.858-.051.24-.02.417.072.697.259.365.218.831.286 1.126.208-.005.081.001.182.017.297Zm9.506-11.96a7.061 7.061 0 0 0-1.645-3.327 6.926 6.926 0 0 0 .177-1.809 7.264 7.264 0 0 0-3.305-5.782 8.434 8.434 0 0 1 6.45 7.899 8.357 8.357 0 0 1-.194 2.062 8.358 8.358 0 0 1 1.446 2.573c-.414.429-1.168 1.724-2.476 1.735.009-.075.009-.47 0-.572.589-.314 1.382-1.435 1.394-1.507-.012-.114-.034-.26-.268-.259-.194-.001-.43.528-1.073.883-.022-.105-.001-.334 0-.935-.001-.409-.022-1.071-.321-1.091-.086.004-.145.054-.185.13Zm3.175 2.47c.173.743.243 1.512.206 2.286-.286 2.847-2.519 5.395-5.828 6.585-.355-.086-.672-.19-1.284-.198-.18.014-.63.065-.858.104-.276-.329-1.713-2.915-1.77-3.117.415.201.898.215 1.437.074 2.268-.218 3.503-1.63 5.75-4.074.122-.103.33-.182.59-.208.256-.013.228-.005.483-.156.288-.184.894-.777 1.274-1.296Zm-5.33 3.247c.372-.318.705-.661.994-1.024-.265.49-.603.922-.994 1.024Z"/>
    <path fill="#bdbdbd" d="m49.295 39.72 1.355 2.404 5.036 5.293a38.981 38.981 0 0 1-14.205 3.292 38.97 38.97 0 0 1-14.208-3.283c-4.487-1.979.774.099 4.321-5.293.552-.842 1.094-1.689 1.628-2.542a38.946 38.946 0 0 0 8.306 1.173 38.887 38.887 0 0 0 7.767-1.044Z"/>
    <path fill="#c9c9c9" d="M45.743 28.426c.964 1.463 1.984 2.941 2.926 4.182a25.228 25.228 0 0 0 5.432 5.628 38.825 38.825 0 0 1-12.573 2.528 38.84 38.84 0 0 1-12.589-2.528 31.156 31.156 0 0 0 5.119-5.628 113.905 113.905 0 0 0 3.114-4.352c1.472.495 3.002.794 4.552.891a17.877 17.877 0 0 0 4.019-.721Z"/>
    <path fill="#d4d4d4" fill-rule="nonzero" d="M41.724 10.224a52.967 52.967 0 0 0 3.267 9.376 31.863 31.863 0 0 0 4.78 7.041 17.781 17.781 0 0 1-8.047 2.506 17.773 17.773 0 0 1-8.049-2.506 35.268 35.268 0 0 0 4.603-7.041 62.054 62.054 0 0 0 3.446-9.376Z"/>
  </g>
  <g id="grey">
    <path fill="#909090" d="m34.581 51.699 1.2.994.684 3.196-2.431 1.746h-8.242L23.36 52.62l2.639 2.193 3.213-1.59 1.439.977 3.93-2.501Z"/>
    <path fill="#b5b5b5" fill-rule="nonzero" d="m23.36 52.62 2.639 2.193 3.213-1.59 1.439.977 3.963-2.522-2.929-2.35h-4.836L23.36 52.62Z"/>
  </g>
</svg>
