<svg xmlns="http://www.w3.org/2000/svg" xml:space="preserve" fill-rule="evenodd" stroke-linejoin="round" stroke-miterlimit="2" clip-rule="evenodd" viewBox="0 0 64 64">
  <g id="white" fill="#f4f4f4">
    <path d="M48.964 16.104h-2.928V14.5c0-.808.656-1.464 1.464-1.464H56c.808 0 1.464.656 1.464 1.464v1.604h-2.928v-.14h-5.572v.14Zm5.572 6.417h2.928v3.208h-2.928v-3.208Zm0 9.624h2.928v3.209h-2.928v-3.209Zm0 9.625h2.928v3.208h-2.928V41.77Zm0 9.625h2.928v1.604c0 .808-.656 1.464-1.464 1.464h-8.5a1.465 1.465 0 0 1-1.464-1.464v-1.604h2.928v.14h5.572v-.14Zm-5.572-6.417h-2.928V41.77h2.928v3.208Zm0-9.624h-2.928v-3.209h2.928v3.209Zm0-9.625h-2.928v-3.208h2.928v3.208Z"/>
    <path d="M9.464 16.104H6.536V14.5c0-.808.656-1.464 1.464-1.464h8.5c.808 0 1.464.656 1.464 1.464v1.604h-2.928v-.14H9.464v.14Zm5.572 6.417h2.928v3.208h-2.928v-3.208Zm0 9.624h2.928v3.209h-2.928v-3.209Zm0 9.625h2.928v3.208h-2.928V41.77Zm0 9.625h2.928v1.604c0 .808-.656 1.464-1.464 1.464H8a1.465 1.465 0 0 1-1.464-1.464v-1.604h2.928v.14h5.572v-.14Zm-5.572-6.417H6.536V41.77h2.928v3.208Zm0-9.624H6.536v-3.209h2.928v3.209Zm0-9.625H6.536v-3.208h2.928v3.208Z"/>
  </g>
  <g id="grey">
    <rect width="51.362" height="8" x="6.319" y="11.153" fill="#929090"/>
  </g>
</svg>
