<svg xmlns="http://www.w3.org/2000/svg" xml:space="preserve" fill-rule="evenodd" stroke-linejoin="round" stroke-miterlimit="2" clip-rule="evenodd" viewBox="0 0 64 64">
  <g id="grey">
    <path fill="#929090" d="M37.627 49.872 32.383 52.9 9.998 14.128l5.244-3.028 22.385 38.772Z"/>
  </g>
  <g id="white">
    <path fill="none" fill-rule="nonzero" stroke="#f4f4f4" stroke-dasharray="2,2" stroke-width="2px" d="M32.912 23.581c4.185 0 5.577-3.518 5.577-6.203 0-2.965-1.498-6.203-5.577-6.203-4.149 0-5.61 3.517-5.61 6.203 0 2.929 1.496 6.203 5.61 6.203Zm.873 12.829 16.666-25.235H47.52L30.853 36.41h2.932Zm-.873-15.23c-2.059 0-2.999-1.605-2.999-3.802 0-2.094.907-3.802 2.999-3.802 1.989 0 3.002 1.569 3.002 3.802 0 2.024-.978 3.802-3.002 3.802Zm15.48 15.23c4.218 0 5.61-3.516 5.61-6.201 0-2.966-1.496-6.205-5.61-6.205-4.114 0-5.577 3.518-5.577 6.203 0 2.931 1.498 6.203 5.577 6.203Zm0-2.401c-2.024 0-3-1.604-3-3.8 0-2.094.941-3.804 3-3.804 2.024 0 3 1.569 3 3.802 0 2.024-.941 3.802-3 3.802Z"/>
  </g>
</svg>
