<svg xmlns="http://www.w3.org/2000/svg" xml:space="preserve" fill-rule="evenodd" stroke-linejoin="round" stroke-miterlimit="2" clip-rule="evenodd" viewBox="0 0 64 64">
  <g id="grey" fill="#c9c9c9" fill-rule="nonzero">
    <path d="M34.703 18.5H20.118a2.952 2.952 0 0 0-2.918 2.985v14.927a2.948 2.948 0 0 0 2.918 2.982h14.585a2.949 2.949 0 0 0 2.917-2.982V21.485a2.953 2.953 0 0 0-2.917-2.985m-11.67 16.418a1.49 1.49 0 0 1-1.101-2.534 1.493 1.493 0 0 1 1.631-.342c.561.232.928.777.928 1.385a1.475 1.475 0 0 1-1.458 1.491m0-8.956a1.492 1.492 0 1 1 1.458-1.491 1.474 1.474 0 0 1-1.458 1.494v-.003m4.376 4.479a1.497 1.497 0 0 1-1.403-.898 1.493 1.493 0 1 1 2.862-.596c.004.393-.145.769-.419 1.05a1.48 1.48 0 0 1-1.04.444m4.376 4.477a1.491 1.491 0 0 1-1.108-2.532 1.486 1.486 0 0 1 1.629-.344c.564.23.933.777.933 1.385a1.476 1.476 0 0 1-1.454 1.491m0-8.956a1.491 1.491 0 0 1-1.108-2.534 1.501 1.501 0 0 1 1.632-.341 1.5 1.5 0 0 1 .93 1.384 1.477 1.477 0 0 1-1.454 1.494v-.003"/>
    <path d="m46.989 29.945-7.96-2.964-.034 8.97a6.26 6.26 0 0 1-.737 3.357 5.154 5.154 0 0 1-2.153 1.281l-8.511.002s-1.022 1.539.25 2.165l4.902 1.658 8.035 2.99a2.577 2.577 0 0 0 3.324-1.588l4.434-12.469a2.67 2.67 0 0 0-1.55-3.402m-7.314 12.809a1.336 1.336 0 0 1-.777-1.699c.113-.33.351-.599.667-.749.311-.152.671-.168.998-.049a1.336 1.336 0 0 1 .774 1.702 1.286 1.286 0 0 1-1.662.795"/>
  </g>
  <g id="white">
    <path fill="#f3f4f4" d="M32 8h.004C45.167 8 56 18.832 56 31.995V32c0 13.166-10.834 24-24 24S8 45.166 8 32 18.834 8 32 8ZM16.502 19.296A19.967 19.967 0 0 0 11.958 32c0 11.061 8.981 20.042 20.042 20.042a19.967 19.967 0 0 0 12.704-4.544L16.502 19.296Zm30.996 25.408A19.967 19.967 0 0 0 52.042 32c0-11.061-8.981-20.042-20.042-20.042a19.967 19.967 0 0 0-12.704 4.544l28.202 28.202Z"/>
  </g>
</svg>
