<?xml version="1.0" encoding="UTF-8" standalone="no"?>
<!DOCTYPE svg PUBLIC "-//W3C//DTD SVG 1.1//EN" "http://www.w3.org/Graphics/SVG/1.1/DTD/svg11.dtd">
<svg width="100%" height="100%" viewBox="0 0 512 512" version="1.1" xmlns="http://www.w3.org/2000/svg" xmlns:xlink="http://www.w3.org/1999/xlink" xml:space="preserve" xmlns:serif="http://www.serif.com/" style="fill-rule:evenodd;clip-rule:evenodd;stroke-linejoin:round;stroke-miterlimit:2;">
    <g>
        <path d="M258.755,135.298L258.763,135.358L292.662,388.829C295.386,409.171 281.26,426.643 263.115,429.207L263.088,429.211L145.604,445.679C145.556,445.685 145.509,445.692 145.461,445.698C127.213,448.149 108.877,435.193 106.176,414.617L72.308,161.1C69.585,140.757 83.709,123.286 101.857,120.723L101.879,120.72L219.325,104.241C219.374,104.234 219.423,104.228 219.473,104.221C237.702,101.774 256.019,114.704 258.755,135.298ZM233.976,138.612C233.179,132.546 228.165,128.278 222.798,128.999L105.353,145.478C99.976,146.237 96.28,151.756 97.087,157.783L130.956,411.307C131.753,417.374 136.767,421.641 142.134,420.921L259.617,404.453C264.993,403.693 268.69,398.174 267.883,392.147L233.976,138.612ZM148.512,243.941L140.224,181.882C139.942,179.869 141.928,178.283 143.774,179.054L200.406,202.741C202.252,203.512 202.599,206.047 201.024,207.328L152.68,245.701C151.115,246.942 148.783,245.993 148.512,243.941ZM145.606,297.98L144.14,287.059C143.975,285.836 144.595,284.749 145.53,284.633L222.574,273.828C223.508,273.712 224.382,274.587 224.519,275.762L225.985,286.682C226.15,287.905 225.53,288.992 224.596,289.107L147.552,299.913C146.617,300.029 145.743,299.152 145.606,297.98ZM152.626,337.656C151.692,337.773 150.818,336.896 150.681,335.723L149.215,324.803C149.05,323.578 149.67,322.492 150.604,322.376L227.649,311.571C228.583,311.454 229.457,312.331 229.594,313.504L231.06,324.424C231.225,325.649 230.605,326.735 229.671,326.851L152.626,337.656ZM234.707,364.583L157.663,375.388C156.729,375.505 155.855,374.629 155.718,373.456L154.252,362.535C154.087,361.311 154.707,360.224 155.641,360.109L232.685,349.304C233.619,349.187 234.493,350.064 234.63,351.236L236.096,362.157C236.261,363.381 235.641,364.468 234.707,364.583Z" style="fill:#f3f4f4;"/>
        <path d="M265.075,373.182L262.154,351.423C261.716,348.162 261.932,344.91 262.729,341.831C261.17,339.084 260.125,336.03 259.694,332.81L256.045,305.535C255.609,302.278 255.825,299.03 256.622,295.954C255.063,293.207 254.018,290.153 253.587,286.933L249.938,259.657C249.502,256.4 249.718,253.152 250.514,250.077C248.956,247.331 247.911,244.277 247.48,241.059L236.417,158.435C235.768,153.588 236.554,148.657 238.68,144.253L266.494,86.609C266.504,86.59 266.513,86.571 266.522,86.551C275.671,67.714 297.321,61.214 313.968,69.648L421.045,123.78L421.061,123.788C437.329,132.028 445.201,153.093 436.305,171.42L324.819,402.526C324.802,402.56 324.785,402.594 324.768,402.629C318.781,414.896 307.269,421.919 295.669,422.938C282.359,424.108 270.483,414.605 268.703,401.363L265.292,375.975C265.178,375.121 265.107,374.263 265.081,373.403C265.079,373.338 265.077,373.262 265.075,373.182ZM409.765,146.091L302.688,91.959C297.81,89.487 291.688,91.959 289.01,97.473L261.195,155.117L272.259,237.741L329.73,266.8C330.572,267.207 330.814,268.461 330.268,269.577L325.45,279.528C324.903,280.645 323.807,281.184 322.975,280.738L274.717,256.341L278.366,283.618L313.115,301.171C313.958,301.578 314.2,302.83 313.652,303.947L308.835,313.899C308.287,315.015 307.191,315.554 306.36,315.109L280.824,302.219L284.474,329.495L296.49,335.581C297.332,335.986 297.574,337.24 297.028,338.357L292.21,348.308C291.662,349.425 290.567,349.964 289.735,349.519L286.932,348.096L290.009,371.02C290.065,371.586 290.053,372.091 290.07,372.646L293.481,398.034C297.038,397.722 300.466,395.425 302.302,391.663L413.788,160.558C416.464,155.044 414.645,148.562 409.765,146.091ZM284.866,200.056L312.516,143.882C313.402,142.053 315.935,141.84 317.039,143.508L350.91,194.705C352.014,196.372 350.892,198.672 348.87,198.86L287.349,203.838C285.358,203.998 283.949,201.912 284.866,200.056Z" style="fill:#f3f4f4;"/>
    </g>
</svg>
