<?xml version="1.0" encoding="UTF-8" standalone="no"?>
<!DOCTYPE svg PUBLIC "-//W3C//DTD SVG 1.1//EN" "http://www.w3.org/Graphics/SVG/1.1/DTD/svg11.dtd">
<svg width="100%" height="100%" viewBox="0 0 512 512" version="1.1" xmlns="http://www.w3.org/2000/svg" xmlns:xlink="http://www.w3.org/1999/xlink" xml:space="preserve" xmlns:serif="http://www.serif.com/" style="fill-rule:evenodd;clip-rule:evenodd;stroke-linejoin:round;stroke-miterlimit:2;">
    <g id="Layer1">
        <path d="M236.731,124.295C235.774,117.373 229.752,112.504 223.308,113.326L82.268,132.128C75.811,132.995 71.372,139.292 72.341,146.169L113.015,435.44C113.971,442.363 119.993,447.232 126.438,446.409L267.524,427.62C273.98,426.753 278.419,420.455 277.45,413.578L236.731,124.295ZM134.097,244.475L124.145,173.666C123.806,171.369 126.19,169.56 128.407,170.439L196.417,197.466C198.634,198.345 199.051,201.238 197.159,202.7L139.103,246.483C137.224,247.899 134.423,246.816 134.097,244.475ZM130.608,306.133L128.848,293.673C128.65,292.278 129.394,291.038 130.516,290.904L223.038,278.576C224.16,278.444 225.21,279.443 225.374,280.782L227.135,293.243C227.333,294.638 226.588,295.878 225.466,296.01L132.944,308.34C131.822,308.472 130.773,307.471 130.608,306.133ZM139.038,351.404C137.916,351.537 136.867,350.537 136.702,349.199L134.942,336.739C134.744,335.342 135.488,334.102 136.61,333.97L229.132,321.642C230.254,321.508 231.304,322.508 231.468,323.847L233.229,336.307C233.427,337.704 232.683,338.944 231.561,339.075L139.038,351.404ZM237.609,382.128L145.087,394.457C143.965,394.59 142.915,393.59 142.751,392.252L140.99,379.792C140.792,378.395 141.537,377.155 142.659,377.023L235.181,364.695C236.303,364.561 237.352,365.561 237.517,366.9L239.278,379.36C239.475,380.757 238.731,381.997 237.609,382.128Z" style="fill:#f3f4f4;fill-rule:nonzero;"/>
        <path d="M433.523,127.904L305.864,66.586C300.048,63.786 292.75,66.587 289.557,72.833L256.396,138.129L269.586,231.721L338.103,264.638C339.107,265.098 339.396,266.519 338.745,267.782L333,279.055C332.349,280.32 331.042,280.93 330.05,280.425L272.516,252.79L276.867,283.688L318.295,303.571C319.299,304.031 319.589,305.451 318.935,306.716L313.193,317.989C312.539,319.252 311.233,319.864 310.242,319.359L279.798,304.758L284.148,335.654L298.474,342.549C299.478,343.008 299.767,344.428 299.116,345.694L293.371,356.965C292.718,358.23 291.413,358.841 290.421,358.337L287.079,356.725L290.748,382.692C290.815,383.333 290.8,383.905 290.82,384.533L294.887,413.293C299.128,412.939 303.214,410.337 305.403,406.076L438.318,144.291C441.509,138.045 439.34,130.704 433.523,127.904ZM360.42,187.622L287.123,192.277C284.707,192.448 283.081,190 284.11,187.924L316.631,123.848C317.719,121.741 320.676,121.57 322.003,123.508L362.78,182.929C364.106,184.866 362.776,187.484 360.362,187.655L360.42,187.622Z" style="fill:#f3f4f4;fill-rule:nonzero;"/>
    </g>
</svg>
