<svg xmlns="http://www.w3.org/2000/svg" xml:space="preserve" fill-rule="evenodd" stroke-linejoin="round" stroke-miterlimit="2" clip-rule="evenodd" viewBox="0 0 64 64">
  <g id="white">
    <path fill="#f4f4f4" d="M37.508 50.778h.008c.169 0 .338.016.534 0h.018c.164.026.333.026.496.026.223.007.444-.03.652-.108a1.85 1.85 0 0 0 .816-.834 2.83 2.83 0 0 1 .549-.692c.637-.503 1.32-.945 2.041-1.32a11.624 11.624 0 0 0 2.281-1.515 3.727 3.727 0 0 0 1.209-1.972 3.396 3.396 0 0 0-.069-.948c-.09-.596-.193-1.217.264-1.607.347-.265.74-.463 1.159-.584.444-.128.86-.341 1.225-.625a7.477 7.477 0 0 0 1.259-8.071 2.86 2.86 0 0 0-2.336-1.412 2.856 2.856 0 0 0-2.561 1.985 9.39 9.39 0 0 0-.29 1.365c-.172.987-.365 2.107-.629 2.252a.55.55 0 0 1-.264.069c-.675 0-1.38-1.244-1.758-1.912-.092-.166-.142-.245-.208-.356a8.727 8.727 0 0 0-.37-.528v-.019a8.267 8.267 0 0 1-1.111-1.742h-.394a19.223 19.223 0 0 0 1.32 6.172l.019.058c.119.351.237.7.348 1.056.111.357.201.724.082.885a.213.213 0 0 1-.182.081 3.76 3.76 0 0 0-1.452-.232h-.208a4.11 4.11 0 0 0-2.424.718 6.86 6.86 0 0 1-1.42.679 1.069 1.069 0 0 0-.317.206.728.728 0 0 1-.372.208c.14.511-.02 1.059-.412 1.412a2.432 2.432 0 0 0-.528.769 5.711 5.711 0 0 0-.135 2.228c.022.129.022.256.022.372a.337.337 0 0 1-.095.248.714.714 0 0 1-.444.187 5.63 5.63 0 0 1-.676-1.649c-.06-.206-.121-.42-.195-.639v-.043c-.024-.097-.026-.097-.166-.097a1.356 1.356 0 0 0-.425-.077c-.531 0-.837.404-1.133.792-.245.32-.475.623-.81.623a2.37 2.37 0 0 1 .169-2.064c.156-.349.271-.715.34-1.09 0-.014-.003-.014 0-.037a.864.864 0 0 0 0-.072v-.01a.108.108 0 0 0-.108-.108h-.021a3.65 3.65 0 0 0-.821.187c-.283.104-.58.164-.879.174h-.014c.103-1.008.84-1.383 1.632-1.784.19-.098.388-.201.581-.312.17-.106.33-.228.478-.364.207-.202.453-.361.723-.467.236-.072.48-.115.726-.13.467-.045.908-.09 1.172-.507a1.063 1.063 0 0 0 0-.792 1.372 1.372 0 0 1-.058-.636c.166-.765.43-1.52.694-2.312.657-1.614.992-3.34.985-5.082a3.63 3.63 0 0 0-.528-1.391 2.308 2.308 0 0 1-.401-1.978 6.553 6.553 0 0 1 2.415-2.935 3.507 3.507 0 0 1 1.278-.172c.736-.01 1.428-.018 1.768-.736.581-1.262-.414-2.571-1.644-3.168a8.9 8.9 0 0 0-3.609-.729c-2.46 0-4.065.932-4.295 2.492a1.87 1.87 0 0 0 .348 1.275c.086.148.164.3.235.454a2.734 2.734 0 0 1-.723 2.83 3.855 3.855 0 0 1-1.7 1.151 3.549 3.549 0 0 1-.94.103c-.24 0-.493 0-.72-.023a6.467 6.467 0 0 0-.682-.024c-.752 0-1.502.124-1.808 1.024-.185.539.33 1.061.491 1.209.58.436 1.215.791 1.89 1.056 1.104.504 2.247 1.027 2.466 1.661a2.53 2.53 0 0 1 0 1.343 2.346 2.346 0 0 0 .108 1.669c.032.06.079.134.135.224.195.312.464.739.348 1.03a.506.506 0 0 1-.38.264 1.167 1.167 0 0 1-.282.037 1.894 1.894 0 0 1-1.035-.431 1.86 1.86 0 0 0-.998-.417.44.44 0 0 0 .05.09c.56.881.863 1.902.874 2.946a2.533 2.533 0 0 1-1.684-1.444c-.09-.15-.193-.319-.309-.491a1.545 1.545 0 0 0-.211-.224c-.146-.127-.296-.275-.296-.391-.583.33-.554 1.103-.528 1.792v.394c-1.148-.362-1.037-1.011-.921-1.703a2.057 2.057 0 0 0-.048-1.251 1.343 1.343 0 0 0-.752-.528 2.234 2.234 0 0 1-.46-.233c-.174-.129-.279-.205-.295-.425-.008-.356.068-.71.222-1.032.24-.442.282-.966.116-1.441a1.444 1.444 0 0 0-.824-.634c-.351-.163-.715-.319-.842-.691-.1-.413-.038-.849.174-1.217.102-.218.176-.449.217-.687a1.09 1.09 0 0 0-.278-.826 5.965 5.965 0 0 0-3.431-1.394h-.151a2.5 2.5 0 0 0-1.637.702 1.917 1.917 0 0 0-.792 1.339c.014.536.494.934 1.004 1.354.578.486 1.188.99 1.056 1.74-.085.459-.536.628-.972.792a1.808 1.808 0 0 0-.871.528.823.823 0 0 0 .311 1.177c.277.218.62.336.972.335h.021c.227 0 .66-.074.66-.264l.153.085.093.053c1.193.868.794 2.492.401 4.06a7.776 7.776 0 0 0-.357 2.23c.114 1.022.381 2.02.792 2.962.303.733.538 1.492.703 2.268a6.013 6.013 0 0 1-3.258 6.235 1.34 1.34 0 0 1-.356.048 2.544 2.544 0 0 1-.454-.05 2.867 2.867 0 0 0-.486-.053c.074-.238.161-.473.251-.737v-.021a6.613 6.613 0 0 0 .551-2.743 5.174 5.174 0 0 0-1.766-3.136 12.855 12.855 0 0 0-1.151-.874c-1.161-.805-2.605-1.824-2.523-2.903.047-.663.939-1.004 1.882-1.365.823-.317 1.673-.642 1.906-1.204a.982.982 0 0 0-.056-.792c-.187-.412-.419-.612-.715-.612-.486 0-1.061.533-1.668 1.1l-.059.056c-.58.541-1.24 1.156-1.826 1.156a.926.926 0 0 1-.771-.48 2.779 2.779 0 0 1-.357-1.505 4.758 4.758 0 0 0-.134-1.056 3.77 3.77 0 0 0-.304-.673 2.185 2.185 0 0 1-.367-1.196c.035-.332.113-.658.233-.969a3.08 3.08 0 0 0 .224-1.204 6.66 6.66 0 0 0-.322-1.32c-.343-1.106-.718-2.357.074-3.072.22-.187.504-.282.792-.264a4.89 4.89 0 0 1 1.351.295 4.74 4.74 0 0 0 1.365.299c.65 0 1.072-.37 1.32-1.162a1.493 1.493 0 0 0-.135-1.114 1.894 1.894 0 0 1-.197-.792 3.833 3.833 0 0 1 .586-1.674c.554-.722.707-1.68.403-2.539l-.047-.087a1.881 1.881 0 0 0-1.056-.629c-.465-.161-.903-.311-1.008-.71-.125-.454.242-.842.528-1.106a2.12 2.12 0 0 1 1.494-.602c.9.093 1.77.375 2.552.829a6.25 6.25 0 0 0 2.49.813c.018-.11.039-.22.063-.33a2.33 2.33 0 0 0 0-1.354 5.111 5.111 0 0 0-1.222-1.433c-.845-.803-1.713-1.632-1.357-2.284a1.38 1.38 0 0 1 1.257-.726c1.13 0 1.932 1.046 2.64 1.967l.047.061c.75.982 1.46 1.908 2.447 1.908.059.004.118.004.177 0a1.708 1.708 0 0 0 1.056-.61c.842-1.066-.235-2.222-1.291-3.342-.742-.792-1.444-1.539-1.444-2.222a4.163 4.163 0 0 1 2.204-.835c1.202 0 1.88 1.027 2.535 2.004.654.977 1.32 1.988 2.502 1.988v-.122a3.83 3.83 0 0 0 .177-2.439c-.039-.148-.113-.351-.193-.573-.258-.72-.615-1.705-.332-2.093.253-.271.591-.448.958-.502.106-.029.217-.06.317-.095 1.404.301 1.766 1.719 2.085 2.973.28 1.074.507 2.001 1.336 2.001.037.002.074.002.111 0a.543.543 0 0 0 .422-.193c.584-.655.33-2.825.193-3.991a8.397 8.397 0 0 1-.066-.679 3.02 3.02 0 0 1 .792-.09c.882.038 1.759.145 2.624.322l.528.093c1.967.298 3.308.56 3.96 1.446.53.979.653 2.128.343 3.197a1.636 1.636 0 0 0 .264 1.502.824.824 0 0 0 .578.23c.658 0 1.518-.689 2.558-2.051a2.09 2.09 0 0 1 .214-.227c.18-.174.383-.375.383-.541.255.126.494.284.71.47.287.266.635.459 1.014.562.102.02.207.03.311.029.198-.005.395-.027.589-.063h.024c.183-.035.37-.055.557-.061.117-.001.234.013.348.04l.085.018c.145.026.311.058.311.219a4.046 4.046 0 0 1-.037.454c-.076.33-.055.673.063.99.155.265.351.504.581.708.37.369.753.749.724 1.24-.035.597-.605.993-1.157 1.389-.739.528-1.507 1.074-.942 2.054.28.496 1.098.57 1.563.57a4.215 4.215 0 0 1 2.075-.694 1.883 1.883 0 0 1 1.372.567 4.998 4.998 0 0 1 1.033 3.527 8.755 8.755 0 0 1-.943-.111 10.731 10.731 0 0 0-1.494-.153 1.592 1.592 0 0 0-1.18.351.991.991 0 0 0-.243.76c.029.837 1.003 1.191 2.035 1.569.85.308 1.73.631 2.044 1.243.268.692.207 1.47-.167 2.112a2.953 2.953 0 0 0-.316 1.716c.102.367.33.686.644.903.516.312.748.946.554 1.518l-.359.815-.021.05c-.122.291-.256.584-.385.874l-.045.211c-.185.895-.373 1.79-.565 2.68-.354 1.251-2.083 4.538-3.868 4.538-.06.004-.12.004-.179 0a3.631 3.631 0 0 0-.475-.037 1.012 1.012 0 0 0-.811.264c-.251.296-.166.787-.087 1.264.085.313.094.642.026.959a3.261 3.261 0 0 1-1.011 1.082l-.021.018-.163.132a21.055 21.055 0 0 1-2.532 1.671c-.42.243-.853.507-1.267.771l-.528.359a6.772 6.772 0 0 1-1.552.872 1.22 1.22 0 0 1-.373.058 2.482 2.482 0 0 1-.723-.143 2.47 2.47 0 0 0-.7-.143c-.136 0-.272.027-.398.08a2.053 2.053 0 0 0-.821.755 2.427 2.427 0 0 1-.792.76 10.68 10.68 0 0 1-3.751.726 2.601 2.601 0 0 1-1.806-.481.863.863 0 0 1-.264-.628 23.978 23.978 0 0 0 2.421-1.119l.559-.28c.515-.302 1.029-.606 1.539-.911.173-.046.35-.067.528-.063ZM12.485 36.934h.005c.117-.001.232-.013.346-.037a1.865 1.865 0 0 0 1.481-1.343 1.57 1.57 0 0 0-.623-1.629 2.695 2.695 0 0 0-1.515-.436l-.103.058a2.521 2.521 0 0 0-1.093.906 1.585 1.585 0 0 0 .024 1.605 1.69 1.69 0 0 0 1.478.876Zm34.741-7.18.008.008c.237 0 .499-.011.71-.024.211-.013.427-.013.647-.013h.081a6.787 6.787 0 0 0-2.375-5.583c-.119.232-.299.53-.489.844-.699 1.159-1.66 2.746-1.204 3.767.3.524.842.865 1.444.906.389.069.783.1 1.178.095Zm-8.701 9.2-.006-.011c.377-.306.621-.746.684-1.227a3.95 3.95 0 0 0-.264-1.684 7.513 7.513 0 0 1-.206-.747 13.174 13.174 0 0 1-.206-1.761 7.362 7.362 0 0 0-.528-2.711c-.55 1.726-.86 3.52-.921 5.329l-.021.264c-.011.13-.029.249-.048.394-.094.421-.089.859.016 1.278.263.578.866.931 1.5.876Zm-15.9-12.244.008.008a.213.213 0 0 0 .089-.026 1.11 1.11 0 0 0 .457-1.109 2.417 2.417 0 0 0-1.378-2.167l-.105.182c-.431.747-.835 1.452-.629 2.048.219.458.627.799 1.117.932l.042.019c.125.06.26.099.399.113Zm4.427 8.588h.005c.136-.001.271-.02.401-.058a.917.917 0 0 0 .164-.42 3.446 3.446 0 0 0-2.281-2.904v.488c-.024 1.199-.045 2.334 1.183 2.801.169.063.348.095.528.093Z"/>
  </g>
</svg>
