<svg xmlns="http://www.w3.org/2000/svg" xml:space="preserve" fill-rule="evenodd" stroke-linejoin="round" stroke-miterlimit="2" clip-rule="evenodd" viewBox="0 0 64 64">
  <g id="blue">
    <path fill="#6e6e6e" d="M20.374 21.682c.945.043 1.894-.15 2.656-.594.73-.425 1.168-1.01 1.306-1.638l-.001 8.682c.025.808-.433 1.597-1.351 2.132-.749.436-1.676.629-2.603.596h-.007v-5.686h.002l-.002-3.492Z"/>
    <path fill="#d4d4d4" d="M16.337 27.836c-.007-.046-.013-.358-.018-.406v-8.834c.011.115.027-.12.048-.01-.025.693.305 1.41 1.004 2.002.792.67 1.895 1.044 3.003 1.094l.001 3.492-.001 5.689a9.407 9.407 0 0 0-.055-.006c-2.258-.26-3.7-.988-3.982-3.021Z"/>
    <path fill="#fafafa" d="M17.718 16.59c1.657-.965 4.193-.741 5.659.5 1.466 1.241 1.311 3.032-.347 3.998-1.657.965-4.193.741-5.659-.5-1.466-1.241-1.31-3.032.347-3.998Z"/>
    <path fill="#2e2e2e" d="M25.743 26.227c.945.043 1.893-.15 2.656-.594.73-.425 1.168-1.01 1.305-1.637v8.681c.024.808-.433 1.597-1.352 2.132-.748.436-1.676.629-2.603.596h-.006v-5.686h.001l-.001-3.492Z"/>
    <path fill="#2e2e2e" d="M21.705 32.382c-.006-.047-.012-.359-.017-.407v-8.834c.01.115.026-.119.048-.009-.026.693.305 1.41 1.004 2.002.791.67 1.895 1.043 3.003 1.093v9.182l-.055-.006c-2.259-.261-3.7-.989-3.983-3.021Z"/>
    <path fill="#2e2e2e" d="M23.087 21.135c1.657-.965 4.193-.741 5.659.5 1.466 1.241 1.31 3.033-.347 3.998-1.657.966-4.193.742-5.659-.499-1.466-1.242-1.311-3.033.347-3.999Z"/>
    <path fill="#6e6e6e" d="M31.189 30.838c.945.043 1.894-.15 2.656-.594.73-.425 1.168-1.01 1.306-1.638l-.001 8.682c.025.808-.433 1.597-1.352 2.132-.748.436-1.675.629-2.603.596h-.006V34.33h.002l-.002-3.492Z"/>
    <path fill="#909090" d="M27.151 36.992c-.006-.046-.012-.358-.017-.406v-8.834c.01.115.026-.12.048-.009-.025.692.305 1.41 1.004 2.001.792.67 1.895 1.044 3.003 1.094v9.182l-.055-.007c-2.259-.26-3.7-.988-3.983-3.021Z"/>
    <path fill="#fafafa" d="M28.533 25.746c1.657-.965 4.193-.741 5.659.5 1.466 1.241 1.311 3.032-.347 3.998-1.657.965-4.193.742-5.659-.5-1.466-1.241-1.311-3.032.347-3.998Z"/>
    <path fill="#c2bdbd" d="M29.087 26.215c1.312-.764 3.318-.586 4.478.396 1.161.982 1.038 2.4-.274 3.164-1.311.764-3.318.587-4.478-.396-1.161-.982-1.038-2.4.274-3.164Z"/>
    <path fill="#6e6e6e" d="M17.679 27.268c.945.043 1.894-.15 2.657-.594.729-.425 1.167-1.01 1.305-1.638l-.001 8.682c.025.808-.433 1.597-1.351 2.132-.749.436-1.676.629-2.603.596h-.007V30.76h.002l-.002-3.492Z"/>
    <path fill="#d4d4d4" d="M13.642 33.422c-.007-.046-.013-.358-.018-.406v-8.834c.011.115.027-.12.048-.009-.025.693.305 1.41 1.004 2.001.792.67 1.895 1.044 3.003 1.094l.001 3.492-.001 5.69-.055-.007c-2.258-.26-3.7-.988-3.982-3.021Z"/>
    <path fill="#fafafa" d="M15.023 22.176c1.657-.965 4.193-.741 5.659.5 1.466 1.241 1.311 3.033-.346 3.998-1.658.965-4.194.742-5.66-.5-1.466-1.241-1.31-3.032.347-3.998Z"/>
    <path fill="#6e6e6e" d="M23.004 31.776c.945.043 1.894-.149 2.657-.594.729-.425 1.168-1.01 1.305-1.637l-.001 8.681c.025.808-.433 1.597-1.351 2.132-.749.436-1.676.629-2.603.596h-.007v-5.685h.002l-.002-3.493Z"/>
    <path fill="#d4d4d4" d="M18.967 37.931c-.007-.047-.013-.359-.018-.406v-8.834c.011.115.027-.12.048-.01-.025.693.305 1.41 1.004 2.002.792.67 1.895 1.043 3.003 1.093l.001 3.493-.001 5.689-.055-.006c-2.258-.261-3.7-.988-3.982-3.021Z"/>
    <path fill="#fafafa" d="M20.348 26.685c1.657-.966 4.193-.742 5.659.499 1.466 1.241 1.311 3.033-.346 3.998-1.658.966-4.194.742-5.66-.499-1.466-1.241-1.31-3.033.347-3.998Z"/>
    <path fill="#c2bdbd" d="M15.554 22.507c1.311-.764 3.318-.587 4.478.395 1.16.982 1.037 2.4-.274 3.164-1.312.764-3.318.587-4.479-.395-1.16-.983-1.037-2.4.275-3.164Z"/>
    <path fill="#6e6e6e" d="M20.897 16.169c.945.043 1.893-.15 2.656-.594.729-.425 1.168-1.01 1.305-1.638v8.682c.024.808-.433 1.597-1.352 2.132-.748.435-1.676.629-2.603.596h-.006v-5.686h.001l-.001-3.492Z"/>
    <path fill="#d4d4d4" d="M16.859 22.323c-.006-.046-.012-.358-.017-.406v-8.834c.01.115.026-.12.048-.01-.026.693.305 1.41 1.004 2.002.791.67 1.894 1.044 3.003 1.094v9.181l-.055-.006c-2.259-.26-3.7-.988-3.983-3.021Z"/>
    <path fill="#fafafa" d="M18.241 11.077c1.657-.965 4.193-.742 5.659.5 1.466 1.241 1.31 3.032-.347 3.998-1.657.965-4.193.741-5.659-.5-1.466-1.241-1.311-3.032.347-3.998Z"/>
    <path fill="#c2bdbd" d="M20.879 27.015c1.311-.764 3.318-.587 4.478.395 1.16.982 1.038 2.4-.274 3.164-1.312.764-3.318.587-4.479-.395-1.16-.982-1.037-2.4.275-3.164Z"/>
    <path fill="#6e6e6e" d="M26.268 20.716c.945.043 1.894-.149 2.656-.594.73-.425 1.168-1.01 1.306-1.637l-.001 8.681c.025.808-.433 1.597-1.351 2.132-.749.436-1.676.63-2.604.596h-.006v-5.685h.002l-.002-3.493Z"/>
    <path fill="#d4d4d4" d="M22.23 26.871c-.006-.047-.012-.359-.017-.406v-8.834c.011.115.027-.12.048-.01-.025.693.305 1.41 1.004 2.002.792.67 1.895 1.043 3.003 1.093l.001 3.493-.001 5.689-.055-.006c-2.258-.261-3.7-.988-3.983-3.021Z"/>
    <path fill="#fafafa" d="M23.612 15.625c1.657-.966 4.193-.742 5.659.499 1.466 1.241 1.311 3.033-.347 3.998-1.657.966-4.193.742-5.659-.499-1.466-1.241-1.31-3.033.347-3.998Z"/>
    <path fill="#c2bdbd" d="M18.808 11.588c1.312-.764 3.319-.586 4.479.396 1.16.982 1.037 2.4-.275 3.164-1.311.764-3.318.587-4.478-.396-1.16-.982-1.037-2.4.274-3.164Z"/>
    <path fill="#c2bdbd" d="M24.213 16.134c1.312-.764 3.318-.587 4.479.395 1.16.982 1.037 2.4-.275 3.164-1.311.764-3.318.587-4.478-.395-1.16-.983-1.037-2.4.274-3.164Z"/>
  </g>
  <g id="brown">
    <path fill="#6e6e6e" d="m43.474 34.462 1.499 1.259-20.667 11.932-1.5-1.258 20.668-11.933Z"/>
    <path fill="#444" d="M44.973 35.721v.848L24.306 48.501v-.848l20.667-11.932Z"/>
    <path fill="#909090" d="M24.306 47.653v.848l-1.5-1.258v-.848l1.5 1.258Z"/>
    <path fill="#6e6e6e" d="m43.859 33.229 1.5 1.258-20.667 11.932-1.5-1.258 20.667-11.932Z"/>
    <path fill="#444" d="M45.359 34.487v.848L24.692 47.267v-.848l20.667-11.932Z"/>
    <path fill="#909090" d="M24.692 46.419v.848l-1.5-1.258v-.848l1.5 1.258Z"/>
    <path fill="#6e6e6e" d="m43.859 32.22 1.5 1.259-20.667 11.932-1.5-1.258L43.859 32.22Z"/>
    <path fill="#444" d="M45.359 33.479v.848L24.692 46.259v-.848l20.667-11.932Z"/>
    <path fill="#909090" d="M24.692 45.411v.848l-1.5-1.258v-.848l1.5 1.258Z"/>
    <path fill="#6e6e6e" d="m43.267 32.496 1.5 1.259-20.668 11.932-1.499-1.258 20.667-11.933Z"/>
    <path fill="#444" d="M44.767 33.755v.848L24.099 46.535v-.848l20.668-11.932Z"/>
    <path fill="#909090" d="M24.099 45.687v.848L22.6 45.277v-.848l1.499 1.258Z"/>
    <path fill="#b5b5b5" d="m43.267 31.488 1.5 1.259-20.668 11.932-1.499-1.258 20.667-11.933Z"/>
    <path fill="#444" d="M44.767 32.747v.848L24.099 45.527v-.848l20.668-11.932Z"/>
    <path fill="#ababab" d="M24.099 44.679v.848L22.6 44.269v-.848l1.499 1.258Z"/>
    <path fill="#6e6e6e" d="m44.984 36.147 1.499 1.258-20.667 11.933-1.5-1.259 20.668-11.932Z"/>
    <path fill="#444" d="M46.483 37.405v.848L25.816 50.186v-.848l20.667-11.933Z"/>
    <path fill="#909090" d="M25.816 49.338v.848l-1.5-1.259v-.848l1.5 1.259Z"/>
    <path fill="#6e6e6e" d="m45.369 34.913 1.5 1.258-20.667 11.933-1.5-1.259 20.667-11.932Z"/>
    <path fill="#444" d="M46.869 36.171v.849L26.202 48.952v-.848l20.667-11.933Z"/>
    <path fill="#909090" d="M26.202 48.104v.848l-1.5-1.258v-.849l1.5 1.259Z"/>
    <path fill="#6e6e6e" d="m45.369 33.905 1.5 1.258-20.667 11.933-1.5-1.259 20.667-11.932Z"/>
    <path fill="#444" d="M46.869 35.163v.849L26.202 47.944v-.848l20.667-11.933Z"/>
    <path fill="#909090" d="M26.202 47.096v.848l-1.5-1.259v-.848l1.5 1.259Z"/>
    <path fill="#6e6e6e" d="m44.777 34.181 1.5 1.258L25.61 47.372l-1.5-1.259 20.667-11.932Z"/>
    <path fill="#444" d="M46.277 35.439v.849L25.61 48.22v-.848l20.667-11.933Z"/>
    <path fill="#909090" d="M25.61 47.372v.848l-1.5-1.258v-.849l1.5 1.259Z"/>
    <path fill="#6e6e6e" d="m44.777 33.173 1.5 1.258L25.61 46.364l-1.5-1.259 20.667-11.932Z"/>
    <path fill="#444" d="M46.277 34.431v.848L25.61 47.212v-.848l20.667-11.933Z"/>
    <path fill="#909090" d="M25.61 46.364v.848l-1.5-1.259v-.848l1.5 1.259Z"/>
    <path fill="#6e6e6e" d="m47.242 37.624 1.5 1.259-20.668 11.932-1.499-1.259 20.667-11.932Z"/>
    <path fill="#444" d="M48.742 38.883v.848L28.074 51.663v-.848l20.668-11.932Z"/>
    <path fill="#909090" d="M28.074 50.815v.848l-1.499-1.258v-.849l1.499 1.259Z"/>
    <path fill="#6e6e6e" d="m47.627 36.39 1.5 1.259L28.46 49.581l-1.5-1.258L47.627 36.39Z"/>
    <path fill="#444" d="M49.127 37.649v.848L28.46 50.429v-.848l20.667-11.932Z"/>
    <path fill="#909090" d="M28.46 49.581v.848l-1.5-1.258v-.848l1.5 1.258Z"/>
    <path fill="#6e6e6e" d="m47.627 35.382 1.5 1.259L28.46 48.573l-1.5-1.258 20.667-11.933Z"/>
    <path fill="#444" d="M49.127 36.641v.848L28.46 49.421v-.848l20.667-11.932Z"/>
    <path fill="#909090" d="M28.46 48.573v.848l-1.5-1.258v-.848l1.5 1.258Z"/>
    <path fill="#6e6e6e" d="m47.035 35.658 1.5 1.259-20.667 11.932-1.5-1.258 20.667-11.933Z"/>
    <path fill="#444" d="M48.535 36.917v.848L27.868 49.697v-.848l20.667-11.932Z"/>
    <path fill="#909090" d="M27.868 48.849v.848l-1.5-1.258v-.848l1.5 1.258Z"/>
    <path fill="#6e6e6e" d="m47.035 34.65 1.5 1.259-20.667 11.932-1.5-1.258L47.035 34.65Z"/>
    <path fill="#444" d="M48.535 35.909v.848L27.868 48.689v-.848l20.667-11.932Z"/>
    <path fill="#909090" d="M27.868 47.841v.848l-1.5-1.258v-.848l1.5 1.258Z"/>
    <path fill="#6e6e6e" d="m48.491 39.484 1.499 1.258-20.667 11.933-1.5-1.259 20.668-11.932Z"/>
    <path fill="#444" d="M49.99 40.742v.848L29.323 53.523v-.848L49.99 40.742Z"/>
    <path fill="#909090" d="M29.323 52.675v.848l-1.5-1.259v-.848l1.5 1.259Z"/>
    <path fill="#6e6e6e" d="m48.876 38.25 1.5 1.258-20.667 11.933-1.5-1.259L48.876 38.25Z"/>
    <path fill="#444" d="M50.376 39.508v.849L29.709 52.289v-.848l20.667-11.933Z"/>
    <path fill="#909090" d="M29.709 51.441v.848l-1.5-1.258v-.849l1.5 1.259Z"/>
    <path fill="#6e6e6e" d="m48.876 37.242 1.5 1.258-20.667 11.933-1.5-1.259 20.667-11.932Z"/>
    <path fill="#444" d="M50.376 38.5v.849L29.709 51.281v-.848L50.376 38.5Z"/>
    <path fill="#909090" d="M29.709 50.433v.848l-1.5-1.259v-.848l1.5 1.259Z"/>
    <path fill="#6e6e6e" d="m48.284 37.518 1.5 1.258-20.667 11.933-1.5-1.259 20.667-11.932Z"/>
    <path fill="#444" d="M49.784 38.776v.849L29.117 51.557v-.848l20.667-11.933Z"/>
    <path fill="#909090" d="M29.117 50.709v.848l-1.5-1.258v-.849l1.5 1.259Z"/>
    <path fill="#b5b5b5" d="m48.284 36.51 1.5 1.258-20.667 11.933-1.5-1.259L48.284 36.51Z"/>
    <path fill="#444" d="M49.784 37.768v.848L29.117 50.549v-.848l20.667-11.933Z"/>
    <path fill="#ababab" d="M29.117 49.701v.848l-1.5-1.259v-.848l1.5 1.259Z"/>
    <path fill="#6e6e6e" d="m44.723 31.365 1.499 1.258-20.667 11.932-1.5-1.258 20.668-11.932Z"/>
    <path fill="#444" d="M46.222 32.623v.848L25.555 45.404v-.849l20.667-11.932Z"/>
    <path fill="#909090" d="M25.555 44.555v.849l-1.5-1.259v-.848l1.5 1.258Z"/>
    <path fill="#6e6e6e" d="m46.233 33.049 1.499 1.259L27.065 46.24l-1.5-1.259 20.668-11.932Z"/>
    <path fill="#444" d="M47.732 34.308v.848L27.065 47.088v-.848l20.667-11.932Z"/>
    <path fill="#909090" d="M27.065 46.24v.848l-1.5-1.258v-.849l1.5 1.259Z"/>
    <path fill="#6e6e6e" d="m48.491 34.527 1.499 1.258-20.667 11.932-1.5-1.258 20.668-11.932Z"/>
    <path fill="#444" d="M49.99 35.785v.848L29.323 48.565v-.848L49.99 35.785Z"/>
    <path fill="#909090" d="M29.323 47.717v.848l-1.5-1.258v-.848l1.5 1.258Z"/>
    <path fill="#838383" d="m45.956 31.116 1.499 1.258-20.667 11.933-1.5-1.259 20.668-11.932Z"/>
    <path fill="#444" d="M47.455 32.374v.849L26.788 45.155v-.848l20.667-11.933Z"/>
    <path fill="#909090" d="M26.788 44.307v.848l-1.5-1.258v-.849l1.5 1.259Z"/>
    <path fill="#c9c9c9" d="m46.905 33.139 1.5 1.258-20.667 11.932-1.5-1.258 20.667-11.932Z"/>
    <path fill="#b5b5b5" d="M48.405 34.397v.848L27.738 47.178v-.849l20.667-11.932Z"/>
    <path fill="#d4d4d4" d="M27.738 46.329v.849l-1.5-1.259v-.848l1.5 1.258Z"/>
  </g>
</svg>
