<svg xmlns="http://www.w3.org/2000/svg" xml:space="preserve" fill-rule="evenodd" stroke-linejoin="round" stroke-miterlimit="2" clip-rule="evenodd" viewBox="0 0 64 64">
  <g id="blue">
    <path fill="#ebebeb" d="M40.81 32.111v4.771l-3.622-3.039v-4.77l3.622 3.038Z"/>
    <path fill="#ebebeb" d="M20.227 23.784V35.71l-6.365-5.34V18.444l6.365 5.34Z"/>
    <path fill="#575757" d="M19.432 23.714v2.385l-.95-.797v-2.385l.95.797Z"/>
    <path fill="#2e2e2e" d="M19.432 31.466v2.385l-.95-.797v-2.385l.95.797Z"/>
  </g>
  <g id="red">
    <path fill="#ababab" d="M24.378 24.883v21.466l-11.902-9.987V14.896l11.902 9.987Zm-4.151-1.099-6.365-5.34V30.37l6.365 5.34V23.784Z"/>
    <path fill="#ababab" d="M14.304 21.796v-2.385l.949.797v2.385l-.949-.797Zm2.708 2.273v-2.385l.95.797v2.385l-.95-.797Zm-2.708 5.303v-2.21l.949.797v2.21l-.949-.797Zm2.708 2.273v-2.21l.95.797v2.21l-.95-.797Zm-1.362-5.148v-2.009l.95.797v2.009l-.95-.797Z"/>
    <path fill="#6e6e6e" d="m32.089 20.625-7.711 4.258-11.902-9.987 7.751-4.106 11.862 9.835Z"/>
    <path fill="#575757" d="m32.056 20.598.033 21.305-7.711 4.446V24.883l7.678-4.285Z"/>
  </g>
  <g id="orange">
    <path fill="#707070" d="M14.304 25.368v-2.01l.949.797v2.01l-.949-.797Z"/>
  </g>
  <g id="brown">
    <path fill="#808080" d="M15.65 22.926V20.54l.95.797v2.386l-.95-.797Z"/>
  </g>
  <g id="grey">
    <path fill="#d4d4d4" d="M23.439 26.48v9.541l-1.827-1.533v-9.541l1.827 1.533Z"/>
    <path fill="#2e2e2e" d="M19.785 37.725v2.228l-5.481-4.599v-2.229l5.481 4.6Z"/>
    <path fill="#575757" d="M20.227 30.337v.752l-6.443-5.407v-.751l6.443 5.406Z"/>
    <path fill="#575757" d="M20.227 30.337v.752l-6.443-5.407v-.751l6.443 5.406Zm0 4.005v.751l-6.443-5.406v-.751l6.443 5.406Zm0-7.576v.751l-6.443-5.406v-.751l6.443 5.406Z"/>
    <path fill="#575757" d="M20.227 34.342v.751l-6.443-5.406v-.751l6.443 5.406Z"/>
    <path fill="#575757" d="M20.227 26.766v.751l-6.443-5.406v-.751l6.443 5.406Z"/>
    <path fill="#d4d4d4" d="M43.925 31.744V53.21l-9.523-7.991V23.753l9.523 7.991Zm-3.115.367-3.622-3.038v4.77l3.622 3.039v-4.771Z"/>
    <path fill="#808080" d="M40.81 36.882v4.174l-5.023-4.214v-9.541l5.023 4.214v.596l-3.622-3.038v4.77l3.622 3.039Z"/>
    <path fill="#909090" d="M37.155 28.449v9.54l-1.368-1.147v-9.541l1.368 1.148Z"/>
    <path fill="#575757" d="M40.81 38.749v2.228l-5.023-4.214 1.368-1.081 3.655 3.067Z"/>
    <path fill="#ababab" d="m51.524 27.387-7.599 4.357-9.523-7.991 7.431-4.29 9.691 7.924Z"/>
    <path fill="#6e6e6e" d="m51.524 27.387-.168 21.533-7.431 4.29V31.744l7.599-4.357Z"/>
  </g>
  <g id="green">
    <path fill="#d4d4d4" d="M17.012 27.64v-2.009l.95.797v2.009l-.95-.797Z"/>
  </g>
  <g id="yellow">
    <path fill="#fefffe" d="M18.482 28.874v-2.01l.95.797v2.01l-.95-.797Z"/>
  </g>
  <g id="black">
    <path fill="#2e2e2e" d="M16.6 29.089v2.21l-.95-.797v-2.21l.95.797Z"/>
    <path fill="#131313" d="M40.355 37.1v.924l-2.579-2.164v-.925l2.579 2.165Z"/>
    <path d="m37.852 45.532-.551-.462-.219-1.223-1.004-.842-.207.865-.538-.452.978-3.752.536.45 1.005 5.416Zm-.933-2.592-.346-1.987-.339 1.412.685.575Zm1.507 3.074v-3.8l-.745-.625v-.773l1.995 1.674v.773l-.743-.623v3.799l-.507-.425Zm1.57 1.317v-4.573l.759.637.456 3.502.45-2.742.76.638v4.573l-.471-.395v-3.6l-.498 3.182-.488-.41-.497-4.016v3.599l-.471-.395Z"/>
  </g>
</svg>
