<?xml version="1.0" encoding="UTF-8" standalone="no"?>
<!DOCTYPE svg PUBLIC "-//W3C//DTD SVG 1.1//EN" "http://www.w3.org/Graphics/SVG/1.1/DTD/svg11.dtd">
<svg width="100%" height="100%" viewBox="0 0 64 64" version="1.1" xmlns="http://www.w3.org/2000/svg" xmlns:xlink="http://www.w3.org/1999/xlink" xml:space="preserve" xmlns:serif="http://www.serif.com/" style="fill-rule:evenodd;clip-rule:evenodd;stroke-linejoin:round;stroke-miterlimit:2;">
    <g id="surface1">
        <path d="M32.111,57.1C32.111,57.1 20.397,58.608 15.225,54.955C10.049,51.299 11.424,40.541 11.424,40.541L5.904,40.541L13.611,30.592L23.151,40.541L17.065,40.541C17.065,40.541 15.549,47.244 19.311,49.498C23.076,51.752 32.111,50.897 32.111,50.897L32.111,57.1Z" style="fill:#f3f4f4;fill-rule:nonzero;stroke:#f3f4f4;stroke-width:1px;"/>
        <path d="M31.885,8.901C31.885,8.901 43.6,7.393 48.776,11.045C53.947,14.701 52.576,25.459 52.576,25.459L58.096,25.459L50.385,35.408L40.846,25.459L46.936,25.459C46.936,25.459 48.451,18.756 44.686,16.502C40.924,14.248 31.889,15.104 31.889,15.104L31.885,8.901Z" style="fill:#f3f4f4;fill-rule:nonzero;stroke:#f3f4f4;stroke-width:1px;"/>
    </g>
    <g id="Layer1">
        <rect x="15.843" y="19.241" width="3.74" height="9.351" style="fill:#b5b5b5;stroke:#b5b5b5;stroke-width:1px;"/>
        <path d="M16.794,9.956C16.928,9.624 17.298,9.399 17.711,9.399C18.128,9.399 18.498,9.624 18.632,9.956L24.556,24.696C24.589,24.784 24.607,24.874 24.607,24.963C24.607,25.416 24.169,25.787 23.638,25.787L11.788,25.787C11.257,25.787 10.819,25.416 10.819,24.963C10.819,24.874 10.835,24.784 10.87,24.698L16.794,9.956Z" style="fill:#b5b5b5;fill-rule:nonzero;stroke:#b5b5b5;stroke-width:1px;"/>
        <path d="M16.826,9.834C16.955,9.574 17.313,9.399 17.711,9.399C18.115,9.399 18.473,9.574 18.6,9.834L24.326,21.318C24.359,21.383 24.377,21.455 24.377,21.526C24.377,21.877 23.954,22.167 23.439,22.167L11.989,22.167C11.472,22.167 11.05,21.877 11.05,21.526C11.05,21.455 11.067,21.385 11.1,21.318L16.826,9.834Z" style="fill:#b5b5b5;fill-rule:nonzero;stroke:#b5b5b5;stroke-width:1px;"/>
        <path d="M16.921,9.686C17.036,9.514 17.355,9.399 17.713,9.399C18.071,9.399 18.389,9.514 18.505,9.686L23.61,17.278C23.642,17.322 23.656,17.368 23.656,17.415C23.656,17.647 23.278,17.838 22.82,17.838L12.606,17.838C12.148,17.838 11.77,17.647 11.77,17.415C11.77,17.368 11.784,17.322 11.814,17.278L16.921,9.686Z" style="fill:#b5b5b5;fill-rule:nonzero;stroke:#b5b5b5;stroke-width:1px;"/>
        <path d="M17.251,6.802C17.318,6.678 17.505,6.592 17.713,6.592C17.921,6.592 18.109,6.678 18.175,6.802L21.154,12.365C21.172,12.398 21.179,12.433 21.179,12.465C21.179,12.637 20.96,12.776 20.692,12.776L14.734,12.776C14.466,12.776 14.247,12.637 14.247,12.465C14.247,12.433 14.254,12.398 14.272,12.365L17.251,6.802Z" style="fill:#b5b5b5;fill-rule:nonzero;stroke:#b5b5b5;stroke-width:1px;"/>
    </g>
    <g id="Layer2">
        <rect x="46.524" y="44.817" width="2.379" height="11.289" style="fill:#b5b5b5;stroke:#b5b5b5;stroke-width:1px;"/>
        <path d="M46.973,43.36C47.082,43.192 47.379,43.078 47.715,43.078C48.047,43.078 48.344,43.192 48.449,43.36L53.211,50.825C53.238,50.871 53.254,50.914 53.254,50.961C53.254,51.192 52.902,51.379 52.473,51.379L42.949,51.379C42.524,51.379 42.172,51.192 42.172,50.961C42.172,50.914 42.188,50.871 42.215,50.828L46.973,43.36Z" style="fill:#b5b5b5;fill-rule:nonzero;stroke:#b5b5b5;stroke-width:1px;"/>
    </g>
</svg>
