<?xml version="1.0" encoding="UTF-8" standalone="no"?>
<!DOCTYPE svg PUBLIC "-//W3C//DTD SVG 1.1//EN" "http://www.w3.org/Graphics/SVG/1.1/DTD/svg11.dtd">
<svg width="100%" height="100%" viewBox="0 0 64 64" version="1.1" xmlns="http://www.w3.org/2000/svg" xmlns:xlink="http://www.w3.org/1999/xlink" xml:space="preserve" xmlns:serif="http://www.serif.com/" style="fill-rule:evenodd;clip-rule:evenodd;stroke-linejoin:round;stroke-miterlimit:2;">
    <g id="surface1">
        <path d="M33.68,49.66L33.656,61.617L31.422,59.418L31.371,47.816L33.68,49.66Z" style="fill:#b4b4b4;"/>
        <path d="M6.344,26.055L6.32,38.59L4.086,36.395L4.035,24.109L6.344,26.055Z" style="fill:#b4b4b4;"/>
        <path d="M59.746,33.707L59.117,44.984L33.656,61.617L33.68,49.66L59.746,33.707Z" style="fill:#b4b4b4;"/>
        <path d="M32.41,10.68L31.781,21.957L6.32,38.59L6.344,26.633L32.41,10.68Z" style="fill:#565656;"/>
        <path d="M4.035,24.109L6.344,26.184L6.34,27.637L31.371,49.313L31.371,47.816L33.68,49.66L59.746,33.707L59.82,32.238L4.07,22.246L4.035,24.109Z" style="fill:#434343;fill-rule:nonzero;"/>
        <path d="M4.598,22.098L38.684,44.488L52.551,36.273L27.137,8.23L4.598,22.098Z" style="fill:#d4d4d4;fill-rule:nonzero;"/>
        <path d="M4.035,22.234L33.906,47.336L45.551,40.422L15.535,15.309L4.035,22.234Z" style="fill:#929090;fill-rule:nonzero;"/>
        <path d="M17.34,14.258L47.184,39.453L56.805,33.918L27.137,8.23L23.914,10.215L17.34,14.258Z" style="fill:#929090;fill-rule:nonzero;"/>
        <path d="M45.855,40.922L57.168,34.227L45.855,40.922Z" style="fill:#7f7f7f;fill-rule:nonzero;"/>
        <path d="M4.035,22.234L33.906,47.336L37.066,45.457L6.93,20.492L4.035,22.234Z" style="fill:#706e6e;fill-rule:nonzero;"/>
        <path d="M27.137,8.23L56.805,33.914L59.82,32.238L30.031,6.488L27.137,8.23Z" style="fill:#706e6e;fill-rule:nonzero;"/>
    </g>
</svg>
