<svg xmlns="http://www.w3.org/2000/svg" xml:space="preserve" fill-rule="evenodd" stroke-linejoin="round" stroke-miterlimit="2" clip-rule="evenodd" viewBox="0 0 64 64">
  <g id="grey">
    <path fill="#434343" fill-rule="nonzero" d="m5.466 24.859 29.61 25.369 23.109-13.727.009-2.02H35.302L5.467 22.815l-.001 2.044Z"/>
    <path fill="#d4d4d4" d="M35.302 22.803H5.433v15.345l29.869 25.015v-40.36Z"/>
    <path fill="#716e6e" d="M38.466 46.09h-3.164v17.073l3.164-2.103V46.09Z"/>
    <path fill="#d4d4d4" fill-rule="nonzero" d="m5.994 22.665 34.087 22.391 13.869-8.215L28.534 8.799 5.994 22.665Z"/>
    <path fill="#929191" fill-rule="nonzero" d="m5.433 22.803 29.871 25.1 11.644-6.915-30.016-25.114-11.499 6.929Z"/>
    <path fill="#929191" fill-rule="nonzero" d="m18.73 14.95 29.853 25.07 9.618-5.533L28.534 8.799l-3.222 1.982-6.582 4.169Z"/>
    <path fill="#808080" fill-rule="nonzero" d="m47.254 41.49 11.313-6.694-11.313 6.694Z"/>
    <path fill="#716e6e" fill-rule="nonzero" d="m5.433 22.803 29.871 25.1 3.162-1.878L8.327 21.059l-2.894 1.744Z"/>
  </g>
</svg>
