<svg xmlns="http://www.w3.org/2000/svg" xml:space="preserve" fill-rule="evenodd" stroke-linejoin="round" stroke-miterlimit="2" clip-rule="evenodd" viewBox="0 0 64 64">
  <g id="grey">
    <path fill="#444" fill-rule="nonzero" d="m6.698 27.512 28.964 24.304 21.672-12.513v-2.588L35.9 49.09 6.666 24.56l.032 2.952Z"/>
    <path fill="#929191" fill-rule="nonzero" d="M6.666 24.56 35.9 49.09l21.434-12.375L28.1 12.185 6.666 24.56Z"/>
    <path fill="#d4d4d4" d="m19.451 19.826 3.657 3.065-.895.517-3.647-3.071.885-.511Zm5.486 4.598 3.656 3.064-.909.525-3.647-3.07.9-.519Zm5.484 4.597 3.636 3.047-.924.533-3.625-3.053.913-.527Zm5.464 4.58 3.576 2.997-.937.541-3.567-3.003.928-.535Zm5.405 4.53 3.758 3.149-.952.55-3.748-3.156.942-.543Z"/>
  </g>
</svg>
