<svg xmlns="http://www.w3.org/2000/svg" xml:space="preserve" fill-rule="evenodd" stroke-linejoin="round" stroke-miterlimit="2" clip-rule="evenodd" viewBox="0 0 64 64">
  <g id="Layer1" fill="#f4f4f4">
    <path d="M33.832 3.621c0-.527-.123-.953-.275-.953h-3.114c-.152 0-.275.426-.275.953v10.762c0 .523.123.949.275.949h3.114c.152 0 .275-.426.275-.949V3.621Z"/>
    <path d="M33.832 49.621c0-.527-.123-.953-.275-.953h-3.114c-.152 0-.275.426-.275.953v10.762c0 .523.123.949.275.949h3.114c.152 0 .275-.426.275-.949V49.621Z"/>
    <path d="M62.379 33.728c.527 0 .953-.123.953-.275v-3.114c0-.152-.426-.275-.953-.275H51.617c-.523 0-.949.123-.949.275v3.114c0 .152.426.275.949.275h10.762Z"/>
    <path d="M1.621 30.064c-.527 0-.953.123-.953.275v3.114c0 .152.426.275.953.275h10.762c.523 0 .949-.123.949-.275v-3.114c0-.152-.426-.275-.949-.275H1.621Z"/>
    <path d="M12.492 10.233c-.373-.373-.761-.587-.868-.48l-2.203 2.203c-.107.107.107.495.48.868l7.61 7.61c.37.37.758.584.865.477l2.203-2.203c.107-.107-.107-.495-.477-.865l-7.61-7.61Z"/>
    <path d="M20.099 46.16c.373-.373.587-.761.48-.868l-2.203-2.203c-.107-.107-.495.107-.868.48l-7.61 7.61c-.37.37-.584.758-.477.865l2.203 2.203c.107.107.495-.107.865-.477l7.61-7.61Z"/>
    <path d="M46.492 43.569c-.373-.373-.761-.587-.868-.48l-2.203 2.203c-.107.107.107.495.48.868l7.61 7.61c.37.37.758.584.865.477l2.203-2.203c.107-.107-.107-.495-.477-.865l-7.61-7.61Z"/>
    <path d="M54.099 12.824c.373-.373.587-.761.48-.868l-2.203-2.203c-.107-.107-.495.107-.868.48l-7.61 7.61c-.37.37-.584.758-.477.865l2.203 2.203c.107.107.495-.107.865-.477l7.61-7.61Z"/>
  </g>
</svg>
