<svg xmlns="http://www.w3.org/2000/svg" xml:space="preserve" fill-rule="evenodd" stroke-linejoin="round" stroke-miterlimit="2" clip-rule="evenodd" viewBox="0 0 64 64">
  <g id="grey">
    <path fill="#d4d4d4" d="M42 33v7h-6v-7h6Zm-22.5 0v7h-6v-7h6ZM51 33v7h-6v-7h6Zm-22.5 0v7h-6v-7h6Z"/>
  </g>
  <g id="white" fill="#f4f4f4">
    <path d="M56 56H8.5V31c0-2.76 2.24-5 5-5H51c2.76 0 5 2.24 5 5v25Zm-3-25a2 2 0 0 0-2-2H34v24h19V31Zm-22.5-2h-17a2 2 0 0 0-2 2v22h19V29Z"/>
    <path d="M46.5 44v9h-6v-9h6ZM24 44v9h-6v-9h6Z"/>
  </g>
</svg>
