<svg xmlns="http://www.w3.org/2000/svg" xml:space="preserve" fill-rule="evenodd" stroke-linejoin="round" stroke-miterlimit="2" clip-rule="evenodd" viewBox="0 0 64 64">
  <g id="orange" fill-rule="nonzero">
    <path fill="#c9c9c9" d="M28.143 9.806c.064-.187 4.443-2.632 4.647-2.515.205.117.387.373.452.633 1.058 4.228 3.648 14.586 4.206 16.809.062.254.238.504.438.623l12.658 7.623c.257.153.675.604.466.814-.769.774-4.237 2.711-4.349 2.751-3.365 1.198-2.558-.026-5.921 1.176-.149.052-.211.245-.157.486.464 2.167 2.71 12.609 3.608 16.786a.741.741 0 0 1 .019.163c0 .3-4.112 2.911-4.373 2.762-.101-.057-6.767-17.341-6.767-17.341-.167-.231-.392-.36-.559-.319l-10.384 2.721c-.081.022-.179.003-.28-.055-.261-.149-.475-.519-.475-.819 0-.051.006-.099.018-.141.897-3.151 3.144-11.026 3.608-12.662.054-.18-.008-.444-.157-.667 0 0-14.409-13.297-14.409-13.463 0-.296 4.349-2.616 4.606-2.475 3.124 1.686 10.949 5.919 12.658 6.842.199.108.374.058.437-.123.558-1.585-1.048-6.59.01-9.609Z"/>
    <path fill="#f4f4f4" d="M28.121 9.856c.065-.187.247-.234.451-.117.205.116.387.372.452.633 1.058 4.228 3.648 14.585 4.206 16.809.062.253.238.504.438.622l12.658 7.624c.257.153.466.518.466.814 0 .166-.066.286-.178.326a7111.985 7111.985 0 0 0-10.092 3.601c-.149.052-.211.245-.157.486.464 2.167 2.71 12.609 3.608 16.786a.741.741 0 0 1 .019.163c0 .3-.215.425-.476.276a.935.935 0 0 1-.28-.266L28.852 43.024c-.167-.232-.392-.36-.559-.32l-10.384 2.722c-.081.022-.179.002-.28-.055-.261-.149-.475-.519-.475-.819 0-.052.006-.099.018-.141.897-3.151 3.144-11.026 3.608-12.663.054-.179-.008-.444-.157-.666L10.534 15.955a.991.991 0 0 1-.18-.53c0-.296.209-.422.466-.281 3.124 1.686 10.949 5.918 12.658 6.842.199.107.374.058.437-.123.558-1.585 3.148-8.988 4.206-12.007Z"/>
  </g>
</svg>
