<?xml version="1.0" encoding="UTF-8" standalone="no"?>
<!DOCTYPE svg PUBLIC "-//W3C//DTD SVG 1.1//EN" "http://www.w3.org/Graphics/SVG/1.1/DTD/svg11.dtd">
<svg width="100%" height="100%" viewBox="0 0 32 32" version="1.1" xmlns="http://www.w3.org/2000/svg" xmlns:xlink="http://www.w3.org/1999/xlink" xml:space="preserve" xmlns:serif="http://www.serif.com/" style="fill-rule:evenodd;clip-rule:evenodd;stroke-linejoin:round;stroke-miterlimit:2;">
    <g id="Weather">
        <circle id="Ellipse_580" cx="16" cy="16" r="6.685" style="fill:#f3f4f4;"/>
        <path id="Rectangle_3933" d="M17.486,2.945C17.486,2.393 17.037,1.945 16.486,1.945L15.514,1.945C14.963,1.945 14.514,2.393 14.514,2.945L14.514,6.887C14.514,7.439 14.963,7.887 15.514,7.887L16.486,7.887C17.037,7.887 17.486,7.439 17.486,6.887L17.486,2.945Z" style="fill:#f3f4f4;"/>
        <path id="Rectangle_3938" d="M26.968,7.183C27.333,6.806 27.322,6.204 26.945,5.84L26.282,5.199C25.905,4.835 25.303,4.845 24.939,5.222L21.683,8.59C21.318,8.967 21.328,9.569 21.705,9.934L22.369,10.575C22.746,10.939 23.347,10.929 23.712,10.552L26.968,7.183Z" style="fill:#f3f4f4;"/>
        <path id="Rectangle_3936" d="M6.63,17.486C7.181,17.486 7.63,17.037 7.63,16.486L7.63,15.514C7.63,14.963 7.181,14.514 6.63,14.514L2.687,14.514C2.136,14.514 1.687,14.963 1.687,15.514L1.687,16.486C1.687,17.037 2.136,17.486 2.687,17.486L6.63,17.486Z" style="fill:#f3f4f4;"/>
        <path id="Rectangle_3940" d="M8.333,10.575C8.71,10.939 9.312,10.929 9.676,10.552L10.317,9.889C10.682,9.512 10.672,8.91 10.295,8.546L6.926,5.289C6.549,4.925 5.947,4.935 5.583,5.312L4.942,5.975C4.577,6.352 4.587,6.954 4.964,7.319L8.333,10.575Z" style="fill:#f3f4f4;"/>
        <path id="Rectangle_3934" d="M17.486,25.399C17.486,24.847 17.037,24.399 16.486,24.399L15.514,24.399C14.963,24.399 14.514,24.847 14.514,25.399L14.514,29.341C14.514,29.893 14.963,30.341 15.514,30.341L16.486,30.341C17.037,30.341 17.486,29.893 17.486,29.341L17.486,25.399Z" style="fill:#f3f4f4;"/>
        <path id="Rectangle_3939" d="M10.317,23.712C10.682,23.335 10.672,22.733 10.295,22.369L9.631,21.727C9.254,21.363 8.653,21.373 8.288,21.75L5.032,25.119C4.667,25.496 4.678,26.098 5.055,26.462L5.718,27.103C6.095,27.468 6.697,27.458 7.061,27.081L10.317,23.712Z" style="fill:#f3f4f4;"/>
        <path id="Rectangle_3935" d="M29.026,17.486C29.578,17.486 30.026,17.037 30.026,16.486L30.026,15.514C30.026,14.963 29.578,14.514 29.026,14.514L25.084,14.514C24.533,14.514 24.084,14.963 24.084,15.514L24.084,16.486C24.084,17.037 24.533,17.486 25.084,17.486L29.026,17.486Z" style="fill:#f3f4f4;"/>
        <path id="Rectangle_3937" d="M25.074,27.058C25.451,27.423 26.053,27.412 26.417,27.035L27.058,26.372C27.423,25.995 27.413,25.393 27.036,25.029L23.667,21.773C23.29,21.408 22.688,21.418 22.324,21.795L21.683,22.459C21.318,22.836 21.328,23.438 21.705,23.802L25.074,27.058Z" style="fill:#f3f4f4;"/>
    </g>
</svg>
