<?xml version="1.0" encoding="UTF-8" standalone="no"?><!DOCTYPE svg PUBLIC "-//W3C//DTD SVG 1.1//EN" "http://www.w3.org/Graphics/SVG/1.1/DTD/svg11.dtd"><svg width="100%" height="100%" viewBox="0 0 64 64" version="1.1" xmlns="http://www.w3.org/2000/svg" xmlns:xlink="http://www.w3.org/1999/xlink" xml:space="preserve" xmlns:serif="http://www.serif.com/" style="fill-rule:evenodd;clip-rule:evenodd;stroke-linejoin:round;stroke-miterlimit:2;"><g id="grey"><path d="M31.151,21.913C40.805,21.278 49.01,25.843 49.479,32.114C49.949,38.386 42.5,43.98 32.848,44.615C23.195,45.249 14.989,40.683 14.521,34.414C14.053,28.145 21.498,22.55 31.151,21.913Z" style="fill:#575757;fill-rule:nonzero;"/><path d="M31.151,19.385C40.805,18.75 49.01,23.315 49.479,29.586C49.949,35.858 42.5,41.452 32.848,42.086C23.195,42.721 14.989,38.155 14.521,31.886C14.053,25.618 21.498,20.022 31.151,19.385Z" style="fill:#acabab;fill-rule:nonzero;"/><path d="M31.151,19.385C40.805,18.75 49.01,23.315 49.479,29.586C49.949,35.858 42.5,41.452 32.848,42.086C23.195,42.721 14.989,38.155 14.521,31.886C14.053,25.618 21.498,20.022 31.151,19.385ZM31.249,20.863C25.868,21.218 21.208,23.187 18.449,25.998C16.792,27.687 15.84,29.677 15.997,31.776C16.155,33.883 17.397,35.733 19.297,37.194C22.451,39.62 27.364,40.964 32.751,40.609C38.131,40.255 42.792,38.287 45.551,35.476C47.209,33.787 48.16,31.797 48.003,29.697C47.845,27.589 46.602,25.738 44.703,24.277C41.549,21.851 36.636,20.508 31.249,20.863Z" style="fill:#929090;"/></g><g id="white"><path d="M45.129,15.688L38.508,15.688L38.508,21.985L24.82,21.985L24.82,15.688L18.871,15.688L31.742,2.45L45.129,15.688ZM38.508,43.621L38.508,48.312L45.129,48.312L31.742,61.55L18.871,48.312L24.82,48.312L24.82,43.902C27.26,44.535 29.991,44.803 32.848,44.615C34.846,44.484 36.75,44.14 38.508,43.621Z" style="fill:#f4f4f4;"/></g></svg>