<?xml version="1.0" encoding="UTF-8" standalone="no"?>
<!DOCTYPE svg PUBLIC "-//W3C//DTD SVG 1.1//EN" "http://www.w3.org/Graphics/SVG/1.1/DTD/svg11.dtd">
<svg width="100%" height="100%" viewBox="0 0 64 64" version="1.1" xmlns="http://www.w3.org/2000/svg" xmlns:xlink="http://www.w3.org/1999/xlink" xml:space="preserve" xmlns:serif="http://www.serif.com/" style="fill-rule:evenodd;clip-rule:evenodd;stroke-linecap:round;stroke-linejoin:round;stroke-miterlimit:1.5;">
    <g id="b">
        <path d="M30.567,14.968C46.868,13.895 60.723,21.603 61.515,32.193C62.308,42.783 49.731,52.229 33.432,53.301C17.132,54.372 3.276,46.663 2.485,36.077C1.694,25.491 14.266,16.043 30.567,14.968Z" style="fill:#575757;fill-rule:nonzero;"/>
        <path d="M30.567,10.699C46.868,9.626 60.723,17.334 61.515,27.924C62.308,38.515 49.731,47.96 33.432,49.032C17.132,50.104 3.276,42.394 2.485,31.808C1.694,21.223 14.266,11.774 30.567,10.699Z" style="fill:#acabab;fill-rule:nonzero;"/>
        <path d="M30.811,14.848C44.611,13.939 56.284,19.876 56.9,28.112C57.516,36.348 46.833,43.755 33.04,44.663C19.248,45.572 7.567,39.632 6.951,31.399C6.336,23.166 17.018,15.756 30.811,14.848Z" style="fill:#acabab;fill-rule:nonzero;"/>
        <path d="M30.706,12.624C45.679,11.594 58.344,18.321 59.012,27.655C59.681,36.988 48.09,45.382 33.124,46.411C18.16,47.441 5.487,40.709 4.818,31.38C4.151,22.05 15.741,13.653 30.706,12.624Z" style="fill:#acabab;fill-rule:nonzero;"/>
        <path d="M30.567,10.699C46.868,9.626 60.723,17.334 61.515,27.924C62.308,38.515 49.731,47.96 33.432,49.032C17.132,50.104 3.276,42.394 2.485,31.808C1.694,21.223 14.266,11.774 30.567,10.699ZM30.731,13.194C21.645,13.793 13.776,17.118 9.118,21.865C6.319,24.718 4.713,28.077 4.978,31.622C5.244,35.179 7.342,38.304 10.55,40.771C15.875,44.867 24.172,47.136 33.268,46.537C42.353,45.94 50.223,42.617 54.882,37.87C57.682,35.017 59.288,31.657 59.022,28.111C58.756,24.551 56.657,21.426 53.45,18.959C48.124,14.862 39.828,12.595 30.731,13.194Z" style="fill:#929090;"/>
    </g>
    <g id="Layer1">
        <path d="M27.548,15.19L48.98,17.807L34.448,43.88L11.043,38.087L27.548,15.19Z" style="fill:#c2bdbd;"/>
        <path d="M12.016,36.706L34.848,42.163L33.948,43.756L11.043,38.087L12.016,36.706Z" style="fill:#929090;stroke:#929090;stroke-width:1px;"/>
        <path d="M27.548,14.868L48.98,17.807L34.448,43.88L11.043,38.087L27.548,14.868Z" style="fill:none;stroke:#929090;stroke-width:0.87px;"/>
        <path d="M30.514,13.52C30.514,13.52 27.682,18.848 27.682,21.129C27.682,22.692 28.951,23.961 30.514,23.961C32.076,23.961 33.346,22.692 33.346,21.129C33.346,18.848 30.514,13.52 30.514,13.52Z" style="fill:#f3f4f4;"/>
        <path d="M23.946,22.693C23.946,22.693 21.113,28.021 21.113,30.302C21.113,31.865 22.383,33.134 23.946,33.134C25.508,33.134 26.778,31.865 26.778,30.302C26.778,28.021 23.946,22.693 23.946,22.693Z" style="fill:#f3f4f4;"/>
        <path d="M32.844,28.914C32.844,28.914 30.012,34.242 30.012,36.523C30.012,38.086 31.281,39.355 32.844,39.355C34.406,39.355 35.676,38.086 35.676,36.523C35.676,34.242 32.844,28.914 32.844,28.914Z" style="fill:#f3f4f4;"/>
        <path d="M39.083,19.094C39.083,19.094 36.251,24.422 36.251,26.703C36.251,28.266 37.521,29.535 39.083,29.535C40.646,29.535 41.915,28.266 41.915,26.703C41.915,24.422 39.083,19.094 39.083,19.094Z" style="fill:#f3f4f4;"/>
    </g>
</svg>
