<svg xmlns="http://www.w3.org/2000/svg" xml:space="preserve" fill-rule="evenodd" stroke-linejoin="round" stroke-miterlimit="2" clip-rule="evenodd" viewBox="0 0 64 64">
  <g id="orange">
    <path fill="#c56d2b" fill-rule="nonzero" d="M15.511 59.665a1.633 1.633 0 0 0-.024-.473c-.058-.207.051-.914.254-1.625.16-.57.086-.5-.156.141-.102.27-.195.477-.211.461-.012-.016.012-.25.055-.52.043-.269.09-.656.097-.859.012-.199.039-.492.063-.648.031-.188.023-.282-.027-.282-.039 0-.055-.05-.032-.105.032-.082.051-.086.09-.023.063.101.215-.411.188-.629a.419.419 0 0 1 .039-.239c.066-.105.23-.84.23-1.035v-.133l-.101.133c-.106.129-.106.129-.063-.015.027-.09.02-.153-.023-.153-.039 0-.075-.027-.075-.066 0-.035.047-.067.102-.067.141 0 .125-.156-.031-.296-.074-.067-.137-.149-.137-.184 0-.098-.191-.262-.258-.223-.035.024-.07.016-.086-.011-.011-.028-.14-.153-.289-.278-1.25-1.062-1.886-1.637-2.222-2.012-.196-.218-.329-.316-.399-.289-.055.024-.082.02-.058-.003.023-.024-.387-.54-.914-1.153-1.301-1.508-1.282-1.48-1.793-2.269a84.727 84.727 0 0 0-1.278-1.93c-.015-.016-.012.027.012.102.031.105.027.109-.031.031-.207-.293-.52-.867-.465-.867.031 0 .105.093.168.207.054.113.121.191.137.171.042-.042-.282-.687-.375-.746-.086-.05-.086.004.003.188.063.133.063.137-.023.031-.055-.066-.141-.117-.195-.117-.059 0-.137-.098-.18-.219a11.17 11.17 0 0 0-.281-.633c-.219-.441-.211-.582.011-.379.106.098.071-.039-.168-.601-.167-.399-.289-.762-.269-.809.016-.047.004-.101-.031-.125-.035-.019-.067 0-.067.051s-.019.059-.05.02a.343.343 0 0 0-.18-.09c-.18-.031-.219-.078-.07-.078a.28.28 0 0 0 .199-.106c.043-.058.242-.144.437-.195.328-.078.34-.086.129-.094-.359-.008-.531-.074-.531-.203a.284.284 0 0 0-.102-.199c-.054-.047-.09-.098-.078-.11.012-.011.453-.086.981-.16.527-.078.996-.168 1.043-.207.054-.047.062-.117.019-.222-.051-.133-.027-.188.137-.325.109-.093.195-.203.195-.246 0-.058-.023-.058-.097.004-.079.067-.098.067-.098 0 0-.043-.043-.062-.098-.043-.051.02-.105.004-.121-.031-.027-.09-.855-.117-1.25-.039-.269.051-.863.109-1.344.137-.101.004-.183.035-.183.062 0 .027-.113.051-.25.047a2.626 2.626 0 0 0-.469.027c-.129.02-.203.008-.18-.031.024-.031.004-.062-.043-.062-.132 0-.007-.082.157-.102.082-.012.644-.137 1.25-.285 1.468-.352 3.289-.707 4.359-.848.184-.023.406-.054.5-.07.238-.039.68-.082 1.363-.125.684-.047 2.438-.332 2.711-.442.102-.039.231-.054.293-.031.094.035.098.028.024-.058-.043-.055-.184-.102-.309-.102-.121 0-.223-.031-.223-.07 0-.039.028-.055.067-.031.035.023.125.007.203-.036.109-.058.156-.05.219.032.043.054.254.164.468.238.332.109.403.117.465.039.082-.098.356-.164 1.418-.352.535-.089.688-.14.711-.234.016-.066.067-.117.11-.117s.062.043.043.097c-.059.153.234.129.839-.066.559-.176 1.317-.344 1.743-.383.242-.019.273-.051.476-.418.238-.425.442-.527.481-.234.031.207.32-.465.613-1.418.113-.379.262-.723.332-.785.07-.059.133-.16.133-.223 0-.094-.02-.101-.102-.031-.066.055-.043-.051.067-.301.121-.288.223-.585.304-.887.074-.281.192-.617.258-.742a3.29 3.29 0 0 0 .203-.535c.043-.164.113-.367.153-.453.054-.113.05-.188-.008-.285-.106-.168-.039-.391.336-1.172.164-.348.289-.723.332-1.016.039-.258.093-.468.125-.468.082 0 .207.519.16.671-.024.071-.024.129-.004.129.043 0 .777-1.515.809-1.664.011-.054.039-.234.058-.398.059-.391.274-1.11.418-1.375.066-.117.172-.317.238-.446.078-.148.157-.222.215-.199.078.032.078.063-.004.227-.125.234-.125.328-.008.328.114 0 .176-.145.176-.422 0-.32.184-1.133.36-1.594.086-.226.211-.601.277-.828.066-.23.141-.418.172-.418.027 0 .125-.246.215-.547.09-.304.3-1.004.468-1.558.165-.559.375-1.176.469-1.379.094-.203.168-.399.168-.442 0-.039.051-.148.11-.242.066-.097.085-.187.05-.215-.035-.023-.043-.164-.019-.308l.039-.266.023.531.125-.351c.071-.192.207-.727.305-1.188.094-.461.246-1.004.332-1.211.164-.398.559-2.14.727-3.207.136-.871.238-1.988.285-3.093.019-.512.043-.942.054-.953.012-.012.039.121.063.296.082.633.109.758.164.727.031-.02.062-.16.066-.316.008-.157.02-.332.024-.387 0-.055-.016-.727-.043-1.496-.031-.906-.024-1.364.015-1.301.036.055.086.246.11.434.019.183.082.574.129.867.051.293.129.777.176 1.082.046.301.105.547.128.547.028 0 .036.144.016.316-.019.215-.008.289.035.227.074-.102.141.082.278.738.058.285.109.383.191.383.098 0 .109-.094.102-.867-.008-.481.003-.856.019-.84.016.015.07.207.121.422.051.211.129.476.176.586.078.191.094.25.113.523.008.062.035.105.063.086.027-.02.051.043.047.137-.008.164.109.718.32 1.484.051.203.133.531.18.734.183.825.582 2.09.984 3.125.234.606.531 1.407.66 1.786.192.558.25.667.324.609.075-.063.11-.039.172.101.051.11.059.196.02.223-.071.051-.098.344-.028.344.024 0 .043.043.043.09 0 .05.039.23.086.406.086.305.16.328.215.07.028-.109.047-.093.137.098.058.129.172.414.258.633.082.218.23.582.336.801.183.39.183.394.019.199l-.164-.199.07.246c.114.406.637 1.992.782 2.347.175.442.476 1.43.437 1.43-.019 0-.164-.285-.324-.633-.285-.605-.43-.961-.773-1.879-.086-.226-.18-.414-.208-.414-.082 0-.058.133.04.231.05.05.109.214.132.359.024.148.153.504.282.785.132.285.445 1.031.695 1.653.486 1.203.983 2.4 1.492 3.593.047.11.141.364.203.567.156.484.36.879.43.832.031-.02.07.008.094.062.019.051 0 .106-.043.121-.051.016-.028.149.078.418.086.219.172.516.191.66.016.149.074.325.121.399.051.07.075.191.055.269-.023.086.035.293.133.5.097.196.172.399.172.454 0 .078.019.078.101.007.059-.043.121-.062.145-.039.023.024.008.043-.035.043-.09 0-.106.211-.02.301.035.035.109.23.164.43.125.429.281.672.363.554.036-.054.086-.058.149-.019.144.09.601.078 1.148-.031.793-.153.989-.184 1.614-.243.328-.031.957-.101 1.394-.156 1.02-.125 1.336-.125.867 0-.32.09-.308.09.399.059.402-.02.867-.063 1.031-.098.164-.031.52-.062.781-.062.278 0 .485-.032.485-.071 0-.035.031-.066.07-.066.039 0 .051.031.027.066-.019.039-.008.067.032.067.039 0 .07-.028.07-.059 0-.031.066-.058.148-.058.082 0 .371-.032.641-.071.269-.035.531-.051.586-.031.047.019.14.012.207-.016.062-.031.305-.058.535-.07.555-.023.641-.059.582-.242a2.704 2.704 0 0 1-.066-.25 1.12 1.12 0 0 0-.071-.219c-.058-.144-.027-.184.161-.199.179-.016.175-.043-.055-.895-.352-1.269-.781-2.437-.875-2.379-.035.02-.043-.007-.024-.058.02-.055.004-.117-.035-.141-.039-.023-.07-.129-.07-.234 0-.156-.024-.184-.129-.156-.07.019-.195-.012-.281-.071-.082-.058-.114-.109-.067-.109s.067-.027.043-.067a.074.074 0 0 0-.065-.039.072.072 0 0 0-.04.012c-.035.02-.059.016-.055-.015.035-.192-.012-.243-.105-.118-.094.118-.094.118-.028-.05.047-.106.114-.165.168-.141.137.051.114-.074-.039-.215-.101-.09-.133-.098-.136-.023 0 .074-.012.074-.063-.008-.059-.09-.066-.09-.074 0-.004.055-.028.023-.055-.067-.027-.089-.023-.183.012-.207.098-.066-.016-.363-.227-.601-.109-.121-.175-.18-.152-.129.035.062.023.074-.031.043-.047-.031-.071-.102-.055-.164.023-.094-.008-.11-.16-.086-.106.016-.172.055-.152.086.019.031-.008.058-.059.058-.102 0-.18-.132-.18-.3 0-.051.114-.114.266-.145l.265-.051-.109-.203c-.101-.192-.2-.384-.297-.578a3.108 3.108 0 0 0-.355-.559c-.09-.093-.153-.203-.133-.234.078-.125-.609-1-.691-.883-.063.086-.211.106-.211.028 0-.039.031-.067.066-.067.121 0 .07-.121-.125-.316a2.558 2.558 0 0 1-.316-.395c-.192-.316-.84-1.019-.934-1.019-.082 0-.117-.125-.094-.317.008-.047-.035-.101-.09-.125-.058-.023-.105-.078-.105-.129a.132.132 0 0 0-.082-.117c-.066-.027-.066-.035 0-.039.125-.008.855.676 1.266 1.18.074.094.078.086.003-.067-.046-.093-.359-.457-.687-.8-.965-1.008-1.496-1.375-1.496-1.039 0 .136-.004.136-.117.015-.2-.218-.844-.773-1.297-1.117-.199-.152-.27-.176-.344-.113-.051.043-.105.054-.117.023-.055-.129-1.34-.937-2.051-1.289-2.019-.996-3.805-1.609-5.855-2.008l-.43-.082-.09-.3a9.412 9.412 0 0 1-.144-.567 56.144 56.144 0 0 0-.239-.918c-.097-.359-.164-.668-.14-.687.019-.024.132-.004.25.035.324.113.308.035-.036-.172-.359-.215-.421-.352-.675-1.449-.112-.48-.233-.958-.364-1.434-.222-.793-.535-2.219-.527-2.426.008-.23.113.102.406 1.262.149.586.297 1.176.328 1.313.067.257.043.246.688.347.105.02.328.051.5.074.168.024.469.082.672.129.199.051.437.09.531.086.09 0 .359.047.598.102.238.058.597.137.801.18.199.043.417.093.48.109.074.019.117-.004.117-.07 0-.059.031-.106.07-.106.043 0 .055.059.028.137-.043.133-.024.137.359.105.242-.019.426-.004.449.035.028.043.063.036.098-.019.047-.07.059-.066.059.027 0 .067.027.106.062.086.031-.019.078.012.102.071.023.058.058.089.082.066.023-.023.094 0 .152.055.059.05.234.125.395.16.265.058.285.054.254-.063-.02-.07-.008-.109.027-.09.031.02.058.082.058.137 0 .074.032.082.114.035.086-.047.144-.035.219.051a.857.857 0 0 0 .464.242c.348.071.387.098.356.231-.028.097-.004.133.09.133a.349.349 0 0 0 .211-.082c.058-.063.078-.059.078.003 0 .047.031.067.066.043.035-.023.07 0 .07.047.004.047.547.356 1.215.688.664.328 1.344.687 1.508.797.774.515 1.133.672 1.133.488 0-.141.086.004.094.156.004.11.047.153.144.153.078 0 .258.117.403.261.199.199.261.235.281.149.012-.059.058-.11.101-.11a.484.484 0 0 0 .211-.093c.129-.098.129-.098-.004-.207-.125-.102-.125-.102.036-.024.152.074.16.07.074-.031-.051-.063-.074-.133-.047-.156.066-.071.305-.071.305-.004 0 .035.046.047.101.027.125-.051.125.004.004.129-.07.07-.102.074-.125.008-.039-.114-.117-.028-.133.144-.004.078-.031.141-.062.141-.028 0-.051.035-.051.074 0 .043-.047.113-.106.156-.097.071-.085.102.102.286.113.117.305.277.422.363.117.082.316.25.437.375.176.172.239.203.286.133.039-.063.05-.043.039.07a.237.237 0 0 0 .113.23c.266.157.348.227 1.246 1.122.551.546.938.882.965.839.023-.043.015-.054-.027-.031-.04.024-.086-.004-.106-.058-.047-.118.059-.133.133-.016a.704.704 0 0 1 .066.238c.008.086.133.278.282.418.144.145.277.313.289.375.015.067.062.11.105.102.043-.008.078.027.078.078 0 .055.043.121.094.152.07.055.127.124.168.203.043.082.105.137.137.117.035-.019.078.02.101.09.063.2.418.621.461.547.047-.07.211-.058.285.024.032.031.016.035-.031.007-.055-.031-.082 0-.082.09 0 .078.031.141.07.141.039 0 .051.027.032.062-.051.082.73 1.305.98 1.539.125.114.172.208.145.286-.028.062 0 .164.054.226.055.063.196.313.321.559.121.246.246.429.273.414.031-.02.035.012.016.062-.02.055-.004.118.035.141.039.023.07.098.07.164 0 .16.188.309.352.281.078-.011.113.008.086.051-.043.07.074.102.304.086.063-.008.149.035.192.09.062.07.062.098.004.098-.043 0-.063.027-.043.058.023.035.007.082-.028.106a.079.079 0 0 0-.031.105c.078.129-.086.059-.207-.09-.07-.082-.082-.109-.031-.062.125.109.203.101.203-.016 0-.078-.36-.234-.551-.234-.109 0 .219.515.348.55.074.02.133.075.129.125-.004.067-.012.067-.039.004-.039-.101-.157-.109-.157-.011 0 .156.289.722.348.687.035-.023.059.016.047.082-.008.071.066.391.172.711.133.422.203.563.25.5.043-.062.051-.051.019.043-.074.223-.07.27.008.254.047-.008.063.039.043.117-.023.094-.004.129.082.129.086 0 .098.024.039.09-.043.055-.047.113-.008.148.032.036.106.243.164.461.055.219.141.43.188.465.043.039.086.16.09.27.011.289.074.613.133.711.027.043.054.14.066.214.008.079.078.477.156.895.078.414.133.766.121.773-.011.012-.453.036-.984.055-.531.024-1.184.074-1.453.113-.27.043-.547.063-.617.043-.071-.015-.145-.004-.164.028-.055.093-.293.074-.297-.024 0-.054-.028-.047-.082.02a.23.23 0 0 1-.2.082c-.093-.024-.117.019-.117.211 0 .16.028.226.086.207.043-.016.438-.043.867-.067.434-.015.813-.046.836-.062.028-.016.375-.051.778-.074.402-.024 1.261-.078 1.91-.121.648-.043 1.156-.063 1.129-.039-.047.039-1.469.277-2.36.394-.652.082-1.433.262-1.48.332-.067.109.148.113 1 .027.473-.05.937-.089 1.027-.082a.766.766 0 0 0 .285-.043c.094-.039.118-.015.118.122 0 .089.015.222.035.289.015.066-.016.031-.071-.079l-.105-.199.074.399-.137-.16c-.074-.086-.144-.149-.156-.133a1.596 1.596 0 0 0-.094.16c-.046.09-.191.156-.457.211l-.386.074.429.012c.239.008.786.019 1.219.031.43.012.797.035.813.051.027.027-.219.097-.965.285-.064.015-.13.024-.196.027-.066.004-.078.028-.031.075.039.039.344.078.676.085.941.024.934.204-.012.274-1.172.09-1.769.191-1.769.301.004.261.101.304.515.218.61-.125.703-.113.664.086-.027.149-.011.164.11.129.137-.043.137-.039.015.055-.105.082-.128.203-.148.922-.039 1.402-.125 2.183-.395 3.566-.05.24-.094.481-.132.723-.051.32-.067.371-.219.961-.383 1.453-.563 2.097-.613 2.191a7.37 7.37 0 0 0-.227.571 9.299 9.299 0 0 1-.238.585c-.039.067-.051.149-.028.18.02.035.008.067-.027.067-.031 0-.078.074-.101.168-.024.089-.075.164-.114.164-.039 0-.051.031-.027.066.023.035.008.066-.035.066-.043 0-.063.047-.039.106.023.058-.02.183-.098.281-.078.106-.109.188-.066.199.039.012.074.055.074.09 0 .035-.028.051-.055.031-.031-.015-.098-.003-.148.028-.078.047-.082.078-.016.14.109.11.106.196-.004.153-.051-.02-.133.062-.199.203-.059.129-.106.242-.094.25.008.012-.051.105-.129.219-.115.182-.222.37-.32.562-.219.442-.242.481-1.16 1.867-.719 1.09-.938 1.371-.938 1.192 0-.047-.019-.067-.043-.043-.023.023-.007.086.036.136.097.122.019.329-.106.282-.051-.02-.078-.012-.059.019.02.032-.023.114-.097.176-.071.066-.129.102-.129.078 0-.043-.098.055-1.031 1.051-.332.348-.625.633-.657.633-.027 0-.035-.028-.011-.063.019-.035-.008-.152-.063-.261a.93.93 0 0 1-.101-.254c0-.028.16-.219.347-.418.196-.203.438-.481.539-.618.106-.136.219-.23.25-.21.032.019.059.011.063-.016 0-.051.453-.746 1.129-1.742.133-.196.269-.328.32-.309.047.016.066 0 .047-.031-.024-.035.09-.27.25-.516.59-.914 1.246-2.125 1.246-2.297 0-.046-.176.231-.391.614-.668 1.199-1.671 2.722-2.054 3.117-.047.047-.082.109-.082.133 0 .027-.168.218-.368.429-.203.207-.367.399-.367.418 0 .035-.25.317-.847.957-.157.164-.286.258-.286.207 0-.078-.23-.625-.394-.933-.031-.059-.109-.094-.18-.082-.097.015-.101.008-.027-.043.078-.055.051-.16-.156-.621-.278-.614-1.477-2.961-1.696-3.321-.078-.125-.14-.285-.14-.351 0-.223.164-.07.297.277.074.192.152.344.175.344.02 0 .075-.074.114-.164.043-.094.105-.168.144-.168.039 0 .035-.067-.012-.172-.074-.16-.085-.164-.167-.055-.083.114-.086.114-.086 0 0-.078-.032-.105-.098-.082-.074.028-.102-.008-.102-.129 0-.093.032-.148.067-.129.07.043.152-.214.121-.371-.016-.062.031-.089.152-.082.121.008.199-.035.246-.132.039-.079.075-.11.075-.063.007.117.136.106.136-.012 0-.07.055-.05.176.063.133.125.203.148.297.097.164-.085.539-.656.488-.738-.023-.039.024-.086.102-.105.109-.028.136-.078.117-.211-.016-.098-.012-.137.004-.09.039.117.129.102.172-.035.019-.063.16-.34.308-.613.149-.274.254-.536.239-.586-.02-.047-.004-.071.031-.047.035.023.086-.016.105-.082.024-.067.114-.293.196-.508.113-.289.129-.375.058-.352-.054.024-.094-.004-.094-.062 0-.071.04-.09.122-.067.105.036.156-.05.339-.558.118-.328.204-.668.188-.75l-.027-.153-.075.168c-.039.09-.078.122-.078.067-.004-.09-.012-.09-.07 0-.043.066-.067.07-.067.015 0-.046-.046-.082-.101-.082-.125 0-.125-.132 0-.375a.88.88 0 0 0 .101-.304c0-.188.196-.871.266-.946.102-.097.086-.39-.016-.328-.066.035-.066.028-.007-.047.043-.058.05-.152.019-.23-.086-.211-.066-.281.031-.106.086.153.09.149.172-.199a1.96 1.96 0 0 1 .215-.543c.07-.101.11-.211.09-.246-.023-.031-.008-.082.027-.101.11-.067.082-.481-.031-.528-.055-.019-.098-.074-.094-.121.004-.062.012-.062.036-.008.042.106.222.036.222-.089 0-.051.051-.188.11-.305.078-.145.085-.219.035-.235-.094-.031-.102-.214-.008-.214.101 0 .078-.356-.035-.504-.082-.11-.106-.114-.164-.028-.055.082-.075.086-.149.004-.07-.074-.07-.082.008-.035.074.039.082.024.047-.074a1.119 1.119 0 0 1-.055-.16c-.011-.149.035-.199.18-.199.141 0 .168.031.168.191 0 .277.168.309.273.051.047-.117.16-.278.25-.36l.16-.148h-.367c-.203 0-.508.016-.675.039-.262.035-.305.062-.274.164.027.09 0 .133-.113.156-.715.131-1.433.247-2.153.348-.402.031-1.96.437-1.96.508 0 .035.035.047.082.031.335-.125.789-.195.953-.148l.195.05-.199.055c-.489.129-1.895.297-1.922.231-.02-.04-.035-.02-.035.042-.004.067.023.118.058.118.039 0 .067.043.067.097 0 .063-.067.094-.192.09-.136-.004-.183-.035-.16-.097.043-.11-.133-.11-.91.003-.422.059-.527.094-.418.129.082.032.148.082.148.114 0 .035-.039.046-.085.027-.047-.02-.168-.004-.262.031-.098.035-.184.039-.195.012-.016-.047-.84.043-.907.098-.023.019.578 1.753.852 2.457.101.257.199.589.222.742.024.152.129.48.239.73.14.336.176.489.129.574-.043.086-.039.114.015.102.043-.008.09.02.11.066.023.067-.004.071-.145.008-.094-.043-.172-.121-.172-.172 0-.097-.496-1.129-.609-1.265-.039-.047-.102-.063-.141-.039-.039.023-.047.008-.019-.035.027-.043-.055-.266-.18-.493-.504-.918-.66-1.187-.684-1.164-.015.012.106.352.262.75.445 1.117.715 1.731 1.387 3.16.148.309.324.715.391.899.066.18.125.293.125.25.003-.195.117-.059.296.363.207.481 1.063 2.313 1.161 2.481a.23.23 0 0 0 .183.101c.07.004.18.031.242.059.114.051.114.058.004.14-.066.047-.14.075-.168.055-.113-.07.106.551.227.645.07.05 1.305 2.687 1.355 2.886.024.094.071.172.098.172.031 0 .078.067.102.149.027.086.363.808.746 1.617.379.805.875 1.898 1.093 2.426.223.531.469 1.101.551 1.265.266.532.781 1.871.742 1.91-.058.063-.039.098-.691-1.214-.602-1.2-.813-1.524-.813-1.239 0 .145.211.746.34.973.074.129.074.129-.109.008-.414-.274-1.035-1.121-1.336-1.836-.258-.617-1.039-2.164-1.188-2.36-.171-.23-.121.016.137.676.137.336.278.61.317.602.039-.008.074.074.078.183.008.11.191.637.41 1.164.219.532.484 1.188.59 1.461.105.27.269.618.371.774.105.172.164.34.144.422-.019.074.039.273.133.453.094.176.184.457.203.621.02.168.055.363.082.434.117.328-.129-.063-.472-.758-.286-.571-.368-.797-.336-.934.027-.117.019-.144-.02-.082-.035.051-.097.07-.137.043-.089-.055-.355-.562-.543-1.051-.16-.402-.46-.937-.503-.894-.016.015.027.176.097.351.168.434.344 1.227.274 1.227-.035 0-.121-.113-.2-.25-.097-.176-.125-.199-.097-.082.023.09.058.465.074.828l.035.668-.137-.156c-.179-.203-1.226-2.274-1.175-2.325.054-.05.074-.027.308.387.274.481.192.211-.238-.801-.574-1.351-.773-1.754-.836-1.656-.031.051-.019.129.027.184.063.082.059.09-.035.054-.101-.035-.101-.019-.019.215.05.141.183.473.3.739l.211.48-.187.156c-.106.086-.231.157-.277.157-.047.003-.102.046-.122.101-.023.055-.066.086-.093.066-.032-.019-.188.055-.352.168-.164.11-.32.2-.351.2-.079 0-.989.547-1.012.605-.012.031-.067.035-.117.016-.055-.02-.098-.004-.098.039 0 .039-.074.07-.164.07-.094 0-.168.031-.168.07 0 .036.035.067.082.067.18 0-.078.148-.289.164-.121.012-.23.055-.246.094-.012.043-.047.058-.074.043-.055-.036-1.043.347-1.469.562-.238.121-1.582.578-1.856.633a.683.683 0 0 0-.25.105c-.05.043-.113.063-.136.039-.024-.023-.078-.011-.121.024s-.203.074-.356.082c-.152.008-.273.035-.273.059 0 .027-.067.027-.149.007-.105-.027-.133-.011-.105.055.023.066-.024.098-.172.109-.17.016-.34.038-.508.067-.25.047-.297.078-.277.187.012.071 0 .11-.028.082-.027-.027-.097-.011-.156.032-.094.074-.094.07-.015-.032.05-.066.066-.121.035-.125-.153-.019-.395.028-.43.082-.023.036-.148.079-.281.094-.137.02-.352.094-.481.164-.129.074-.281.133-.332.133-.148 0-.117.102.051.184.113.054.121.074.039.078-.062.004-.16-.043-.215-.098-.125-.125-.543-.07-.597.074-.024.051-.067.094-.106.094-.035 0-.047-.047-.023-.105.031-.086.015-.094-.086-.043-.336.171-.637.234-1.137.242-.297.004-.527-.016-.512-.043.02-.028.075-.051.121-.051.114 0 .176-.164.125-.316-.031-.094-.019-.09.067.019.113.137.14.113.07-.062-.058-.153-.316-.141-.265.011.035.102.031.106-.043.012-.063-.078-.192-.101-.497-.098-.23.008-.437.032-.46.055-.028.027-.079.02-.122-.015-.128-.11-.382-.004-.347.136.019.078 0 .125-.063.125-.066 0-.082-.047-.05-.168.031-.133.019-.16-.067-.125-.058.024-.109.067-.109.094 0 .027-.063.066-.137.09-.078.019-.121.066-.098.105.024.039 0 .071-.054.071-.055 0-.11.023-.121.054-.012.032-.118.032-.239 0-.258-.066-.226-.164.071-.242.117-.027.214-.098.214-.148 0-.071-.101-.098-.406-.102-.222-.004-.437-.027-.476-.051-.043-.023-.094-.015-.118.024-.023.039-.078.047-.121.019-.043-.027-.187-.054-.32-.058a.927.927 0 0 1-.309-.051c-.097-.063-.281.019-.281.125 0 .055-.051.07-.144.047-.106-.028-.129-.016-.086.051.039.066.023.078-.059.046-.058-.027-.16-.066-.219-.089-.082-.036-.097-.024-.058.043.039.058.027.07-.024.039-.101-.063.024-.239.164-.239.051 0 .094-.031.094-.066s-.074-.066-.168-.066c-.09 0-.164.039-.168.082 0 .054-.019.05-.062-.016-.055-.082-.067-.078-.071.031-.003.125-.011.121-.066-.015-.031-.082-.082-.153-.113-.153-.598-.058-.809-.011-.567.129.063.039.086.07.051.07-.133.004-.25-.117-.199-.199.039-.062.008-.07-.125-.039-.106.028-.176.016-.176-.023a.071.071 0 0 0-.07-.067c-.039 0-.051.028-.031.067.023.035.011.066-.028.066s-.07-.043-.07-.094c0-.089-.192-.171-.418-.171-.078 0-.106.031-.082.082.023.046 0 .031-.051-.036-.055-.062-.144-.113-.203-.113-.059 0-.121-.031-.145-.066-.089-.145-.226-.063-.246.148-.015.172-.05.219-.172.223-.121.008-.132-.012-.074-.082.098-.117.02-.207-.09-.102-.117.117-.242.094-.23-.051.008-.105.047-.125.211-.097.109.015.164.008.117-.012a.161.161 0 0 1-.082-.129c0-.113-.184-.18-.223-.078-.019.047-.035.031-.039-.031-.004-.125-.222-.235-.257-.125-.036.097-.223.086-.504-.031-.133-.055-.243-.086-.243-.071 0 .02-.152-.023-.339-.097l-.34-.137.031.168c.039.199.035.199-.223.066-.215-.113-.324-.082-.328.09 0 .074-.015.086-.047.039a.319.319 0 0 0-.183-.109c-.102-.028-.086-.035.054-.043.11-.004.168-.035.145-.074-.023-.036-.066-.051-.098-.032-.035.02-.078.004-.101-.035-.024-.035-.102-.066-.176-.066-.102 0-.125.031-.094.113.035.098.028.098-.094-.012-.074-.066-.16-.097-.183-.066-.031.027-.016.062.031.082.113.039.106.129-.012.172-.066.027-.086.008-.058-.059.019-.054 0-.097-.047-.097-.043 0-.063-.043-.043-.094.039-.102-.379-.34-.484-.274-.032.02-.075 0-.094-.046-.028-.067-.047-.063-.098.007-.051.075-.078.067-.14-.035-.059-.09-.09-.101-.118-.035-.027.066-.066.063-.195-.02-.172-.113-.379-.07-.215.047.071.047.063.055-.023.028-.063-.02-.133-.008-.156.027-.02.035-.075.063-.118.063s-.007-.059.082-.125c.114-.086.145-.161.114-.247-.039-.097-.063-.105-.106-.035-.043.075-.058.075-.094 0-.031-.074-.05-.074-.082-.008-.054.118-.179.102-.136-.019.023-.055.004-.102-.043-.102a1.285 1.285 0 0 1-.395-.097c-.07-.028-.117-.016-.117.027 0 .117-.117.086-.262-.066-.125-.137-.136-.137-.25-.028-.078.078-.125.094-.14.039-.02-.058-.051-.058-.118 0-.074.059-.082.043-.054-.082.019-.086.047-.214.058-.289a.56.56 0 0 1 .032-.133.795.795 0 0 0 .043-.199c.031-.191.027-.195-.071-.066a.498.498 0 0 0-.101.223c0 .082-.414 1.199-.672 1.804-.149.36-.168.184-.031-.293.218-.742.511-2.031.476-2.09-.023-.031-.113-.046-.207-.027-.125.023-.168.074-.168.191 0 .086-.031.157-.07.157-.039 0-.047-.032-.024-.075.032-.05.02-.058-.031-.027-.058.035-.058.074-.012.133.086.102.024.176-.101.125-.051-.02-.094-.004-.094.031 0 .039.035.082.082.098.059.019.027.109-.098.293-.101.144-.183.308-.183.367a.168.168 0 0 1-.102.145c-.054.019-.097.078-.097.128 0 .137-.403.915-.469.915-.035 0-.07-.309-.078-.684-.012-.375-.047-.684-.074-.684-.071 0-.379.743-.379.903a.288.288 0 0 1-.098.195c-.055.047-.133.195-.168.332s-.262.648-.504 1.141c-.379.781-.43.855-.402.605Zm10.371-1.758c-.043-.043-.082-.039-.109.008-.028.039-.016.074.023.074s.074.051.078.118c.008.101.012.101.039-.008.02-.071.004-.153-.031-.192Zm10.898.215c0-.039-.05-.066-.117-.066-.098 0-.101.011-.015.066.125.082.132.082.132 0Zm.434-.066c.023-.039-.031-.067-.125-.067-.09 0-.184.028-.207.067-.024.035.031.066.125.066.09 0 .183-.031.207-.066Zm.598-.133c.023-.039 0-.066-.055-.066-.059 0-.121.027-.145.066-.019.035.004.066.059.066.055 0 .121-.031.141-.066Zm1.531-.445c.937-.34.937-.34.89-.387-.015-.016-.285.058-.593.172-.309.109-.696.246-.86.297-.285.093-.5.23-.363.23.031 0 .449-.141.926-.312Zm-14.531.074c-.122-.051-.258-.094-.301-.09-.106.008.301.187.426.187.054 0 0-.042-.125-.097Zm15.707-.578c-.071-.071-.211-.016-.211.082 0 .027.062.039.14.019.086-.023.114-.058.071-.101Zm.824-.016c.129-.051.23-.109.23-.129 0-.031-.468.149-.527.199-.055.055.074.028.297-.07Zm-5.078-.242c.191-.039.379-.102.414-.133.094-.086-.067-.066-.598.07-.508.137-.383.18.184.063Zm4.98-.027c.106-.055.195-.118.195-.133 0-.032-.39.148-.46.211-.067.058.085.015.265-.078Zm1.016-.024c.691-.312.887-.41 1.043-.535.117-.098.136-.137.062-.137a.292.292 0 0 0-.183.082c-.067.067-.098.063-.145-.015-.051-.082-.066-.082-.105.015-.024.067-.082.117-.129.117s-.102.043-.121.098c-.024.055-.227.188-.457.293-.231.109-.379.199-.332.203.046 0 .211-.051.367-.121Zm-4.578-.301c.074-.054.105-.121.074-.148-.031-.031-.09-.008-.137.051a.416.416 0 0 1-.242.14l-.164.032.172.011a.55.55 0 0 0 .297-.086Zm1.039-.281c.781-.269.922-.336.922-.43 0-.035-.067-.019-.149.032-.086.05-.472.191-.867.312-.395.117-.715.242-.715.274 0 .086.078.07.809-.188Zm-21.098-1.18c.074-.285.117-.535.098-.558-.02-.02-.051.008-.067.058-.25.813-.371 1.266-.371 1.368.004.187.188-.278.34-.868Zm2.152-1.007.039-.266-.101.227c-.117.25-.371 1.207-.363 1.347.011.129.375-.996.425-1.308Zm26.09.484c.094-.106-.711.34-.832.461-.054.051.094-.016.332-.149.239-.132.465-.273.5-.312Zm-14.14-.188c0-.035-.039-.062-.086-.066-.063 0-.063-.012.004-.055.046-.031.093-.121.097-.199.016-.18.117-.191.117-.012 0 .09.032.118.098.09.074-.023.09-.008.063.071-.032.078-.004.109.097.109.078 0 .141.023.141.051 0 .047.355.027 1.598-.086 1.41-.125 3.539-.633 4.992-1.184.504-.191 2.316-1.031 2.461-1.14.054-.043.234-.149.398-.235.445-.238 1.813-1.164 1.957-1.324.125-.141.125-.148-.031-.457a2.944 2.944 0 0 0-.195-.352.475.475 0 0 1-.055-.168c-.047-.312-.067-.371-.414-1.132a3.485 3.485 0 0 1-.168-.465c-.051-.215-.281-.637-.391-.711-.047-.035-.043-.051.012-.051.133-.004.098-.176-.051-.277a.512.512 0 0 1-.172-.289.855.855 0 0 0-.086-.266c-.031-.035-.117-.234-.191-.434a65.175 65.175 0 0 0-.414-1.031 85.34 85.34 0 0 1-.34-.832l-.062-.168.14.168c.156.184.16.203-.101-.555-.297-.855-.469-1.253-.532-1.246-.031.008-.211-.375-.398-.847-.184-.473-.387-.934-.449-1.02l-.114-.16-.003.258c-.004.144.082.453.199.719.207.468.218.656.039.656-.098 0-.66-1.094-1.141-2.199-.191-.446-.965-2.145-.992-2.172-.012-.016-.875.093-1.07.136-.075.012-.371.063-.664.11-.293.043-.7.125-.903.18-.199.05-.468.121-.593.152-.129.031-.243.082-.254.113-.008.031-.114.051-.235.043-.117-.012-.574.059-1.011.149-.442.093-.93.183-1.09.203-.16.019-.465.09-.68.16-.215.066-.5.14-.633.168-.133.023-.211.062-.172.086.039.023-.054.047-.207.047-.156 0-.59.066-.968.144-.379.082-.739.149-.801.145-.184-.008.269-.184.605-.231.176-.023.336-.07.356-.101.054-.094.015-.086-1.754.265-.652.132-1.306.257-1.961.375-.27.039-.336.078-.43.254-.113.219-1.223 3.403-1.406 4.035-.059.2-.125.383-.156.403-.071.047-.27.847-.235.949.016.043-.011.109-.058.144-.047.036-.094.141-.106.235-.012.09-.043.183-.07.203-.027.019-.172.394-.324.832-.149.437-.317.891-.375 1.012-.055.117-.082.281-.063.359.02.078-.015.25-.082.383-.116.25-.218.507-.305.769-.765 2.246-.785 2.317-.718 2.422.105.168 2.097 1.149 3.113 1.528 1.504.562 2.852.918 4.559 1.199.238.043.808.094 1.265.117.457.023.836.047.844.051.059.047.555.023.555-.028Zm7.543-1.976c-.278-.375-.485-.883-.36-.883.039 0 .141.156.227.352.215.476.308.714.285.714a.986.986 0 0 1-.152-.183Zm-14.266 1.851c0-.062-.348-.144-.398-.093-.016.015.003.05.046.078.114.07.352.078.352.015Zm-.801-.261c0-.032-.207-.133-.461-.223l-.461-.168.133.176c.074.095.17.169.281.215.215.066.508.062.508 0Zm-1.918-.742c-.414-.219-.793-.399-.844-.399-.148 0-.039.184.157.262.097.039.402.176.676.301.816.371.824.265.011-.164Zm29.047-2.446c-.066-.066-.125.035-.066.125.039.071.054.071.078 0 .015-.047.012-.101-.012-.125Zm-.699-.765c.125-.231-.106-.043-.332.269l-.223.313.246-.235a2.08 2.08 0 0 0 .309-.347Zm.379-.414c.082-.094.144-.2.144-.235 0-.039.028-.066.059-.066.031 0 .09-.082.137-.184.062-.144.023-.121-.192.117-.304.34-.433.532-.347.532.031 0 .121-.075.199-.164Zm-38.891-.051c-.07-.082-.265-.301-.43-.485a4.987 4.987 0 0 1-.425-.515c-.071-.102-.137-.172-.157-.153-.039.039.329.5.778.985.301.324.461.437.234.168Zm5.668-.645c.024-.133.11-.433.192-.672.082-.238.152-.519.156-.629 0-.113.14-.574.304-1.031.165-.453.286-.847.27-.875-.016-.027-.004-.058.027-.07.067-.024.661-1.801.688-2.051a.512.512 0 0 0-.043-.262c-.039-.062-.031-.078.023-.043.094.059.399-.582.715-1.523.246-.723.289-1.074.125-1.012-.055.024-.125-.011-.156-.066-.098-.176-.641-.082-.883.148l-.191.188v-.434l-.285.047a7.81 7.81 0 0 1-.481.063c-.531.05-2.035.246-2.351.308-.2.035-.411.121-.473.184-.125.125-.406.078-.406-.067 0-.054-.086-.066-.282-.039-.156.024-.64.086-1.082.145l-1.082.137c-.152.019-.281.062-.281.093 0 .032.102.278.227.547.472 1.028.832 1.711 1.257 2.41.247.399.446.735.446.75 0 .067.461.743.625.922.101.106.246.196.32.196.164.003.332.238.203.285-.133.047-.101.117.215.457.164.179.301.3.301.273 0-.027.039-.015.09.031.054.051.082.164.062.286-.027.164-.015.183.067.113.082-.067.132-.039.296.168.2.254.215.281.219.437 0 .047.047.024.106-.05.101-.129.105-.129.062.05-.031.137-.015.184.063.184.054 0 .097.039.097.086 0 .047.078.152.168.23.09.082.168.133.168.114 0-.016.059.019.133.082.07.062.133.175.133.25.004.132.004.132.101.007.051-.07.114-.238.137-.367Zm33.961-.355c.117-.172.199-.317.18-.317-.043 0-.438.578-.438.641 0 .059-.004.062.258-.324Zm-31.992-.094a.7.7 0 0 0 .16-.309c.035-.171.016-.23-.137-.363-.211-.18-.367-.172-.465.02a.255.255 0 0 1-.203.132c-.097 0-.136.051-.152.208-.039.41.469.609.797.312Zm28.738-.316c0-.051.137-.254.305-.45.367-.425.539-.73.199-.355-.258.285-.637.801-.637.863 0 .02.032.035.067.035s.066-.043.066-.093Zm-38.019-.754c-.188-.321-.375-.606-.411-.629-.039-.028-.046-.051-.019-.051.023 0-.047-.16-.164-.352-.129-.22-.253-.442-.371-.668-.153-.296-.324-.39-.305-.164.004.055.309.559.676 1.122.367.566.707 1.105.75 1.207.047.097.105.164.137.148.027-.02-.102-.297-.293-.613Zm8.672.019c0-.105-.122-.203-.18-.144-.055.054.031.242.109.242.039 0 .071-.043.071-.098Zm23.226-1.269c-.125-.321-.816-1.793-.906-1.926-.051-.07-.094-.098-.094-.055 0 .102.977 2.149 1.027 2.149.02 0 .008-.075-.027-.168Zm7.887-1.496c.226-.391.426-.778.449-.856.063-.25-.059-.152-.223.176-.089.172-.316.601-.511.957-.344.633-.453.898-.239.594.059-.086.293-.477.524-.871Zm4.058.738c-.019-.07-.007-.145.032-.168.039-.024.066-.109.062-.191-.004-.11-.031-.083-.129.121-.121.261-.117.367.012.367.035 0 .047-.059.023-.129Zm-45.183-.238c.031-.125-.024-.274-.235-.61-.152-.242-.261-.484-.242-.535.024-.055.008-.074-.031-.051-.039.024-.141-.004-.23-.062-.09-.063-.165-.09-.165-.067 0 .086.766 1.489.813 1.493.027 0 .066-.075.09-.168Zm44.402-.125c-.027-.207-.25-.227-.25-.024 0 .195.047.25.176.203.051-.019.086-.101.074-.179Zm1.363-.329c.219-.226.219-.218.039-.265-.101-.027-.132-.074-.105-.176.031-.113.016-.125-.086-.066-.094.047-.141.035-.199-.051-.07-.113-.074-.113-.039-.004.019.066.015.117-.012.117s-.051.137-.051.301c.004.164.028.297.051.297.031.004.055.07.055.152.004.145.008.145.086.02.043-.075.16-.219.261-.325Zm-41.195-.191c-.109-.23-.258-.496-.336-.586-.074-.094 0 .11.172.445.352.684.473.79.164.141Zm-.391.18c-.023-.055-.07-.102-.109-.102-.035 0-.031.043.02.102.043.054.089.097.105.097.012 0 .004-.043-.016-.097Zm41.836-.961c0-.106.059-.332.133-.504.199-.469.153-.586-.058-.149-.106.208-.211.36-.243.333-.031-.028-.031-.008 0 .042a.607.607 0 0 1 .047.282c0 .105.024.191.059.191.031 0 .062-.086.062-.195Zm-4.211-.453c.075-.176.204-.481.286-.684.078-.199.199-.488.269-.641.129-.273.176-.636.07-.519-.031.035-.171.363-.308.727-.141.367-.324.808-.41.98-.164.332-.192.453-.102.453.031 0 .117-.144.195-.316Zm-42.843-.254a.678.678 0 0 0-.067-.168c-.054-.098-.047-.141.024-.164.07-.031.043-.133-.137-.465-.203-.387-.418-.566-.418-.352 0 .043-.047.024-.101-.05-.075-.098-.071-.047.023.203.066.183.144.39.168.461.027.07.062.109.078.093.02-.019-.012-.144-.07-.285-.059-.136-.09-.265-.071-.285.032-.031.075.059.207.441.02.051 0 .133-.039.18a.274.274 0 0 0-.031.223c.035.113.098.144.387.195.027.008.047-.008.047-.027Zm35.164-.699c-.043-.262-.778-2.086-1.227-3.039-.324-.696-.461-.891-.461-.657 0 .09.528 1.332 1.27 3 .18.403.328.77.328.817 0 .047.027.082.059.082.035 0 .046-.09.031-.203Zm-19.328-.344c.043-.121.121-.309.172-.418.05-.11.109-.274.128-.367.02-.09.125-.418.235-.731.109-.312.199-.617.199-.683.004-.161-.109-.145-.203.031-.141.262-.789 2.265-.754 2.324.066.109.145.059.223-.156Zm-14.625-.625c-.028-.227-.145-.32-.145-.117 0 .089-.055.101-.301.074-.226-.024-.3-.012-.3.058 0 .051.031.094.07.102.035.004.094.016.133.023.035.008.125.02.199.028.07.004.133.051.133.105 0 .082.023.086.117.028.086-.055.113-.137.094-.301Zm42.429-.199c-.023-.024 0-.082.047-.133.094-.09.071-.36-.031-.36-.031 0-.074.09-.098.2-.043.187-.004.332.082.332.024 0 .024-.016 0-.039Zm-35.386-.454c0-.062-.2-.093-.235-.035-.023.035.024.063.098.063.074 0 .137-.012.137-.028Zm35.574-.242c.023-.078.023-.156.004-.179-.024-.02-.039.011-.039.074 0 .058-.032.109-.067.109a.067.067 0 0 0-.066.066v.001c0 .121.121.07.168-.071Zm-12.82-1.832c-.262-.601-.52-1.125-.571-1.168-.129-.105-.121-.078.203.649.161.363.313.761.34.886.028.125.141.422.254.665.184.398.207.421.231.25.015-.129-.129-.536-.457-1.282Zm13.046 1.09c.043-.152.098-.426.118-.609l.035-.328-.137.129c-.078.07-.141.187-.141.257 0 .11-.023.309-.078.61-.054.32.102.273.203-.059Zm-39.937-1.187c.691-.082 1.074-.18 1.074-.266 0-.09-.137-.082-1.18.066-.503.075-1.015.141-1.136.149-.121.012-.25.055-.293.101-.078.098.488.079 1.535-.05Zm41.168-.739c.125-.843.187-1.75.105-1.492-.058.18-.269 1.813-.269 2.074 0 .282.082-.011.164-.582Zm-11.875.539c0-.105-.129-.328-.192-.328-.027 0-.039.09-.023.199.027.18.215.293.215.129Zm-27.215-.086c.207-.027.328-.093.328-.183 0-.059-.383-.043-.832.031a2.047 2.047 0 0 1-.281.031c-.086.008-.152.055-.152.114 0 .097.218.097.937.007Zm17.695-.085c.297-.086.297-.086-.199-.051-.297.023-.539.078-.598.136-.085.082-.062.09.2.047.164-.023.433-.086.597-.132Zm-15.191-.133c.078-.02.156-.075.176-.121.031-.082-.172-.082-1.137.004-.32.027-.418.058-.418.14 0 .09.082.098.617.059.336-.024.68-.059.762-.082Zm15.973-.067c-.024-.019-.079-.023-.125-.004-.055.024-.039.036.039.039.07.004.109-.011.086-.035Zm.351-.066c0-.016-.062-.024-.137-.024-.078 0-.121.028-.097.063.035.059.234.023.234-.039Zm.5-.024c.125-.054.125-.058-.015-.062-.079-.004-.165.023-.184.062-.051.079.016.079.199 0Zm.598-.164c.183-.05.273-.093.199-.093-.141 0-.711.172-.598.179.036.004.215-.035.399-.086Zm.832-.171c0-.04-.074-.051-.184-.024-.261.063-.269.094-.027.094.117 0 .211-.031.211-.07Zm1.066-.165c.449-.093.824-.168.84-.168.012 0 .024-.027.024-.062 0-.039-.075-.039-.184-.008-.102.031-.488.11-.863.176-.375.062-.684.141-.684.172 0 .07-.074.082.867-.11Zm-16.894-.238c.058-.031.336-.062.613-.07.277-.004.508-.031.508-.059 0-.058-.86-.023-1.711.067-.227.028-.455.05-.684.066-.039 0-.066.035-.066.074 0 .09 1.152.02 1.34-.078Zm1.519-.168c0-.015-.074-.027-.168-.027-.09 0-.164.027-.164.058 0 .032.074.043.164.024.094-.016.168-.043.168-.055Zm35.34-1.156c0-.039-.016-.07-.031-.07-.016 0-.047.031-.07.07-.024.035-.008.062.031.062s.07-.027.07-.062Zm.106-.57c-.059-.059-.106-.082-.106-.047 0 .074.149.222.184.183.015-.015-.02-.078-.078-.136Zm-27.59-.266c.343-.059.84-.133 1.097-.168.414-.051.731-.102 1.395-.227.109-.019.293-.046.402-.062.231-.031.563-.152.563-.207 0-.02-.11-.02-.246 0-.141.016-.387.047-.551.062-.449.047-1.262.165-1.586.231-.203.043-.277.035-.258-.02.035-.089-.586-.066-.789.032a.365.365 0 0 1-.281.011c-.129-.047-.09-.066.25-.144.422-.094.453-.121.316-.274-.043-.05-.015-.039.063.028.14.117.41.121.996.015.066-.015.32-.047.558-.07.723-.078.786-.09.86-.133.039-.023.211-.058.387-.078.426-.042.851-.098 1.273-.168.051-.012.105.012.121.059s-.023.086-.09.09c-.117.003-.117.003-.004.05.09.036.024.078-.265.172-.364.121-.688.297-.387.215.227-.062 1.16-.246 1.215-.238a.135.135 0 0 0 .082-.004c.152-.063.43-.063.469 0 .031.051.058.043.086-.031.023-.055.011-.106-.024-.106s-.062-.027-.062-.066c0-.035.074-.067.164-.067.175 0 1.746-.226 2.195-.32l.269-.055-.183-.086c-.184-.089-.277-.304-.551-1.3-.101-.364-.32-.969-1.656-4.559-.485-1.305-.836-2.195-1.074-2.703a6.286 6.286 0 0 1-.297-.867c-.266-.985-1.16-3.567-1.254-3.602-.106-.043-.195.078-.246.317-.02.089-.067.257-.106.367-.05.14-.082.285-.097.433a3.456 3.456 0 0 1-.161.625c-.074.215-.117.411-.097.426.051.055.219-.195.305-.453.136-.426.21-.398.16.066-.024.239-.067.461-.094.497a4.92 4.92 0 0 0-.238.535 37.576 37.576 0 0 1-.821 1.847c-.215.457-.257.504-.328.403-.117-.157-.105-.34.047-.668.086-.192.172-.285.254-.285.105 0 .125-.051.129-.309.004-.207-.016-.281-.055-.219-.086.141-.074.028.047-.383.129-.453.07-.554-.066-.109-.09.297-.285.773-.629 1.57-.053.114-.101.23-.145.348a.915.915 0 0 1-.031.117c-.113.344-.434 1.418-.434 1.461 0 .027.036.055.082.055.098 0 .383-.516.383-.692 0-.097.02-.109.09-.05.078.066.074.132-.023.425-.067.192-.231.723-.368 1.18a92.05 92.05 0 0 1-.378 1.266c-.145.457-.426 1.062-.497 1.062-.043 0 .032-.738.09-.918.028-.078.02-.09-.027-.047-.082.078-.484 1.332-.484 1.508 0 .063-.024.125-.051.141-.028.015-.012.019.035.008.047-.012.082.043.086.129 0 .105.016.121.055.054.089-.137.14.055.062.211a.314.314 0 0 0-.027.219c.039.098-.176.254-.25.18-.024-.024-.043.019-.043.097s.031.16.066.184c.086.051.086.32.004.402a.431.431 0 0 0-.09.195 2.139 2.139 0 0 1-.062.235c-.042.119-.078.24-.106.363a7.077 7.077 0 0 1-.304.832c-.129.313-.239.617-.239.68 0 .062-.054.129-.121.148-.062.024-.125.11-.129.192-.011.152-.008.152.5.101.282-.027.797-.097 1.149-.156Zm-1.199-.234c0-.063.144-.106.515-.149.242-.027.258-.012.121.121-.062.063-.101.071-.121.024-.015-.051-.094-.055-.269-.004-.141.039-.246.043-.246.008Zm.843-4.016c-.019-.051-.023-.105-.008-.121.055-.059.426.027.391.09-.023.031-.066.043-.101.019-.04-.023-.106-.008-.157.035-.066.055-.097.047-.125-.023Zm1.489-4.848c-.004-.175.007-.316.023-.316.012 0 .074.078.141.176.105.164.105.172.004.133-.067-.024-.094-.016-.071.023.02.035.008.117-.027.184-.055.089-.07.046-.07-.2Zm19.796 7.871a34.527 34.527 0 0 0 1.946-.335c.011 0-.02-.059-.063-.129-.051-.079-.109-.11-.152-.075-.117.102-.766.196-.813.118-.023-.043-.07-.032-.113.031-.047.058-.473.18-1.07.301-1.141.234-1.012.277.265.089Zm-22.527-.16c0-.015-.055-.066-.117-.117-.106-.082-.109-.082-.027.024.089.113.144.148.144.093Zm27.789-1.172c0-.078-.023-.109-.058-.074a.108.108 0 0 0-.016.133c.062.102.074.094.074-.059Zm-2.234-.855c0-.086-.078-.145-.145-.106-.066.043-.008.161.082.161.035 0 .063-.024.063-.055Zm-27.727-3.574c.024-.063.012-.086-.023-.063a.13.13 0 0 0-.067.102c0 .097.047.074.09-.039Zm4.434-.723c0-.031-.043-.019-.102.027a.32.32 0 0 0-.094.223c0 .133.008.133.094-.023a.945.945 0 0 0 .102-.227Zm21.363-1.809c-.57-1.121-1.391-2.433-1.953-3.125a16.786 16.786 0 0 1-.289-.359c-.012-.016-.039-.012-.059.012-.035.035.723 1.105.836 1.18.028.019.102.14.164.265.067.129.274.488.465.801.192.312.535.957.766 1.43.293.597.433.824.453.734.019-.074-.141-.465-.383-.938Zm.563.141c-.161-.242-.204-.156-.055.094.066.113.133.18.144.144.012-.039-.031-.144-.089-.238Zm-.5-1.863c-.293-.516-.704-1.051-.61-.801.067.18.84 1.356.871 1.324.016-.011-.101-.25-.261-.523Zm-19.981-.449c-.023-.051-.039-.036-.043.043 0 .07.016.109.035.086.024-.024.028-.079.008-.129Zm19.145-.868c-.133-.226-.774-1.117-.825-1.148-.093-.059.051.355.164.473.059.054.188.214.286.347.226.301.504.543.375.328Zm-13.289-1.394c-.024-.055-.039-.035-.039.039-.004.07.011.109.035.09.019-.024.023-.082.004-.129Zm12.066-.051c0-.074-.145-.289-.324-.484-.176-.192-.414-.457-.528-.582-.168-.196-.218-.219-.293-.149-.07.074-.066.082.032.043.062-.023.117-.015.117.016 0 .035.207.308.465.609.254.305.465.582.465.614 0 .035.015.062.035.062.015 0 .031-.059.031-.129Zm3.16-.746c-.258-.395-.812-1.043-1.129-1.32-.254-.227-.258-.227-.117-.032.082.11.402.512.715.895.308.383.566.738.566.793 0 .078.02.082.075.023.058-.058.035-.144-.11-.359Zm-15.344-.07c-.261-.66-.293-.719-.347-.719-.032 0-.035-.059-.016-.133.027-.074.016-.133-.027-.133-.098 0-.09.133.035.477.121.332.148.441.156.609.004.09.141.196.32.242.008 0-.046-.152-.121-.343Zm-4.656.015c0-.039-.027-.066-.062-.066-.039 0-.071.027-.071.066 0 .035.032.067.071.067.035 0 .062-.032.062-.067Zm-1.281-.086c.137-.171.144-.379.019-.449-.097-.051-.152-.027-.261.11-.192.242-.184.425.019.425.086 0 .188-.039.223-.086Zm.469-.296c.015-.043-.032-.059-.114-.04-.074.02-.136.063-.136.09 0 .078.222.032.25-.05Zm.613-.133a.371.371 0 0 0-.063-.149c-.078-.121-.168-.047-.113.094.039.105.18.145.176.055Zm-.797-.383c0-.254-.426-.422-.508-.199-.054.14.16.363.352.363.121 0 .156-.035.156-.164Zm15.918-.285c-.195-.27-.473-.512-.527-.457-.035.039.554.633.636.64.012 0-.039-.082-.109-.183Zm-10.66.066a.405.405 0 0 0-.067-.148c-.046-.078-.058-.067-.05.05.011.133.121.223.117.098Zm-5.656-.617c0-.07-.032-.129-.067-.129-.039 0-.066.074-.066.168 0 .098.027.152.066.129.035-.02.067-.098.067-.168Zm14.406-.043c-.492-.414-.621-.539-.594-.566.047-.047-.203-.254-.344-.282a1.949 1.949 0 0 1-.257-.078c-.125-.047-.125-.043-.036.078.055.071.161.172.235.227.07.055.211.18.308.277.211.219.805.598.856.547.015-.019-.059-.109-.168-.203Zm3.695-.219c0-.039-.012-.066-.031-.066-.016 0-.047.027-.07.066-.024.035-.008.067.031.067.037 0 .068-.03.07-.067Zm-.133-.426c0-.015-.047-.046-.105-.066-.059-.023-.086-.012-.063.027.039.063.168.09.168.039Zm-16.871-2.503c.024-.075.086-.133.137-.133.055 0 .094-.063.094-.149 0-.14-.008-.144-.094-.031-.063.086-.105.098-.141.043-.062-.102-.16.051-.164.254 0 .184.11.195.168.016Zm9.512.007c-.078-.07-.859-.371-1.129-.433-.316-.078-.117.07.406.293.434.183.868.269.723.14Zm-1.199-.101a.293.293 0 0 0-.145-.137c-.09-.035-.086-.016.016.094.144.16.176.172.129.043Zm-.629-.535c-.125-.118-.344-.157-.375-.067-.012.035.074.098.191.137.262.074.313.055.184-.07Zm1.433-3.36c-.421-.187-.636-.218-.265-.043.183.09.379.164.433.164.055 0-.019-.054-.168-.121Zm-7.488-.84c0-.054-.023-.097-.058-.097-.075 0-.145.172-.094.226.058.059.152-.023.152-.129Zm-.597-.929c0-.055-.032-.098-.067-.098s-.066.043-.066.098c0 .054.031.101.066.101s.067-.047.067-.101Zm-.598-1.41c-.074-.114-.074-.114-.039.003.019.067.039.157.043.2.004.054.015.054.039-.004.015-.043-.004-.133-.043-.199ZM26.3 58.255c.023-.035.055-.066.07-.066.016 0 .031.031.031.066s-.035.066-.074.066c-.039 0-.051-.031-.027-.066Zm24.262-5.969c.437-.465.496-.531.761-.859.145-.18.407-.477.578-.66l.317-.332-.063.226c-.066.242-.117.305-.8 1.004-.239.246-.512.539-.606.656-.098.118-.23.211-.297.211-.097 0-.074-.05.11-.246Zm-37.102-.605c.051-.032.02-.102-.082-.199-.086-.086-.156-.137-.156-.114 0 .02-.106-.07-.235-.199s-.265-.234-.304-.234c-.035 0-.047-.032-.028-.067.024-.039-.015-.066-.09-.066-.179 0-.23-.102-.113-.223.055-.051.094-.105.086-.125-.008-.012.043.051.117.141.075.09.325.355.551.59.387.386.465.55.262.547-.055 0-.059-.016-.004-.051h-.004Zm-2.043-2.059c-.582-.687-.828-.988-.918-1.14-.031-.047-.129-.094-.219-.098-.09-.008-.164-.047-.164-.09 0-.039.039-.059.09-.043.109.043.113-.027.004-.141a2.057 2.057 0 0 1-.184-.242 2.356 2.356 0 0 0-.242-.304c-.078-.082-.125-.165-.105-.184.019-.023-.063-.195-.184-.387-.25-.398-.332-.547-.73-1.269-.157-.285-.274-.532-.258-.547.016-.016.223.293.457.687.238.391.453.743.48.778.356.504 1.594 2.129 1.778 2.332.726.812.898 1.074.804 1.222-.035.059-.23-.129-.609-.574Zm35.356-4.101a3.342 3.342 0 0 1-.336-.661c-.188-.535-.047-.726.07-.546.269.414.269.414.305.32.015-.043.074-.063.128-.043.09.035.094.019.032-.102-.063-.117-.063-.132.015-.105.063.023.114-.016.141-.102.027-.082.078-.121.121-.093.055.027.055.011-.004-.047-.043-.047.172-.016.32.023a.215.215 0 0 0 .204-.058c.039-.051.101-.075.132-.055.032.019.043-.008.024-.059-.024-.062.012-.086.117-.078.086.008.145.051.133.102a.123.123 0 0 0 .043.125c.035.019.023.074-.031.125-.051.047-.09.054-.09.015s-.035-.07-.074-.07c-.04 0-.059.055-.047.117.027.149-.141.348-.293.348-.067 0-.121.035-.121.078s-.02.059-.043.035c-.024-.023-.086-.008-.137.035-.074.059-.109.059-.156-.019-.043-.067-.063-.071-.063-.012 0 .047-.031.086-.066.086s-.067-.047-.067-.102c0-.054-.027-.101-.058-.101-.125 0-.141.23-.035.601.148.536.093.618-.164.243Zm.421.234c.028-.051 0-.141-.07-.215-.062-.07-.082-.129-.039-.129.129 0 .234.27.141.356-.063.058-.071.054-.032-.012Zm-.027-.473c-.051-.093-.043-.133.039-.164.078-.031.094-.011.063.074-.028.086-.004.079.089-.031.149-.176.243-.191.297-.047.02.059.016.09-.015.071-.028-.02-.094.023-.145.097-.121.164-.242.164-.328 0Zm.629-.203c-.047-.074.062-.301.238-.488.11-.121.141-.121.317-.035l.195.093-.258.184c-.199.145-.258.164-.258.082 0-.058.055-.101.133-.101.149 0 .168-.071.055-.184-.094-.094-.324.168-.34.379-.012.152-.023.164-.082.07Zm1.023-.293c.063-.07.055-.101-.023-.133a.168.168 0 0 1-.102-.148c0-.082.032-.07.133.059.16.203.164.222.024.277-.086.031-.094.023-.032-.055Zm-3.351-1.172c-.102-.195-.074-.25.066-.148.067.047.121.348.063.348-.016 0-.074-.09-.129-.2Zm-39.18-2.297a.519.519 0 0 0-.195-.066c-.086-.019-.168-.062-.18-.098-.012-.039-.062-.07-.109-.07s-.125-.051-.176-.109c-.078-.098-.078-.106.004-.059.07.043.082.031.047-.066-.047-.117-.043-.117.074-.008.07.058.176.109.234.109.149 0 .215.133.067.141-.067.004-.016.043.113.09s.277.07.332.054c.09-.027.09-.023 0 .043-.109.079-.16.09-.211.039Zm-.234-1.332c-.364-.152-.348-.265.035-.234.08.008.161-.01.23-.051.047-.031.391-.097.77-.14.379-.043.734-.098.793-.121.066-.028.09-.008.07.054-.019.055-.281.137-.691.219-.363.07-.676.145-.696.168-.117.144-.316.187-.511.105Zm-.285-2.171c-.2-.2-.239-.262-.137-.239.121.032.137.004.137-.218 0-.141-.036-.27-.082-.29-.063-.023-.063-.035.007-.039.075-.004.075-.023.008-.101-.047-.059-.054-.102-.023-.102s.047-.133.035-.297c-.016-.203-.059-.304-.133-.324-.105-.027-.105-.027 0-.035.086-.008.106-.074.098-.309-.008-.281-.047-.336-.207-.3-.039.007-.043-.012-.016-.043a.24.24 0 0 1 .117-.063c.035-.008.082-.012.11-.019.023-.004-.012-.055-.082-.114-.075-.054-.094-.086-.047-.058.047.023.082 0 .082-.059a.172.172 0 0 0-.082-.137c-.067-.031-.067-.046-.004-.078.043-.019.062-.078.043-.132-.024-.059.004-.094.07-.094.07 0 .106-.059.106-.168 0-.18-.063-.211-.188-.086-.058.062-.078.051-.078-.063 0-.074-.039-.152-.082-.172-.051-.019-.039-.035.031-.039.071-.003.117.043.117.11 0 .086.036.066.125-.071.071-.105.145-.16.168-.125.02.036-.011.086-.074.11-.098.039-.098.055-.019.101.05.036.117.047.148.028.027-.02.07.062.094.176.027.128.062.179.094.128.035-.054.07-.043.117.043.039.071.09.106.109.086.059-.058-.031-.39-.105-.39-.039 0-.036-.051.004-.121.039-.075.039-.157 0-.215-.032-.055-.063-.082-.067-.067-.039.231-.058.286-.094.325-.023.019-.019-.047.004-.157.071-.308.078-.699.016-.738-.031-.019-.035-.066-.016-.101.024-.036.024-.145-.004-.243-.035-.14-.054-.156-.105-.078-.047.067-.055.016-.031-.164.023-.14.007-.293-.032-.34-.046-.054-.039-.136.028-.261l.094-.184.082.148c.044.094.06.198.046.301-.015.09-.007.145.02.129.078-.047.117-.348.059-.441-.032-.051-.02-.11.027-.137.058-.035.058-.066-.004-.129-.066-.066-.082-.062-.086.012 0 .082-.012.082-.066-.004-.051-.078-.075-.082-.121-.012-.047.074-.067.07-.098-.015-.059-.145-.184-.133-.141.011.035.114.035.114-.035 0-.043-.062-.117-.117-.168-.117-.148 0-.156-.144-.023-.453.066-.16.121-.379.121-.488 0-.11.035-.258.074-.336.055-.106.051-.149-.016-.192-.062-.039-.066-.058-.011-.058.043 0 .078-.055.078-.117.001-.097.014-.193.039-.286.023-.089.055-.293.066-.445.016-.156.039-.305.059-.332.015-.031.051-.168.07-.309.024-.136.082-.332.133-.429a.835.835 0 0 0 .074-.391c-.015-.215.039-.363.141-.375.031-.004.094-.113.133-.242.371-1.188.457-1.445.511-1.5.063-.066.043.133-.047.496a8.566 8.566 0 0 0-.082.418c-.035.223-.027.246.079.203.089-.031.109-.019.082.059a.175.175 0 0 0 .035.179c.058.059.043.086-.067.118-.078.019-.172.117-.211.211-.078.199-.066.597.024.738.039.066.031.078-.031.039-.055-.035-.071-.027-.043.019.023.039.023.196 0 .344-.039.246-.063.274-.211.254-.219-.023-.25.082-.082.277.136.157.179.336.086.336-.028 0-.055.157-.059.348-.004.195-.039.355-.082.371-.043.012-.059.055-.035.09.019.035.004.102-.039.152-.055.067-.055.106 0 .137.129.082.14.043.293-.855.051-.29.113-.543.144-.567.035-.023.063-.117.067-.207.004-.242.078-.68.132-.828.036-.09.028-.113-.027-.078-.047.027-.078.004-.078-.059 0-.058.027-.09.066-.066.036.019.067-.008.067-.067a.65.65 0 0 1 .105-.265c.055-.086.098-.199.086-.246a.404.404 0 0 1 .028-.188c.066-.168.445-1.273.593-1.73.078-.239.164-.446.196-.457.031-.012.054-.074.054-.141 0-.062.145-.41.317-.773.172-.364.312-.692.316-.727.004-.035.043-.058.086-.051.094.02.113-.093.024-.125-.098-.039.046-.324.164-.324.078 0 .097-.039.074-.137-.024-.082 0-.148.058-.171.051-.02.094-.094.094-.165 0-.07.031-.125.067-.125.039 0 .066-.043.066-.093 0-.051.039-.106.09-.125.047-.02.125-.157.176-.305.046-.148.109-.258.136-.238.028.015.071-.047.09-.137.024-.094.09-.164.145-.164.058 0 .086-.031.062-.066-.019-.036.008-.157.063-.262.148-.285.129-.324-.047-.098-.103.13-.214.254-.332.371-.102.102-.184.227-.184.278 0 .054-.023.105-.055.121-.093.035-.476.597-.476.699 0 .051-.055.148-.121.223-.067.07-.254.371-.414.664-.164.293-.321.531-.352.531-.027 0-.035.027-.012.066.024.035-.003.082-.058.106a.106.106 0 0 0-.063.133c.02.05.004.093-.039.093-.039 0-.066-.074-.058-.168.008-.089.035-.164.054-.164.024 0 .11-.172.2-.379.086-.211.281-.605.433-.882.305-.555.379-.739.469-1.168l.043-.2-.168.172c-.09.094-.219.274-.281.399-.071.133-.133.191-.149.14-.015-.047.02-.14.078-.203a.52.52 0 0 0 .106-.16c0-.023.082-.129.183-.234.196-.211.461-.313.5-.192.043.129.231-.109.2-.254-.024-.113-.016-.117.043-.035.062.09.078.09.136 0a.418.418 0 0 0 .067-.187c0-.047.031-.071.066-.047.071.047.219-.192.156-.254-.023-.024-.015-.043.02-.043s.07-.066.074-.148a.375.375 0 0 1 .149-.243c.074-.05.136-.132.136-.187 0-.051.032-.129.067-.172.273-.328.406-.453.453-.426.027.02.125-.062.215-.176.09-.117.386-.457.664-.754.601-.648.797-.882.797-.953 0-.031-.067-.101-.149-.164-.14-.101-.14-.101.063-.008.281.133.297.129.207-.062-.039-.09-.106-.145-.141-.121-.039.019-.047.008-.023-.027.023-.04-.004-.11-.059-.153-.144-.125-.117-.215.039-.133a.57.57 0 0 1 .207.27c.039.109.078.195.094.195.012 0 .144-.121.297-.269.18-.172.262-.305.234-.371-.023-.071-.008-.094.051-.071.051.02.199-.07.336-.191.137-.125.262-.231.277-.231.02 0 .09-.058.164-.132.094-.094.121-.184.094-.301-.027-.106-.016-.164.035-.164.043 0 .063.027.039.062-.019.035-.008.078.028.102.054.035.234-.203.222-.297-.004-.02.02-.027.051-.02.027.008.039-.054.024-.144-.024-.133-.004-.156.109-.137.09.02.117.004.082-.051a.356.356 0 0 1-.051-.144c0-.039-.055-.078-.117-.09-.074-.016-.106.008-.082.066.023.059-.02.094-.113.102-.102.008-.125-.004-.067-.039a.26.26 0 0 0 .102-.149c.031-.207.285-.167.344.055.027.102.062.149.078.102.019-.051.093-.067.203-.039.121.031.156.019.121-.035-.031-.051.027-.106.164-.153.121-.043.191-.105.176-.156-.02-.047-.004-.113.035-.152.047-.047.027-.094-.063-.153-.16-.101-.125-.301.075-.41.078-.043.16-.074.183-.066a.928.928 0 0 0 .25-.047c.199-.059.203-.055.129.086-.047.09-.086.113-.105.058-.016-.043-.055-.082-.086-.082-.032 0-.043.043-.024.094.02.051.004.113-.035.137-.121.074-.078.16.067.121a.534.534 0 0 0 .238-.176c.101-.141.105-.137.066.059-.019.109-.019.16 0 .117.02-.047.098-.086.168-.086.094 0 .125-.031.098-.098-.02-.054-.016-.097.012-.093.089.011.343-.09.343-.137 0-.028.078-.137.176-.242.098-.106.152-.153.125-.106-.039.074-.023.078.094.016.078-.043.14-.059.14-.035 0 .023.047-.008.106-.067a.26.26 0 0 0 .062-.273c-.035-.153-.027-.16.094-.098.074.039.137.09.137.109 0 .02-.031.016-.067-.007-.039-.024-.066.023-.066.105 0 .102.027.133.106.102a.641.641 0 0 1 .203-.039c.066 0 .086-.043.058-.133-.035-.102-.019-.125.055-.094.074.027.09 0 .062-.101-.027-.114-.011-.133.082-.094.086.031.106.019.071-.035-.028-.047-.106-.063-.176-.039-.078.023-.129.007-.129-.04 0-.042-.047-.062-.101-.039-.059.024-.098 0-.098-.058 0-.059-.039-.082-.102-.059-.058.024-.097 0-.097-.058 0-.055.043-.137.097-.184.082-.066.102-.062.102.02 0 .054.047.117.101.14.063.024.086.012.067-.027-.024-.035.004-.067.058-.067.063 0 .09.047.075.133-.016.074.007.133.05.133.102 0 .262-.098.254-.156-.019-.133.008-.16.125-.129.078.023.133.004.133-.043 0-.043-.027-.059-.066-.035-.035.023-.067.008-.067-.031 0-.067.114-.094.317-.086.105.004.101-.051-.012-.204-.066-.089-.098-.097-.125-.035-.023.059-.035.047-.039-.027a.125.125 0 0 0-.121-.117c-.109-.004-.109-.012.004-.074.097-.055.156-.039.285.078.133.129.16.133.16.043 0-.063.016-.114.035-.114.063 0 .231.184.231.254 0 .035.066.11.148.164l.149.102-.18-.035c-.102-.02-.168-.059-.152-.086.019-.028-.028-.067-.098-.086-.086-.024-.133 0-.133.058 0 .047-.062.122-.137.165-.175.089-.398.453-.39.628.004.11.015.106.058-.031.032-.094.059-.125.063-.066.004.058.055.023.137-.098.07-.105.109-.223.086-.258-.02-.039-.004-.043.042-.015.059.039.055.086-.023.207a.839.839 0 0 0-.105.187c0 .02.179-.039.402-.125.219-.086.398-.144.398-.133 0 .016.11-.019.243-.074.199-.086.253-.086.296-.015.043.062.059.046.059-.063 0-.078.023-.144.051-.141.168.028.211-.019.176-.195-.036-.168-.02-.187.117-.176.086.008.191-.011.23-.047.043-.031.106-.05.137-.042.113.039.488-.165.488-.266 0-.078.02-.086.078-.027.106.105.321-.02.321-.184 0-.07-.067-.172-.149-.231-.097-.07-.113-.101-.051-.105.086 0 .086-.008 0-.062-.066-.043-.074-.067-.015-.067.129-.004.097-.137-.035-.137-.098 0-.102-.007-.016-.066.141-.09.199-.078.199.035 0 .117.106.133.172.027.024-.042.004-.105-.047-.14-.062-.043-.031-.051.11-.024l.199.039-.168-.132c-.152-.121-.156-.133-.031-.141.074-.004.183-.016.25-.027.062-.012.117.008.117.047 0 .043.031.039.09-.008.07-.059.101-.055.129.015.015.051-.024.141-.094.2-.098.086-.125.089-.125.019 0-.051-.043-.125-.094-.168-.074-.062-.09-.039-.082.141.008.164.043.219.137.219.07 0 .136.039.152.082.035.105-.164.043-.336-.106-.109-.094-.121-.09-.156.043-.02.082-.066.149-.098.149-.062 0-.008.328.067.41.035.039 1-.223 1.472-.399a.329.329 0 0 1 .149-.023c.023.004.183-.051.351-.125.172-.071.481-.172.688-.223.207-.051.691-.176 1.074-.273.773-.2 2.012-.446 2.828-.567.387-.058.535-.058.555-.008.012.043.058.055.098.028.042-.024.179-.039.312-.031.129.007.285-.024.344-.071.109-.086.41-.922.625-1.73.117-.453.281-.637.207-.235-.024.118-.074.454-.11.747-.039.292-.082.578-.097.632-.025.1-.046.2-.063.301-.097.656-.125.766-.195.824a.271.271 0 0 1-.145.063c-.175 0-.992.097-1.496.18-.312.05-.777.113-1.031.14-.457.051-.461.051-.199.102.39.078.754.082.848.008a.37.37 0 0 1 .183-.075c.055-.004.481-.047.945-.093.653-.067.852-.067.852-.004 0 .195-.297 1.332-.383 1.464-.07.11-.074.176-.023.278.054.101.031.305-.102.851-.094.399-.191.731-.219.739-.027.011-.035.121-.019.246.023.199 0 .238-.184.336a1.485 1.485 0 0 1-.422.129c-.106.01-.21.029-.312.058-.253.07-.508.129-.766.176-.367.074-.832.187-1.031.246-.652.191-.227.172.715-.035 1.055-.231 1.812-.32 1.812-.215 0 .035-.058.102-.132.141-.106.054-.133.05-.133-.032 0-.054-.031-.101-.071-.101-.039 0-.054.023-.035.055.035.058-.375.277-.523.277-.055 0-.246.031-.434.07-.238.055-.336.106-.336.184 0 .082-.015.09-.054.027-.043-.066-.168-.058-.614.051a8.963 8.963 0 0 0-.925.266c-.204.074-.418.132-.485.132-.062 0-.117.043-.117.094 0 .059-.047.082-.121.063-.117-.032-.91.257-1.035.379-.031.031.136.3.386.609.247.305.493.637.547.738l.098.188-.184-.117c-.179-.122-.957-1.114-.957-1.227 0-.145-.32-.031-1.261.445l-1.004.5.242.168c.277.188.762.586 1.227 1.004.171.156.332.266.355.238.023-.023.043.028.043.11 0 .148 0 .148-.184.035-.39-.261-.767-.542-1.129-.84-.359-.305-.835-.562-.871-.465-.011.047-.101.114-.191.149-.137.05-.16.093-.125.222.019.09.008.184-.031.207-.039.024-.09-.019-.11-.097-.047-.184-.078-.176-.351.062-.176.149-.278.192-.403.164-.101-.023-.132-.015-.082.02.067.047.055.09-.046.207-.071.086-.157.137-.192.113-.101-.062-.285.195-.234.332.043.113.035.117-.063.039-.09-.074-.125-.074-.215 0a2.95 2.95 0 0 0-.464.477c-.075.094-.157.172-.184.176-.109.003-.535.406-1.52 1.433-.91.953-1.269 1.418-1.222 1.574.035.11.023.133-.055.106-.113-.043-.246.094-.836.883-.207.273-.39.511-.41.531-.02.019-.168.234-.328.48-.164.25-.32.454-.352.454-.086 0 .528-1.102.895-1.606.176-.238.316-.457.316-.48 0-.028.055-.102.117-.168.141-.149.254-.293.52-.645.105-.144.211-.277.23-.297.02-.019.231-.269.465-.562.719-.871 1.34-1.532 1.524-1.614.109-.046.175-.132.183-.226.008-.137 0-.141-.074-.039-.047.058-.098.109-.117.109-.02 0-.184.145-.367.317-.184.175-.492.472-.692.66-.664.629-1.054 1.086-1.054 1.226 0 .11-.032.129-.137.094-.094-.031-.137-.016-.125.047.019.16-.086.387-.18.387-.051 0-.09.043-.09.097 0 .059-.027.102-.062.102-.031 0-.074.07-.098.152a.908.908 0 0 1-.176.317c-.394.461-.39.457-1.027 1.629-.535.992-1.523 3.234-1.836 4.167-.219.665-.664 2.235-.664 2.344 0 .016.066.043.145.063.132.035.136.066.097.648-.023.34-.066.649-.09.688-.027.043-.054.195-.066.34-.008.148-.078.667-.152 1.152-.075.488-.121.91-.102.937.016.028-.047.211-.137.411-.144.312-.168.464-.179 1.148-.012.738-.02.781-.145.766-.105-.016-.144-.102-.199-.414-.102-.579-.242-.575-.219 0l.016.453-1.063.152c-.586.086-1.215.172-1.398.187-.184.016-.395.059-.465.094-.152.071-.992.336-1.008.317a3.31 3.31 0 0 1-.051-.278 6.003 6.003 0 0 0-.105-.531 2.96 2.96 0 0 1-.066-.578c0-.301-.004-.309-.161-.234-.171.082-.175.152-.046 1.14.093.707-.024.801-.461.36Zm4.925-1.715c0-.035-.031-.082-.066-.106-.035-.023-.066.004-.066.063 0 .058.031.105.066.105s.066-.027.066-.062Zm-4.379-.434c.063-.195.122-.269.219-.269.082 0 .141-.051.153-.137.035-.235-.676-.414-.762-.192-.024.059-.004.133.043.161.062.039.055.07-.039.132-.098.059-.102.071-.016.043.078-.023.133.024.184.172.09.254.09.27.004.219-.036-.023-.067 0-.067.051 0 .207.199.078.281-.18Zm-.281-.035c0-.039-.027-.07-.066-.07a.071.071 0 0 0-.067.07c0 .035.032.062.067.062.039 0 .066-.027.066-.062Zm4.606-.434c-.016-.129-.039-.234-.055-.234-.012 0-.023.105-.023.234 0 .125.023.231.05.231.032 0 .043-.106.028-.231Zm.715-2.797c0-.035-.028-.019-.063.036a.401.401 0 0 0-.059.199c0 .105.114-.11.122-.235Zm-2.762-.425c.023-.035.008-.082-.028-.106-.039-.023-.07.004-.07.063 0 .117.043.133.098.043Zm2.566-.938c.039-.238.219-1.027.403-1.754.179-.722.332-1.336.332-1.355 0-.332-.653 2.015-.801 2.871-.137.793-.184 1.516-.063.937.032-.148.09-.461.129-.699Zm-4.738-.019c.066-.078.066-.114.008-.149-.082-.051-.192.074-.192.223-.004.047-.031.07-.062.051-.031-.024-.074.004-.098.058-.019.055-.004.117.039.145.047.027.055.012.02-.051-.031-.055-.031-.07.004-.035a.207.207 0 0 1 .066.133c.035.351.055.367.09.066.023-.184.078-.383.125-.441Zm2.144.652c-.07-.082-.066-.102.02-.102.082 0 .102-.058.086-.242-.035-.468.363-2.277.523-2.367.051-.027.086-.191.09-.398.008-.227-.011-.321-.051-.258-.046.07-.062.066-.085-.035-.032-.121-.032-.121-.079.007-.04.11-.087.217-.14.321a.584.584 0 0 0-.063.336c.024.082-.035.476-.125.879-.179.789-.234 1.101-.277 1.554-.027.313-.004.403.113.403.043 0 .039-.035-.012-.098Zm-.078-3.098c.313-1.05.504-1.57.618-1.664.05-.039.187-.461.234-.707.016-.105.184-.535.367-.953.184-.422.5-1.156.699-1.633.2-.476.387-.875.422-.886.031-.012.094-.129.137-.266.094-.289.187-.422.266-.375.074.047.347-.488.293-.574-.024-.035-.004-.11.039-.164.058-.071.058-.094.003-.094-.042 0-.011-.094.071-.203.082-.11.195-.199.25-.199.086 0 .09-.012.015-.059-.05-.031-.074-.094-.046-.133.023-.043.027-.074 0-.074-.043 0-.278.277-.395.469-.039.062-.152.242-.258.398a6.726 6.726 0 0 0-.336.559c-.218.41-.379.636-.449.636-.035 0-.043-.035-.016-.082.032-.046 0-.043-.07.016-.109.09-.113.102-.016.121.063.012.114.047.114.074 0 .028-.149.348-.324.711-.18.364-.379.825-.446 1.024-.16.496-.379.957-.515 1.097-.079.075-.094.145-.059.215.074.129-.129.68-.277.766-.086.047-.098.09-.043.191.054.098.039.2-.055.414-.07.157-.148.403-.172.547a7.611 7.611 0 0 1-.172.664c-.07.219-.16.578-.203.797-.039.223-.09.461-.109.535-.024.086-.016.11.027.067.035-.039.219-.59.406-1.235Zm1.211-1.695c.153-.437.336-.934.41-1.098.245-.545.5-1.086.766-1.621.32-.64.172-.496-.25.239-.512.898-1.375 3.046-1.285 3.195.023.039.012.051-.024.027-.105-.062-.167.348-.07.453.07.071.094.043.129-.156.024-.133.172-.601.324-1.039Zm2.239.82c-.02-.054-.036-.039-.039.039-.004.071.011.11.035.086.019-.019.023-.078.004-.125Zm-3.61-.449c.024-.035.008-.082-.027-.105-.039-.024-.07.007-.07.062 0 .117.043.137.097.043Zm.199-.543c-.046-.078-.226-.082-.226 0 0 .07.14.133.215.094.027-.02.035-.059.011-.094Zm-.007-.625c.027-.062.007-.082-.059-.058-.051.019-.078.062-.059.097.051.082.075.074.118-.039Zm-.047-.515a1.81 1.81 0 0 1-.082-.204c-.035-.097-.16-.168-.16-.086 0 .11.144.372.207.372.039 0 .054-.039.035-.082Zm-.149-.622c.024-.058.012-.085-.027-.062-.035.023-.066.07-.066.102 0 .097.05.078.093-.04Zm2.891-1.46c-.02-.024-.059.015-.082.082-.039.093-.031.101.035.035.047-.043.066-.098.047-.117Zm-2.117-.243c0-.035-.032-.047-.067-.023a.139.139 0 0 0-.066.109c0 .035.027.047.066.024.035-.024.067-.071.067-.11Zm1.886-.023c.024-.055.008-.102-.027-.102s-.062.047-.062.102c0 .055.011.101.027.101.012 0 .043-.046.062-.101Zm5.895-3.543c.055-.191.047-.277-.031-.399-.153-.234-.207-.183-.223.215-.023.563.121.664.254.184Zm-6.066-.227c-.016-.054-.079 0-.149.145l-.117.23.148-.14c.082-.082.133-.184.118-.235Zm7.968-.191c.09-.102.106-.152.047-.211-.054-.055-.109-.035-.207.086-.203.254-.058.367.16.125Zm.528-.664c.175-.129.375-.285.441-.352a.619.619 0 0 1 .16-.113h.102c.035 0 .066-.047.066-.102 0-.101.492-.496.625-.5.137-.003.387-.257.336-.339-.035-.055-.004-.067.102-.039.152.039.336-.075.336-.207 0-.036.058-.051.132-.032.082.024.219-.027.352-.133.289-.218 1.801-.968 2.512-1.246.308-.121.59-.246.625-.273.125-.109-.024-.137-.274-.051-.14.047-.285.09-.32.098a2.235 2.235 0 0 0-.195.066c-.098.039-.114.031-.071-.043.036-.051-.023-.027-.125.051-.101.082-.293.18-.429.227-.379.121-1.993.918-2.118 1.043-.066.062-.152.117-.199.117-.043 0-.179.09-.301.199-.125.109-.238.199-.257.199-.055 0-1.008.633-1.11.735-.105.105-.195.121-.238.046-.016-.027-.016-.007-.004.04.027.109-.101.289-.176.242-.047-.028-.668.515-.668.586 0 .113.434-.028.696-.219Zm-6.524-.973c.024-.062.008-.094-.039-.078-.101.035-.156.184-.066.184.035 0 .082-.047.105-.106Zm.446-.008c.085-.105.082-.109-.024-.027-.109.09-.144.141-.094.141.016 0 .071-.051.118-.114Zm.277-.785c.105-.152.062-.129-.176.098-.168.164-.308.328-.308.363 0 .086.312-.211.484-.461Zm5.773-.031c0-.035-.031-.066-.062-.066-.035 0-.082.031-.106.066-.023.035.004.066.063.066.058 0 .105-.031.105-.066Zm.133-.199v-.001a.067.067 0 0 0-.066-.066h-.002a.065.065 0 0 0-.065.065v.002c0 .035.028.066.067.066a.068.068 0 0 0 .066-.066Zm-5.125-.738c0-.032-.031-.063-.066-.063-.039 0-.067.047-.067.105 0 .055.028.086.067.063.035-.023.066-.07.066-.105Zm11.348-.793c.125-.055.125-.059-.016-.063-.078-.004-.164.027-.187.063-.047.078.019.078.203 0Zm-6.957-.2c0-.074.039-.136.086-.14.062-.004.062-.012 0-.035-.106-.043-.27.117-.235.226.043.133.149.094.149-.051Zm6.488-.004c.109-.043.172-.089.133-.105-.035-.012-.215.035-.399.113-.234.094-.273.125-.132.102.109-.016.289-.067.398-.11Zm1.043.02c-.051-.02-.121 0-.16.039-.047.051-.024.059.09.027.09-.019.121-.05.07-.066Zm-.094-.316c.407-.125.461-.192.102-.125a8.326 8.326 0 0 1-.352.058c-.14.012-.265.094-.265.176 0 .039.039.055.082.035.047-.019.242-.086.433-.144Zm-7.218-.266a.927.927 0 0 0-.016-.332c-.043-.113-.059-.106-.098.082a.83.83 0 0 0-.004.351c.055.176.078.153.118-.101Zm9.093-.207c.086-.078-.054-.067-.195.016l-.164.097.164-.047a.846.846 0 0 0 .195-.066Zm.953-.195c.176-.024.317-.071.317-.106 0-.031-.067-.043-.149-.027-.082.011-.293.047-.464.074-.176.023-.321.074-.321.109 0 .039.071.051.153.032.154-.032.309-.059.464-.082Zm-13.148-.11c-.02-.054-.035-.039-.039.039-.004.071.012.11.035.09.023-.023.023-.082.004-.129Zm7.461-.094c.012-.003 0-.058-.024-.117-.058-.148-.226-.015-.226.172 0 .117.012.125.113.047l.137-.102Zm-7.606.04c.024-.036.008-.067-.031-.067a.069.069 0 0 0-.066.067c0 .039.011.066.027.066s.047-.027.07-.066Zm7.172-.266c-.035-.137-.246-.184-.316-.067-.067.106.027.2.195.2.125 0 .153-.028.121-.133Zm-4.675-.133a.07.07 0 0 0-.067-.066.068.068 0 0 0-.066.066c0 .035.031.066.066.066a.07.07 0 0 0 .067-.066Zm4.753-.129c.024-.035.008-.082-.027-.101-.039-.024-.066.004-.066.058 0 .117.039.137.093.043Zm2.629-1.437c-.121-.149-.242-.118-.293.078-.023.094-.035.179-.023.183.012.008.098.047.187.086.149.063.168.051.188-.093a.38.38 0 0 0-.059-.254Zm-3.187-.032c.133-.055.272-.091.414-.109.152-.019.371-.086.48-.141.11-.058.621-.25 1.133-.425.719-.25.86-.317.613-.289-.566.058-2.843.839-2.843.976 0 .074.05.07.203-.012Zm.695-.761c.11-.09.172-.164.133-.164-.035 0-.156.074-.266.164-.109.09-.168.164-.132.164.035 0 .156-.074.265-.164Zm3.195-.168c.024-.039-.019-.071-.093-.071-.071 0-.149.032-.172.071-.024.035.019.066.09.066.074 0 .152-.031.175-.066Zm.067-.235.332-.097-.324.039a2.23 2.23 0 0 0-.465.094c-.137.054-.137.054-.008.058.07 0 .281-.043.465-.094Zm1.328-.836c.133-.132-.027-.128-.238.008l-.227.141.203-.043c.11-.024.227-.07.262-.106ZM4.585 36.857c-.07-.083-.066-.098.016-.098.058 0 .105.047.105.101 0 .122-.012.122-.121-.003Zm.188.003c0-.054.039-.082.085-.062.137.051.094-.215-.066-.387-.141-.156-.258-.48-.148-.414.035.02.062.082.062.137 0 .055.024.086.051.066.027-.015.125.028.215.098.097.078.121.113.051.09-.067-.024-.118-.008-.118.031s.028.074.067.074c.078 0 .086.266.015.367-.078.106-.214.106-.214 0Zm44.562-1.066c-.02-.055-.082-.102-.137-.102-.05 0-.117-.031-.14-.074-.035-.051.035-.066.226-.047.274.028.324-.027.285-.293-.004-.027.02-.05.059-.05.035 0 .066.058.066.129 0 .089.051.136.168.152.153.015.161.031.082.14a.384.384 0 0 1-.269.133c-.102.008-.18.035-.18.063 0 .09-.121.051-.16-.051Zm9.617-2.363c-.066-.071.434-.242.477-.145l.023.059.012.09c0 .027-.43.078-.512-.004Zm-1.84-5.285c-.129-.133-.14-.164-.156-.364-.008-.074-.027-.078-.125-.004-.098.075-.105.075-.039 0a.218.218 0 0 0 .043-.195c-.027-.094-.023-.094.039-.008.039.055.07.071.074.032 0-.036.032-.012.071.05.046.082.125.106.281.082.117-.019.176-.015.129.008-.149.07-.235.293-.153.391.125.148-.019.156-.164.008Zm.036-.133c0-.02-.032-.051-.067-.071-.035-.023-.066-.011-.066.028s.031.07.066.07.067-.012.067-.027Zm-6.192-.508c0-.039.031-.055.067-.031.039.023.07.054.07.07 0 .016-.031.031-.07.031a.07.07 0 0 1-.067-.07Zm5.242-1.18c-.062-.011-.117-.051-.117-.086 0-.078.074-.078.199 0 .121.078.078.121-.082.086Zm-.011-.23c-.09-.301-.086-.383.019-.383.059 0 .149.027.199.059.071.043.071.062-.011.093-.055.024-.118.004-.133-.039-.024-.058-.035-.054-.039.008a.478.478 0 0 0 .062.215c.047.09.047.129 0 .129-.039 0-.082-.035-.097-.082Zm.687-.153a.438.438 0 0 1-.019-.113c-.004-.047-.071-.074-.141-.066-.102.015-.109.008-.039-.043.109-.074.34.043.34.176 0 .078-.125.121-.141.046Zm-.258-.46c-.043-.055-.109-.086-.14-.067-.032.02-.039-.016-.016-.078.031-.074.02-.098-.027-.066-.047.027-.071-.008-.067-.086.008-.098.035-.114.121-.071.063.032.133.039.161.012.031-.027.035.035.007.137-.023.101-.019.183.008.183.031 0 .106-.082.168-.183.082-.137.113-.153.113-.067.004.063-.027.118-.066.118-.039 0-.059.046-.051.109.028.144-.105.184-.211.059Zm-1.027-.875c-.055-.145-.047-.172.027-.125.039.023.098-.043.137-.141.035-.098.086-.16.105-.141.024.024.016.094-.011.16a.485.485 0 0 0-.047.153c.004.019-.035.07-.082.113-.07.063-.098.059-.129-.019Zm-6.25-.196c-.024-.051-.012-.097.023-.097.036 0 .067.046.067.097 0 .059-.012.102-.028.102-.015 0-.043-.043-.062-.102Zm-42.102-.777c.071-.121.153-.266.176-.32.063-.129.223-.29.223-.219 0 .027.023.019.051-.028.035-.05.086-.054.148-.015.082.051.078.074-.035.16-.07.055-.106.102-.074.102.031 0 .019.046-.024.101-.047.055-.109.082-.14.063-.036-.02-.063.004-.063.054 0 .11-.207.317-.316.317-.047 0-.028-.086.054-.215Zm48.457.058a.31.31 0 0 0-.211-.109c-.136 0-.304-.184-.23-.254.027-.023.062-.008.078.035.02.047.059.082.09.082s.043-.043.019-.097c-.019-.055-.003-.102.04-.102.039 0 .07.027.07.059 0 .031.07.051.152.043.082-.008.188-.02.238-.024.067-.008.067-.031-.011-.109-.059-.055-.129-.102-.16-.102-.094 0-.075-.16.027-.254.051-.05.09-.054.09-.011 0 .035.043.066.094.066.054 0 .125.051.16.109.039.075.074.086.105.036.024-.043.078-.078.117-.078.043 0 .02.066-.05.144-.129.141-.129.141.046.109.168-.031.172-.023.11.157-.067.191-.145.242-.215.129-.02-.036.008-.079.062-.094.071-.024.067-.028-.015-.02-.063.008-.11.051-.102.09.02.086-.215.18-.308.121-.035-.019-.071.012-.082.074-.024.102-.032.102-.114 0Zm.106-.218c-.024-.02-.078-.024-.129-.004-.051.019-.035.039.043.039.066.004.109-.012.086-.035Zm-47.805-.746c.07-.082.113-.157.098-.168a2.408 2.408 0 0 0-.16-.102c-.121-.07-.121-.074.035-.039.137.031.18.004.254-.168.074-.16.074-.227.008-.301-.063-.082-.059-.097.019-.097.18 0 .254.156.156.336-.246.46-.355.621-.441.648-.066.023-.059-.012.031-.109Zm1.5-2.649c0-.015.059-.109.129-.211.301-.422.5-.785.481-.871-.012-.051.007-.109.043-.133a.997.997 0 0 0 .175-.242c.086-.148.106-.164.082-.055-.019.102 0 .137.059.114.129-.051.25-.395.195-.559-.031-.101 0-.187.11-.305.171-.183.336-.218.168-.039-.122.137-.149.313-.039.243.05-.032.054-.004.007.082a6.4 6.4 0 0 0-.14.289 2.369 2.369 0 0 1-.426.664c-.113.13-.213.272-.297.422a1.612 1.612 0 0 1-.234.339c-.063.063-.098.137-.078.168.015.032-.028.071-.102.09-.07.02-.133.02-.133.004Zm3.43-3.441a.396.396 0 0 1 .023-.281c.043-.094.047-.165.012-.165s-.047-.043-.027-.097c.023-.055.066-.102.097-.102.032 0 .039.051.016.11-.035.086-.012.097.109.058.114-.035.145-.023.121.043-.019.051-.082.086-.14.082-.086-.008-.094.016-.039.117.039.079.043.125 0 .125-.035 0-.074.051-.09.114-.027.113-.031.109-.082-.004Zm-.899-.223a.445.445 0 0 0-.117-.242c-.105-.121-.105-.133-.004-.094.063.024.125.004.145-.039.019-.043.035-.012.039.07 0 .082.035.153.07.153s.067.031.067.066c0 .039-.036.051-.078.024-.051-.032-.063-.012-.036.062.024.063.012.113-.019.113-.039 0-.067-.05-.067-.113Zm.539-.121c-.199-.23-.234-.309-.21-.48.003-.047-.02-.086-.059-.086a.07.07 0 0 1-.07-.07v-.001c0-.129.132.012.23.242.055.125.141.231.199.231.094 0 .223.301.153.367-.016.02-.125-.07-.243-.203Zm.797-.191c-.004-.071-.074-.188-.156-.258l-.148-.133.148.047c.113.035.152.019.152-.063 0-.07-.031-.089-.085-.058-.051.031-.047.004.011-.067.086-.101.086-.129 0-.179-.078-.051-.074-.063.016-.063.14 0 .195.149.148.399-.031.144-.015.199.051.203.063 0 .066.015.02.047a.35.35 0 0 0-.114.152c-.027.074-.039.066-.043-.027Zm.543-.496c-.054-.036-.066-.106-.039-.184.043-.113.035-.117-.062-.035-.117.094-.145.035-.074-.153.035-.086.05-.089.132-.007.051.05.094.156.094.234 0 .078.031.121.067.102.035-.024.066-.012.066.027 0 .086-.066.09-.188.016h.004Zm.223-1.27c-.109-.125-.109-.129.059-.109.207.023.265.07.207.164-.067.105-.133.09-.266-.055Zm33.68-.352c-.067-.035-.16-.046-.211-.027-.11.039-.114.027-.059-.121.031-.074.07-.086.156-.039.067.035.137.043.161.019.023-.023.046.016.046.086.004.071.024.09.039.043.043-.097.293-.242.29-.168 0 .032-.071.102-.157.164-.105.079-.179.09-.265.043Zm-33.184-.105a.702.702 0 0 1-.195-.133c-.086-.09-.078-.094.062-.051.176.055.309.153.262.192-.016.015-.074.011-.129-.008Zm.797-.609c0-.094.043-.137.137-.137.078 0 .121-.027.101-.063-.019-.031.004-.074.059-.093a.1.1 0 0 1 .129.062c.023.063.011.082-.035.055-.055-.035-.067-.004-.043.09.023.089 0 .152-.063.175-.07.028-.09.008-.062-.058.05-.129.015-.129-.118.004-.093.093-.105.09-.105-.035Zm1.164-.137c-.023-.039-.07-.055-.105-.031-.032.019-.059.007-.059-.028 0-.129.098-.129.254-.004.113.094.129.129.055.129-.055 0-.122-.031-.145-.07v.004Zm.504-.156c-.004-.032.043-.102.101-.161.083-.082.086-.113.016-.16-.051-.027-.062-.054-.027-.054.117-.004.297.211.261.304-.058.153-.148.106-.105-.058.035-.145.031-.145-.105.019-.079.09-.141.141-.141.11Zm-.82-.094c.105-.035.109-.152.004-.152-.055 0-.059-.02-.012-.067s.129-.047.234-.008c.094.035.207.039.258.008.102-.062.199-.023.199.074 0 .039-.031.051-.066.028-.039-.024-.067-.008-.067.031s-.082.066-.183.062a1.607 1.607 0 0 0-.317.024c-.074.015-.097.015-.05 0Zm1.304-.906c0-.051.055-.125.121-.168.149-.094.161.011.02.152-.129.129-.141.129-.141.016Zm.446-.043c-.114-.071-.086-.11.089-.145.071-.012.141.02.161.07.015.055 0 .075-.039.051-.036-.023-.079-.015-.09.02-.016.043-.063.043-.121.004Zm27.078.07c0-.039.027-.066.066-.066.035 0 .067-.028.067-.059 0-.098-.29-.145-.348-.059-.027.047-.055.067-.059.047 0-.015-.015-.082-.027-.148-.016-.082.023-.117.125-.117a.368.368 0 0 0 .227-.079c.046-.042.085-.058.089-.035.024.121.036.16.118.305.074.133.074.168-.004.219-.121.074-.254.07-.254-.008Zm-22.489-1.609c0-.137.149-.2.274-.122.086.059.035.094-.102.067-.031-.004-.086.027-.113.074-.043.067-.059.063-.059-.019Zm.551-.176c-.047-.031-.054-.086-.023-.141.039-.062.066-.066.101-.015a.085.085 0 0 0 .118.031c.039-.024.054-.004.039.047-.036.113-.129.14-.235.078Zm.457-.008c-.07-.047-.054-.082.067-.168.172-.117.179-.16.047-.246-.063-.039-.032-.059.093-.059.102 0 .184-.031.184-.066s.043-.047.098-.024c.054.02.101.067.101.106 0 .035-.043.047-.098.027-.14-.054-.21.094-.078.168.137.078.141.227.008.278-.055.023-.098.004-.098-.039 0-.059-.019-.059-.082.003-.093.094-.121.094-.242.02Zm-2.226-.098a.217.217 0 0 1 .011-.164c.071-.109.235.024.188.149-.051.129-.152.136-.199.015Z"/>
  </g>
</svg>
