<svg xmlns="http://www.w3.org/2000/svg" xml:space="preserve" fill-rule="evenodd" stroke-linejoin="round" stroke-miterlimit="2" clip-rule="evenodd" viewBox="0 0 64 64">
  <g id="white">
    <path fill="#f4f4f4" d="M45.129 15.688h-6.621V20.5H24.82v-4.812h-5.949L31.742 2.45l13.387 13.238Zm-6.621 27.933v4.691h6.621L31.742 61.55 18.871 48.312h5.949V43.5l13.688.121Z"/>
  </g>
  <g id="brown">
    <path fill="#aa7850" d="M23.471 30.769h17.222c1.134 0 1 .762 1.002 1.781v7.388c0 1.019.132 1.912-1.002 1.912H23.471c-1.132 0-1.171-.828-1.171-1.846v-7.388c0-1.019.039-1.847 1.171-1.847Z"/>
  </g>
  <g id="grey">
    <path fill="#acabab" d="M25.502 30.769v-2.771c0-3.223 2.913-5.848 6.497-5.848 3.583 0 6.499 2.625 6.499 5.848v2.771h-3.419l-.003-2.771c-.095-1.606-1.48-2.853-3.077-2.769-1.597-.082-2.98 1.163-3.076 2.769v2.771h-3.421Z"/>
  </g>
</svg>
