<svg xmlns="http://www.w3.org/2000/svg" xml:space="preserve" fill-rule="evenodd" stroke-linejoin="round" stroke-miterlimit="2" clip-rule="evenodd" viewBox="0 0 64 64">
  <g id="red">
    <path fill="#ff2721" d="M22.871 10.895a.804.804 0 0 1 .578-.247h36.844c.211 0 .414.086.566.235a.811.811 0 0 1 .235.566v41.102c0 .441-.36.801-.801.801H23.445a.807.807 0 0 1-.578-.247C20.824 50.98 6.125 35.711 3.129 32.598a.803.803 0 0 1 0-1.11l19.742-20.593Zm1.516 2.582S10.078 28.398 7.121 31.484a.803.803 0 0 0 0 1.11c2.738 2.84 15.152 15.742 17.02 17.687a.799.799 0 0 0 .578.242h32.652a.798.798 0 0 0 .563-.23.798.798 0 0 0 .234-.566V14.273a.8.8 0 0 0-.234-.566.798.798 0 0 0-.563-.23H24.387Zm25.531 24.531c.77.801.719 2.07-.109 2.816l-1.508 1.461a2.126 2.126 0 0 1-2.918.102l-6.317-6.106-6.8 6.574c-.77.797-2.086.844-2.914.102l-1.407-1.355a1.957 1.957 0 0 1 .11-2.817l6.8-6.57-6.316-6.102a1.96 1.96 0 0 1 .106-2.82l1.511-1.457c.77-.801 2.086-.848 2.914-.106l6.317 6.102 6.801-6.566c.769-.801 2.085-.848 2.914-.106l1.402 1.356a1.955 1.955 0 0 1-.106 2.816l-6.796 6.57 6.316 6.106Z"/>
  </g>
</svg>
