<?xml version="1.0" encoding="UTF-8" standalone="no"?>
<!DOCTYPE svg PUBLIC "-//W3C//DTD SVG 1.1//EN" "http://www.w3.org/Graphics/SVG/1.1/DTD/svg11.dtd">
<svg width="100%" height="100%" viewBox="0 0 64 64" version="1.1" xmlns="http://www.w3.org/2000/svg" xmlns:xlink="http://www.w3.org/1999/xlink" xml:space="preserve" xmlns:serif="http://www.serif.com/" style="fill-rule:evenodd;clip-rule:evenodd;stroke-linejoin:round;stroke-miterlimit:2;">
    <g id="surface1">
        <path d="M57.633,32.535C57.633,31.738 57.281,30.941 56.57,30.422L54.051,28.355L54.043,28.352C52.648,27.273 50.688,27.289 49.313,28.395L49.305,28.402L37.227,38.789L37.227,13.223L37.223,13.188C37.039,11.469 35.488,10.203 33.766,10.359L30.223,10.359C28.5,10.203 26.953,11.469 26.77,13.188L26.766,13.223L26.766,38.793L14.684,28.402L14.676,28.395C13.301,27.305 11.348,27.285 9.949,28.348L9.941,28.355L7.418,30.422C6.004,31.457 6.004,33.613 7.418,34.648L29.656,52.855L29.664,52.863C31.039,53.926 32.961,53.926 34.336,52.863L34.344,52.855L56.57,34.648C57.277,34.133 57.633,33.336 57.633,32.535Z" style="fill:#4f8198;fill-rule:nonzero;"/>
    </g>
</svg>
