<svg xmlns="http://www.w3.org/2000/svg" xml:space="preserve" fill-rule="evenodd" stroke-linejoin="round" stroke-miterlimit="2" clip-rule="evenodd" viewBox="0 0 64 64">
  <g id="blue">
    <path fill="#c2f0ff" d="M31.25 54h-21A2.261 2.261 0 0 1 8 51.75a2.261 2.261 0 0 1 2.25-2.25h21a2.261 2.261 0 0 1 2.25 2.25A2.261 2.261 0 0 1 31.25 54Zm-4-8h-17A2.261 2.261 0 0 1 8 43.75a2.261 2.261 0 0 1 2.25-2.25h17a2.261 2.261 0 0 1 2.25 2.25A2.261 2.261 0 0 1 27.25 46Zm-4-8.004h-13A2.261 2.261 0 0 1 8 35.746a2.261 2.261 0 0 1 2.25-2.25h13a2.261 2.261 0 0 1 2.25 2.25 2.261 2.261 0 0 1-2.25 2.25Zm-4-8.004h-9A2.261 2.261 0 0 1 8 27.742a2.261 2.261 0 0 1 2.25-2.25h9a2.261 2.261 0 0 1 2.25 2.25 2.261 2.261 0 0 1-2.25 2.25Zm-4-8.004h-5A2.261 2.261 0 0 1 8 19.738a2.261 2.261 0 0 1 2.25-2.25h5a2.261 2.261 0 0 1 2.25 2.25 2.261 2.261 0 0 1-2.25 2.25Zm-4-7.988h-1A2.261 2.261 0 0 1 8 11.75a2.261 2.261 0 0 1 2.25-2.25h1a2.261 2.261 0 0 1 2.25 2.25A2.261 2.261 0 0 1 11.25 14Z"/>
  </g>
  <g id="white">
    <path fill="#d8c388" fill-rule="nonzero" d="M36 42.169c0-.311.137-.622.415-.824l.982-.806.003-.001a1.496 1.496 0 0 1 1.845.016l.003.003 4.711 4.052V14.712l.002-.014a1.253 1.253 0 0 1 1.348-1.103h1.382a1.251 1.251 0 0 1 1.347 1.103l.002.014V44.61l4.712-4.053.003-.003a1.511 1.511 0 0 1 1.844-.018l.003.003.984.806a1.03 1.03 0 0 1 0 1.648l-8.674 7.102-.003.003a1.492 1.492 0 0 1-1.822 0l-.003-.003-8.669-7.102a1.013 1.013 0 0 1-.415-.824Z"/>
  </g>
</svg>
