<svg xmlns="http://www.w3.org/2000/svg" xml:space="preserve" fill-rule="evenodd" stroke-linejoin="round" stroke-miterlimit="2" clip-rule="evenodd" viewBox="0 0 64 64">
  <g id="orange">
    <path fill="#d8c388" d="M55.7 22.392c-.228.23-.552.337-.872.288l-1.261-.124h-.003a1.494 1.494 0 0 1-1.289-1.312l.001-.005-.465-6.174L37 29.875l-.01.009a1.249 1.249 0 0 1-1.728-.173l-.973-.973a1.248 1.248 0 0 1-.172-1.727l.009-.011 14.811-14.811-6.176-.465h-.005a1.506 1.506 0 0 1-1.312-1.286v-.004l-.125-1.261a1.028 1.028 0 0 1 1.162-1.162l11.113 1.106h.005c.671.088 1.2.616 1.285 1.285v.005l1.104 11.111c.054.337-.068.654-.288.874ZM8.301 41.609c.218-.219.534-.341.871-.289l1.261.124h.003a1.494 1.494 0 0 1 1.289 1.312l-.001.005.465 6.174L27 34.125l.01-.009a1.249 1.249 0 0 1 1.728.173l.973.973c.517.431.593 1.204.172 1.727l-.009.011-14.811 14.811 6.176.465h.005c.677.08 1.219.611 1.312 1.286v.004l.125 1.261a1.028 1.028 0 0 1-1.162 1.162l-11.113-1.106h-.005a1.494 1.494 0 0 1-1.285-1.285v-.005L8.012 42.482c-.051-.32.057-.646.289-.873Z"/>
  </g>
</svg>
