<svg xmlns="http://www.w3.org/2000/svg" xml:space="preserve" fill-rule="evenodd" stroke-linejoin="round" stroke-miterlimit="2" clip-rule="evenodd" viewBox="0 0 64 64">
  <g id="blue">
    <path fill="#73a7c7" fill-rule="nonzero" d="M57.633 31.469a2.61 2.61 0 0 1-1.063 2.117l-2.519 2.062-.008.004a3.819 3.819 0 0 1-4.73-.043l-.008-.007-12.078-10.387v25.566l-.004.035a3.192 3.192 0 0 1-3.457 2.829h-3.543a3.184 3.184 0 0 1-3.453-2.829l-.004-.035v-25.57L14.684 35.602l-.008.007a3.852 3.852 0 0 1-4.727.047l-.008-.008-2.527-2.062C6 32.547 6 30.391 7.414 29.355l22.238-18.207.008-.007a3.838 3.838 0 0 1 4.676 0l.008.007 22.222 18.207a2.598 2.598 0 0 1 1.063 2.114h.004Z"/>
  </g>
</svg>
