<svg xmlns="http://www.w3.org/2000/svg" xml:space="preserve" fill-rule="evenodd" stroke-linejoin="round" stroke-miterlimit="2" clip-rule="evenodd" viewBox="0 0 64 64">
  <g id="orange">
    <path fill="#d8c388" d="m38.455 29.454.004-.001.014-.002.027-.001h15.365l-3.936-4.577-.014-.014-.01-.014a1.89 1.89 0 0 1-.024-2.296.413.413 0 0 0-.022.035c-.012.022.092-.108.05-.066l-.018.019.858-1.048a1.385 1.385 0 0 1 2.183.001l7.568 9.243.016.017a1.876 1.876 0 0 1-.001 2.296l-.014.016-7.565 9.234c-.267.368-.68.552-1.095.552a1.354 1.354 0 0 1-1.091-.545l-.843-1.028-.023-.027a1.88 1.88 0 0 1 .021-2.302l.01-.011 3.947-4.59H38.5l-.015-.001a.197.197 0 0 1-.034-.004l.004.002a1.62 1.62 0 0 1-1.417-1.718V31.17a1.62 1.62 0 0 1 1.417-1.716Zm0 0c-.018.002-.09.009 0 0ZM25.5 29.449l.015.001h.014l.016.001a1.623 1.623 0 0 1 1.417 1.718l-.001 1.447.001.007a1.608 1.608 0 0 1-1.419 1.717l-.002.001a.369.369 0 0 1-.047 0l.006.003H10.043l3.938 4.579.011.012.01.014c.531.673.536 1.627.014 2.308l-.014.017-.844 1.029a1.383 1.383 0 0 1-2.183.001L3.406 33.06l-.015-.016-.007-.01a1.878 1.878 0 0 1 0-2.276c-.026.034.067-.071.025-.03l7.562-9.232a1.349 1.349 0 0 1 1.098-.549c.41-.001.82.182 1.088.544L14 22.519c.011.01.021.022.029.035l.009.011c.504.679.49 1.619-.036 2.282l-.025.029-3.932 4.573H25.5Zm0 0c-.083 0-.029 0 0 0Zm8.897 8.95c-.002-.017-.01-.092 0 0Zm0 0a.008.008 0 0 1 .001.003l.003.041v15.365l4.577-3.935.014-.014.013-.011a1.89 1.89 0 0 1 2.296-.023.246.246 0 0 0-.034-.022c-.022-.012.108.091.066.049l-.019-.017 1.047.857a1.383 1.383 0 0 1-.001 2.183l-9.242 7.568-.017.016a1.875 1.875 0 0 1-2.296-.001l-.016-.013-9.234-7.566a1.346 1.346 0 0 1-.553-1.095 1.357 1.357 0 0 1 .545-1.091l1.029-.843.026-.022a1.88 1.88 0 0 1 2.302.02l.011.01 4.59 3.948.001-15.363.001-.014c0-.012.001-.023.004-.034l-.003.004a1.623 1.623 0 0 1 1.719-1.418l1.446.001h.007a1.62 1.62 0 0 1 1.717 1.417Zm.004-12.956v.029l-.002.016a1.62 1.62 0 0 1-1.718 1.417l-1.446-.001-.008.001a1.607 1.607 0 0 1-1.717-1.419v-.002a.177.177 0 0 1 0-.046l-.003.005V9.986l-4.58 3.938-.012.011-.013.011a1.885 1.885 0 0 1-2.308.014l-.017-.014-1.03-.845a1.383 1.383 0 0 1 0-2.182l9.244-7.57.015-.014.011-.008a1.877 1.877 0 0 1 2.275 0c-.034-.025.072.067.03.026l9.232 7.561c.349.256.554.666.549 1.098.001.41-.181.82-.543 1.089l-1.028.843a.245.245 0 0 1-.035.029l-.011.008a1.88 1.88 0 0 1-2.283-.035l-.028-.026-4.573-3.932-.001 15.455Zm0 0c0-.029.001-.083 0 0Z"/>
    <path fill="#f16822" d="M34.215 29.696a3.25 3.25 0 1 1-4.596 4.595 3.25 3.25 0 0 1 4.596-4.595Z"/>
  </g>
</svg>
