<svg xmlns="http://www.w3.org/2000/svg" xml:space="preserve" fill-rule="evenodd" stroke-linejoin="round" stroke-miterlimit="2" clip-rule="evenodd" viewBox="0 0 64 64">
  <g id="orange">
    <g>
      <path fill="#d8c388" fill-rule="nonzero" d="M8 42.169c0-.311.137-.622.415-.824l.982-.806.003-.001a1.496 1.496 0 0 1 1.845.016l.003.003 4.711 4.052V14.712l.002-.014a1.253 1.253 0 0 1 1.348-1.103h1.382a1.251 1.251 0 0 1 1.347 1.103l.002.014V44.61l4.712-4.053.003-.003a1.511 1.511 0 0 1 1.844-.018l.003.003.984.806a1.03 1.03 0 0 1 0 1.648l-8.674 7.102-.003.003a1.492 1.492 0 0 1-1.822 0l-.003-.003-8.669-7.102A1.013 1.013 0 0 1 8 42.169Z"/>
    </g>
  </g>
  <g id="blue">
    <path fill="#c2f0ff" d="M32.75 9.5h21A2.261 2.261 0 0 1 56 11.75 2.261 2.261 0 0 1 53.75 14h-21a2.261 2.261 0 0 1-2.25-2.25 2.261 2.261 0 0 1 2.25-2.25Zm4 8h17A2.261 2.261 0 0 1 56 19.75 2.261 2.261 0 0 1 53.75 22h-17a2.261 2.261 0 0 1-2.25-2.25 2.261 2.261 0 0 1 2.25-2.25Zm4 8.004h13a2.261 2.261 0 0 1 2.25 2.25 2.261 2.261 0 0 1-2.25 2.25h-13a2.261 2.261 0 0 1-2.25-2.25 2.261 2.261 0 0 1 2.25-2.25Zm4 8.004h9a2.261 2.261 0 0 1 2.25 2.25 2.261 2.261 0 0 1-2.25 2.25h-9a2.261 2.261 0 0 1-2.25-2.25 2.261 2.261 0 0 1 2.25-2.25Zm4 8.004h5a2.261 2.261 0 0 1 2.25 2.25 2.261 2.261 0 0 1-2.25 2.25h-5a2.261 2.261 0 0 1-2.25-2.25 2.261 2.261 0 0 1 2.25-2.25Zm4 7.988h1A2.261 2.261 0 0 1 56 51.75 2.261 2.261 0 0 1 53.75 54h-1a2.261 2.261 0 0 1-2.25-2.25 2.261 2.261 0 0 1 2.25-2.25Z"/>
  </g>
</svg>
