<svg xmlns="http://www.w3.org/2000/svg" xml:space="preserve" fill-rule="evenodd" stroke-linejoin="round" stroke-miterlimit="2" clip-rule="evenodd" viewBox="0 0 64 64">
  <g id="blue">
    <path fill="#4f8198" fill-rule="nonzero" d="M57.633 32.535c0-.797-.352-1.594-1.063-2.113l-2.519-2.067-.008-.003a3.823 3.823 0 0 0-4.73.043l-.008.007-12.078 10.387V13.223l-.004-.035a3.197 3.197 0 0 0-3.457-2.829h-3.543a3.192 3.192 0 0 0-3.453 2.829l-.004.035v25.57L14.684 28.402l-.008-.007a3.863 3.863 0 0 0-4.727-.047l-.008.007-2.523 2.067c-1.414 1.035-1.414 3.191 0 4.226l22.238 18.207.008.008a3.82 3.82 0 0 0 4.672 0l.008-.008L56.57 34.648a2.595 2.595 0 0 0 1.063-2.113Z"/>
  </g>
</svg>
