<svg xmlns="http://www.w3.org/2000/svg" xml:space="preserve" fill-rule="evenodd" stroke-linejoin="round" stroke-miterlimit="2" clip-rule="evenodd" viewBox="0 0 64 64">
  <g id="blue">
    <path fill="#c2f0ff" d="M32.75 54h21A2.272 2.272 0 0 0 56 51.75a2.272 2.272 0 0 0-2.25-2.25h-21a2.272 2.272 0 0 0-2.25 2.25A2.272 2.272 0 0 0 32.75 54Zm4-8h17A2.272 2.272 0 0 0 56 43.75a2.272 2.272 0 0 0-2.25-2.25h-17a2.272 2.272 0 0 0-2.25 2.25A2.272 2.272 0 0 0 36.75 46Zm4-8.004h13a2.272 2.272 0 0 0 2.25-2.25 2.272 2.272 0 0 0-2.25-2.25h-13a2.272 2.272 0 0 0-2.25 2.25 2.272 2.272 0 0 0 2.25 2.25Zm4-8.004h9a2.272 2.272 0 0 0 2.25-2.25 2.272 2.272 0 0 0-2.25-2.25h-9a2.272 2.272 0 0 0-2.25 2.25 2.272 2.272 0 0 0 2.25 2.25Zm4-8.004h5a2.272 2.272 0 0 0 2.25-2.25 2.272 2.272 0 0 0-2.25-2.25h-5a2.272 2.272 0 0 0-2.25 2.25 2.272 2.272 0 0 0 2.25 2.25Zm4-7.988h1A2.272 2.272 0 0 0 56 11.75a2.272 2.272 0 0 0-2.25-2.25h-1a2.272 2.272 0 0 0-2.25 2.25A2.272 2.272 0 0 0 52.75 14Z"/>
  </g>
  <g id="orange">
    <path fill="#d8c388" fill-rule="nonzero" d="M8 21.829c0 .311.137.622.415.824l.982.806.003.001c.543.42 1.309.413 1.845-.016l.003-.003 4.711-4.052v29.897l.002.014a1.258 1.258 0 0 0 1.348 1.103h1.382a1.256 1.256 0 0 0 1.347-1.103l.002-.014V19.388l4.712 4.053.003.003c.537.423 1.298.43 1.844.018l.003-.003.984-.806a1.03 1.03 0 0 0 0-1.648l-8.674-7.102-.003-.003a1.497 1.497 0 0 0-1.822 0l-.003.003-8.669 7.102a1.015 1.015 0 0 0-.415.824Z"/>
  </g>
</svg>
