<svg xmlns="http://www.w3.org/2000/svg" xml:space="preserve" fill-rule="evenodd" stroke-linejoin="round" stroke-miterlimit="2" clip-rule="evenodd" viewBox="0 0 64 64">
  <g id="red">
    <path fill="#ff2721" fill-rule="nonzero" d="M31.461 6.363c.797 0 1.594.356 2.113 1.063l2.067 2.519.004.008a3.827 3.827 0 0 1-.043 4.731l-.008.007L25.207 26.77h25.566l.036.003a3.197 3.197 0 0 1 2.828 3.457v3.543a3.194 3.194 0 0 1-2.828 3.454l-.036.003h-25.57l10.391 12.083.008.007a3.865 3.865 0 0 1 .046 4.727l-.007.008-2.067 2.523c-1.035 1.418-3.191 1.418-4.226 0L11.141 34.344l-.008-.008a3.827 3.827 0 0 1 0-4.676l.008-.008L29.348 7.43a2.584 2.584 0 0 1 2.113-1.063v-.004Z"/>
  </g>
</svg>
