<svg xmlns="http://www.w3.org/2000/svg" xml:space="preserve" fill-rule="evenodd" stroke-linejoin="round" stroke-miterlimit="2" clip-rule="evenodd" viewBox="0 0 64 64">
  <g id="green">
    <path fill="#6aff4e" fill-rule="nonzero" d="M32.527 6.363c-.797 0-1.593.356-2.113 1.063l-2.066 2.519-.004.008a3.826 3.826 0 0 0 .043 4.731l.008.007L38.781 26.77H13.215l-.035.003a3.196 3.196 0 0 0-2.828 3.457v3.543a3.192 3.192 0 0 0 2.828 3.454l.035.003h25.57l-10.39 12.083-.008.007a3.863 3.863 0 0 0-.047 4.727l.008.008 2.066 2.523c1.035 1.418 3.191 1.418 4.227 0l18.207-22.234.007-.008a3.838 3.838 0 0 0 0-4.676l-.007-.008L34.641 7.43a2.593 2.593 0 0 0-2.114-1.063v-.004Z"/>
  </g>
</svg>
