<svg xmlns="http://www.w3.org/2000/svg" xml:space="preserve" fill-rule="evenodd" stroke-linejoin="round" stroke-miterlimit="2" clip-rule="evenodd" viewBox="0 0 64 64">
  <g id="blue">
    <path fill="#73a7c7" d="M34.859 29.252c-1.144-.174-2.308-.468-3.418-.5-1.807-.05-3.336.627-5.102.697-1.148.05-2.317-.3-3.442-.448-1.794-.231-3.578-.12-5.163.641a.592.592 0 0 1-.791-.277.581.581 0 0 1 .278-.784c1.793-.862 3.804-1.009 5.829-.751 1.06.139 2.154.484 3.238.443 1.798-.074 3.351-.752 5.186-.701 1.732.051 3.6.784 5.305.603.875-.092 1.686-.378 2.502-.644.913-.296 1.831-.563 2.821-.578 1.502-.027 2.938.527 4.44.578a.588.588 0 0 1 .574.607.598.598 0 0 1-.616.573c-1.478-.051-2.896-.604-4.379-.582-.866.019-1.668.263-2.469.527-.9.29-1.789.594-2.748.696a6.56 6.56 0 0 1-1.122.008c1.168.198 2.281.594 3.457.784 1.399.231 2.692.065 4.092.042a.585.585 0 0 1 .602.577.597.597 0 0 1-.579.604c-1.474.022-2.835.184-4.305-.056-1.534-.253-2.942-.875-4.531-.89-1.14-.014-2.239.231-3.332.457-1.187.245-2.373.475-3.591.41-1.529-.078-2.993-.383-4.458-.554-1.38-.16-2.756-.211-4.198.195a.594.594 0 0 1-.732-.406.595.595 0 0 1 .409-.728c1.602-.453 3.131-.416 4.66-.236 1.437.175 2.878.47 4.38.548 1.116.061 2.2-.161 3.289-.387 1.177-.239 2.358-.493 3.582-.479.112.001.222.005.332.011Zm-18.746-1.878a.59.59 0 1 1-.565-1.038c1.45-.788 3.479-1.305 5.217-.871.676.17 1.274.443 1.886.673.528.198 1.065.36 1.714.35.95-.014 1.872-.268 2.795-.526 1.009-.291 2.02-.59 3.062-.682 1.112-.097 2.081.157 3.035.456.835.259 1.655.549 2.59.563 1.085.018 2.108-.239 3.128-.507 1.107-.295 2.215-.609 3.378-.673.871-.051 1.733.387 2.539.595 1.075.281 2.071.359 3.184.184a.595.595 0 0 1 .681.484.595.595 0 0 1-.491.678c-1.284.207-2.433.12-3.675-.203-.695-.18-1.422-.604-2.173-.562-1.08.06-2.108.359-3.137.636-1.126.3-2.252.567-3.453.549-1.055-.014-1.982-.328-2.922-.619-.812-.253-1.631-.488-2.577-.406-.969.084-1.905.374-2.845.641-1.024.292-2.048.559-3.1.573-.811.014-1.492-.181-2.151-.429-.574-.212-1.125-.471-1.76-.632-1.451-.364-3.146.101-4.36.766Z"/>
    <path fill="#4bc3f1" d="M25.287 24.075h-3.526a1.645 1.645 0 0 1-1.215-2.753l5.301-5.813a1.642 1.642 0 0 1 2.43-.001l5.302 5.813a1.646 1.646 0 0 1-1.215 2.754h-3.527l.005 13.597v.03c-.1 6.044 3.753 10.726 9.086 11.984 3.665.865 7.988.118 12.227-2.761a1.774 1.774 0 1 1 1.994 2.936c-5.203 3.535-10.536 4.342-15.036 3.28-6.907-1.629-11.942-7.655-11.821-15.48l-.005-13.586Z"/>
  </g>
  <g id="grey">
    <path fill="#929090" d="M7.4 10.525h49.2a1.776 1.776 0 0 1 1.517 2.696L45.82 33.481c-.321.53-.897.854-1.517.854h-24.6c-.62 0-1.195-.324-1.517-.854L5.883 13.221A1.774 1.774 0 0 1 7.4 10.525Zm3.155 3.55 10.147 16.71h22.602l10.142-16.71H10.555Z"/>
    <path fill="#b5b5b5" d="m42.12 27.299.252 1.21c.406.082.806.189 1.2.322l.823-.927a.59.59 0 0 1 .683-.147c.652.292 1.264.648 1.842 1.057a.592.592 0 0 1 .219.669l-.393 1.173c.312.272.607.564.88.873l1.182-.39a.59.59 0 0 1 .665.217c.411.575.768 1.184 1.063 1.833a.588.588 0 0 1-.148.687l-.929.817c.132.389.239.787.32 1.189l1.219.251a.59.59 0 0 1 .468.52 10.83 10.83 0 0 1 0 2.115.59.59 0 0 1-.469.521l-1.218.248a9.52 9.52 0 0 1-.32 1.189l.93.822a.588.588 0 0 1 .146.688 10.835 10.835 0 0 1-1.064 1.827.59.59 0 0 1-.662.216l-1.182-.388c-.273.31-.568.602-.88.872l.392 1.172a.592.592 0 0 1-.216.667c-.579.415-1.192.765-1.845 1.058a.59.59 0 0 1-.683-.146l-.823-.925c-.394.132-.794.24-1.2.321l-.252 1.212a.59.59 0 0 1-.521.467c-.705.069-1.415.069-2.125 0a.59.59 0 0 1-.521-.468l-.248-1.211a9.736 9.736 0 0 1-1.2-.321l-.828.926a.59.59 0 0 1-.684.144 10.906 10.906 0 0 1-1.843-1.057.59.59 0 0 1-.215-.668l.394-1.17a9.035 9.035 0 0 1-.878-.872l-1.183.387a.59.59 0 0 1-.659-.213 10.48 10.48 0 0 1-1.066-1.83.589.589 0 0 1 .145-.688l.928-.821a9.58 9.58 0 0 1-.32-1.19l-1.22-.248a.588.588 0 0 1-.469-.522 10.969 10.969 0 0 1 0-2.113.59.59 0 0 1 .468-.521l1.221-.251c.081-.402.188-.8.32-1.189l-.927-.817a.59.59 0 0 1-.147-.687c.295-.65.648-1.26 1.065-1.836a.59.59 0 0 1 .663-.214l1.182.39c.272-.309.565-.601.878-.873l-.395-1.171a.591.591 0 0 1 .218-.671 11.224 11.224 0 0 1 1.84-1.056.59.59 0 0 1 .685.145l.826.928c.393-.133.794-.24 1.201-.322l.248-1.208a.59.59 0 0 1 .521-.468c.71-.069 1.42-.069 2.125 0a.59.59 0 0 1 .521.466Zm-1.065.676a9.945 9.945 0 0 0-1.036 0l-.239 1.163a.592.592 0 0 1-.485.464 8.482 8.482 0 0 0-1.751.47.59.59 0 0 1-.655-.158l-.797-.895c-.307.156-.606.328-.895.514l.38 1.128a.591.591 0 0 1-.192.651 8.13 8.13 0 0 0-1.278 1.271.59.59 0 0 1-.645.191l-1.142-.376a9.33 9.33 0 0 0-.516.888l.894.787a.592.592 0 0 1 .16.656 8.429 8.429 0 0 0-.468 1.74.59.59 0 0 1-.464.488l-1.177.242c-.017.34-.017.681 0 1.023l1.176.239a.588.588 0 0 1 .465.488c.092.595.25 1.179.468 1.739a.591.591 0 0 1-.159.656l-.894.792c.156.304.327.6.514.885l1.145-.375a.59.59 0 0 1 .644.193c.374.467.8.891 1.275 1.264a.59.59 0 0 1 .194.652l-.381 1.131c.289.187.589.358.896.513l.798-.892a.59.59 0 0 1 .65-.158 8.536 8.536 0 0 0 1.751.466.59.59 0 0 1 .489.464l.24 1.168c.345.018.691.018 1.035 0l.243-1.169a.59.59 0 0 1 .489-.463 8.633 8.633 0 0 0 1.752-.467.591.591 0 0 1 .65.16l.794.891c.308-.155.606-.325.895-.513l-.379-1.132a.59.59 0 0 1 .194-.649 8.067 8.067 0 0 0 1.279-1.267c.153-.192.41-.268.644-.192l1.141.374c.187-.285.359-.58.515-.884l-.896-.792a.59.59 0 0 1-.159-.658c.22-.56.375-1.145.47-1.74a.59.59 0 0 1 .465-.485l1.172-.239a9.697 9.697 0 0 0 0-1.023l-1.173-.242a.592.592 0 0 1-.464-.485 8.46 8.46 0 0 0-.47-1.741.588.588 0 0 1 .16-.658l.896-.788a9.898 9.898 0 0 0-.516-.887l-1.14.376a.591.591 0 0 1-.645-.19 8.35 8.35 0 0 0-1.282-1.274.59.59 0 0 1-.191-.647l.378-1.13a9.86 9.86 0 0 0-.894-.514l-.794.894a.588.588 0 0 1-.654.159 8.576 8.576 0 0 0-1.752-.47.593.593 0 0 1-.485-.462l-.243-1.165Zm-.519 7.076a2.665 2.665 0 0 1 2.671 2.66 2.665 2.665 0 0 1-2.671 2.656 2.665 2.665 0 0 1-2.665-2.656 2.664 2.664 0 0 1 2.665-2.66Zm0 1.18c-.818 0-1.485.662-1.485 1.48 0 .814.667 1.476 1.485 1.476.823 0 1.491-.662 1.491-1.476 0-.818-.668-1.48-1.491-1.48Z"/>
    <path fill="#acabab" d="M41.542 27.42a10.394 10.394 0 0 0-2.011 0l-.329 1.599a9.116 9.116 0 0 0-1.872.503l-1.093-1.227c-.611.277-1.196.614-1.743 1.001l.524 1.554c-.51.406-.969.863-1.371 1.364l-1.562-.515a9.978 9.978 0 0 0-1.006 1.734l1.229 1.083a8.955 8.955 0 0 0-.501 1.863l-1.613.332a10.44 10.44 0 0 0 0 2l1.613.328a8.89 8.89 0 0 0 .501 1.863l-1.229 1.088a9.963 9.963 0 0 0 1.006 1.728l1.562-.511a8.4 8.4 0 0 0 1.371 1.36l-.524 1.555c.547.392 1.132.723 1.743 1L37.33 45.9c.603.23 1.233.401 1.872.498l.329 1.604c.672.065 1.344.065 2.011 0l.334-1.604a9.189 9.189 0 0 0 1.872-.498l1.088 1.222a10.027 10.027 0 0 0 1.743-1l-.52-1.555c.506-.401.97-.857 1.373-1.36l1.561.511c.389-.539.727-1.12 1.006-1.728l-1.233-1.088c.236-.6.402-1.226.504-1.863l1.609-.328a10.28 10.28 0 0 0 0-2l-1.609-.332a9.025 9.025 0 0 0-.504-1.863l1.233-1.083a10.307 10.307 0 0 0-1.006-1.734l-1.561.515a8.945 8.945 0 0 0-1.373-1.364l.52-1.554a10.364 10.364 0 0 0-1.743-1.001l-1.088 1.227a9.202 9.202 0 0 0-1.872-.503l-.334-1.599Zm-1.006 8.221c1.15 0 2.081.927 2.081 2.07a2.075 2.075 0 0 1-2.081 2.066 2.074 2.074 0 0 1-2.075-2.066c0-1.143.931-2.07 2.075-2.07Z"/>
  </g>
</svg>
