<?xml version="1.0" encoding="UTF-8" standalone="no"?>
<!DOCTYPE svg PUBLIC "-//W3C//DTD SVG 1.1//EN" "http://www.w3.org/Graphics/SVG/1.1/DTD/svg11.dtd">
<svg width="100%" height="100%" viewBox="0 0 64 64" version="1.1" xmlns="http://www.w3.org/2000/svg" xmlns:xlink="http://www.w3.org/1999/xlink" xml:space="preserve" xmlns:serif="http://www.serif.com/" style="fill-rule:evenodd;clip-rule:evenodd;stroke-linecap:round;stroke-linejoin:round;stroke-miterlimit:1.5;">
    <g id="surface1">
        <path d="M16.113,27.374C15.826,27.531 15.469,27.424 15.312,27.139C15.154,26.852 15.261,26.493 15.548,26.336C16.998,25.548 19.027,25.031 20.765,25.465C21.441,25.635 22.039,25.908 22.651,26.138C23.179,26.336 23.716,26.498 24.365,26.488C25.315,26.474 26.237,26.22 27.16,25.962C28.169,25.671 29.18,25.372 30.222,25.28C31.334,25.183 32.303,25.437 33.257,25.736C34.092,25.995 34.912,26.285 35.847,26.299C36.932,26.317 37.955,26.06 38.975,25.792C40.082,25.497 41.19,25.183 42.353,25.119C43.224,25.068 44.086,25.506 44.892,25.714C45.967,25.995 46.963,26.073 48.076,25.898C48.395,25.843 48.701,26.063 48.757,26.382C48.808,26.704 48.585,27.009 48.266,27.06C46.982,27.267 45.833,27.18 44.591,26.857C43.896,26.677 43.169,26.253 42.418,26.295C41.338,26.355 40.31,26.654 39.281,26.931C38.155,27.231 37.029,27.498 35.828,27.48C34.773,27.466 33.846,27.152 32.906,26.861C32.094,26.608 31.275,26.373 30.329,26.455C29.36,26.539 28.424,26.829 27.484,27.096C26.46,27.388 25.436,27.655 24.384,27.669C23.573,27.683 22.892,27.488 22.233,27.24C21.659,27.028 21.108,26.769 20.473,26.608C19.022,26.244 17.327,26.709 16.113,27.374Z" style="fill:#73a7c7;"/>
        <path d="M17.734,29.642C17.438,29.785 17.087,29.66 16.943,29.365C16.798,29.075 16.924,28.719 17.221,28.581C19.014,27.719 21.025,27.572 23.05,27.83C24.11,27.969 25.204,28.314 26.288,28.273C28.086,28.199 29.639,27.521 31.474,27.572C33.206,27.623 35.074,28.356 36.779,28.175C37.654,28.083 38.465,27.797 39.281,27.531C40.194,27.235 41.112,26.968 42.102,26.953C43.604,26.926 45.04,27.48 46.542,27.531C46.871,27.539 47.126,27.812 47.116,28.138C47.102,28.467 46.829,28.719 46.5,28.711C45.022,28.66 43.604,28.107 42.121,28.129C41.255,28.148 40.453,28.392 39.652,28.656C38.752,28.946 37.863,29.25 36.904,29.352C35.148,29.531 33.225,28.803 31.441,28.752C29.634,28.702 28.105,29.379 26.339,29.449C25.191,29.499 24.022,29.149 22.897,29.001C21.103,28.77 19.319,28.881 17.734,29.642Z" style="fill:#73a7c7;"/>
        <path d="M18.939,30.929C18.629,31.021 18.3,30.836 18.207,30.523C18.12,30.209 18.305,29.887 18.616,29.795C20.218,29.342 21.747,29.379 23.276,29.559C24.713,29.734 26.154,30.029 27.656,30.107C28.772,30.168 29.856,29.946 30.945,29.72C32.122,29.481 33.303,29.227 34.527,29.241C36.176,29.255 37.65,29.887 39.239,30.144C40.638,30.375 41.931,30.209 43.331,30.186C43.66,30.177 43.929,30.439 43.933,30.763C43.937,31.089 43.679,31.357 43.354,31.367C41.88,31.389 40.519,31.551 39.049,31.311C37.515,31.058 36.107,30.436 34.518,30.421C33.378,30.407 32.279,30.652 31.186,30.878C29.999,31.123 28.813,31.353 27.595,31.288C26.066,31.21 24.602,30.905 23.137,30.734C21.757,30.574 20.381,30.523 18.939,30.929Z" style="fill:#73a7c7;"/>
        <path d="M27.062,16.617L32.364,22.43L21.761,22.43L27.062,16.617Z" style="fill:#4bc3f1;stroke:#4bc3f1;stroke-width:3.29px;"/>
        <path d="M27.062,23.622L27.067,37.673C26.877,49.237 39.35,56.411 51.152,48.393" style="fill:none;fill-rule:nonzero;stroke:#4bc3f1;stroke-width:3.55px;"/>
        <path d="M7.4,12.3L56.6,12.3L44.303,32.56L19.703,32.56L7.4,12.3Z" style="fill:none;fill-rule:nonzero;stroke:#929090;stroke-width:3.55px;"/>
        <path d="M41.542,27.42C40.875,27.355 40.203,27.355 39.531,27.42L39.202,29.019C38.563,29.121 37.933,29.287 37.33,29.522L36.237,28.295C35.626,28.572 35.041,28.909 34.494,29.296L35.018,30.85C34.508,31.256 34.049,31.713 33.647,32.214L32.085,31.699C31.691,32.243 31.358,32.819 31.079,33.433L32.308,34.516C32.075,35.119 31.905,35.743 31.807,36.379L30.194,36.711C30.13,37.374 30.13,38.043 30.194,38.711L31.807,39.039C31.905,39.676 32.075,40.302 32.308,40.902L31.079,41.99C31.358,42.598 31.691,43.179 32.085,43.718L33.647,43.207C34.049,43.71 34.508,44.166 35.018,44.567L34.494,46.122C35.041,46.514 35.626,46.845 36.237,47.122L37.33,45.9C37.933,46.13 38.563,46.301 39.202,46.398L39.531,48.002C40.203,48.067 40.875,48.067 41.542,48.002L41.876,46.398C42.515,46.301 43.14,46.13 43.748,45.9L44.836,47.122C45.453,46.845 46.032,46.514 46.579,46.122L46.059,44.567C46.565,44.166 47.029,43.71 47.432,43.207L48.993,43.718C49.382,43.179 49.72,42.598 49.999,41.99L48.766,40.902C49.002,40.302 49.168,39.676 49.27,39.039L50.879,38.711C50.944,38.043 50.944,37.374 50.879,36.711L49.27,36.379C49.168,35.743 49.002,35.119 48.766,34.516L49.999,33.433C49.72,32.819 49.382,32.243 48.993,31.699L47.432,32.214C47.029,31.713 46.565,31.256 46.059,30.85L46.579,29.296C46.032,28.909 45.453,28.572 44.836,28.295L43.748,29.522C43.14,29.287 42.515,29.121 41.876,29.019L41.542,27.42ZM40.536,35.641C41.686,35.641 42.617,36.568 42.617,37.711C42.617,38.849 41.686,39.777 40.536,39.777C39.392,39.777 38.461,38.849 38.461,37.711C38.461,36.568 39.392,35.641 40.536,35.641Z" style="fill:#acabab;stroke:#b5b5b5;stroke-width:1.18px;"/>
    </g>
</svg>
