<svg xmlns="http://www.w3.org/2000/svg" xml:space="preserve" fill-rule="evenodd" stroke-linejoin="round" stroke-miterlimit="2" clip-rule="evenodd" viewBox="0 0 64 64">
  <g id="blue" fill-rule="nonzero">
    <path fill="#3152ff" d="M59.2 0H4.8C2.15 0 0 2.15 0 4.8v54.4C0 61.85 2.15 64 4.8 64h54.4c2.65 0 4.8-2.15 4.8-4.8V4.8C64 2.15 61.85 0 59.2 0Z"/>
    <path fill="#001626" d="M54.144 61.853H9.942a7.754 7.754 0 0 1-7.753-7.754V9.901a7.754 7.754 0 0 1 7.753-7.754h41.3L61.894 12.8v41.299a7.754 7.754 0 0 1-7.753 7.754h.003Z"/>
  </g>
  <g id="white">
    <path fill="#fff" fill-rule="nonzero" d="m31.04 51.35-14.815-8.512a2.948 2.948 0 0 1-1.475-2.549v-6.67l16.29 9.361v8.37Zm-9.086-25.094 9.086-5.239V12.65l-14.825 8.6a2.947 2.947 0 0 0-1.465 2.544v6.449c0 .753.4 1.452 1.049 1.833l6.15 3.614.005-9.434ZM32.96 21.02l16.29 9.36v-6.67a2.945 2.945 0 0 0-1.476-2.55L32.96 12.65v8.37Zm9.086 16.722-9.086 5.241v8.367l14.825-8.6a2.949 2.949 0 0 0 1.465-2.544v-6.449c0-.753-.4-1.452-1.049-1.833L42.05 28.31l-.004 9.432Z"/>
  </g>
</svg>
