<svg xmlns="http://www.w3.org/2000/svg" xml:space="preserve" fill-rule="evenodd" stroke-linejoin="round" stroke-miterlimit="2" clip-rule="evenodd" viewBox="0 0 64 64">
  <g id="grey">
    <path fill="#b6b6b6" d="M49.947 56.56a2.016 2.016 0 0 1-1.95 1.289 3.034 3.034 0 0 1-2.294-1.297L47.11 9.529l-3.952 2.647-3.804 5.177-1.946 1.377s-3.074.267-4.146-.804c-1.073-1.073 0-3.431 0-3.431l2.302-1.743 5.444-2.009 7.663-4.593 1.276 1.07v49.34Z"/>
    <path fill="#909090" d="M49.947 56.56c-.308.8-.255.859-1.242 1.187-.877.291-.864-1.23-.783-2.476L49.33 8.248l-6.172 3.928-3.804 5.177-1.946 1.377s-3.074.267-4.146-.804c-1.073-1.073 2.949.125 4.034-.294 1.033-.398 2.472-2.218 2.472-2.218l2.487-3.717 7.313-4.795.379.318v49.34Z"/>
    <path fill="#6e6e6e" d="M27.349 50.327a.585.585 0 0 1-.616-.994l7.643-4.566.013-.008.682-.397 2.604-6.839a.582.582 0 0 1 .699-.438.582.582 0 0 1 .439.699l-2.66 7.087a.59.59 0 0 1-.276.374l-.894.52-7.634 4.562Zm-8.581-7.34a.585.585 0 0 1-.615-.993l7.642-4.567.014-.007.681-.397 2.447-6.931a.585.585 0 0 1 1.139.262l-2.504 7.177a.585.585 0 0 1-.275.374l-.893.519-7.636 4.563Z"/>
  </g>
  <g id="brown">
    <path fill="#66503a" d="M30.985 57.647c-.762-.438-.44-1.236-.648-2.293l-.247-3.901 1.895 1.59.159 2.716c.145.966-.204 1.57-1.159 1.888Zm0 0c.029.019-.032.01 0 0ZM17.1 40.604l-.588 2.479c-.21.706-.163 1.453-1.475 1.433l-.373-.338c-.717-.781.272-1.686.415-2.41l.565-2.385 1.456 1.221Zm20.498 9.821.158 2.716c.145.966-.099 1.619-1.022 1.895-.031.009-.057-.035-.086-.055-.761-.439-.49-1.188-.699-2.245l-.245-3.9 1.894 1.589Z"/>
    <path fill="#a1886c" d="m16.421 40.921-.586 2.478c-.21.707-.409 1.623-1.171.779l-.08-.085c-.717-.781-.325-1.285-.184-2.009l.566-2.385 1.455 1.222Zm14.845 12.456.159 2.716c.145.966-.138 1.879-.857 1.455a5.42 5.42 0 0 1-.087-.054c-.76-.44-.654-.748-.863-1.805l-.245-3.9 1.893 1.588Zm5.736-2.674.159 2.716c.144.966-.138 1.879-.858 1.456l-.086-.056c-.761-.438-.655-.748-.863-1.805l-.247-3.9 1.895 1.589Z"/>
    <path fill="#754600" d="m40.762 45.811.195.163-.381 2.352-.969.452.38-2.352-17.54-14.718.832-.388 16.97 14.066.264-1.633-17.54-14.718.832-.389L40.757 42.7l.267-1.653-17.541-14.718.833-.388 17.677 14.654-.38 2.352-.356.167.224.187-.379 2.353-.34.157Zm-1.597 3.25v.979l-2.139 1.078v-1.066l2.139-.991Zm-2.648 1.235v.979l-2.14 1.078v-1.066l2.14-.991Zm-2.785 1.299v.979l-2.138 1.078v-1.067l2.138-.99Z"/>
    <path fill="#aa7850" d="M37.026 51.118 19.486 36.4v-1.066l17.54 14.718v1.066Zm-2.649 1.235-17.54-14.718v-1.066l17.54 14.718v1.066Z"/>
    <path fill="#cc995e" d="M39.607 48.778 22.067 34.06l.38-2.352 17.54 14.718-.38 2.352Zm.525-2.673-17.54-14.717.381-2.353 17.54 14.718-.381 2.352Zm.512-2.706-17.54-14.718.379-2.352 17.541 14.718-.38 2.352Zm-3.618 6.653-17.54-14.718 2.139-.991 17.54 14.718-2.139.991Zm-2.649 1.235-17.54-14.718 2.14-.991 17.54 14.718-2.14.991Zm-2.783 1.298L14.053 37.867l2.139-.99 17.54 14.718-2.138.99Z"/>
    <path fill="#c19674" d="M31.594 53.652 14.053 38.934v-1.067l17.541 14.718v1.067Z"/>
  </g>
</svg>
