<svg xmlns="http://www.w3.org/2000/svg" xml:space="preserve" fill-rule="evenodd" stroke-linejoin="round" stroke-miterlimit="2" clip-rule="evenodd" viewBox="0 0 64 64">
  <g id="grey">
    <path fill="#707070" d="M40.697 54.165c2.882 2.063 2.074 3.69-1.802 3.63-3.877-.061-9.364-1.785-12.246-3.849-2.882-2.063-2.074-3.69 1.802-3.63 3.876.06 9.364 1.785 12.246 3.849Z"/>
    <path fill="#838383" d="M36.35 43.682v9.865l-.001.05.001.036a.653.653 0 0 1-.082.313.766.766 0 0 1-.264.313c-.351.294-.934.51-1.62.599V42.675l1.966 1.007ZM33.2 54.883a5.28 5.28 0 0 1-.534-.075c.14.026.374.057.534.075Zm-.573-.083a3.937 3.937 0 0 1-.704-.211c.187.067.35.135.704.211Z"/>
    <path fill="#ababab" d="M34.384 42.675v12.163a5.507 5.507 0 0 1-1.757-.057c-.354-.075-.517-.142-.704-.209-.675-.24-1.053-.538-1.053-1.145V40.874l3.514 1.801Z"/>
    <path fill="#707070" d="M51.397 26.984v22.311l-1.387 1.388V28.372L16.534 11.215l1.52-1.101 33.343 16.87Z"/>
    <path fill="#c2bdbd" d="m42.356 25.594-2.036 1.677-2.611-1.256v-.367l2.611 1.255 2.036-1.674v.365Zm-12.674-6.449-2.036 1.676-2.611-1.255v-.368l2.611 1.256 2.036-1.674v.365Zm-12.432-6.3-2.037 1.677-2.61-1.255v-.368l2.61 1.255 2.037-1.674v.365Z"/>
    <path fill="#525252" d="m42.356 25.226-2.036 1.677-2.611-1.255 2.143-1.674 2.504 1.252Zm-12.674-6.449-2.036 1.677-2.611-1.256 2.143-1.673 2.504 1.252ZM17.25 12.478l-2.037 1.676-2.61-1.255 2.143-1.674 2.504 1.253Z"/>
    <path fill="#909090" d="m40.099 25.899-.837-.369 8.108-6.486a.42.42 0 0 1 .68.327v5.975l-.837-.423v-4.682l-7.114 5.658ZM27.425 19.45l-.837-.369 8.108-6.486a.418.418 0 0 1 .68.327v5.975l-.837-.423v-4.682l-7.114 5.658Zm-12.432-6.299-.837-.37 8.107-6.486a.42.42 0 0 1 .68.327v5.976l-.837-.424V7.493l-7.113 5.658Z"/>
  </g>
  <g id="white">
    <path fill="#f4f4f4" fill-opacity="0.97" d="m17.076 11.493 11.579 5.934-.643.515-.834-.417-2.143 1.673v.368l2.611 1.255 2.036-1.676v-.365l-2.036 1.674 2.036-1.677-.866-.433.638-.507 11.84 6.068-.608.486-.834-.417-2.143 1.674v.367l2.611 1.256 2.036-1.677v-.365l-2.036 1.674 2.036-1.677-.866-.433.603-.479 7.917 4.058v22.311L16.534 33.526V13.434l.716-.589v-.365l-.716.588v-.001l.716-.589-.716-.358v-.195l.542-.432Z"/>
  </g>
  <g id="green">
    <path fill="#6ab115" d="m17.076 11.493 11.579 5.934-.643.515-.834-.417-.236.184-9.411-4.818v20.012L49 49.011V29l-6.648-3.403.004-.003v-.365l-.277.228-.002-.001.279-.23-.866-.433.603-.479L50 28.367v22.311l-.022-.012v.012L16.531 33.536V13.437l.719-.592v-.365l-.719.591v-.002l.719-.591-.719-.36v-.191l.545-.434Zm12.378 6.344 11.84 6.068-.608.486-.834-.417-.265.207-9.905-5.07v-.331l-.248.204-.002-.001.25-.206-.866-.433.638-.507Z"/>
  </g>
  <g id="red">
    <g>
      <path fill="#e93e3e" d="m33.392 39.376-2.931-1.517-1.164-3.759-5.335-2.76-1.103 2.587L20 32.448l5.205-11.206 2.849 1.474 5.338 16.66Zm-4.959-8.065-1.837-6.107-1.805 4.224 3.642 1.883Zm6.385-5.096 4.926 2.548c1.11.575 1.957 1.101 2.54 1.58a9.37 9.37 0 0 1 2.011 2.32 11.3 11.3 0 0 1 1.274 2.91c.291 1.039.436 2.209.435 3.511 0 1.143-.137 2.058-.411 2.745-.334.838-.811 1.41-1.43 1.715-.468.232-1.099.276-1.894.13-.595-.112-1.39-.426-2.386-.94l-5.071-2.624.006-13.895Zm2.694 3.745-.004 9.203 2.012 1.041c.753.389 1.296.626 1.63.71.437.113.8.108 1.088-.015.288-.123.524-.448.706-.976.183-.528.274-1.33.274-2.404.001-1.074-.09-1.946-.272-2.615a5.874 5.874 0 0 0-.764-1.741 5.22 5.22 0 0 0-1.247-1.3c-.376-.283-1.113-.708-2.212-1.277l-1.211-.626Z"/>
    </g>
  </g>
</svg>
