<svg xmlns="http://www.w3.org/2000/svg" xml:space="preserve" fill-rule="evenodd" stroke-linejoin="round" stroke-miterlimit="2" clip-rule="evenodd" viewBox="0 0 64 64">
  <g id="brown">
    <path fill="#754600" d="M59.728 26.5v11H43.817v-11h15.911Zm-39.545 0v11H4.272v-11h15.911Z"/>
    <path fill="#aa7850" d="M62.728 25v14a1.5 1.5 0 0 1-1.5 1.5H42.317a1.5 1.5 0 0 1-1.5-1.5V25a1.5 1.5 0 0 1 1.5-1.5h18.911a1.5 1.5 0 0 1 1.5 1.5Zm-3 1.5H43.817v11h15.911v-11ZM23.183 25v14a1.5 1.5 0 0 1-1.5 1.5H2.772a1.5 1.5 0 0 1-1.5-1.5V25a1.5 1.5 0 0 1 1.5-1.5h18.911a1.5 1.5 0 0 1 1.5 1.5Zm-3 1.5H4.272v11h15.911v-11Z"/>
  </g>
  <g id="blue">
    <path fill="#73a7c7" d="M30.19 33.44v2.417a1.5 1.5 0 0 1-2.552 1.069l-3.917-3.857a1.498 1.498 0 0 1 0-2.138l3.917-3.857a1.5 1.5 0 0 1 2.552 1.069v2.297h21.583a1.5 1.5 0 0 1 0 3H30.19Z"/>
  </g>
</svg>
