<svg xmlns="http://www.w3.org/2000/svg" xml:space="preserve" fill-rule="evenodd" stroke-linejoin="round" stroke-miterlimit="2" clip-rule="evenodd" viewBox="0 0 64 64">
  <g id="brown">
    <path fill="#754600" d="M39.956 20.5v11h-15.91v-11h15.91Zm3.001 11v-11h15.91v11h-15.91Zm-21.911-11v11H5.135v-11h15.911Z"/>
    <path fill="#aa7850" d="M60.367 34.5H3.635a1.5 1.5 0 0 1-1.5-1.5V19a1.5 1.5 0 0 1 1.5-1.5h56.732a1.5 1.5 0 0 1 1.5 1.5v14a1.5 1.5 0 0 1-1.5 1.5Zm-39.321-14H5.135v11h15.911v-11Zm18.91 0h-15.91v11h15.91v-11Zm3.001 11h15.91v-11h-15.91v11Z"/>
  </g>
  <g id="blue">
    <path fill="#73a7c7" d="M58.867 38a1.5 1.5 0 0 1 3 0v7a1.5 1.5 0 0 1-3 0v-7Zm-18.91 0a1.5 1.5 0 0 1 3 0v7a1.5 1.5 0 0 1-3 0v-7Zm-18.911 0a1.5 1.5 0 0 1 3 0v7a1.5 1.5 0 0 1-3 0v-7ZM2.134 38a1.5 1.5 0 0 1 3 0v7a1.5 1.5 0 0 1-3 0v-7Z"/>
  </g>
</svg>
