<svg xmlns="http://www.w3.org/2000/svg" xml:space="preserve" fill-rule="evenodd" stroke-linejoin="round" stroke-miterlimit="2" clip-rule="evenodd" viewBox="0 0 64 64">
  <g id="brown">
    <path fill="#754600" d="M39 26.5h16.634l-.134 11H39v-11Zm-18.5 0H25v11h-4.5v-11Zm7.001 0h9l-.001 11h-9l.001-11ZM18 37.5H8.5v-11H18v11Z"/>
    <path fill="#aa7850" d="M56.89 23.5c.427 0 .837.17 1.139.471.301.302.471.712.471 1.139v13.78c0 .427-.17.837-.471 1.139a1.615 1.615 0 0 1-1.139.471H7.11c-.427 0-.837-.17-1.139-.471A1.615 1.615 0 0 1 5.5 38.89V25.11c0-.427.17-.837.471-1.139A1.615 1.615 0 0 1 7.11 23.5h49.78ZM39 26.5v11h16.5l.134-11H39Zm-11.499 0-.001 11h9l.001-11h-9Zm-7.001 0v11H25v-11h-4.5Zm-2.5 11v-11H8.5v11H18Z"/>
  </g>
  <g id="blue">
    <path fill="#73a7c7" d="M5.634 13a1.5 1.5 0 0 1 3 0v7a1.5 1.5 0 0 1-3 0v-7Zm30.822 31a1.5 1.5 0 0 1 3 0v7a1.5 1.5 0 0 1-3 0v-7ZM24.545 13a1.5 1.5 0 0 1 3 0v7a1.5 1.5 0 0 1-3 0v-7Zm-7 31a1.5 1.5 0 0 1 3 0v7a1.5 1.5 0 0 1-3 0v-7Zm37.821 0a1.5 1.5 0 0 1 3 0v7a1.5 1.5 0 0 1-3 0v-7Z"/>
  </g>
</svg>
