<svg xmlns="http://www.w3.org/2000/svg" xml:space="preserve" fill-rule="evenodd" stroke-linejoin="round" stroke-miterlimit="2" clip-rule="evenodd" viewBox="0 0 64 64">
  <g id="brown">
    <path fill="#aa7850" d="M32 52.541a4.495 4.495 0 0 1-.538.359l-2.881 1.638a4.432 4.432 0 0 1-2.19.581H16.234c-.766 0-1.519-.2-2.19-.581L11.163 52.9c-1.445-.822-2.343-2.389-2.343-4.09V30.256h11.675a4.765 4.765 0 0 1-.92-2.821V8.881H44.56v18.554a4.765 4.765 0 0 1-.92 2.821h11.54V48.81c0 1.701-.897 3.268-2.343 4.09l-2.881 1.638a4.432 4.432 0 0 1-2.19.581H37.609c-.766 0-1.519-.2-2.19-.581L32.538 52.9a4.576 4.576 0 0 1-.538-.359Zm-1.805-18.725H12.268V48.81c0 .313.165.852.431 1.003l2.881 1.639c.124.07.263.107.404.107h10.657c.141 0 .28-.037.404-.107l2.881-1.639c.127-.072.231-.232.305-.414a4.801 4.801 0 0 1-.036-.589V33.816Zm3.574 15.582c.074.182.178.343.305.415l2.881 1.639c.124.07.263.107.404.107h10.657c.141 0 .28-.037.404-.107l2.881-1.639c.266-.151.432-.69.432-1.003V33.816H33.805V48.81c0 .198-.012.395-.036.588ZM23.023 12.441v14.994c0 .313.165.852.431 1.003l2.881 1.639c.124.07.263.107.404.107h10.657a.82.82 0 0 0 .404-.107l2.881-1.639c.266-.151.432-.69.432-1.003V12.441h-18.09Z"/>
    <path fill="#754600" d="M27.485 18.342a1.565 1.565 0 0 1 0-3.13h9.165a1.565 1.565 0 0 1 0 3.13h-9.165Zm10.62 21.375a1.565 1.565 0 0 1 0-3.13h9.165a1.565 1.565 0 0 1 0 3.13h-9.165Zm-21.375 0a1.565 1.565 0 0 1 0-3.13h9.165a1.565 1.565 0 0 1 0 3.13H16.73Z"/>
  </g>
</svg>
