<?xml version="1.0" encoding="UTF-8" standalone="no"?>
<!DOCTYPE svg PUBLIC "-//W3C//DTD SVG 1.1//EN" "http://www.w3.org/Graphics/SVG/1.1/DTD/svg11.dtd">
<svg width="100%" height="100%" viewBox="0 0 64 64" version="1.1" xmlns="http://www.w3.org/2000/svg" xmlns:xlink="http://www.w3.org/1999/xlink" xml:space="preserve" xmlns:serif="http://www.serif.com/" style="fill-rule:evenodd;clip-rule:evenodd;stroke-linecap:round;stroke-linejoin:round;stroke-miterlimit:1.5;">
    <g id="Layer2">
        <g>
            <path d="M19.575,8.881L44.56,8.881L44.56,27.435C44.56,29.136 43.663,30.703 42.217,31.525L39.336,33.163C38.666,33.544 37.912,33.744 37.146,33.744L26.989,33.744C26.223,33.744 25.47,33.544 24.799,33.163L21.918,31.525C20.473,30.703 19.575,29.136 19.575,27.435L19.575,8.881ZM23.023,12.441L23.023,27.435C23.023,27.748 23.188,28.287 23.454,28.438L26.335,30.077C26.459,30.147 26.598,30.184 26.739,30.184L37.396,30.184C37.538,30.184 37.676,30.147 37.8,30.077L40.681,28.438C40.947,28.287 41.113,27.748 41.113,27.435L41.113,12.441L23.023,12.441Z" style="fill:#aa7850;"/>
            <path d="M27.485,16.777L36.65,16.777" style="fill:none;stroke:#754600;stroke-width:3.13px;"/>
        </g>
        <g>
            <path d="M30.195,30.256L55.18,30.256L55.18,48.81C55.18,50.511 54.283,52.078 52.837,52.9L49.956,54.538C49.285,54.919 48.532,55.119 47.766,55.119L37.609,55.119C36.843,55.119 36.09,54.919 35.419,54.538L32.538,52.9C31.093,52.078 30.195,50.511 30.195,48.81L30.195,30.256ZM33.643,33.816L33.643,48.81C33.643,49.123 33.808,49.662 34.074,49.813L36.955,51.452C37.079,51.522 37.218,51.559 37.359,51.559L48.016,51.559C48.157,51.559 48.296,51.522 48.42,51.452L51.301,49.813C51.567,49.662 51.733,49.123 51.733,48.81L51.733,33.816L33.643,33.816Z" style="fill:#aa7850;"/>
            <path d="M38.105,38.152L47.27,38.152" style="fill:none;stroke:#754600;stroke-width:3.13px;"/>
        </g>
        <g>
            <path d="M8.82,30.256L33.805,30.256L33.805,48.81C33.805,50.511 32.908,52.078 31.462,52.9L28.581,54.538C27.91,54.919 27.157,55.119 26.391,55.119L16.234,55.119C15.468,55.119 14.715,54.919 14.044,54.538L11.163,52.9C9.718,52.078 8.82,50.511 8.82,48.81L8.82,30.256ZM12.268,33.816L12.268,48.81C12.268,49.123 12.433,49.662 12.699,49.813L15.58,51.452C15.704,51.522 15.843,51.559 15.984,51.559L26.641,51.559C26.782,51.559 26.921,51.522 27.045,51.452L29.926,49.813C30.192,49.662 30.358,49.123 30.358,48.81L30.358,33.816L12.268,33.816Z" style="fill:#aa7850;"/>
            <path d="M16.73,38.152L25.895,38.152" style="fill:none;stroke:#754600;stroke-width:3.13px;"/>
        </g>
    </g>
</svg>
