<svg xmlns="http://www.w3.org/2000/svg" xml:space="preserve" fill-rule="evenodd" stroke-linejoin="round" stroke-miterlimit="2" clip-rule="evenodd" viewBox="0 0 64 64">
  <g id="blue">
    <path fill="#c2f0ff" d="M8.405 32.721c-1.542.119-3.184-.316-4.296-1.25-1.706-1.432-1.526-3.498.404-4.612 1.182-.683 2.747-.85 4.175-.548l18.741-10.82c-.356-1.144.146-2.348 1.463-3.108 1.929-1.114 4.881-.855 6.588.576 1.006.845 1.356 1.911 1.078 2.871l19.479 16.345c1.408-.013 2.847.423 3.854 1.268 1.706 1.432 1.526 3.499-.404 4.613-1.296.748-3.054.877-4.585.447L36.304 49.24c.325 1.127-.182 2.306-1.479 3.054-1.929 1.114-4.881.856-6.587-.576-1.113-.934-1.423-2.137-.97-3.17L8.405 32.721Zm2.782-5.212c1.534 1.359 1.422 3.248-.224 4.372l17.963 15.073c1.795-.872 4.309-.671 5.958.465l17.709-10.224c-1.369-1.41-1.095-3.286.71-4.328L35.076 17.572c-1.788 1.032-4.453.886-6.193-.28L11.187 27.509Z"/>
    <path fill="#1b7280" d="M36.536 25.46v-4.114l6.457-7.026v16.498l-.031-8.981-6.426 3.623Zm6.457 5.358v6.836l-6.457 3.696v-6.824l6.457-3.708Z"/>
    <path fill="#5fcee0" d="m30.315 20.197.006-4.156 6.215 5.279-.003 4.138-6.218-5.261Zm6.218 5.261-.008 15.883-.366-.29v-.345l-1.99-2.623h-1.527l-2.353-2.061.011-6.631 6.225 5.142.008-9.075Z"/>
    <path fill="#3142da" fill-rule="nonzero" d="M36.525 34.533 30.3 29.391l-.012-9.216 6.245 5.283"/>
    <path fill="#0f154d" fill-rule="nonzero" d="m36.525 34.533 6.478-3.74-.01-9.149-6.46 3.729"/>
    <path fill="#8eddea" fill-rule="nonzero" d="m30.288 16.078 6.243-7.181 6.462 5.423-6.457 7-6.248-5.242Z"/>
  </g>
  <g id="red">
    <path fill="#dc7c58" d="m48.26 30.871-4.218 2.428-1.039-.902v-3.435l1.781-1.029 3.476 2.938ZM30.317 18.788l-2.435 1.33-.427-.358.025-1.83 2.877-1.618-.04 2.476Z"/>
    <path fill="#e3551e" d="m21.53 28.56-4.907 2.834-3.619-3.028 4.776-2.749 3.75 2.943Zm14.629 12.146-5.163 2.941-1.836-2.734h-1.698l5.049-2.83h1.658l1.99 2.623Z"/>
    <path fill="#a76666" d="m27.537 17.55-5.574 3.278-2.132-4.025 5.245-3.029 2.461 3.776Zm2.772 5.924-1.618.914-2.056-3.583 3.735-2.157-.061 4.826Z"/>
  </g>
  <g id="grey">
    <path fill="#807d7d" d="m15.855 26.725-1.192-.973 1.39-.786 1.134.992-1.332.767ZM44.03 36.971l3.74 3.032-1.073.652-3.704-3.016V36.13l.196.158.828.691.013-.008Zm-7.871 4.08a359.486 359.486 0 0 0 4.042 3.337l-1.457.855-2.599-2.19.012-2.004.002.002Zm-8.675.165-3.153 1.888-2.205-1.895 5.947-3.506-.785-.606.088-2.093 1.057.806v-.001l1.855-1.071v-.103l.003-.001-.002 1.388 2.353 2.061h-.131l-5.049 2.83h.355l-.333.017v.286Zm-7.925-5.395-2.27 1.374-1.677-1.436 3.954-2.386-.007 2.448Zm16.355 5.025-1.423.815-.004-.003 1.427-.812Z"/>
    <path fill="#b6b6b6" d="m44.017 36.979-1.014-.846v-3.736l1.129.895-.115 3.687Zm-27.316-1.993-3.593-3.015-.082-3.588 3.597 2.967.078 3.636Zm14.349 11.29-3.566-2.906v-2.44l1.837-.099 1.729 2.906v2.539Zm-7.998-6.712-3.495-2.973.013-4.669 3.593 3.002-.111 4.64Z"/>
    <path fill="#838383" fill-rule="nonzero" d="m27.289 20.464.673-.278-.6-.503-.073.781Z"/>
    <path fill="#9d9b9b" d="m44.016 36.979.026-3.68 4.227-2.44v3.622l-4.253 2.498Zm-27.315-1.993-.078-3.592 4.918-2.847v2.237l-1.971 1.143-.013 1.396-2.856 1.663Zm7.199-5.564-2.004 1.157.036-9.774 5.588-3.245-.047 2.783-2.606 1.707v8.108l-.967-.736Zm-.859 10.133.122-4.618 4.321-2.508-.197 4.7-4.246 2.426Zm5.392-3.746.274-11.392 1.602-.914-.021 11.235-1.855 1.071Zm2.615 10.465v-2.641l5.111-2.927-.016 2.583-5.095 2.985Z"/>
    <path fill="#ccc" d="m21.893 30.581-.363.209v-2.185l-3.399-2.713-.028-6.722 1.728-2.367 2.101 3.97-.039 9.808Zm6.54 5.229-1.057-.806.108-2.578-2.617-2.251V22.05l1.768-1.245 2.072 3.612-.274 11.393Z"/>
    <path fill="#e6e6e6" fill-rule="nonzero" d="m27.537 32.398-3.583-3.007-4.384 2.531 3.593 3.015 4.374-2.539Z"/>
    <path fill="#444" d="M40.1 41.607c-.198.235-.664.402-1.208.402-.722 0-1.308-.294-1.308-.655 0-.361.586-.654 1.308-.654.359 0 .684.072.92.189.198-.236.664-.402 1.208-.402.721 0 1.308.293 1.308.654 0 .361-.587.655-1.308.655-.359 0-.684-.072-.92-.189Zm7.091-5.363c.723 0 1.309.293 1.309.654 0 .361-.586.653-1.309.653-.721 0-1.308-.292-1.308-.653 0-.361.585-.654 1.308-.654ZM31.432 46.381c.722 0 1.308.293 1.308.654 0 .361-.586.659-1.308.659-.722 0-1.306-.298-1.306-.659 0-.361.583-.654 1.306-.654ZM11.317 29.475c.722 0 1.309.293 1.309.654 0 .361-.587.654-1.309.654s-1.309-.293-1.309-.654c0-.361.586-.654 1.309-.654Z"/>
    <path fill="#575757" d="M60.813 36.715c.588 1.241.126 2.619-1.326 3.457-1.296.749-3.054.878-4.585.447L36.304 51.357c.325 1.127-.182 2.305-1.479 3.054-1.929 1.114-4.881.855-6.587-.576-1.113-.934-1.423-2.137-.97-3.17L8.405 34.837c-1.542.119-3.184-.316-4.296-1.249-1.149-.964-1.443-2.217-.922-3.272.193.408.5.801.922 1.155 1.112.934 2.754 1.369 4.296 1.25l18.863 15.827c-.453 1.033-.143 2.236.97 3.17 1.706 1.432 4.658 1.69 6.587.576 1.297-.748 1.804-1.927 1.479-3.054l18.598-10.737c1.531.43 3.289.301 4.585-.447.63-.364 1.074-.829 1.326-1.341Z"/>
  </g>
  <g id="green">
    <path fill="#0f4e06" d="m16.953 36.908-5.99-5.027c.503-.343.862-.757 1.075-1.206.354-.117.588-.318.588-.546 0-.173-.135-.331-.355-.448.007-.751-.35-1.522-1.084-2.172l6.934-4.003.01 2.386-.351-.275-.593.341-1.134-.992-1.39.786 1.192.973-2.851 1.641.022.018.082 3.587 3.593 3.015 2.856-1.663.013-1.396-.004 1.446-3.954 2.386 1.341 1.149Zm20.895-17.01.011.009-1.323 1.439v-.026l1.312-1.422Zm5.148 4.32 10.307 8.649c-1.805 1.042-2.079 2.918-.71 4.328l-4.84 2.794-3.723-3.018 4.239-2.49v-3.622l-.014.008-3.471-2.934-1.781 1.029v1.831l-.007-6.575Zm3.661 16.404-6.484 3.743a363.62 363.62 0 0 1-4.014-3.314l.366.29.004-6.81.007-.005v6.824l6.457-3.696v-.015l3.664 2.983Zm-7.95 4.59-3.823 2.207c-.83-.572-1.879-.907-2.946-.987a2.501 2.501 0 0 0-1.018.001 5.592 5.592 0 0 0-1.994.521l-4.591-3.852 3.149-1.886v2.154l3.564 2.904.002.002v-.003l5.093-2.984.002-.236 2.562 2.159Zm-14.658-2.35-6.756-5.669 2.266-1.372-.002.77 3.484 2.964.011.009v-.016l4.235-2.419.001-.032.785.606-5.947 3.506 1.923 1.653ZM21.93 21.306l-.034 9.273-.003.002.037-9.275Zm14.606.04v4.025l-.003.002.003-4.027Zm6.467 9.447v5.34l.186.155-.196-.158v-5.312l-6.457 3.708 6.467-3.733Zm-6.844 10.258-.002-.002.002-.343v.345Zm3.941.556c.236.117.561.189.92.189.721 0 1.308-.294 1.308-.655 0-.361-.587-.654-1.308-.654-.544 0-1.01.166-1.208.402a2.124 2.124 0 0 0-.92-.189c-.722 0-1.308.293-1.308.654 0 .361.586.655 1.308.655.544 0 1.01-.167 1.208-.402Zm-9.809-6.973-.003.001.011-5.891.001.647-.009 5.243Zm4.196 7.024.004.003-3.443 1.972v.101l-.052-.087 3.491-1.989Zm-4.195-18.145-1.585.904-.016-.029 1.601-.905v.03Zm16.899 12.731c-.723 0-1.308.293-1.308.654 0 .361.587.653 1.308.653.723 0 1.309-.292 1.309-.653 0-.361-.586-.654-1.309-.654Z"/>
    <path fill="#71c93f" d="M38.092 39.025a1.132 1.132 0 1 1 0 2.264 1.132 1.132 0 0 1 0-2.264Zm9.055-4.528a1.132 1.132 0 1 1 0 2.264 1.132 1.132 0 0 1 0-2.264Zm-36.22-6.791a1.132 1.132 0 1 1 0 2.264 1.132 1.132 0 0 1 0-2.264Z"/>
    <circle cx="40.922" cy="39.591" r="1.698" fill="#81f340"/>
    <circle cx="30.735" cy="45.25" r="1.698" fill="#65ff0e"/>
  </g>
</svg>
