<svg xmlns="http://www.w3.org/2000/svg" xml:space="preserve" fill-rule="evenodd" stroke-linejoin="round" stroke-miterlimit="2" clip-rule="evenodd" viewBox="0 0 64 64">
  <g id="brown">
    <path fill="#754600" d="m22.423 38.634.829-.845.438.43-.766.781a4.571 4.571 0 0 0-.501-.366Zm-2.369 12.059.012 1.097 1.854-1.368.34.457-2.187 1.611.015 1.393-.57.008-.017-1.562-.058-.079.057-.042-.015-1.337c.195-.053.385-.113.569-.178Zm-2.286.465.691 3.006-1.652-.121-.307-2.883a9.697 9.697 0 0 0 1.268-.002Zm23.807-10.352-.968-1.056.36-.324.886.966a4.897 4.897 0 0 0-.278.414Zm4.846-6.654-.532-1.878.465-.129.486 1.714c-.144.082-.284.18-.419.293Zm6.912 3.586 1.321-1.167.321.363-1.313 1.159a4.004 4.004 0 0 0-.329-.355Zm-4.889 12.55.433 2.732-1.867-.082.013-2.565a4.41 4.41 0 0 0 1.421-.085ZM38.066 17.504l-2.048 1.275a3.805 3.805 0 0 0-.352-.506l1.437-.895c.322.054.645.096.963.126Zm-3.876 6.92.41 3.768-1.512-.371-.026-3.188a3.263 3.263 0 0 0 1.128-.209Zm-3.182-6.73-.921-.933c.152-.109.294-.228.422-.355l.97.983c-.165.088-.322.19-.471.305Z"/>
  </g>
  <g id="green">
    <path fill="#558e2f" d="M12.335 41.986a5.757 5.757 0 0 1-.595-2.587c0-2.676 1.723-4.848 3.852-4.848 1.685 0 3.119 1.366 3.641 3.266.07-.003.14-.004.21-.004 2.594 0 4.7 1.621 4.7 3.617 0 .459-.111.899-.314 1.303 1.97.048 3.54 1.119 3.54 2.431 0 1.348-1.644 2.438-3.679 2.438-.119 0-.237-.004-.353-.011-.458 2.033-3.067 3.589-6.218 3.589-3.472 0-6.285-1.891-6.285-4.227 0-.24.03-.476.087-.706-1.163-.376-1.958-1.133-1.958-2.005 0-1.197 1.49-2.175 3.372-2.256Zm30.457-2.499a2.422 2.422 0 0 1-.395-1.354c0-1.156.746-2.094 1.668-2.094.332 0 .642.123.902.335.648-1.697 1.713-2.803 2.918-2.803 1.052 0 1.999.845 2.653 2.191.199-.412.539-.684.925-.684.609 0 1.105.684 1.105 1.528 0 .193-.026.377-.073.547 1.47.688 2.542 2.806 2.542 5.308 0 3.063-1.601 5.543-3.574 5.543-.154 0-.306-.015-.455-.044-.264 1.38-1.747 2.435-3.537 2.435-1.241 0-2.334-.508-2.975-1.281a2.387 2.387 0 0 1-.189.007c-1.973 0-3.575-2.261-3.575-5.054 0-2.026.843-3.773 2.06-4.58ZM27.96 11.522c.605-.996 1.894-1.686 3.386-1.686 2.074 0 3.754 1.332 3.754 2.969 0 .151-.014.3-.042.445a11.999 11.999 0 0 1 1.73.022c.097-1.543.978-2.752 2.05-2.752.855 0 1.589.773 1.899 1.873a1.28 1.28 0 0 1 .456-.084c.907 0 1.641.957 1.641 2.14 0 .387-.079.749-.217 1.062.382.549.275 1.087-.412 1.485-1.387.809-4.613.746-7.199-.14-1.072-.365-1.867-.815-2.332-1.273a4.623 4.623 0 0 1-1.664.179c-.607 1.06-1.975 1.801-3.567 1.801-2.156 0-3.902-1.36-3.902-3.032 0-1.675 1.746-3.035 3.902-3.035.175 0 .348.009.517.026Zm1.94 7.555c.583-1.235 1.769-2.081 3.137-2.081 1.45 0 2.696.951 3.237 2.309.232-.034.471-.051.716-.051 2.157 0 3.903 1.36 3.903 3.031 0 1.676-1.746 3.036-3.903 3.036-1.088 0-2.072-.346-2.779-.905a3.271 3.271 0 0 1-2.536-.079c-.686.464-1.581.745-2.56.745-2.156 0-3.902-1.359-3.902-3.035 0-1.672 1.746-3.031 3.902-3.031.269 0 .531.021.785.061Z"/>
  </g>
</svg>
