<svg xmlns="http://www.w3.org/2000/svg" xml:space="preserve" fill-rule="evenodd" stroke-linejoin="round" stroke-miterlimit="2" clip-rule="evenodd" viewBox="0 0 64 64">
  <g id="grey">
    <path fill="#b5b5b5" d="M17.098 16.456H53.32c2.557.001 4.661 2.103 4.664 4.66v27.986c-.001 2.558-2.106 4.663-4.664 4.664H10.678c-2.557-.002-4.661-2.107-4.662-4.664V21.116c.001-2.557 2.105-4.662 4.662-4.664h6.42v.004ZM43.814 35.11c-.003-6.393-5.266-11.654-11.66-11.654-6.396 0-11.66 5.264-11.66 11.66s5.264 11.66 11.66 11.66c6.395-.005 11.655-5.266 11.66-11.66v-.006Z"/>
  </g>
  <g id="white">
    <path fill="#f4f4f4" d="M44.204 35.096v.02c0 6.61-5.44 12.05-12.05 12.05s-12.05-5.44-12.05-12.05 5.44-12.05 12.05-12.05h.006c6.598.011 12.026 5.433 12.044 12.03Zm-3.5.02v-.006c-.011-4.685-3.865-8.536-8.55-8.544-4.69 0-8.55 3.86-8.55 8.55 0 4.69 3.86 8.55 8.55 8.55 4.69 0 8.55-3.86 8.55-8.55Z"/>
  </g>
  <g id="black">
    <path d="M40.704 35.116c0 4.69-3.86 8.55-8.55 8.55-4.69 0-8.55-3.86-8.55-8.55 0-4.69 3.86-8.55 8.55-8.55 4.685.008 8.539 3.859 8.55 8.544v.006Z"/>
  </g>
  <g id="blue">
    <path fill="#73a7c7" d="M17.098 16.452h3.396l1.2-3.2a4.667 4.667 0 0 1 4.358-3.018h12.2a4.667 4.667 0 0 1 4.362 3.022l1.2 3.2H17.098v-.004Z"/>
  </g>
</svg>
