<svg xmlns="http://www.w3.org/2000/svg" xml:space="preserve" fill-rule="evenodd" stroke-linejoin="round" stroke-miterlimit="2" clip-rule="evenodd" viewBox="0 0 64 64">
  <g id="red">
    <path fill="#c23501" d="m15.863 14.002-.042-.014s-.379-3.782.72-4.67c1.099-.887 2.967 1.117 2.967 1.117S21.469 8 22.225 8c.758 0 1.03 2.435 1.03 2.435s3.839-2.633 3.839-1.117c0 1.094-1.998 4.344-3.111 6.07-1.161-1.366-3.101-2.18-5.158-1.991-1.265.035-2.228.266-2.962.605Z"/>
  </g>
  <g id="yellow">
    <path fill="#f5f5d1" d="M12.822 19.688c.406-1.261.721-2.028.721-2.028s-.384-4.108 5.282-4.263c3.034-.279 5.811 1.624 6.215 4.262 0 0 0 4.434 2.739 6.885 2.738 2.45 8.214 2.914 8.214 2.914s7.077.069 10.048-1.537c2.97-1.605 1.121-3.326 3.093-5.048s3.259-6.466 4.764-1.836c1.506 4.631 3.861 15.011 0 20.518-3.166 4.518-9.286 7.243-16.103 8.077a37.818 37.818 0 0 1-4.558.274c-2.286 0-4.354-.214-6.265-.657a20.88 20.88 0 0 1-2.891-.889c-3.908-1.523-7.202-4.205-10.538-8.205-2.905-3.482-2.814-8.824-2.044-13.181.679.302 1.414.505 2.166.505 2.958 0 4.869-3.641 4.869-3.641s-1.431-2.355-3.67-2.554c-.566-.05-1.285.121-2.042.404Z"/>
  </g>
  <g id="orange">
    <path fill="#ea912b" d="m37.795 47.632.972 4.735s4.015 2.299 1.761 3.06c-2.255.761-9.54.766-10.779 0-1.239-.764 5.27-3.06 5.27-3.06v-4.461l.27-.055c.843-.045 1.68-.118 2.506-.219Zm-10.823-.383.738 3.596s4.016 2.3 1.762 3.061c-2.256.76-9.541.765-10.78 0-1.239-.765 5.27-3.061 5.27-3.061v-4.461l.119-.024a20.88 20.88 0 0 0 2.891.889ZM14.864 19.284c2.239.199 3.67 2.554 3.67 2.554s-1.911 3.641-4.869 3.641C10.707 25.479 8 22.345 8 22.345s4.624-3.258 6.864-3.061Z"/>
  </g>
  <g id="black">
    <ellipse cx="20.622" cy="19.275" rx=".873" ry="1.522"/>
  </g>
</svg>
