<svg xmlns="http://www.w3.org/2000/svg" xml:space="preserve" fill-rule="evenodd" clip-rule="evenodd" viewBox="0 0 64 64">
  <g id="orange">
    <path fill="none" fill-rule="nonzero" stroke="#ffc60e" stroke-width="6px" d="M55 32c0 12.703-10.297 23-23 23S9 44.703 9 32 19.297 9 32 9s23 10.297 23 23Z"/>
  </g>
  <g id="yellow">
    <path fill="#fbd508" d="M29 21c0-.266.105-.52.293-.707A.996.996 0 0 1 30 20h4c.266 0 .52.105.707.293A.996.996 0 0 1 35 21v4c0 .266-.105.52-.293.707A.996.996 0 0 1 34 26h-4a.996.996 0 0 1-.707-.293A.996.996 0 0 1 29 25v-4Zm0 9c0-.266.105-.52.293-.707A.996.996 0 0 1 30 29h4c.266 0 .52.105.707.293A.996.996 0 0 1 35 30v13c0 .266-.105.52-.293.707A.996.996 0 0 1 34 44h-4a.996.996 0 0 1-.707-.293A.996.996 0 0 1 29 43V30Z"/>
  </g>
</svg>
