<svg xmlns="http://www.w3.org/2000/svg" xml:space="preserve" fill-rule="evenodd" stroke-linejoin="round" stroke-miterlimit="2" clip-rule="evenodd" viewBox="0 0 64 64">
  <g id="grey">
    <path fill="#575757" d="M32 6c14.35 0 26 11.65 26 26S46.35 58 32 58 6 46.35 6 32 17.65 6 32 6Zm0 6c-11.038 0-20 8.962-20 20s8.962 20 20 20 20-8.962 20-20-8.962-20-20-20Z"/>
  </g>
  <g id="red">
    <path fill="#ff2721" fill-rule="nonzero" stroke="#ff2721" stroke-width="1.5px" d="m20.964 44.038 9.312-12.547-8.212-11.529h3.794l4.368 6.175c.909 1.281 1.555 2.266 1.938 2.956a31.57 31.57 0 0 1 1.905-2.742l4.845-6.389h3.465L33.921 31.31l9.115 12.728h-3.941l-6.06-8.589c-.34-.493-.69-1.029-1.051-1.61-.537.876-.92 1.478-1.15 1.807l-6.044 8.392h-3.826Z"/>
  </g>
</svg>
