<svg xmlns="http://www.w3.org/2000/svg" xml:space="preserve" fill-rule="evenodd" stroke-linejoin="round" stroke-miterlimit="2" clip-rule="evenodd" viewBox="0 0 64 64">
  <g id="blue">
    <path fill="#73a7c7" d="M32 6c14.35 0 26 11.65 26 26S46.35 58 32 58 6 46.35 6 32 17.65 6 32 6Zm0 6c-11.038 0-20 8.962-20 20s8.962 20 20 20 20-8.962 20-20-8.962-20-20-20Z"/>
    <path fill="#4bc3f1" fill-rule="nonzero" d="M30.318 36.685a1.034 1.034 0 0 1-1.027-1.187 7.59 7.59 0 0 1 1.439-3.372c.42-.54.974-1.171 1.662-1.892.45-.454.878-.931 1.28-1.428.31-.395.569-.826.774-1.284a3.688 3.688 0 0 0 .316-1.528v-.016a2.402 2.402 0 0 0-.64-1.782 2.457 2.457 0 0 0-1.8-.634 2.3 2.3 0 0 0-1.786.7 2.88 2.88 0 0 0-.658 1.968v.002c-.009.014-5.384.014-5.432.014v-.016a7.89 7.89 0 0 1 1.05-3.8 6.17 6.17 0 0 1 2.684-2.4 9.454 9.454 0 0 1 4.116-.828 11.015 11.015 0 0 1 4.26.744 5.796 5.796 0 0 1 2.702 2.14c.639 1.016.961 2.2.926 3.4v.016a6.382 6.382 0 0 1-.41 2.348 7.5 7.5 0 0 1-1.012 1.832 21.889 21.889 0 0 1-1.6 1.816A26.448 26.448 0 0 0 35.7 33.17a6.579 6.579 0 0 0-.888 1.562 5.104 5.104 0 0 0-.297 1.075 1.027 1.027 0 0 1-1.014.867c-.897.009-2.241.01-3.183.011Zm-1.078 3.723c0-.572.464-1.036 1.036-1.036h3.162c.572 0 1.036.464 1.036 1.036v2.556c0 .572-.464 1.036-1.036 1.036h-3.162a1.036 1.036 0 0 1-1.036-1.036v-2.556Z"/>
  </g>
</svg>
