<svg xmlns="http://www.w3.org/2000/svg" xml:space="preserve" fill-rule="evenodd" stroke-linejoin="round" stroke-miterlimit="2" clip-rule="evenodd" viewBox="0 0 64 64">
  <g id="blue">
    <path fill="#4f8198" d="M32 4.312h.006c15.186 0 27.682 12.496 27.682 27.682V32c0 15.189-12.499 27.688-27.688 27.688C16.811 59.688 4.312 47.189 4.312 32 4.312 16.811 16.811 4.312 32 4.312Zm0 3.507C18.654 7.819 7.819 18.654 7.819 32S18.654 56.181 32 56.181 56.181 45.346 56.181 32 45.346 7.819 32 7.819Z"/>
  </g>
  <g id="black">
    <path fill="#010001" d="M36.018 14.368c-.129-.844-.586-1.277-1.34-1.34H29.32c-.862.069-1.337.49-1.34 1.34v20.79c-.102.564.104.908.548 1.082l11.848 9.158c.702.441 1.329.36 1.874-.292l3.148-4.33c.429-.625.374-1.251-.29-1.876L36.346 32l-.328-17.632Z"/>
  </g>
</svg>
