<svg xmlns="http://www.w3.org/2000/svg" xml:space="preserve" fill-rule="evenodd" stroke-linejoin="round" stroke-miterlimit="2" clip-rule="evenodd" viewBox="0 0 64 64">
  <g id="orange">
    <path fill="#d8c388" d="M19.371 11.592A23.872 23.872 0 0 1 32 8c13.246 0 24 10.754 24 24S45.246 56 32 56C19.573 56 9.339 46.534 8.121 34.425A1.516 1.516 0 0 1 9.6 32.623c.827 0 1.508.681 1.508 1.508v.01c.038.377.087.752.145 1.124C12.823 45.307 21.52 53 32 53c11.59 0 21-9.41 21-21s-9.41-21-21-21c-6.62 0-12.528 3.069-16.378 7.861l4.414-.197.003-.001c.502-.001.943.338 1.07.823l.001.003.202.909a.754.754 0 0 1-.723.949h-.022l-8.204.17h-.003a1.094 1.094 0 0 1-1.05-.824l-.001-.004-1.781-8.007a.738.738 0 0 1 .134-.662.743.743 0 0 1 .61-.288l.931-.02.002.001c.504.004.941.353 1.055.844v.003l.882 4.601a24.167 24.167 0 0 1 6.229-5.569Z"/>
  </g>
  <g id="grey">
    <path fill="#525252" d="m34.125 30.943 5.705 5.705c.394.418.613.97.613 1.544a2.262 2.262 0 0 1-2.251 2.251 2.25 2.25 0 0 1-1.544-.613l-6.364-6.364a2.245 2.245 0 0 1-.658-1.658l-.001-.058v-13a2.261 2.261 0 0 1 2.25-2.25 2.261 2.261 0 0 1 2.25 2.25v12.193Z"/>
  </g>
</svg>
