<?xml version="1.0" encoding="UTF-8" standalone="no"?>
<!DOCTYPE svg PUBLIC "-//W3C//DTD SVG 1.1//EN" "http://www.w3.org/Graphics/SVG/1.1/DTD/svg11.dtd">
<svg width="100%" height="100%" viewBox="0 0 64 64" version="1.1" xmlns="http://www.w3.org/2000/svg" xmlns:xlink="http://www.w3.org/1999/xlink" xml:space="preserve" xmlns:serif="http://www.serif.com/" style="fill-rule:evenodd;clip-rule:evenodd;stroke-linejoin:round;stroke-miterlimit:2;">
    <g id="surface1">
        <path d="M19.367,33.063C19.32,33.031 19.313,32.965 19.344,32.922C19.379,32.879 19.441,32.867 19.484,32.898C19.578,32.891 19.602,32.855 19.688,32.879C19.762,32.898 19.813,32.965 19.875,33.008C20.801,33.676 21.672,34.426 22.461,35.25C23.348,36.172 24.121,37.191 24.746,38.313C24.828,38.465 24.773,38.652 24.625,38.734C24.477,38.816 24.285,38.762 24.203,38.613C23.73,37.75 23.16,36.949 22.527,36.199C21.668,35.184 20.68,34.277 19.637,33.449C19.555,33.383 19.445,33.344 19.395,33.254C19.348,33.172 19.379,33.152 19.367,33.063Z" style="fill:#558e2f;"/>
        <path d="M27.488,25.59C27.512,25.539 27.57,25.516 27.621,25.539C27.672,25.563 27.691,25.621 27.672,25.672C26.75,27.656 26.086,29.746 25.605,31.887C25.121,34.027 24.82,36.211 24.637,38.379C24.633,38.438 24.582,38.48 24.523,38.477C24.465,38.469 24.422,38.418 24.426,38.359C24.609,36.184 24.91,33.988 25.398,31.84C25.887,29.688 26.559,27.582 27.488,25.59Z" style="fill:#558e2f;"/>
        <path d="M27.438,21.613C27.461,21.559 27.52,21.531 27.578,21.551C27.633,21.57 27.66,21.633 27.641,21.691C26.637,24.348 25.863,27.121 25.344,29.938C24.82,32.758 24.555,35.617 24.578,38.461C24.578,38.52 24.535,38.566 24.477,38.566C24.422,38.566 24.375,38.52 24.375,38.465C24.34,35.609 24.594,32.727 25.117,29.895C25.637,27.066 26.426,24.281 27.438,21.613Z" style="fill:#558e2f;"/>
        <path d="M20.602,28.395C20.57,28.348 20.586,28.281 20.637,28.25C20.684,28.219 20.75,28.234 20.781,28.285C20.879,28.422 20.977,28.559 21.066,28.703C21.871,29.977 22.496,31.371 23.059,32.785C23.555,34.039 23.977,35.328 24.328,36.617C24.367,36.758 24.395,36.895 24.438,37.027C24.461,37.086 24.492,37.141 24.512,37.199C24.555,37.324 24.574,37.461 24.605,37.59C24.625,37.664 24.578,37.734 24.508,37.754C24.434,37.773 24.359,37.727 24.344,37.656C24.313,37.523 24.266,37.398 24.242,37.266C24.23,37.207 24.234,37.145 24.223,37.086C24.199,36.945 24.152,36.813 24.117,36.676C23.766,35.395 23.344,34.117 22.844,32.871C22.277,31.473 21.582,30.133 20.844,28.836C20.762,28.691 20.684,28.539 20.602,28.395Z" style="fill:#558e2f;"/>
        <path d="M21.141,14.758C21.129,14.691 21.172,14.637 21.234,14.629C21.301,14.625 21.363,14.672 21.375,14.738C21.621,16.098 21.867,17.453 22.09,18.813C22.41,20.77 22.504,22.75 22.992,24.688C23.73,27.621 24.262,30.555 24.441,33.484C24.461,33.813 24.352,36.777 24.398,37.102C24.434,37.32 24.449,37.539 24.477,37.758C24.484,37.82 24.445,37.875 24.383,37.879C24.32,37.887 24.262,37.84 24.25,37.777C24.203,37.574 24.148,37.371 24.109,37.168C24.012,36.695 24.098,33.578 24.082,33.102C24.004,30.574 23.605,28.137 22.938,25.762C22.223,23.23 22.102,20.625 21.68,18.059C21.5,16.961 21.328,15.859 21.141,14.758Z" style="fill:#558e2f;"/>
        <path d="M21.457,16.27C22.223,16.215 23.125,17.898 23.469,20.023C23.813,22.152 23.473,23.922 22.707,23.977C21.941,24.031 21.039,22.348 20.695,20.223C20.352,18.094 20.691,16.324 21.457,16.27Z" style="fill:#754600;"/>
        <path d="M42.773,48.66C42.727,48.625 42.715,48.555 42.75,48.504C42.789,48.453 42.859,48.441 42.91,48.48C43.012,48.461 43.016,48.418 43.117,48.441C43.188,48.457 43.238,48.523 43.297,48.563C44.184,49.199 45.02,49.918 45.777,50.703C46.625,51.586 47.367,52.566 47.969,53.637C48.063,53.805 48,54.02 47.832,54.109C47.664,54.203 47.449,54.145 47.355,53.973C46.906,53.152 46.367,52.391 45.766,51.68C44.949,50.711 44.008,49.844 43.02,49.051C42.941,48.988 42.832,48.949 42.789,48.863C42.738,48.77 42.781,48.766 42.773,48.66Z" style="fill:#558e2f;"/>
        <path d="M50.379,41.855C50.406,41.801 50.473,41.773 50.531,41.801C50.586,41.828 50.609,41.895 50.586,41.953C49.711,43.844 49.074,45.84 48.613,47.883C48.152,49.926 47.867,52.012 47.691,54.078C47.688,54.145 47.629,54.191 47.563,54.188C47.496,54.18 47.449,54.121 47.453,54.059C47.633,51.977 47.918,49.883 48.383,47.828C48.852,45.773 49.492,43.762 50.379,41.855Z" style="fill:#558e2f;"/>
        <path d="M50.387,37.973C50.41,37.91 50.48,37.879 50.543,37.902C50.605,37.926 50.637,37.996 50.613,38.059C49.656,40.594 48.918,43.242 48.422,45.93C47.926,48.621 47.668,51.355 47.691,54.066C47.691,54.129 47.641,54.184 47.578,54.184C47.512,54.184 47.461,54.133 47.461,54.07C47.426,51.34 47.668,48.59 48.168,45.883C48.664,43.18 49.418,40.52 50.387,37.973Z" style="fill:#558e2f;"/>
        <path d="M43.859,44.465C43.824,44.406 43.844,44.336 43.898,44.301C43.953,44.266 44.027,44.281 44.063,44.34C44.156,44.469 44.25,44.598 44.34,44.734C45.109,45.949 45.703,47.289 46.238,48.641C46.715,49.84 47.113,51.066 47.449,52.301C47.488,52.434 47.512,52.566 47.559,52.695C47.578,52.75 47.609,52.797 47.633,52.852C47.672,52.977 47.691,53.105 47.723,53.23C47.742,53.313 47.691,53.395 47.609,53.414C47.527,53.434 47.445,53.383 47.426,53.301C47.395,53.18 47.352,53.059 47.328,52.93C47.32,52.871 47.328,52.816 47.316,52.758C47.293,52.625 47.25,52.496 47.215,52.367C46.883,51.141 46.477,49.926 45.996,48.738C45.461,47.402 44.785,46.129 44.086,44.887C44.008,44.746 43.938,44.605 43.859,44.465Z" style="fill:#558e2f;"/>
        <path d="M48.715,31.434C48.719,31.359 48.781,31.297 48.855,31.289C48.93,31.285 48.988,31.34 48.984,31.41C48.934,32.707 48.883,34.004 48.805,35.301C48.695,37.172 48.543,39.039 48.418,40.91C48.23,43.715 48.074,46.516 47.941,49.313C47.926,49.625 47.926,49.934 47.898,50.246C47.883,50.453 47.848,50.66 47.824,50.871C47.82,50.941 47.762,51.004 47.691,51.008C47.621,51.016 47.566,50.961 47.57,50.891C47.566,50.699 47.551,50.508 47.555,50.313C47.563,49.859 47.605,49.402 47.633,48.949C47.77,46.613 47.945,44.277 48.098,41.938C48.262,39.488 48.387,37.035 48.527,34.586C48.59,33.535 48.66,32.484 48.715,31.434Z" style="fill:#558e2f;"/>
        <path d="M48.719,32.875C49.461,32.824 49.965,34.43 49.844,36.461C49.723,38.492 49.02,40.184 48.277,40.234C47.535,40.285 47.031,38.68 47.156,36.648C47.277,34.617 47.977,32.926 48.719,32.875Z" style="fill:#754600;"/>
        <path d="M46.035,11.504C46.156,11.359 46.367,11.344 46.512,11.465C46.652,11.582 46.672,11.793 46.551,11.938C45.852,12.766 45.148,13.594 44.426,14.414C43.945,14.953 43.453,15.492 42.949,16.023C41.734,17.297 40.438,18.605 39.305,19.965C38.523,20.898 37.82,21.859 37.281,22.848C36.973,23.41 36.762,23.945 36.598,24.473C36.164,25.875 36.07,27.199 35.59,28.633C35.273,29.566 34.809,30.504 34.223,31.426C33.691,32.262 33.059,33.086 32.344,33.879C31.633,34.688 30.848,35.387 30.008,36.012C28.086,37.449 25.922,38.527 24.027,40.035C21.574,42.008 19.414,44.426 17.023,46.508C16.18,47.238 15.332,47.969 14.387,48.555C14.148,48.703 13.902,48.836 13.652,48.965C13.188,49.203 12.723,49.41 12.262,49.605C11.172,50.066 10.09,50.449 9.008,50.879C7.84,51.352 6.641,51.863 5.453,52.457C4.313,53.027 3.184,53.664 2.102,54.402C1.949,54.504 1.742,54.465 1.641,54.316C1.535,54.164 1.574,53.957 1.727,53.852C2.824,53.086 3.973,52.418 5.129,51.82C6.324,51.203 7.535,50.66 8.715,50.16C9.629,49.777 10.555,49.445 11.469,49.035C12.047,48.773 12.613,48.473 13.18,48.129C13.406,47.992 13.629,47.844 13.852,47.699C14.754,47.129 15.641,46.535 16.469,45.852C18.918,43.832 21.063,41.375 23.535,39.414C25.434,37.898 27.578,36.773 29.527,35.363C30.336,34.777 31.117,34.152 31.82,33.402C32.516,32.645 33.133,31.859 33.645,31.059C34.207,30.188 34.648,29.297 34.945,28.418C35.43,26.988 35.52,25.672 35.953,24.273C36.129,23.707 36.359,23.129 36.688,22.523C37.246,21.5 37.977,20.504 38.785,19.531C39.93,18.164 41.238,16.844 42.465,15.559C42.965,15.035 43.445,14.504 43.922,13.969C44.641,13.152 45.34,12.328 46.035,11.504Z" style="fill:#4bc3f1;stroke:#4bc3f1;stroke-width:1.5px;"/>
        <path d="M53.379,11.551C53.48,11.438 53.656,11.422 53.773,11.516C53.895,11.609 53.91,11.773 53.813,11.887C53.27,12.516 52.75,13.152 52.242,13.797C51.047,15.316 49.914,16.867 48.695,18.371C47.695,19.609 46.559,20.93 45.648,22.273C45.008,23.215 44.48,24.168 44.199,25.109C43.539,27.32 44.594,28.973 44.473,30.949C44.426,31.734 44.203,32.566 43.652,33.5C42.996,34.602 42.148,35.563 41.195,36.445C39.07,38.406 36.414,39.984 34.262,41.965C33.684,42.492 33.234,43.055 32.84,43.633C31.84,45.102 31.203,46.664 29.949,48.07C29.305,48.793 28.566,49.469 27.785,50.113C26.031,51.563 24.043,52.875 22.379,54.336C22.254,54.449 22.055,54.441 21.938,54.32C21.82,54.203 21.828,54.016 21.953,53.906C23.613,52.426 25.586,51.086 27.336,49.629C28.09,49 28.805,48.348 29.43,47.652C30.664,46.27 31.285,44.727 32.27,43.281C32.688,42.664 33.172,42.066 33.789,41.5C35.945,39.527 38.605,37.953 40.73,35.992C41.641,35.152 42.453,34.242 43.078,33.191C43.574,32.359 43.777,31.613 43.824,30.91C43.957,28.895 42.914,27.203 43.598,24.949C43.898,23.953 44.453,22.949 45.133,21.957C46.059,20.602 47.215,19.273 48.227,18.031C49.453,16.531 50.586,14.988 51.789,13.473C52.305,12.824 52.828,12.184 53.379,11.551Z" style="fill:#4bc3f1;stroke:#4bc3f1;stroke-width:1.5px;stroke-linejoin:miter;"/>
    </g>
</svg>
