<svg xmlns="http://www.w3.org/2000/svg" xml:space="preserve" fill-rule="evenodd" stroke-linejoin="round" stroke-miterlimit="2" clip-rule="evenodd" viewBox="0 0 64 64">
  <g id="green">
    <path fill="#558e2f" d="M47.455 54.087a.335.335 0 0 1-.1-.114 13.865 13.865 0 0 0-1.589-2.293c-.817-.969-1.758-1.836-2.746-2.629-.079-.063-.188-.102-.231-.188-.051-.093-.008-.097-.016-.203a.116.116 0 0 1-.023-.156.113.113 0 0 1 .16-.024c.102-.019.106-.062.207-.039.071.016.121.082.18.122a18.125 18.125 0 0 1 2.48 2.14 14.87 14.87 0 0 1 1.474 1.792l-.036-.128a31.886 31.886 0 0 0-1.219-3.629c-.535-1.336-1.211-2.609-1.91-3.851-.078-.141-.148-.282-.227-.422a.12.12 0 0 1 .039-.164.118.118 0 0 1 .165.039c.093.129.187.258.277.394.769 1.215 1.363 2.555 1.898 3.907a34.153 34.153 0 0 1 1.236 3.752c.017-.584.046-1.169.087-1.753a5.908 5.908 0 0 1-.006-.327c.008-.454.05-.911.078-1.364.137-2.336.312-4.672.465-7.011.164-2.45.289-4.903.429-7.352.063-1.051.133-2.102.188-3.152a.158.158 0 0 1 .14-.145c.075-.004.133.051.129.121-.05 1.297-.101 2.594-.179 3.891-.11 1.871-.262 3.738-.387 5.609-.12 1.797-.228 3.593-.324 5.387l.074-.414a45.309 45.309 0 0 1 2.219-7.91.121.121 0 1 1 .226.086 45.956 45.956 0 0 0-2.663 11.057l-.009.197c-.015.312-.015.621-.043.933-.011.158-.035.317-.056.477.146-.97.324-1.937.541-2.895.469-2.055 1.109-4.066 1.996-5.973a.115.115 0 0 1 .152-.054c.055.027.078.094.055.152-.875 1.891-1.512 3.887-1.973 5.93a44.55 44.55 0 0 0-.849 5.401c.07.117.138.234.205.353a.346.346 0 0 1-.137.472.357.357 0 0 1-.175.045.126.126 0 0 1-.094.034.124.124 0 0 1-.108-.101Zm.33-3.125-.019.288.048-.333a.165.165 0 0 1-.029.045ZM24.656 38.155c.031.052.06.105.09.158a.311.311 0 0 1-.121.421.312.312 0 0 1-.422-.121 14.734 14.734 0 0 0-1.676-2.414c-.859-1.015-1.847-1.922-2.89-2.75-.082-.066-.192-.105-.242-.195-.047-.082-.016-.102-.028-.191a.101.101 0 0 1-.023-.141c.035-.043.097-.055.14-.024.094-.007.118-.043.204-.019.074.019.125.086.187.129a18.846 18.846 0 0 1 2.586 2.242 15.3 15.3 0 0 1 1.682 2.078 4.56 4.56 0 0 1-.034-.16 4.912 4.912 0 0 1-.041-.67 35.062 35.062 0 0 0-1.224-3.627c-.567-1.398-1.262-2.738-2-4.035-.082-.145-.16-.297-.242-.441a.104.104 0 0 1 .035-.145.103.103 0 0 1 .144.035 7.5 7.5 0 0 1 .285.418c.805 1.274 1.43 2.668 1.993 4.082.377.952.711 1.925 1.003 2.902.002-1.049.03-2.298.02-2.585a30.49 30.49 0 0 0-1.144-7.34c-.715-2.532-.836-5.137-1.258-7.703-.18-1.098-.352-2.2-.539-3.301a.107.107 0 0 1 .093-.129.136.136 0 0 1 .141.109c.246 1.36.492 2.715.715 4.075.32 1.957.414 3.937.902 5.875.738 2.933 1.27 5.867 1.449 8.796.017.281-.06 2.486-.054 3.325.061-2.311.308-4.629.73-6.914a47.776 47.776 0 0 1 2.321-8.282.11.11 0 0 1 .14-.062c.055.019.082.082.063.14a47.983 47.983 0 0 0-2.297 8.247 45.44 45.44 0 0 0-.739 6.624c.184-1.581.439-3.164.793-4.722.489-2.152 1.161-4.258 2.09-6.25a.1.1 0 0 1 .133-.051c.051.024.07.082.051.133-.922 1.984-1.586 4.074-2.067 6.215-.467 2.066-.764 4.173-.949 6.268Z"/>
  </g>
  <g id="brown">
    <path fill="#754600" d="M21.457 16.27c.766-.055 1.668 1.628 2.012 3.753.344 2.129.004 3.899-.762 3.954-.766.054-1.668-1.629-2.012-3.754-.343-2.129-.004-3.899.762-3.953Zm27.262 16.605c.742-.051 1.246 1.555 1.125 3.586-.121 2.031-.824 3.723-1.567 3.773-.742.051-1.246-1.554-1.121-3.586.121-2.031.821-3.722 1.563-3.773Z"/>
  </g>
  <g id="blue">
    <path fill="#4bc3f1" d="m45.459 11.023.003-.003a1.081 1.081 0 0 1 1.531-.131c.452.379.525 1.061.134 1.53l-.003.003c-.702.832-1.41 1.664-2.135 2.488l-.003.003c-.486.545-.984 1.09-1.493 1.626l-.001.002c-1.204 1.262-2.488 2.557-3.611 3.904l-.001.002c-.749.893-1.424 1.813-1.94 2.76l-.001.001a7.945 7.945 0 0 0-.625 1.487c-.435 1.408-.531 2.736-1.013 4.176l-.001.003c-.335.987-.824 1.98-1.444 2.954a19.242 19.242 0 0 1-1.952 2.549 15.789 15.789 0 0 1-2.448 2.237c-1.915 1.431-4.072 2.504-5.961 4.007-2.444 1.966-4.596 4.377-6.979 6.453l-.002.001c-.873.756-1.753 1.511-2.732 2.118-.256.158-.519.301-.786.439h-.002c-.48.247-.962.462-1.44.664-1.094.463-2.18.847-3.267 1.279a48.738 48.738 0 0 0-3.499 1.553 27.867 27.867 0 0 0-3.263 1.894l-.007.004a1.088 1.088 0 0 1-1.495-.284 1.078 1.078 0 0 1 .275-1.505 30.765 30.765 0 0 1 3.487-2.083 53.163 53.163 0 0 1 3.637-1.685l.003-.001c.908-.38 1.828-.71 2.736-1.117.55-.249 1.09-.536 1.63-.863.219-.133.436-.277.652-.418l.008-.005c.876-.553 1.737-1.129 2.541-1.792 2.452-2.022 4.601-4.482 7.076-6.446 1.908-1.523 4.061-2.655 6.019-4.072.77-.557 1.514-1.15 2.183-1.863a16.367 16.367 0 0 0 1.743-2.237l.002-.003c.526-.816.941-1.651 1.22-2.474.482-1.424.571-2.735 1.002-4.127.189-.61.438-1.234.792-1.886.58-1.064 1.339-2.102 2.179-3.113l.002-.003c1.155-1.379 2.474-2.711 3.712-4.008a61.96 61.96 0 0 0 1.439-1.569c.714-.812 1.408-1.63 2.098-2.449Zm7.361.028a1.048 1.048 0 0 1 1.415-.126.989.989 0 0 1 .147 1.45l-.001.002a53.349 53.349 0 0 0-1.55 1.884c-1.197 1.522-2.332 3.075-3.553 4.582-.987 1.222-2.11 2.525-3.01 3.851-.594.875-1.09 1.756-1.35 2.63-.292.978-.193 1.833-.046 2.662.177.995.414 1.959.35 3.008-.054.888-.301 1.831-.925 2.889-.693 1.164-1.586 2.181-2.593 3.113-2.125 1.961-4.782 3.54-6.935 5.522l-.002.001a8.501 8.501 0 0 0-1.307 1.536c-1.018 1.496-1.674 3.082-2.951 4.514-.669.751-1.435 1.454-2.246 2.122-1.748 1.445-3.73 2.752-5.388 4.208a1.082 1.082 0 0 1-1.471-.052 1.024 1.024 0 0 1 .05-1.501c1.666-1.485 3.645-2.831 5.402-4.293.725-.605 1.414-1.232 2.015-1.901 1.21-1.356 1.813-2.874 2.779-4.293.449-.662.97-1.304 1.633-1.912 2.155-1.972 4.814-3.546 6.939-5.506.857-.791 1.623-1.645 2.212-2.634.423-.71.601-1.346.642-1.947.062-.947-.162-1.818-.312-2.718-.176-1.063-.264-2.158.116-3.41.321-1.064.908-2.139 1.634-3.199.938-1.372 2.107-2.718 3.132-3.976 1.224-1.498 2.355-3.038 3.556-4.551a56.73 56.73 0 0 1 1.615-1.951l.003-.004Z"/>
  </g>
</svg>
