<svg xmlns="http://www.w3.org/2000/svg" xml:space="preserve" fill-rule="evenodd" stroke-linejoin="round" stroke-miterlimit="2" clip-rule="evenodd" viewBox="0 0 64 64">
  <g id="blue">
    <path fill="#73a7c7" d="m11.887 16.779 16.988-9.808a6.252 6.252 0 0 1 6.25 0l16.988 9.808a6.25 6.25 0 0 1 3.125 5.413v19.616a6.25 6.25 0 0 1-3.125 5.413l-16.988 9.808a6.252 6.252 0 0 1-6.25 0l-16.988-9.808a6.25 6.25 0 0 1-3.125-5.413V22.192a6.25 6.25 0 0 1 3.125-5.413Zm1.563 2.707a3.125 3.125 0 0 0-1.563 2.706v19.616c0 1.116.596 2.148 1.563 2.706l16.988 9.808a3.121 3.121 0 0 0 3.125 0l16.987-9.808a3.125 3.125 0 0 0 1.563-2.706V22.192a3.125 3.125 0 0 0-1.563-2.706L33.563 9.678a3.126 3.126 0 0 0-3.125 0L13.45 19.486Z"/>
    <path fill="#4f8198" d="m30.435 32.904-14.709-8.493a1.564 1.564 0 1 1 1.564-2.71L32 30.193l14.71-8.492a1.564 1.564 0 1 1 1.564 2.71l-14.709 8.493v16.985a1.565 1.565 0 0 1-3.13 0V32.904ZM45.927 32a1.565 1.565 0 0 1 3.13 0v8.944c0 .559-.298 1.076-.783 1.355l-7.746 4.472a1.564 1.564 0 1 1-1.564-2.71l6.963-4.021V32Z"/>
  </g>
</svg>
