<svg xmlns="http://www.w3.org/2000/svg" xml:space="preserve" fill-rule="evenodd" stroke-linejoin="round" stroke-miterlimit="2" clip-rule="evenodd" viewBox="0 0 64 64">
  <g id="red">
    <path fill="#ff2721" d="M13.213 37.477c-3.728-1.721-6.135-3.081-7.277-4.233-.857-.864-1.173-1.718-1.152-2.501.022-.8.392-1.632 1.305-2.421 1.169-1.01 3.536-2.098 7.124-3.396v3.192c-2.14.794-3.717 1.479-4.718 2.143-.25.165-.455.323-.607.485a1.547 1.547 0 0 0-.068.084.99.99 0 0 0 .083.121c.148.183.35.368.6.564.98.772 2.552 1.627 4.71 2.652v3.31Zm3.545-17.412c-.358-3.981-.376-6.683.044-8.224.319-1.174.901-1.875 1.59-2.248.703-.381 1.609-.476 2.749-.08 1.456.505 3.575 2.006 6.482 4.453l-2.796 1.57c-1.733-1.433-3.097-2.441-4.162-2.971a3.454 3.454 0 0 0-.724-.282 1.044 1.044 0 0 0-.107-.017 1.212 1.212 0 0 0-.063.132c-.085.22-.143.488-.189.802-.174 1.209-.134 2.947.047 5.253l-2.871 1.612Zm19.687-6.07c2.925-2.465 5.055-3.975 6.516-4.482 1.14-.396 2.046-.301 2.749.08.689.373 1.271 1.074 1.591 2.248.42 1.542.401 4.25.043 8.24l-2.872-1.604c.182-2.318.223-4.064.048-5.277a3.859 3.859 0 0 0-.188-.802 1.446 1.446 0 0 0-.064-.132c-.036.004-.076.01-.107.017-.216.05-.455.149-.724.282-1.07.533-2.444 1.549-4.19 2.994l-2.802-1.564Zm14.342 10.957c3.728 1.721 6.135 3.081 7.277 4.233.857.863 1.173 1.718 1.152 2.501-.022.799-.392 1.631-1.305 2.421-1.169 1.01-3.536 2.098-7.124 3.396v-3.192c2.14-.794 3.717-1.479 4.718-2.143.25-.166.455-.323.607-.486a1.03 1.03 0 0 0 .068-.084 1.172 1.172 0 0 0-.083-.121 3.778 3.778 0 0 0-.6-.564c-.98-.772-2.552-1.626-4.71-2.651v-3.31Zm-3.442 18.977c.357 3.985.375 6.689-.044 8.23-.32 1.174-.902 1.875-1.591 2.248-.703.381-1.609.476-2.749.08-1.545-.536-3.838-2.194-7.028-4.916l2.931-1.449c1.93 1.615 3.425 2.742 4.573 3.313.269.133.508.232.724.282.031.007.071.013.107.017.022-.041.048-.092.064-.132.084-.22.142-.488.188-.802.18-1.242.132-3.043-.062-5.444l2.887-1.427Zm-18.58 5.987-.013.009c-3.701 2.65-6.29 4.212-7.959 4.652-1.176.31-2.074.156-2.742-.254-.682-.418-1.217-1.155-1.444-2.341-.288-1.505-.053-4.07.605-7.778l2.801 1.385c-.396 2.311-.6 4.059-.524 5.28.019.299.053.555.117.768.01.03.025.068.039.101.047-.001.103-.004.146-.011.232-.037.493-.12.789-.238 1.25-.5 2.928-1.548 5.128-3.085l3.057 1.512Z"/>
  </g>
  <g id="blue">
    <path fill="#73a7c7" d="m33.478 15.773 14.309 7.991V38.91l-14.451-6.941.142-16.196Zm12.385 25.541L32 48.169l-13.89-6.868 13.725-6.725 14.028 6.738ZM30.477 15.805l-.141 16.165-14.123 6.92V23.811l14.264-8.006Z"/>
    <path fill="#4f8198" d="M13.213 41.292V22.933a1.5 1.5 0 0 1 .766-1.308l17.267-9.692.02-.011a1.498 1.498 0 0 1 1.465-.002l.033.019 17.254 9.635a1.5 1.5 0 0 1 .769 1.31v18.411a1.501 1.501 0 0 1-.835 1.345l-17.287 8.547a1.502 1.502 0 0 1-1.33 0L14.048 42.64a1.5 1.5 0 0 1-.835-1.345v-.003Zm17.264-25.487-14.264 8.006V38.89l14.123-6.92.141-16.165Zm3.001-.032-.142 16.196 14.451 6.941V23.764l-14.309-7.991Zm12.385 25.541-14.028-6.738-13.725 6.725L32 48.169l13.863-6.855Z"/>
  </g>
</svg>
