<svg xmlns="http://www.w3.org/2000/svg" xml:space="preserve" fill-rule="evenodd" stroke-linejoin="round" stroke-miterlimit="2" clip-rule="evenodd" viewBox="0 0 64 64">
  <g id="blue">
    <path fill="#55bbe2" d="M7.485 43.634c-2.055-.052-3.55-.152-3.788-.329-.875-.652-.375-10.417-.375-10.417s.095-11.373 3.928-11.373h12.828c.973 0 1.646 0 2.158.624.513.624.34 3.146.34 3.146v18.279s-.986.022-2.508.047c-.127-3.395-2.853-6.154-6.211-6.281-6.202-.684-6.372 6.304-6.372 6.304Zm11.003 0c-3.266.044-7.81.08-11.003 0h11.003Z"/>
  </g>
  <g id="grey">
    <path fill="#4c4c50" d="M61 36.8v6.899H22.604V36.8H61Zm-22.471 6.834h12.733c-.117-3.406-2.88-6.177-6.285-6.304-6.276-.684-6.448 6.304-6.448 6.304Z"/>
    <path fill="#474f5f" fill-rule="nonzero" d="M7.893 23.394c-1.697.552-2.174 3.758-2.174 3.758s-1.068 4.526 0 5.078c3.56.493 7.171.493 10.732 0a27.134 27.134 0 0 0 0-8.838 23.782 23.782 0 0 0-8.558.002Z"/>
    <path fill="#182237" d="M8.219 43.634h-.683s.172-6.988 6.448-6.304c3.405.127 6.168 2.898 6.285 6.304H17.79a4.801 4.801 0 0 0-4.785-4.435 4.802 4.802 0 0 0-4.786 4.435Zm31.197 0h-.887s.172-6.988 6.448-6.304c3.405.127 6.168 2.898 6.285 6.304h-2.275a4.801 4.801 0 0 0-4.785-4.435 4.802 4.802 0 0 0-4.786 4.435Z"/>
    <path fill="#3a4654" d="M13.005 39.199a4.802 4.802 0 0 1 4.799 4.8 4.8 4.8 0 0 1-4.799 4.799c-2.649 0-4.8-2.15-4.8-4.799 0-2.649 2.151-4.8 4.8-4.8Zm.002 1.575a3.177 3.177 0 0 0-3.176 3.176 3.176 3.176 0 1 0 3.176-3.176Zm31.195-1.575a4.802 4.802 0 0 1 4.799 4.8 4.8 4.8 0 0 1-4.799 4.799c-2.649 0-4.8-2.15-4.8-4.799 0-2.649 2.151-4.8 4.8-4.8Zm-.016 1.575a3.177 3.177 0 0 0-3.175 3.176 3.177 3.177 0 0 0 3.175 3.175 3.177 3.177 0 0 0 3.176-3.175 3.177 3.177 0 0 0-3.176-3.176Z"/>
    <path fill="#cbcbcb" d="M22.604 15.202H61V36.8H22.604z"/>
    <path fill="#707070" d="M44.186 40.774a3.177 3.177 0 0 1 3.176 3.176 3.177 3.177 0 0 1-3.176 3.175 3.177 3.177 0 0 1-3.175-3.175 3.177 3.177 0 0 1 3.175-3.176Zm-31.179 0a3.176 3.176 0 0 1 0 6.351 3.177 3.177 0 0 1-3.176-3.175 3.177 3.177 0 0 1 3.176-3.176Z"/>
  </g>
  <g id="white">
    <path fill="#fff" fill-rule="nonzero" d="M3.262 36.797s1.763-.218 1.972.391a4.904 4.904 0 0 1 0 2.573c-.24.48-1.972.312-1.972.312A5.17 5.17 0 0 1 3 38.489a6.385 6.385 0 0 1 .262-1.692Z"/>
  </g>
</svg>
