<svg xmlns="http://www.w3.org/2000/svg" xml:space="preserve" fill-rule="evenodd" stroke-linejoin="round" stroke-miterlimit="2" clip-rule="evenodd" viewBox="0 0 64 64">
  <g id="grey">
    <path fill="#929090" d="M53.596 51.422H10.402a.5.5 0 0 1-.5-.5V27.965a.5.5 0 0 1 .5-.5h2.23a.5.5 0 0 1 .5.5v2.578h37.734v-2.652a.5.5 0 0 1 .5-.5h2.23a.5.5 0 0 1 .5.5v23.031a.5.5 0 0 1-.5.5Z"/>
  </g>
  <g id="blue">
    <path fill="#4bc3f1" d="M15.465 13.094s2.832 5.328 2.832 7.609a2.834 2.834 0 0 1-2.832 2.832 2.833 2.833 0 0 1-2.832-2.832c0-2.281 2.832-7.609 2.832-7.609Zm10.855 0s2.832 5.328 2.832 7.609a2.833 2.833 0 0 1-2.832 2.832 2.834 2.834 0 0 1-2.832-2.832c0-2.281 2.832-7.609 2.832-7.609Zm11.36 0s2.832 5.328 2.832 7.609a2.834 2.834 0 0 1-2.832 2.832 2.833 2.833 0 0 1-2.832-2.832c0-2.281 2.832-7.609 2.832-7.609Zm10.855 0s2.832 5.328 2.832 7.609a2.833 2.833 0 0 1-2.832 2.832 2.834 2.834 0 0 1-2.832-2.832c0-2.281 2.832-7.609 2.832-7.609Z"/>
    <path fill="#73a7c7" d="M12.907 27.548c.608.067 1.201.241 1.777.413.635.189 1.239.397 1.823.255h.002c.656-.157 1.307-.511 2.005-.777.856-.326 1.769-.535 2.792-.326 2.09.424 3.767 1.059 5.297 1.328 1.514.266 2.783-.229 3.867-.658.889-.351 1.681-.66 2.383-.685 1.069-.039 2.11.371 3.104.783.762.315 1.483.654 2.176.556 1.918-.271 3.363-1.015 4.936-1.325.845-.168 1.695-.013 2.546.279.723.249 1.449.597 2.176.855.632.226 1.229.116 1.809-.04.428-.116.85-.257 1.269-.37a.493.493 0 0 0-.003.055v1.498c-.289.089-.58.185-.875.265-.867.234-1.758.343-2.704.005-.722-.256-1.442-.603-2.16-.849-.591-.203-1.178-.343-1.766-.226h-.001c-1.599.314-3.068 1.062-5.017 1.339-.771.108-1.581-.108-2.414-.435-.963-.377-1.968-.929-3.022-.891l-.002.001c-.723.024-1.546.468-2.517.823-1.168.429-2.505.767-4.045.498-1.54-.271-3.231-.91-5.337-1.336-.718-.147-1.357.029-1.958.258-.76.289-1.473.662-2.188.833-.685.166-1.397.062-2.13-.139-.518-.141-1.05-.342-1.598-.447v-1.123a.497.497 0 0 0-.225-.417Zm.225 2.15c.502.082.994.227 1.475.371.635.19 1.24.399 1.826.257.656-.159 1.307-.513 2.005-.779.855-.326 1.767-.535 2.792-.329h.002c2.077.423 3.753 1.055 5.274 1.325H13.132v-.845Zm15.168.845c.769-.131 1.463-.403 2.094-.653.889-.352 1.681-.662 2.385-.687 1.068-.038 2.109.373 3.102.786.565.234 1.107.482 1.633.554H28.3Zm9.779 0c1.907-.274 3.35-1.017 4.917-1.326.843-.166 1.693-.01 2.543.282.723.249 1.449.596 2.176.853l.002.001c.631.225 1.226.115 1.805-.042.454-.122.9-.274 1.344-.39v.622H38.079Z"/>
    <path fill="#4f8198" d="M19.543 40.949v-4.437a1 1 0 0 1 2 0v4.437h2.574a1.001 1.001 0 0 1 .7 1.714l-3.553 3.483-.021.021a1 1 0 0 1-1.393.007l-3.645-3.504a1.002 1.002 0 0 1 .693-1.721h2.645Zm11.746 0v-4.437a1 1 0 0 1 2 0v4.437h2.574a1.001 1.001 0 0 1 .7 1.714l-3.553 3.483-.021.021a1 1 0 0 1-1.393.007l-3.648-3.504a1 1 0 0 1 .693-1.721h2.648Zm11.746 0v-4.437a1 1 0 0 1 2 0v4.437h2.574a1.001 1.001 0 0 1 .7 1.714l-3.553 3.483-.021.021a1 1 0 0 1-1.393.007l-3.648-3.504a1 1 0 0 1 .693-1.721h2.648Z"/>
  </g>
</svg>
