<svg xmlns="http://www.w3.org/2000/svg" xml:space="preserve" fill-rule="evenodd" stroke-linejoin="round" stroke-miterlimit="2" clip-rule="evenodd" viewBox="0 0 64 64">
  <g id="orange">
    <path fill="#ffd49b" fill-rule="nonzero" d="M34.929 7.721H10.558a4.933 4.933 0 0 0-4.875 4.988v24.942a4.926 4.926 0 0 0 4.875 4.984h24.371a4.93 4.93 0 0 0 4.875-4.984V12.709a4.936 4.936 0 0 0-4.875-4.988m-19.5 27.434a2.5 2.5 0 0 1-2.344-1.5 2.497 2.497 0 0 1 3.23-3.305 2.5 2.5 0 0 1 1.551 2.313 2.462 2.462 0 0 1-2.437 2.492m0-14.965a2.498 2.498 0 0 1-2.344-1.5 2.497 2.497 0 0 1 .508-2.738 2.492 2.492 0 0 1 4.273 1.746 2.465 2.465 0 0 1-.699 1.754 2.47 2.47 0 0 1-1.738.742v-.004m7.312 7.484a2.503 2.503 0 0 1-2.344-1.5 2.493 2.493 0 1 1 4.782-.996 2.462 2.462 0 0 1-2.438 2.496m7.313 7.481a2.493 2.493 0 0 1-1.852-4.231 2.484 2.484 0 0 1 2.723-.574 2.499 2.499 0 0 1 1.558 2.313 2.466 2.466 0 0 1-2.429 2.492m0-14.965a2.493 2.493 0 0 1-1.852-4.234 2.508 2.508 0 0 1 2.727-.571 2.51 2.51 0 0 1 1.554 2.313 2.467 2.467 0 0 1-2.429 2.496v-.004"/>
  </g>
  <g id="brown">
    <path fill="#754600" fill-rule="nonzero" d="m55.46 26.846-13.301-4.953-.058 14.988a10.457 10.457 0 0 1-1.231 5.61 8.632 8.632 0 0 1-3.598 2.14l-14.222.004s-1.707 2.571.418 3.617l8.191 2.77 13.426 4.996a4.31 4.31 0 0 0 5.555-2.652l7.41-20.836a4.46 4.46 0 0 0-2.59-5.684M43.237 48.249a2.231 2.231 0 0 1-1.297-2.84c.188-.551.586-1 1.114-1.25a2.13 2.13 0 0 1 1.668-.082 2.231 2.231 0 0 1 1.293 2.843 2.152 2.152 0 0 1-2.778 1.329"/>
  </g>
</svg>
