<svg xmlns="http://www.w3.org/2000/svg" xml:space="preserve" fill-rule="evenodd" stroke-linejoin="round" stroke-miterlimit="2" clip-rule="evenodd" viewBox="0 0 64 64">
  <g id="black">
    <rect width="8" height="16" x="30" y="8"/>
  </g>
  <g id="grey">
    <path fill="#b5b5b5" d="M43.356 5.835v24.198H9.947V5.835h33.409ZM38 8h-8v16h8V8Z"/>
  </g>
  <g id="blue">
    <path fill="#4f8198" fill-rule="nonzero" d="M51.496 4.465H10.805c-3.2 0-5.832 2.637-5.832 5.836v42.871c0 3.199 2.632 5.836 5.832 5.836h42.8c3.2-.008 5.829-2.645 5.825-5.844V11.766l-7.934-7.301ZM42 27.5s-.047 1.207-.852 1.207H12.266a1.468 1.468 0 0 1-1.457-1.461c0-13.465-.125-21.058-.125-21.058h31.379L42 27.5Z"/>
  </g>
</svg>
