<svg xmlns="http://www.w3.org/2000/svg" xml:space="preserve" fill-rule="evenodd" stroke-linejoin="round" stroke-miterlimit="2" clip-rule="evenodd" viewBox="0 0 64 64">
  <g id="orange">
    <path fill="#ffd49b" d="M55.922 29.324c-3.045 2.101-10.571 6.118-23.602 6.118-13.09 0-21.004-4.05-24.251-6.172C11.954 25.045 19.705 18.925 32 18.925c12.183 0 19.995 6.166 23.922 10.399Zm-45.351 6.784c4.811 2.12 11.999 4.184 21.749 4.184 9.298 0 16.116-1.876 20.761-3.895-4.939 4.048-12.47 8.678-21.081 8.678-8.814 0-16.499-4.854-21.429-8.967Z"/>
  </g>
  <g id="brown">
    <path fill="#754600" d="M.827 30.804S10.221 14.075 32 14.075c21.488 0 31.157 16.703 31.157 16.703a2.426 2.426 0 0 1-.221 2.762S49.35 49.925 32 49.925c-17.345 0-30.936-16.385-30.936-16.385a2.424 2.424 0 0 1-.237-2.736Zm55.095-1.48C51.995 25.091 44.183 18.925 32 18.925c-12.295 0-20.046 6.12-23.931 10.345 3.247 2.122 11.161 6.172 24.251 6.172 13.031 0 20.557-4.017 23.602-6.118Zm-45.351 6.784c4.93 4.113 12.615 8.967 21.429 8.967 8.611 0 16.142-4.63 21.081-8.678-4.645 2.019-11.463 3.895-20.761 3.895-9.75 0-16.938-2.064-21.749-4.184Z"/>
  </g>
</svg>
