<svg xmlns="http://www.w3.org/2000/svg" xml:space="preserve" fill-rule="evenodd" stroke-linejoin="round" stroke-miterlimit="2" clip-rule="evenodd" viewBox="0 0 64 64">
  <g id="black">
    <path fill="#010001" d="M41.079 32c0 5.168-4.026 9.395-9.036 9.395-5.013 0-9.036-4.227-9.036-9.395 0-5.168 4.023-9.395 9.036-9.395 5.01 0 9.036 4.227 9.036 9.395Z"/>
  </g>
  <g id="blue">
    <path fill="#73a7c7" d="M45.929 32c0 7.886-6.24 14.245-13.886 14.245-7.651 0-13.886-6.359-13.886-14.245 0-7.886 6.235-14.245 13.886-14.245 7.646 0 13.886 6.359 13.886 14.245Zm-4.85 0c0-5.168-4.026-9.395-9.036-9.395-5.013 0-9.036 4.227-9.036 9.395 0 5.168 4.023 9.395 9.036 9.395 5.01 0 9.036-4.227 9.036-9.395Z"/>
  </g>
  <g id="brown">
    <path fill="#aa7850" d="M.91 30.806s9.38-16.731 31.133-16.731c21.456 0 31.114 16.704 31.114 16.704.51.876.422 1.976-.221 2.76 0 0-13.57 16.386-30.893 16.386-17.327 0-30.897-16.386-30.897-16.386a2.424 2.424 0 0 1-.236-2.733Zm5.162.983c3.356 3.602 13.536 13.286 25.971 13.286 12.415 0 22.584-9.658 25.954-13.271-2.689-3.612-11.042-12.879-25.954-12.879-15.107 0-23.343 9.266-25.971 12.864Z"/>
  </g>
</svg>
