<svg xmlns="http://www.w3.org/2000/svg" xml:space="preserve" fill-rule="evenodd" stroke-linejoin="round" stroke-miterlimit="2" clip-rule="evenodd" viewBox="0 0 64 64">
  <g id="brown">
    <path fill="#49362f" d="m12.999 15.883-3.443-3.886.685-.398 2.758 1.577v2.707Zm2.19-1.456 5.11 2.92v2.707l-5.11-2.92v-2.707Zm7.299 4.171 5.11 2.92v2.707l-5.11-2.92v-2.707Zm7.3 4.171 5.11 2.92v2.708l-5.11-2.92v-2.708Zm7.299 4.171 5.11 2.92v2.708l-5.11-2.92V26.94Zm7.299 4.171 5.11 2.92v2.708l-5.11-2.92v-2.708Zm7.3 4.171 2.758 1.576v2.708l-.685.398-2.073-1.974v-2.708Zm0 17.466 2.758 1.576v2.708l-.685.397-2.073-4.681Zm-2.19 1.456-5.11-2.92v-2.707l5.11 2.92v2.707Zm-7.299-4.171-5.11-2.92v-2.708l5.11 2.92v2.708Zm-7.299-4.171-5.11-2.92v-2.708l5.11 2.92v2.708Zm-7.3-4.171-5.11-2.92v-2.708l5.11 2.92v2.708Zm-7.299-4.171-5.11-2.92v-2.708l5.11 2.92v2.708Zm-7.3-4.171-3.443-3.781.685-.503 2.758 1.576v2.708Z"/>
    <path fill="#754600" d="m12.314 16.281-2.758-1.576v-2.708l2.758 1.576v2.708Zm2.19-1.457 5.11 2.92v2.708l-5.11-2.92v-2.708Zm7.299 4.171 5.11 2.92v2.708l-5.11-2.92v-2.708Zm7.299 4.171 5.11 2.92v2.708l-5.11-2.92v-2.708Zm7.3 4.172 5.11 2.92v2.707l-5.11-2.92v-2.707Zm7.299 4.171 5.11 2.92v2.707l-5.11-2.92v-2.707Zm7.3 4.171 2.758 1.576v2.708l-2.758-1.576V35.68Zm0 17.465 2.758 1.576v2.708l-2.758-1.576v-2.708Zm-2.19 1.457-5.11-2.92v-2.708l5.11 2.92v2.708Zm-7.299-4.171-5.11-2.92v-2.708l5.11 2.92v2.708Zm-7.3-4.171-5.11-2.92v-2.708l5.11 2.92v2.708Zm-7.299-4.171-5.11-2.92v-2.708l5.11 2.92v2.708Zm-7.299-4.172-5.11-2.92V32.29l5.11 2.92v2.707Zm-7.3-4.171L9.556 32.17v-2.708l2.758 1.577v2.707Z"/>
    <path fill="#8f7148" d="M15.435 6.134v31.587l-.919.548-2.202-32.817.931-.569 2.19 1.251Zm7.299 4.171v31.587l-.931.54-2.189-32.837.931-.541 2.189 1.251Zm7.3 4.171v31.587l-.932.541-2.189-32.81.931-.569 2.19 1.251Zm7.299 4.172v31.586l-.931.541-2.19-32.81.932-.569 2.189 1.252Zm7.3 4.171v31.586l-.932.541-2.189-32.81.931-.568 2.19 1.251Zm7.299 4.171v31.586l-.931.541-2.19-32.838.932-.54 2.189 1.251Z"/>
    <path fill="#aa7850" d="M14.504 6.675v31.586l-2.19-1.251V5.424l2.19 1.251Zm7.299 4.171v31.586l-2.189-1.251V9.595l2.189 1.251Zm7.299 4.171v31.587l-2.189-1.252V13.766l2.189 1.251Zm7.3 4.171v31.587l-2.19-1.251V17.937l2.19 1.251Zm7.299 4.171v31.587l-2.189-1.251V22.108l2.189 1.251Zm7.3 4.171v31.587l-2.19-1.251V26.279l2.19 1.251Z"/>
  </g>
</svg>
