<svg xmlns="http://www.w3.org/2000/svg" xml:space="preserve" fill-rule="evenodd" stroke-linejoin="round" stroke-miterlimit="2" clip-rule="evenodd" viewBox="0 0 64 64">
  <g id="brown">
    <path fill="#754600" d="M9.25 26.959H6.006v-2.765H9.25v2.765Zm2.575-2.765h6.01v2.765h-6.01v-2.765Zm8.585 0h6.01v2.765h-6.01v-2.765Zm8.585 0h6.01v2.765h-6.01v-2.765Zm8.585 0h6.01v2.765h-6.01v-2.765Zm8.585 0h6.01v2.765h-6.01v-2.765Zm8.585 0h3.244v2.765H54.75v-2.765Zm0 17.835h3.244v2.765H54.75v-2.765Zm-2.575 2.765h-6.01v-2.765h6.01v2.765Zm-8.585 0h-6.01v-2.765h6.01v2.765Zm-8.585 0h-6.01v-2.765h6.01v2.765Zm-8.585 0h-6.01v-2.765h6.01v2.765Zm-8.585 0h-6.01v-2.765h6.01v2.765Zm-8.585 0H6.006v-2.765H9.25v2.765Z"/>
    <path fill="#aa7850" d="M11.825 15.872v32.255H9.25V15.872h2.575Zm8.585 0v32.255h-2.575V15.872h2.575Zm8.585 0v32.255H26.42V15.872h2.575Zm8.585 0v32.255h-2.575V15.872h2.575Zm8.585 0v32.255H43.59V15.872h2.575Zm8.585 0v32.255h-2.575V15.872h2.575Z"/>
  </g>
</svg>
