<svg xmlns="http://www.w3.org/2000/svg" xml:space="preserve" fill-rule="evenodd" stroke-linejoin="round" stroke-miterlimit="2" clip-rule="evenodd" viewBox="0 0 64 64">
  <g id="blue">
    <path fill="#c2f0ff" d="M15.171 6.024h.028L48.931 6c2.67 0 4.867 2.197 4.867 4.867v3.169c.001.231-.077.457-.219.639L38.971 33.398v23.564c0 .57-.469 1.039-1.039 1.039-.212 0-.42-.066-.594-.187L25.97 49.906a1.04 1.04 0 0 1-.447-.854V33.406L10.43 14.611a1.037 1.037 0 0 1-.228-.652v-2.966c0-2.726 2.243-4.969 4.969-4.969Zm19.64 44.965V34.198h-5.128v13.223l5.128 3.568ZM49.794 12.97c.102-.742.129-1.398.028-1.937-.101-.539-.376-.906-.947-.976l-33.656.024c-.552.112-.875.494-1.005 1.106-.097.453-.092 1.021.001 1.697l13.84 17.139h8.36L49.794 12.97Z"/>
  </g>
</svg>
