<svg xmlns="http://www.w3.org/2000/svg" xml:space="preserve" fill-rule="evenodd" stroke-linejoin="round" stroke-miterlimit="2" clip-rule="evenodd" viewBox="0 0 64 64">
  <g id="brown">
    <path fill="#ffd1aa" d="m47.263 11.594 1.997-1.143 1.159.965-1.98 1.157-1.176-.979Z"/>
    <path fill="#af6e2e" d="M50.419 19.19v3.818l4.275 3.623v2.128l-6.263-5.213.008-10.968 1.98-1.162v3.662l-.365-.302-1.141.631v2.503l1.506 1.28Zm5.442-.411 1.989-1.14v24.107l-1.936 1.089v-8.823l-5.076 2.886v8.864l-2.06 1.18v-11.33l7.083-4.014V18.779ZM43.406 33.55v6.027l-2.06 1.18v-8.954l2.06 1.747Z"/>
    <path fill="#c19674" d="m40.193 28.514 7.087-4.058 8.581 7.141-7.083 4.015-8.585-7.098Z"/>
    <path fill="#ffd1aa" d="m54.694 17.784 1.969-1.132 1.187.987-1.989 1.14-1.167-.995Z"/>
    <path fill="#e9b994" d="m55.861 31.598-8.595-7.154V11.602l1.173.971-.006 10.975 6.261 5.211v-5.934l-5.781-4.915v-2.503l5.781 4.804v-2.427l1.167.971v12.843Z"/>
    <path fill="#c19674" d="M40.193 39.797V28.514l8.585 7.098v11.309l-1.372-1.119-.007-8.865-6.053-5.134v8.954l-1.153-.96Z"/>
    <path fill="#c19674" fill-rule="nonzero" d="m55.914 42.835-1.313-1.037v-7.029l1.313-.757v8.823Z"/>
    <path fill="#ffd1aa" d="m48.913 15.407 1.141-.631 4.64 3.861v1.589l-5.781-4.819Z"/>
    <path fill="#e9b994" d="M13.581 19.416v3.817l-4.275 3.623v2.128l6.263-5.212-.008-10.968-1.98-1.163v3.663l.365-.303 1.141.632v2.503l-1.506 1.28Zm-5.442-.412L6.15 17.865v24.107l1.936 1.088v-8.822l5.076 2.885v8.864l2.06 1.18v-11.33l-7.083-4.014V19.004Zm12.455 14.771v6.028l2.06 1.179v-8.954l-2.06 1.747Z"/>
    <path fill="#c19674" d="m23.807 28.74-7.087-4.058-8.581 7.141 7.083 4.014 8.585-7.097Z"/>
    <path fill="#ffd1aa" d="m9.306 18.01-1.969-1.132-1.187.987 1.989 1.139 1.167-.994Z"/>
    <path fill="#ffd1aa" d="m15.087 15.633-1.141-.632-4.64 3.862v1.589l5.781-4.819Z"/>
    <path fill="#ffd1aa" d="m16.737 11.82-1.997-1.143-1.159.964 1.98 1.158 1.176-.979Z"/>
    <path fill="#af6e2e" d="m8.139 31.823 8.595-7.153V11.827l-1.173.972.006 10.975-6.261 5.21V23.05l5.781-4.914v-2.503l-5.781 4.803V18.01l-1.167.97v12.843Zm15.668 8.2V28.74l-8.585 7.097v11.31l1.372-1.119.007-8.865 6.053-5.135v8.954l1.153-.959Z"/>
    <path fill="#af6e2e" fill-rule="nonzero" d="m8.086 43.06 1.313-1.037v-7.029l-1.313-.756v8.822Z"/>
    <path fill="#8f7148" d="M38.761 49.029c.151 1.129-.48 2.303-1.9 3.203-2.619 1.66-6.935 1.765-9.633.236-1.516-.859-2.2-2.054-2.044-3.229.127.952.811 1.873 2.044 2.573 2.698 1.529 7.014 1.423 9.633-.236 1.146-.727 1.778-1.631 1.9-2.547Z"/>
    <path fill="#66503a" d="M35.509 42.576v5.153c.281.694-.023 1.467-.918 2.034-1.388.879-3.676.936-5.106.125-.879-.498-1.231-1.209-1.048-1.888v-5.321c2.33.262 4.743.226 7.072-.103Z"/>
    <path fill="#8f7148" d="M28.437 42.679c-3.026-.339-5.912-1.179-8.295-2.529-3.79-2.148-5.501-5.133-5.109-8.072.318 2.381 2.025 4.683 5.109 6.431 6.743 3.821 17.53 3.557 24.075-.59 2.865-1.816 4.446-4.077 4.75-6.366.378 2.824-1.199 5.757-4.75 8.007-2.452 1.555-5.5 2.563-8.708 3.016a28.327 28.327 0 0 1-7.072.103Z"/>
    <path fill="#a2886b" d="M35.509 45.256c.427.15.833.331 1.207.543 1.518.86 2.201 2.054 2.045 3.23-.122.916-.754 1.82-1.9 2.547-2.619 1.659-6.935 1.765-9.633.236-1.233-.7-1.917-1.621-2.044-2.573-.151-1.13.48-2.304 1.901-3.204a7.49 7.49 0 0 1 1.352-.669V48c-.183.679.169 1.39 1.048 1.888 1.43.811 3.718.754 5.106-.125.895-.567 1.199-1.34.918-2.034v-2.473Z"/>
    <path fill="#a2886b" d="M15.033 32.078c-.378-2.823 1.199-5.757 4.75-8.007 6.545-4.147 17.332-4.411 24.075-.59 3.79 2.148 5.501 5.133 5.109 8.072-.304 2.289-1.885 4.55-4.75 6.366-6.545 4.147-17.332 4.411-24.075.59-3.084-1.748-4.791-4.05-5.109-6.431Z"/>
  </g>
  <g id="white">
    <path fill="#ebebeb" d="m21.829 24.589 4.483-2.841 4.441 2.518-4.483 2.84-4.441-2.517Zm14.854-3.488.056.009 4.714 2.672-4.974 3.153-4.752-2.693 4.956-3.141Zm10.858 12.645-4.511 2.859-.715-.406 4.482-2.84.744.387Zm-6.349-3.563-4.482 2.84-4.7-2.664 4.483-2.84 4.699 2.664ZM26.285 27.69l4.751 2.693-4.69 2.973-4.752-2.693 4.691-2.973ZM36.65 39.196l-4.616-2.616 4.691-2.973 4.616 2.616-4.691 2.973Zm.73.989-.954.604-4.036 5.382-.61-.765 2.526-4.132 2.359-1.494.715.405Zm9.762-13.179 1.063.603c.793 1.182 1.088 2.773 1.113 4.584l-.121-.86-.364.143-2.05 1.299-4.617-2.616 4.976-3.153ZM26.071 39.765l-4.701-2.664 4.99-3.161 4.7 2.663-4.989 3.162ZM15.63 33.848l-.127-.072c-.334 1.043-.429 2.246-.525 3.447-.211-2.408-.319-4.747.051-6.759a6.746 6.746 0 0 1 .552-1.916l.598-.379 4.441 2.518-4.99 3.161Z"/>
  </g>
  <g id="red" fill="#f00">
    <path d="m41.947 24.062 4.701 2.664-4.976 3.153-4.699-2.664 4.974-3.153ZM26.79 21.445l.217-.138a28.25 28.25 0 0 1 8.909-.313l-4.683 2.968-4.443-2.517Zm.05 12.191 4.691-2.973 4.7 2.664-4.692 2.972-4.699-2.663Zm19.463-.557-4.482 2.84-4.617-2.616 4.483-2.84 4.616 2.616Zm-15.056-8.533 4.752 2.693-4.483 2.84-4.751-2.693 4.482-2.84ZM42.55 36.909l-4.691 2.972-.715-.405 4.691-2.973.715.406Zm6.762-3.906c-.028 1.115-.141 2.299-.29 3.512-.075-1.346-.143-2.707-.457-3.418l-.573.363-.715-.405 1.586-1.005.449.953Zm-32.653-5.138 4.69-2.972 4.442 2.517-4.691 2.973-4.441-2.518ZM31.457 45l-3.171-3.979-1.721-.976 4.989-3.162L36.17 39.5l-2.185 1.384-.079.081L31.457 45Zm-10.581-8.179-4.751-2.693 4.989-3.161 4.752 2.693-4.99 3.161Z"/>
    <path d="M15.63 33.848c-.167-.265-.532-.017-.826.044-.022 1.242.035 2.009.175 3.331l.651-3.375Z"/>
    <path d="m16.179 28.169.48-.304 4.441 2.518 4.691-2.973-4.442-2.517.48-.304 4.441 2.517 4.483-2.84-4.441-2.518.478-.303 4.443 2.517 4.683-2.968c.256.034.512.07.767.107l-4.956 3.141 4.752 2.693 4.974-3.153.494.28-4.974 3.153 4.699 2.664 4.976-3.153.494.28-4.976 3.153 4.617 2.616 2.05-1.299.442-.262.043.979.001.444c-.001.121-.003.243-.007.366l-.449-.953-1.586 1.005.715.405-.451.286-.744-.387-4.482 2.84.715.406-.48.304-.715-.406-4.691 2.973.715.405-.479.304-.715-.405-2.359 1.494-2.526 4.132-.323-.406 2.449-4.035.079-.081L36.17 39.5l-4.616-2.617-4.989 3.162-.494-.28 4.989-3.162-4.7-2.663-4.99 3.161-.494-.28 4.99-3.161-4.752-2.693-4.989 3.161-.495-.28 4.99-3.161-4.441-2.518Zm25.013 2.014-4.699-2.664-4.483 2.84 4.7 2.664 4.482-2.84ZM26.84 33.636l4.699 2.663 4.692-2.972-4.7-2.664-4.691 2.973Zm-.555-5.946-4.691 2.973 4.752 2.693 4.69-2.973-4.751-2.693ZM36.65 39.196l4.691-2.973-4.616-2.616-4.691 2.973 4.616 2.616Zm9.653-6.117-4.616-2.616-4.483 2.84 4.617 2.616 4.482-2.84Zm-15.056-8.533-4.482 2.84 4.751 2.693 4.483-2.84-4.752-2.693Z"/>
  </g>
</svg>
