<svg xmlns="http://www.w3.org/2000/svg" xml:space="preserve" fill-rule="evenodd" stroke-linejoin="round" stroke-miterlimit="2" clip-rule="evenodd" viewBox="0 0 64 64">
  <g id="black" fill="#131313">
    <path d="M51.535 8.712H53v23.363h-1.465z"/>
    <path fill-rule="nonzero" d="M27.198 32.288h-4.312l-1.714-5.356h-7.847l-1.62 5.356H7.5l7.646-23.576h4.192l7.86 23.576ZM19.9 22.96l-2.705-8.748-2.651 8.748H19.9Z"/>
    <path fill-rule="nonzero" d="M29.113 32.288V8.712h3.763v8.491c1.161-1.586 2.536-2.38 4.125-2.38 1.732 0 3.165.753 4.298 2.26C42.433 18.589 43 20.752 43 23.572c0 2.916-.578 5.162-1.734 6.738-1.156 1.575-2.56 2.363-4.212 2.363-.812 0-1.613-.243-2.403-.731s-1.471-1.209-2.043-2.163v2.509h-3.495Zm3.736-8.909c0 1.768.233 3.076.697 3.923.652 1.201 1.517 1.801 2.598 1.801.83 0 1.537-.426 2.122-1.278.585-.852.877-2.195.877-4.028 0-1.952-.294-3.359-.883-4.222-.59-.863-1.344-1.294-2.264-1.294-.901 0-1.651.421-2.249 1.262-.598.842-.898 2.12-.898 3.836Z"/>
  </g>
  <g id="blue">
    <path fill="#c2f0ff" d="M60.645 7.98V32.5a4.628 4.628 0 0 1-4.625 4.625H7.98A4.628 4.628 0 0 1 3.355 32.5V7.98A4.628 4.628 0 0 1 7.98 3.355h48.04a4.628 4.628 0 0 1 4.625 4.625Zm-3 0c0-.896-.729-1.625-1.625-1.625H7.98c-.896 0-1.625.729-1.625 1.625V32.5c0 .896.729 1.625 1.625 1.625h48.04c.896 0 1.625-.729 1.625-1.625V7.98Z"/>
  </g>
  <g id="grey">
    <path fill="#838383" fill-rule="nonzero" d="M37.146 47.248a4.85 4.85 0 0 1 4.623-2.953 19.3 19.3 0 0 0 .05-6.073 4.85 4.85 0 0 1-3.385-8.395 19.16 19.16 0 0 0-4.234-4.33 4.828 4.828 0 0 1-3.482 1.484c-2.652 0-4.838-2.189-4.838-4.849 0-.059.003-.116.003-.175a19.156 19.156 0 0 0-6.055-.05c.003.03.003.062.003.089 0 2.658-2.181 4.846-4.831 4.846a4.81 4.81 0 0 1-1.894-.39 4.748 4.748 0 0 1-1.65-1.156 19.658 19.658 0 0 0-4.314 4.266 4.863 4.863 0 0 1 1.477 3.492c0 2.661-2.183 4.852-4.838 4.852-.053 0-.106 0-.162-.003a19.3 19.3 0 0 0-.047 6.073h.079c2.65 0 4.832 2.189 4.832 4.847a4.863 4.863 0 0 1-1.532 3.543 19.289 19.289 0 0 0 4.241 4.333 4.813 4.813 0 0 1 3.47-1.475c2.65 0 4.825 2.185 4.825 4.84v.169c2.003.339 4.047.354 6.055.049v-.065c0-2.66 2.183-4.852 4.838-4.852 1.332 0 2.611.555 3.523 1.531a19.374 19.374 0 0 0 4.323-4.256 4.895 4.895 0 0 1-1.08-5.392Zm-17.429 1.106a7.873 7.873 0 0 1-4.776-7.236c0-4.312 3.537-7.861 7.837-7.861 4.299 0 7.837 3.549 7.837 7.861a7.853 7.853 0 0 1-.624 3.071 7.84 7.84 0 0 1-7.21 4.79 7.806 7.806 0 0 1-3.064-.625Z"/>
  </g>
</svg>
