<svg xmlns="http://www.w3.org/2000/svg" xml:space="preserve" fill-rule="evenodd" stroke-linejoin="round" stroke-miterlimit="2" clip-rule="evenodd" viewBox="0 0 64 64">
  <g id="grey">
    <path fill="#acabab" fill-rule="nonzero" d="M51.195 40.148a6.445 6.445 0 0 1 6.141-3.91 25.47 25.47 0 0 0 .066-8.043 6.531 6.531 0 0 1-2.625-.511 6.422 6.422 0 0 1-3.918-5.907 6.42 6.42 0 0 1 2.047-4.699 25.419 25.419 0 0 0-5.625-5.734 6.42 6.42 0 0 1-4.625 1.965c-3.523 0-6.426-2.899-6.426-6.422 0-.078.004-.153.004-.231a25.499 25.499 0 0 0-8.043-.066c.004.039.004.082.004.117 0 3.52-2.898 6.418-6.418 6.418a6.41 6.41 0 0 1-2.515-.516 6.319 6.319 0 0 1-2.192-1.531 26.02 26.02 0 0 0-5.73 5.649 6.43 6.43 0 0 1 1.961 4.625c0 3.523-2.899 6.425-6.426 6.425-.07 0-.141 0-.215-.004a25.47 25.47 0 0 0-.062 8.043h.105c3.52 0 6.418 2.899 6.418 6.418a6.431 6.431 0 0 1-2.035 4.692 25.557 25.557 0 0 0 5.633 5.738 6.405 6.405 0 0 1 4.609-1.953c3.52 0 6.41 2.894 6.41 6.41v.223a25.47 25.47 0 0 0 8.043.066v-.086c0-3.523 2.899-6.426 6.426-6.426a6.42 6.42 0 0 1 4.68 2.028 25.72 25.72 0 0 0 5.742-5.637 6.47 6.47 0 0 1-1.434-7.141Zm-23.152 1.465a10.426 10.426 0 0 1-6.344-9.582c0-5.711 4.699-10.41 10.41-10.41S42.52 26.32 42.52 32.031a10.418 10.418 0 0 1-10.407 10.41 10.4 10.4 0 0 1-4.07-.828Z"/>
  </g>
</svg>
