<svg xmlns="http://www.w3.org/2000/svg" xml:space="preserve" fill-rule="evenodd" stroke-linejoin="round" stroke-miterlimit="2" clip-rule="evenodd" viewBox="0 0 64 64">
  <g id="red">
    <path fill="#ff2721" d="M19.729 7.31c1.206 0 2.186.98 2.186 2.186s-.98 2.186-2.186 2.186a2.188 2.188 0 0 1-2.186-2.186c0-1.206.98-2.186 2.186-2.186Zm0 3a.815.815 0 1 0-.001-1.63.815.815 0 0 0 .001 1.63Zm0-1.5a.686.686 0 1 1 0 1.372.686.686 0 0 1 0-1.372Z"/>
  </g>
  <g id="green">
    <path fill="#6aff4e" d="M10.118 7.31c1.206 0 2.186.98 2.186 2.186s-.98 2.186-2.186 2.186a2.188 2.188 0 0 1-2.186-2.186c0-1.206.98-2.186 2.186-2.186Zm0 3a.815.815 0 1 0-.001-1.63.815.815 0 0 0 .001 1.63Zm0-1.5a.686.686 0 1 1 0 1.372.686.686 0 0 1 0-1.372Z"/>
  </g>
  <g id="orange">
    <path fill="#ffc60e" d="M14.924 7.31c1.206 0 2.186.98 2.186 2.186s-.98 2.186-2.186 2.186a2.188 2.188 0 0 1-2.186-2.186c0-1.206.98-2.186 2.186-2.186Zm0 3a.815.815 0 1 0-.001-1.63.815.815 0 0 0 .001 1.63Zm0-1.5a.686.686 0 1 1 0 1.372.686.686 0 0 1 0-1.372Z"/>
  </g>
  <g id="black">
    <path fill="#010001" d="M9.432 14.886a1.5 1.5 0 0 1 0-3h45.136a1.5 1.5 0 0 1 0 3H9.432Z"/>
  </g>
  <g id="white">
    <path fill="#f4f4f4" d="M60.645 7.98v48.04a4.628 4.628 0 0 1-4.625 4.625H7.98a4.628 4.628 0 0 1-4.625-4.625V7.98A4.628 4.628 0 0 1 7.98 3.355h48.04a4.628 4.628 0 0 1 4.625 4.625Zm-3 0c0-.896-.729-1.625-1.625-1.625H7.98c-.896 0-1.625.729-1.625 1.625v48.04c0 .896.729 1.625 1.625 1.625h48.04c.896 0 1.625-.729 1.625-1.625V7.98Z"/>
  </g>
  <g id="blue">
    <circle cx="32.083" cy="35.341" r="7.361" fill="#4bc3f1"/>
  </g>
  <g id="grey">
    <path fill="#acabab" fill-rule="nonzero" d="M46.451 41.471a4.85 4.85 0 0 1 4.623-2.953 19.3 19.3 0 0 0 .05-6.073 4.85 4.85 0 0 1-3.385-8.395 19.16 19.16 0 0 0-4.234-4.33 4.828 4.828 0 0 1-3.482 1.484c-2.652 0-4.838-2.189-4.838-4.849 0-.059.003-.116.003-.175a19.156 19.156 0 0 0-6.055-.05c.003.03.003.062.003.089 0 2.658-2.181 4.846-4.831 4.846a4.81 4.81 0 0 1-1.894-.39 4.748 4.748 0 0 1-1.65-1.156 19.658 19.658 0 0 0-4.314 4.266 4.863 4.863 0 0 1 1.477 3.492c0 2.661-2.183 4.852-4.838 4.852-.053 0-.106 0-.162-.003a19.3 19.3 0 0 0-.047 6.073h.079c2.65 0 4.832 2.189 4.832 4.847a4.863 4.863 0 0 1-1.532 3.543 19.289 19.289 0 0 0 4.241 4.333 4.813 4.813 0 0 1 3.47-1.475c2.65 0 4.825 2.185 4.825 4.84v.169c2.003.339 4.047.354 6.055.049v-.065c0-2.66 2.183-4.852 4.838-4.852 1.332 0 2.611.555 3.523 1.531a19.374 19.374 0 0 0 4.323-4.256 4.895 4.895 0 0 1-1.08-5.392Zm-17.429 1.106a7.873 7.873 0 0 1-4.776-7.236c0-4.312 3.537-7.861 7.837-7.861 4.299 0 7.837 3.549 7.837 7.861a7.853 7.853 0 0 1-.624 3.071 7.84 7.84 0 0 1-7.21 4.79 7.806 7.806 0 0 1-3.064-.625Z"/>
    <path fill="#575757" d="M32.083 26.98a8.364 8.364 0 0 1 8.361 8.361 8.364 8.364 0 0 1-8.361 8.361 8.364 8.364 0 0 1-8.361-8.361 8.364 8.364 0 0 1 8.361-8.361Zm0 1a7.364 7.364 0 0 0-7.361 7.361 7.364 7.364 0 0 0 7.361 7.361 7.364 7.364 0 0 0 7.361-7.361 7.364 7.364 0 0 0-7.361-7.361Z"/>
  </g>
</svg>
