<svg xmlns="http://www.w3.org/2000/svg" xml:space="preserve" fill-rule="evenodd" stroke-linejoin="round" stroke-miterlimit="2" clip-rule="evenodd" viewBox="0 0 64 64">
  <g id="grey">
    <path fill="#b5b5b5" d="M16.774 25.371c.904-.906 1.183-2 .839-3.283a1.566 1.566 0 0 1 1.107-1.917 16.55 16.55 0 0 1 8.573 0 1.566 1.566 0 0 1 1.106 1.917c-.344 1.283-.065 2.377.839 3.283 1.236.33 2.324.025 3.263-.915a1.566 1.566 0 0 1 2.214 0 16.57 16.57 0 0 1 4.286 7.424 1.566 1.566 0 0 1-1.107 1.917c-1.284.344-2.091 1.134-2.424 2.369.333 1.235 1.14 2.024 2.424 2.368a1.566 1.566 0 0 1 1.107 1.917 16.564 16.564 0 0 1-4.286 7.424 1.566 1.566 0 0 1-2.214 0c-.939-.94-2.027-1.245-3.263-.915-.904.906-1.183 2-.839 3.284a1.566 1.566 0 0 1-1.107 1.917 16.567 16.567 0 0 1-8.572 0 1.566 1.566 0 0 1-1.107-1.917c.344-1.284.065-2.378-.839-3.284-1.236-.33-2.324-.025-3.263.915a1.566 1.566 0 0 1-2.214 0 16.564 16.564 0 0 1-4.286-7.424 1.566 1.566 0 0 1 1.107-1.917c1.284-.344 2.091-1.133 2.424-2.368-.333-1.235-1.14-2.025-2.424-2.369a1.566 1.566 0 0 1-1.107-1.917 16.57 16.57 0 0 1 4.286-7.424 1.566 1.566 0 0 1 2.214 0c.939.94 2.027 1.245 3.263.915Zm-5.907 11.684a1.564 1.564 0 0 1-.258-.599 1.698 1.698 0 0 0-.016-.076c.037.279.139.5.274.675Zm24.536-.599s-.014.2.02-.095a2.652 2.652 0 0 0-.02.095Zm-12.397-4.328a4.04 4.04 0 0 0-4.038 4.038 4.04 4.04 0 0 0 4.038 4.038 4.04 4.04 0 0 0 4.038-4.038 4.04 4.04 0 0 0-4.038-4.038Z"/>
    <path fill="#acabab" d="M38.451 21.421a1.565 1.565 0 0 1-2.618 1.714c-.252-.384-.653-.619-1.169-.757a1.566 1.566 0 0 1-1.107-1.917 12.403 12.403 0 0 1 3.208-5.556 1.566 1.566 0 0 1 2.214 0c.528.529 1.135.72 1.822.573.469-.52.607-1.141.413-1.864a1.566 1.566 0 0 1 1.108-1.917 12.407 12.407 0 0 1 6.413 0 1.567 1.567 0 0 1 1.108 1.917c-.194.723-.056 1.344.416 1.865.684.146 1.291-.045 1.819-.574a1.566 1.566 0 0 1 2.214 0 12.403 12.403 0 0 1 3.208 5.556 1.566 1.566 0 0 1-1.107 1.917c-.722.193-1.192.623-1.407 1.292.216.666.685 1.096 1.407 1.289a1.566 1.566 0 0 1 1.107 1.917 12.406 12.406 0 0 1-3.208 5.557 1.566 1.566 0 0 1-2.214 0c-.528-.529-1.135-.72-1.822-.573-.469.52-.607 1.141-.413 1.863a1.563 1.563 0 0 1-1.107 1.917 12.394 12.394 0 0 1-6.415 0 1.564 1.564 0 0 1-1.107-1.918c.152-.565.129-1.071-.138-1.51a1.565 1.565 0 0 1 2.674-1.626c.426.699.661 1.46.691 2.282a9.285 9.285 0 0 0 2.166.001c.037-1.369.642-2.565 1.816-3.587.153-.133.329-.235.52-.3 1.471-.506 2.809-.432 4.014.221a9.268 9.268 0 0 0 1.079-1.869c-1.168-.716-1.901-1.838-2.199-3.366a1.543 1.543 0 0 1 0-.598c.298-1.529 1.031-2.651 2.199-3.367a9.296 9.296 0 0 0-1.079-1.869c-1.205.654-2.543.727-4.015.221a1.56 1.56 0 0 1-.519-.3c-1.174-1.022-1.779-2.217-1.816-3.586a9.263 9.263 0 0 0-2.157 0c-.036 1.369-.642 2.565-1.817 3.587a1.58 1.58 0 0 1-.518.299c-1.472.506-2.81.433-4.015-.221a9.285 9.285 0 0 0-1.083 1.878 4.659 4.659 0 0 1 1.434 1.409Z"/>
    <path fill="#575757" d="M45.529 19.532a4.14 4.14 0 0 1 4.137 4.137 4.14 4.14 0 0 1-4.137 4.137 4.14 4.14 0 0 1-4.137-4.137 4.14 4.14 0 0 1 4.137-4.137Zm0 3.13a1.007 1.007 0 1 0 0 2.014 1.007 1.007 0 0 0 0-2.014Z"/>
  </g>
</svg>
