<?xml version="1.0" encoding="UTF-8" standalone="no"?>
<!DOCTYPE svg PUBLIC "-//W3C//DTD SVG 1.1//EN" "http://www.w3.org/Graphics/SVG/1.1/DTD/svg11.dtd">
<svg width="100%" height="100%" viewBox="0 0 64 64" version="1.1" xmlns="http://www.w3.org/2000/svg" xmlns:xlink="http://www.w3.org/1999/xlink" xml:space="preserve" xmlns:serif="http://www.serif.com/" style="fill-rule:evenodd;clip-rule:evenodd;stroke-linecap:round;stroke-linejoin:round;stroke-miterlimit:1.5;">
    <g id="Layer1">
        <path d="M59.145,7.98L59.145,56.02C59.145,57.744 57.744,59.145 56.02,59.145L7.98,59.145C6.256,59.145 4.855,57.744 4.855,56.02L4.855,7.98C4.855,6.256 6.256,4.855 7.98,4.855L56.02,4.855C57.744,4.855 59.145,6.256 59.145,7.98Z" style="fill:none;stroke:#f3f4f4;stroke-width:3px;"/>
        <path d="M9.432,13.386L54.568,13.386" style="fill:none;stroke:#010001;stroke-width:3px;"/>
        <circle cx="10.118" cy="9.496" r="0.686" style="fill:#b5b5b5;stroke:#b5b5b5;stroke-width:3px;"/>
        <circle cx="14.924" cy="9.496" r="0.686" style="fill:#b5b5b5;stroke:#b5b5b5;stroke-width:3px;"/>
        <circle cx="19.729" cy="9.496" r="0.686" style="fill:#b5b5b5;stroke:#b5b5b5;stroke-width:3px;"/>
    </g>
    <g id="surface1">
        <path d="M46.451,41.471C47.233,39.627 49.078,38.448 51.074,38.518C51.412,36.509 51.427,34.459 51.124,32.445C50.448,32.454 49.774,32.324 49.148,32.059C47.363,31.304 46.198,29.54 46.198,27.598C46.198,26.25 46.758,24.967 47.739,24.05C46.566,22.392 45.137,20.929 43.505,19.72C42.593,20.67 41.334,21.204 40.023,21.204C37.371,21.204 35.185,19.015 35.185,16.355C35.185,16.296 35.188,16.239 35.188,16.18C33.186,15.841 31.142,15.827 29.133,16.13C29.136,16.16 29.136,16.192 29.136,16.219C29.136,18.877 26.955,21.065 24.305,21.065C23.655,21.065 23.011,20.932 22.411,20.675C21.785,20.413 21.223,20.018 20.761,19.519C19.112,20.708 17.656,22.148 16.447,23.785C17.391,24.699 17.924,25.961 17.924,27.277C17.924,29.938 15.741,32.129 13.086,32.129C13.033,32.129 12.98,32.129 12.924,32.126C12.589,34.138 12.571,36.185 12.877,38.199L12.956,38.199C15.606,38.199 17.788,40.388 17.788,43.046C17.788,44.388 17.233,45.671 16.256,46.589C17.432,48.249 18.865,49.71 20.497,50.922C21.405,49.978 22.658,49.447 23.967,49.447C26.617,49.447 28.792,51.632 28.792,54.287L28.792,54.456C30.795,54.795 32.839,54.81 34.847,54.505L34.847,54.44C34.847,51.78 37.03,49.588 39.685,49.588C41.017,49.588 42.296,50.143 43.208,51.119C44.864,49.936 46.322,48.5 47.531,46.863C46.101,45.462 45.672,43.318 46.451,41.471ZM29.022,42.577C26.131,41.347 24.246,38.489 24.246,35.341C24.246,31.029 27.783,27.48 32.083,27.48C36.382,27.48 39.92,31.029 39.92,35.341C39.92,36.398 39.708,37.442 39.296,38.412C38.071,41.312 35.224,43.202 32.086,43.202C31.033,43.202 29.989,42.99 29.022,42.577Z" style="fill:#acabab;fill-rule:nonzero;"/>
    </g>
</svg>
