<svg xmlns="http://www.w3.org/2000/svg" xml:space="preserve" fill-rule="evenodd" stroke-linejoin="round" stroke-miterlimit="2" clip-rule="evenodd" viewBox="0 0 64 64">
  <g id="green">
    <path fill="#00b41a" d="M57.645 7.98V32.5c0 .896-.729 1.625-1.625 1.625H7.98A1.627 1.627 0 0 1 6.355 32.5V7.98c0-.896.729-1.625 1.625-1.625h48.04c.896 0 1.625.729 1.625 1.625Z"/>
  </g>
  <g id="blue">
    <path fill="#c2f0ff" d="M60.645 7.98V32.5a4.628 4.628 0 0 1-4.625 4.625H7.98A4.628 4.628 0 0 1 3.355 32.5V7.98A4.628 4.628 0 0 1 7.98 3.355h48.04a4.628 4.628 0 0 1 4.625 4.625Zm-3 0c0-.896-.729-1.625-1.625-1.625H7.98c-.896 0-1.625.729-1.625 1.625V32.5c0 .896.729 1.625 1.625 1.625h48.04c.896 0 1.625-.729 1.625-1.625V7.98Z"/>
  </g>
  <g id="grey">
    <path fill="#838383" fill-rule="nonzero" d="M37.146 47.248a4.85 4.85 0 0 1 4.623-2.953 19.3 19.3 0 0 0 .05-6.073 4.85 4.85 0 0 1-3.385-8.395 19.16 19.16 0 0 0-4.234-4.33 4.828 4.828 0 0 1-3.482 1.484c-2.652 0-4.838-2.189-4.838-4.849 0-.059.003-.116.003-.175a19.156 19.156 0 0 0-6.055-.05c.003.03.003.062.003.089 0 2.658-2.181 4.846-4.831 4.846a4.81 4.81 0 0 1-1.894-.39 4.748 4.748 0 0 1-1.65-1.156 19.658 19.658 0 0 0-4.314 4.266 4.863 4.863 0 0 1 1.477 3.492c0 2.661-2.183 4.852-4.838 4.852-.053 0-.106 0-.162-.003a19.3 19.3 0 0 0-.047 6.073h.079c2.65 0 4.832 2.189 4.832 4.847a4.863 4.863 0 0 1-1.532 3.543 19.289 19.289 0 0 0 4.241 4.333 4.813 4.813 0 0 1 3.47-1.475c2.65 0 4.825 2.185 4.825 4.84v.169c2.003.339 4.047.354 6.055.049v-.065c0-2.66 2.183-4.852 4.838-4.852 1.332 0 2.611.555 3.523 1.531a19.374 19.374 0 0 0 4.323-4.256 4.895 4.895 0 0 1-1.08-5.392Zm-17.429 1.106a7.873 7.873 0 0 1-4.776-7.236c0-4.312 3.537-7.861 7.837-7.861 4.299 0 7.837 3.549 7.837 7.861a7.853 7.853 0 0 1-.624 3.071 7.84 7.84 0 0 1-7.21 4.79 7.806 7.806 0 0 1-3.064-.625Z"/>
  </g>
</svg>
