<svg xmlns="http://www.w3.org/2000/svg" xml:space="preserve" fill-rule="evenodd" stroke-linejoin="round" stroke-miterlimit="2" clip-rule="evenodd" viewBox="0 0 64 64">
  <g id="red">
    <path fill="#9b5554" d="M9.219 32.455a8.415 8.415 0 0 1 .411-1.538c.691-.823 8.396-2.19 11.068-2.642l2.324.367 4.509-4.893-.89-.554-.725.591c.599-.568 1.128-1.041 1.477-1.299 1.414-1.046 16.246-.461 16.246-.461l.624.971c-.159.079-.677.341-.792.424-.135.099-.293.215-.291.344.024.164.063.325.118.482l2.186 3.653c.116.146.259.268.421.36a.852.852 0 0 0 .756 0c.287-.118.63-.272.765-.334l.002.004s6.26.065 6.578.607c.165.814.311 1.633.438 2.454l-.681.135a1.587 1.587 0 0 0-.659.257.617.617 0 0 0-.181.483v1.06s-.084.504.108.726c.192.223.653.16.653.16l1.127.083c.025.248.047.497.068.746l1.121.265v1.285a2.903 2.903 0 0 1-.247 1.011c-.226.451-1.745.536-1.745.536l-3.775 1.238-.817.004c-.036-.826-.288-4.282-1.964-5.17a6.952 6.952 0 0 0-5.532-.231c-2.285.643-2.371 4.669-2.367 5.448l-16.412.08c-.01-.468-.14-4.001-1.911-4.945a7.024 7.024 0 0 0-5.562-.231c-2.479.702-2.395 5.08-2.391 5.223l-2.423.012a18.92 18.92 0 0 0-1.983-1.657c-.855-.576-.887-.954-.867-2.148.291-.649 1.136-.671 1.136-.714l-.012-.145h1.91l.16-1.821-.229-.226h-1.75Zm25.013-8.718v5.57h7.399s.795.031 1.054-.214 0-.771 0-.771l-2.023-4.585h-6.43Zm-10.601 5.595 9.284-.002.575-5.595h-4.046s-.746.204-1.011.287a1.556 1.556 0 0 0-.809.564l-3.993 4.746Z"/>
  </g>
  <g id="blue">
    <path fill="#809ba5" d="m23.631 29.332 3.993-4.746c.201-.27.485-.469.809-.564a47.308 47.308 0 0 1 1.011-.287h4.046l-.575 5.595-9.284.002Zm-3.17-1.095 6.18-5.042.89.554-4.509 4.893-2.561-.405Zm13.771-4.5h6.43l2.023 4.585s.259.526 0 .771-1.054.214-1.054.214h-7.399v-5.57Zm10.077-.763 3.176 4.926s-.458.21-.824.36a.852.852 0 0 1-.756 0 1.455 1.455 0 0 1-.421-.36l-2.186-3.653a2.59 2.59 0 0 1-.118-.482c-.002-.129.156-.245.291-.344.136-.099.838-.447.838-.447Z"/>
  </g>
  <g id="grey">
    <path fill="#1d3041" d="M40.57 39.158h-1.014s-.168-4.867 2.364-5.579a6.952 6.952 0 0 1 5.532.231c1.908 1.011 1.97 5.348 1.97 5.348h-1.046a4.048 4.048 0 0 0-3.903-5.112 4.048 4.048 0 0 0-3.903 5.112Zm-26.295 0h-.998s-.13-4.513 2.391-5.227a7.024 7.024 0 0 1 5.562.231c1.897 1.011 1.912 4.996 1.912 4.996h-1.061a4.047 4.047 0 0 0-3.903-5.112 4.048 4.048 0 0 0-3.903 5.112Z"/>
    <path fill="#3a4654" d="M44.473 34.046a4.048 4.048 0 0 1 4.045 4.046 4.047 4.047 0 0 1-4.045 4.045 4.047 4.047 0 0 1-4.046-4.045 4.048 4.048 0 0 1 4.046-4.046Zm0 1.359a2.688 2.688 0 0 0-2.687 2.687 2.688 2.688 0 0 0 2.687 2.687 2.688 2.688 0 0 0 2.687-2.687 2.688 2.688 0 0 0-2.687-2.687Zm-26.295-1.359a4.046 4.046 0 1 1-4.046 4.046 4.048 4.048 0 0 1 4.046-4.046Zm0 1.359a2.688 2.688 0 0 0-2.687 2.687 2.688 2.688 0 0 0 2.687 2.687 2.688 2.688 0 0 0 2.687-2.687 2.688 2.688 0 0 0-2.687-2.687Z"/>
    <path fill="#ababab" d="M44.473 35.405a2.688 2.688 0 0 1 2.687 2.687 2.688 2.688 0 0 1-2.687 2.687 2.688 2.688 0 0 1-2.687-2.687 2.688 2.688 0 0 1 2.687-2.687Zm-26.295 0a2.688 2.688 0 0 1 2.687 2.687 2.688 2.688 0 0 1-2.687 2.687 2.688 2.688 0 0 1-2.687-2.687 2.688 2.688 0 0 1 2.687-2.687Z"/>
  </g>
  <g id="orange">
    <path fill="#f70" fill-rule="nonzero" d="m54.53 30.974-.767.152a1.587 1.587 0 0 0-.659.257.617.617 0 0 0-.181.483v1.06s-.084.504.108.726c.192.223.653.16.653.16l1.238.091-.392-2.929Z"/>
  </g>
  <g id="white">
    <path fill="#fff" fill-rule="nonzero" d="M9.219 32.455h1.75l.229.226-.16 1.821H9.051c-.262-.746-.196-1.427.168-2.047Z"/>
  </g>
</svg>
