<svg xmlns="http://www.w3.org/2000/svg" xml:space="preserve" fill-rule="evenodd" stroke-linejoin="round" stroke-miterlimit="2" clip-rule="evenodd" viewBox="0 0 64 64">
  <g id="red">
    <path fill="#a43819" d="m56.855 37.871-23.628 4.557a.422.422 0 0 0-.342.442l.422 6.329a.422.422 0 0 0 .187.323c.887.417 1.8.671 2.749.713a.422.422 0 0 0 .39.041 6.253 6.253 0 0 0 2.11-.844.42.42 0 0 0 .142-.094 7.237 7.237 0 0 1 2.291-1.38l10.583-2.68c1.218-.113 2.34.221 3.37.981.131.038.272.01.379-.073.623-.32 1.682-1.248 2.18-1.817a.422.422 0 0 0 .162-.332l-.493-5.752a.42.42 0 0 0-.502-.414Zm-.556 1.559c.133.27.205.57.214.902l.493 3.5c.129.161-1.728 1.706-1.849 1.556-1.09-.679-2.18-1.021-3.27-.952a.435.435 0 0 0-.218-.005l-10.808 2.735a.42.42 0 0 0-.198.111c-.922.288-1.704.742-2.314 1.403-.498.381-1.076.661-1.823.73-.957-.094-.602-.205-1.247-.424l-1.431-3.942c.055-.598.236-1.102.541-1.513a6.221 6.221 0 0 1 1.054-.599l19.795-3.886c.417-.062.769.072 1.061.384Z"/>
    <path fill="#a43819" d="m33.306 43.264 23.703-4.648a.421.421 0 0 0 .224-.714c-.262-.649-.751-1.242-1.512-1.767a.367.367 0 0 0-.052-.044l-7.712-6.67-3.725-6.599a.421.421 0 0 0-.463-.224l-20.255 3.104a.422.422 0 0 0-.321.526l2.826 7.996a.425.425 0 0 0 .141.214l5.459 6.716a4.536 4.536 0 0 1 1.217 1.838.42.42 0 0 0 .47.272Zm.203-.893a4.227 4.227 0 0 0-1.136-1.613.427.427 0 0 0-.131-.185l-5.445-6.705-2.67-7.432 19.496-2.946 3.626 6.401a.42.42 0 0 0 .13.154l7.769 6.71c.564.359.852.752.917 1.172l-22.556 4.444Z"/>
    <path fill="#a43819" d="M55.472 36.754c.237-.045-.043-.225-.088-.461a.438.438 0 0 0-.511-.347l-23.095 4.355c-.237.045.026.14.072.376.045.237-.145.527.092.482l23.53-4.405Z"/>
    <path fill="#a43819" d="M44.011 22.589c-3.28-2.98-6.493-5.348-9.651-7.232a.442.442 0 0 0-.329-.073L16.49 18.417a.434.434 0 0 0-.254.715l6.848 7.005a.437.437 0 0 0 .406.144l20.355-3.253c.174-.031.104-.163.143-.335.038-.172.167-.002.023-.104Zm-1.35-.238-19.079 3.027-6.183-6.237 16.606-2.965 8.656 6.175Z"/>
    <path fill="#a43819" d="m16.771 19.242 11.36-2.381a.436.436 0 0 0 .315-.389c.013-.184.177-.046.009-.12l-3.099-2.62a.435.435 0 0 0-.323-.013L7.732 15.901a.437.437 0 0 0-.139.743l5.571 5.029c.159.137.393.14.556.009l3.051-2.44Zm-.477-.736-2.837 2.269-4.722-4.302L25.16 14.6l2.01 1.752-10.724 2.075a.425.425 0 0 0-.152.079Z"/>
    <path fill="#a43819" d="M33.332 49.316c.157.183.049-.042.232-.199a.436.436 0 0 0 .047-.615l-3.531-4.117c.329-1.464.234-2.927-.606-4.391a.438.438 0 0 0-.145-.268c-.676-1.315-1.507-2.046-2.495-2.191a.438.438 0 0 0-.52-.042c-1.017.103-1.713.814-2.263 1.541l-2.757-2.757-4.271-4.869-1.971-2.21c.095-1.573-.103-3.037-.631-4.376 0-.315-2.083-2.647-2.083-2.647-.885-.792-1.662-.853-2.36-.397l-.896.817-.909-.908-1.105-1.658.957-2.869.118-1.117a.436.436 0 0 0-.723.171l-1.248 3.742a.44.44 0 0 0 .051.38l1.248 1.871a.44.44 0 0 0 .054.067l1.248 1.247c.17.171.447.171.617 0l1.057-1.056 1.486.495 1.664 2.22.158 1.713a.437.437 0 0 0 .06.348l.517 2.451a.143.143 0 0 0 .014.02l1.988 2.233.021.026 4.307 4.911a.468.468 0 0 0 .056.053l2.961 3.119c.319.507.576.533.733.434l2.091-2.082 2.128 1.868.601 4.358a.435.435 0 0 0 .102.224l3.998 4.46Z"/>
    <path fill="#a43819" d="m43.296 22.238-19.271 3.783a.436.436 0 0 0-.336.517l2.234 7.278a.436.436 0 0 0 .506.339l20.798-4.033a.44.44 0 0 0 .311-.232.44.44 0 0 0 .003-.388l-3.761-7.027a.436.436 0 0 0-.484-.237Zm-.153.926 3.363 6.203-19.693 3.375-2.18-5.958 18.51-3.62Z"/>
    <path fill="#a43819" d="m24.392 32.653-1.871-5.975a.436.436 0 0 0-.082-.149l-5.538-5.808a.438.438 0 0 0-.617-.052l-1.871 1.587a.436.436 0 0 0-.051.615l9.28 10.194a.437.437 0 0 0 .75-.412Zm-.704-.343-8.905-9.679 1.825-1.57 5.325 5.742 1.755 5.507Z"/>
    <path fill="#a43819" d="M19.521 23.836a.437.437 0 0 0-.437-.436c-.241 0-.075.557-.075.798l-.023 8.732c0 .241.509 1.127.509.886l.026-9.98Z"/>
    <path fill="#e93e3e" d="m47.541 29.502 7.697 6.809-23.382 4.428-5.396-6.923 21.081-4.314Z"/>
    <path fill="#e0504f" d="M33.407 43.172a19.275 19.275 0 0 0-1.551-2.433l23.382-4.428a3.307 3.307 0 0 1 1.679 1.871l.127 1.248-23.147 5.278-.49-1.536Z"/>
    <path fill="#9b5554" d="m57.044 39.43.466 4.543c-.22.739-1.365 1.802-2.272 1.979-.662-.592-1.458-1.006-2.495-1.099l-12.172 2.97a6.792 6.792 0 0 0-1.731.963c-.486.377-1.018.664-1.567.917a4.322 4.322 0 0 1-1.8.154c-.652-.043-.655-.335-.655-.335s-.709-2.986-.923-4.821l23.149-5.271Z"/>
    <path fill="#a43819" d="m34.873 49.547-1.119-.517-4.006-4.322c.104-5.187-1.765-7.076-5.839-5.278l-9.707-10.604c-.435-5.875-2.161-7.782-5.215-5.613-.58-.286-2.349-2.403-2.565-3.119l1.263-3.742 5.763 4.989 3.025-2.635c2.698 1.669 5.147 4.086 7.236 7.582l2.837 7.511 5.31 6.878c.645.763 1.551 2.495 1.551 2.495s1.608 4.694 1.466 6.375Z"/>
    <path fill="#e93e3e" d="M23.726 26.331c-1.977-2.995-4.447-5.497-7.276-7.639l17.581-3.198a58.467 58.467 0 0 1 9.942 7.341l-20.247 3.496Z"/>
    <path fill="#d83c3c" d="m25.133 14.05 2.735 2.278-11.575 2.178-2.845 2.573-5.478-4.868 17.163-2.161Z"/>
  </g>
  <g id="blue" fill="#d7e3f0">
    <path d="m47.397 29.233-3.386-6.02-19.843 3.379 2.63 6.909 20.599-4.268Z"/>
    <path d="m25.562 32.93-2.332-6.599-2.921-3.118-.045 3.93 5.298 5.787Z"/>
    <path fill-opacity="0.98" d="m19.933 22.914-3.367-3.508-2.091 1.673 5.418 5.631.04-3.796Z"/>
  </g>
  <g id="black">
    <path d="M26.231 37.552c-1.43.147-2.389 2.226-2.14 4.64.248 2.413 1.611 4.253 3.041 4.106.652-.067 1.844-.292 2.231-1.011.461-.858.045-2.316-.091-3.629-.248-2.414-1.611-4.253-3.041-4.106Z"/>
    <path d="M10.989 21.613c-1.301.134-2.156 2.199-1.907 4.609.248 2.41 1.506 4.258 2.807 4.123.493-.05 1.346-.302 1.893-.632.863-.52.17-2.479.015-3.977-.248-2.41-1.506-4.257-2.808-4.123Z"/>
  </g>
  <g id="grey">
    <ellipse cx="11.225" cy="25.979" fill="#ababab" rx="1.247" ry="2.36"/>
    <ellipse cx="26.475" cy="42.213" fill="#ababab" rx="1.319" ry="2.495"/>
    <path fill="#909090" d="m40.268 44.334.334 2.308a.437.437 0 0 0 .544.384l10.974-2.815a.436.436 0 0 0 .326-.462l-.175-1.941a.434.434 0 0 0-.543-.384l-11.134 2.448a.436.436 0 0 0-.326.462Z"/>
  </g>
  <g id="white" fill="#f4f4f4">
    <ellipse cx="55.152" cy="42.412" rx="1.466" ry="1.673"/>
    <ellipse cx="37.068" cy="46.743" rx="1.79" ry="1.919"/>
  </g>
</svg>
