<svg xmlns="http://www.w3.org/2000/svg" xml:space="preserve" fill-rule="evenodd" stroke-linejoin="round" stroke-miterlimit="2" clip-rule="evenodd" viewBox="0 0 64 64">
  <g id="brown">
    <path fill="#aa7850" d="M19.001 55.893a1.566 1.566 0 0 1-3.13.038l-.139-11.514c-9.13-7.967-7.723-18.118-7.63-18.721.081-.651 1.546-11.338 11.715-16.69 6.005-3.161 12.501-3.308 19.669-.464l.002.001c3.977 1.584 6.792 3.867 8.486 6.79 1.616 2.79 2.225 6.187 1.743 10.209l6.211 9.813a1.562 1.562 0 0 1-.544 2.195l-4.21 2.41c.176 1.064.366 2.714.236 4.388-.167 2.143-.885 4.282-2.514 5.59-1.304 1.048-3.296 1.505-5.243 1.587a22.236 22.236 0 0 1-3.179-.116V55.3a1.565 1.565 0 0 1-3.13 0v-5.693a1.563 1.563 0 0 1 1.872-1.535s2.096.418 4.306.325c1.255-.052 2.573-.224 3.414-.899.971-.78 1.254-2.116 1.353-3.393.18-2.311-.385-4.564-.385-4.564a1.565 1.565 0 0 1 .74-1.739l3.765-2.155-5.64-8.91c-.2-.315-.28-.691-.227-1.06.499-3.474.099-6.401-1.277-8.775-1.374-2.373-3.707-4.165-6.934-5.451-6.215-2.465-11.849-2.416-17.056.325-8.984 4.728-10.066 14.297-10.066 14.297-.003.027-.006.055-.011.082 0 0-1.469 9.273 7.085 16.322.356.293.564.728.57 1.189l.148 12.227Z"/>
  </g>
  <g id="black">
    <path d="M33.236 16.315a1.564 1.564 0 1 1 2.988.93l-5.317 17.082a1.564 1.564 0 1 1-2.988-.93l5.317-17.082Zm5.658 4.335a1.564 1.564 0 1 1 2.854-1.284l2.315 5.145c.188.416.184.894-.01 1.307l-2.315 4.931a1.566 1.566 0 0 1-2.834-1.33l2.01-4.28-2.02-4.489Zm-17.452-1.284a1.564 1.564 0 1 1 2.854 1.284l-2.02 4.489 2.01 4.28a1.566 1.566 0 0 1-2.834 1.33l-2.315-4.931a1.562 1.562 0 0 1-.01-1.307l2.315-5.145Z"/>
  </g>
</svg>
