<svg xmlns="http://www.w3.org/2000/svg" xml:space="preserve" fill-rule="evenodd" stroke-linejoin="round" stroke-miterlimit="2" clip-rule="evenodd" viewBox="0 0 64 64">
  <g id="red" fill-rule="nonzero">
    <path fill="#a43819" d="m23.247 34.899-2.167-9.333-2.765 1.722-3.745-6.308 2.973-1.843-7.318-6.68 3.041-1.764 3.983 2.276-2.283-5.303 3.041-1.765 1.07 1.5 2.003-1.243 5.208 2.976-.081 4.215 2.84-1.352 3.745 6.307-2.976 1.846 4.288 2.45v6l-1.941 1.08.826 1.461-3.041 1.765-3.66-4.709v4.937l-3.041 1.765Z"/>
    <path fill="#e0504f" d="M18.039 31.923v-4.592l-2.765 1.721-3.745-6.307 2.973-1.844-4.277-2.444v-6l3.983 2.276-2.862-4.822 3.62-2.245 3.073 5.176V7.923l5.208 2.976v4.573l2.76-1.711 3.744 6.308-2.976 1.845 4.288 2.451v6l-3.97-2.269 2.855 4.81-3.625 2.239-3.076-5.183v4.937l-5.208-2.976Z"/>
  </g>
  <g id="orange">
    <path fill="#f9682b" fill-rule="nonzero" d="M44.399 52.375s-7.103-8.164-8.406-13.018c-1.304-4.854-1.266-10.571-1.266-10.571l-3.62-1.899 3.432-1.994 2.367-1.209c.815 1.627 2.07 2.983 3.365 3.632 1.953.771 4.448-.547 4.448-.547s2.39 4.11 4.222 5.502c1.22.777 2.393.802 3.105.064l2.31 3.882c-.7-.084-1.25.248-1.51.911-.561 1.151 1.378 9.111 0 11.859-.225.448-.625.803-1.074 1.183-3.903 3.302-8.705 3.596-7.373 2.205Z"/>
    <path fill="#fdb132" fill-rule="nonzero" d="M40.923 54.392s-7.102-8.165-8.406-13.019c-1.303-4.853.505-9.806 0-11.859-.504-2.051-1.454-2.604-1.454-2.604l2.368-1.209c.814 1.627 2.07 2.983 3.364 3.632 1.954.771 4.448-.547 4.448-.547s2.391 4.11 4.223 5.501c1.219.778 2.393.803 3.104.065l2.311 3.882c-.7-.084-1.25.247-1.511.911-.56 1.151 1.379 9.111 0 11.859-1.378 2.747-8.447 3.388-8.447 3.388Z"/>
    <path fill="#c56d2b" d="M40.95 39.507c.89.509 1.613 1.725 1.613 2.714 0 .989-.723 1.379-1.613.87-.891-.508-1.614-1.725-1.614-2.714 0-.989.723-1.379 1.614-.87Z"/>
  </g>
  <g id="white" fill="#fff">
    <path d="m39.572 43.294-3.933-1.239c.349-.29 1.748-1.422 2.707-2.196l-2.551-5.251c.461.417 2.099 1.909 3.476 3.164l1.688-4.282c.222.799 1.173 4.287 1.67 6.113l3.999 1.207c-.395.319-2.121 1.673-3.058 2.408l2.549 5.304c-.511-.456-2.458-2.207-3.908-3.512l-1.281 3.573c-.181-.689-.886-3.441-1.358-5.289Zm1.378-3.787c-.891-.509-1.614-.119-1.614.87 0 .99.723 2.206 1.614 2.715.89.509 1.613.119 1.613-.871 0-.989-.723-2.205-1.613-2.714Z"/>
    <path fill-rule="nonzero" d="m17.075 15.741 2.783 1.59v-1.852l1.391.795c-.071.824-.037 1.587.435 2.096l2.963 1.694v1.687l-2.935-1.678c-.266.342-.424.813-.461 1.372.03.574.19 1.201.461 1.818.37.544.641 1.157.772 1.751.23 1.015-.231 2.519-1.235 2.111-.846-.218-1.636-.204-2.32.04.237-.379.552-.662.929-.835.85-.559 1.699-.309 1.391-1.535-.307-1.225-1.237-2.475-1.391-3.366a11.826 11.826 0 0 1 0-2.41l-2.783-1.59v-1.688Z"/>
  </g>
</svg>
