<svg xmlns="http://www.w3.org/2000/svg" xml:space="preserve" fill-rule="evenodd" stroke-linejoin="round" stroke-miterlimit="2" clip-rule="evenodd" viewBox="0 0 64 64">
  <g id="red">
    <path fill="#ff2721" d="M32.123 53.376S9.955 38.678 6.189 27.994c-3.851-8.089 2.017-17.465 10.868-17.369 7.164 0 15.078 7.737 15.078 7.737s7.963-7.737 15.282-7.737c7.318 0 14.34 6.666 10.522 17.369-5.513 10.908-25.816 25.382-25.816 25.382Zm-.064-4.906c5.209-3.893 17.948-13.935 22.196-22.062 1.018-2.988.979-5.528.088-7.513-1.238-2.758-4.064-4.27-6.926-4.27-2.255 0-4.558 1.047-6.547 2.191-3.416 1.965-5.947 4.415-5.947 4.415l-2.797 2.717-2.787-2.726s-2.517-2.451-5.892-4.417c-1.95-1.135-4.199-2.18-6.412-2.18h-.021c-5.92-.065-9.788 6.24-7.214 11.649l.091.191.07.199c1.337 3.792 5.416 8.05 9.674 11.92 4.639 4.216 9.615 7.896 12.424 9.886Z"/>
  </g>
</svg>
