<svg xmlns="http://www.w3.org/2000/svg" xml:space="preserve" fill-rule="evenodd" stroke-linejoin="round" stroke-miterlimit="2" clip-rule="evenodd" viewBox="0 0 64 64">
  <g id="blue">
    <path fill="#d7e3f0" d="M30.5 30v9h-6v-9h6Zm9 0v9h-6v-9h6Zm9 0v9h-6v-9h6Zm-27 0v9h-6v-9h6Zm9-14v9h-6v-9h6Zm9 0v9h-6v-9h6Zm9 0v9h-6v-9h6Zm-27 0v9h-6v-9h6Z"/>
  </g>
  <g id="brown">
    <g>
      <rect width="6" height="9" x="29" y="44" fill="#aa7850"/>
    </g>
    <path fill="#af905e" d="M56 13v43H8V13c0-2.76 2.24-5 5-5h38c2.76 0 5 2.24 5 5Zm-3 0c0-1.097-.903-2-2-2H13c-1.097 0-2 .903-2 2v40h42V13Z"/>
  </g>
</svg>
