<svg xmlns="http://www.w3.org/2000/svg" xml:space="preserve" fill-rule="evenodd" stroke-linejoin="round" stroke-miterlimit="2" clip-rule="evenodd" viewBox="0 0 64 64">
  <g id="white">
    <path fill="#f4f4f4" d="m51.387 36.392-6.348 3.199-2.492-1.121 6.348-3.203 2.492 1.125ZM58 39.205 21.344 57.689l-2.488-1.125 36.656-18.48L58 39.205Zm-12.961-6.004L8.485 51.631l-2.493-1.125 36.555-18.43 2.492 1.125Zm-7.933 10.39-6.348 3.204-2.488-1.125 6.343-3.2 2.493 1.121Zm-15.868 8-6.347 3.204-2.492-1.125 6.347-3.2 2.492 1.121Z"/>
  </g>
  <g id="grey">
    <path fill="#b5b5b5" d="m9.299 16.138 7.339-5.168 7.207 10.593.052.019V40.81l-5.251-2.589v-8.18l-4.141-2.099v8.195l-5.206-2.572V16.138Z"/>
    <path fill="#929090" d="m38.496 16.138-.097 17.427-14.502 7.245V21.582l14.599-5.444Zm-7.908 9.473-4.647 2.223v5.695l4.647-2.223v-5.695Zm6.549-3.051-4.647 2.22v5.697l4.647-2.223V22.56Z"/>
  </g>
  <g id="red">
    <path fill="#ff2721" d="m23.897 21.582-.052-.019-7.207-10.593 13.917-4.66 7.941 9.828-14.599 5.444Z"/>
  </g>
</svg>
