<?xml version="1.0" encoding="UTF-8" standalone="no"?>
<!DOCTYPE svg PUBLIC "-//W3C//DTD SVG 1.1//EN" "http://www.w3.org/Graphics/SVG/1.1/DTD/svg11.dtd">
<svg width="100%" height="100%" viewBox="0 0 64 64" version="1.1" xmlns="http://www.w3.org/2000/svg" xmlns:xlink="http://www.w3.org/1999/xlink" xml:space="preserve" xmlns:serif="http://www.serif.com/" style="fill-rule:evenodd;clip-rule:evenodd;stroke-linejoin:round;stroke-miterlimit:2;">
    <g id="surface1">
        <path d="M23.935,40.199L9.91,33.187L9.91,16.394L16.983,11.413L30.394,6.922L38.047,16.394L37.954,33.187L23.935,40.192L23.935,40.199ZM18.918,37.691L18.918,29.792L14.927,27.768L14.927,35.667L18.918,37.691ZM30.426,25.523L25.947,27.665L25.947,33.153L30.426,31.011L30.426,25.523ZM36.737,22.582L32.259,24.722L32.259,30.212L36.737,28.069L36.737,22.582Z" style="fill:#ff2721;"/>
        <path d="M9.91,16.394L16.983,11.413L23.928,21.621L9.91,16.394Z" style="fill:#b5b5b5;"/>
        <path d="M38.047,16.394L37.954,33.187L23.978,40.17L23.978,21.64L38.047,16.394ZM30.426,25.523L25.947,27.665L25.947,33.153L30.426,31.011L30.426,25.523ZM36.737,22.582L32.259,24.722L32.259,30.212L36.737,28.069L36.737,22.582Z" style="fill:#929090;"/>
        <path d="M9.91,33.187L9.91,16.394L23.978,21.64L23.928,40.17L18.918,37.674L18.918,29.792L14.927,27.768L14.927,35.667L17.052,36.745L9.91,33.187Z" style="fill:#b5b5b5;"/>
        <path d="M51.391,35.781L48.899,34.656L42.551,37.859L45.043,38.98L51.391,35.781Z" style="fill:#f3f4f4;"/>
        <path d="M58.004,38.594L55.516,37.473L18.86,55.953L21.348,57.078L58.004,38.594Z" style="fill:#f3f4f4;"/>
        <path d="M45.043,32.59L42.551,31.465L5.996,49.895L8.489,51.02L45.043,32.59Z" style="fill:#f3f4f4;"/>
        <path d="M37.11,42.98L34.617,41.859L28.274,45.059L30.762,46.184L37.11,42.98Z" style="fill:#f3f4f4;"/>
        <path d="M21.242,50.98L18.75,49.859L12.403,53.059L14.895,54.184L21.242,50.98Z" style="fill:#f3f4f4;"/>
    </g>
</svg>
