<svg xmlns="http://www.w3.org/2000/svg" xml:space="preserve" fill-rule="evenodd" stroke-linejoin="round" stroke-miterlimit="2" clip-rule="evenodd" viewBox="0 0 64 64">
  <g id="blue">
    <path fill="#73a7c7" d="M35.753 44.907a.91.91 0 0 0-.849.734c-.033.168-.18.308-.366.465-.321.269-.768.521-1.318.762-2.932 1.285-8.507 2.14-14.736 2.14-5.322 0-9.498-.648-11.897-1.659-.683-.288-1.207-.594-1.533-.936-.161-.169-.275-.329-.241-.515.075-.407.426-.744.981-1.083 1.184-.722 3.184-1.29 6.11-1.69a.911.911 0 0 0 .366-1.67c-1.032-.657-1.674-1.313-1.531-2.1.072-.392.331-.759.71-1.124.482-.464 1.149-.901 1.97-1.316 4.184-2.117 12.1-3.536 20.905-3.536 7.301 0 13.626.98 17.512 2.526a.923.923 0 0 0 .311.064c3.079.083 5.165.443 6.283 1.039.205.109.368.221.479.348.056.064.096.129.083.204-.145.776-.771 1.348-3.25 1.736a.91.91 0 0 0-.604.376c-.73 1.039-2.381 1.943-4.64 2.741-3.67 1.297-8.895 2.209-14.745 2.494Z"/>
  </g>
  <g id="brown">
    <path fill="#754600" d="M49.129 30.449v2.697a42.56 42.56 0 0 0-2.934-.624v-2.073h2.934Z"/>
  </g>
  <g id="green">
    <path fill="#274100" d="m48.145 13.908 5.703 15.852a.515.515 0 0 1-.485.689H41.961a.514.514 0 0 1-.485-.689l5.699-15.852a.516.516 0 0 1 .97 0Z"/>
    <path fill="#558e2f" d="M36.415 46.695a2.994 2.994 0 0 1-.435.555c-.444.449-1.128.89-2.03 1.285-3.078 1.349-8.925 2.293-15.466 2.293-6.631 0-11.582-1.026-13.812-2.417-1.334-.832-1.83-1.856-1.649-2.841.15-.821.706-1.626 1.823-2.308 1.041-.636 2.64-1.196 4.87-1.625-.677-.831-.929-1.722-.767-2.61.242-1.315 1.489-2.644 3.649-3.737 4.35-2.2 12.571-3.731 21.726-3.731 7.491 0 13.988 1.024 18.03 2.595 3.393.104 5.687.584 6.932 1.248 1.256.669 1.661 1.571 1.496 2.483v.004c-.217 1.171-.854 2.512-4.399 3.145-.965 1.136-2.787 2.215-5.279 3.095-3.679 1.301-8.865 2.239-14.689 2.566Zm-.662-1.788c5.85-.285 11.075-1.197 14.745-2.494 2.259-.798 3.91-1.702 4.64-2.741a.91.91 0 0 1 .604-.376c2.479-.388 3.105-.96 3.25-1.736.013-.075-.027-.14-.083-.204a1.675 1.675 0 0 0-.479-.348c-1.118-.596-3.204-.956-6.283-1.039a.923.923 0 0 1-.311-.064c-3.886-1.546-10.211-2.526-17.512-2.526-8.805 0-16.721 1.419-20.905 3.536-.821.415-1.488.852-1.97 1.316-.379.365-.638.732-.71 1.124-.143.787.499 1.443 1.531 2.1a.91.91 0 0 1-.366 1.67c-2.926.4-4.926.968-6.11 1.69-.555.339-.906.676-.981 1.083-.034.186.08.346.241.515.326.342.85.648 1.533.936 2.399 1.011 6.575 1.659 11.897 1.659 6.229 0 11.804-.855 14.736-2.14.55-.241.997-.493 1.318-.762.186-.157.333-.297.366-.465a.91.91 0 0 1 .849-.734Z"/>
  </g>
</svg>
