<svg xmlns="http://www.w3.org/2000/svg" xml:space="preserve" fill-rule="evenodd" stroke-linejoin="round" stroke-miterlimit="2" clip-rule="evenodd" viewBox="0 0 64 64">
  <g id="white">
    <path fill="#f4f4f4" d="M15.829 37.641v1.026a1.025 1.025 0 0 1-1.014 1.025h-1.774a1.025 1.025 0 0 1-1.014-1.025v-1.032c0-.557.457-1.017 1.014-1.02h1.774c.56 0 1.014.46 1.014 1.026Zm-.027-24.615v1.031c0 .557-.457 1.017-1.014 1.02h-1.774A1.025 1.025 0 0 1 12 14.057V13.02c0-.557.457-1.017 1.014-1.02h1.774c.56 0 1.014.459 1.014 1.026Zm0 12.307v1.032c0 .557-.457 1.017-1.014 1.02h-1.774A1.025 1.025 0 0 1 12 26.365v-1.032a1.025 1.025 0 0 1 1.014-1.025h1.774c.56 0 1.014.459 1.014 1.025ZM15.829 50v1.014c0 .56-.454 1.014-1.014 1.014h-1.774c-.56 0-1.014-.454-1.014-1.014V50c0-.56.454-1.013 1.014-1.013h1.774c.56 0 1.014.453 1.014 1.013Z"/>
  </g>
  <g id="grey">
    <path fill="#525252" d="M51.996 37.641v1.026a1.025 1.025 0 0 1-1.014 1.025H18.589c-.56 0-1.013-.459-1.013-1.025v-1.026a1.025 1.025 0 0 1 1.013-1.026h32.393c.56 0 1.014.46 1.014 1.026ZM52 13.026v1.031c0 .557-.457 1.017-1.014 1.02H18.593c-.56 0-1.013-.459-1.013-1.026v-1.025c0-.567.453-1.026 1.013-1.026h32.393c.56 0 1.014.459 1.014 1.026Zm0 12.307v1.032c0 .557-.457 1.017-1.014 1.02H18.593a1.025 1.025 0 0 1-1.013-1.026v-1.026c0-.566.453-1.025 1.013-1.025h32.393c.56 0 1.014.459 1.014 1.025Zm-.004 24.616v1.031c0 .557-.457 1.017-1.014 1.02H18.589c-.56 0-1.013-.459-1.013-1.026v-1.025c0-.567.453-1.026 1.013-1.026h32.393c.56 0 1.014.459 1.014 1.026Z"/>
  </g>
</svg>
