<svg xmlns="http://www.w3.org/2000/svg" xml:space="preserve" fill-rule="evenodd" stroke-linejoin="round" stroke-miterlimit="2" clip-rule="evenodd" viewBox="0 0 64 64">
  <g id="brown">
    <path fill="#aa7850" d="M9.701 29.023h45.332c2.985 0 2.63 1.993 2.637 4.657V53c0 2.664.348 5-2.637 5H9.701c-2.98 0-3.082-2.164-3.082-4.828v-19.32c0-2.664.102-4.829 3.082-4.829Z"/>
  </g>
  <g id="grey">
    <path fill="#acabab" d="m40.254 29.023-.008-11.246c-.25-4.199-3.894-7.461-8.098-7.242-4.203-.215-7.843 3.043-8.097 7.242v3.192h-9.004v-3.192c0-8.429 7.668-15.293 17.101-15.293 9.43 0 17.106 6.864 17.106 15.293v11.246h-9Z"/>
  </g>
</svg>
