<?xml version="1.0" encoding="UTF-8" standalone="no"?>
<!DOCTYPE svg PUBLIC "-//W3C//DTD SVG 1.1//EN" "http://www.w3.org/Graphics/SVG/1.1/DTD/svg11.dtd">
<svg width="100%" height="100%" viewBox="0 0 64 64" version="1.1" xmlns="http://www.w3.org/2000/svg" xmlns:xlink="http://www.w3.org/1999/xlink" xml:space="preserve" xmlns:serif="http://www.serif.com/" style="fill-rule:evenodd;clip-rule:evenodd;stroke-linejoin:round;stroke-miterlimit:2;">
    <ellipse cx="28.308" cy="28.536" rx="17.097" ry="17.55" style="fill:#73a7c7;"/>
    <path d="M27.944,13.605C29.2,14.149 29.779,15.609 29.235,16.863C28.692,18.117 27.23,18.692 25.974,18.148C24.718,17.603 24.139,16.143 24.683,14.889C25.226,13.635 26.687,13.06 27.944,13.605Z" style="fill:#4bc3f1;"/>
    <path d="M23.884,17.58C24.557,18.772 24.885,19.863 24.616,20.015C24.347,20.167 23.583,19.322 22.91,18.13C22.237,16.937 21.908,15.846 22.177,15.694C22.446,15.542 23.211,16.387 23.884,17.58Z" style="fill:#4bc3f1;"/>
    <path d="M22.051,18.488C22.724,19.68 23.052,20.772 22.783,20.923C22.514,21.075 21.749,20.23 21.076,19.038C20.403,17.845 20.075,16.754 20.344,16.602C20.613,16.45 21.378,17.295 22.051,18.488Z" style="fill:#4bc3f1;"/>
    <g id="surface1">
        <path d="M28.543,6.012C16.164,6.012 5.977,16.199 5.977,28.574C5.977,40.957 16.164,51.141 28.543,51.141C32.277,51.172 35.957,50.262 39.246,48.496C39.496,48.801 39.781,49.082 40.086,49.336L46.531,55.785C47.777,57.188 49.566,57.988 51.445,57.988C55.051,57.988 58.023,55.02 58.023,51.41C58.023,49.535 57.219,47.746 55.816,46.5L49.367,40.051C49.055,39.738 48.707,39.457 48.336,39.215C50.172,35.941 51.148,32.262 51.18,28.512C51.16,16.137 40.914,6.027 28.543,6.012ZM28.477,12.523C28.504,12.523 28.453,12.523 28.477,12.523C37.277,12.523 44.66,19.699 44.66,28.504L44.66,28.578C44.703,32.68 43.18,36.645 40.406,39.668L40.207,39.867C39.902,40.121 39.621,40.398 39.367,40.707C36.367,43.367 32.48,44.813 28.473,44.77C19.629,44.77 12.355,37.492 12.355,28.648C12.355,19.809 19.629,12.531 28.473,12.531L28.477,12.523Z" style="fill:#575757;fill-rule:nonzero;"/>
        <path d="M48.176,40.444C47.077,39.37 46.673,40.719 45.599,41.819L41.707,45.803C40.633,46.902 39.224,47.236 40.323,48.31L48.796,56.62C49.895,57.694 53.147,57.501 54.221,56.402C55.17,55.76 55.905,55.119 56.396,54.477C57.47,53.378 57.678,49.726 56.579,48.652L48.176,40.444Z" style="fill:#754600;"/>
    </g>
</svg>
