<svg xmlns="http://www.w3.org/2000/svg" xml:space="preserve" fill-rule="evenodd" stroke-linejoin="round" stroke-miterlimit="2" clip-rule="evenodd" viewBox="0 0 64 64">
  <g id="blue">
    <path fill="#d7e3f0" d="M26.685 9.825c9.065 0 16.425 7.36 16.425 16.425 0 9.065-7.36 16.425-16.425 16.425-9.066 0-16.425-7.36-16.425-16.425 0-9.065 7.359-16.425 16.425-16.425Z"/>
    <circle cx="16.5" cy="22" r="3" fill="#c2f0ff"/>
  </g>
  <g id="brown">
    <path fill="#af905e" d="m37.197 43.557 6.376-6.136c-.128.192-.259.383-.393.571a.065.065 0 0 1 .009.008l12.104 12.104a6.766 6.766 0 0 1 2.272 5.056c0 1.764-.366 1.925-.617 2.204-.278.31-.519.636-2.222.636a6.77 6.77 0 0 1-5.06-2.268L37.565 43.627a8.263 8.263 0 0 1-.2-.173l-.168.103Z"/>
  </g>
  <g id="grey">
    <path fill="#909090" d="M37.197 43.557A20.148 20.148 0 0 1 26.685 46.5c-11.177 0-20.25-9.074-20.25-20.25S15.508 6 26.685 6c11.176 0 20.25 9.074 20.25 20.25 0 4.128-1.238 7.968-3.362 11.171l-6.376 6.136ZM26.685 9.825c-9.066 0-16.425 7.36-16.425 16.425 0 9.065 7.359 16.425 16.425 16.425 9.065 0 16.425-7.36 16.425-16.425 0-9.065-7.36-16.425-16.425-16.425Z"/>
  </g>
</svg>
