<?xml version="1.0" encoding="UTF-8" standalone="no"?>
<!DOCTYPE svg PUBLIC "-//W3C//DTD SVG 1.1//EN" "http://www.w3.org/Graphics/SVG/1.1/DTD/svg11.dtd">
<svg width="100%" height="100%" viewBox="0 0 64 64" version="1.1" xmlns="http://www.w3.org/2000/svg" xmlns:xlink="http://www.w3.org/1999/xlink" xml:space="preserve" xmlns:serif="http://www.serif.com/" style="fill-rule:evenodd;clip-rule:evenodd;">
    <g id="surface1">
        <path d="M7.5,32L32.5,32" style="fill:none;fill-rule:nonzero;stroke:#274100;stroke-width:2px;"/>
        <path d="M7.5,44L32.5,44" style="fill:none;fill-rule:nonzero;stroke:#274100;stroke-width:2px;"/>
        <path d="M7.5,56L32.5,56" style="fill:none;fill-rule:nonzero;stroke:#274100;stroke-width:2px;"/>
        <path d="M8,31.5L8,56.5" style="fill:none;fill-rule:nonzero;stroke:#274100;stroke-width:2px;"/>
        <path d="M20,31.5L20,56.5" style="fill:none;fill-rule:nonzero;stroke:#274100;stroke-width:2px;"/>
        <path d="M32,31.5L32,56.5" style="fill:none;fill-rule:nonzero;stroke:#274100;stroke-width:2px;"/>
        <path d="M31.5,32L56.5,32" style="fill:none;fill-rule:nonzero;stroke:#274100;stroke-width:2px;"/>
        <path d="M31.5,44L56.5,44" style="fill:none;fill-rule:nonzero;stroke:#274100;stroke-width:2px;"/>
        <path d="M31.5,56L56.5,56" style="fill:none;fill-rule:nonzero;stroke:#274100;stroke-width:2px;"/>
        <path d="M32,31.5L32,56.5" style="fill:none;fill-rule:nonzero;stroke:#274100;stroke-width:2px;"/>
        <path d="M44,31.5L44,56.5" style="fill:none;fill-rule:nonzero;stroke:#274100;stroke-width:2px;"/>
        <path d="M56,31.5L56,56.5" style="fill:none;fill-rule:nonzero;stroke:#274100;stroke-width:2px;"/>
        <path d="M31.5,8L56.5,8" style="fill:none;fill-rule:nonzero;stroke:#274100;stroke-width:2px;"/>
        <path d="M31.5,20L56.5,20" style="fill:none;fill-rule:nonzero;stroke:#274100;stroke-width:2px;"/>
        <path d="M31.5,32L56.5,32" style="fill:none;fill-rule:nonzero;stroke:#274100;stroke-width:2px;"/>
        <path d="M32,7.5L32,32.5" style="fill:none;fill-rule:nonzero;stroke:#274100;stroke-width:2px;"/>
        <path d="M44,7.5L44,32.5" style="fill:none;fill-rule:nonzero;stroke:#274100;stroke-width:2px;"/>
        <path d="M56,7.5L56,32.5" style="fill:none;fill-rule:nonzero;stroke:#274100;stroke-width:2px;"/>
        <path d="M7.5,8L32.5,8" style="fill:none;fill-rule:nonzero;stroke:#274100;stroke-width:2px;"/>
        <path d="M7.5,20L32.5,20" style="fill:none;fill-rule:nonzero;stroke:#274100;stroke-width:2px;"/>
        <path d="M7.5,32L32.5,32" style="fill:none;fill-rule:nonzero;stroke:#274100;stroke-width:2px;"/>
        <path d="M8,7.5L8,32.5" style="fill:none;fill-rule:nonzero;stroke:#274100;stroke-width:2px;"/>
        <path d="M20,7.5L20,32.5" style="fill:none;fill-rule:nonzero;stroke:#274100;stroke-width:2px;"/>
        <path d="M32,7.5L32,32.5" style="fill:none;fill-rule:nonzero;stroke:#274100;stroke-width:2px;"/>
    </g>
</svg>
