<svg xmlns="http://www.w3.org/2000/svg" xml:space="preserve" fill-rule="evenodd" stroke-linejoin="round" stroke-miterlimit="2" clip-rule="evenodd" viewBox="0 0 64 64">
  <g id="green">
    <path fill="#81f340" fill-rule="nonzero" d="M32 18.865c-2.595 0-4.634 2.034-4.634 4.629 0 2.596 2.039 4.634 4.634 4.634s4.634-2.038 4.634-4.634c0-2.595-2.039-4.629-4.634-4.629Z"/>
  </g>
  <g id="blue">
    <path fill="#d1f8fd" d="M32 6c9.683 0 17.659 4.969 17.659 17.554C49.659 36.137 32 58 32 58S14.341 36.137 14.341 23.554C14.341 10.969 22.317 6 32 6Zm0 6.661c-5.947 0-10.833 4.886-10.833 10.833S26.053 34.327 32 34.327s10.833-4.886 10.833-10.833S37.947 12.661 32 12.661Z"/>
  </g>
</svg>
