<?xml version="1.0" encoding="UTF-8" standalone="no"?><!DOCTYPE svg PUBLIC "-//W3C//DTD SVG 1.1//EN" "http://www.w3.org/Graphics/SVG/1.1/DTD/svg11.dtd"><svg width="100%" height="100%" viewBox="0 0 64 64" version="1.1" xmlns="http://www.w3.org/2000/svg" xmlns:xlink="http://www.w3.org/1999/xlink" xml:space="preserve" xmlns:serif="http://www.serif.com/" style="fill-rule:evenodd;clip-rule:evenodd;stroke-linejoin:round;stroke-miterlimit:2;"><g id="grey"><path d="M37.627,49.872L32.383,52.9L9.998,14.128L15.242,11.1L37.627,49.872Z" style="fill:#575757;"/></g><g id="white"><path d="M32.912,23.581C37.097,23.581 38.489,20.063 38.489,17.378C38.489,14.413 36.991,11.175 32.912,11.175C28.763,11.175 27.302,14.692 27.302,17.378C27.302,20.307 28.798,23.581 32.912,23.581ZM33.785,36.41L50.451,11.175L47.52,11.175L30.853,36.41L33.785,36.41ZM32.912,21.18C30.853,21.18 29.913,19.575 29.913,17.378C29.913,15.284 30.82,13.576 32.912,13.576C34.901,13.576 35.914,15.145 35.914,17.378C35.914,19.402 34.936,21.18 32.912,21.18ZM48.392,36.41C52.61,36.41 54.002,32.894 54.002,30.209C54.002,27.243 52.506,24.004 48.392,24.004C44.278,24.004 42.815,27.522 42.815,30.207C42.815,33.138 44.313,36.41 48.392,36.41ZM48.392,34.009C46.368,34.009 45.392,32.405 45.392,30.209C45.392,28.115 46.333,26.405 48.392,26.405C50.416,26.405 51.392,27.974 51.392,30.207C51.392,32.231 50.451,34.009 48.392,34.009Z" style="fill:none;fill-rule:nonzero;stroke:#f4f4f4;stroke-width:2px;stroke-dasharray:2,2;"/></g></svg>