<svg xmlns="http://www.w3.org/2000/svg" xml:space="preserve" fill-rule="evenodd" stroke-linejoin="round" stroke-miterlimit="2" clip-rule="evenodd" viewBox="0 0 64 64">
  <g id="white">
    <path fill="#ebebeb" d="M8.318 19.834h2v33.695h-2V19.834ZM51.62 43.02h2.12v10.509h-2.12V43.02ZM30.301 31.59l2-.002.013 21.94-2 .002-.013-21.94Z"/>
  </g>
  <g id="red">
    <path fill="#ff2721" fill-rule="nonzero" d="M32.231 17.895c2.504 0 3.337-2.105 3.337-3.712 0-1.774-.896-3.712-3.337-3.712-2.483 0-3.357 2.105-3.357 3.712 0 1.753.895 3.712 3.357 3.712Zm.522 7.677 9.973-15.101h-1.754l-9.973 15.101h1.754Zm-.522-9.114c-1.232 0-1.795-.96-1.795-2.275 0-1.253.543-2.275 1.795-2.275 1.19 0 1.796.939 1.796 2.275 0 1.211-.585 2.275-1.796 2.275Zm9.263 9.114c2.524 0 3.357-2.104 3.357-3.711 0-1.775-.895-3.713-3.357-3.713s-3.337 2.105-3.337 3.712c0 1.754.896 3.712 3.337 3.712Zm0-1.437c-1.211 0-1.795-.96-1.795-2.274 0-1.253.563-2.276 1.795-2.276 1.211 0 1.795.939 1.795 2.275 0 1.211-.563 2.275-1.795 2.275Z"/>
  </g>
  <g id="grey">
    <path fill="#575757" d="m60.096 42.449-3.773 7.055L3.904 21.475l3.773-7.055 52.419 28.029Z"/>
  </g>
</svg>
