<svg xmlns="http://www.w3.org/2000/svg" xml:space="preserve" fill-rule="evenodd" stroke-linejoin="round" stroke-miterlimit="2" clip-rule="evenodd" viewBox="0 0 64 64">
  <g id="black">
    <path d="M32.496 40.988h-3.715l-1.477-4.083h-6.762l-1.396 4.083h-3.623l6.588-17.976h3.612l6.773 17.976Zm-6.288-7.112-2.331-6.67-2.285 6.67h4.616Zm8.088-10.864h6.243c1.407 0 2.48.115 3.219.344.992.31 1.842.862 2.55 1.655.708.793 1.246 1.764 1.615 2.912.37 1.149.554 2.565.554 4.249 0 1.479-.173 2.754-.519 3.825-.423 1.308-1.027 2.367-1.812 3.176-.592.613-1.392 1.091-2.4 1.434-.754.254-1.761.381-3.023.381h-6.427V23.012Zm3.416 3.041v11.906h2.55c.954 0 1.642-.057 2.065-.172.554-.147 1.014-.396 1.379-.748.365-.351.663-.929.894-1.735.231-.805.346-1.902.346-3.292 0-1.389-.115-2.456-.346-3.2-.231-.744-.554-1.324-.969-1.741-.415-.417-.942-.699-1.581-.846-.477-.115-1.411-.172-2.804-.172h-1.534Z"/>
  </g>
  <g id="red">
    <path fill="#f22121" d="M32 8h.004C45.167 8 56 18.832 56 31.995V32c0 13.166-10.834 24-24 24S8 45.166 8 32 18.834 8 32 8ZM16.502 19.296A19.967 19.967 0 0 0 11.958 32c0 11.061 8.981 20.042 20.042 20.042a19.967 19.967 0 0 0 12.704-4.544L16.502 19.296Zm30.996 25.408A19.967 19.967 0 0 0 52.042 32c0-11.061-8.981-20.042-20.042-20.042a19.967 19.967 0 0 0-12.704 4.544l28.202 28.202Z"/>
  </g>
</svg>
