<svg xmlns="http://www.w3.org/2000/svg" xml:space="preserve" fill-rule="evenodd" stroke-linejoin="round" stroke-miterlimit="2" clip-rule="evenodd" viewBox="0 0 64 64">
  <g id="orange">
    <path fill="#ffd49b" fill-rule="nonzero" d="M34.732 18.46H20.157a2.964 2.964 0 0 0-2.916 2.983v14.951a2.96 2.96 0 0 0 2.916 2.946h14.575a2.963 2.963 0 0 0 2.916-2.981V21.443a2.965 2.965 0 0 0-2.916-2.983M23.07 34.867a1.5 1.5 0 0 1-1.402-.897 1.495 1.495 0 0 1-.122-.593 1.5 1.5 0 0 1 1.493-1.493c.192 0 .383.037.561.109.56.23.928.778.928 1.383v.018a1.48 1.48 0 0 1-1.458 1.473m0-8.95a1.498 1.498 0 0 1-1.402-.897 1.493 1.493 0 0 1 1.369-2.086c.818 0 1.491.673 1.491 1.491v.001c.005.392-.146.769-.418 1.049-.274.28-.648.44-1.04.444v-.002m4.373 4.476a1.5 1.5 0 0 1-1.402-.898 1.495 1.495 0 0 1-.122-.59c0-.818.673-1.491 1.491-1.491.816 0 1.488.67 1.491 1.486v.02a1.48 1.48 0 0 1-1.458 1.473m4.374 4.474h-.04a1.49 1.49 0 1 1 1.492-1.491 1.482 1.482 0 0 1-1.452 1.491m0-8.95h-.041a1.498 1.498 0 0 1-1.491-1.491c0-.389.152-.763.424-1.041a1.501 1.501 0 0 1 1.631-.342c.56.231.927.778.929 1.383a1.481 1.481 0 0 1-1.452 1.493v-.002"/>
  </g>
  <g id="brown">
    <path fill="#754600" fill-rule="nonzero" d="m47.011 29.897-7.955-2.962-.035 8.964a6.248 6.248 0 0 1-.736 3.355 5.159 5.159 0 0 1-2.152 1.28l-8.505.002s-1.021 1.538.25 2.163l4.899 1.657 8.029 2.988a2.583 2.583 0 0 0 3.322-1.586l4.432-12.461a2.681 2.681 0 0 0-1.549-3.4m-7.31 12.801a1.34 1.34 0 0 1-.776-1.699 1.29 1.29 0 0 1 .666-.748c.312-.151.673-.169.998-.049a1.341 1.341 0 0 1 .773 1.701 1.291 1.291 0 0 1-1.661.795"/>
  </g>
  <g id="red">
    <path fill="#f22121" d="M32 8h.004C45.167 8 56 18.832 56 31.995V32c0 13.166-10.834 24-24 24S8 45.166 8 32 18.834 8 32 8ZM16.502 19.296A19.973 19.973 0 0 0 11.958 32c0 11.061 8.981 20.042 20.042 20.042a19.973 19.973 0 0 0 12.704-4.544L16.502 19.296Zm30.996 25.408A19.973 19.973 0 0 0 52.042 32c0-11.061-8.981-20.042-20.042-20.042a19.973 19.973 0 0 0-12.704 4.544l28.202 28.202Z"/>
  </g>
</svg>
