<svg xmlns="http://www.w3.org/2000/svg" xml:space="preserve" fill-rule="evenodd" stroke-linejoin="round" stroke-miterlimit="2" clip-rule="evenodd" viewBox="0 0 64 64">
  <g id="green">
    <path fill="#79b264" d="M28.15 26.255V22.5H21l11-11 11 11h-7.15v3.755h-7.7Zm7.7 18.245v6h-7.7v-6h7.7Zm0-5.75v2.75h-7.7v-2.75h7.7Zm0-5.25v2.75h-7.7V33.5h7.7Zm0-4.853v2.75h-7.7v-2.75h7.7Z"/>
  </g>
  <g id="red">
    <path fill="#f22121" d="M32 6.15h.004c14.178 0 25.846 11.667 25.846 25.845V32c0 14.181-11.669 25.85-25.85 25.85C17.819 57.85 6.15 46.181 6.15 32 6.15 17.819 17.819 6.15 32 6.15ZM15.307 18.317A21.507 21.507 0 0 0 10.413 32c0 11.914 9.673 21.587 21.587 21.587a21.507 21.507 0 0 0 13.683-4.894L15.307 18.317Zm33.386 27.366A21.507 21.507 0 0 0 53.587 32c0-11.914-9.673-21.587-21.587-21.587a21.507 21.507 0 0 0-13.683 4.894l30.376 30.376Z"/>
  </g>
</svg>
