<svg xmlns="http://www.w3.org/2000/svg" xml:space="preserve" fill-rule="evenodd" stroke-linejoin="round" stroke-miterlimit="2" clip-rule="evenodd" viewBox="0 0 64 64">
  <g id="green">
    <path fill="#6aff4e" fill-rule="nonzero" d="M32.012 9.734a3.548 3.548 0 0 1 3.554 3.555v17.777a3.548 3.548 0 0 1-3.554 3.555 3.548 3.548 0 0 1-3.555-3.555V13.289a3.548 3.548 0 0 1 3.555-3.555Z"/>
  </g>
  <g id="grey">
    <path fill="#b5b5b5" fill-rule="nonzero" d="M32.012 54.266h-.032c-11.703 0-21.335-9.629-21.335-21.332 0-9.661 6.562-18.168 15.898-20.629v5.59A16.032 16.032 0 0 0 16.012 32.93c0 8.777 7.222 16 16 16 8.777 0 16-7.223 16-16 0-6.848-4.399-12.973-10.891-15.16v-5.559c9.5 2.34 16.231 10.93 16.231 20.715 0 5.66-2.25 11.094-6.254 15.094a21.211 21.211 0 0 1-15.086 6.246Z"/>
  </g>
</svg>
