<svg xmlns="http://www.w3.org/2000/svg" xml:space="preserve" fill-rule="evenodd" stroke-linejoin="round" stroke-miterlimit="2" clip-rule="evenodd" viewBox="0 0 512 512">
  <g id="blue">
    <path fill="#73a7c7" d="M281.753 420.115c-5.093 4.823-11.56 8.092-18.638 9.092l-.027.004-117.484 16.468-.143.019c-18.248 2.451-36.584-10.505-39.285-31.081L72.308 161.1c-2.723-20.343 11.401-37.814 29.549-40.377l.022-.003 117.446-16.479.148-.02c12.206-1.638 24.451 3.617 32.032 13.452l14.989-31.064.028-.058c9.149-18.837 30.799-25.337 47.446-16.903l107.077 54.132.016.008c16.268 8.24 24.14 29.305 15.244 47.632L324.819 402.526l-.051.103c-5.987 12.267-17.499 19.29-29.099 20.309a24.892 24.892 0 0 1-13.916-2.823Zm-45.557-264.904-2.22-16.599c-.797-6.066-5.811-10.334-11.178-9.613l-117.445 16.479c-5.377.759-9.073 6.278-8.266 12.305l33.869 253.524c.797 6.067 5.811 10.334 11.178 9.614l117.483-16.468c4.402-.622 7.678-4.435 8.278-9.105l-2.603-19.373a25.187 25.187 0 0 1-.217-2.793l-2.921-21.759a24.971 24.971 0 0 1-.219-3.753l-1.523-11.389a24.93 24.93 0 0 1-.718-3.471l-3.649-27.275a25.012 25.012 0 0 1-.22-3.552l-1.575-11.777a24.929 24.929 0 0 1-.663-3.273l-3.649-27.276a24.852 24.852 0 0 1-.221-3.347l-1.63-12.189c-.264-1-.468-2.022-.607-3.062l-11.063-82.624a24.924 24.924 0 0 1-.221-3.224Zm56.799 239.207.486 3.616c3.557-.312 6.985-2.609 8.821-6.371l111.486-231.105c2.676-5.514.857-11.996-4.023-14.467L302.688 91.959c-4.878-2.472-11 0-13.678 5.514l-27.65 57.302 11.11 83.073 57.26 28.952c.842.407 1.084 1.661.538 2.777l-4.818 9.951c-.547 1.117-1.643 1.656-2.475 1.21l-48.015-24.274 3.647 27.276 34.508 17.431c.843.407 1.085 1.659.537 2.776l-4.817 9.952c-.548 1.116-1.644 1.655-2.475 1.21l-25.263-12.752 3.648 27.275 11.745 5.949c.842.405 1.084 1.659.538 2.776l-4.818 9.951c-.548 1.117-1.643 1.656-2.475 1.211l-2.5-1.269 5.427 40.579c.253 1.891.361 3.757.333 5.589Zm-8.129-194.362 27.65-56.174c.886-1.829 3.419-2.042 4.523-.374l33.871 51.197c1.104 1.667-.018 3.967-2.04 4.155l-61.521 4.978c-1.991.16-3.4-1.926-2.483-3.782Zm-139.26 97.924-1.466-10.921c-.165-1.223.455-2.31 1.39-2.426l77.044-10.805c.934-.116 1.808.759 1.945 1.934l1.466 10.92c.165 1.223-.455 2.31-1.389 2.425l-77.044 10.806c-.935.116-1.809-.761-1.946-1.933Zm7.02 39.676c-.934.117-1.808-.76-1.945-1.933l-1.466-10.92c-.165-1.225.455-2.311 1.389-2.427l77.045-10.805c.934-.117 1.808.76 1.945 1.933l1.466 10.92c.165 1.225-.455 2.311-1.389 2.427l-77.045 10.805Zm82.081 26.927-77.044 10.805c-.934.117-1.808-.759-1.945-1.932l-1.466-10.921c-.165-1.224.455-2.311 1.389-2.426l77.044-10.805c.934-.117 1.808.76 1.945 1.932l1.466 10.921c.165 1.224-.455 2.311-1.389 2.426Zm-86.195-120.642-8.288-62.059c-.282-2.013 1.704-3.599 3.55-2.828l56.632 23.687c1.846.771 2.193 3.306.618 4.587l-48.344 38.373c-1.565 1.241-3.897.292-4.168-1.76Z"/>
  </g>
</svg>
