<svg xmlns="http://www.w3.org/2000/svg" xml:space="preserve" fill-rule="evenodd" stroke-linejoin="round" stroke-miterlimit="2" clip-rule="evenodd" viewBox="0 0 512 512">
  <g id="blue">
    <path fill="#4bc3f1" d="m236.731 124.295 40.719 289.283c.969 6.877-3.47 13.175-9.926 14.042l-141.086 18.789c-6.445.823-12.467-4.046-13.423-10.969L72.341 146.169c-.969-6.877 3.47-13.174 9.927-14.041l141.04-18.802c6.444-.822 12.466 4.047 13.423 10.969Zm-102.634 120.18c.326 2.341 3.127 3.424 5.006 2.008l58.056-43.783a3.023 3.023 0 0 0-.742-5.234l-68.01-27.027c-2.217-.879-4.601.93-4.262 3.227l9.952 70.809Zm-3.489 61.658c.165 1.338 1.214 2.339 2.336 2.207l92.522-12.33c1.122-.132 1.867-1.372 1.669-2.767l-1.761-12.461c-.164-1.339-1.214-2.338-2.336-2.206l-92.522 12.328c-1.122.134-1.866 1.374-1.668 2.769l1.76 12.46Zm8.43 45.271 92.523-12.329c1.122-.131 1.866-1.371 1.668-2.768l-1.761-12.46c-.164-1.339-1.214-2.339-2.336-2.205L136.61 333.97c-1.122.132-1.866 1.372-1.668 2.769l1.76 12.46c.165 1.338 1.214 2.338 2.336 2.205Zm98.571 30.724c1.122-.131 1.866-1.371 1.669-2.768l-1.761-12.46c-.165-1.339-1.214-2.339-2.336-2.205l-92.522 12.328c-1.122.132-1.867 1.372-1.669 2.769l1.761 12.46c.164 1.338 1.214 2.338 2.336 2.205l92.522-12.329Zm195.914-254.224c5.817 2.8 7.986 10.141 4.795 16.387L305.403 406.076c-2.189 4.261-6.275 6.863-10.516 7.217l-4.067-28.76c-.02-.628-.005-1.2-.072-1.841l-3.669-25.967 3.342 1.612c.992.504 2.297-.107 2.95-1.372l5.745-11.271c.651-1.266.362-2.686-.642-3.145l-14.326-6.895-4.35-30.896 30.444 14.601c.991.505 2.297-.107 2.951-1.37l5.742-11.273c.654-1.265.364-2.685-.64-3.145l-41.428-19.883-4.351-30.898 57.534 27.635c.992.505 2.299-.105 2.95-1.37l5.745-11.273c.651-1.263.362-2.684-.642-3.144l-68.517-32.917-13.19-93.592 33.161-65.296c3.193-6.246 10.491-9.047 16.307-6.247l127.659 61.318Zm-73.103 59.718-.058.033c2.414-.171 3.744-2.789 2.418-4.726l-40.777-59.421c-1.327-1.938-4.284-1.767-5.372.34l-32.521 64.076c-1.029 2.076.597 4.524 3.013 4.353l73.297-4.655Z"/>
  </g>
</svg>
