<svg xmlns="http://www.w3.org/2000/svg" xml:space="preserve" fill-rule="evenodd" stroke-linejoin="round" stroke-miterlimit="2" clip-rule="evenodd" viewBox="0 0 64 64">
  <g id="grey" fill-rule="nonzero">
    <path fill="#c2bdbd" d="m6.698 27.512 28.964 24.304 21.672-12.513v-2.588L35.9 49.09 6.666 24.56l.032 2.952Z"/>
    <path fill="#929191" d="M6.666 24.56 35.9 49.09l21.434-12.375L28.1 12.185 6.666 24.56Z"/>
  </g>
  <g id="white">
    <path fill="#f4f4f4" d="m37.313 38.247.513 6.646c.045.743-.746 1.354-1.794 1.388-.582.015-1.159-.168-1.547-.494-.274-.23-.435-.515-.454-.807l-.497-6.442a1.35 1.35 0 0 1-.117-.156l-3.74-5.683a1.477 1.477 0 0 1-.327-.206l-4.613-3.871.326 1.744c.029.025.058.05.084.076l2.536 2.476c.537.532.396 1.253-.317 1.609-.678.332-1.651.221-2.216-.253a1.297 1.297 0 0 1-.078-.07l-2.535-2.476a1.226 1.226 0 0 1-.217-.279c-.23-.181-.377-.404-.42-.639l-.977-5.219a.836.836 0 0 1 .089-.554c.029-.24.186-.467.463-.627l3.378-1.95c.438-.253 1.056-.268 1.549-.071l13.173 1.598c.385.044.742.188.998.403.304.255.438.587.365.902-.145.613-.959 1.017-1.848.916l-9.365-1.135 5.086 4.268c.033.027.064.057.092.085l7.49 1.56c.505.106.917.33 1.19.613l8.281 4.529c.117.064.223.136.318.216.592.497.635 1.202.102 1.683-.64.567-1.853.648-2.723.18l-8.065-4.411c-.07-.01-.14-.022-.209-.037l-7.406-1.542 3.294 5.003c.214.328.263.692.138 1.027ZM17.956 19.065c1.507-.87 3.784-.692 5.082.397s1.128 2.679-.379 3.549c-1.508.871-3.785.693-5.083-.396-1.297-1.089-1.128-2.679.38-3.55Z"/>
  </g>
</svg>
