<svg xmlns="http://www.w3.org/2000/svg" xml:space="preserve" fill-rule="evenodd" stroke-linejoin="round" stroke-miterlimit="2" clip-rule="evenodd" viewBox="0 0 64 64">
  <g id="white">
    <path fill="#f4f4f4" d="M2.315 49.709a1 1 0 0 1-.5-.866v-5.808a1 1 0 0 1 2 0v5.308h54.034v-5.308a1 1 0 0 1 2 0v5.808a1 1 0 0 1-.5.866v4.028a.5.5 0 0 1-.5.5H2.815a.5.5 0 0 1-.5-.5v-4.028Z"/>
  </g>
  <g id="green">
    <path fill="#274100" d="m29.191 35.105 20.944-24.159a1.994 1.994 0 0 1 2.805-.198l7.562 6.552a2 2 0 0 1 .198 2.81L39.758 44.265l-10.567-9.16Z"/>
  </g>
  <g id="brown">
    <path fill="#aa7850" d="M26.998 45.449c.344-3.529 1.578-9.286 2.13-10.251.021-.035.043-.066.063-.093l10.567 9.16a1.36 1.36 0 0 1-.066.062c-.851.692-6.727 2.761-10.149 3.585l-2.545-2.463Z"/>
  </g>
  <g id="black">
    <path fill-rule="nonzero" d="M23.221 48.298h3.466L17.03 21.04h-3.154L4.219 48.298h3.543l2.298-6.66h10.825l2.336 6.66Zm-3.387-9.654h-8.762l3.544-10.088a54.26 54.26 0 0 0 .856-2.765c.156.701.584 1.986.857 2.765l3.505 10.088Z"/>
    <path fill="#010001" d="m26.998 45.449 2.545 2.463c-.976.369-1.866.495-2.657.335-.263-.648-.252-1.542.112-2.798Z"/>
  </g>
</svg>
