<?xml version="1.0" encoding="UTF-8" standalone="no"?>
<!DOCTYPE svg PUBLIC "-//W3C//DTD SVG 1.1//EN" "http://www.w3.org/Graphics/SVG/1.1/DTD/svg11.dtd">
<svg width="100%" height="100%" viewBox="0 0 64 64" version="1.1" xmlns="http://www.w3.org/2000/svg" xmlns:xlink="http://www.w3.org/1999/xlink" xml:space="preserve" xmlns:serif="http://www.serif.com/" style="fill-rule:evenodd;clip-rule:evenodd;stroke-linejoin:round;stroke-miterlimit:2;">
    <g id="surface1">
        <path d="M13.035,51.203C11.898,50.617 14.262,37.621 15.047,36.691L37.77,9.621C38.543,8.695 39.941,8.574 40.867,9.352L49.34,16.461C50.266,17.238 50.387,18.637 49.609,19.563L26.887,46.629C26.105,47.563 14.172,51.781 13.035,51.203Z" style="fill:#274100;fill-rule:nonzero;"/>
        <path d="M14.979,36.795C15.002,36.756 15.025,36.721 15.047,36.691L26.887,46.629C26.866,46.652 26.842,46.675 26.815,46.699C25.558,47.756 14.146,51.768 13.035,51.203C11.929,50.633 14.134,38.328 14.979,36.795Z" style="fill:#aa7850;"/>
        <path d="M12.805,48.162L15.661,50.84C14.589,51.264 13.608,51.419 12.731,51.257C12.428,50.545 12.425,49.557 12.805,48.162Z" style="fill:#010001;"/>
    </g>
</svg>
