<svg xmlns="http://www.w3.org/2000/svg" xml:space="preserve" fill-rule="evenodd" stroke-linejoin="round" stroke-miterlimit="2" clip-rule="evenodd" viewBox="0 0 64 64">
  <g id="black">
    <path fill="#010001" d="m12.805 48.162 2.856 2.678c-1.072.424-2.053.579-2.93.417-.303-.712-.306-1.7.074-3.095Z"/>
  </g>
  <g id="brown">
    <path fill="#aa7850" d="M12.805 48.162c.318-3.907 1.581-10.291 2.174-11.367.023-.039.046-.074.068-.104l11.84 9.938a.97.97 0 0 1-.072.07c-.928.78-7.387 3.17-11.154 4.141l-2.856-2.678Z"/>
  </g>
  <g id="green">
    <path fill="#274100" d="M15.047 36.691 37.77 9.621a2.204 2.204 0 0 1 3.097-.269l8.473 7.109a2.21 2.21 0 0 1 .269 3.102L26.887 46.629l-11.84-9.938Z"/>
  </g>
</svg>
