<svg xmlns="http://www.w3.org/2000/svg" xml:space="preserve" fill-rule="evenodd" stroke-linejoin="round" stroke-miterlimit="2" clip-rule="evenodd" viewBox="0 0 64 64">
  <g id="blue">
    <path fill="#00c1ff" d="m15.407 26.153 15.537-8.9L61.99 43.304 33.071 60 2.01 33.937l13.404-7.739-.007-.045Z"/>
    <path fill="#c2f0ff" d="M40.197 29.555v4.77l-3.622-3.038v-4.771l3.622 3.039Z"/>
    <path fill="#c2f0ff" d="M19.614 21.228v11.926l-6.365-5.341V15.888l6.365 5.34Z"/>
    <path fill="#73a7c7" d="M18.819 21.158v2.385l-.95-.797v-2.385l.95.797Z"/>
    <path fill="#17a" d="M18.819 28.909v2.386l-.95-.797v-2.386l.95.797Z"/>
  </g>
  <g id="red">
    <path fill="#f22121" d="M23.765 22.327v21.466l-11.901-9.987V12.34l11.901 9.987Zm-4.151-1.099-6.365-5.34v11.925l6.365 5.341V21.228Z"/>
    <path fill="#e93e3e" d="M13.691 19.24v-2.386l.95.797v2.386l-.95-.797Zm2.709 2.273v-2.386l.949.797v2.386l-.949-.797Zm-2.709 5.303v-2.21l.95.797v2.21l-.95-.797Zm2.709 2.273v-2.21l.949.797v2.21l-.949-.797Zm-1.363-5.148v-2.01l.95.797v2.01l-.95-.797Z"/>
    <path fill="#c23501" d="m31.476 18.069-7.711 4.258-11.901-9.987 7.75-4.107 11.862 9.836Z"/>
    <path fill="#a43819" d="m31.443 18.041.033 21.306-7.711 4.446V22.327l7.678-4.286Z"/>
  </g>
  <g id="orange">
    <path fill="#f9682b" d="M13.691 22.811v-2.009l.95.797v2.009l-.95-.797Z"/>
  </g>
  <g id="brown">
    <path fill="#aa7850" d="M15.037 20.369v-2.385l.95.797v2.385l-.95-.797Z"/>
  </g>
  <g id="grey">
    <path fill="#d4d4d4" d="M22.826 23.924v9.54l-1.827-1.533v-9.54l1.827 1.533Z"/>
    <path fill="#2e2e2e" d="M19.172 35.168v2.229l-5.481-4.599v-2.229l5.481 4.599Z"/>
    <path fill="#575757" d="M19.614 27.781v.751l-6.443-5.406v-.751l6.443 5.406Z"/>
    <path fill="#575757" d="M19.614 27.781v.751l-6.443-5.406v-.751l6.443 5.406Zm0 4.005v.751l-6.443-5.406v-.752l6.443 5.407Zm0-7.576v.751l-6.443-5.406v-.752l6.443 5.407Z"/>
    <path fill="#575757" d="M19.614 31.786v.751l-6.443-5.406v-.752l6.443 5.407Z"/>
    <path fill="#575757" d="M19.614 24.21v.751l-6.443-5.406v-.752l6.443 5.407Z"/>
    <path fill="#d4d4d4" d="M43.312 29.188v21.466l-9.523-7.991V21.197l9.523 7.991Zm-3.115.367-3.622-3.039v4.771l3.622 3.038v-4.77Z"/>
    <path fill="#808080" d="M40.197 34.325v4.174l-5.022-4.214v-9.54l5.022 4.214v.596l-3.622-3.039v4.771l3.622 3.038Z"/>
    <path fill="#909090" d="M36.542 25.892v9.541l-1.367-1.148v-9.54l1.367 1.147Z"/>
    <path fill="#575757" d="M40.197 36.192v2.229l-5.022-4.214 1.367-1.081 3.655 3.066Z"/>
    <path fill="#ababab" d="m50.911 24.831-7.599 4.357-9.523-7.991 7.431-4.291 9.691 7.925Z"/>
    <path fill="#6e6e6e" d="m50.911 24.831-.167 21.533-7.432 4.29V29.188l7.599-4.357Z"/>
  </g>
  <g id="green">
    <path fill="#558e2f" d="M16.4 25.084v-2.009l.949.797v2.009l-.949-.797Z"/>
  </g>
  <g id="yellow">
    <path fill="#f7e800" d="M17.869 26.318v-2.01l.95.797v2.01l-.95-.797Z"/>
  </g>
  <g id="black">
    <path fill="#2e2e2e" d="M15.987 26.533v2.209l-.95-.797v-2.209l.95.797Z"/>
    <path fill="#131313" d="M39.743 34.544v.924l-2.58-2.164v-.925l2.58 2.165Z"/>
    <path d="m37.24 42.976-.552-.463-.219-1.222-1.004-.842-.207.864-.538-.451.978-3.752.536.45 1.006 5.416Zm-.934-2.592-.346-1.987-.339 1.412.685.575Zm1.507 3.073v-3.799l-.745-.625v-.774l1.995 1.675v.773l-.743-.624v3.8l-.507-.426Zm1.571 1.318v-4.573l.758.637.456 3.501.45-2.741.761.638v4.573l-.471-.395v-3.6l-.499 3.182-.488-.41-.496-4.016v3.599l-.471-.395Z"/>
  </g>
</svg>
