<svg xmlns="http://www.w3.org/2000/svg" xml:space="preserve" fill-rule="evenodd" stroke-linejoin="round" stroke-miterlimit="2" clip-rule="evenodd" viewBox="0 0 64 64">
  <g id="yellow">
    <path fill="#ffdc00" d="m2.01 33.937 28.934-16.684L61.99 43.304 33.071 60 2.01 33.937Z"/>
  </g>
  <g id="blue">
    <path fill="#1e496b" d="M25.197 24.036c.945.043 1.894-.15 2.657-.594.729-.425 1.168-1.01 1.305-1.638v8.682c.024.808-.434 1.597-1.352 2.132-.749.436-1.676.629-2.603.596h-.007v-5.686h.002l-.002-3.492Z"/>
    <path fill="#89969d" d="M21.16 30.19c-.007-.046-.013-.358-.018-.406V20.95c.011.115.027-.12.048-.009-.025.692.305 1.41 1.005 2.001.791.67 1.894 1.044 3.002 1.094l.001 3.492-.001 5.69a.997.997 0 0 1-.054-.007c-2.259-.26-3.701-.988-3.983-3.021Z"/>
    <path fill="#c2f0ff" d="M22.541 18.944c1.658-.965 4.193-.741 5.659.5 1.466 1.241 1.311 3.033-.346 3.998-1.658.965-4.193.742-5.659-.5-1.466-1.241-1.311-3.032.346-3.998Z"/>
    <path fill="#172237" d="M30.566 28.581c.945.043 1.894-.149 2.656-.594.73-.425 1.168-1.01 1.306-1.637l-.001 8.681c.025.808-.433 1.597-1.351 2.132-.749.436-1.676.629-2.604.596h-.006v-5.685h.002l-.002-3.493Z"/>
    <path fill="#172237" d="M26.528 34.736c-.006-.047-.012-.359-.017-.406v-8.835c.011.115.027-.119.048-.009-.025.693.305 1.41 1.004 2.002.792.67 1.895 1.043 3.003 1.093l.001 3.493-.001 5.689-.055-.006c-2.258-.261-3.7-.989-3.983-3.021Z"/>
    <path fill="#172237" d="M27.91 23.49c1.657-.966 4.193-.742 5.659.499 1.466 1.241 1.311 3.033-.347 3.998-1.657.966-4.193.742-5.659-.499-1.466-1.242-1.31-3.033.347-3.998Z"/>
    <path fill="#1e496b" d="M36.012 33.192c.945.043 1.894-.15 2.656-.594.73-.425 1.168-1.01 1.306-1.637l-.001 8.681c.025.808-.433 1.597-1.351 2.132-.749.436-1.676.629-2.603.596h-.007v-5.686h.002l-.002-3.492Z"/>
    <path fill="#4a6168" d="M31.975 39.347c-.007-.047-.013-.359-.018-.407v-8.834c.011.115.027-.119.048-.009-.025.693.305 1.41 1.004 2.002.792.67 1.895 1.043 3.003 1.093l.001 3.492-.001 5.69-.055-.006c-2.258-.261-3.7-.989-3.982-3.021Z"/>
    <path fill="#c2f0ff" d="M33.356 28.1c1.657-.965 4.193-.741 5.659.5 1.466 1.241 1.311 3.033-.347 3.998-1.657.966-4.193.742-5.659-.499-1.466-1.242-1.31-3.033.347-3.999Z"/>
    <path fill="#80afcb" d="M33.91 28.57c1.312-.764 3.319-.587 4.479.395 1.16.982 1.037 2.4-.275 3.164-1.311.764-3.318.587-4.478-.395-1.16-.983-1.037-2.4.274-3.164Z"/>
    <path fill="#1e496b" d="M22.503 29.622c.944.043 1.893-.15 2.656-.594.729-.425 1.168-1.01 1.305-1.637v8.681c.024.808-.434 1.597-1.352 2.132-.749.436-1.676.629-2.603.596h-.006v-5.686l.001.001-.001-3.493Z"/>
    <path fill="#89969d" d="M18.465 35.777c-.007-.047-.013-.359-.018-.407v-8.834c.011.115.027-.119.048-.009-.025.693.305 1.41 1.005 2.002.791.67 1.894 1.043 3.003 1.093v9.182l-.055-.006c-2.259-.261-3.701-.989-3.983-3.021Z"/>
    <path fill="#c2f0ff" d="M19.846 24.53c1.658-.965 4.193-.741 5.659.5 1.466 1.241 1.311 3.033-.346 3.998-1.658.966-4.193.742-5.659-.499-1.466-1.242-1.311-3.033.346-3.999Z"/>
    <path fill="#1e496b" d="M27.828 34.131c.944.042 1.893-.15 2.656-.595.729-.424 1.168-1.009 1.305-1.637v8.681c.024.808-.434 1.597-1.352 2.132-.748.436-1.676.63-2.603.596h-.006v-5.685h.001l-.001-3.492Z"/>
    <path fill="#89969d" d="M23.79 40.285c-.007-.046-.012-.359-.018-.406v-8.834c.011.115.027-.12.049-.01-.026.693.305 1.41 1.004 2.002.791.67 1.894 1.043 3.003 1.094v9.181l-.055-.006c-2.259-.26-3.701-.988-3.983-3.021Z"/>
    <path fill="#c2f0ff" d="M25.171 29.039c1.658-.966 4.193-.742 5.659.499 1.466 1.242 1.311 3.033-.346 3.998-1.658.966-4.193.742-5.659-.499-1.466-1.241-1.311-3.033.346-3.998Z"/>
    <path fill="#80afcb" d="M20.377 24.861c1.312-.764 3.318-.587 4.478.395 1.161.982 1.038 2.4-.274 3.164-1.311.764-3.318.587-4.478-.395-1.16-.983-1.038-2.4.274-3.164Z"/>
    <path fill="#1e496b" d="M25.72 18.523c.945.043 1.894-.15 2.656-.594.73-.425 1.168-1.01 1.306-1.638l-.001 8.682c.024.808-.433 1.597-1.352 2.132-.748.436-1.676.629-2.603.596h-.006v-5.686h.002l-.002-3.492Z"/>
    <path fill="#89969d" d="M21.682 24.677c-.006-.046-.012-.358-.017-.406v-8.834c.01.115.026-.12.048-.009-.025.692.305 1.409 1.004 2.001.791.67 1.895 1.044 3.003 1.094v9.182l-.055-.007c-2.259-.26-3.7-.988-3.983-3.021Z"/>
    <path fill="#c2f0ff" d="M23.064 13.431c1.657-.965 4.193-.741 5.659.5 1.466 1.241 1.311 3.032-.347 3.998-1.657.965-4.193.742-5.659-.5-1.466-1.241-1.311-3.032.347-3.998Z"/>
    <path fill="#80afcb" d="M25.702 29.369c1.312-.764 3.318-.587 4.479.395 1.16.983 1.037 2.4-.275 3.164-1.311.764-3.318.587-4.478-.395-1.16-.982-1.038-2.4.274-3.164Z"/>
    <path fill="#1e496b" d="M31.091 23.071c.945.042 1.894-.15 2.657-.594.729-.425 1.168-1.01 1.305-1.638l-.001 8.681c.025.809-.433 1.597-1.351 2.132-.749.436-1.676.63-2.603.596h-.007v-5.685h.002l-.002-3.492Z"/>
    <path fill="#89969d" d="M27.054 29.225c-.007-.046-.013-.359-.018-.406v-8.834c.011.115.027-.12.048-.01-.025.693.305 1.41 1.004 2.002.792.67 1.895 1.044 3.003 1.094l.001 3.492-.001 5.689-.054-.006c-2.259-.26-3.701-.988-3.983-3.021Z"/>
    <path fill="#c2f0ff" d="M28.435 17.979c1.658-.966 4.193-.742 5.659.499 1.466 1.242 1.311 3.033-.346 3.999-1.658.965-4.194.741-5.66-.5-1.466-1.241-1.31-3.033.347-3.998Z"/>
    <path fill="#80afcb" d="M23.632 13.943c1.311-.764 3.318-.587 4.478.395 1.16.982 1.037 2.4-.274 3.164-1.312.764-3.319.587-4.479-.395-1.16-.983-1.037-2.4.275-3.164Z"/>
    <path fill="#80afcb" d="M29.036 18.488c1.312-.764 3.319-.587 4.479.395 1.16.982 1.037 2.4-.275 3.164-1.311.764-3.318.587-4.478-.395-1.16-.982-1.037-2.4.274-3.164Z"/>
  </g>
  <g id="brown">
    <path fill="#9d662e" d="m48.297 36.816 1.5 1.259-20.668 11.932-1.499-1.258 20.667-11.933Z"/>
    <path fill="#29241e" d="M49.797 38.075v.848L29.129 50.855v-.848l20.668-11.932Z"/>
    <path fill="#754600" d="M29.129 50.007v.848l-1.499-1.258v-.848l1.499 1.258Z"/>
    <path fill="#9d662e" d="m48.682 35.583 1.5 1.258-20.667 11.932-1.5-1.258 20.667-11.932Z"/>
    <path fill="#29241e" d="M50.182 36.841v.848L29.515 49.622v-.849l20.667-11.932Z"/>
    <path fill="#754600" d="M29.515 48.773v.849l-1.5-1.259v-.848l1.5 1.258Z"/>
    <path fill="#9d662e" d="m48.682 34.575 1.5 1.258-20.667 11.932-1.5-1.258 20.667-11.932Z"/>
    <path fill="#29241e" d="M50.182 35.833v.848L29.515 48.613v-.848l20.667-11.932Z"/>
    <path fill="#754600" d="M29.515 47.765v.848l-1.5-1.258v-.848l1.5 1.258Z"/>
    <path fill="#9d662e" d="m48.09 34.851 1.5 1.258-20.667 11.932-1.5-1.258L48.09 34.851Z"/>
    <path fill="#29241e" d="M49.59 36.109v.848L28.923 48.89v-.849L49.59 36.109Z"/>
    <path fill="#754600" d="M28.923 48.041v.849l-1.5-1.259v-.848l1.5 1.258Z"/>
    <path fill="#877563" d="m48.09 33.842 1.5 1.259-20.667 11.932-1.5-1.258L48.09 33.842Z"/>
    <path fill="#29241e" d="M49.59 35.101v.848L28.923 47.881v-.848L49.59 35.101Z"/>
    <path fill="#8f7148" d="M28.923 47.033v.848l-1.5-1.258v-.848l1.5 1.258Z"/>
    <path fill="#9d662e" d="m49.807 38.501 1.5 1.258-20.668 11.933-1.499-1.259 20.667-11.932Z"/>
    <path fill="#29241e" d="M51.307 39.759v.849L30.639 52.54v-.848l20.668-11.933Z"/>
    <path fill="#754600" d="M30.639 51.692v.848l-1.499-1.258v-.849l1.499 1.259Z"/>
    <path fill="#9d662e" d="m50.193 37.267 1.499 1.259-20.667 11.932-1.5-1.258 20.668-11.933Z"/>
    <path fill="#29241e" d="M51.692 38.526v.848L31.025 51.306v-.848l20.667-11.932Z"/>
    <path fill="#754600" d="M31.025 50.458v.848l-1.5-1.258V49.2l1.5 1.258Z"/>
    <path fill="#9d662e" d="m50.193 36.259 1.499 1.258L31.025 49.45l-1.5-1.259 20.668-11.932Z"/>
    <path fill="#29241e" d="M51.692 37.517v.849L31.025 50.298v-.848l20.667-11.933Z"/>
    <path fill="#754600" d="M31.025 49.45v.848l-1.5-1.258v-.849l1.5 1.259Z"/>
    <path fill="#9d662e" d="m49.6 36.535 1.5 1.259-20.667 11.932-1.5-1.259L49.6 36.535Z"/>
    <path fill="#29241e" d="M51.1 37.794v.848L30.433 50.574v-.848L51.1 37.794Z"/>
    <path fill="#754600" d="M30.433 49.726v.848l-1.5-1.258v-.849l1.5 1.259Z"/>
    <path fill="#9d662e" d="m49.6 35.527 1.5 1.258-20.667 11.933-1.5-1.259L49.6 35.527Z"/>
    <path fill="#29241e" d="M51.1 36.785v.849L30.433 49.566v-.848L51.1 36.785Z"/>
    <path fill="#754600" d="M30.433 48.718v.848l-1.5-1.258v-.849l1.5 1.259Z"/>
    <path fill="#9d662e" d="m52.065 39.978 1.5 1.259-20.667 11.932-1.5-1.258 20.667-11.933Z"/>
    <path fill="#29241e" d="M53.565 41.237v.848L32.898 54.017v-.848l20.667-11.932Z"/>
    <path fill="#754600" d="M32.898 53.169v.848l-1.5-1.258v-.848l1.5 1.258Z"/>
    <path fill="#9d662e" d="m52.451 38.745 1.499 1.258-20.667 11.932-1.5-1.258 20.668-11.932Z"/>
    <path fill="#29241e" d="M53.95 40.003v.848L33.283 52.783v-.848L53.95 40.003Z"/>
    <path fill="#754600" d="M33.283 51.935v.848l-1.5-1.258v-.848l1.5 1.258Z"/>
    <path fill="#9d662e" d="m52.451 37.736 1.499 1.259-20.667 11.932-1.5-1.258 20.668-11.933Z"/>
    <path fill="#29241e" d="M53.95 38.995v.848L33.283 51.775v-.848L53.95 38.995Z"/>
    <path fill="#754600" d="M33.283 50.927v.848l-1.5-1.258v-.848l1.5 1.258Z"/>
    <path fill="#9d662e" d="m51.859 38.013 1.499 1.258-20.667 11.932-1.5-1.258 20.668-11.932Z"/>
    <path fill="#29241e" d="M53.358 39.271v.848L32.691 52.051v-.848l20.667-11.932Z"/>
    <path fill="#754600" d="M32.691 51.203v.848l-1.5-1.258v-.848l1.5 1.258Z"/>
    <path fill="#9d662e" d="m51.859 37.004 1.499 1.259-20.667 11.932-1.5-1.258 20.668-11.933Z"/>
    <path fill="#29241e" d="M53.358 38.263v.848L32.691 51.043v-.848l20.667-11.932Z"/>
    <path fill="#754600" d="M32.691 50.195v.848l-1.5-1.258v-.848l1.5 1.258Z"/>
    <path fill="#9d662e" d="m53.314 41.838 1.5 1.258-20.668 11.933-1.499-1.259 20.667-11.932Z"/>
    <path fill="#29241e" d="M54.814 43.096v.849L34.146 55.877v-.848l20.668-11.933Z"/>
    <path fill="#754600" d="M34.146 55.029v.848l-1.499-1.258v-.849l1.499 1.259Z"/>
    <path fill="#9d662e" d="m53.7 40.604 1.499 1.259-20.667 11.932-1.5-1.258L53.7 40.604Z"/>
    <path fill="#29241e" d="M55.199 41.863v.848L34.532 54.643v-.848l20.667-11.932Z"/>
    <path fill="#754600" d="M34.532 53.795v.848l-1.5-1.258v-.848l1.5 1.258Z"/>
    <path fill="#9d662e" d="m53.7 39.596 1.499 1.258-20.667 11.933-1.5-1.259L53.7 39.596Z"/>
    <path fill="#29241e" d="M55.199 40.854v.849L34.532 53.635v-.848l20.667-11.933Z"/>
    <path fill="#754600" d="M34.532 52.787v.848l-1.5-1.258v-.849l1.5 1.259Z"/>
    <path fill="#9d662e" d="m53.107 39.872 1.5 1.259L33.94 53.063l-1.5-1.259 20.667-11.932Z"/>
    <path fill="#29241e" d="M54.607 41.131v.848L33.94 53.911v-.848l20.667-11.932Z"/>
    <path fill="#754600" d="M33.94 53.063v.848l-1.5-1.258v-.849l1.5 1.259Z"/>
    <path fill="#877563" d="m53.107 38.864 1.5 1.258L33.94 52.055l-1.5-1.259 20.667-11.932Z"/>
    <path fill="#29241e" d="M54.607 40.122v.849L33.94 52.903v-.848l20.667-11.933Z"/>
    <path fill="#8f7148" d="M33.94 52.055v.848l-1.5-1.258v-.849l1.5 1.259Z"/>
    <path fill="#9d662e" d="m49.546 33.719 1.499 1.258-20.667 11.932-1.5-1.258 20.668-11.932Z"/>
    <path fill="#29241e" d="M51.045 34.977v.848L30.378 47.758v-.849l20.667-11.932Z"/>
    <path fill="#754600" d="M30.378 46.909v.849l-1.5-1.259v-.848l1.5 1.258Z"/>
    <path fill="#9d662e" d="m51.056 35.403 1.5 1.259-20.668 11.932-1.5-1.258 20.668-11.933Z"/>
    <path fill="#29241e" d="M52.556 36.662v.848L31.888 49.442v-.848l20.668-11.932Z"/>
    <path fill="#754600" d="M31.888 48.594v.848l-1.5-1.258v-.848l1.5 1.258Z"/>
    <path fill="#9d662e" d="m53.314 36.881 1.5 1.258-20.668 11.932-1.499-1.258 20.667-11.932Z"/>
    <path fill="#29241e" d="M54.814 38.139v.848L34.146 50.92v-.849l20.668-11.932Z"/>
    <path fill="#754600" d="M34.146 50.071v.849l-1.499-1.259v-.848l1.499 1.258Z"/>
    <path fill="#af905e" d="m50.779 33.47 1.499 1.259-20.667 11.932-1.5-1.258L50.779 33.47Z"/>
    <path fill="#29241e" d="M52.278 34.729v.848L31.611 47.509v-.848l20.667-11.932Z"/>
    <path fill="#754600" d="M31.611 46.661v.848l-1.5-1.258v-.848l1.5 1.258Z"/>
    <path fill="#c8ab8a" d="m51.728 35.493 1.5 1.258-20.667 11.932-1.5-1.258 20.667-11.932Z"/>
    <path fill="#877563" d="M53.228 36.751v.848L32.561 49.532v-.849l20.667-11.932Z"/>
    <path fill="#c19674" d="M32.561 48.683v.849l-1.5-1.259v-.848l1.5 1.258Z"/>
  </g>
</svg>
