<svg xmlns="http://www.w3.org/2000/svg" xml:space="preserve" fill-rule="evenodd" stroke-linejoin="round" stroke-miterlimit="2" clip-rule="evenodd" viewBox="0 0 64 64">
  <g id="green">
    <path fill="#00b41a" d="m1.827 33.94 28.934-16.684 31.046 26.051-28.919 16.696L1.827 33.94Z"/>
  </g>
  <g id="brown">
    <path fill="#49362f" d="m15.63 37.701.904.759-1.396.806v-1.281l.492-.284Z"/>
    <path fill="#ad643b" d="m14.877 37.07.753.631-.492.284-.752-.632.491-.283Z"/>
    <path fill="#ad643b" d="M15.138 37.985v1.281l-.752-.631v-1.282l.752.632Z"/>
    <path fill="#893d00" d="m31.097 45.095-3.943 2.276-13.851-11.622v-1.281L27.154 46.09l8.263-4.77v1.281L32.2 44.458v2.951l2.743-1.584v1.281l-6.197 3.578v-1.281l2.351-1.358v-2.95Z"/>
    <path fill="#ad643b" d="m27.994 48.772 3.103-1.792v1.065l-2.351 1.358v1.281l-.752-.631v-1.281Zm4.206-2.429 1.991-1.149.752.631-2.743 1.584v-1.066Z"/>
    <path fill="#9d662e" d="M31.097 45.095v2.95l-.752-.631v-1.885l.752-.434Z"/>
    <path fill="#be7a38" d="M21.565 29.697 35.417 41.32l-8.263 4.77-13.851-11.622 8.262-4.771Zm.647 1.899-6.349 3.666 10.644 8.932 6.35-3.666-10.645-8.932Z"/>
    <path fill="#dda68b" d="m22.212 31.596 10.645 8.932-6.35 3.666-10.644-8.932 6.349-3.666Z"/>
  </g>
  <g id="yellow">
    <path fill="#bda45c" d="m35.411 23.467 11.126 9.337-4.162 2.402v3.898l-1.228-.995-12.675-10.636 6.939-4.006Z"/>
    <path fill="#f3e195" d="M51.65 28.871v4.29L49.314 31.2l-1.809 1.045-.021-6.534-5.501-4.617-.961.555-.11-1.358-5.405-4.63-1.07.618v2.438l-1.336-1.121v-4.29L51.65 28.871Z"/>
    <path fill="#49362f" d="m47.484 32.257-5.109 2.949v1.639l-1.568.905v-1.74l5.607-3.237v-6.445l1.07-.617v6.546Z"/>
    <path fill="#a1891b" d="m35.507 15.661 5.472 4.591-1.07.618-5.472-4.591 1.07-.618Z"/>
    <path fill="#49362f" d="m40.979 28.368-6.753 3.898v-1.739l5.607-3.238.076-6.419 1.07-.618v8.116Z"/>
    <path fill="#a1891b" d="m41.983 21.094 5.501 4.617-1.07.617-5.502-4.616 1.071-.618Z"/>
    <path fill="#dbb841" d="M52.987 28.1v11.758l-8.301 4.793v-7.506l6.964-4.021-.026-4.238 1.363-.786Z"/>
    <path fill="#dbb841" d="M34.437 20.097v2.696l-5.607 3.206v1.74l-.358-.266V23.54l5.965-3.443Z"/>
    <path fill="#d8c388" d="m33.101 17.596 1.336 1.121v1.38l-5.965 3.443-2.31-1.938 6.939-4.006Z"/>
    <path fill="#f3e195" d="M34.437 12.535 52.987 28.1l-1.337.771-18.549-15.565 1.336-.771Z"/>
    <path fill="#bda45c" d="m39.909 20.87-.076 6.381-5.396-4.489v-6.483l5.472 4.591Z"/>
    <path fill="#bda45c" d="M46.414 26.328v6.445l-5.502-4.467v-6.594l5.502 4.616Z"/>
    <path fill="#8c6c05" d="M34.226 30.527v1.739l-5.396-4.527v-1.74l5.396 4.528Z"/>
    <path fill="#8c6c05" d="M40.807 36.01v1.74l-5.396-4.528v-1.74l5.396 4.528Z"/>
    <path fill="#b98e2b" d="m34.437 22.762 5.396 4.527-5.607 3.238-5.396-4.528 5.607-3.237Z"/>
    <path fill="#b98e2b" d="m41.018 28.245 5.396 4.528-5.607 3.237-5.396-4.528 5.607-3.237Z"/>
    <path fill="#d8c388" d="m49.314 31.2 2.31 1.939-6.938 4.006-2.311-1.939 6.939-4.006Z"/>
    <path fill="#f3e195" d="M44.686 37.145v7.506l-18.55-15.565V21.58l2.336 1.96v3.86l13.903 11.704v-3.898l2.311 1.939Z"/>
  </g>
</svg>
