<svg xmlns="http://www.w3.org/2000/svg" xml:space="preserve" fill-rule="evenodd" stroke-linejoin="round" stroke-miterlimit="2" clip-rule="evenodd" viewBox="0 0 64 64">
  <g id="blue">
    <path fill="#73a7c7" d="M17.541 39.977a7.71 7.71 0 0 1-1.558.159c-4.446 0-8.114-3.83-8.114-8.617 0-4.785 3.668-8.616 8.114-8.616a7.71 7.71 0 0 1 1.558.159v-6.97c0-.864.701-1.565 1.565-1.565h8.266a7.703 7.703 0 0 1-.159-1.558c0-4.446 3.83-8.114 8.617-8.114 4.785 0 8.616 3.668 8.616 8.114 0 .534-.055 1.056-.159 1.561l10.282.015a1.565 1.565 0 0 1 1.563 1.565v9.211a1.563 1.563 0 0 1-2.356 1.35 4.6 4.6 0 0 0-2.333-.638c-2.784 0-4.984 2.489-4.984 5.486 0 2.998 2.2 5.487 4.984 5.487a4.6 4.6 0 0 0 2.333-.638 1.563 1.563 0 0 1 2.356 1.35v10.19c0 .864-.701 1.565-1.565 1.565h-10.28c.104.504.159 1.025.159 1.558 0 4.446-3.831 8.115-8.616 8.115-4.786 0-8.617-3.669-8.617-8.115 0-.534.055-1.056.16-1.562l-8.27-.014a1.565 1.565 0 0 1-1.562-1.565v-7.913Zm.774-13.306a4.599 4.599 0 0 0-2.332-.638c-2.784 0-4.984 2.489-4.984 5.486 0 2.998 2.2 5.487 4.984 5.487.844 0 1.638-.232 2.332-.638a1.563 1.563 0 0 1 2.356 1.35v8.61l8.963.015a1.564 1.564 0 0 1 1.347 2.356 4.596 4.596 0 0 0-.638 2.332c0 2.784 2.489 4.985 5.487 4.985 2.997 0 5.486-2.201 5.486-4.985 0-.845-.232-1.638-.638-2.332a1.563 1.563 0 0 1 1.35-2.356h10.974v-6.366a7.72 7.72 0 0 1-1.559.159c-4.445 0-8.114-3.83-8.114-8.617 0-4.785 3.669-8.616 8.114-8.616a7.72 7.72 0 0 1 1.559.159v-5.389l-10.976-.016a1.565 1.565 0 0 1-1.348-2.356 4.596 4.596 0 0 0 .638-2.332c0-2.784-2.489-4.984-5.486-4.984-2.998 0-5.487 2.2-5.487 4.984 0 .844.232 1.639.638 2.332a1.563 1.563 0 0 1-1.35 2.356h-8.96v7.664a1.563 1.563 0 0 1-2.356 1.35Z"/>
  </g>
</svg>
