<svg xmlns="http://www.w3.org/2000/svg" xml:space="preserve" fill-rule="evenodd" stroke-linejoin="round" stroke-miterlimit="2" clip-rule="evenodd" viewBox="0 0 64 64">
  <g id="white">
    <path fill="#f4f4f4" fill-rule="nonzero" d="M24 16c-2.195 0-4 1.805-4 4v36c0 2.195 1.805 4 4 4h28c2.195 0 4-1.805 4-4V20c0-2.195-1.805-4-4-4H24Zm4 8h20v28H28V24Z"/>
  </g>
  <g id="grey">
    <path fill="#b5b5b5" fill-rule="nonzero" d="M12 4C9.789 4 8 5.789 8 8v34c0 2.195 1.805 4 4 4h4V12h24V8c0-2.195-1.805-4-4-4H12Z"/>
  </g>
  <g id="green">
    <path fill="#6aff4e" fill-rule="nonzero" d="M34.289 24.039c-.434 0-.867.191-1.148.578l-1.125 1.371-.004.004a2.089 2.089 0 0 0 .023 2.578l.004.004 5.656 6.574H13.773l-.019.004a1.74 1.74 0 0 0-1.539 1.883v1.93a1.742 1.742 0 0 0 1.539 1.883h23.945l-5.66 6.578-.004.008a2.098 2.098 0 0 0-.023 2.574l.004.004 1.125 1.371a1.435 1.435 0 0 0 2.3 0l9.914-12.11.004-.003a2.079 2.079 0 0 0 0-2.543l-.004-.008-9.914-12.102a1.413 1.413 0 0 0-1.152-.578Z"/>
  </g>
</svg>
