<?xml version="1.0" encoding="UTF-8" standalone="no"?>
<!DOCTYPE svg PUBLIC "-//W3C//DTD SVG 1.1//EN" "http://www.w3.org/Graphics/SVG/1.1/DTD/svg11.dtd">
<svg width="100%" height="100%" viewBox="0 0 64 64" version="1.1" xmlns="http://www.w3.org/2000/svg" xmlns:xlink="http://www.w3.org/1999/xlink" xml:space="preserve" xmlns:serif="http://www.serif.com/" style="fill-rule:evenodd;clip-rule:evenodd;stroke-linejoin:round;stroke-miterlimit:2;">
    <g id="surface1">
        <path d="M31.398,56.508C31.398,56.508 19.684,58.016 14.512,54.363C9.336,50.707 10.711,39.949 10.711,39.949L5.191,39.949L12.898,30L22.438,39.949L16.352,39.949C16.352,39.949 14.836,46.652 18.598,48.906C22.363,51.16 31.398,50.305 31.398,50.305L31.398,56.508Z" style="fill:#73a7c7;fill-rule:nonzero;stroke:#73a7c7;stroke-width:1px;"/>
        <path d="M31.172,8.309C31.172,8.309 42.887,6.801 48.063,10.453C53.234,14.109 51.863,24.867 51.863,24.867L57.383,24.867L49.672,34.816L40.133,24.867L46.223,24.867C46.223,24.867 47.738,18.164 43.973,15.91C40.211,13.656 31.176,14.512 31.176,14.512L31.172,8.309Z" style="fill:#73a7c7;fill-rule:nonzero;stroke:#73a7c7;stroke-width:1px;"/>
    </g>
    <g id="Layer1">
        <rect x="15.13" y="18.649" width="3.74" height="9.351" style="fill:#754600;"/>
        <path d="M16.081,9.364C16.215,9.032 16.585,8.807 16.998,8.807C17.415,8.807 17.785,9.032 17.919,9.364L23.843,24.104C23.876,24.192 23.894,24.282 23.894,24.371C23.894,24.824 23.456,25.195 22.925,25.195L11.075,25.195C10.544,25.195 10.106,24.824 10.106,24.371C10.106,24.282 10.122,24.192 10.157,24.106L16.081,9.364Z" style="fill:#274100;fill-rule:nonzero;"/>
        <path d="M16.113,9.242C16.242,8.982 16.6,8.807 16.998,8.807C17.402,8.807 17.76,8.982 17.887,9.242L23.613,20.726C23.646,20.791 23.664,20.863 23.664,20.934C23.664,21.285 23.241,21.575 22.726,21.575L11.276,21.575C10.759,21.575 10.337,21.285 10.337,20.934C10.337,20.863 10.354,20.793 10.387,20.726L16.113,9.242Z" style="fill:#274100;fill-rule:nonzero;"/>
        <path d="M16.208,9.094C16.323,8.922 16.642,8.807 17,8.807C17.358,8.807 17.676,8.922 17.792,9.094L22.897,16.686C22.929,16.73 22.943,16.776 22.943,16.823C22.943,17.055 22.565,17.246 22.107,17.246L11.893,17.246C11.435,17.246 11.057,17.055 11.057,16.823C11.057,16.776 11.071,16.73 11.101,16.686L16.208,9.094Z" style="fill:#274100;fill-rule:nonzero;"/>
        <path d="M16.538,6.21C16.605,6.086 16.792,6 17,6C17.208,6 17.396,6.086 17.462,6.21L20.441,11.773C20.459,11.806 20.466,11.841 20.466,11.873C20.466,12.045 20.247,12.184 19.979,12.184L14.021,12.184C13.753,12.184 13.534,12.045 13.534,11.873C13.534,11.841 13.541,11.806 13.559,11.773L16.538,6.21Z" style="fill:#274100;fill-rule:nonzero;"/>
    </g>
    <g id="Layer2">
        <rect x="45.811" y="44.225" width="2.379" height="11.289" style="fill:#754600;"/>
        <path d="M46.26,42.768C46.369,42.6 46.666,42.486 47.002,42.486C47.334,42.486 47.631,42.6 47.736,42.768L52.498,50.233C52.525,50.279 52.541,50.322 52.541,50.369C52.541,50.6 52.189,50.787 51.76,50.787L42.236,50.787C41.811,50.787 41.459,50.6 41.459,50.369C41.459,50.322 41.475,50.279 41.502,50.236L46.26,42.768Z" style="fill:#558e2f;fill-rule:nonzero;"/>
    </g>
</svg>
