<svg xmlns="http://www.w3.org/2000/svg" xml:space="preserve" fill-rule="evenodd" stroke-linejoin="round" stroke-miterlimit="2" clip-rule="evenodd" viewBox="0 0 64 64">
  <g id="blue">
    <path fill="#73a7c7" stroke="#73a7c7" stroke-width="1px" d="M31.398 56.508s-11.714 1.508-16.886-2.145c-5.176-3.656-3.801-14.414-3.801-14.414h-5.52L12.898 30l9.54 9.949h-6.086s-1.516 6.703 2.246 8.957c3.765 2.254 12.8 1.399 12.8 1.399v6.203Zm-.226-48.199s11.715-1.508 16.891 2.144c5.171 3.656 3.8 14.414 3.8 14.414h5.52l-7.711 9.949-9.539-9.949h6.09s1.515-6.703-2.25-8.957c-3.762-2.254-12.797-1.398-12.797-1.398l-.004-6.203Z"/>
  </g>
  <g id="brown">
    <path fill="#754600" d="M18.87 25.195V28h-3.74v-2.805h3.74Zm29.32 25.592v4.727h-2.379v-4.727h2.379Z"/>
  </g>
  <g id="green">
    <path fill="#274100" d="m22.825 21.571 1.018 2.533a.761.761 0 0 1 .051.267c0 .453-.438.824-.969.824h-11.85c-.531 0-.969-.371-.969-.824 0-.089.016-.179.051-.265l1.019-2.535c-.471-.034-.839-.309-.839-.637 0-.071.017-.141.05-.208l1.735-3.48h-.229c-.458 0-.836-.191-.836-.423a.24.24 0 0 1 .044-.137l3.028-4.502h-.108c-.268 0-.487-.139-.487-.311 0-.032.007-.067.025-.1l2.979-5.563c.067-.124.254-.21.462-.21.208 0 .396.086.462.21l2.979 5.563a.209.209 0 0 1 .025.1c0 .172-.219.311-.487.311h-.109l3.027 4.502c.032.044.046.09.046.137 0 .232-.378.423-.836.423h-.229l1.735 3.48a.463.463 0 0 1 .051.208c0 .328-.37.603-.839.637Z"/>
    <path fill="#558e2f" fill-rule="nonzero" d="M46.26 42.768c.109-.168.406-.282.742-.282.332 0 .629.114.734.282l4.762 7.465a.265.265 0 0 1 .043.136c0 .231-.352.418-.781.418h-9.524c-.425 0-.777-.187-.777-.418 0-.047.016-.09.043-.133l4.758-7.468Z"/>
  </g>
</svg>
