<svg xmlns="http://www.w3.org/2000/svg" xml:space="preserve" fill-rule="evenodd" stroke-linejoin="round" stroke-miterlimit="2" clip-rule="evenodd" viewBox="0 0 64 64">
  <g id="blue">
    <path fill="#73a7c7" stroke="#73a7c7" stroke-width="1px" d="M31.398 56.508s-11.714 1.508-16.886-2.145c-5.176-3.656-3.801-14.414-3.801-14.414h-5.52L12.898 30l9.54 9.949h-6.086s-1.516 6.703 2.246 8.957c3.765 2.254 12.8 1.399 12.8 1.399v6.203Zm-.226-48.199s11.715-1.508 16.891 2.144c5.171 3.656 3.8 14.414 3.8 14.414h5.52l-7.711 9.949-9.539-9.949h6.09s1.515-6.703-2.25-8.957c-3.762-2.254-12.797-1.398-12.797-1.398l-.004-6.203Z"/>
  </g>
  <g id="brown">
    <path fill="#893d00" d="M26 10v14a2 2 0 0 1-2 2H10a2 2 0 0 1-2-2V10a2 2 0 0 1 2-2h14a2 2 0 0 1 2 2Zm30 32v14a2 2 0 0 1-2 2H40a2 2 0 0 1-2-2V42a2 2 0 0 1 2-2h14a2 2 0 0 1 2 2Z"/>
  </g>
  <g id="orange">
    <path fill="#ffd49b" d="M28 10v14c0 2.208-1.792 4-4 4H10c-2.208 0-4-1.792-4-4V10c0-2.208 1.792-4 4-4h14c2.208 0 4 1.792 4 4Zm-2 0a2 2 0 0 0-2-2H10a2 2 0 0 0-2 2v14a2 2 0 0 0 2 2h14a2 2 0 0 0 2-2V10Zm32 32v14c0 2.208-1.792 4-4 4H40c-2.208 0-4-1.792-4-4V42c0-2.208 1.792-4 4-4h14c2.208 0 4 1.792 4 4Zm-2 0a2 2 0 0 0-2-2H40a2 2 0 0 0-2 2v14a2 2 0 0 0 2 2h14a2 2 0 0 0 2-2V42Z"/>
  </g>
</svg>
