<svg xmlns="http://www.w3.org/2000/svg" xml:space="preserve" fill-rule="evenodd" stroke-linejoin="round" stroke-miterlimit="2" clip-rule="evenodd" viewBox="0 0 64 64">
  <g id="blue">
    <path fill="#73a7c7" d="M51.961 36.258s-.481 8.445-3.762 14.472c-2.519 4.633-7.344 7.215-10.906 7.239-8.332.058-17.434-.344-20.258-2.184-5.594-3.656-4.105-14.414-4.105-14.414H6.957l8.34-9.949 10.312 9.949h-6.582s-1.64 6.703 2.43 8.957c1.922 1.063 9.035 1.32 16.02 1.297 7.812-.023 7.586-15.191 7.586-15.191l6.898-.176Zm-39.922-8.516s.481-8.445 3.762-14.472c2.519-4.633 7.344-7.215 10.906-7.239 8.332-.058 17.434.344 20.258 2.184 5.594 3.656 4.105 14.414 4.105 14.414h5.973l-8.34 9.949-10.312-9.949h6.582s1.64-6.703-2.43-8.957c-1.922-1.063-9.035-1.32-16.02-1.297-7.812.023-7.585 15.191-7.585 15.191l-6.899.176Z"/>
  </g>
</svg>
