<svg xmlns="http://www.w3.org/2000/svg" xml:space="preserve" fill-rule="evenodd" stroke-linejoin="round" stroke-miterlimit="2" clip-rule="evenodd" viewBox="0 0 64 64">
  <g id="blue" fill="#73a7c7">
    <path d="M0 17.364v-.377c1.589.062 3.075-.299 4.576-.888 1.257-.494 3.072-.775 4.452-.771 1.43.008 2.577.388 3.722.788 1.004.351 2.005.713 3.257.747 1.424.038 2.761-.33 4.093-.683 1.477-.393 2.951-.771 4.52-.7 1.539.068 3.002.524 4.477.927 1.324.359 2.659.677 4.075.497 1.383-.173 2.591-.608 3.808-.987 1.329-.417 2.662-.776 4.186-.765 1.307.012 2.596.416 3.88.853 1.153.397 2.297.822 3.456.926 1.571.141 3.13-.148 4.62-.656 1.539-.526 2.952-.999 4.607-.908 1.118.061 2.08.44 3.066.89.858.392 1.729.84 2.783 1.09h.002a.78.78 0 0 1 .208.086l-4.053-.005c-.662-.288-1.329-.525-2.088-.565-1.161-.061-2.187.211-3.241.559l-9.891-.01c-1.112-.384-2.227-.748-3.361-.76-1.358-.011-2.544.324-3.727.696l-.179.056-10.216-.011c-.812-.21-1.631-.38-2.477-.416-1.084-.048-2.119.154-3.143.41l-9.607-.01c-.852-.289-1.728-.542-2.783-.549-1.088-.003-2.481.189-3.552.542L0 17.364Zm0-2.345c1.601.06 3.096-.301 4.608-.893 1.268-.49 3.099-.771 4.491-.767 1.441.008 2.599.388 3.752.788 1.017.347 2.028.717 3.293.751 1.44.039 2.788-.333 4.136-.687 1.49-.393 2.975-.767 4.555-.699 1.553.067 3.028.527 4.515.927 1.34.362 2.688.676 4.119.501 1.395-.174 2.619-.609 3.848-.991 1.336-.414 2.685-.773 4.22-.761 1.319.011 2.62.415 3.914.852 1.161.397 2.318.822 3.493.926 1.583.141 3.157-.148 4.667-.656 1.551-.526 2.974-.998 4.645-.908 1.126.061 2.096.439 3.089.89.823.373 1.663.796 2.655 1.055v1.518a.814.814 0 0 1-.189-.019l-.002-.001c-1.161-.278-2.136-.759-3.084-1.187-.82-.37-1.618-.711-2.55-.76-1.467-.077-2.72.369-4.083.831-1.705.578-3.489.89-5.282.731-1.288-.115-2.566-.565-3.839-1-1.143-.387-2.284-.761-3.446-.772-1.371-.012-2.569.324-3.763.696-1.31.406-2.618.858-4.106 1.044-1.632.199-3.171-.127-4.694-.542-1.38-.37-2.749-.813-4.192-.874-1.427-.066-2.766.295-4.108.648-1.484.393-2.972.779-4.56.735-1.434-.037-2.591-.432-3.738-.831-1.011-.346-2.013-.697-3.271-.705-1.222-.004-2.829.236-3.94.667-1.692.656-3.367 1.05-5.153.993v-1.5Z"/>
    <path d="m36 32 6.117 17.816H21.664L27 32h9Z"/>
  </g>
  <g id="grey">
    <path fill="#929090" d="M22.606 46.672H11.438L20 32h.264l.204.136 6.475.054-4.337 14.482Zm13.46-14.481h7.474l.049-.032 8.11 14.513H41.038l-4.972-14.481Z"/>
    <path fill="#575757" d="m27.008 31.191-6.234-.053-12.157-8.091 18.391-.088v8.232Zm8.595-8.273 20.465-.098-12.826 8.371H36v-8.273h-.397Z"/>
    <path fill="#acabab" d="M64 18.838 43.54 32.191h-7.474L36 32v-.809h7.242l12.826-8.371-20.465.098h-8.595v.041l-18.391.088 12.157 8.091 6.234.053V32H27l-.057.19-6.475-.054L0 18.512v-1.148l64 .069v1.405Z"/>
  </g>
  <g id="black">
    <rect width="8.992" height="9.082" x="27.008" y="22.918"/>
  </g>
</svg>
