<svg xmlns="http://www.w3.org/2000/svg" xml:space="preserve" fill-rule="evenodd" stroke-linejoin="round" stroke-miterlimit="2" clip-rule="evenodd" viewBox="0 0 64 64">
  <g id="blue">
    <path fill="#4bc3f1" d="M45.268 9.703a.592.592 0 0 1 .832-.058.591.591 0 0 1 .054.828c-.685.79-1.37 1.581-2.078 2.355a52.38 52.38 0 0 1-1.448 1.538c-1.179 1.207-2.442 2.446-3.543 3.735-.755.873-1.434 1.774-1.957 2.705a8.212 8.212 0 0 0-.656 1.505c-.434 1.346-.54 2.622-1.025 3.995-.319.912-.788 1.825-1.379 2.726a18.146 18.146 0 0 1-1.86 2.367 14.907 14.907 0 0 1-2.315 2.061c-1.861 1.354-3.957 2.36-5.794 3.784-2.384 1.865-4.491 4.164-6.808 6.131-.834.707-1.67 1.401-2.594 1.963-.236.144-.483.268-.73.396l-.004.002c-.456.225-.914.419-1.364.604l-.001.001c-1.057.426-2.105.783-3.149 1.181a45.863 45.863 0 0 0-3.422 1.465 27.737 27.737 0 0 0-3.216 1.807.584.584 0 0 1-.65-.97 29.043 29.043 0 0 1 3.329-1.927 46.862 46.862 0 0 1 3.49-1.559c.881-.358 1.774-.666 2.654-1.047.55-.243 1.092-.519 1.63-.838.216-.128.43-.269.644-.4.866-.534 1.717-1.087 2.518-1.725 2.38-1.911 4.475-4.252 6.882-6.1 1.847-1.444 3.928-2.496 5.825-3.831.773-.541 1.518-1.125 2.194-1.824a16.429 16.429 0 0 0 1.754-2.191 11.29 11.29 0 0 0 1.253-2.469c.485-1.365.585-2.63 1.022-3.964a9.396 9.396 0 0 1 .75-1.719c.559-.995 1.283-1.958 2.087-2.897 1.121-1.305 2.402-2.563 3.597-3.785.486-.497.957-.999 1.416-1.505.702-.772 1.383-1.556 2.062-2.34Zm-5.934 42.362-.005.004a.54.54 0 0 1-.76-.095.538.538 0 0 1 .088-.759c.722-.581 1.359-1.249 1.967-1.949 1.502-1.733 2.769-3.68 4.213-5.241.658-.71 1.065-1.766 1.455-2.884.407-1.168.791-2.403 1.379-3.418.339-.586.742-1.109 1.24-1.518 1.925-1.583 2.791-2.041 3.526-2.878.474-.539.888-1.239 1.523-2.52.38-.768.369-1.45.168-2.1-.286-.923-.887-1.785-1.393-2.677-.54-.952-.972-1.938-.886-3.045.081-1.034.533-2.077 1.177-3.098.807-1.282 1.919-2.537 2.87-3.709 1.163-1.432 2.185-2.907 3.313-4.352a37.72 37.72 0 0 1 1.518-1.831l.004-.006a.517.517 0 0 1 .77.692l-.002.002a33.504 33.504 0 0 0-1.473 1.783c-1.122 1.454-2.146 2.936-3.304 4.379-.923 1.144-1.999 2.366-2.78 3.615-.539.865-.937 1.737-1.002 2.609-.072.966.342 1.813.83 2.637.525.886 1.137 1.745 1.426 2.668.284.906.3 1.86-.23 2.932-.693 1.407-1.158 2.171-1.68 2.765-.76.871-1.649 1.362-3.65 3.017-.395.324-.708.74-.978 1.209-.583 1.009-.965 2.236-1.376 3.395-.428 1.208-.889 2.343-1.603 3.115-1.439 1.55-2.68 3.508-4.191 5.214a15.825 15.825 0 0 1-2.154 2.044Zm12.697-41.893c1.754-1.039 3.496-.91 5.227.066-3.692 3.86-6.922 7.723-8.406 11.61-.555 2.668-.918 2.652-.493 5.91.274 2.078.539 4.023-2.828 5.672-2.308 1.367-4.23 2.738-5.625 4.121a194.698 194.698 0 0 1-3.933 6.207c-2.993 3.09-4.801 6.664-7.946 7.738-4.882 1.66-13.726.977-17.953-.238-1.679-1.375 4.852-4.883 12.824-7.258 2.864-.852 5.168-1.754 7.278-4.172 3.039-3.488 4.301-5.195 9.125-8.41 3.929-1.758 4.332-5.93 3.976-9.645-.093-3.449 3.879-8.027 8.754-11.601Z"/>
    <path fill="#4f8198" d="M47.994 10.008a.498.498 0 0 1 .705-.041.498.498 0 0 1 .041.705l-5.504 6.183a.209.209 0 0 1-.02.022c-1.808 1.802-2.224 2.897-2.516 3.931v.002c-.359 1.252-.606 3.335-1.216 6.046-.734 3.262-3.447 6.113-5.418 6.687a.5.5 0 0 1-.28-.96c1.739-.506 4.074-3.069 4.722-5.947.616-2.735.869-4.838 1.23-6.1.323-1.144.766-2.366 2.761-4.356l5.495-6.172Zm2.224 18.628a.5.5 0 1 1 .876-.482c.527.958.625 1.758.465 2.443-.159.682-.583 1.262-1.168 1.773l-3.531 3.317c-1.852 1.849-3.052 3.409-3.612 4.703-.007.015-.014.03-.023.045-2.228 3.979-4.911 7.202-7.718 10.215a.5.5 0 0 1-.732-.682c2.75-2.951 5.382-6.105 7.563-9.993.598-1.373 1.856-3.041 3.821-5.001l.011-.01 3.543-3.328.013-.013c.42-.366.745-.766.859-1.254.114-.488.009-1.051-.367-1.733Zm7.085-17.322a.5.5 0 0 1 .722.692c-3.067 3.203-5.362 6.308-6.925 9.322a.5.5 0 0 1-.888-.46c1.601-3.088 3.948-6.273 7.091-9.554Z"/>
  </g>
</svg>
