<svg xmlns="http://www.w3.org/2000/svg" xml:space="preserve" fill-rule="evenodd" stroke-linejoin="round" stroke-miterlimit="2" clip-rule="evenodd" viewBox="0 0 64 64">
  <g id="grey">
    <path fill="#b5b5b5" d="m59.747 33.708-.629 11.275-25.463 16.633.023-11.956 26.069-15.952Z"/>
    <path fill="#575757" d="m32.411 10.681-.628 11.275L6.319 38.589l.023-11.956 26.069-15.952Z"/>
    <path fill="#434343" fill-rule="nonzero" d="m4.036 24.108 2.307 2.074-.002 1.454 25.03 21.675v-1.495l2.307 1.844 26.069-15.952.074-1.468-55.752-9.993-.033 1.861Z"/>
    <path fill="#d4d4d4" fill-rule="nonzero" d="m4.596 22.097 34.087 22.391 13.869-8.215L27.136 8.231 4.596 22.097Z"/>
    <path fill="#929191" fill-rule="nonzero" d="m4.035 22.235 29.871 25.1 11.644-6.914-30.016-25.114-11.499 6.928Z"/>
    <path fill="#929191" fill-rule="nonzero" d="m17.338 14.258 29.847 25.194 9.618-5.533L27.136 8.231l-3.222 1.983-6.576 4.044Z"/>
    <path fill="#808080" fill-rule="nonzero" d="m45.856 40.922 11.313-6.694-11.313 6.694Z"/>
    <path fill="#716e6e" fill-rule="nonzero" d="m4.035 22.235 29.871 25.1 3.162-1.877L6.929 20.491l-2.894 1.744Z"/>
    <path fill="#716e6e" fill-rule="nonzero" d="m27.136 8.231 29.667 25.682 3.018-1.673L30.03 6.487l-2.894 1.744Z"/>
    <path fill="#b5b5b5" d="m33.678 49.66-.023 11.956-2.232-2.197-.052-11.603 2.307 1.844Z"/>
    <path fill="#b5b5b5" d="m6.344 26.056-.025 12.533-2.232-2.196-.051-12.285 2.308 1.948Z"/>
  </g>
</svg>
