<svg xmlns="http://www.w3.org/2000/svg" xml:space="preserve" fill-rule="evenodd" stroke-linejoin="round" stroke-miterlimit="2" clip-rule="evenodd" viewBox="0 0 64 64">
  <g id="grey" fill-rule="nonzero">
    <path fill="#434343" d="m3.697 33.109 29.61 25.369 25.144-15.536-.176-11.7-2.13.962-52.447-1.139-.001 2.044Z"/>
    <path fill="#d4d4d4" d="m4.225 30.915 34.087 22.391 13.869-8.215-25.416-28.042-22.54 13.866Z"/>
    <path fill="#929191" d="m3.664 31.053 29.871 25.1 11.644-6.914-30.016-25.114-11.499 6.928Z"/>
    <path fill="#929191" d="m16.961 23.2 29.853 25.07 9.618-5.533-29.667-25.688-3.222 1.983-6.582 4.168Z"/>
    <path fill="#808080" d="m45.485 49.74 11.313-6.694-11.313 6.694Z"/>
    <path fill="#716e6e" d="m3.664 31.053 29.871 25.1 3.162-1.877L6.558 29.309l-2.894 1.744Z"/>
    <path fill="#b0acac" d="m26.563 7.449 29.582 24.755 2.13-.962-30.072-24.44-1.64.647Z"/>
    <path fill="#d4d4d4" d="M56.432 42.737 26.765 17.049l-.202-9.6 29.582 24.755.287 10.533Z"/>
  </g>
</svg>
