<svg xmlns="http://www.w3.org/2000/svg" xml:space="preserve" fill-rule="evenodd" stroke-linejoin="round" stroke-miterlimit="2" clip-rule="evenodd" viewBox="0 0 64 64">
  <g id="blue">
    <path fill="#73a7c7" d="M32 6.896c13.798 0 25 11.202 25 25s-11.202 25-25 25-25-11.202-25-25 11.202-25 25-25Zm0 3.086c12.095 0 21.914 9.819 21.914 21.914S44.095 53.81 32 53.81s-21.914-9.819-21.914-21.914S19.905 9.982 32 9.982Z"/>
  </g>
  <g id="brown">
    <path fill="#893d00" d="M33.832 3.621v10.762c0 .523-.123.949-.275.949h-3.114c-.152 0-.275-.426-.275-.949V3.621c0-.527.123-.953.275-.953h3.114c.152 0 .275.426.275.953Zm0 46v10.762c0 .523-.123.949-.275.949h-3.114c-.152 0-.275-.426-.275-.949V49.621c0-.527.123-.953.275-.953h3.114c.152 0 .275.426.275.953Zm28.547-15.893H51.617c-.523 0-.949-.123-.949-.275v-3.114c0-.152.426-.275.949-.275h10.762c.527 0 .953.123.953.275v3.114c0 .152-.426.275-.953.275ZM1.621 30.064h10.762c.523 0 .949.123.949.275v3.114c0 .152-.426.275-.949.275H1.621c-.527 0-.953-.123-.953-.275v-3.114c0-.152.426-.275.953-.275Zm10.871-19.831 7.61 7.61c.37.37.584.758.477.865l-2.203 2.203c-.107.107-.495-.107-.865-.477l-7.61-7.61c-.373-.373-.587-.761-.48-.868l2.203-2.203c.107-.107.495.107.868.48Zm7.607 35.927-7.61 7.61c-.37.37-.758.584-.865.477l-2.203-2.203c-.107-.107.107-.495.477-.865l7.61-7.61c.373-.373.761-.587.868-.48l2.203 2.203c.107.107-.107.495-.48.868Zm26.393-2.591 7.61 7.61c.37.37.584.758.477.865l-2.203 2.203c-.107.107-.495-.107-.865-.477l-7.61-7.61c-.373-.373-.587-.761-.48-.868l2.203-2.203c.107-.107.495.107.868.48Zm7.607-30.745-7.61 7.61c-.37.37-.758.584-.865.477l-2.203-2.203c-.107-.107.107-.495.477-.865l7.61-7.61c.373-.373.761-.587.868-.48l2.203 2.203c.107.107-.107.495-.48.868Z"/>
  </g>
</svg>
