<svg xmlns="http://www.w3.org/2000/svg" xml:space="preserve" fill-rule="evenodd" stroke-linejoin="round" stroke-miterlimit="2" clip-rule="evenodd" viewBox="0 0 64 64">
  <g id="orange">
    <path fill="#ffd49b" d="M48.293 44.422v10.762a2.949 2.949 0 0 1-2.949 2.949H34.578a2.949 2.949 0 0 1-2.949-2.949V44.422a2.95 2.95 0 0 1 2.949-2.953h10.766a2.95 2.95 0 0 1 2.949 2.953Zm-2 0a.951.951 0 0 0-.949-.953H34.578a.951.951 0 0 0-.949.953v10.762a.95.95 0 0 0 .949.949h10.766a.95.95 0 0 0 .949-.949V44.422Zm9.656-25.492-7.496 7.582a2.995 2.995 0 0 1-2.125.89 2.984 2.984 0 0 1-2.129-.875l-7.547-7.535a2.998 2.998 0 0 1-.015-4.23l7.496-7.586a3.005 3.005 0 0 1 4.254-.016l7.547 7.535a3.005 3.005 0 0 1 .015 4.235Zm-1.426-1.407a.999.999 0 0 0-.003-1.41l-7.547-7.539a1 1 0 0 0-.707-.289.99.99 0 0 0-.711.297l-7.492 7.586a.999.999 0 0 0 .003 1.41l7.547 7.535a.979.979 0 0 0 .707.289c.27 0 .524-.105.711-.297l7.492-7.582Z"/>
  </g>
  <g id="brown">
    <path fill="#893d00" d="M46.293 44.422v10.762a.95.95 0 0 1-.949.949H34.578a.95.95 0 0 1-.949-.949V44.422c0-.527.426-.953.949-.953h10.766c.523 0 .949.426.949.953Zm8.23-26.899-7.492 7.582a.985.985 0 0 1-.711.297.979.979 0 0 1-.707-.289l-7.547-7.535a.999.999 0 0 1-.003-1.41l7.492-7.586a.99.99 0 0 1 .711-.297 1 1 0 0 1 .707.289c1.679 1.68 5.875 5.867 7.547 7.539a.999.999 0 0 1 .003 1.41Z"/>
  </g>
  <g id="blue">
    <path fill="#73a7c7" fill-rule="nonzero" d="M30.492 53.539s-8.445-.484-14.472-3.762c-4.633-2.519-7.215-7.343-7.239-10.906-.058-8.336.344-17.437 2.184-20.258 3.656-5.593 14.414-4.109 14.414-4.109V8.535l9.949 8.336-9.949 10.317v-6.586s-6.703-1.637-8.957 2.433c-1.063 1.918-1.32 9.035-1.297 16.016.023 7.816 15.191 7.59 15.191 7.59l.176 6.898Z"/>
  </g>
</svg>
