<?xml version="1.0" encoding="UTF-8" standalone="no"?>
<!DOCTYPE svg PUBLIC "-//W3C//DTD SVG 1.1//EN" "http://www.w3.org/Graphics/SVG/1.1/DTD/svg11.dtd">
<svg width="100%" height="100%" viewBox="0 0 64 64" version="1.1" xmlns="http://www.w3.org/2000/svg" xmlns:xlink="http://www.w3.org/1999/xlink" xml:space="preserve" xmlns:serif="http://www.serif.com/" style="fill-rule:evenodd;clip-rule:evenodd;stroke-linejoin:round;stroke-miterlimit:2;">
    <g id="Layer1">
        <path d="M32,6.896C45.798,6.896 57,18.098 57,31.896C57,45.694 45.798,56.896 32,56.896C18.202,56.896 7,45.694 7,31.896C7,18.098 18.202,6.896 32,6.896ZM32,9.982C44.095,9.982 53.914,19.801 53.914,31.896C53.914,43.991 44.095,53.81 32,53.81C19.905,53.81 10.086,43.991 10.086,31.896C10.086,19.801 19.905,9.982 32,9.982Z" style="fill:#73a7c7;"/>
        <path d="M33.832,3.621C33.832,3.094 33.709,2.668 33.557,2.668L30.443,2.668C30.291,2.668 30.168,3.094 30.168,3.621L30.168,14.383C30.168,14.906 30.291,15.332 30.443,15.332L33.557,15.332C33.709,15.332 33.832,14.906 33.832,14.383L33.832,3.621Z" style="fill:#893d00;"/>
        <path d="M33.832,49.621C33.832,49.094 33.709,48.668 33.557,48.668L30.443,48.668C30.291,48.668 30.168,49.094 30.168,49.621L30.168,60.383C30.168,60.906 30.291,61.332 30.443,61.332L33.557,61.332C33.709,61.332 33.832,60.906 33.832,60.383L33.832,49.621Z" style="fill:#893d00;"/>
        <path d="M62.379,33.728C62.906,33.728 63.332,33.605 63.332,33.453L63.332,30.339C63.332,30.187 62.906,30.064 62.379,30.064L51.617,30.064C51.094,30.064 50.668,30.187 50.668,30.339L50.668,33.453C50.668,33.605 51.094,33.728 51.617,33.728L62.379,33.728Z" style="fill:#893d00;"/>
        <path d="M1.621,30.064C1.094,30.064 0.668,30.187 0.668,30.339L0.668,33.453C0.668,33.605 1.094,33.728 1.621,33.728L12.383,33.728C12.906,33.728 13.332,33.605 13.332,33.453L13.332,30.339C13.332,30.187 12.906,30.064 12.383,30.064L1.621,30.064Z" style="fill:#893d00;"/>
        <path d="M12.492,10.233C12.119,9.86 11.731,9.646 11.624,9.753L9.421,11.956C9.314,12.063 9.528,12.451 9.901,12.824L17.511,20.434C17.881,20.804 18.269,21.018 18.376,20.911L20.579,18.708C20.686,18.601 20.472,18.213 20.102,17.843L12.492,10.233Z" style="fill:#893d00;"/>
        <path d="M20.099,46.16C20.472,45.787 20.686,45.399 20.579,45.292L18.376,43.089C18.269,42.982 17.881,43.196 17.508,43.569L9.898,51.179C9.528,51.549 9.314,51.937 9.421,52.044L11.624,54.247C11.731,54.354 12.119,54.14 12.489,53.77L20.099,46.16Z" style="fill:#893d00;"/>
        <path d="M46.492,43.569C46.119,43.196 45.731,42.982 45.624,43.089L43.421,45.292C43.314,45.399 43.528,45.787 43.901,46.16L51.511,53.77C51.881,54.14 52.269,54.354 52.376,54.247L54.579,52.044C54.686,51.937 54.472,51.549 54.102,51.179L46.492,43.569Z" style="fill:#893d00;"/>
        <path d="M54.099,12.824C54.472,12.451 54.686,12.063 54.579,11.956L52.376,9.753C52.269,9.646 51.881,9.86 51.508,10.233L43.898,17.843C43.528,18.213 43.314,18.601 43.421,18.708L45.624,20.911C45.731,21.018 46.119,20.804 46.489,20.434L54.099,12.824Z" style="fill:#893d00;"/>
    </g>
</svg>
