<svg xmlns="http://www.w3.org/2000/svg" xml:space="preserve" fill-rule="evenodd" stroke-linejoin="round" stroke-miterlimit="2" clip-rule="evenodd" viewBox="0 0 64 64">
  <g id="blue">
    <path fill="#73a7c7" fill-rule="nonzero" d="M33.508 53.539s8.445-.484 14.472-3.762c4.633-2.519 7.215-7.343 7.239-10.906.058-8.336-.344-17.437-2.184-20.258-3.656-5.593-14.414-4.109-14.414-4.109V8.535l-9.949 8.336 9.949 10.317v-6.586s6.703-1.637 8.957 2.433c1.063 1.918 1.32 9.035 1.297 16.016-.023 7.816-15.191 7.59-15.191 7.59l-.176 6.898Z"/>
  </g>
  <g id="brown">
    <path fill="#893d00" d="M30.371 44.477v10.652c0 .555-.449 1.004-1.008 1.004H18.711a1.003 1.003 0 0 1-1.004-1.004V44.477c0-.555.449-1.008 1.004-1.008h10.652c.559 0 1.008.453 1.008 1.008ZM9.477 17.523a1.007 1.007 0 0 1 .003-1.414c1.672-1.668 5.864-5.851 7.543-7.531a1.02 1.02 0 0 1 .711-.293c.27 0 .524.11.711.301 1.672 1.687 5.832 5.898 7.493 7.578a1.008 1.008 0 0 1-.004 1.414 13416.1 13416.1 0 0 1-7.543 7.531 1.002 1.002 0 0 1-1.422-.004c-1.668-1.691-5.832-5.902-7.492-7.582Z"/>
  </g>
  <g id="orange">
    <path fill="#ffd49b" d="M32.371 44.477v10.652a3.006 3.006 0 0 1-3.008 3.004H18.711a3.003 3.003 0 0 1-3.004-3.004V44.477a3.006 3.006 0 0 1 3.004-3.008h10.652a3.009 3.009 0 0 1 3.008 3.008Zm-2 0c0-.555-.449-1.008-1.008-1.008H18.711c-.555 0-1.004.453-1.004 1.008v10.652c0 .555.449 1.004 1.004 1.004h10.652c.559 0 1.008-.449 1.008-1.004V44.477ZM8.055 18.93a3.005 3.005 0 0 1 .011-4.235l7.547-7.531a2.986 2.986 0 0 1 2.129-.879 3.005 3.005 0 0 1 2.129.895l7.488 7.582a2.999 2.999 0 0 1-.015 4.234l-7.543 7.531a3.001 3.001 0 0 1-2.129.875 3.02 3.02 0 0 1-2.129-.89L8.055 18.93Zm1.422-1.407 7.492 7.582a1.002 1.002 0 0 0 1.422.004l7.543-7.531c.386-.387.39-1.019.004-1.414l-7.493-7.578a.993.993 0 0 0-.711-.301 1.02 1.02 0 0 0-.711.293L9.48 16.109a1.007 1.007 0 0 0-.003 1.414Z"/>
  </g>
</svg>
