<svg xmlns="http://www.w3.org/2000/svg" xml:space="preserve" fill-rule="evenodd" stroke-linejoin="round" stroke-miterlimit="2" clip-rule="evenodd" viewBox="0 0 64 64">
  <g id="brown">
    <path fill="#893d00" d="M38.066 43.957a.95.95 0 0 1 .95-.949h10.765a.952.952 0 0 1 .949.949v10.766a.95.95 0 0 1-.949.949H39.016a.948.948 0 0 1-.95-.949V43.957Z"/>
  </g>
  <g id="orange">
    <path fill="#ffd49b" d="M36.066 43.957a2.952 2.952 0 0 1 2.95-2.949l10.765.004a2.948 2.948 0 0 1 2.949 2.945v10.766a2.951 2.951 0 0 1-2.949 2.949H39.016a2.95 2.95 0 0 1-2.95-2.949V43.957Zm2 0v10.766c0 .523.422.949.95.949h10.765a.95.95 0 0 0 .949-.949V43.957a.952.952 0 0 0-.949-.949H39.016a.95.95 0 0 0-.95.949Z"/>
  </g>
  <g id="blue">
    <path fill="#73a7c7" fill-rule="nonzero" d="M34.988 53.328s-8.445-.48-14.472-3.762c-4.633-2.515-7.215-7.343-7.239-10.906-.058-8.332.344-17.433 2.184-20.258 3.656-5.593 14.414-4.105 14.414-4.105V8.324l9.949 8.34-9.949 10.316v-6.585s-6.703-1.637-8.957 2.429c-1.063 1.922-1.32 9.039-1.297 16.024.024 7.812 15.192 7.586 15.192 7.586l.175 6.894Z"/>
  </g>
</svg>
