<?xml version="1.0" encoding="UTF-8" standalone="no"?>
<!DOCTYPE svg PUBLIC "-//W3C//DTD SVG 1.1//EN" "http://www.w3.org/Graphics/SVG/1.1/DTD/svg11.dtd">
<svg width="100%" height="100%" viewBox="0 0 64 64" version="1.1" xmlns="http://www.w3.org/2000/svg" xmlns:xlink="http://www.w3.org/1999/xlink" xml:space="preserve" xmlns:serif="http://www.serif.com/" style="fill-rule:evenodd;clip-rule:evenodd;stroke-linejoin:round;stroke-miterlimit:2;">
    <g id="surface1">
        <path d="M30.492,53.539C30.492,53.539 22.047,53.055 16.02,49.777C11.387,47.258 8.805,42.434 8.781,38.871C8.723,30.535 9.125,21.434 10.965,18.613C14.621,13.02 25.379,14.504 25.379,14.504L25.379,8.535L35.328,16.871L25.379,27.188L25.379,20.602C25.379,20.602 18.676,18.965 16.422,23.035C15.359,24.953 15.102,32.07 15.125,39.051C15.148,46.867 30.316,46.641 30.316,46.641L30.492,53.539Z" style="fill:#73a7c7;fill-rule:nonzero;"/>
        <path d="M46.293,44.422C46.293,43.895 45.867,43.469 45.344,43.469L34.578,43.469C34.055,43.469 33.629,43.895 33.629,44.422L33.629,55.184C33.629,55.707 34.055,56.133 34.578,56.133L45.344,56.133C45.867,56.133 46.293,55.707 46.293,55.184L46.293,44.422Z" style="fill:#893d00;"/>
        <path d="M48.293,44.422L48.293,55.184C48.293,56.813 46.973,58.133 45.344,58.133L34.578,58.133C32.949,58.133 31.629,56.813 31.629,55.184L31.629,44.422C31.629,42.789 32.949,41.469 34.578,41.469L45.344,41.469C46.973,41.469 48.293,42.789 48.293,44.422ZM46.293,44.422C46.293,43.895 45.867,43.469 45.344,43.469L34.578,43.469C34.055,43.469 33.629,43.895 33.629,44.422L33.629,55.184C33.629,55.707 34.055,56.133 34.578,56.133L45.344,56.133C45.867,56.133 46.293,55.707 46.293,55.184L46.293,44.422Z" style="fill:#ffd49b;"/>
        <path d="M54.523,17.523C54.91,17.129 54.91,16.5 54.52,16.113C52.848,14.441 48.652,10.254 46.973,8.574C46.785,8.387 46.531,8.285 46.266,8.285C45.996,8.285 45.742,8.391 45.555,8.582C43.887,10.27 39.723,14.488 38.063,16.168C37.676,16.559 37.676,17.191 38.066,17.578C39.738,19.246 43.934,23.438 45.613,25.113C45.801,25.301 46.055,25.406 46.32,25.402C46.59,25.402 46.844,25.297 47.031,25.105C48.699,23.418 52.863,19.203 54.523,17.523Z" style="fill:#893d00;"/>
        <path d="M55.949,18.93L48.453,26.512C47.891,27.078 47.129,27.402 46.328,27.402C45.531,27.406 44.766,27.094 44.199,26.527L36.652,18.992C35.484,17.828 35.477,15.938 36.637,14.762L44.133,7.176C44.695,6.609 45.457,6.285 46.258,6.285C47.055,6.281 47.82,6.598 48.387,7.16L55.934,14.695C57.102,15.863 57.109,17.754 55.949,18.93ZM54.523,17.523C54.91,17.129 54.91,16.5 54.52,16.113L46.973,8.574C46.785,8.387 46.531,8.285 46.266,8.285C45.996,8.285 45.742,8.391 45.555,8.582L38.063,16.168C37.676,16.559 37.676,17.191 38.066,17.578L45.613,25.113C45.801,25.301 46.055,25.406 46.32,25.402C46.59,25.402 46.844,25.297 47.031,25.105L54.523,17.523Z" style="fill:#ffd49b;"/>
    </g>
</svg>
