<svg xmlns="http://www.w3.org/2000/svg" xml:space="preserve" fill-rule="evenodd" stroke-linejoin="round" stroke-miterlimit="2" clip-rule="evenodd" viewBox="0 0 64 64">
  <g id="blue">
    <path fill="#73a7c7" fill-rule="nonzero" d="M33.508 53.539s8.445-.484 14.472-3.762c4.633-2.519 7.215-7.343 7.239-10.906.058-8.336-.344-17.437-2.184-20.258-3.656-5.593-14.414-4.109-14.414-4.109V8.535l-9.949 8.336 9.949 10.317v-6.586s6.703-1.637 8.957 2.433c1.063 1.918 1.32 9.035 1.297 16.016-.023 7.816-15.191 7.59-15.191 7.59l-.176 6.898Z"/>
  </g>
  <g id="orange">
    <path fill="#ffd49b" d="M15.707 44.422a2.95 2.95 0 0 1 2.949-2.953h10.766a2.95 2.95 0 0 1 2.949 2.953v10.762a2.949 2.949 0 0 1-2.949 2.949H18.656a2.949 2.949 0 0 1-2.949-2.949V44.422Zm2 0v10.762a.95.95 0 0 0 .949.949h10.766a.95.95 0 0 0 .949-.949V44.422a.951.951 0 0 0-.949-.953H18.656a.951.951 0 0 0-.949.953Zm.255-21.843a21.966 21.966 0 0 1-.017-.79c0-1.128.175-2.099.506-2.923.252-.631.645-1.27 1.198-1.91l.004-.005c.368-.421 1.027-1.044 1.981-1.855.785-.665 1.31-1.184 1.545-1.579.177-.3.266-.627.266-.982 0-.702-.303-1.309-.87-1.84-.606-.567-1.35-.84-2.227-.84-.841 0-1.546.241-2.109.747-.6.541-.956 1.405-1.143 2.554a.999.999 0 0 1-1.101.833l-2.675-.308a.995.995 0 0 1-.878-1.117c.273-2.186 1.125-3.851 2.488-5.013 1.361-1.157 3.146-1.758 5.375-1.758 2.354 0 4.224.646 5.626 1.883 1.467 1.291 2.19 2.856 2.19 4.691a5.85 5.85 0 0 1-.785 2.967c-.474.823-1.385 1.834-2.761 3.005-.771.657-1.28 1.134-1.513 1.445l-.01.013a2.418 2.418 0 0 0-.409.84c-.11.394-.165 1.035-.178 1.921a1 1 0 0 1-1 .985h-2.504a1 1 0 0 1-.999-.964Zm-.161 4.995v-2.855a1 1 0 0 1 1-1h2.969a1 1 0 0 1 1 1v2.855a1 1 0 0 1-1 1h-2.969a1 1 0 0 1-1-1Z"/>
  </g>
  <g id="brown">
    <path fill="#893d00" d="M17.707 44.422c0-.527.426-.953.949-.953h10.766c.523 0 .949.426.949.953v10.762a.95.95 0 0 1-.949.949H18.656a.95.95 0 0 1-.949-.949V44.422Z"/>
  </g>
</svg>
