<svg xmlns="http://www.w3.org/2000/svg" xml:space="preserve" fill-rule="evenodd" stroke-linejoin="round" stroke-miterlimit="2" clip-rule="evenodd" viewBox="0 0 64 64">
  <g id="blue">
    <path fill="#73a7c7" d="M32 6.896c13.798 0 25 11.202 25 25s-11.202 25-25 25-25-11.202-25-25 11.202-25 25-25Zm0 3.086c12.095 0 21.914 9.819 21.914 21.914S44.095 53.81 32 53.81s-21.914-9.819-21.914-21.914S19.905 9.982 32 9.982Z"/>
  </g>
  <g id="brown">
    <path fill="#893d00" d="M33.832 3.621v10.762c0 .523-.123.949-.275.949h-3.114c-.152 0-.275-.426-.275-.949V3.621c0-.527.123-.953.275-.953h3.114c.152 0 .275.426.275.953Zm0 46v10.762c0 .523-.123.949-.275.949h-3.114c-.152 0-.275-.426-.275-.949V49.621c0-.527.123-.953.275-.953h3.114c.152 0 .275.426.275.953Zm25-23.104v10.762c0 .523-.123.949-.275.949h-3.114c-.152 0-.275-.426-.275-.949V26.517c0-.527.123-.953.275-.953h3.114c.152 0 .275.426.275.953Zm-50 0v10.762c0 .523-.123.949-.275.949H5.443c-.152 0-.275-.426-.275-.949V26.517c0-.527.123-.953.275-.953h3.114c.152 0 .275.426.275.953Zm8-16.564v10.762c0 .523-.123.949-.275.949h-3.114c-.152 0-.275-.426-.275-.949V9.953c0-.527.123-.953.275-.953h3.114c.152 0 .275.426.275.953Zm0 33.336v10.762c0 .523-.123.949-.275.949h-3.114c-.152 0-.275-.426-.275-.949V43.289c0-.527.123-.953.275-.953h3.114c.152 0 .275.426.275.953Zm34 0v10.762c0 .523-.123.949-.275.949h-3.114c-.152 0-.275-.426-.275-.949V43.289c0-.527.123-.953.275-.953h3.114c.152 0 .275.426.275.953Zm0-33.336v10.762c0 .523-.123.949-.275.949h-3.114c-.152 0-.275-.426-.275-.949V9.953c0-.527.123-.953.275-.953h3.114c.152 0 .275.426.275.953Z"/>
  </g>
</svg>
