<svg xmlns="http://www.w3.org/2000/svg" xml:space="preserve" fill-rule="evenodd" stroke-linejoin="round" stroke-miterlimit="2" clip-rule="evenodd" viewBox="0 0 64 64">
  <g id="blue">
    <path fill="#73a7c7" fill-rule="nonzero" d="M35.574 54.695s8.445-.484 14.472-3.762c4.633-2.519 7.215-7.343 7.239-10.906.058-8.336-.344-17.437-2.184-20.258-3.656-5.593-14.414-4.109-14.414-4.109V9.691l-9.949 8.336 9.949 10.317v-6.586s6.703-1.637 8.957 2.433c1.063 1.918 1.32 9.035 1.297 16.016-.023 7.816-15.191 7.59-15.191 7.59l-.176 6.898Z"/>
  </g>
  <g id="brown">
    <path fill="#893d00" d="M19.773 45.578c0-.527.426-.953.949-.953h10.766c.523 0 .949.426.949.953V56.34a.95.95 0 0 1-.949.949H20.722a.95.95 0 0 1-.949-.949V45.578Zm14.141-21.332c.927.928.941 2.43.029 3.377l-8.24 8.662a2.33 2.33 0 0 1-3.326.089l-5.533-5.419-3.437-3.169c-.82-.984.589-1.878.589-1.878l7.025 3.124c.762.096 1.53.006 2.247-.266a5.656 5.656 0 0 0 1.842-2.5l3.323-7.39 5.481 5.37ZM23.172 32.13a1.164 1.164 0 0 0 1.664-.046 1.206 1.206 0 0 0-.014-1.688 1.147 1.147 0 0 0-.842-.326 1.161 1.161 0 0 0-.825.372 1.206 1.206 0 0 0 .017 1.688Z"/>
  </g>
  <g id="orange">
    <path fill="#ffd49b" d="M27.977 10.287a2.669 2.669 0 0 1 1.312 3.535l-5.483 12.319a2.665 2.665 0 0 1-3.504 1.39L8.265 22.174a2.663 2.663 0 0 1-1.312-3.533l5.483-12.319A2.665 2.665 0 0 1 15.94 4.93l12.037 5.357Zm-12.372 1.872-.001.002a1.336 1.336 0 0 0 1.753-.697 1.348 1.348 0 1 0-1.752.695Zm3.934 10.606a1.332 1.332 0 0 0 1.747-.697 1.349 1.349 0 1 0-1.747.697Zm3.29-7.391-.001.002a1.333 1.333 0 0 0 1.748-.699c.223-.5.119-1.087-.259-1.484a1.357 1.357 0 0 0-1.472-.318 1.347 1.347 0 0 0-.016 2.499ZM12.316 19.55a1.329 1.329 0 0 0 1.751-.695 1.35 1.35 0 0 0-.258-1.483 1.35 1.35 0 0 0-2.321.922 1.35 1.35 0 0 0 .828 1.256Zm5.255-2.087a1.336 1.336 0 0 0 1.753-.697 1.349 1.349 0 1 0-1.753.697Zm.202 28.115a2.95 2.95 0 0 1 2.949-2.953h10.766a2.95 2.95 0 0 1 2.949 2.953V56.34a2.949 2.949 0 0 1-2.949 2.949H20.722a2.949 2.949 0 0 1-2.949-2.949V45.578Zm2 0V56.34a.95.95 0 0 0 .949.949h10.766a.95.95 0 0 0 .949-.949V45.578a.951.951 0 0 0-.949-.953H20.722a.951.951 0 0 0-.949.953Z"/>
  </g>
</svg>
