<svg xmlns="http://www.w3.org/2000/svg" xml:space="preserve" fill-rule="evenodd" stroke-linejoin="round" stroke-miterlimit="2" clip-rule="evenodd" viewBox="0 0 64 64">
  <g id="blue">
    <path fill="#73a7c7" fill-rule="nonzero" d="M40.441 54.504s-8.445-.484-14.472-3.766c-4.633-2.519-7.215-7.343-7.242-10.902-.055-8.336.343-17.438 2.187-20.262 3.652-5.594 14.41-4.105 14.41-4.105V9.496l9.953 8.34-9.953 10.312v-6.582s-6.699-1.636-8.953 2.43c-1.062 1.922-1.324 9.039-1.301 16.02.028 7.812 15.196 7.589 15.196 7.589l.175 6.899Z"/>
  </g>
  <g id="brown">
    <path fill="#893d00" d="M44.715 35.555a6.357 6.357 0 1 1-12.715 0 6.357 6.357 0 0 1 6.359-6.356 6.354 6.354 0 0 1 6.356 6.356Z"/>
  </g>
</svg>
