<svg xmlns="http://www.w3.org/2000/svg" xml:space="preserve" fill-rule="evenodd" stroke-linejoin="round" stroke-miterlimit="1" clip-rule="evenodd" viewBox="0 0 64 64">
  <g id="blue">
    <path fill="#4f8198" stroke="#4f8198" stroke-width="2.06px" d="m0 56.027 14.168-3.902 13.586 3.141 14.75-4.289 11.531 3.75L64 50.824V64H0v-7.973Z"/>
    <path fill="#73a7c7" stroke="#73a7c7" stroke-linecap="square" stroke-width="2.06px" d="m0 44.781 15.867-2.601 12.422 3.136 14.57-4.132 10.727 4.207L64 41.414v9.41c-3.195 2.703-6.531 3.852-9.965 3.903-4.949-.2-8.73-1.508-11.531-3.75-4.684 2.429-9.59 3.898-14.75 4.289-5.441-.071-10.051-1.032-13.586-3.141C8.625 55.332 3.875 56.699 0 56.027V44.781Z"/>
    <path fill="#4bc3f1" stroke="#4bc3f1" stroke-linecap="square" stroke-width="2px" d="M0 36.605c3.25 1.434 8.621.719 17.117-3.152 5.946 3.012 10.028 3.813 12.871 3.152 4.602-.457 9.883-2.496 13.766-4.375 4.184 2.657 7.734 3.59 10.726 2.985 3.305-.246 6.704-1.75 9.52-3.215v9.414c-2.254 2.582-5.777 3.84-10.414 3.977-4.145-.524-7.77-1.848-10.727-4.207-4.472 2.254-9.379 3.511-14.57 4.132-5.187.844-9.383-.105-12.422-3.136C8.465 45.195 3.59 45.641 0 44.781v-8.176Z"/>
  </g>
</svg>
