<svg xmlns="http://www.w3.org/2000/svg" xml:space="preserve" fill-rule="evenodd" stroke-linejoin="round" stroke-miterlimit="2" clip-rule="evenodd" viewBox="0 0 64 64">
  <g id="orange">
    <path fill="#ffc60e" fill-rule="nonzero" d="M31.242 2.258a.798.798 0 0 1 1.516 0c1.777 5.285 6.129 18.234 7.066 21.012a.79.79 0 0 0 .735.543c2.871.078 16.019.429 21.265.57a.8.8 0 0 1 .485 1.422 25148.539 25148.539 0 0 0-16.954 13.664.79.79 0 0 0-.265.84c.781 2.773 4.555 16.132 6.062 21.476a.798.798 0 0 1-.312.875.798.798 0 0 1-.926-.008L32.469 50.027a.812.812 0 0 0-.938 0L14.086 62.652a.798.798 0 0 1-.926.008.798.798 0 0 1-.312-.875c1.507-5.344 5.281-18.703 6.062-21.476a.79.79 0 0 0-.265-.84L1.695 25.813a.804.804 0 0 1-.257-.879.795.795 0 0 1 .738-.543c5.25-.145 18.394-.493 21.265-.571a.794.794 0 0 0 .735-.543c.937-2.777 5.289-15.734 7.066-21.019Z"/>
  </g>
</svg>
