<svg xmlns="http://www.w3.org/2000/svg" xml:space="preserve" fill-rule="evenodd" stroke-linejoin="round" stroke-miterlimit="2" clip-rule="evenodd" viewBox="0 0 64 64">
  <g id="orange">
    <path fill="#ffc60e" fill-rule="nonzero" d="M31.357 6.614a.676.676 0 0 1 1.283 0c1.504 4.473 5.187 15.43 5.98 17.781a.67.67 0 0 0 .622.46l17.995.482a.676.676 0 0 1 .41 1.203c-4.784 3.853-9.566 7.707-14.347 11.563a.67.67 0 0 0-.224.711c.661 2.347 3.854 13.652 5.13 18.174a.676.676 0 0 1-1.048.734L32.396 47.038a.688.688 0 0 0-.794 0L16.839 57.722a.676.676 0 0 1-1.047-.734c1.275-4.522 4.469-15.827 5.129-18.174a.668.668 0 0 0-.224-.711L6.354 26.547a.675.675 0 0 1 .407-1.203c4.442-.123 15.565-.417 17.995-.483a.674.674 0 0 0 .622-.46c.793-2.35 4.475-13.314 5.979-17.787Z"/>
  </g>
</svg>
