<svg xmlns="http://www.w3.org/2000/svg" xml:space="preserve" fill-rule="evenodd" stroke-linejoin="round" stroke-miterlimit="2" clip-rule="evenodd" viewBox="0 0 64 64">
  <g id="orange">
    <path fill="#ffc60e" fill-rule="nonzero" d="M32 15.066s-3.504 10.422-4.34 12.914a.8.8 0 0 1-.738.543c-1.902.051-8.207.219-11.578.313a.805.805 0 0 0-.739.543.806.806 0 0 0 .258.879c2.688 2.168 7.782 6.273 9.262 7.465.25.199.355.531.27.84-.508 1.792-2.235 7.906-3.176 11.242a.8.8 0 0 0 1.238.863c2.703-1.953 7.555-5.465 9.074-6.563a.798.798 0 0 1 .938 0c1.519 1.098 6.371 4.61 9.074 6.563a.8.8 0 0 0 1.238-.863c-.941-3.336-2.668-9.45-3.176-11.242a.802.802 0 0 1 .27-.84c1.48-1.192 6.574-5.297 9.262-7.465a.806.806 0 0 0 .258-.879.805.805 0 0 0-.739-.543c-3.371-.094-9.676-.262-11.578-.313a.8.8 0 0 1-.738-.543C35.504 25.488 32 15.066 32 15.066m-.758-12.808a.798.798 0 0 1 1.516 0c1.777 5.285 6.129 18.238 7.066 21.012.106.32.399.535.735.546 2.871.079 16.019.43 21.269.571a.802.802 0 0 1 .481 1.422c-4.168 3.359-14.735 11.875-16.954 13.66a.793.793 0 0 0-.265.84c.781 2.773 4.555 16.132 6.062 21.476a.798.798 0 0 1-.312.875.798.798 0 0 1-.926-.008L32.469 50.027a.798.798 0 0 0-.938 0L14.086 62.652a.798.798 0 0 1-.926.008.798.798 0 0 1-.312-.875c1.507-5.344 5.281-18.703 6.062-21.476a.793.793 0 0 0-.265-.84c-2.219-1.785-12.786-10.301-16.954-13.66a.8.8 0 0 1 .481-1.422c5.25-.141 18.398-.492 21.269-.571a.798.798 0 0 0 .735-.546c.937-2.774 5.289-15.727 7.066-21.012Z"/>
  </g>
</svg>
