<svg xmlns="http://www.w3.org/2000/svg" xml:space="preserve" fill-rule="evenodd" stroke-linejoin="round" stroke-miterlimit="2" clip-rule="evenodd" viewBox="0 0 64 64">
  <g id="green">
    <circle cx="20.234" cy="41.667" r="4.833" fill="#8ef411"/>
  </g>
  <g id="blue">
    <circle cx="31.834" cy="28.134" r="4.833" fill="#5591e7"/>
  </g>
  <g id="red">
    <circle cx="51.167" cy="22.333" r="4.833" fill="#ff2721"/>
  </g>
  <g id="white">
    <path fill="#f4f4f4" d="m21.3 36.951 6.126-6.833a4.859 4.859 0 0 0 2.408 2.416l-5.716 6.257a4.846 4.846 0 0 0-2.818-1.84Zm15.362-8.594 5.088 4.134 5.4-7.47a4.84 4.84 0 0 0 2.829 1.998L41.75 37.688l-6.987-5.711a4.84 4.84 0 0 0 1.899-3.62Z"/>
  </g>
  <g id="grey">
    <path fill="#525252" d="M8 54.097V9.903a1.912 1.912 0 0 1 1.903-1.842c1.021 0 1.87.821 1.903 1.842v42.291h42.291a1.912 1.912 0 0 1 1.842 1.903c0 1.021-.821 1.87-1.842 1.903H9.903A1.913 1.913 0 0 1 8 54.097Z"/>
  </g>
</svg>
