<svg xmlns="http://www.w3.org/2000/svg" xml:space="preserve" fill-rule="evenodd" stroke-linejoin="round" stroke-miterlimit="2" clip-rule="evenodd" viewBox="0 0 32 32">
  <g id="yellow">
    <path fill="#fbd508" d="M16 9.315A6.688 6.688 0 0 1 22.685 16 6.688 6.688 0 0 1 16 22.685 6.688 6.688 0 0 1 9.315 16 6.688 6.688 0 0 1 16 9.315Zm1.486-6.37v3.942c0 .552-.449 1-1 1h-.972c-.551 0-1-.448-1-1V2.945c0-.552.449-1 1-1h.972c.551 0 1 .448 1 1Zm9.482 4.238-3.256 3.369a.95.95 0 0 1-1.343.023l-.664-.641a.95.95 0 0 1-.022-1.344l3.256-3.368a.95.95 0 0 1 1.343-.023l.663.641a.95.95 0 0 1 .023 1.343ZM6.63 17.486H2.687c-.551 0-1-.449-1-1v-.972c0-.551.449-1 1-1H6.63c.551 0 1 .449 1 1v.972c0 .551-.449 1-1 1Zm1.703-6.911L4.964 7.319a.95.95 0 0 1-.022-1.344l.641-.663a.95.95 0 0 1 1.343-.023l3.369 3.257a.95.95 0 0 1 .022 1.343l-.641.663a.95.95 0 0 1-1.343.023Zm9.153 14.824v3.942c0 .552-.449 1-1 1h-.972c-.551 0-1-.448-1-1v-3.942c0-.552.449-1 1-1h.972c.551 0 1 .448 1 1Zm-7.169-1.687-3.256 3.369a.95.95 0 0 1-1.343.022l-.663-.641a.95.95 0 0 1-.023-1.343l3.256-3.369a.95.95 0 0 1 1.343-.023l.664.642a.95.95 0 0 1 .022 1.343Zm18.709-6.226h-3.942c-.551 0-1-.449-1-1v-.972c0-.551.449-1 1-1h3.942c.552 0 1 .449 1 1v.972c0 .551-.448 1-1 1Zm-3.952 9.572-3.369-3.256a.95.95 0 0 1-.022-1.343l.641-.664a.95.95 0 0 1 1.343-.022l3.369 3.256a.95.95 0 0 1 .022 1.343l-.641.663a.95.95 0 0 1-1.343.023Z"/>
  </g>
</svg>
