<svg xmlns="http://www.w3.org/2000/svg" xml:space="preserve" fill-rule="evenodd" stroke-linejoin="round" stroke-miterlimit="2" clip-rule="evenodd" viewBox="0 0 32 32">
  <g id="orange">
    <path fill="#ffc60e" d="M16 9.315A6.688 6.688 0 0 1 22.685 16 6.688 6.688 0 0 1 16 22.685 6.688 6.688 0 0 1 9.315 16 6.688 6.688 0 0 1 16 9.315Zm1.486-3.882v1.454c0 .552-.449 1-1 1h-.972c-.551 0-1-.448-1-1V5.433c0-.552.449-1 1-1h.972c.551 0 1 .448 1 1Zm7.328 3.979-1.102 1.14a.95.95 0 0 1-1.343.023l-.664-.641a.95.95 0 0 1-.022-1.344l1.102-1.14a.95.95 0 0 1 1.343-.023l.663.641a.95.95 0 0 1 .023 1.344ZM6.63 17.486H5.119c-.552 0-1-.449-1-1v-.972c0-.551.448-1 1-1H6.63c.551 0 1 .449 1 1v.972c0 .551-.449 1-1 1Zm1.703-6.911L7.207 9.486a.95.95 0 0 1-.023-1.343l.641-.664a.95.95 0 0 1 1.343-.022l1.127 1.089a.95.95 0 0 1 .022 1.343l-.641.663a.95.95 0 0 1-1.343.023Zm9.153 14.824v1.511c0 .552-.449 1-1 1h-.972c-.551 0-1-.448-1-1v-1.511c0-.552.449-1 1-1h.972c.551 0 1 .448 1 1Zm-7.169-1.687-1.131 1.171a.952.952 0 0 1-1.344.023l-.663-.642a.95.95 0 0 1-.023-1.343l1.132-1.171a.95.95 0 0 1 1.343-.023l.664.642a.95.95 0 0 1 .022 1.343Zm16.278-6.226h-1.511c-.551 0-1-.449-1-1v-.972c0-.551.449-1 1-1h1.511c.552 0 1 .449 1 1v.972c0 .551-.448 1-1 1Zm-3.704 7.462-1.186-1.146a.95.95 0 0 1-.022-1.343l.641-.664a.95.95 0 0 1 1.343-.022l1.186 1.146a.95.95 0 0 1 .022 1.343l-.641.663a.95.95 0 0 1-1.343.023Z"/>
  </g>
</svg>
