<svg xmlns="http://www.w3.org/2000/svg" xml:space="preserve" fill-rule="evenodd" stroke-linecap="round" stroke-linejoin="round" stroke-miterlimit="1.5" clip-rule="evenodd" viewBox="0 0 64 64">
  <g id="grey">
    <path fill="#acabab" d="M55.05 32c0 4.739-3.848 8.587-8.588 8.587H17.538c-4.74 0-8.588-3.848-8.588-8.587s3.848-8.587 8.588-8.587h28.924c4.74 0 8.588 3.848 8.588 8.587ZM32 26.191A5.812 5.812 0 0 0 26.191 32 5.812 5.812 0 0 0 32 37.809 5.812 5.812 0 0 0 37.809 32 5.812 5.812 0 0 0 32 26.191Z"/>
    <circle cx="32" cy="32" r="5.809" fill="#575757" stroke="#575757" stroke-width="2.77px"/>
  </g>
  <g id="white">
    <path fill="none" stroke="#ebebeb" stroke-width="2.79px" d="M55.05 32c0 4.739-3.848 8.587-8.588 8.587H17.538c-4.74 0-8.588-3.848-8.588-8.587s3.848-8.587 8.588-8.587h28.924c4.74 0 8.588 3.848 8.588 8.587Z"/>
  </g>
</svg>
