<svg xmlns="http://www.w3.org/2000/svg" xml:space="preserve" fill-rule="evenodd" stroke-linejoin="round" stroke-miterlimit="2" clip-rule="evenodd" viewBox="0 0 64 64">
  <g id="grey">
    <path fill="#acabab" fill-rule="nonzero" d="M52.375 21.524a.752.752 0 0 0-1.264-.349l-4.671 4.711-4.264-.717-.71-4.3 4.671-4.711a.766.766 0 0 0-.355-1.278 8.998 8.998 0 0 0-8.579 2.4c-2.49 2.512-2.537 6.989-1.5 10.163L18.635 43.232a4.098 4.098 0 0 0 0 5.734 3.997 3.997 0 0 0 5.685 0l15.7-17.584c3.148 1.059 7.469 1.333 9.975-1.2a9.181 9.181 0 0 0 2.38-8.658Z"/>
    <path fill="#b5b5b5" d="m16.729 31.981-5.374-5.547 14.059-12.586 7.865 4.246-7.361 6.511-4.318 3.936-4.871 3.44Z"/>
  </g>
  <g id="brown">
    <path fill="#893d00" d="m25.918 24.605 21.128 18.589a4.098 4.098 0 0 1 0 5.734 4 4 0 0 1-5.685 0L21.6 28.541l4.318-3.936Z"/>
  </g>
</svg>
