<?xml version="1.0" encoding="UTF-8" standalone="no"?>
<!DOCTYPE svg PUBLIC "-//W3C//DTD SVG 1.1//EN" "http://www.w3.org/Graphics/SVG/1.1/DTD/svg11.dtd">
<svg width="100%" height="100%" viewBox="0 0 64 64" version="1.1" xmlns="http://www.w3.org/2000/svg" xmlns:xlink="http://www.w3.org/1999/xlink" xml:space="preserve" xmlns:serif="http://www.serif.com/" style="fill-rule:evenodd;clip-rule:evenodd;stroke-linejoin:round;stroke-miterlimit:2;">
    <g id="a">
        <path d="M52.375,21.524C52.293,21.189 51.991,20.952 51.646,20.952C51.445,20.952 51.252,21.032 51.111,21.175L46.44,25.886L42.176,25.169L41.466,20.869L46.137,16.158C46.279,16.015 46.358,15.822 46.358,15.621C46.358,15.272 46.12,14.966 45.782,14.88C42.703,14.108 39.435,15.022 37.203,17.28C34.713,19.792 34.666,24.269 35.703,27.443L18.635,43.232C17.075,44.811 17.075,47.387 18.635,48.966C19.385,49.725 20.41,50.152 21.477,50.152C22.544,50.152 23.569,49.725 24.32,48.966L40.02,31.382C43.168,32.441 47.489,32.715 49.995,30.182C52.241,27.911 53.144,24.624 52.375,21.524Z" style="fill:#acabab;fill-rule:nonzero;"/>
        <path d="M11.355,26.434L25.414,13.848L33.279,18.094L25.918,24.605L47.046,43.194C48.606,44.773 48.606,47.349 47.046,48.928C46.295,49.687 45.271,50.114 44.204,50.114C43.136,50.114 42.112,49.687 41.361,48.928L21.6,28.541L16.729,31.981L11.355,26.434Z" style="fill:#893d00;fill-rule:nonzero;"/>
        <path d="M16.729,31.981L11.355,26.434L25.414,13.848L33.279,18.094L25.918,24.605L21.6,28.541L16.729,31.981Z" style="fill:#b5b5b5;"/>
    </g>
    <g id="Layer1">
    </g>
</svg>
