<?xml version="1.0" encoding="UTF-8" standalone="no"?><!DOCTYPE svg PUBLIC "-//W3C//DTD SVG 1.1//EN" "http://www.w3.org/Graphics/SVG/1.1/DTD/svg11.dtd"><svg width="100%" height="100%" viewBox="0 0 64 64" version="1.1" xmlns="http://www.w3.org/2000/svg" xmlns:xlink="http://www.w3.org/1999/xlink" xml:space="preserve" xmlns:serif="http://www.serif.com/" style="fill-rule:evenodd;clip-rule:evenodd;stroke-linejoin:round;stroke-miterlimit:2;"><g id="white"><path d="M28.58,24.341L28.247,24.674L27.75,24.674L27.561,24.142L27.623,21.886C27.656,20.645 27.698,19.423 27.716,19.171C27.734,18.919 27.778,18.187 27.814,17.545C27.85,16.903 27.9,16.293 27.925,16.19L27.97,16.002L28.77,16.003C29.21,16.004 29.662,16.026 29.774,16.051L29.977,16.098L29.941,16.571C29.922,16.832 29.845,17.42 29.771,17.878C29.696,18.337 29.631,18.787 29.625,18.879C29.599,19.312 29.534,19.764 29.439,20.177C29.382,20.426 29.308,20.855 29.273,21.13C29.195,21.766 28.873,23.089 28.873,23.089L28.743,23.552C28.672,23.807 28.58,24.341 28.58,24.341Z" style="fill:#e6e6e6;"/><path d="M26.653,62.882L24.797,62.066L23.879,61.472C22.708,60.713 8.053,50.37 7.034,49.583L6.268,48.991L5.909,48.313L5.905,47.521L6.109,47.346C6.221,47.25 6.539,47.083 6.814,46.975L7.314,46.78L12.465,45.523C15.298,44.832 18.006,44.173 18.483,44.059C18.96,43.945 19.369,43.835 19.392,43.815C19.415,43.796 19.581,43.111 19.76,42.294C19.94,41.477 20.152,40.603 20.233,40.35C20.313,40.098 20.514,39.273 20.678,38.516C20.842,37.759 21.017,36.971 21.067,36.765C21.117,36.558 21.292,35.77 21.455,35.014C21.618,34.257 21.793,33.469 21.842,33.263C21.892,33.056 21.959,32.681 21.993,32.429C22.051,31.991 22.21,31.225 22.627,29.385C22.863,28.343 22.929,28.047 23.299,26.342C23.464,25.585 23.659,24.778 23.734,24.549C23.809,24.32 24.008,23.513 24.176,22.756C24.345,22 24.564,21.024 24.664,20.588C24.764,20.153 24.983,19.177 25.15,18.42C25.318,17.664 25.517,16.774 25.593,16.444C25.669,16.113 25.731,15.726 25.731,15.584C25.731,15.442 25.774,15.168 25.825,14.976C25.877,14.784 26.055,14.007 26.221,13.251C26.387,12.494 26.605,11.518 26.706,11.083C26.806,10.647 27.023,9.671 27.187,8.915C27.352,8.158 27.527,7.37 27.577,7.164C27.627,6.957 27.804,6.169 27.971,5.413C28.425,3.357 28.729,2.071 28.84,1.735L28.94,1.435L29.348,1.118L33.232,1.118L33.675,1.561L33.827,2.132C33.911,2.446 34.074,3.134 34.189,3.661C34.304,4.189 34.478,4.977 34.575,5.413C34.673,5.848 34.848,6.636 34.964,7.164C35.081,7.691 35.255,8.479 35.353,8.915C35.609,10.059 35.907,11.406 36.136,12.458C36.246,12.963 36.42,13.732 36.522,14.168C36.624,14.604 36.749,15.241 36.8,15.585C36.903,16.282 38.61,23.989 38.749,24.382C38.832,24.619 39.036,25.515 39.729,28.677C39.894,29.433 40.111,30.409 40.21,30.845C40.309,31.28 40.419,31.824 40.455,32.054C40.558,32.72 42.04,39.471 42.295,40.434C42.423,40.915 42.623,41.76 42.741,42.31C42.859,42.86 42.985,43.421 43.022,43.556L43.089,43.801L49.159,46.076C52.497,47.327 55.717,48.558 56.315,48.812L57.401,49.273L58.095,49.834L58.094,50.732L57.719,51.26L57.288,51.477C57.051,51.596 56.206,51.951 55.411,52.266C54.615,52.581 52.456,53.439 50.612,54.173C32.837,61.246 30.011,62.358 29.241,62.587L28.501,62.806L26.653,62.882ZM26.775,62.784C27.288,62.869 27.264,62.869 27.996,62.779L28.657,62.697L29.581,62.4C30.089,62.236 32.984,61.116 36.015,59.91C39.045,58.703 44.477,56.545 48.085,55.114C51.693,53.682 55.313,52.232 56.129,51.892L57.612,51.274L57.997,50.732L57.998,49.84L57.416,49.373L56.548,48.988C56.07,48.777 52.85,47.538 49.393,46.235C45.935,44.933 43.072,43.836 43.031,43.797C42.989,43.759 42.818,43.089 42.651,42.31C42.484,41.53 42.288,40.723 42.215,40.517C42.143,40.311 42.009,39.804 41.918,39.391C41.827,38.979 41.672,38.284 41.574,37.849C41.476,37.413 41.301,36.625 41.184,36.098C41.068,35.57 40.889,34.764 40.786,34.305C40.511,33.078 40.421,32.608 40.363,32.087C40.335,31.831 40.226,31.249 40.122,30.795C40.018,30.341 39.797,29.35 39.631,28.593C38.979,25.623 38.741,24.619 38.615,24.299C38.543,24.115 38.389,23.515 38.272,22.965C38.155,22.414 37.979,21.608 37.881,21.172C37.783,20.736 37.607,19.948 37.491,19.421C37.375,18.894 37.2,18.106 37.102,17.67C36.895,16.751 36.762,16.045 36.63,15.168C36.578,14.824 36.442,14.13 36.329,13.626C36.12,12.703 35.923,11.816 35.547,10.124C35.436,9.619 35.259,8.822 35.154,8.352C35.05,7.882 34.877,7.103 34.77,6.622C34.663,6.14 34.488,5.352 34.381,4.871C34.274,4.389 34.101,3.6 33.995,3.116C33.89,2.633 33.756,2.085 33.697,1.898L33.59,1.558L33.127,1.16L29.468,1.16L29.051,1.41L28.902,1.806C28.82,2.024 28.688,2.502 28.608,2.869C28.527,3.236 28.151,4.925 27.772,6.622C27.095,9.646 26.893,10.552 26.515,12.271C26.412,12.741 26.211,13.632 26.069,14.251L25.812,15.377L25.92,15.951L25.785,16.498C25.711,16.798 25.6,17.288 25.539,17.587C25.477,17.885 25.387,18.279 25.339,18.462C25.265,18.741 24.523,22.04 24.167,23.674C24.112,23.926 23.985,24.282 23.886,24.466L23.705,24.799L23.59,25.383C23.526,25.704 23.352,26.511 23.202,27.176C23.053,27.841 22.794,29.004 22.626,29.761C22.459,30.517 22.281,31.305 22.231,31.512C22.124,31.948 22.093,32.322 22.119,32.846L22.303,32.998L22.824,33.225C23.973,33.724 25.165,33.973 27.821,34.266L29.473,34.449L32,34.401L34.527,34.354L35.596,34.226C36.184,34.156 36.72,34.098 36.787,34.097L36.908,34.097L36.908,34.576L36.705,35.678L36.633,37.183L36.561,37.537C36.521,37.731 36.481,38.191 36.472,38.558L36.346,39.45C36.285,39.574 36.212,39.855 36.182,40.075C36.094,40.72 36.017,41.016 35.925,41.065C35.878,41.09 35.839,41.185 35.839,41.275L35.839,41.44L35.353,43.091L35.183,43.133C35.089,43.156 34.663,43.222 34.235,43.279L33.458,43.383L29.57,43.387L28.307,43.279C25.984,43.08 23.992,42.679 22.683,42.146L21.976,41.858L20.98,41.178L20.508,40.324L20.203,40.726L19.997,41.643C19.583,43.479 19.499,43.812 19.433,43.866C19.396,43.896 17.857,44.284 16.012,44.727C7.013,46.89 6.631,46.994 6.158,47.399L6.002,47.533L6.006,48.313L6.362,48.981L6.838,49.358C7.603,49.964 23.032,60.845 24.054,61.499L24.985,62.094L26.409,62.723L26.775,62.784ZM35.058,25.099L34.527,25.186L31.514,25.212C29.857,25.227 28.326,25.224 28.112,25.205C26.407,25.058 24.62,24.71 24.341,24.47L24.205,24.353L24.662,22.283C24.913,21.145 25.332,19.224 25.592,18.015L26.066,15.817L26.555,15.867C26.823,15.895 28.887,15.943 31.141,15.973L35.238,16.029L35.287,16.287C35.432,17.063 35.462,17.244 35.499,17.587C35.522,17.793 35.587,18.258 35.645,18.621L35.751,19.28L35.82,19.713L35.867,20.268C35.893,20.573 35.943,20.864 35.978,20.913C36.014,20.962 36.063,21.256 36.088,21.567C36.113,21.877 36.18,22.231 36.237,22.353L36.282,22.687L36.311,23.137L36.385,24.577L36.449,24.868L36.108,24.92C35.823,24.971 35.35,25.051 35.058,25.099ZM28.58,24.341C28.58,24.341 28.672,23.807 28.743,23.552L28.873,23.089C28.873,23.089 29.195,21.766 29.273,21.13C29.308,20.855 29.382,20.426 29.439,20.177C29.534,19.764 29.599,19.312 29.625,18.879C29.631,18.787 29.696,18.337 29.771,17.878C29.845,17.42 29.922,16.832 29.941,16.571L29.977,16.098L29.774,16.051C29.662,16.026 29.21,16.004 28.77,16.003L27.97,16.002L27.925,16.19C27.9,16.293 27.85,16.903 27.814,17.545C27.778,18.187 27.734,18.919 27.716,19.171C27.698,19.423 27.656,20.645 27.623,21.886L27.561,24.142L27.75,24.674L28.247,24.674L28.58,24.341Z" style="fill:#e4e1dd;"/></g><g id="orange"><path d="M25.825,62.436L25.022,62.091L23.894,61.359C22.933,60.734 14.825,55.033 8.452,50.5L6.578,49.167L6.092,48.456L5.974,47.599L6.41,47.201L6.872,47.031C7.257,46.889 15.043,44.954 18.514,44.138L19.51,43.904L19.555,43.774C19.58,43.703 19.737,43.029 19.904,42.278C20.317,40.422 20.277,40.478 20.755,41.06L21.064,41.437L21.651,41.762C21.974,41.941 22.576,42.208 22.988,42.356L23.738,42.623L24.807,42.855C26.246,43.166 27.658,43.337 29.741,43.453L31.479,43.55L34.651,43.352L37.054,43.002L39.289,42.424L39.969,42.144C40.344,41.991 40.859,41.728 41.115,41.56L41.579,41.256L42.076,40.581L42.249,40.73L42.59,42.262C42.777,43.105 42.946,43.807 42.965,43.823C42.984,43.84 45.707,44.869 49.016,46.111C52.326,47.352 55.559,48.588 56.2,48.857L57.366,49.345L58.021,49.895L57.918,50.869L57.739,51.04C57.446,51.322 56.976,51.543 54.985,52.336C52.034,53.511 45.251,56.209 41.767,57.593C40.03,58.283 36.706,59.604 34.381,60.529L30.153,62.211L28.15,62.781L26.629,62.781L25.825,62.436ZM28.647,34.296C28.46,34.277 27.76,34.202 27.092,34.129L25.877,33.996L23.697,33.526L22.512,32.984L22.135,32.573L22.136,32.355C22.137,32.13 22.253,31.58 23.213,27.259C23.32,26.778 23.497,25.971 23.605,25.466C23.714,24.962 23.838,24.518 23.881,24.48L23.959,24.411L24.775,24.768L25.618,24.924C26.79,25.142 28.003,25.244 30.153,25.307L32,25.362L35.167,25.17L37.432,24.838L38.49,24.423L38.729,24.593L38.784,24.905C38.814,25.076 38.931,25.629 39.044,26.133C39.157,26.638 39.376,27.632 39.531,28.343C39.686,29.054 39.947,30.246 40.111,30.992L40.41,32.348L40.287,32.769L39.977,32.971C39.807,33.083 39.412,33.271 39.099,33.39L38.529,33.606L37.549,33.809C37.009,33.92 36.109,34.072 35.547,34.145L34.527,34.279L31.757,34.304C30.234,34.318 28.834,34.314 28.647,34.296ZM28.939,15.919C28.003,15.886 26.966,15.831 26.635,15.797L26.032,15.737L25.816,15.514L26.117,14.153C26.282,13.404 26.458,12.623 26.508,12.417C26.558,12.21 26.735,11.422 26.901,10.666C27.067,9.909 27.285,8.933 27.385,8.498C27.576,7.666 27.757,6.85 28.257,4.579C28.816,2.04 28.859,1.877 29.055,1.524L29.154,1.345L29.628,1.16L32.933,1.16L33.49,1.407L33.59,1.68C33.709,2.005 33.972,3.136 34.574,5.913C34.738,6.67 34.914,7.458 34.964,7.664C35.015,7.87 35.19,8.658 35.353,9.415C35.516,10.172 35.691,10.96 35.742,11.166C35.792,11.372 35.968,12.16 36.133,12.917C36.298,13.674 36.498,14.571 36.577,14.912L36.722,15.53L36.452,15.763L35.489,15.834C34.96,15.873 33.652,15.922 32.583,15.942L30.639,15.979L28.939,15.919Z" style="fill:#f54927;"/><path d="M25.825,62.436L25.022,62.091L23.894,61.359C22.933,60.734 14.825,55.033 8.452,50.5L6.578,49.167L6.092,48.456L5.974,47.599L6.41,47.201L6.872,47.031C7.257,46.889 15.043,44.954 18.514,44.138L19.51,43.904L19.555,43.774C19.58,43.703 19.737,43.029 19.904,42.278C20.317,40.422 20.277,40.478 20.755,41.06L21.064,41.437L21.651,41.762C21.974,41.941 22.576,42.208 22.988,42.356L23.738,42.623L24.807,42.855C26.246,43.166 27.658,43.337 29.741,43.453L31.479,43.55L34.651,43.352L37.054,43.002L39.289,42.424L39.969,42.144C40.344,41.991 40.859,41.728 41.115,41.56L41.579,41.256L42.076,40.581L42.249,40.73L42.59,42.262C42.777,43.105 42.946,43.807 42.965,43.823C42.984,43.84 45.707,44.869 49.016,46.111C52.326,47.352 55.559,48.588 56.2,48.857L57.366,49.345L58.021,49.895L57.918,50.869L57.739,51.04C57.446,51.322 56.976,51.543 54.985,52.336C52.034,53.511 45.251,56.209 41.767,57.593C40.03,58.283 36.706,59.604 34.381,60.529L30.153,62.211L28.15,62.781L26.629,62.781L25.825,62.436ZM32.648,43.56L30.192,43.561L29.699,43.533C26.331,43.343 24.106,42.936 22.284,42.175L21.607,41.893L20.994,41.402C20.657,41.132 20.364,40.925 20.343,40.943C20.323,40.961 20.208,41.426 20.09,41.976C19.971,42.527 19.824,43.202 19.765,43.476L19.656,43.975L19.462,44.003C19.355,44.018 18.044,44.325 16.547,44.687C7.018,46.986 6.841,47.032 6.347,47.366L6.099,47.533L6.1,47.798C6.1,47.944 6.148,48.212 6.207,48.394L6.314,48.726L7.508,49.759L15.283,55.248C19.56,58.267 23.511,61.027 24.064,61.382L25.069,62.027L26.629,62.697L28.084,62.697L28.65,62.571C29.308,62.425 30.628,61.954 32.68,61.133C33.482,60.813 35.931,59.838 38.123,58.966C58.041,51.047 57.385,51.314 57.692,50.996L57.821,50.863L57.924,49.891L57.21,49.353L56.462,49.031C56.051,48.854 54.096,48.1 52.118,47.356C50.14,46.611 47.604,45.656 46.481,45.233C45.359,44.811 44.082,44.336 43.644,44.179L42.848,43.894L42.748,43.519C42.692,43.313 42.555,42.712 42.444,42.185C42.332,41.657 42.217,41.141 42.188,41.038L42.135,40.851L41.053,41.779L39.095,42.595L38.026,42.848C37.438,42.987 36.44,43.176 35.808,43.268L34.659,43.435L32.648,43.56ZM28.647,34.296C28.46,34.277 27.76,34.202 27.092,34.129L25.877,33.996L23.697,33.526L22.512,32.984L22.135,32.573L22.136,32.355C22.137,32.13 22.253,31.58 23.213,27.259C23.32,26.778 23.497,25.971 23.605,25.466C23.714,24.962 23.838,24.518 23.881,24.48L23.959,24.411L24.775,24.768L25.618,24.924C26.79,25.142 28.003,25.244 30.153,25.307L32,25.362L35.167,25.17L37.432,24.838L38.49,24.423L38.729,24.593L38.784,24.905C38.814,25.076 38.931,25.629 39.044,26.133C39.157,26.638 39.376,27.632 39.531,28.343C39.686,29.054 39.947,30.246 40.111,30.992L40.41,32.348L40.287,32.769L39.977,32.971C39.807,33.083 39.412,33.271 39.099,33.39L38.529,33.606L37.549,33.809C37.009,33.92 36.109,34.072 35.547,34.145L34.527,34.279L31.757,34.304C30.234,34.318 28.834,34.314 28.647,34.296ZM29.738,34.229L30.056,34.252L31.408,34.226C31.523,34.226 31.64,34.225 31.757,34.224L34.624,34.202L37.496,33.767L39.289,33.254L39.651,33.05C39.85,32.938 40.084,32.753 40.171,32.639L40.329,32.432L39.779,29.908C39.477,28.52 39.149,27.028 39.05,26.592C38.952,26.156 38.817,25.528 38.749,25.195L38.626,24.591L38.52,24.591C38.462,24.591 38.18,24.667 37.894,24.76L37.374,24.93L35.207,25.247L32.934,25.383L31.174,25.382L29.958,25.382C28.988,25.347 27.751,25.274 27.141,25.213L25.974,25.096L25.2,24.926C24.775,24.832 24.383,24.718 24.33,24.673C24.23,24.587 23.885,24.558 23.885,24.636C23.885,24.661 23.821,24.952 23.743,25.282C23.665,25.613 23.488,26.409 23.349,27.051C23.211,27.693 23.015,28.593 22.913,29.052C22.36,31.546 22.234,32.157 22.233,32.35L22.232,32.563L22.864,33.087L24.013,33.522L24.993,33.723C25.826,33.893 26.822,34.029 28.55,34.21C28.649,34.221 29.101,34.227 29.738,34.229ZM28.939,15.919C28.003,15.886 26.966,15.831 26.635,15.797L26.032,15.737L25.816,15.514L26.117,14.153C26.282,13.404 26.458,12.623 26.508,12.417C26.558,12.21 26.735,11.422 26.901,10.666C27.067,9.909 27.285,8.933 27.385,8.498C27.576,7.666 27.757,6.85 28.257,4.579C28.816,2.04 28.859,1.877 29.055,1.524L29.154,1.345L29.628,1.16L32.933,1.16L33.49,1.407L33.59,1.68C33.709,2.005 33.972,3.136 34.574,5.913C34.738,6.67 34.914,7.458 34.964,7.664C35.015,7.87 35.19,8.658 35.353,9.415C35.516,10.172 35.691,10.96 35.742,11.166C35.792,11.372 35.968,12.16 36.133,12.917C36.298,13.674 36.498,14.571 36.577,14.912L36.722,15.53L36.452,15.763L35.489,15.834C34.96,15.873 33.652,15.922 32.583,15.942L30.639,15.979L28.939,15.919ZM28.785,15.834C29.698,15.866 30.707,15.897 31.028,15.903C31.861,15.918 35.616,15.772 36.1,15.705L36.507,15.649L36.603,15.436L36.472,14.864C36.4,14.55 36.248,13.861 36.135,13.334C36.022,12.807 35.888,12.206 35.838,12C35.788,11.793 35.614,11.006 35.45,10.249C35.287,9.492 35.112,8.704 35.061,8.498C35.011,8.291 34.836,7.503 34.673,6.747C34.509,5.99 34.335,5.202 34.284,4.996C34.234,4.789 34.102,4.189 33.991,3.661C33.879,3.134 33.719,2.449 33.636,2.138L33.485,1.574L32.991,1.241L29.513,1.267L29.051,1.579L28.854,2.349C28.659,3.108 28.564,3.526 27.97,6.246C27.805,7.003 27.628,7.791 27.578,7.997C27.528,8.204 27.352,8.992 27.187,9.749C27.023,10.505 26.806,11.481 26.706,11.916C26.605,12.352 26.385,13.321 26.217,14.069L25.91,15.43L26.011,15.655L26.568,15.715C26.874,15.748 27.872,15.801 28.785,15.834Z" style="fill:#eba79b;"/><path d="M32.648,43.56L34.659,43.435L35.808,43.268C36.44,43.176 37.438,42.987 38.026,42.848L39.095,42.595L41.053,41.779L42.135,40.851L42.188,41.038C42.217,41.141 42.332,41.657 42.444,42.185C42.555,42.712 42.692,43.313 42.748,43.519L42.848,43.894L43.644,44.179C44.082,44.336 45.359,44.811 46.481,45.233C47.604,45.656 50.14,46.611 52.118,47.356C54.096,48.1 56.051,48.854 56.462,49.031L57.21,49.353L57.924,49.891L57.821,50.863L57.692,50.996C57.385,51.314 58.041,51.047 38.123,58.966C35.931,59.838 33.482,60.813 32.68,61.133C30.628,61.954 29.308,62.425 28.65,62.571L28.084,62.697L26.629,62.697L25.069,62.027L24.064,61.382C23.511,61.027 19.56,58.267 15.283,55.248L7.508,49.759L6.314,48.726L6.207,48.394C6.148,48.212 6.1,47.944 6.1,47.798L6.099,47.533L6.347,47.366C6.841,47.032 7.018,46.986 16.547,44.687C18.044,44.325 19.355,44.018 19.462,44.003L19.656,43.975L19.765,43.476C19.824,43.202 19.971,42.527 20.09,41.976C20.208,41.426 20.323,40.961 20.343,40.943C20.364,40.925 20.657,41.132 20.994,41.402L21.607,41.893L22.284,42.175C24.106,42.936 26.331,43.343 29.699,43.533L30.192,43.561L28.501,43.561L27.626,43.454C24.412,43.062 22.447,42.5 21.082,41.584C20.744,41.356 20.452,41.183 20.434,41.198C20.404,41.224 19.608,44.943 19.608,45.06L19.608,45.113L19.414,45.01L19.414,44.103L19.298,44.103C19.227,44.103 17.395,44.538 15.195,45.069C14.42,45.248 13.648,45.435 12.882,45.63C10.403,46.234 8.046,46.816 7.575,46.949L6.67,47.205L6.187,47.563L6.173,47.731C6.165,47.824 6.219,48.086 6.293,48.315L6.428,48.73L6.968,49.191C7.265,49.445 8.952,50.671 10.716,51.915C12.48,53.16 16,55.648 18.539,57.445C21.078,59.242 23.604,61 24.152,61.352L25.148,61.992L25.796,62.275C26.152,62.43 26.579,62.587 26.744,62.623L27.043,62.69L28.269,62.608L29.032,62.401C30.042,62.128 27.639,63.073 55.216,52.101C56.119,51.742 57.028,51.351 57.237,51.232L57.617,51.017L57.71,50.806C57.762,50.69 57.804,50.436 57.804,50.241L57.804,49.887L57.269,49.449L56.297,49.035C55.201,48.567 55.315,48.611 48.413,46.018C45.626,44.971 43.265,44.103 43.165,44.088L42.983,44.061L43.029,45.145L42.938,44.978C42.889,44.886 42.69,44.042 42.497,43.102C42.304,42.162 42.122,41.323 42.093,41.238L42.04,41.084L41.734,41.334C41.565,41.472 41.149,41.737 40.81,41.924L40.192,42.263L39.4,42.526C38.394,42.86 36.784,43.21 35.353,43.406L34.235,43.56L32.648,43.56ZM33.458,53.933L32.583,54.025L31.222,54.012C29.659,53.998 29.651,53.998 28.161,53.77C26.617,53.533 25.321,53.286 25.151,53.194L25.013,53.141C24.854,53.1 24.734,53.026 24.638,52.973L25.125,53.017L26.035,53.184C26.536,53.276 27.274,53.431 27.675,53.529C27.957,53.595 28.266,53.642 28.599,53.675L31.496,53.714L34.589,53.72L34.461,53.781C34.39,53.815 33.939,53.883 33.458,53.933ZM29.738,34.229C29.101,34.227 28.649,34.221 28.55,34.21C26.822,34.029 25.826,33.893 24.993,33.723L24.013,33.522L22.864,33.087L22.232,32.563L22.233,32.35C22.234,32.157 22.36,31.546 22.913,29.052C23.015,28.593 23.211,27.693 23.349,27.051C23.488,26.409 23.665,25.613 23.743,25.282C23.821,24.952 23.885,24.661 23.885,24.636C23.885,24.558 24.23,24.587 24.33,24.673C24.383,24.718 24.775,24.832 25.2,24.926L25.974,25.096L27.141,25.213C27.751,25.274 28.988,25.347 29.958,25.382L27.724,25.382L25.488,25.08L24.777,24.876C23.958,24.641 23.93,24.646 23.856,25.068C23.826,25.241 23.669,25.983 23.507,26.717C22.785,29.999 22.33,32.182 22.33,32.365L22.33,32.564L22.864,33.003L23.416,33.219C24.488,33.64 26.629,34.008 28.987,34.176L29.738,34.229ZM32.934,25.383L35.207,25.247L37.374,24.93L37.894,24.76C38.18,24.667 38.462,24.591 38.52,24.591L38.626,24.591L38.749,25.195C38.817,25.528 38.952,26.156 39.05,26.592C39.149,27.028 39.477,28.52 39.779,29.908L40.329,32.432L40.171,32.639C40.084,32.753 39.85,32.938 39.651,33.05L39.289,33.254L37.496,33.767L34.624,34.202L31.757,34.224C31.64,34.225 31.523,34.226 31.408,34.226L31.903,34.217C34.053,34.175 35.139,34.083 36.796,33.798L37.996,33.592L39.534,33.083L40.238,32.514L40.176,32.2C39.987,31.239 38.786,25.702 38.637,25.106L38.526,24.662L38.373,24.706C37.567,24.936 36.685,25.114 35.746,25.236L34.624,25.383L32.934,25.383ZM28.785,15.834C27.872,15.801 26.874,15.748 26.568,15.715L26.011,15.655L25.91,15.43L26.217,14.069C26.385,13.321 26.605,12.352 26.706,11.916C26.806,11.481 27.023,10.505 27.187,9.749C27.352,8.992 27.528,8.204 27.578,7.997C27.628,7.791 27.805,7.003 27.97,6.246C28.564,3.526 28.659,3.108 28.854,2.349L29.051,1.579L29.513,1.267L32.991,1.241L33.485,1.574L33.636,2.138C33.719,2.449 33.879,3.134 33.991,3.661C34.102,4.189 34.234,4.789 34.284,4.996C34.335,5.202 34.509,5.99 34.673,6.747C34.836,7.503 35.011,8.291 35.061,8.498C35.112,8.704 35.287,9.492 35.45,10.249C35.614,11.006 35.788,11.793 35.838,12C35.888,12.206 36.022,12.807 36.135,13.334C36.248,13.861 36.4,14.55 36.472,14.864L36.603,15.436L36.507,15.649L36.1,15.705C35.616,15.772 31.861,15.918 31.028,15.903C30.707,15.897 29.698,15.866 28.785,15.834ZM28.21,15.751C28.958,15.783 30.292,15.815 31.174,15.821L32.777,15.834L34.405,15.749L36.033,15.665L36.534,15.501L36.482,15.272C36.426,15.027 34.473,6.174 33.986,3.953C33.825,3.22 33.643,2.419 33.582,2.174L33.471,1.728L33.104,1.327L29.438,1.327L29.289,1.455C29.207,1.525 29.095,1.722 29.039,1.892C28.905,2.302 26.023,15.233 26.023,15.423L26.023,15.571L26.436,15.632C26.663,15.666 27.461,15.72 28.21,15.751Z" style="fill:#ee8774;"/><path d="M15.195,45.069C17.395,44.538 19.227,44.103 19.298,44.103L19.414,44.103L19.414,45.01L19.608,45.113L19.608,45.06C19.608,44.943 20.404,41.224 20.434,41.198C20.452,41.183 20.744,41.356 21.082,41.584C22.447,42.5 24.412,43.062 27.626,43.454L28.501,43.561L34.235,43.56L35.353,43.406C36.784,43.21 38.394,42.86 39.4,42.526L40.192,42.263L40.81,41.924C41.149,41.737 41.565,41.472 41.734,41.334L42.04,41.084L42.093,41.238C42.122,41.323 42.304,42.162 42.497,43.102C42.69,44.042 42.889,44.886 42.938,44.978L43.029,45.145L42.983,44.061L43.165,44.088C43.265,44.103 45.626,44.971 48.413,46.018C55.315,48.611 55.201,48.567 56.297,49.035L57.269,49.449L57.804,49.887L57.804,50.241C57.804,50.436 57.762,50.69 57.71,50.806L57.617,51.017L57.237,51.232C57.028,51.351 56.119,51.742 55.216,52.101C27.639,63.073 30.042,62.128 29.032,62.401L28.269,62.608L27.043,62.69L26.744,62.623C26.579,62.587 26.152,62.43 25.796,62.275L25.148,61.992L24.152,61.352C23.604,61 21.078,59.242 18.539,57.445C16,55.648 12.48,53.16 10.716,51.915C8.952,50.671 7.265,49.445 6.968,49.191L6.428,48.73L6.293,48.315C6.219,48.086 6.165,47.824 6.173,47.731L6.187,47.563L6.67,47.205L7.575,46.949C8.046,46.816 10.403,46.234 12.882,45.63C12.079,45.835 11.282,46.049 10.498,46.276C8.656,46.81 6.835,46.969 6.309,47.546L6.179,47.681L6.308,48.184L6.924,49.035L12.706,53.131C15.732,55.429 17.452,56.582 21.685,59.482L25.294,61.872L26.544,62.478L26.891,62.539L27.238,62.599L27.724,62.558C29.395,62.415 35.236,59.924 36.228,59.528C42.935,56.854 49.641,54.179 56.346,51.5L56.88,51.286L57.185,51.009C57.574,50.654 57.707,50.428 57.707,50.119L57.707,49.871L57.09,49.426L55.916,48.943C54.553,48.382 43.393,44.186 43.264,44.186L43.177,44.186L43.177,46.479L42.982,46.807C42.875,46.987 42.738,47.148 42.678,47.165L42.567,47.195L42.357,46.17C42.077,44.805 41.993,43.23 41.514,41.91L41.46,41.761L40.86,42.049C39.551,42.677 37.564,43.19 35.256,43.496L34.138,43.644L28.501,43.64L27.335,43.491C25.75,43.289 24.548,43.059 23.543,42.768L22.7,42.524L21.872,42.146C21.417,41.938 20.651,41.407 20.614,41.407L20.546,41.407L20.423,42.178C20.002,44.812 19.987,44.669 19.893,45.067L19.751,45.446L19.638,45.413C19.576,45.396 19.573,45.47 19.419,45.213L19.333,45.052L19.341,44.609L19.3,44.186L19.218,44.186C17.884,44.468 16.536,44.758 15.195,45.069ZM33.182,54.11C33.182,54.11 31.703,54.19 30.963,54.175C29.469,54.145 27.854,54.028 26.412,53.64C25.511,53.397 24.619,53.131 23.734,52.851C23.701,52.84 23.646,52.784 23.679,52.774C24.9,52.425 27.317,53.517 28.598,53.567C31.042,53.662 33.491,53.504 35.936,53.541C35.989,53.542 35.987,53.664 35.936,53.678C35.361,53.838 34.765,53.94 34.17,54.033C33.845,54.085 33.513,54.097 33.182,54.11ZM33.458,53.933C33.939,53.883 34.39,53.815 34.461,53.781L34.589,53.72L31.496,53.714L28.599,53.675C28.266,53.642 27.957,53.595 27.675,53.529C27.274,53.431 26.536,53.276 26.035,53.184L25.125,53.017L24.638,52.973C24.734,53.026 24.854,53.1 25.013,53.141L25.151,53.194C25.321,53.286 26.617,53.533 28.161,53.77C29.651,53.998 29.659,53.998 31.222,54.012L32.583,54.025L33.458,53.933ZM28.517,61.602C28.478,61.639 28.437,61.678 28.384,61.697C28.198,61.763 28.008,61.839 27.807,61.853C27.463,61.877 27.115,61.85 26.774,61.808C26.661,61.793 26.551,61.746 26.463,61.684C26.394,61.636 26.278,61.556 26.323,61.49C26.399,61.379 26.75,61.434 26.719,61.308C26.679,61.138 26.386,61.11 26.211,61.022C25.88,60.855 25.532,60.712 25.203,60.542C25.138,60.508 24.955,60.409 25.031,60.413C25.293,60.427 26.212,60.84 26.317,60.875C27.045,61.118 27.547,61.09 28.404,61.028C28.415,61.027 29.909,60.706 29.945,60.745C30.091,60.904 29.522,60.924 29.306,61.005C29.073,61.093 28.789,61.107 28.598,61.253C28.523,61.31 28.669,61.423 28.65,61.508C28.638,61.556 28.569,61.582 28.517,61.602ZM28.987,34.176C26.629,34.008 24.488,33.64 23.416,33.219L22.864,33.003L22.33,32.564L22.33,32.365C22.33,32.182 22.785,29.999 23.507,26.717C23.669,25.983 23.826,25.241 23.856,25.068C23.93,24.646 23.958,24.641 24.777,24.876L25.488,25.08L27.724,25.382L31.174,25.382L34.624,25.383L35.746,25.236C36.685,25.114 37.567,24.936 38.373,24.706L38.526,24.662L38.637,25.106C38.786,25.702 39.987,31.239 40.176,32.2L40.238,32.514L39.534,33.083L37.996,33.592L36.796,33.798C35.139,34.083 34.053,34.175 31.903,34.217L30.056,34.252L28.987,34.176ZM28.75,34.085C33.075,34.39 38.736,33.728 39.62,32.814L39.743,32.687L39.25,30.202C38.758,27.725 38.657,26.291 38.354,25.17C38.202,24.607 36.959,25.266 35.79,25.318L34.624,25.462L27.918,25.462L25.539,25.173L24.078,24.775L24.031,24.954C23.928,25.346 23.477,27.599 23.019,30.005L22.536,32.543L22.705,32.813L23.646,33.252L24.519,33.47C25.549,33.726 27.333,33.986 28.75,34.085ZM28.21,15.751C27.461,15.72 26.663,15.666 26.436,15.632L26.023,15.571L26.023,15.423C26.023,15.233 28.905,2.302 29.039,1.892C29.095,1.722 29.207,1.525 29.289,1.455L29.438,1.327L33.104,1.327L33.471,1.728L33.582,2.174C33.643,2.419 33.825,3.22 33.986,3.953C34.473,6.174 36.426,15.027 36.482,15.272L36.534,15.501L36.033,15.665L34.405,15.749L32.777,15.834L31.174,15.821C30.292,15.815 28.958,15.783 28.21,15.751ZM27.834,15.669L29.084,15.739L34.916,15.668L35.529,15.593C35.752,15.566 36.202,15.671 36.191,15.478C36.16,14.935 34.404,6.726 34.28,6.136L33.406,1.982L33.137,1.43L32.763,1.392C32.557,1.371 32.052,1.382 31.641,1.417L30.927,1.42L29.895,1.4L29.376,1.452L29.051,2.036L28.501,4.537C27.86,7.451 27.193,10.361 26.561,13.276C26.409,13.976 26.12,14.667 26.12,15.38L26.12,15.499L26.352,15.549C26.479,15.576 27.146,15.63 27.834,15.669ZM33.21,2.023C33.218,2.183 33.225,2.344 33.22,2.504C33.217,2.61 33.196,2.635 33.126,2.711C33.103,2.736 33.048,2.789 33.031,2.761C32.95,2.628 32.926,2.368 32.905,2.243C32.874,2.062 32.799,1.769 32.888,1.582C32.898,1.563 32.921,1.568 32.936,1.574C32.977,1.592 33.058,1.635 33.086,1.666C33.165,1.756 33.189,1.92 33.21,2.023Z" style="fill:#e96750;"/><path d="M26.891,62.539L26.544,62.478L25.294,61.872L21.685,59.482C17.452,56.582 15.732,55.429 12.706,53.131L6.924,49.035L6.308,48.184L6.179,47.681L6.309,47.546C6.835,46.969 8.656,46.81 10.498,46.276C13.326,45.458 16.305,44.801 19.218,44.186L19.3,44.186L19.341,44.609L19.333,45.052L19.419,45.213C19.573,45.47 19.576,45.396 19.638,45.413L19.751,45.446L19.893,45.067C19.987,44.669 20.002,44.812 20.423,42.178L20.546,41.407L20.614,41.407C20.651,41.407 21.417,41.938 21.872,42.146L22.7,42.524L23.543,42.768C24.548,43.059 25.75,43.289 27.335,43.491L28.501,43.64L34.138,43.644L35.256,43.496C37.564,43.19 39.551,42.677 40.86,42.049L41.46,41.761L41.514,41.91C41.993,43.23 42.077,44.805 42.357,46.17L42.567,47.195L42.678,47.165C42.738,47.148 42.875,46.987 42.982,46.807L43.177,46.479L43.177,44.186L43.264,44.186C43.393,44.186 54.553,48.382 55.916,48.943L57.09,49.426L57.707,49.871L57.707,50.119C57.707,50.428 57.574,50.654 57.185,51.009L56.88,51.286L56.346,51.5C49.641,54.179 42.935,56.854 36.228,59.528C35.236,59.924 29.395,62.415 27.724,62.558L27.238,62.599L26.891,62.539ZM33.182,54.11C33.513,54.097 33.845,54.085 34.17,54.033C34.765,53.94 35.361,53.838 35.936,53.678C35.987,53.664 35.989,53.542 35.936,53.541C33.491,53.504 31.042,53.662 28.598,53.567C27.317,53.517 24.9,52.425 23.679,52.774C23.646,52.784 23.701,52.84 23.734,52.851C24.619,53.131 25.511,53.397 26.412,53.64C27.854,54.028 29.469,54.145 30.963,54.175C31.703,54.19 33.182,54.11 33.182,54.11ZM27.605,60.645L27.604,60.885L28.89,60.788L30.007,60.483C30.992,60.213 34.318,59.131 35.11,58.822C35.27,58.759 36.254,58.408 37.297,58.041C39.105,57.404 39.754,57.165 40.844,56.737C41.111,56.632 42.905,55.937 44.829,55.193C48.706,53.693 55.02,51.207 56.151,50.736L56.88,50.433L57.544,49.918L57.357,49.648L56.059,49.089C54.508,48.422 51.567,47.316 51.118,47.233L49.811,46.76C49.811,46.76 43.675,44.33 43.596,44.519L43.606,45.731L43.562,46.846C43.438,46.846 43.406,48.876 42.42,50.23C42.009,50.793 40.377,51.958 40.129,52.12C38.859,52.952 38.453,53.106 35.45,53.987L34.333,54.2L30.639,54.382L29.424,54.272C28.756,54.211 28.063,54.166 27.885,54.171L27.56,54.181L27.424,54.333C27.349,54.416 27.183,54.671 27.055,54.901L26.821,55.318L26.859,56.152C26.912,57.294 26.91,57.279 27.012,57.637C27.062,57.812 27.122,58.065 27.146,58.2C27.17,58.334 27.214,58.567 27.245,58.716C27.276,58.865 27.32,59.08 27.344,59.195C27.367,59.31 27.406,59.535 27.43,59.695C27.453,59.856 27.502,60.081 27.539,60.196C27.575,60.31 27.605,60.512 27.605,60.645ZM24.319,60.46L24.905,60.765L25.282,60.779L25.094,60.632C24.99,60.551 24.696,60.34 24.441,60.162C23.808,59.721 23.929,59.695 24.728,60.1C25.093,60.284 25.516,60.462 25.669,60.494L25.947,60.552L25.893,60.395C25.827,60.204 25.693,59.32 25.477,57.652C25.388,56.965 25.298,56.289 25.279,56.152C25.259,56.014 25.242,55.587 25.24,55.204L25.238,54.506L25.517,54.14L25.925,54.035C26.15,53.978 26.318,53.918 26.3,53.904C26.281,53.89 25.457,53.665 24.468,53.404L22.67,52.93L21.22,52.254C20.542,51.749 19.345,50.13 19.288,48.602C19.168,47.967 19.231,47.036 19.072,45.837L19.136,45.074C19.171,44.654 19.184,44.297 19.165,44.28C19.122,44.241 17.437,44.639 11.754,46.03L7.349,47.109L6.924,47.281C6.689,47.375 6.447,47.505 6.385,47.569L6.272,47.686L6.403,48.134L6.81,48.459C7.353,48.893 11.705,51.924 17.422,55.849C19.987,57.61 22.301,59.206 22.562,59.394C23.137,59.808 23.545,60.056 24.319,60.46ZM28.517,61.602C28.569,61.582 28.638,61.556 28.65,61.508C28.669,61.423 28.523,61.31 28.598,61.253C28.789,61.107 29.073,61.093 29.306,61.005C29.522,60.924 30.091,60.904 29.945,60.745C29.909,60.706 28.415,61.027 28.404,61.028C27.547,61.09 27.045,61.118 26.317,60.875C26.212,60.84 25.293,60.427 25.031,60.413C24.955,60.409 25.138,60.508 25.203,60.542C25.532,60.712 25.88,60.855 26.211,61.022C26.386,61.11 26.679,61.138 26.719,61.308C26.75,61.434 26.399,61.379 26.323,61.49C26.278,61.556 26.394,61.636 26.463,61.684C26.551,61.746 26.661,61.793 26.774,61.808C27.115,61.85 27.463,61.877 27.807,61.853C28.008,61.839 28.198,61.763 28.384,61.697C28.437,61.678 28.478,61.639 28.517,61.602ZM28.75,34.085C27.333,33.986 25.549,33.726 24.519,33.47L23.646,33.252L22.705,32.813L22.536,32.543L23.019,30.005C23.477,27.599 23.928,25.346 24.031,24.954L24.078,24.775L25.539,25.173L27.918,25.462L34.624,25.462L35.79,25.318C36.959,25.266 38.202,24.607 38.354,25.17C38.657,26.291 38.758,27.725 39.25,30.202L39.743,32.687L39.62,32.814C38.736,33.728 33.075,34.39 28.75,34.085ZM27.834,15.669C27.146,15.63 26.479,15.576 26.352,15.549L26.12,15.499L26.12,15.38C26.12,14.667 26.409,13.976 26.561,13.276C27.193,10.361 27.86,7.451 28.501,4.537L29.051,2.036L29.376,1.452L29.895,1.4L30.927,1.42L31.641,1.417C32.052,1.382 32.557,1.371 32.763,1.392L33.137,1.43L33.406,1.982L34.28,6.136C34.404,6.726 36.16,14.935 36.191,15.478C36.202,15.671 35.752,15.566 35.529,15.593L34.916,15.668L29.084,15.739L27.834,15.669ZM33.21,2.023C33.189,1.92 33.165,1.756 33.086,1.666C33.058,1.635 32.977,1.592 32.936,1.574C32.921,1.568 32.898,1.563 32.888,1.582C32.799,1.769 32.874,2.062 32.905,2.243C32.926,2.368 32.95,2.628 33.031,2.761C33.048,2.789 33.103,2.736 33.126,2.711C33.196,2.635 33.217,2.61 33.22,2.504C33.225,2.344 33.218,2.183 33.21,2.023Z" style="fill:#f54927;"/><path d="M27.605,60.645C27.605,60.512 27.575,60.31 27.539,60.196C27.502,60.081 27.453,59.856 27.43,59.695C27.406,59.535 27.367,59.31 27.344,59.195C27.32,59.08 27.276,58.865 27.245,58.716C27.214,58.567 27.17,58.334 27.146,58.2C27.122,58.065 27.062,57.812 27.012,57.637C26.91,57.279 26.912,57.294 26.859,56.152L26.821,55.318L27.055,54.901C27.183,54.671 27.349,54.416 27.424,54.333L27.56,54.181L27.885,54.171C28.063,54.166 28.756,54.211 29.424,54.272L30.639,54.382L34.333,54.2L35.45,53.987C38.453,53.106 38.859,52.952 40.129,52.12C40.377,51.958 42.009,50.793 42.42,50.23C43.406,48.876 43.438,46.846 43.562,46.846L43.606,45.731L43.596,44.519C43.675,44.33 49.811,46.76 49.811,46.76L51.118,47.233C51.567,47.316 54.508,48.422 56.059,49.089L57.357,49.648L57.544,49.918L56.88,50.433L56.151,50.736C55.02,51.207 48.706,53.693 44.829,55.193C42.905,55.937 41.111,56.632 40.844,56.737C39.754,57.165 39.105,57.404 37.297,58.041C36.254,58.408 35.27,58.759 35.11,58.822C34.318,59.131 30.992,60.213 30.007,60.483L28.89,60.788L27.604,60.885L27.605,60.645ZM24.319,60.46C23.545,60.056 23.137,59.808 22.562,59.394C22.301,59.206 19.987,57.61 17.422,55.849C11.705,51.924 7.353,48.893 6.81,48.459L6.403,48.134L6.272,47.686L6.385,47.569C6.447,47.505 6.689,47.375 6.924,47.281L7.349,47.109L11.754,46.03C17.437,44.639 19.122,44.241 19.165,44.28C19.184,44.297 19.171,44.654 19.136,45.074L19.072,45.837C19.231,47.036 19.168,47.967 19.288,48.602C19.345,50.13 20.542,51.749 21.22,52.254L22.67,52.93L24.468,53.404C25.457,53.665 26.281,53.89 26.3,53.904C26.318,53.918 26.15,53.978 25.925,54.035L25.517,54.14L25.238,54.506L25.24,55.204C25.242,55.587 25.259,56.014 25.279,56.152C25.298,56.289 25.388,56.965 25.477,57.652C25.693,59.32 25.827,60.204 25.893,60.395L25.947,60.552L25.669,60.494C25.516,60.462 25.093,60.284 24.728,60.1C23.929,59.695 23.808,59.721 24.441,60.162C24.696,60.34 24.99,60.551 25.094,60.632L25.282,60.779L24.905,60.765L24.319,60.46Z" style="fill:#fe490d;fill-rule:nonzero;"/></g><g id="grey"><path d="M29.528,1.327L32.913,1.327C33.015,1.546 32.809,1.663 32.442,1.77C31.493,1.997 30.774,1.961 30.001,1.782C29.638,1.721 29.509,1.593 29.528,1.327Z" style="fill-opacity:0.25;"/><path d="M43.309,48.219L43.713,48.25C43.72,48.324 43.722,48.397 43.721,48.472C43.681,51.266 38.138,53.477 31.351,53.406C25.347,53.343 20.945,51.341 19.393,49.157C19.18,48.859 19.012,48.409 18.86,48.12C18.667,47.754 18.435,47.482 18.374,47.359C18.203,47.016 18.079,46.619 18.286,46.327C18.546,45.959 19.174,45.576 19.486,45.53C19.717,45.496 19.402,46.114 19.361,46.384C19.285,46.886 19.246,47.257 19.492,48.018C20.408,50.855 25.523,52.362 31.385,52.798C34.949,53.063 38.652,52.171 41.353,50.613C42.199,50.125 42.719,49.525 43.139,48.471C43.175,48.38 43.254,48.305 43.309,48.219Z" style="fill-opacity:0.25;"/><path d="M6.002,47.573L6.002,47.533L6.158,47.399C6.218,47.348 6.276,47.301 6.351,47.255L6.002,47.573ZM6.558,47.147C7.231,46.845 9.021,46.407 16.012,44.727C17.857,44.284 19.396,43.896 19.433,43.866C19.499,43.812 19.583,43.479 19.997,41.643L20.203,40.726L20.508,40.324L20.98,41.178L21.976,41.858L22.683,42.146C23.992,42.679 25.984,43.08 28.307,43.279L29.57,43.387L33.458,43.383L34.235,43.279C34.663,43.222 35.089,43.156 35.183,43.133L35.353,43.091L35.839,41.44L35.839,41.275C35.839,41.185 35.878,41.09 35.925,41.065C36.017,41.016 36.094,40.72 36.182,40.075C36.212,39.855 36.285,39.574 36.346,39.45L36.472,38.558C36.481,38.191 36.521,37.731 36.561,37.537L36.633,37.183L36.705,35.678L36.908,34.576L36.908,34.097L36.787,34.097C36.72,34.098 36.184,34.156 35.596,34.226L34.527,34.354L32,34.401L29.473,34.449L27.821,34.266C25.165,33.973 23.973,33.724 22.824,33.225L22.303,32.998L22.119,32.846C22.093,32.322 22.124,31.948 22.231,31.512C22.281,31.305 22.459,30.517 22.626,29.761C22.794,29.004 23.053,27.841 23.202,27.176C23.352,26.511 23.526,25.704 23.59,25.383L23.705,24.799L23.866,24.503C23.813,24.607 23.703,25.012 23.605,25.466C23.497,25.971 23.32,26.778 23.213,27.259C22.253,31.58 22.137,32.13 22.136,32.355L22.135,32.573L22.512,32.984L23.697,33.526L25.877,33.996L27.092,34.129C27.76,34.202 28.46,34.277 28.647,34.296C28.834,34.314 30.234,34.318 31.757,34.304L34.527,34.279L35.547,34.145C36.109,34.072 37.009,33.92 37.549,33.809L38.529,33.606L39.099,33.39C39.412,33.271 39.807,33.083 39.977,32.971L40.287,32.769L40.4,32.381C40.461,32.812 40.563,33.309 40.786,34.305C40.889,34.764 41.068,35.57 41.184,36.098C41.301,36.625 41.476,37.413 41.574,37.849C41.672,38.284 41.827,38.979 41.918,39.391C42.009,39.804 42.143,40.311 42.215,40.517C42.288,40.723 42.484,41.53 42.651,42.31C42.818,43.089 42.989,43.759 43.031,43.797C43.072,43.836 45.935,44.933 49.393,46.235C52.85,47.538 56.07,48.777 56.548,48.988L57.133,49.248L56.2,48.857C55.559,48.588 52.326,47.352 49.016,46.111C45.707,44.869 42.984,43.84 42.965,43.823C42.946,43.807 42.777,43.105 42.59,42.262L42.249,40.73L42.076,40.581L41.579,41.256L41.115,41.56C40.859,41.728 40.344,41.991 39.969,42.144L39.289,42.424L37.054,43.002L34.651,43.352L31.479,43.55L29.741,43.453C27.658,43.337 26.246,43.166 24.807,42.855L23.738,42.623L22.988,42.356C22.576,42.208 21.974,41.941 21.651,41.762L21.064,41.437L20.755,41.06C20.277,40.478 20.317,40.422 19.904,42.278C19.737,43.029 19.58,43.703 19.555,43.774L19.51,43.904L18.514,44.138C15.043,44.954 7.257,46.889 6.872,47.031L6.558,47.147ZM23.872,24.492L23.886,24.466C23.985,24.282 24.112,23.926 24.167,23.674C24.523,22.04 25.265,18.741 25.339,18.462C25.387,18.279 25.477,17.885 25.539,17.587C25.6,17.288 25.711,16.798 25.785,16.498L25.92,15.951L25.843,15.542L26.032,15.737L26.635,15.797C26.966,15.831 28.003,15.886 28.939,15.919L29.98,15.956C28.218,15.927 26.776,15.89 26.555,15.867L26.066,15.817L25.592,18.015C25.332,19.224 24.913,21.145 24.662,22.283L24.205,24.353L24.341,24.47C24.62,24.71 26.407,25.058 28.112,25.205C28.326,25.224 29.857,25.227 31.514,25.212L34.527,25.186L35.058,25.099C35.35,25.051 35.823,24.971 36.108,24.92L36.449,24.868L36.385,24.577L36.311,23.137L36.282,22.687L36.237,22.353C36.18,22.231 36.113,21.877 36.088,21.567C36.063,21.256 36.014,20.962 35.978,20.913C35.943,20.864 35.893,20.573 35.867,20.268L35.82,19.713L35.751,19.28L35.645,18.621C35.587,18.258 35.522,17.793 35.499,17.587C35.462,17.244 35.432,17.063 35.287,16.287L35.238,16.029L31.141,15.973C31.104,15.973 31.068,15.972 31.032,15.972L32.583,15.942C33.652,15.922 34.96,15.873 35.489,15.834L36.452,15.763L36.69,15.557C36.804,16.264 36.926,16.891 37.102,17.67C37.2,18.106 37.375,18.894 37.491,19.421C37.607,19.948 37.783,20.736 37.881,21.172C37.979,21.608 38.155,22.414 38.272,22.965C38.389,23.515 38.543,24.115 38.615,24.299C38.64,24.362 38.669,24.451 38.704,24.575L38.49,24.423L37.432,24.838L35.167,25.17L32,25.362L30.153,25.307C28.003,25.244 26.79,25.142 25.618,24.924L24.775,24.768L23.959,24.411L23.881,24.48C23.878,24.482 23.875,24.487 23.872,24.492ZM25.828,15.461L25.812,15.377L26.069,14.251C26.211,13.632 26.412,12.741 26.515,12.271C26.893,10.552 27.095,9.646 27.772,6.622C28.151,4.925 28.527,3.236 28.608,2.869C28.688,2.502 28.82,2.024 28.902,1.806L29.051,1.41L29.151,1.35L29.055,1.524C28.859,1.877 28.816,2.04 28.257,4.579C27.757,6.85 27.576,7.666 27.385,8.498C27.285,8.933 27.067,9.909 26.901,10.666C26.735,11.422 26.558,12.21 26.508,12.417C26.458,12.623 26.282,13.404 26.117,14.153L25.828,15.461ZM29.17,1.339L29.468,1.16L29.628,1.16L29.17,1.339ZM32.933,1.16L33.127,1.16L33.334,1.338L32.933,1.16ZM33.525,1.502L33.59,1.558L33.697,1.898C33.756,2.085 33.89,2.633 33.995,3.116C34.101,3.6 34.274,4.389 34.381,4.871C34.488,5.352 34.663,6.14 34.77,6.622C34.877,7.103 35.05,7.882 35.154,8.352C35.259,8.822 35.436,9.619 35.547,10.124C35.923,11.816 36.12,12.703 36.329,13.626C36.433,14.088 36.556,14.711 36.615,15.076L36.577,14.912C36.498,14.571 36.298,13.674 36.133,12.917C35.968,12.16 35.792,11.372 35.742,11.166C35.691,10.96 35.516,10.172 35.353,9.415C35.19,8.658 35.015,7.87 34.964,7.664C34.914,7.458 34.738,6.67 34.574,5.913C33.972,3.136 33.709,2.005 33.59,1.68L33.525,1.502ZM38.766,24.804C38.92,25.395 39.174,26.511 39.631,28.593C39.797,29.35 40.018,30.341 40.122,30.795C40.226,31.249 40.335,31.831 40.363,32.087C40.367,32.121 40.371,32.155 40.375,32.188L40.111,30.992C39.947,30.246 39.686,29.054 39.531,28.343C39.376,27.632 39.157,26.638 39.044,26.133C38.931,25.629 38.814,25.076 38.784,24.905L38.766,24.804ZM57.381,49.357L57.416,49.373L57.998,49.84L57.998,49.876L57.381,49.357ZM57.998,50.115L57.997,50.732L57.921,50.839L57.998,50.115ZM57.861,50.923L57.612,51.274L56.129,51.892C55.313,52.232 51.693,53.682 48.085,55.114C44.477,56.545 39.045,58.703 36.015,59.91C34.112,60.667 32.262,61.391 31.024,61.865L34.381,60.529C36.706,59.604 40.03,58.283 41.767,57.593C45.251,56.209 52.034,53.511 54.985,52.336C56.976,51.543 57.446,51.322 57.739,51.04L57.861,50.923ZM29.958,62.267C29.785,62.33 29.656,62.376 29.581,62.4L28.657,62.697L28.281,62.744L29.958,62.267ZM27.98,62.781C27.264,62.869 27.284,62.868 26.775,62.784L26.757,62.781L27.98,62.781ZM26.548,62.746L26.409,62.723L24.985,62.094L24.054,61.499C23.032,60.845 7.603,49.964 6.838,49.358L6.763,49.299L8.452,50.5C14.825,55.033 22.933,60.734 23.894,61.359L25.022,62.091L25.825,62.436L26.548,62.746ZM6.556,49.134L6.362,48.981L6.006,48.313L6.003,47.813L6.092,48.456L6.556,49.134Z" style="fill:#d8d5d2;"/></g></svg>