<svg xmlns="http://www.w3.org/2000/svg" xml:space="preserve" fill-rule="evenodd" stroke-linejoin="round" stroke-miterlimit="2" clip-rule="evenodd" viewBox="0 0 64 64">
  <g id="white">
    <path fill="#e6e6e6" d="m28.58 24.341-.333.333h-.497l-.189-.532.062-2.256c.033-1.241.075-2.463.093-2.715.018-.252.062-.984.098-1.626.036-.642.086-1.252.111-1.355l.045-.188.8.001c.44.001.892.023 1.004.048l.203.047-.036.473a19.62 19.62 0 0 1-.17 1.307c-.075.459-.14.909-.146 1.001a8.07 8.07 0 0 1-.186 1.298c-.057.249-.131.678-.166.953-.078.636-.4 1.959-.4 1.959l-.13.463c-.071.255-.163.789-.163.789Z"/>
    <path fill="#e4e1dd" d="m26.653 62.882-1.856-.816-.918-.594C22.708 60.713 8.053 50.37 7.034 49.583l-.766-.592-.359-.678-.004-.792.204-.175c.112-.096.43-.263.705-.371l.5-.195 5.151-1.257c2.833-.691 5.541-1.35 6.018-1.464.477-.114.886-.224.909-.244.023-.019.189-.704.368-1.521.18-.817.392-1.691.473-1.944.08-.252.281-1.077.445-1.834.164-.757.339-1.545.389-1.751.05-.207.225-.995.388-1.751.163-.757.338-1.545.387-1.751.05-.207.117-.582.151-.834.058-.438.217-1.204.634-3.044.236-1.042.302-1.338.672-3.043.165-.757.36-1.564.435-1.793.075-.229.274-1.036.442-1.793.169-.756.388-1.732.488-2.168.1-.435.319-1.411.486-2.168.168-.756.367-1.646.443-1.976.076-.331.138-.718.138-.86 0-.142.043-.416.094-.608.052-.192.23-.969.396-1.725.166-.757.384-1.733.485-2.168.1-.436.317-1.412.481-2.168.165-.757.34-1.545.39-1.751.05-.207.227-.995.394-1.751.454-2.056.758-3.342.869-3.678l.1-.3.408-.317h3.884l.443.443.152.571c.084.314.247 1.002.362 1.529.115.528.289 1.316.386 1.752.098.435.273 1.223.389 1.751.117.527.291 1.315.389 1.751.256 1.144.554 2.491.783 3.543.11.505.284 1.274.386 1.71.102.436.227 1.073.278 1.417.103.697 1.81 8.404 1.949 8.797.083.237.287 1.133.98 4.295.165.756.382 1.732.481 2.168.099.435.209.979.245 1.209.103.666 1.585 7.417 1.84 8.38.128.481.328 1.326.446 1.876.118.55.244 1.111.281 1.246l.067.245 6.07 2.275c3.338 1.251 6.558 2.482 7.156 2.736l1.086.461.694.561-.001.898-.375.528-.431.217c-.237.119-1.082.474-1.877.789-.796.315-2.955 1.173-4.799 1.907-17.775 7.073-20.601 8.185-21.371 8.414l-.74.219-1.848.076Zm.122-.098c.513.085.489.085 1.221-.005l.661-.082.924-.297c.508-.164 3.403-1.284 6.434-2.49 3.03-1.207 8.462-3.365 12.07-4.796a955.177 955.177 0 0 0 8.044-3.222l1.483-.618.385-.542.001-.892-.582-.467-.868-.385c-.478-.211-3.698-1.45-7.155-2.753-3.458-1.302-6.321-2.399-6.362-2.438-.042-.038-.213-.708-.38-1.487-.167-.78-.363-1.587-.436-1.793a12.91 12.91 0 0 1-.297-1.126 456.06 456.06 0 0 0-.344-1.542l-.39-1.751a496.86 496.86 0 0 0-.398-1.793c-.275-1.227-.365-1.697-.423-2.218a14.788 14.788 0 0 0-.241-1.292c-.104-.454-.325-1.445-.491-2.202-.652-2.97-.89-3.974-1.016-4.294-.072-.184-.226-.784-.343-1.334-.117-.551-.293-1.357-.391-1.793-.098-.436-.274-1.224-.39-1.751-.116-.527-.291-1.315-.389-1.751a32.788 32.788 0 0 1-.472-2.502 27.985 27.985 0 0 0-.301-1.542c-.209-.923-.406-1.81-.782-3.502l-.393-1.772a1920.26 1920.26 0 0 0-.773-3.481l-.386-1.755a19.777 19.777 0 0 0-.298-1.218l-.107-.34-.463-.398h-3.659l-.417.25-.149.396a9.652 9.652 0 0 0-.294 1.063l-.836 3.753c-.677 3.024-.879 3.93-1.257 5.649-.103.47-.304 1.361-.446 1.98l-.257 1.126.108.574-.135.547c-.074.3-.185.79-.246 1.089-.062.298-.152.692-.2.875a413.45 413.45 0 0 0-1.172 5.212 3.671 3.671 0 0 1-.281.792l-.181.333-.115.584a97.21 97.21 0 0 1-.388 1.793l-.576 2.585c-.167.756-.345 1.544-.395 1.751-.107.436-.138.81-.112 1.334l.184.152.521.227c1.149.499 2.341.748 4.997 1.041l1.652.183L32 34.401l2.527-.047 1.069-.128c.588-.07 1.124-.128 1.191-.129h.121v.479l-.203 1.102-.072 1.505-.072.354c-.04.194-.08.654-.089 1.021l-.126.892a2.546 2.546 0 0 0-.164.625c-.088.645-.165.941-.257.99-.047.025-.086.12-.086.21v.165l-.486 1.651-.17.042c-.094.023-.52.089-.948.146l-.777.104-3.888.004-1.263-.108c-2.323-.199-4.315-.6-5.624-1.133l-.707-.288-.996-.68-.472-.854-.305.402-.206.917c-.414 1.836-.498 2.169-.564 2.223-.037.03-1.576.418-3.421.861-8.999 2.163-9.381 2.267-9.854 2.672l-.156.134.004.78.356.668.476.377c.765.606 16.194 11.487 17.216 12.141l.931.595 1.424.629.366.061Zm8.283-37.685-.531.087-3.013.026c-1.657.015-3.188.012-3.402-.007-1.705-.147-3.492-.495-3.771-.735l-.136-.117.457-2.07c.251-1.138.67-3.059.93-4.268l.474-2.198.489.05c.268.028 2.332.076 4.586.106l4.097.056.049.258c.145.776.175.957.212 1.3.023.206.088.671.146 1.034l.106.659.069.433.047.555c.026.305.076.596.111.645.036.049.085.343.11.654.025.31.092.664.149.786l.045.334.029.45.074 1.44.064.291-.341.052c-.285.051-.758.131-1.05.179Zm-6.478-.758s.092-.534.163-.789l.13-.463s.322-1.323.4-1.959c.035-.275.109-.704.166-.953a8.07 8.07 0 0 0 .186-1.298c.006-.092.071-.542.146-1.001a19.62 19.62 0 0 0 .17-1.307l.036-.473-.203-.047c-.112-.025-.564-.047-1.004-.048l-.8-.001-.045.188c-.025.103-.075.713-.111 1.355-.036.642-.08 1.374-.098 1.626-.018.252-.06 1.474-.093 2.715l-.062 2.256.189.532h.497l.333-.333Z"/>
  </g>
  <g id="orange">
    <path fill="#f54927" d="m25.825 62.436-.803-.345-1.128-.732c-.961-.625-9.069-6.326-15.442-10.859l-1.874-1.333-.486-.711-.118-.857.436-.398.462-.17c.385-.142 8.171-2.077 11.642-2.893l.996-.234.045-.13c.025-.071.182-.745.349-1.496.413-1.856.373-1.8.851-1.218l.309.377.587.325c.323.179.925.446 1.337.594l.75.267 1.069.232c1.439.311 2.851.482 4.934.598l1.738.097 3.172-.198 2.403-.35 2.235-.578.68-.28c.375-.153.89-.416 1.146-.584l.464-.304.497-.675.173.149.341 1.532c.187.843.356 1.545.375 1.561.019.017 2.742 1.046 6.051 2.288 3.31 1.241 6.543 2.477 7.184 2.746l1.166.488.655.55-.103.974-.179.171c-.293.282-.763.503-2.754 1.296a24318.52 24318.52 0 0 1-20.604 8.193l-4.228 1.682-2.003.57h-1.521l-.804-.345Zm2.822-28.14c-.187-.019-.887-.094-1.555-.167l-1.215-.133-2.18-.47-1.185-.542-.377-.411.001-.218c.001-.225.117-.775 1.077-5.096a270.6 270.6 0 0 0 .392-1.793c.109-.504.233-.948.276-.986l.078-.069.816.357.843.156c1.172.218 2.385.32 4.535.383l1.847.055 3.167-.192 2.265-.332 1.058-.415.239.17.055.312c.03.171.147.724.26 1.228.113.505.332 1.499.487 2.21l.58 2.649.299 1.356-.123.421-.31.202c-.17.112-.565.3-.878.419l-.57.216-.98.203c-.54.111-1.44.263-2.002.336l-1.02.134-2.77.025c-1.523.014-2.923.01-3.11-.008Zm.292-18.377a51.72 51.72 0 0 1-2.304-.122l-.603-.06-.216-.223.301-1.361c.165-.749.341-1.53.391-1.736.05-.207.227-.995.393-1.751.166-.757.384-1.733.484-2.168.191-.832.372-1.648.872-3.919.559-2.539.602-2.702.798-3.055l.099-.179.474-.185h3.305l.557.247.1.273c.119.325.382 1.456.984 4.233.164.757.34 1.545.39 1.751.051.206.226.994.389 1.751.163.757.338 1.545.389 1.751.05.206.226.994.391 1.751.165.757.365 1.654.444 1.995l.145.618-.27.233-.963.071c-.529.039-1.837.088-2.906.108l-1.944.037-1.7-.06Z"/>
    <path fill="#eba79b" d="m25.825 62.436-.803-.345-1.128-.732c-.961-.625-9.069-6.326-15.442-10.859l-1.874-1.333-.486-.711-.118-.857.436-.398.462-.17c.385-.142 8.171-2.077 11.642-2.893l.996-.234.045-.13c.025-.071.182-.745.349-1.496.413-1.856.373-1.8.851-1.218l.309.377.587.325c.323.179.925.446 1.337.594l.75.267 1.069.232c1.439.311 2.851.482 4.934.598l1.738.097 3.172-.198 2.403-.35 2.235-.578.68-.28c.375-.153.89-.416 1.146-.584l.464-.304.497-.675.173.149.341 1.532c.187.843.356 1.545.375 1.561.019.017 2.742 1.046 6.051 2.288 3.31 1.241 6.543 2.477 7.184 2.746l1.166.488.655.55-.103.974-.179.171c-.293.282-.763.503-2.754 1.296a24318.52 24318.52 0 0 1-20.604 8.193l-4.228 1.682-2.003.57h-1.521l-.804-.345Zm6.823-18.876-2.456.001-.493-.028c-3.368-.19-5.593-.597-7.415-1.358l-.677-.282-.613-.491c-.337-.27-.63-.477-.651-.459-.02.018-.135.483-.253 1.033l-.325 1.5-.109.499-.194.028c-.107.015-1.418.322-2.915.684-9.529 2.299-9.706 2.345-10.2 2.679l-.248.167.001.265c0 .146.048.414.107.596l.107.332 1.194 1.033 7.775 5.489c4.277 3.019 8.228 5.779 8.781 6.134l1.005.645 1.56.67h1.455l.566-.126c.658-.146 1.978-.617 4.03-1.438l5.443-2.167c19.918-7.919 19.262-7.652 19.569-7.97l.129-.133.103-.972-.714-.538-.748-.322c-.411-.177-2.366-.931-4.344-1.675l-5.637-2.123a289.451 289.451 0 0 0-2.837-1.054l-.796-.285-.1-.375a34.141 34.141 0 0 1-.304-1.334 36.752 36.752 0 0 0-.256-1.147l-.053-.187-1.082.928-1.958.816-1.069.253a31.25 31.25 0 0 1-2.218.42l-1.149.167-2.011.125Zm-4.001-9.264c-.187-.019-.887-.094-1.555-.167l-1.215-.133-2.18-.47-1.185-.542-.377-.411.001-.218c.001-.225.117-.775 1.077-5.096a270.6 270.6 0 0 0 .392-1.793c.109-.504.233-.948.276-.986l.078-.069.816.357.843.156c1.172.218 2.385.32 4.535.383l1.847.055 3.167-.192 2.265-.332 1.058-.415.239.17.055.312c.03.171.147.724.26 1.228.113.505.332 1.499.487 2.21l.58 2.649.299 1.356-.123.421-.31.202c-.17.112-.565.3-.878.419l-.57.216-.98.203c-.54.111-1.44.263-2.002.336l-1.02.134-2.77.025c-1.523.014-2.923.01-3.11-.008Zm1.091-.067.318.023 1.352-.026.349-.002 2.867-.022 2.872-.435 1.793-.513.362-.204c.199-.112.433-.297.52-.411l.158-.207-.55-2.524c-.302-1.388-.63-2.88-.729-3.316a88.912 88.912 0 0 1-.301-1.397l-.123-.604h-.106c-.058 0-.34.076-.626.169l-.52.17-2.167.317-2.273.136-1.76-.001h-1.216a55.378 55.378 0 0 1-2.817-.169l-1.167-.117-.774-.17c-.425-.094-.817-.208-.87-.253-.1-.086-.445-.115-.445-.037 0 .025-.064.316-.142.646-.078.331-.255 1.127-.394 1.769-.138.642-.334 1.542-.436 2.001-.553 2.494-.679 3.105-.68 3.298l-.001.213.632.524 1.149.435.98.201c.833.17 1.829.306 3.557.487.099.011.551.017 1.188.019Zm-.799-18.31a51.72 51.72 0 0 1-2.304-.122l-.603-.06-.216-.223.301-1.361c.165-.749.341-1.53.391-1.736.05-.207.227-.995.393-1.751.166-.757.384-1.733.484-2.168.191-.832.372-1.648.872-3.919.559-2.539.602-2.702.798-3.055l.099-.179.474-.185h3.305l.557.247.1.273c.119.325.382 1.456.984 4.233.164.757.34 1.545.39 1.751.051.206.226.994.389 1.751.163.757.338 1.545.389 1.751.05.206.226.994.391 1.751.165.757.365 1.654.444 1.995l.145.618-.27.233-.963.071c-.529.039-1.837.088-2.906.108l-1.944.037-1.7-.06Zm-.154-.085c.913.032 1.922.063 2.243.069.833.015 4.588-.131 5.072-.198l.407-.056.096-.213-.131-.572c-.072-.314-.224-1.003-.337-1.53A72.907 72.907 0 0 0 35.838 12c-.05-.207-.224-.994-.388-1.751a99.708 99.708 0 0 0-.389-1.751c-.05-.207-.225-.995-.388-1.751-.164-.757-.338-1.545-.389-1.751-.05-.207-.182-.807-.293-1.335a38.789 38.789 0 0 0-.355-1.523l-.151-.564-.494-.333-3.478.026-.462.312-.197.77c-.195.759-.29 1.177-.884 3.897-.165.757-.342 1.545-.392 1.751-.05.207-.226.995-.391 1.752-.164.756-.381 1.732-.481 2.167-.101.436-.321 1.405-.489 2.153l-.307 1.361.101.225.557.06c.306.033 1.304.086 2.217.119Z"/>
    <path fill="#ee8774" d="m32.648 43.56 2.011-.125 1.149-.167a31.25 31.25 0 0 0 2.218-.42l1.069-.253 1.958-.816 1.082-.928.053.187c.029.103.144.619.256 1.147.111.527.248 1.128.304 1.334l.1.375.796.285c.438.157 1.715.632 2.837 1.054l5.637 2.123c1.978.744 3.933 1.498 4.344 1.675l.748.322.714.538-.103.972-.129.133c-.307.318.349.051-19.569 7.97l-5.443 2.167c-2.052.821-3.372 1.292-4.03 1.438l-.566.126h-1.455l-1.56-.67-1.005-.645c-.553-.355-4.504-3.115-8.781-6.134l-7.775-5.489-1.194-1.033-.107-.332a2.366 2.366 0 0 1-.107-.596l-.001-.265.248-.167c.494-.334.671-.38 10.2-2.679 1.497-.362 2.808-.669 2.915-.684l.194-.028.109-.499.325-1.5c.118-.55.233-1.015.253-1.033.021-.018.314.189.651.459l.613.491.677.282c1.822.761 4.047 1.168 7.415 1.358l.493.028h-1.691l-.875-.107c-3.214-.392-5.179-.954-6.544-1.87-.338-.228-.63-.401-.648-.386-.03.026-.826 3.745-.826 3.862v.053l-.194-.103v-.907h-.116c-.071 0-1.903.435-4.103.966-.775.179-1.547.366-2.313.561-2.479.604-4.836 1.186-5.307 1.319l-.905.256-.483.358-.014.168c-.008.093.046.355.12.584l.135.415.54.461c.297.254 1.984 1.48 3.748 2.724 1.764 1.245 5.284 3.733 7.823 5.53 2.539 1.797 5.065 3.555 5.613 3.907l.996.64.648.283c.356.155.783.312.948.348l.299.067 1.226-.082.763-.207c1.01-.273-1.393.672 26.184-10.3.903-.359 1.812-.75 2.021-.869l.38-.215.093-.211c.052-.116.094-.37.094-.565v-.354l-.535-.438-.972-.414c-1.096-.468-.982-.424-7.884-3.017-2.787-1.047-5.148-1.915-5.248-1.93l-.182-.027.046 1.084-.091-.167c-.049-.092-.248-.936-.441-1.876-.193-.94-.375-1.779-.404-1.864l-.053-.154-.306.25a7.884 7.884 0 0 1-.924.59l-.618.339-.792.263c-1.006.334-2.616.684-4.047.88l-1.118.154h-1.587Zm.81 10.373-.875.092-1.361-.013c-1.563-.014-1.571-.014-3.061-.242-1.544-.237-2.84-.484-3.01-.576l-.138-.053c-.159-.041-.279-.115-.375-.168l.487.044.91.167c.501.092 1.239.247 1.64.345.282.066.591.113.924.146l2.897.039 3.093.006-.128.061c-.071.034-.522.102-1.003.152Zm-3.72-19.704a23.657 23.657 0 0 1-1.188-.019c-1.728-.181-2.724-.317-3.557-.487l-.98-.201-1.149-.435-.632-.524.001-.213c.001-.193.127-.804.68-3.298.102-.459.298-1.359.436-2.001.139-.642.316-1.438.394-1.769.078-.33.142-.621.142-.646 0-.078.345-.049.445.037.053.045.445.159.87.253l.774.17 1.167.117c.61.061 1.847.134 2.817.169h-2.234l-2.236-.302-.711-.204c-.819-.235-.847-.23-.921.192-.03.173-.187.915-.349 1.649-.722 3.282-1.177 5.465-1.177 5.648v.199l.534.439.552.216c1.072.421 3.213.789 5.571.957l.751.053Zm3.196-8.846 2.273-.136 2.167-.317.52-.17c.286-.093.568-.169.626-.169h.106l.123.604c.068.333.203.961.301 1.397.099.436.427 1.928.729 3.316l.55 2.524-.158.207c-.087.114-.321.299-.52.411l-.362.204-1.793.513-2.872.435-2.867.022-.349.002.495-.009c2.15-.042 3.236-.134 4.893-.419l1.2-.206 1.538-.509.704-.569-.062-.314c-.189-.961-1.39-6.498-1.539-7.094l-.111-.444-.153.044c-.806.23-1.688.408-2.627.53l-1.122.147h-1.69Zm-4.149-9.549a48.392 48.392 0 0 1-2.217-.119l-.557-.06-.101-.225.307-1.361c.168-.748.388-1.717.489-2.153.1-.435.317-1.411.481-2.167.165-.757.341-1.545.391-1.752.05-.206.227-.994.392-1.751.594-2.72.689-3.138.884-3.897l.197-.77.462-.312 3.478-.026.494.333.151.564c.083.311.243.996.355 1.523.111.528.243 1.128.293 1.335.051.206.225.994.389 1.751.163.756.338 1.544.388 1.751.051.206.226.994.389 1.751.164.757.338 1.544.388 1.751.05.206.184.807.297 1.334.113.527.265 1.216.337 1.53l.131.572-.096.213-.407.056c-.484.067-4.239.213-5.072.198-.321-.006-1.33-.037-2.243-.069Zm-.575-.083c.748.032 2.082.064 2.964.07l1.603.013 1.628-.085 1.628-.084.501-.164-.052-.229c-.056-.245-2.009-9.098-2.496-11.319-.161-.733-.343-1.534-.404-1.779l-.111-.446-.367-.401h-3.666l-.149.128c-.082.07-.194.267-.25.437-.134.41-3.016 13.341-3.016 13.531v.148l.413.061c.227.034 1.025.088 1.774.119Z"/>
    <path fill="#e96750" d="M15.195 45.069c2.2-.531 4.032-.966 4.103-.966h.116v.907l.194.103v-.053c0-.117.796-3.836.826-3.862.018-.015.31.158.648.386 1.365.916 3.33 1.478 6.544 1.87l.875.107 5.734-.001 1.118-.154c1.431-.196 3.041-.546 4.047-.88l.792-.263.618-.339c.339-.187.755-.452.924-.59l.306-.25.053.154c.029.085.211.924.404 1.864.193.94.392 1.784.441 1.876l.091.167-.046-1.084.182.027c.1.015 2.461.883 5.248 1.93 6.902 2.593 6.788 2.549 7.884 3.017l.972.414.535.438v.354c0 .195-.042.449-.094.565l-.093.211-.38.215c-.209.119-1.118.51-2.021.869-27.577 10.972-25.174 10.027-26.184 10.3l-.763.207-1.226.082-.299-.067c-.165-.036-.592-.193-.948-.348l-.648-.283-.996-.64c-.548-.352-3.074-2.11-5.613-3.907a8955.472 8955.472 0 0 0-7.823-5.53c-1.764-1.244-3.451-2.47-3.748-2.724l-.54-.461-.135-.415c-.074-.229-.128-.491-.12-.584l.014-.168.483-.358.905-.256c.471-.133 2.828-.715 5.307-1.319-.803.205-1.6.419-2.384.646-1.842.534-3.663.693-4.189 1.27l-.13.135.129.503.616.851 5.782 4.096c3.026 2.298 4.746 3.451 8.979 6.351l3.609 2.39 1.25.606.347.061.347.06.486-.041c1.671-.143 7.512-2.634 8.504-3.03 6.707-2.674 13.413-5.349 20.118-8.028l.534-.214.305-.277c.389-.355.522-.581.522-.89v-.248l-.617-.445-1.174-.483c-1.363-.561-12.523-4.757-12.652-4.757h-.087v2.293l-.195.328c-.107.18-.244.341-.304.358l-.111.03-.21-1.025c-.28-1.365-.364-2.94-.843-4.26l-.054-.149-.6.288c-1.309.628-3.296 1.141-5.604 1.447l-1.118.148-5.637-.004-1.166-.149c-1.585-.202-2.787-.432-3.792-.723l-.843-.244-.828-.378c-.455-.208-1.221-.739-1.258-.739h-.068l-.123.771c-.421 2.634-.436 2.491-.53 2.889l-.142.379-.113-.033c-.062-.017-.065.057-.219-.2l-.086-.161.008-.443-.041-.423h-.082c-1.334.282-2.682.572-4.023.883Zm17.987 9.041s-1.479.08-2.219.065c-1.494-.03-3.109-.147-4.551-.535a64.937 64.937 0 0 1-2.678-.789c-.033-.011-.088-.067-.055-.077 1.221-.349 3.638.743 4.919.793 2.444.095 4.893-.063 7.338-.026.053.001.051.123 0 .137-.575.16-1.171.262-1.766.355-.325.052-.657.064-.988.077Zm.276-.177c.481-.05.932-.118 1.003-.152l.128-.061-3.093-.006-2.897-.039a7.19 7.19 0 0 1-.924-.146 35.324 35.324 0 0 0-1.64-.345l-.91-.167-.487-.044c.096.053.216.127.375.168l.138.053c.17.092 1.466.339 3.01.576 1.49.228 1.498.228 3.061.242l1.361.013.875-.092Zm-4.941 7.669c-.039.037-.08.076-.133.095-.186.066-.376.142-.577.156a5.406 5.406 0 0 1-1.033-.045.716.716 0 0 1-.311-.124c-.069-.048-.185-.128-.14-.194.076-.111.427-.056.396-.182-.04-.17-.333-.198-.508-.286-.331-.167-.679-.31-1.008-.48-.065-.034-.248-.133-.172-.129.262.014 1.181.427 1.286.462.728.243 1.23.215 2.087.153.011-.001 1.505-.322 1.541-.283.146.159-.423.179-.639.26-.233.088-.517.102-.708.248-.075.057.071.17.052.255-.012.048-.081.074-.133.094Zm.47-27.426c-2.358-.168-4.499-.536-5.571-.957l-.552-.216-.534-.439v-.199c0-.183.455-2.366 1.177-5.648.162-.734.319-1.476.349-1.649.074-.422.102-.427.921-.192l.711.204 2.236.302h3.45l3.45.001 1.122-.147c.939-.122 1.821-.3 2.627-.53l.153-.044.111.444c.149.596 1.35 6.133 1.539 7.094l.062.314-.704.569-1.538.509-1.2.206c-1.657.285-2.743.377-4.893.419l-1.847.035-1.069-.076Zm-.237-.091c4.325.305 9.986-.357 10.87-1.271l.123-.127-.493-2.485c-.492-2.477-.593-3.911-.896-5.032-.152-.563-1.395.096-2.564.148l-1.166.144h-6.706l-2.379-.289-1.461-.398-.047.179c-.103.392-.554 2.645-1.012 5.051l-.483 2.538.169.27.941.439.873.218c1.03.256 2.814.516 4.231.615Zm-.54-18.334c-.749-.031-1.547-.085-1.774-.119l-.413-.061v-.148c0-.19 2.882-13.121 3.016-13.531.056-.17.168-.367.25-.437l.149-.128h3.666l.367.401.111.446c.061.245.243 1.046.404 1.779.487 2.221 2.44 11.074 2.496 11.319l.052.229-.501.164-1.628.084-1.628.085-1.603-.013c-.882-.006-2.216-.038-2.964-.07Zm-.376-.082 1.25.07 5.832-.071.613-.075c.223-.027.673.078.662-.115-.031-.543-1.787-8.752-1.911-9.342l-.874-4.154-.269-.552-.374-.038c-.206-.021-.711-.01-1.122.025l-.714.003-1.032-.02-.519.052-.325.584-.55 2.501c-.641 2.914-1.308 5.824-1.94 8.739-.152.7-.441 1.391-.441 2.104v.119l.232.05c.127.027.794.081 1.482.12ZM33.21 2.023c.008.16.015.321.01.481-.003.106-.024.131-.094.207-.023.025-.078.078-.095.05-.081-.133-.105-.393-.126-.518-.031-.181-.106-.474-.017-.661.01-.019.033-.014.048-.008a.58.58 0 0 1 .15.092c.079.09.103.254.124.357Z"/>
    <path fill="#f54927" d="m26.891 62.539-.347-.061-1.25-.606-3.609-2.39c-4.233-2.9-5.953-4.053-8.979-6.351l-5.782-4.096-.616-.851-.129-.503.13-.135c.526-.577 2.347-.736 4.189-1.27 2.828-.818 5.807-1.475 8.72-2.09h.082l.041.423-.008.443.086.161c.154.257.157.183.219.2l.113.033.142-.379c.094-.398.109-.255.53-2.889l.123-.771h.068c.037 0 .803.531 1.258.739l.828.378.843.244c1.005.291 2.207.521 3.792.723l1.166.149 5.637.004 1.118-.148c2.308-.306 4.295-.819 5.604-1.447l.6-.288.054.149c.479 1.32.563 2.895.843 4.26l.21 1.025.111-.03c.06-.017.197-.178.304-.358l.195-.328v-2.293h.087c.129 0 11.289 4.196 12.652 4.757l1.174.483.617.445v.248c0 .309-.133.535-.522.89l-.305.277-.534.214c-6.705 2.679-13.411 5.354-20.118 8.028-.992.396-6.833 2.887-8.504 3.03l-.486.041-.347-.06Zm6.291-8.429c.331-.013.663-.025.988-.077.595-.093 1.191-.195 1.766-.355.051-.014.053-.136 0-.137-2.445-.037-4.894.121-7.338.026-1.281-.05-3.698-1.142-4.919-.793-.033.01.022.066.055.077.885.28 1.777.546 2.678.789 1.442.388 3.057.505 4.551.535.74.015 2.219-.065 2.219-.065Zm-5.577 6.535-.001.24 1.286-.097 1.117-.305c.985-.27 4.311-1.352 5.103-1.661.16-.063 1.144-.414 2.187-.781 1.808-.637 2.457-.876 3.547-1.304.267-.105 2.061-.8 3.985-1.544 3.877-1.5 10.191-3.986 11.322-4.457l.729-.303.664-.515-.187-.27-1.298-.559c-1.551-.667-4.492-1.773-4.941-1.856l-1.307-.473s-6.136-2.43-6.215-2.241l.01 1.212-.044 1.115c-.124 0-.156 2.03-1.142 3.384-.411.563-2.043 1.728-2.291 1.89-1.27.832-1.676.986-4.679 1.867l-1.117.213-3.694.182-1.215-.11c-.668-.061-1.361-.106-1.539-.101l-.325.01-.136.152a4.176 4.176 0 0 0-.369.568l-.234.417.038.834c.053 1.142.051 1.127.153 1.485.05.175.11.428.134.563.024.134.068.367.099.516l.099.479c.023.115.062.34.086.5.023.161.072.386.109.501.036.114.066.316.066.449Zm-3.286-.185.586.305.377.014-.188-.147a22.122 22.122 0 0 0-.653-.47c-.633-.441-.512-.467.287-.062.365.184.788.362.941.394l.278.058-.054-.157c-.066-.191-.2-1.075-.416-2.743-.089-.687-.179-1.363-.198-1.5-.02-.138-.037-.565-.039-.948l-.002-.698.279-.366.408-.105c.225-.057.393-.117.375-.131a59.277 59.277 0 0 0-1.832-.5l-1.798-.474-1.45-.676c-.678-.505-1.875-2.124-1.932-3.652-.12-.635-.057-1.566-.216-2.765l.064-.763c.035-.42.048-.777.029-.794-.043-.039-1.728.359-7.411 1.75l-4.405 1.079-.425.172c-.235.094-.477.224-.539.288l-.113.117.131.448.407.325c.543.434 4.895 3.465 10.612 7.39a873.54 873.54 0 0 1 5.14 3.545c.575.414.983.662 1.757 1.066Zm4.198 1.142c.052-.02.121-.046.133-.094.019-.085-.127-.198-.052-.255.191-.146.475-.16.708-.248.216-.081.785-.101.639-.26-.036-.039-1.53.282-1.541.283-.857.062-1.359.09-2.087-.153-.105-.035-1.024-.448-1.286-.462-.076-.004.107.095.172.129.329.17.677.313 1.008.48.175.088.468.116.508.286.031.126-.32.071-.396.182-.045.066.071.146.14.194a.716.716 0 0 0 .311.124c.341.042.689.069 1.033.045.201-.014.391-.09.577-.156.053-.019.094-.058.133-.095Zm.233-27.517c-1.417-.099-3.201-.359-4.231-.615l-.873-.218-.941-.439-.169-.27.483-2.538c.458-2.406.909-4.659 1.012-5.051l.047-.179 1.461.398 2.379.289h6.706l1.166-.144c1.169-.052 2.412-.711 2.564-.148.303 1.121.404 2.555.896 5.032l.493 2.485-.123.127c-.884.914-6.545 1.576-10.87 1.271Zm-.916-18.416c-.688-.039-1.355-.093-1.482-.12l-.232-.05v-.119c0-.713.289-1.404.441-2.104.632-2.915 1.299-5.825 1.94-8.739l.55-2.501.325-.584.519-.052 1.032.02.714-.003c.411-.035.916-.046 1.122-.025l.374.038.269.552.874 4.154c.124.59 1.88 8.799 1.911 9.342.011.193-.439.088-.662.115l-.613.075-5.832.071-1.25-.07ZM33.21 2.023c-.021-.103-.045-.267-.124-.357a.58.58 0 0 0-.15-.092c-.015-.006-.038-.011-.048.008-.089.187-.014.48.017.661.021.125.045.385.126.518.017.028.072-.025.095-.05.07-.076.091-.101.094-.207a5.939 5.939 0 0 0-.01-.481Z"/>
    <path fill="#fe490d" fill-rule="nonzero" d="M27.605 60.645c0-.133-.03-.335-.066-.449a3.726 3.726 0 0 1-.109-.501c-.024-.16-.063-.385-.086-.5l-.099-.479a22.72 22.72 0 0 1-.099-.516 6.943 6.943 0 0 0-.134-.563c-.102-.358-.1-.343-.153-1.485l-.038-.834.234-.417c.128-.23.294-.485.369-.568l.136-.152.325-.01c.178-.005.871.04 1.539.101l1.215.11 3.694-.182 1.117-.213c3.003-.881 3.409-1.035 4.679-1.867.248-.162 1.88-1.327 2.291-1.89.986-1.354 1.018-3.384 1.142-3.384l.044-1.115-.01-1.212c.079-.189 6.215 2.241 6.215 2.241l1.307.473c.449.083 3.39 1.189 4.941 1.856l1.298.559.187.27-.664.515-.729.303c-1.131.471-7.445 2.957-11.322 4.457-1.924.744-3.718 1.439-3.985 1.544-1.09.428-1.739.667-3.547 1.304-1.043.367-2.027.718-2.187.781-.792.309-4.118 1.391-5.103 1.661l-1.117.305-1.286.097.001-.24Zm-3.286-.185c-.774-.404-1.182-.652-1.757-1.066a873.54 873.54 0 0 0-5.14-3.545c-5.717-3.925-10.069-6.956-10.612-7.39l-.407-.325-.131-.448.113-.117c.062-.064.304-.194.539-.288l.425-.172 4.405-1.079c5.683-1.391 7.368-1.789 7.411-1.75.019.017.006.374-.029.794l-.064.763c.159 1.199.096 2.13.216 2.765.057 1.528 1.254 3.147 1.932 3.652l1.45.676 1.798.474c.989.261 1.813.486 1.832.5.018.014-.15.074-.375.131l-.408.105-.279.366.002.698c.002.383.019.81.039.948.019.137.109.813.198 1.5.216 1.668.35 2.552.416 2.743l.054.157-.278-.058c-.153-.032-.576-.21-.941-.394-.799-.405-.92-.379-.287.062.255.178.549.389.653.47l.188.147-.377-.014-.586-.305Z"/>
  </g>
  <g id="grey">
    <path fill-opacity="0.25" d="M29.528 1.327h3.385c.102.219-.104.336-.471.443-.949.227-1.668.191-2.441.012-.363-.061-.492-.189-.473-.455Z"/>
    <path fill-opacity="0.25" d="m43.309 48.219.404.031c.007.074.009.147.008.222-.04 2.794-5.583 5.005-12.37 4.934-6.004-.063-10.406-2.065-11.958-4.249-.213-.298-.381-.748-.533-1.037-.193-.366-.425-.638-.486-.761-.171-.343-.295-.74-.088-1.032.26-.368.888-.751 1.2-.797.231-.034-.084.584-.125.854-.076.502-.115.873.131 1.634.916 2.837 6.031 4.344 11.893 4.78 3.564.265 7.267-.627 9.968-2.185.846-.488 1.366-1.088 1.786-2.142.036-.091.115-.166.17-.252Z"/>
    <path fill="#d8d5d2" d="M6.002 47.573v-.04l.156-.134a1.49 1.49 0 0 1 .193-.144l-.349.318Zm.556-.426c.673-.302 2.463-.74 9.454-2.42 1.845-.443 3.384-.831 3.421-.861.066-.054.15-.387.564-2.223l.206-.917.305-.402.472.854.996.68.707.288c1.309.533 3.301.934 5.624 1.133l1.263.108 3.888-.004.777-.104c.428-.057.854-.123.948-.146l.17-.042.486-1.651v-.165c0-.09.039-.185.086-.21.092-.049.169-.345.257-.99.03-.22.103-.501.164-.625l.126-.892c.009-.367.049-.827.089-1.021l.072-.354.072-1.505.203-1.102v-.479h-.121c-.067.001-.603.059-1.191.129l-1.069.128-2.527.047-2.527.048-1.652-.183c-2.656-.293-3.848-.542-4.997-1.041l-.521-.227-.184-.152c-.026-.524.005-.898.112-1.334.05-.207.228-.995.395-1.751l.576-2.585c.15-.665.324-1.472.388-1.793l.115-.584.161-.296c-.053.104-.163.509-.261.963a270.6 270.6 0 0 1-.392 1.793c-.96 4.321-1.076 4.871-1.077 5.096l-.001.218.377.411 1.185.542 2.18.47 1.215.133c.668.073 1.368.148 1.555.167.187.018 1.587.022 3.11.008l2.77-.025 1.02-.134a33.414 33.414 0 0 0 2.002-.336l.98-.203.57-.216a5.66 5.66 0 0 0 .878-.419l.31-.202.113-.388c.061.431.163.928.386 1.924.103.459.282 1.265.398 1.793l.39 1.751.344 1.542c.091.413.225.92.297 1.126.073.206.269 1.013.436 1.793.167.779.338 1.449.38 1.487.041.039 2.904 1.136 6.362 2.438 3.457 1.303 6.677 2.542 7.155 2.753l.585.26-.933-.391c-.641-.269-3.874-1.505-7.184-2.746-3.309-1.242-6.032-2.271-6.051-2.288-.019-.016-.188-.718-.375-1.561l-.341-1.532-.173-.149-.497.675-.464.304a8.168 8.168 0 0 1-1.146.584l-.68.28-2.235.578-2.403.35-3.172.198-1.738-.097c-2.083-.116-3.495-.287-4.934-.598l-1.069-.232-.75-.267a11.066 11.066 0 0 1-1.337-.594l-.587-.325-.309-.377c-.478-.582-.438-.638-.851 1.218a42.974 42.974 0 0 1-.349 1.496l-.045.13-.996.234c-3.471.816-11.257 2.751-11.642 2.893l-.314.116Zm17.314-22.655.014-.026c.099-.184.226-.54.281-.792a413.45 413.45 0 0 1 1.172-5.212c.048-.183.138-.577.2-.875.061-.299.172-.789.246-1.089l.135-.547-.077-.409.189.195.603.06a51.72 51.72 0 0 0 2.304.122l1.041.037c-1.762-.029-3.204-.066-3.425-.089l-.489-.05-.474 2.198c-.26 1.209-.679 3.13-.93 4.268l-.457 2.07.136.117c.279.24 2.066.588 3.771.735.214.019 1.745.022 3.402.007l3.013-.026.531-.087c.292-.048.765-.128 1.05-.179l.341-.052-.064-.291-.074-1.44-.029-.45-.045-.334c-.057-.122-.124-.476-.149-.786-.025-.311-.074-.605-.11-.654-.035-.049-.085-.34-.111-.645l-.047-.555-.069-.433-.106-.659a28.231 28.231 0 0 1-.146-1.034c-.037-.343-.067-.524-.212-1.3l-.049-.258-4.097-.056-.109-.001 1.551-.03a70.813 70.813 0 0 0 2.906-.108l.963-.071.238-.206c.114.707.236 1.334.412 2.113.098.436.273 1.224.389 1.751.116.527.292 1.315.39 1.751.098.436.274 1.242.391 1.793.117.55.271 1.15.343 1.334.025.063.054.152.089.276l-.214-.152-1.058.415-2.265.332-3.167.192-1.847-.055c-2.15-.063-3.363-.165-4.535-.383l-.843-.156-.816-.357-.078.069a.041.041 0 0 0-.009.012Zm1.956-9.031-.016-.084.257-1.126c.142-.619.343-1.51.446-1.98.378-1.719.58-2.625 1.257-5.649l.836-3.753c.08-.367.212-.845.294-1.063l.149-.396.1-.06-.096.174c-.196.353-.239.516-.798 3.055-.5 2.271-.681 3.087-.872 3.919-.1.435-.318 1.411-.484 2.168-.166.756-.343 1.544-.393 1.751-.05.206-.226.987-.391 1.736l-.289 1.308ZM29.17 1.339l.298-.179h.16l-.458.179Zm3.763-.179h.194l.207.178-.401-.178Zm.592.342.065.056.107.34c.059.187.193.735.298 1.218a765.385 765.385 0 0 0 .775 3.506 1920.26 1920.26 0 0 1 .777 3.502c.376 1.692.573 2.579.782 3.502.104.462.227 1.085.286 1.45l-.038-.164a211.41 211.41 0 0 1-.444-1.995 129.19 129.19 0 0 0-.391-1.751 99.708 99.708 0 0 1-.389-1.751 99.708 99.708 0 0 0-.389-1.751c-.05-.206-.226-.994-.39-1.751-.602-2.777-.865-3.908-.984-4.233l-.065-.178Zm5.241 23.302c.154.591.408 1.707.865 3.789.166.757.387 1.748.491 2.202a14.788 14.788 0 0 1 .253 1.393l-.264-1.196-.58-2.649c-.155-.711-.374-1.705-.487-2.21a41.162 41.162 0 0 1-.26-1.228l-.018-.101Zm18.615 24.553.035.016.582.467v.036l-.617-.519Zm.617.758-.001.617-.076.107.077-.724Zm-.137.808-.249.351-1.483.618c-.816.34-4.436 1.79-8.044 3.222-3.608 1.431-9.04 3.589-12.07 4.796a452.16 452.16 0 0 1-4.991 1.955l3.357-1.336 7.386-2.936a24318.52 24318.52 0 0 0 13.218-5.257c1.991-.793 2.461-1.014 2.754-1.296l.122-.117ZM29.958 62.267c-.173.063-.302.109-.377.133l-.924.297-.376.047 1.677-.477Zm-1.978.514c-.716.088-.696.087-1.205.003l-.018-.003h1.223Zm-1.432-.035-.139-.023-1.424-.629-.931-.595c-1.022-.654-16.451-11.535-17.216-12.141l-.075-.059L8.452 50.5c6.373 4.533 14.481 10.234 15.442 10.859l1.128.732.803.345.723.31ZM6.556 49.134l-.194-.153-.356-.668-.003-.5.089.643.464.678Z"/>
  </g>
</svg>
