<svg xmlns="http://www.w3.org/2000/svg" xml:space="preserve" fill-rule="evenodd" stroke-linejoin="round" stroke-miterlimit="2" clip-rule="evenodd" viewBox="0 0 64 64">
  <g id="grey">
    <path fill="#929090" d="M19.789 54a2.932 2.932 0 0 1-2.992-2.859l-.738-30.016h31.863l-.602 30.016A2.93 2.93 0 0 1 44.328 54H19.789Z"/>
    <path fill="#b5b5b5" d="m13.684 17.176.136-4.129a1.49 1.49 0 0 1 1.637-1.32l8.379.293.055-1.532a.48.48 0 0 1 .179-.398c.203-.078.418-.106.633-.082l14.293.5.774.195.214.473-.046 1.418 8.839.312a1.496 1.496 0 0 1 1.539 1.434l-.148 4.113-36.484-1.277Z"/>
  </g>
</svg>
