<svg xmlns="http://www.w3.org/2000/svg" xml:space="preserve" fill-rule="evenodd" stroke-linejoin="round" stroke-miterlimit="2" clip-rule="evenodd" viewBox="0 0 64 64">
  <g id="brown">
    <path fill="#754600" d="m15.115 45.503.554 6.125a10.947 10.947 0 0 1 .923-1.244c.071.043.145.08.222.111-.122.211-.299.48-.505.765a8.94 8.94 0 0 1-.605.753l.733 8.114h-5.175l.999-13.953a6.495 6.495 0 0 0 2.854-.671Zm29.095 5.51a10.238 10.238 0 0 1 1.08.733l1.983.811.134-6.291-2.442-1.584.011-.018a10.587 10.587 0 0 1-.367-.217.79.79 0 0 0 .12-.26c.151.074.315.161.486.256l.114.064 2.101.652.074-3.464a4.587 4.587 0 0 0 2.369.037l.139 4.946 6.108-8.375a9.456 9.456 0 0 1 .596-1.23c.091.063.186.119.285.167a9.739 9.739 0 0 1-.263.598c-.178.365-.36.684-.505.894l-.626 1.057a9.633 9.633 0 0 1 .933-.45.813.813 0 0 0 .171.265l.024.024a9.002 9.002 0 0 1-.508.265 7.679 7.679 0 0 1-.901.371l-5.245 8.856.31 11.007h-3.278l.143-6.724-2.713-1.76.007-.012a9.653 9.653 0 0 1-.512-.372c.065-.074.123-.156.172-.246Zm-9.456-24.502v13.148h-5.18V25.572c.707-.184 1.347-.655 1.867-1.33.904 1.155 2.09 1.94 3.313 2.269Z"/>
  </g>
  <g id="green">
    <path fill="#274100" d="M44.867 32.623a2.949 2.949 0 0 1-.019-.328c0-1.34.964-2.43 2.152-2.43.364 0 .708.102 1.009.282.331-1.66.935-2.77 1.624-2.77.731 0 1.367 1.248 1.684 3.077.303-.141.634-.218.98-.218 1.472 0 2.664 1.395 2.664 3.118 0 1.404-.792 2.59-1.882 2.981.101.365.155.75.155 1.147 0 2.422-2.004 4.387-4.476 4.387a4.506 4.506 0 0 1-3.58-1.748c-.785.276-1.619.179-2.205-.338-.803-.706-.884-1.967-.271-3.019-.909-.364-1.538-1.139-1.538-2.035 0-1.25 1.215-2.262 2.711-2.262.35 0 .685.055.992.156ZM41.216 49.73a.82.82 0 0 1-.064-.849.834.834 0 0 1 1.125-.348.889.889 0 0 1 .237.18 1.742 1.742 0 0 1 1.1.286.834.834 0 0 1 1.038-.212.834.834 0 0 1 .371 1.117.823.823 0 0 1-.642.438c.001.218-.049.437-.154.64-.379.735-1.336.989-2.141.575-.711-.371-1.066-1.146-.87-1.827Zm1.593-6.318a.809.809 0 0 1-.086-.363.83.83 0 0 1 .839-.824.83.83 0 0 1 .84.824.8.8 0 0 1-.037.241.818.818 0 0 1 .389.696.83.83 0 0 1-.84.821.849.849 0 0 1-.745-.436.798.798 0 0 1-.099.006c-.343 0-.621-.227-.621-.508 0-.202.147-.377.36-.457Zm14.217-3.607a.786.786 0 0 1-.315-.201.829.829 0 0 1 .031-1.176.832.832 0 0 1 1.176.004.83.83 0 0 1 .055 1.079l.007.007c.196.199.153.554-.093.796-.25.239-.606.27-.801.071-.142-.147-.158-.375-.06-.58Zm.274-7.079a1.05 1.05 0 0 1-.003-.08c0-.66.605-1.191 1.355-1.191.754 0 1.36.531 1.36 1.191 0 .36-.182.683-.47.902.294.409.47.928.47 1.493 0 1.324-.965 2.395-2.157 2.395-1.187 0-2.152-1.071-2.152-2.395 0-1.11.678-2.042 1.597-2.315Zm-49.905.069c-.381-1.09-.602-2.383-.602-3.77 0-3.89 1.742-7.05 3.891-7.05 1.704 0 3.153 1.99 3.679 4.755.07-.003.14-.005.211-.005 2.621 0 4.746 2.355 4.746 5.261 0 .668-.112 1.306-.316 1.894 1.99.07 3.578 1.628 3.578 3.544 0 1.957-1.664 3.547-3.719 3.547-.12 0-.24-.005-.357-.016l-.025.145c.242.37.382.811.382 1.285a2.365 2.365 0 0 1-2.556 2.352 6.45 6.45 0 0 1-4.08 1.437c-3.508 0-6.348-2.754-6.348-6.149 0-.35.03-.693.088-1.028-1.176-.547-1.979-1.65-1.979-2.921 0-1.738 1.504-3.163 3.407-3.281Zm15.316-17.316c-.685-.694-1.102-1.615-1.102-2.625 0-1.515.938-2.831 2.311-3.484a2.861 2.861 0 0 1-.111-.79c0-1.625 1.367-2.941 3.05-2.941.915 0 1.736.388 2.296 1.004 1.044-1.69 2.643-2.77 4.435-2.77 1.968 0 3.704 1.304 4.727 3.287.29-.153.618-.24.964-.24 1.196 0 2.164 1.031 2.164 2.301 0 .902-.489 1.684-1.202 2.061a3.77 3.77 0 0 1 1.167 2.184 3.125 3.125 0 0 1 2.832 3.102 3.128 3.128 0 0 1-3.137 3.121c-.466 0-.908-.101-1.305-.283 1.084 2.611.453 5.461-1.613 6.698-2.101 1.251-4.967.409-6.746-1.862-.679.883-1.565 1.416-2.535 1.416-1.856 0-3.408-1.955-3.792-4.571a2.954 2.954 0 0 1-1.083.204c-1.66 0-3.008-1.371-3.008-3.062 0-1.21.689-2.253 1.688-2.75Zm-5.973 32.128c.821-.503 1.864-.296 2.324.457.461.754.168 1.774-.656 2.278-.82.5-1.859.297-2.32-.461-.461-.754-.168-1.774.652-2.274Z"/>
  </g>
</svg>
