<svg xmlns="http://www.w3.org/2000/svg" xml:space="preserve" fill-rule="evenodd" stroke-linejoin="round" stroke-miterlimit="2" clip-rule="evenodd" viewBox="0 0 64 64">
  <g id="brown">
    <rect width="8" height="6" x="28" y="49.527" fill="#754600"/>
  </g>
  <g id="green">
    <path fill="#274100" d="m44.459 41.777 2.178 5.418c.07.188.109.379.109.571 0 .968-.937 1.761-2.074 1.761H19.328c-1.137 0-2.074-.793-2.074-1.761 0-.192.035-.383.109-.567l2.179-5.422c-1.005-.074-1.792-.662-1.792-1.363 0-.152.035-.301.105-.445l3.711-7.442h-.488c-.98 0-1.789-.41-1.789-.906a.52.52 0 0 1 .094-.293l6.477-9.629h-.231c-.574 0-1.043-.297-1.043-.664 0-.07.016-.144.055-.215l6.371-11.898c.144-.266.543-.449.988-.449.445 0 .848.183.988.449l6.371 11.898a.444.444 0 0 1 .055.215c0 .367-.469.664-1.043.664h-.232l6.474 9.629a.496.496 0 0 1 .098.293c0 .496-.809.906-1.789.906h-.488l3.711 7.442a1 1 0 0 1 .109.445c0 .701-.791 1.289-1.795 1.363Z"/>
  </g>
</svg>
