<?xml version="1.0" encoding="UTF-8" standalone="no"?>
<!DOCTYPE svg PUBLIC "-//W3C//DTD SVG 1.1//EN" "http://www.w3.org/Graphics/SVG/1.1/DTD/svg11.dtd">
<svg width="100%" height="100%" viewBox="0 0 64 64" version="1.1" xmlns="http://www.w3.org/2000/svg" xmlns:xlink="http://www.w3.org/1999/xlink" xml:space="preserve" xmlns:serif="http://www.serif.com/" style="fill-rule:evenodd;clip-rule:evenodd;stroke-linejoin:round;stroke-miterlimit:2;">
    <g id="surface1">
        <g>
            <path d="M16.969,47.684C17.414,47.07 17.832,46.613 17.906,46.668C17.977,46.719 17.672,47.262 17.227,47.875C16.781,48.488 16.359,48.945 16.289,48.891C16.219,48.84 16.52,48.301 16.969,47.684Z" style="fill:#754600;"/>
            <path d="M15.984,41.57L13.266,41.57L12.18,56.738L17.359,56.738L15.984,41.57Z" style="fill:#754600;"/>
            <path d="M33.004,16.887L33.395,16.5L29.781,12.84L29.391,13.227L33.004,16.887Z" style="fill:#754600;"/>
            <path d="M33.75,18.391L32.934,18.559L32.984,24.887L34.496,25.254L33.75,18.391Z" style="fill:#754600;"/>
            <path d="M40.422,13.035L40.098,12.516L32.934,16.977L33.258,17.496L40.422,13.035Z" style="fill:#754600;"/>
            <path d="M50.039,41.93L47.32,41.93L46.234,57.098L51.414,57.098L50.039,41.93Z" style="fill:#754600;"/>
        </g>
        <path d="M19.785,38.996C19.785,37.695 18.723,36.637 17.41,36.637C16.098,36.637 15.035,37.695 15.035,38.996C15.035,40.301 16.098,41.359 17.41,41.359C18.723,41.359 19.785,40.301 19.785,38.996Z" style="fill:#274100;"/>
        <path d="M17.656,44.219C18.48,43.719 19.523,43.922 19.98,44.676C20.441,45.43 20.148,46.449 19.328,46.953C18.508,47.453 17.465,47.25 17.004,46.496C16.543,45.742 16.836,44.723 17.656,44.219Z" style="fill:#274100;"/>
        <path d="M19.496,36.637C19.496,33.242 16.652,30.488 13.148,30.488C9.641,30.488 6.797,33.242 6.797,36.637C6.797,40.035 9.641,42.789 13.148,42.789C16.652,42.789 19.496,40.035 19.496,36.637Z" style="fill:#274100;"/>
        <path d="M20.242,28.602C20.242,25.695 18.117,23.34 15.492,23.34C12.871,23.34 10.746,25.695 10.746,28.602C10.746,31.508 12.871,33.863 15.492,33.863C18.117,33.863 20.242,31.508 20.242,28.602Z" style="fill:#274100;"/>
        <path d="M23.5,34.035C23.5,32.074 21.836,30.488 19.781,30.488C17.73,30.488 16.066,32.074 16.066,34.035C16.066,35.992 17.73,37.582 19.781,37.582C21.836,37.582 23.5,35.992 23.5,34.035Z" style="fill:#274100;"/>
        <path d="M12.23,32.691C12.23,30.875 10.594,29.402 8.57,29.402C6.551,29.402 4.91,30.875 4.91,32.691C4.91,34.508 6.551,35.98 8.57,35.98C10.594,35.98 12.23,34.508 12.23,32.691Z" style="fill:#274100;"/>
        <path d="M15.492,25.641C15.492,21.746 13.75,18.59 11.602,18.59C9.453,18.59 7.715,21.746 7.715,25.641C7.715,29.535 9.453,32.691 11.602,32.691C13.75,32.691 15.492,29.535 15.492,25.641Z" style="fill:#274100;"/>
        <path d="M46.492,38.84C46.809,37.953 47.879,32.012 48.824,32.012C49.77,32.012 50.551,37.953 50.871,38.84L58.961,47.109C59.047,47.352 59.09,47.605 59.09,47.863C59.09,49.094 55.563,45.07 54.332,45.07L42.688,45.07C41.457,45.07 38.559,49.094 38.559,47.863C38.559,47.605 38.602,47.352 38.688,47.109L46.492,38.84Z" style="fill:#274100;fill-rule:nonzero;"/>
        <path d="M46.609,35.699C46.91,34.809 47.93,28.871 48.824,28.871C49.723,28.871 50.465,34.809 50.766,35.699L58.449,43.969C58.531,44.211 58.574,44.465 58.574,44.723C58.574,45.953 55.223,41.93 54.055,41.93L42.996,41.93C41.824,41.93 39.074,45.953 39.074,44.723C39.074,44.465 39.113,44.211 39.195,43.969L46.609,35.699Z" style="fill:#274100;fill-rule:nonzero;"/>
        <path d="M46.809,32.156C47.086,31.266 48.008,25.324 48.824,25.324C49.641,25.324 50.316,31.266 50.59,32.156L57.574,40.426C57.648,40.664 57.688,40.918 57.688,41.176C57.688,42.406 54.641,38.383 53.578,38.383L43.523,38.383C42.461,38.383 39.961,42.406 39.961,41.176C39.961,40.918 39.996,40.664 40.07,40.426L46.809,32.156Z" style="fill:#274100;fill-rule:nonzero;"/>
        <path d="M47.012,28.32C47.258,27.434 48.09,21.492 48.824,21.492C49.559,21.492 50.164,27.434 50.414,28.32L56.699,36.59C56.766,36.832 56.801,37.086 56.801,37.344C56.801,38.574 54.059,34.551 53.105,34.551L44.055,34.551C43.098,34.551 40.848,38.574 40.848,37.344C40.848,37.086 40.883,36.832 40.945,36.59L47.012,28.32Z" style="fill:#274100;fill-rule:nonzero;"/>
        <path d="M47.156,24.113C47.383,23.223 48.148,17.281 48.824,17.281C49.5,17.281 50.059,23.223 50.289,24.113L56.078,32.383C56.141,32.621 56.172,32.875 56.172,33.133C56.172,34.363 53.648,30.34 52.766,30.34L44.43,30.34C43.551,30.34 41.477,34.363 41.477,33.133C41.477,32.875 41.508,32.621 41.57,32.383L47.156,24.113Z" style="fill:#274100;fill-rule:nonzero;"/>
        <path d="M47.445,19.613C47.633,18.727 48.266,12.785 48.824,12.785C49.383,12.785 49.848,18.727 50.035,19.613L54.82,27.883C54.871,28.125 54.895,28.379 54.895,28.637C54.895,29.867 52.809,25.844 52.082,25.844L45.195,25.844C44.465,25.844 42.75,29.867 42.75,28.637C42.75,28.379 42.777,28.125 42.828,27.883L47.445,19.613Z" style="fill:#274100;fill-rule:nonzero;"/>
        <path d="M42.73,11.516C42.73,10.332 41.996,9.375 41.09,9.375C40.184,9.375 39.445,10.332 39.445,11.516C39.445,12.695 40.184,13.652 41.09,13.652C41.996,13.652 42.73,12.695 42.73,11.516Z" style="fill:#558e2f;"/>
        <path d="M36.457,17.879C36.457,15.77 34.879,14.063 32.934,14.063C30.988,14.063 29.41,15.77 29.41,17.879C29.41,19.988 30.988,21.699 32.934,21.699C34.879,21.699 36.457,19.988 36.457,17.879Z" style="fill:#558e2f;"/>
        <path d="M42.102,14.063C40.715,14.867 37.488,14.805 34.902,13.922C32.313,13.035 31.34,11.664 32.727,10.859C34.109,10.051 37.336,10.113 39.926,11C42.512,11.883 43.488,13.258 42.102,14.063Z" style="fill:#558e2f;"/>
        <path d="M31.242,11.594C31.242,9.918 29.496,8.563 27.34,8.563C25.184,8.563 23.438,9.918 23.438,11.594C23.438,13.27 25.184,14.629 27.34,14.629C29.496,14.629 31.242,13.27 31.242,11.594Z" style="fill:#558e2f;"/>
        <path d="M32.914,19.113C32.914,17.438 31.164,16.082 29.012,16.082C26.855,16.082 25.105,17.438 25.105,19.113C25.105,20.789 26.855,22.148 29.012,22.148C31.164,22.148 32.914,20.789 32.914,19.113Z" style="fill:#558e2f;"/>
        <path d="M40.789,19.352C40.789,17.676 39.043,16.32 36.887,16.32C34.73,16.32 32.984,17.676 32.984,19.352C32.984,21.027 34.73,22.387 36.887,22.387C39.043,22.387 40.789,21.027 40.789,19.352Z" style="fill:#558e2f;"/>
        <path d="M40.789,10.617C40.789,8.945 39.867,7.586 38.734,7.586C37.598,7.586 36.676,8.945 36.676,10.617C36.676,12.293 37.598,13.652 38.734,13.652C39.867,13.652 40.789,12.293 40.789,10.617Z" style="fill:#558e2f;"/>
        <path d="M34.996,9.871C34.996,8.23 33.316,6.902 31.242,6.902C29.168,6.902 27.488,8.23 27.488,9.871C27.488,11.512 29.168,12.84 31.242,12.84C33.316,12.84 34.996,11.512 34.996,9.871Z" style="fill:#558e2f;"/>
    </g>
</svg>
