<svg xmlns="http://www.w3.org/2000/svg" xml:space="preserve" fill-rule="evenodd" stroke-linejoin="round" stroke-miterlimit="2" clip-rule="evenodd" viewBox="0 0 64 64">
  <g id="grey">
    <ellipse cx="32.222" cy="55.007" fill="#2f2f2f" rx="9.976" ry="2.993"/>
  </g>
  <g id="brown">
    <path fill="#976c4f" d="M35.672 47.5v6.414a6.058 6.058 0 0 1-3.043 1.149 5.766 5.766 0 0 1-2.993-1.149v-6.467c1.08.13 2.166.217 3.256.26.93-.037 1.857-.106 2.78-.207Z"/>
  </g>
  <g id="green">
    <path fill="#367c01" d="m40.942 36.386 1.396 2.476 5.187 5.453a40.146 40.146 0 0 1-14.633 3.392 40.169 40.169 0 0 1-14.637-3.382c-4.622-2.039.798.101 4.452-5.453a152.45 152.45 0 0 0 1.677-2.619 40.042 40.042 0 0 0 8.556 1.208 40.046 40.046 0 0 0 8.002-1.075Z"/>
    <path fill="#54b60b" d="M37.282 24.751c.994 1.507 2.044 3.03 3.015 4.308a25.984 25.984 0 0 0 5.596 5.798 39.998 39.998 0 0 1-12.953 2.604 39.992 39.992 0 0 1-12.969-2.604 32.12 32.12 0 0 0 5.274-5.798 118.985 118.985 0 0 0 3.208-4.483c1.511.508 3.087.818 4.689.918a18.381 18.381 0 0 0 4.14-.743Z"/>
    <path fill="#83e637" fill-rule="nonzero" d="M33.142 6a54.55 54.55 0 0 0 3.366 9.659 32.76 32.76 0 0 0 4.924 7.253 18.314 18.314 0 0 1-8.29 2.582 18.306 18.306 0 0 1-8.292-2.582 36.286 36.286 0 0 0 4.742-7.253A63.933 63.933 0 0 0 33.142 6Z"/>
  </g>
</svg>
