<svg xmlns="http://www.w3.org/2000/svg" xml:space="preserve" fill-rule="evenodd" stroke-linejoin="round" stroke-miterlimit="2" clip-rule="evenodd" viewBox="0 0 64 64">
  <g id="green">
    <path fill="#274100" d="m59.6 47.539 1.009 2.586c.09.242.141.496.141.754 0 1.23-1.105 2.242-2.445 2.242H40.777c-1.343 0-2.445-1.012-2.445-2.242 0-.258.047-.512.141-.754l1.008-2.584c-.42-.331-.68-.784-.68-1.28 0-.207.047-.414.137-.609l.54-1.175a1.211 1.211 0 0 1-.205-.665c0-.183.047-.363.129-.539l.828-1.655c-.577-.237-.957-.627-.957-1.068 0-.148.047-.296.129-.437l4.537-7.391h-.021c-.852 0-1.555-.328-1.555-.726a.41.41 0 0 1 .09-.246l5.567-7.309c.218-.289.808-.484 1.46-.484.657 0 1.247.195 1.465.484l5.567 7.309a.41.41 0 0 1 .09.246c0 .384-.651.702-1.464.725l4.538 7.392a.835.835 0 0 1 .129.437c0 .441-.379.832-.957 1.069l.828 1.654c.086.176.129.356.129.539 0 .237-.073.462-.204.665l.54 1.175c.089.195.136.402.136.609 0 .495-.259.948-.677 1.278Zm-40.847-2.594 5.067 5.18c.086.242.129.496.129.754 0 1.23-3.527-2.793-4.758-2.793H7.547c-1.231 0-4.129 4.023-4.129 2.793 0-.258.047-.512.133-.754l4.886-5.18h-.582c-1.167 0-3.921 4.023-3.921 2.793 0-.258.043-.512.125-.754l5.006-5.586h-.678c-1.063 0-3.567 4.024-3.567 2.793 0-.258.039-.512.114-.754l4.786-5.871h-.806c-.953 0-3.207 4.024-3.207 2.793 0-.258.035-.512.102-.754l4.582-6.25H9.293c-.883 0-2.957 4.024-2.957 2.793 0-.258.031-.512.094-.754l4.417-6.535h-.792c-.727 0-2.442 4.023-2.442 2.793 0-.258.028-.512.075-.754l4.617-8.269c.187-.887.824-6.829 1.379-6.829.558 0 1.023 5.942 1.211 6.829l4.785 8.269c.05.242.078.496.078.754 0 1.23-2.086-2.793-2.817-2.793h-.58l4.58 6.535c.059.242.09.496.09.754 0 1.231-2.523-2.793-3.402-2.793h-.82l4.754 6.25c.066.242.097.496.097.754 0 1.231-2.738-2.793-3.695-2.793h-.492l4.965 5.871c.074.242.113.496.113.754 0 1.231-3.047-2.793-4.11-2.793h-.319l5.191 5.586c.082.242.125.496.125.754 0 1.23-3.352-2.793-4.524-2.793h-.161ZM29.504 7.488A2.24 2.24 0 0 1 31.609 6a2.25 2.25 0 0 1 2.114 1.488l8.023 22.469c.09.242.133.496.133.754a2.253 2.253 0 0 1-2.242 2.242H23.59a2.25 2.25 0 0 1-2.113-2.996l8.027-22.469Z"/>
  </g>
  <g id="brown">
    <path fill="#754600" d="m15.186 48.086 1.087 12.027h-5.175l.861-12.027h3.227ZM34.59 32.953v6.692h-5.18v-6.692h5.18Zm17.539 20.168v6.992h-5.18v-6.992h5.18Z"/>
  </g>
</svg>
