<svg xmlns="http://www.w3.org/2000/svg" xml:space="preserve" fill-rule="evenodd" stroke-linejoin="round" stroke-miterlimit="2" clip-rule="evenodd" viewBox="0 0 64 64">
  <g id="brown">
    <rect width="8" height="7.391" x="29" y="48.648" fill="#754600"/>
    <path fill="#893d00" d="m45.457 42.246 2.176 5.422c.074.184.113.375.113.57 0 .965-.937 1.762-2.074 1.762H20.328c-1.137 0-2.074-.797-2.074-1.762 0-.191.035-.386.109-.566l2.18-5.426c-1.004-.07-1.797-.656-1.797-1.363 0-.149.039-.297.109-.442L22.563 33h-.485c-.98 0-1.789-.41-1.789-.906 0-.102.031-.199.094-.297l6.476-9.625h-.23c-.574 0-1.043-.301-1.043-.664a.43.43 0 0 1 .055-.215l6.371-11.898c.14-.27.543-.45.988-.45.445 0 .844.18.988.45l6.371 11.898c.036.07.055.141.055.215 0 .363-.469.664-1.043.664h-.23l6.472 9.625a.505.505 0 0 1 .098.297c0 .496-.809.906-1.789.906h-.488l3.711 7.441c.07.141.109.289.109.442 0 .707-.793 1.293-1.797 1.363Zm-2.66-.992h1.125c.98 0 1.789-.441 1.789-.973a.571.571 0 0 0-.098-.316L40.605 32h1.614c.816 0 1.492-.41 1.492-.906a.595.595 0 0 0-.082-.297l-5.399-9.625h.176c.489 0 .887-.254.887-.563a.39.39 0 0 0-.047-.183L33.84 10.324c-.125-.226-.461-.379-.84-.379-.379 0-.719.153-.84.379l-5.406 10.102a.39.39 0 0 0-.047.183c0 .309.398.563.887.563h.394l-5.398 9.629a.57.57 0 0 0-.082.293c0 .496.676.906 1.496.906h1.391l-5.012 7.969a.577.577 0 0 0-.094.312c0 .532.809.973 1.789.973h1.121l-3.785 6.016a.651.651 0 0 0-.105.335c0 .575.875 1.043 1.929 1.043h23.524c1.054 0 1.926-.468 1.926-1.043a.626.626 0 0 0-.102-.335l-3.789-6.016Z"/>
    <path fill="#754600" d="m33.109 9.434.051.511-.531 7.395-3.781 9.172 3.507-5.34-.32 4.426-3.523 7.211 3.363-4.938-.516 7.152-5.652 10.415 5.422-7.176L29 48.648h7.977l-1.93-10.386 5.266 8.523-5.485-11.762-.476-7.152 3.765 5.942-3.941-8.559-.336-4.992 2.398 3.636-2.601-6.64-.528-7.824Z"/>
  </g>
</svg>
