<?xml version="1.0" encoding="UTF-8" standalone="no"?>
<!DOCTYPE svg PUBLIC "-//W3C//DTD SVG 1.1//EN" "http://www.w3.org/Graphics/SVG/1.1/DTD/svg11.dtd">
<svg width="100%" height="100%" viewBox="0 0 64 64" version="1.1" xmlns="http://www.w3.org/2000/svg" xmlns:xlink="http://www.w3.org/1999/xlink" xml:space="preserve" xmlns:serif="http://www.serif.com/" style="fill-rule:evenodd;clip-rule:evenodd;stroke-linejoin:round;stroke-miterlimit:2;">
    <rect x="28" y="35.734" width="8" height="20" style="fill:#754600;"/>
    <g id="surface1">
        <path d="M30.035,15.875C30.32,15.164 31.113,14.684 31.996,14.684C32.887,14.684 33.68,15.164 33.965,15.875L46.637,47.402C46.707,47.59 46.746,47.781 46.746,47.973C46.746,48.941 45.809,49.734 44.672,49.734L19.328,49.734C18.191,49.734 17.254,48.941 17.254,47.973C17.254,47.781 17.289,47.59 17.363,47.406L30.035,15.875Z" style="fill:#274100;fill-rule:nonzero;"/>
        <path d="M30.102,15.613C30.379,15.059 31.145,14.684 31.996,14.684C32.859,14.684 33.625,15.059 33.898,15.613L46.145,40.176C46.215,40.316 46.254,40.469 46.254,40.621C46.254,41.371 45.348,41.992 44.246,41.992L19.758,41.992C18.652,41.992 17.75,41.371 17.75,40.621C17.75,40.469 17.785,40.32 17.855,40.176L30.102,15.613Z" style="fill:#274100;fill-rule:nonzero;"/>
        <path d="M30.305,15.297C30.551,14.93 31.234,14.684 32,14.684C32.766,14.684 33.445,14.93 33.695,15.297L44.613,31.535C44.68,31.629 44.711,31.727 44.711,31.828C44.711,32.324 43.902,32.734 42.922,32.734L21.078,32.734C20.098,32.734 19.289,32.324 19.289,31.828C19.289,31.727 19.32,31.629 19.383,31.535L30.305,15.297Z" style="fill:#274100;fill-rule:nonzero;"/>
        <path d="M31.012,9.129C31.156,8.863 31.555,8.68 32,8.68C32.445,8.68 32.848,8.863 32.988,9.129L39.359,21.027C39.398,21.098 39.414,21.172 39.414,21.242C39.414,21.609 38.945,21.906 38.371,21.906L25.629,21.906C25.055,21.906 24.586,21.609 24.586,21.242C24.586,21.172 24.602,21.098 24.641,21.027L31.012,9.129Z" style="fill:#274100;fill-rule:nonzero;"/>
    </g>
</svg>
