<svg xmlns="http://www.w3.org/2000/svg" xml:space="preserve" fill-rule="evenodd" stroke-linejoin="round" stroke-miterlimit="2" clip-rule="evenodd" viewBox="0 0 64 64">
  <g id="brown">
    <path fill="#754600" d="m15.902 42.478.555 6.124c.106-.169.236-.359.381-.558.195-.269.384-.508.542-.687.071.043.145.079.223.11a9.694 9.694 0 0 1-.508.768 8.631 8.631 0 0 1-.603.751l.736 8.112h-5.18l.999-13.949a6.489 6.489 0 0 0 2.855-.671Zm21.927-27.91-2.046 1.274a3.955 3.955 0 0 0-.35-.503l1.439-.896c.32.053.64.094.957.125Zm-3.873 6.922.409 3.764-1.512-.367-.025-3.188a3.276 3.276 0 0 0 1.128-.209Zm-3.184-6.731-.921-.932a3.4 3.4 0 0 0 .422-.355l.971.983c-.165.088-.323.19-.472.304Zm19.42 30.311 1.091 12.028h-5.18l.86-12.028h3.229Z"/>
  </g>
  <g id="green">
    <path fill="#274100" d="M8.447 29.849c-.38-1.09-.601-2.383-.601-3.769 0-3.895 1.738-7.051 3.887-7.051 1.705 0 3.154 1.988 3.679 4.755.07-.003.141-.005.211-.005 2.625 0 4.75 2.355 4.75 5.262 0 .666-.111 1.302-.314 1.889 1.987.073 3.573 1.63 3.573 3.544 0 1.957-1.665 3.547-3.72 3.547-.12 0-.239-.006-.357-.016a3.506 3.506 0 0 1-.024.142c.244.371.385.813.385 1.288a2.368 2.368 0 0 1-2.559 2.356 6.447 6.447 0 0 1-4.078 1.437c-3.507 0-6.351-2.754-6.351-6.152 0-.35.03-.692.088-1.026-1.172-.548-1.975-1.65-1.975-2.92 0-1.739 1.505-3.164 3.406-3.281ZM53.762 41.93l5.067 5.179c.086.243.13.496.13.754 0 1.231-3.527-2.793-4.758-2.793H42.557c-1.231 0-4.13 4.024-4.13 2.793 0-.258.043-.511.13-.754l4.888-5.179h-.58c-1.173 0-3.923 4.023-3.923 2.793 0-.258.039-.512.122-.754l5.008-5.586h-.68c-1.063 0-3.563 4.023-3.563 2.793 0-.258.036-.512.11-.75l4.786-5.875h-.802c-.957 0-3.207 4.023-3.207 2.793 0-.258.036-.512.098-.754l4.585-6.25h-1.101c-.878 0-2.953 4.023-2.953 2.793 0-.258.032-.512.094-.75l4.417-6.539h-.792c-.73 0-2.445 4.023-2.445 2.793 0-.258.027-.512.078-.754l4.617-8.27c.188-.886.82-6.828 1.378-6.828.56 0 1.024 5.942 1.211 6.828l4.786 8.27c.051.242.075.496.075.754 0 1.23-2.087-2.793-2.813-2.793h-.582l4.578 6.539c.062.238.093.492.093.75 0 1.23-2.523-2.793-3.406-2.793h-.817l4.75 6.25c.067.242.103.496.103.754 0 1.23-2.743-2.793-3.697-2.793h-.492l4.961 5.875c.075.238.115.492.115.75 0 1.23-3.048-2.793-4.11-2.793h-.319l5.189 5.586c.082.242.125.496.125.754 0 1.23-3.351-2.793-4.519-2.793h-.161Zm-35.975 2.728c.824-.5 1.868-.297 2.324.457.461.754.169 1.773-.652 2.277-.82.5-1.862.297-2.324-.457-.461-.754-.168-1.773.652-2.277Z"/>
    <path fill="#558e2f" d="M27.723 8.589c.604-.998 1.893-1.687 3.387-1.687 2.075 0 3.755 1.328 3.755 2.969a2.4 2.4 0 0 1-.042.442 11.876 11.876 0 0 1 1.731.023c.095-1.541.976-2.75 2.049-2.75.854 0 1.589.774 1.899 1.873.144-.055.299-.084.457-.084.906 0 1.639.957 1.639 2.141 0 .386-.078.747-.215 1.06.382.549.275 1.088-.413 1.487-1.386.804-4.614.742-7.199-.141-1.07-.367-1.865-.816-2.33-1.274a4.639 4.639 0 0 1-1.667.18c-.608 1.061-1.975 1.801-3.566 1.801-2.156 0-3.902-1.359-3.902-3.035 0-1.676 1.746-3.031 3.902-3.031.174 0 .346.009.515.026Zm1.941 7.554c.582-1.235 1.769-2.08 3.138-2.08 1.451 0 2.698.95 3.237 2.308a4.95 4.95 0 0 1 .717-.051c2.155 0 3.902 1.356 3.902 3.032 0 1.675-1.747 3.035-3.902 3.035-1.089 0-2.073-.346-2.781-.905a3.271 3.271 0 0 1-2.535-.079c-.686.464-1.581.745-2.56.745-2.157 0-3.907-1.359-3.907-3.035 0-1.675 1.75-3.031 3.907-3.031.268 0 .531.021.784.061Z"/>
  </g>
</svg>
