<svg xmlns="http://www.w3.org/2000/svg" xml:space="preserve" fill-rule="evenodd" stroke-linejoin="round" stroke-miterlimit="2" clip-rule="evenodd" viewBox="0 0 64 64">
  <g id="brown">
    <path fill="#754600" d="M19 50.045v5.961h-6v-5.961h6Zm16-18v5.961h-6v-5.961h6Zm16 18v5.961h-6v-5.961h6Z"/>
  </g>
  <g id="green">
    <path fill="#274100" d="M14.117 27.318a1.997 1.997 0 0 1 1.879-1.324c.848 0 1.602.531 1.887 1.324l7.164 20.055a2.006 2.006 0 0 1-1.887 2.672H8.84a2.006 2.006 0 0 1-1.887-2.672l7.164-20.055Zm16-18a1.997 1.997 0 0 1 1.879-1.324c.848 0 1.602.531 1.887 1.324l7.164 20.055a2.006 2.006 0 0 1-1.887 2.672H24.84a2.006 2.006 0 0 1-1.887-2.672l7.164-20.055Zm16 18a1.997 1.997 0 0 1 1.879-1.324c.848 0 1.602.531 1.887 1.324l7.164 20.055a2.006 2.006 0 0 1-1.887 2.672H40.84a2.006 2.006 0 0 1-1.887-2.672l7.164-20.055Z"/>
  </g>
</svg>
