<svg xmlns="http://www.w3.org/2000/svg" xml:space="preserve" fill-rule="evenodd" stroke-linejoin="round" stroke-miterlimit="2" clip-rule="evenodd" viewBox="0 0 64 64">
  <g id="grey">
    <path fill="#2e2e2e" d="M61.37 31.008c.067.391.115.786.145 1.185.793 10.59-11.784 20.036-28.083 21.108-16.3 1.071-30.156-6.638-30.947-17.224a12.735 12.735 0 0 1 .145-3.082c1.696 9.969 15.118 17.069 30.802 16.037 14.696-.967 26.367-8.741 27.938-18.024Z"/>
  </g>
  <g id="blue">
    <path fill="#d1f8fd" d="M50.715 17.16c-2.864.731-8.185-.214-10.381-2.404-4.251 2.92-6.436 2.63-10.287 3.06-2.205.575-5.424-.198-9.844-2.565 3.206-1.092 6.762-1.809 10.528-2.057 7.661-.504 14.754 1.024 19.984 3.966Z"/>
    <path fill="#4f8198" d="M6.157 35.72c3.123.507 6.169-.416 10.648-3.324 2.959 1.981 6.817 2.884 11.372 2.951 4.318-.368 8.425-1.749 12.346-4.03 2.344 2.106 5.509 3.335 9.652 3.523 2.689-.045 5.918-1.044 8.513-3.253-.605 2.256-1.94 4.382-3.806 6.283-4.659 4.747-12.529 8.07-21.614 8.667-9.096.599-17.393-1.67-22.718-5.766-1.908-1.467-3.423-3.167-4.393-5.051Z"/>
    <path fill="#73a7c7" d="M6.228 25.79c2.893.648 6.082-.032 11.999-2.737 2.544 2.847 6.056 3.739 10.397 2.946 4.346-.583 8.453-1.765 12.196-3.882 2.475 2.217 5.51 3.46 8.979 3.952 3.688-.122 5.805-.669 7.625-2.805.909 1.496 1.469 3.12 1.598 4.847a10.357 10.357 0 0 1-.334 3.476c-2.595 2.209-5.824 3.208-8.513 3.253-4.143-.188-7.308-1.417-9.652-3.523-3.921 2.281-8.028 3.662-12.346 4.03-4.555-.067-8.413-.97-11.372-2.951-4.479 2.908-7.525 3.831-10.648 3.324a10.634 10.634 0 0 1-1.179-4.098c-.151-2.024.307-3.988 1.25-5.832Z"/>
    <path fill="#4bc3f1" d="M57.424 23.264c-1.82 2.136-3.937 2.683-7.625 2.805-3.469-.492-6.504-1.735-8.979-3.952-3.743 2.117-7.85 3.299-12.196 3.882-4.341.793-7.853-.099-10.397-2.946-5.917 2.705-9.106 3.385-11.999 2.737.708-1.384 1.689-2.701 2.89-3.925 2.728-2.78 6.556-5.072 11.085-6.614 4.42 2.367 7.639 3.14 9.844 2.565 3.851-.43 6.036-.14 10.287-3.06 2.196 2.19 7.517 3.135 10.381 2.404.98.551 1.894 1.152 2.735 1.799 1.652 1.271 3.009 2.716 3.974 4.305Z"/>
  </g>
  <g id="green">
    <path fill="#62fd13" d="M30.567 10.699c16.301-1.073 30.156 6.635 30.948 17.225.793 10.591-11.784 20.036-28.083 21.108-16.3 1.072-30.156-6.638-30.947-17.224-.791-10.585 11.781-20.034 28.082-21.109Zm.164 2.495c-9.086.599-16.955 3.924-21.613 8.671-2.799 2.853-4.405 6.212-4.14 9.757.266 3.557 2.364 6.682 5.572 9.149 5.325 4.096 13.622 6.365 22.718 5.766 9.085-.597 16.955-3.92 21.614-8.667 2.8-2.853 4.406-6.213 4.14-9.759-.266-3.56-2.365-6.685-5.572-9.152-5.326-4.097-13.622-6.364-22.719-5.765Z"/>
  </g>
</svg>
