<svg xmlns="http://www.w3.org/2000/svg" xml:space="preserve" fill-rule="evenodd" stroke-linejoin="round" stroke-miterlimit="2" clip-rule="evenodd" viewBox="0 0 64 64">
  <g id="green">
    <path fill="#274100" d="M32.581 14.613c.261-.111.493-.706.536-1.409a3.66 3.66 0 0 0 .005-.102 42.135 42.135 0 0 1 4.112.152C36.222 14.236 35.484 15.15 35 16c-.498 1.671-1.19 2.954-2 4-.94 1.122-1.573 2.243-1.889 3.365-.094 1.698-.483 3.249-1.201 4.635-1.681.929-3.196 1.914-4.41 3-.913.841-1.743 1.847-2.5 3-.775 1-1.945 2-3.5 3l-3.878 1.5c-1.512.508-3.024 1.382-4.536 2.67-.182-.131-.36-.264-.536-.399-3.208-2.467-5.306-5.592-5.572-9.149-.265-3.545 1.341-6.904 4.14-9.757 1.785-1.819 4.041-3.429 6.656-4.757-.186.667-.209 1.665-.026 2.768.298 1.789 1.042 3.234 1.721 3.418.108.553.236 1.104.395 1.652a27.133 27.133 0 0 1 1.08 6.718c.009.263-.017 1.406-.019 2.367a32.429 32.429 0 0 0-.946-2.657c-.531-1.294-1.121-2.57-1.88-3.737-.084-.131-.177-.256-.27-.382a.1.1 0 0 0-.136-.032c-.047.029-.062.09-.032.133.077.131.151.27.228.403.697 1.188 1.352 2.414 1.887 3.694.45 1.087.833 2.201 1.154 3.32.007.291.018.514.039.613.01.049.02.098.032.146a13.895 13.895 0 0 0-1.587-1.902 17.635 17.635 0 0 0-2.439-2.051c-.059-.04-.107-.102-.176-.119-.081-.022-.105.011-.193.017-.041-.028-.1-.017-.132.022a.09.09 0 0 0 .022.129c.01.082-.019.101.026.175.047.083.151.118.228.179.984.758 1.917 1.588 2.727 2.517.597.686 1.134 1.42 1.581 2.209a.3.3 0 0 0 .398.111.28.28 0 0 0 .114-.385l-.084-.144c.174-1.917.454-3.846.895-5.738.144-.624.306-1.242.488-1.854.448.4.875.824 1.267 1.274.514.591.977 1.223 1.362 1.902a.256.256 0 0 0 .342.096.243.243 0 0 0 .099-.332l-.073-.125c.104-1.145.252-2.296.46-3.437.134.139.263.281.389.426a9.566 9.566 0 0 1 1.14 1.6.241.241 0 0 0 .072.08.088.088 0 0 0 .078.07.092.092 0 0 0 .067-.024.248.248 0 0 0 .126-.031.238.238 0 0 0 .098-.329 7.675 7.675 0 0 0-.148-.247c.129-1.261.322-2.527.61-3.77.129-.556.277-1.107.447-1.65.462.399.899.824 1.296 1.282a9.637 9.637 0 0 1 1.141 1.601.246.246 0 0 0 .071.079.088.088 0 0 0 .078.071.092.092 0 0 0 .067-.024.248.248 0 0 0 .126-.031.237.237 0 0 0 .098-.329 9.981 9.981 0 0 0-.147-.246c.128-1.261.321-2.527.61-3.771a20.607 20.607 0 0 1 1.185-3.634c.154.198.296.407.419.627a.15.15 0 0 0 .039.044.05.05 0 0 0 .042.038.046.046 0 0 0 .036-.013.137.137 0 0 0 .068-.017.129.129 0 0 0 .054-.178 3.602 3.602 0 0 0-.08-.133c.07-.683.174-1.37.33-2.043.18-.773.427-1.528.767-2.243a.043.043 0 0 0-.021-.057c-.022-.011-.048 0-.059.02a11.106 11.106 0 0 0-.776 2.259c-.088.38-.16.765-.218 1.151.01-.081.023-.159.029-.237.011-.118.011-.235.017-.353l.004-.074a16.996 16.996 0 0 1 1.035-4.181.047.047 0 0 0-.027-.06.047.047 0 0 0-.061.027c-.377.963-.67 1.969-.862 2.991l-.03.162c.038-.68.079-1.361.126-2.042l.019-.274Zm-14.823 8.678c.643-.201.916-1.752.607-3.597-.242-1.454-.778-2.682-1.336-3.189a35.03 35.03 0 0 1 3.614-1.401c-.134.571-.143 1.384.005 2.278.256 1.54.896 2.784 1.482 2.942.093.477.203.951.34 1.423.459 1.585.762 3.206.882 4.875a13.316 13.316 0 0 0-.409-.297c-.042-.028-.078-.073-.129-.085-.073-.016-.075.014-.148.028a.083.083 0 0 0-.116.016.08.08 0 0 0 .017.109c.006.074-.025.077.011.142.032.06.11.087.167.131.217.17.432.345.641.525.006.113.01.227.014.341.007.226-.015 1.21-.017 2.037a27.563 27.563 0 0 0-1.472-3.777c.133-.312.273-.621.42-.928.018-.047 0-.1-.049-.122a.094.094 0 0 0-.124.046c-.124.258-.243.518-.357.779-.19-.381-.392-.755-.611-1.118.328-1.093.7-2.171 1.112-3.229a.1.1 0 0 0-.061-.128.103.103 0 0 0-.131.057 43.55 43.55 0 0 0-1.067 3.06 18.321 18.321 0 0 0-.093-.145c-.073-.113-.152-.22-.232-.329a.086.086 0 0 0-.117-.028c-.041.025-.054.078-.028.115.066.113.129.233.196.347l.187.323a42.524 42.524 0 0 0-.801 3.088l-.173-.122c-.05-.035-.092-.088-.152-.102-.069-.019-.089.009-.166.014-.035-.024-.085-.014-.114.02a.078.078 0 0 0 .02.11c.009.071-.016.087.022.151.04.071.13.102.197.154.091.07.182.141.272.213a39.73 39.73 0 0 0-.83 7.038c-.006-.768.067-2.784.051-3.042-.168-2.682-.671-5.367-1.367-8.051-.058-.223-.11-.447-.157-.672Zm4.621-2.969c.554-.173.787-1.509.522-3.098-.179-1.073-.544-2.004-.947-2.522a41.655 41.655 0 0 1 7.895-1.441c-.18.465-.31 1.071-.351 1.728-.086 1.373.25 2.467.755 2.504-.025.396-.051.793-.078 1.189-.11 1.633-.236 3.264-.334 4.895-.02.316-.05.635-.056.952-.002.077.001.154.004.231-.029.407-.05.815-.062 1.223a23.313 23.313 0 0 0-.887-2.622 21.861 21.861 0 0 0-.703-1.571l.037-.079a.082.082 0 0 0-.039-.106.083.083 0 0 0-.087.011c-.15-.289-.31-.571-.483-.846.192-.6.402-1.193.629-1.777a.085.085 0 0 0-.05-.11.09.09 0 0 0-.113.05 31.253 31.253 0 0 0-.591 1.646 9.607 9.607 0 0 0-.161-.22.085.085 0 0 0-.118-.027.082.082 0 0 0-.028.115c.056.097.107.196.162.294l.059.103c-.255.799-.478 1.61-.667 2.43a.207.207 0 0 0-.087-.052c-.065-.014-.074.008-.127.022.045-.753.094-1.507.146-2.261l.035-.506c.48-.207.909-1.305.988-2.6.079-1.283-.21-2.323-.66-2.483l.043-1.043c.002-.049-.039-.087-.093-.085a.112.112 0 0 0-.1.102c-.018.338-.039.676-.06 1.015-.509.12-.975 1.263-1.06 2.624-.032.516-.005.993.068 1.388a36.658 36.658 0 0 0-1.482 5.31 11.776 11.776 0 0 0-.606-1.053c-.065-.094-.133-.185-.199-.274a.086.086 0 0 0-.119-.028.082.082 0 0 0-.027.115c.056.097.106.196.162.294.248.428.491.861.72 1.301a35.096 35.096 0 0 0-.318 2.009c-.099-.084-.2-.166-.301-.247-.194-1.973-.584-3.948-1.096-5.922-.05-.192-.095-.385-.135-.578Zm8.062-2.863c.22-.095.43-.379.6-.783.102.182.202.366.296.553-.103.302-.201.605-.295.91a6.877 6.877 0 0 0-.471-.359c-.023-.015-.042-.04-.07-.046-.039-.008-.041.008-.081.015l.021-.29Zm.658-.931a5.99 5.99 0 0 0 .329-1.669c.04-.659-.016-1.254-.142-1.698.267-.014.533-.026.798-.035a3.543 3.543 0 0 0-.012.148c-.047.744.135 1.337.408 1.357-.013.215-.027.429-.042.644-.059.885-.127 1.768-.18 2.651-.012.172-.028.345-.031.516-.001.042.001.084.002.125-.016.221-.027.442-.033.663a12.675 12.675 0 0 0-.697-1.926c.15-.448.311-.891.481-1.329a.084.084 0 0 0-.05-.11.09.09 0 0 0-.113.05c-.149.383-.292.769-.426 1.158a7.684 7.684 0 0 0-.292-.545Zm-5.244 3.189c.136.475.352.776.612.794-.025.396-.051.793-.078 1.189-.11 1.634-.236 3.264-.334 4.895-.02.316-.05.635-.056.952-.002.076.001.152.004.227-.029.408-.05.817-.062 1.225a23.313 23.313 0 0 0-1.12-3.176 22.937 22.937 0 0 1 1.495-4.147.082.082 0 0 0-.042-.105.08.08 0 0 0-.107.04 23.099 23.099 0 0 0-1.455 3.961 21.21 21.21 0 0 0-.276-.592 36.92 36.92 0 0 1 1.419-5.263Zm-4.753 5.03c.202.358.397.719.585 1.085a26.397 26.397 0 0 0-.841 2.275 14.41 14.41 0 0 0-.499-.386c.216-1 .468-1.992.755-2.974Zm2.561 2.688c.062.055.123.112.184.168a33.472 33.472 0 0 0-.2 2.842c-.004-.666.058-2.392.044-2.613a26.465 26.465 0 0 0-.028-.397Zm-.275 2.772c.005.252.015.444.033.529.008.042.018.083.027.125a11.894 11.894 0 0 0-1.366-1.637c-.34-.345-.699-.673-1.073-.984.232-.739.494-1.468.791-2.184.211.424.411.855.594 1.293.387.936.717 1.896.994 2.858Zm2.393-1.137a10.481 10.481 0 0 0-1.351-1.537 31.467 31.467 0 0 1 .314-1.405 21.686 21.686 0 0 1 1.037 2.942Zm3.786-3.018c-.317-.443-.673-.86-1.058-1.251a12.727 12.727 0 0 0-1.162-1.036c.196-.583.419-1.156.671-1.717.235.451.454.911.648 1.381a21.686 21.686 0 0 1 .901 2.623Zm-2.092-4.997c.153.268.302.537.447.81-.27.585-.507 1.183-.714 1.792-.118-.09-.238-.179-.359-.265.179-.787.388-1.567.626-2.337Zm-1.023 2.542c.027.017.055.032.079.051l.061.048c-.054.252-.105.505-.153.758l-.052.283c.021-.38.042-.76.065-1.14Zm-2.083 1.738c.09.179.178.36.262.542a28.885 28.885 0 0 0-.35 1.517 11.991 11.991 0 0 0-.204-.182 36.21 36.21 0 0 1 .292-1.877ZM26.164 28a.099.099 0 0 0 .021-.032l-.034.233.013-.201Zm3.786-3.019a.106.106 0 0 0 .021-.031l-.034.229.013-.198Zm.458-7.053c.018.013.039.023.056.037.172.135.341.275.503.422a30.919 30.919 0 0 0-.742 3.049l-.052.284c.069-1.251.146-2.502.232-3.755l.003-.037ZM20.253 28.172c.153.125.305.253.454.383a31.935 31.935 0 0 0-.522 1.954 39.97 39.97 0 0 0-.748 4.32 40.165 40.165 0 0 1 .816-6.657Zm11.856-8.904a5.558 5.558 0 0 0-.26-.335l.097-.208a12.696 12.696 0 0 1 .163.543Zm-.661-1.812a11.614 11.614 0 0 1 .45 1.124.085.085 0 0 0-.086.045l-.081.172a6.295 6.295 0 0 0-.54-.531c.082-.271.168-.542.257-.81Zm.868 1.231a.041.041 0 0 0 .013-.023l-.02.141.007-.118Zm-2.326 6.135c.016-.114.033-.227.041-.34.021-.218.021-.434.032-.651l.007-.146a30.774 30.774 0 0 1 1.045-5.161c.146.139.286.284.417.435l.081.096a20.97 20.97 0 0 0-1.234 3.739 27.559 27.559 0 0 0-.389 2.028Zm-6.166 5.435c.032-.833.095-1.666.188-2.497l.166.164a36.387 36.387 0 0 0-.354 2.333Zm2.38-2.413c.015-.116.033-.23.041-.344.021-.217.021-.433.032-.651l.007-.147a30.832 30.832 0 0 1 .47-2.877c.106.085.21.171.313.258-.18.569-.337 1.147-.474 1.729a27.663 27.663 0 0 0-.389 2.032Zm17.262-10.195c.351-.155.665-.982.723-1.957a4.206 4.206 0 0 0-.087-1.216c3.63 1.009 6.823 2.54 9.348 4.483 3.207 2.467 5.306 5.592 5.572 9.152.266 3.546-1.34 6.906-4.14 9.759-4.659 4.747-12.529 8.07-21.614 8.667-3.592.237-7.059.026-10.268-.568L27 42c1.375-1.648 2.029-2.976 2-4 .815-2.037 2.382-3.415 4.229-4.548.121.837.409 1.402.781 1.429-.027.447-.055.895-.085 1.342-.121 1.842-.259 3.682-.367 5.522-.022.356-.055.717-.061 1.075-.002.086.001.172.004.257-.032.461-.055.921-.068 1.381a26.795 26.795 0 0 0-.974-2.956c-.421-1.065-.889-2.12-1.494-3.077-.072-.106-.146-.208-.219-.31a.094.094 0 0 0-.13-.031.095.095 0 0 0-.03.13c.062.11.117.221.178.332.551.978 1.083 1.981 1.505 3.033.379.936.698 1.892.96 2.858l.029.101c-.35-.5-.739-.971-1.162-1.411a14.196 14.196 0 0 0-1.953-1.686c-.046-.032-.086-.083-.142-.096-.079-.018-.082.016-.162.031a.09.09 0 0 0-.127.019.092.092 0 0 0 .018.123c.007.083-.027.086.013.159.034.068.12.099.182.148.778.625 1.519 1.308 2.162 2.071.474.56.898 1.159 1.252 1.806.02.037.047.067.079.09a.1.1 0 0 0 .085.08.1.1 0 0 0 .074-.028.273.273 0 0 0 .138-.035.272.272 0 0 0 .108-.371 11.303 11.303 0 0 0-.163-.28 35.39 35.39 0 0 1 .67-4.252c.338-1.498.795-2.963 1.413-4.36.238.241.468.49.686.748.473.561.898 1.16 1.251 1.807.02.037.047.067.079.09a.1.1 0 0 0 .086.079.096.096 0 0 0 .073-.028.273.273 0 0 0 .138-.035.271.271 0 0 0 .108-.371 12.545 12.545 0 0 0-.162-.277c.141-1.422.352-2.851.669-4.254.083-.369.174-.735.272-1.099.221.314.426.64.611.979.02.037.047.067.079.09.007.041.04.075.085.08a.103.103 0 0 0 .074-.027.274.274 0 0 0 .246-.407 12.618 12.618 0 0 0-.162-.278c.141-1.422.352-2.851.669-4.254.363-1.609.865-3.181 1.554-4.671a.095.095 0 0 0-.043-.12.091.091 0 0 0-.12.043c-.699 1.502-1.202 3.086-1.572 4.705-.172.762-.313 1.53-.429 2.301.017-.133.037-.265.047-.397.023-.246.023-.489.034-.735l.007-.151.045-.381c.051-.117.103-.233.157-.349a.095.095 0 0 0-.043-.12.09.09 0 0 0-.053-.007 36.237 36.237 0 0 1 1.452-6.323c.162.162.317.331.465.506.316.374.599.774.835 1.206a.17.17 0 0 0 .053.06.065.065 0 0 0 .056.053.066.066 0 0 0 .05-.019.176.176 0 0 0 .091-.023.181.181 0 0 0 .073-.248 4.305 4.305 0 0 0-.109-.186c.095-.949.236-1.902.447-2.838a15.604 15.604 0 0 1 1.037-3.117.063.063 0 0 0-.029-.08.06.06 0 0 0-.08.028 15.783 15.783 0 0 0-1.049 3.14 21.22 21.22 0 0 0-.286 1.538c.012-.09.025-.178.032-.267.014-.164.014-.327.022-.49l.005-.106a24.216 24.216 0 0 1 1.399-5.81.064.064 0 0 0-.037-.082.063.063 0 0 0-.081.037 23.612 23.612 0 0 0-1.206 4.379c.051-.944.107-1.889.171-2.835l.026-.381Zm-9.103 17.102c.425-.345.79-1.329.91-2.507.156.28.309.563.458.848l-.004.009c-.265.697-.51 1.405-.733 2.122a15.412 15.412 0 0 0-.51-.383c-.04-.028-.076-.07-.121-.089Zm.942-2.929.007-.185c.353-.456.612-.919.729-1.394.033.022.069.042.099.066a15.954 15.954 0 0 1 1.954 1.83c-.068 1.002-.136 2.003-.194 3.005-.023.356-.055.716-.062 1.074-.002.086.001.171.004.256-.032.46-.055.921-.068 1.381a26.852 26.852 0 0 0-.974-2.954c-.421-1.065-.888-2.12-1.494-3.077l-.001-.002Zm.8-1.978A2.23 2.23 0 0 0 36 29c-.03-2.03.25-3.75 1-5l2-3.5c.189-.329.362-.646.52-.951a7.895 7.895 0 0 0-.122.991c-.096 1.55.273 2.782.827 2.825-.027.447-.055.894-.085 1.341a640.78 640.78 0 0 1-.133 1.954 36.376 36.376 0 0 0-1.174 3.735 28.83 28.83 0 0 0-.159-.409c-.066-.166-.132-.332-.201-.497l.045-.676.039-.571c.527-.233.997-1.471 1.083-2.933.087-1.447-.229-2.62-.723-2.802l.047-1.177a.092.092 0 0 0-.102-.095.125.125 0 0 0-.111.114c-.02.382-.042.764-.066 1.146-.558.135-1.07 1.424-1.162 2.961-.095 1.548.274 2.782.828 2.824l-.05.8a15.741 15.741 0 0 0-1.121-2.172c-.071-.106-.145-.208-.218-.31a.094.094 0 0 0-.13-.031.095.095 0 0 0-.031.13c.062.11.117.221.179.332.46.819.909 1.655 1.29 2.523l-.005.07c-.039.605-.081 1.211-.122 1.816a14.315 14.315 0 0 0-1.785-1.514c-.046-.031-.086-.083-.142-.096-.058-.013-.075.002-.111.016Zm4.454-12.265a.61.61 0 0 0-.246.135c.082-.253.145-.491.187-.714.094-1.28.807-2.189 1.683-3 .325.071.647.146.967.226-.192.364-.336.933-.374 1.564-.063 1.033.183 1.856.552 1.885-.018.298-.037.597-.057.895-.08 1.229-.172 2.457-.244 3.685-.015.238-.037.478-.041.717a3.1 3.1 0 0 0 .003.168c-.022.308-.037.616-.046.923l-.013-.047a18.103 18.103 0 0 0-.812-2.356l.003-.008a.097.097 0 0 0-.055-.124l-.005-.002c-.165-.383-.344-.76-.547-1.121l.001-.012c.086-1.448-.231-2.62-.725-2.802.017-.392.032-.784.047-1.176.003-.056-.042-.099-.101-.096a.127.127 0 0 0-.111.114c-.02.382-.042.764-.066 1.146Zm-.128 5.748c.205-.091.402-.335.571-.685.144.126.286.255.424.389a35.572 35.572 0 0 0-1.29 5.11c.027-.502.055-1.004.085-1.507l.025-.067a.095.095 0 0 0-.016-.096c.051-.857.104-1.715.162-2.574l.039-.57Zm.699-.986a6.533 6.533 0 0 0 .359-1.627c.156.293.306.589.445.891-.136.358-.267.719-.392 1.083a9.102 9.102 0 0 0-.412-.347Zm1.977.972a.074.074 0 0 0 .015-.026l-.025.181.01-.155Zm-3.191 8.466-.037.26.014-.225a.118.118 0 0 0 .023-.035Zm-.788.775.109-.355a23.549 23.549 0 0 1 .236.823 11.27 11.27 0 0 0-.345-.468Zm-3.522 3.855c-.639 1.427-1.109 2.925-1.458 4.453a32.14 32.14 0 0 0-.425 2.282c.016-.127.035-.252.044-.377.022-.246.022-.49.034-.735l.008-.163a36.24 36.24 0 0 1 1.202-6.016c.203.18.401.365.595.556Zm-1.414-1.234c.026.016.051.031.074.049.196.158.39.319.581.484a35.008 35.008 0 0 0-.867 3.622l-.059.327c.076-1.413.16-2.828.255-4.243l.016-.239Zm1.656-1.855c.277.541.536 1.092.762 1.658.379.936.699 1.892.96 2.858l.028.101a11.719 11.719 0 0 0-1.16-1.412 14.18 14.18 0 0 0-1.279-1.17c.21-.687.44-1.366.689-2.035Zm4.112-5.967c-.066.951-.129 1.9-.185 2.85-.191.454-.367.915-.527 1.381a25.175 25.175 0 0 0-.291-.853c.28-1.144.615-2.273 1.003-3.378Zm2.085-5.5a16.83 16.83 0 0 1 .763 2.199l.019.067a7.95 7.95 0 0 0-1.128-1.289c.111-.328.226-.653.346-.977Zm-8.368 21.478a.116.116 0 0 0 .023-.036l-.038.266.015-.23Zm4.382-6.755c.018-.138.039-.274.049-.411.022-.245.022-.489.033-.734l.007-.142c.093-.844.218-1.686.372-2.523l.018-.099c.091.114.18.23.267.347-.115.413-.219.829-.315 1.247a31.418 31.418 0 0 0-.431 2.315Zm.384-6.615.041.101c.091.225.179.451.263.678-.087.356-.169.714-.245 1.073a8.824 8.824 0 0 0-.161-.172l.102-1.68Zm-.424 6.768a.12.12 0 0 0 .023-.037l-.037.261.014-.224Zm.28-4.354.004.005.068.081-.05.268-.06.331.038-.685Zm.573-1.29c.095.269.185.539.271.81a20.87 20.87 0 0 0-.153.484 11.641 11.641 0 0 0-.32-.379c.063-.306.131-.611.202-.915Zm.863-.301c-.011.173-.02.346-.023.519a3.69 3.69 0 0 0 .005.258c-.033.46-.056.921-.069 1.381a28.654 28.654 0 0 0-.307-1.063c.122-.369.253-.734.394-1.095Z"/>
    <path fill="#558e2f" d="M33.418 45.792a.265.265 0 0 1-.079-.09 10.89 10.89 0 0 0-1.252-1.806c-.643-.763-1.384-1.446-2.162-2.071-.062-.049-.148-.08-.182-.148-.04-.073-.006-.076-.013-.159a.092.092 0 0 1-.018-.123.09.09 0 0 1 .127-.019c.08-.015.083-.049.162-.031.056.013.096.064.142.096a14.196 14.196 0 0 1 1.953 1.686c.423.44.812.911 1.162 1.411l-.029-.101a25.175 25.175 0 0 0-.96-2.858c-.422-1.052-.954-2.055-1.505-3.033-.061-.111-.116-.222-.178-.332a.095.095 0 0 1 .03-.13.094.094 0 0 1 .13.031c.073.102.147.204.219.31.605.957 1.073 2.012 1.494 3.077a26.795 26.795 0 0 1 .974 2.956c.013-.46.036-.92.068-1.381a4.392 4.392 0 0 1-.004-.257c.006-.358.039-.719.061-1.075.108-1.84.246-3.68.367-5.522.129-1.929.227-3.861.337-5.791.05-.827.105-1.655.148-2.482a.125.125 0 0 1 .11-.114c.06-.003.105.04.102.096-.04 1.02-.079 2.042-.141 3.063-.073 1.257-.171 2.512-.26 3.768.044-.016.058-.034.121-.019.056.013.096.064.142.096.172.124.342.251.51.383.223-.717.468-1.425.733-2.122l.004-.009a40.728 40.728 0 0 0-.625-1.147c-.062-.111-.117-.222-.179-.333a.094.094 0 0 1 .031-.129.093.093 0 0 1 .13.031c.073.101.147.203.218.31.606.957 1.073 2.012 1.494 3.077a26.852 26.852 0 0 1 .974 2.954c.013-.46.036-.921.068-1.381a4.358 4.358 0 0 1-.004-.256c.007-.358.039-.718.062-1.074.058-1.002.126-2.003.194-3.005a15.954 15.954 0 0 0-1.954-1.83c-.062-.05-.148-.081-.182-.148-.04-.074-.006-.077-.012-.16a.092.092 0 0 1-.019-.123.09.09 0 0 1 .127-.019c.08-.015.083-.049.162-.031.056.013.096.065.142.096.634.454 1.233.962 1.785 1.514.041-.605.083-1.211.122-1.816l.005-.07c-.381-.868-.83-1.704-1.29-2.523-.062-.111-.117-.222-.179-.332a.095.095 0 0 1 .031-.13.094.094 0 0 1 .13.031c.073.102.147.204.218.31.433.685.796 1.42 1.121 2.172.112-1.749.202-3.5.302-5.249.05-.827.105-1.655.148-2.482a.125.125 0 0 1 .111-.114.092.092 0 0 1 .102.095c-.04 1.021-.08 2.043-.142 3.064-.087 1.474-.206 2.945-.304 4.419l-.045.676a28.83 28.83 0 0 1 .36.906 36.376 36.376 0 0 1 1.174-3.735c.045-.651.09-1.303.133-1.954.129-1.929.227-3.861.337-5.79.05-.828.105-1.655.148-2.483a.127.127 0 0 1 .111-.114c.059-.003.104.04.101.096a142.99 142.99 0 0 1-.14 3.064c-.05.84-.11 1.68-.171 2.52a.05.05 0 0 1 .019.01c.054-.011.055-.033.108-.021.038.009.065.043.095.064.275.198.541.41.794.636.125-.364.256-.725.392-1.083a20.634 20.634 0 0 0-.771-1.485c-.041-.074-.078-.148-.119-.222a.063.063 0 0 1 .02-.086.063.063 0 0 1 .087.021c.048.067.098.135.146.207.295.468.542.971.764 1.486l.005.002a.097.097 0 0 1 .055.124l-.003.008a18.103 18.103 0 0 1 .812 2.356l.013.047c.009-.307.024-.615.046-.923a3.1 3.1 0 0 1-.003-.168c.004-.239.026-.479.041-.717.072-1.228.164-2.456.244-3.685.087-1.287.153-2.576.226-3.864.033-.552.07-1.105.099-1.657a.082.082 0 0 1 .073-.076c.04-.002.07.027.068.064a87.326 87.326 0 0 1-.095 2.044c-.057.984-.136 1.966-.202 2.949-.064.946-.12 1.891-.171 2.835l.04-.221a23.612 23.612 0 0 1 1.166-4.158.063.063 0 0 1 .081-.037.064.064 0 0 1 .037.082 24.216 24.216 0 0 0-1.399 5.81l-.005.106c-.008.163-.008.326-.022.49-.007.089-.02.177-.032.267a21.22 21.22 0 0 1 .286-1.538c.247-1.08.583-2.137 1.049-3.14a.06.06 0 0 1 .08-.028c.029.014.041.049.029.08-.46.994-.794 2.043-1.037 3.117a23.616 23.616 0 0 0-.447 2.838c.038.061.074.123.109.186a.181.181 0 0 1-.073.248.176.176 0 0 1-.091.023.066.066 0 0 1-.05.019.065.065 0 0 1-.056-.053.17.17 0 0 1-.053-.06 7.279 7.279 0 0 0-.835-1.206 8.243 8.243 0 0 0-.465-.506 36.237 36.237 0 0 0-1.452 6.323.09.09 0 0 1 .053.007.095.095 0 0 1 .043.12c-.054.116-.106.232-.157.349l-.045.381-.007.151c-.011.246-.011.489-.034.735-.01.132-.03.264-.047.397.116-.771.257-1.539.429-2.301.37-1.619.873-3.203 1.572-4.705a.091.091 0 0 1 .12-.043c.043.022.061.075.043.12-.689 1.49-1.191 3.062-1.554 4.671a34.993 34.993 0 0 0-.669 4.254c.055.092.109.184.162.278a.274.274 0 0 1-.246.407.103.103 0 0 1-.074.027.097.097 0 0 1-.085-.08.265.265 0 0 1-.079-.09c-.185-.339-.39-.665-.611-.979-.098.364-.189.73-.272 1.099a34.993 34.993 0 0 0-.669 4.254c.055.091.109.184.162.277a.271.271 0 0 1-.108.371.273.273 0 0 1-.138.035.096.096 0 0 1-.073.028.1.1 0 0 1-.086-.079.265.265 0 0 1-.079-.09 10.935 10.935 0 0 0-1.251-1.807 13.095 13.095 0 0 0-.686-.748c-.618 1.397-1.075 2.862-1.413 4.36a35.39 35.39 0 0 0-.67 4.252c.056.093.11.186.163.28a.272.272 0 0 1-.108.371.273.273 0 0 1-.138.035.1.1 0 0 1-.074.028.1.1 0 0 1-.085-.08Zm.259-2.461-.015.23.038-.266a.116.116 0 0 1-.023.036Zm.515-8.156-.016.239a319.58 319.58 0 0 0-.255 4.243l.059-.327c.224-1.222.515-2.433.867-3.622a22.22 22.22 0 0 0-.581-.484c-.023-.018-.048-.033-.074-.049Zm1.656-1.855a36.031 36.031 0 0 0-.689 2.035c.45.364.878.755 1.279 1.17.422.44.811.911 1.16 1.412l-.028-.101a24.979 24.979 0 0 0-.96-2.858 19.557 19.557 0 0 0-.762-1.658Zm2.171 3.409-.014.224.037-.261a.12.12 0 0 1-.023.037Zm.28-4.354-.038.685.06-.331.05-.268a4.868 4.868 0 0 0-.068-.081l-.004-.005Zm.144-2.414-.102 1.68c.054.056.108.114.161.172.076-.359.158-.717.245-1.073a24.318 24.318 0 0 0-.263-.678l-.041-.101Zm1.517-2.608a36.127 36.127 0 0 0-1.003 3.378c.102.282.199.567.291.853.16-.466.336-.927.527-1.381.056-.95.119-1.899.185-2.85Zm.548-5.109a305.847 305.847 0 0 0-.278 4.227.095.095 0 0 1 .016.096l-.025.067c-.03.503-.058 1.005-.085 1.507l.059-.328a35.572 35.572 0 0 1 1.231-4.782 11.74 11.74 0 0 0-.823-.722c-.03-.023-.067-.041-.095-.065Zm1.537-.391c-.12.324-.235.649-.346.977a7.95 7.95 0 0 1 1.128 1.289l-.019-.067a16.83 16.83 0 0 0-.763-2.199Zm1.062 1.46a8.059 8.059 0 0 0-.01.155l.025-.181a.074.074 0 0 1-.015.026Zm-3.191 8.466a.118.118 0 0 1-.023.035l-.014.225.037-.26Zm-.788.775c.119.153.234.309.345.468l-.029-.102a23.549 23.549 0 0 0-.207-.721 36.79 36.79 0 0 0-.109.355Zm-1.069 4.022c.116-.776.257-1.549.431-2.315.096-.418.2-.834.315-1.247a12.782 12.782 0 0 0-.267-.347l-.018.099a35.339 35.339 0 0 0-.372 2.523l-.007.142c-.011.245-.011.489-.033.734-.01.137-.031.273-.049.411Zm-2.453-.167a15.59 15.59 0 0 0-.595-.556 36.24 36.24 0 0 0-1.202 6.016l-.008.163c-.012.245-.012.489-.034.735-.009.125-.028.25-.044.377a32.14 32.14 0 0 1 .425-2.282c.349-1.528.819-3.026 1.458-4.453Zm3.266-5.324c-.071.304-.139.609-.202.915.109.124.216.25.32.379.049-.162.1-.323.153-.484a26.522 26.522 0 0 0-.271-.81Zm.863-.301c-.141.361-.272.726-.394 1.095a28.654 28.654 0 0 1 .307 1.063c.013-.46.036-.921.069-1.381a3.69 3.69 0 0 1-.005-.258c.003-.173.012-.346.023-.519ZM19.486 36.29l.084.144a.28.28 0 0 1-.114.385.3.3 0 0 1-.398-.111 13.555 13.555 0 0 0-1.581-2.209c-.81-.929-1.743-1.759-2.727-2.517-.077-.061-.181-.096-.228-.179-.045-.074-.016-.093-.026-.175a.09.09 0 0 1-.022-.129c.032-.039.091-.05.132-.022.088-.006.112-.039.193-.017.069.017.117.079.176.119a17.635 17.635 0 0 1 2.439 2.051 13.895 13.895 0 0 1 1.587 1.902 3.436 3.436 0 0 1-.032-.146 4.552 4.552 0 0 1-.039-.613 31.138 31.138 0 0 0-1.154-3.32c-.535-1.28-1.19-2.506-1.887-3.694-.077-.133-.151-.272-.228-.403-.03-.043-.015-.104.032-.133a.1.1 0 0 1 .136.032c.093.126.186.251.27.382.759 1.167 1.349 2.443 1.88 3.737.355.872.67 1.763.946 2.657.002-.961.028-2.104.019-2.367a27.133 27.133 0 0 0-1.08-6.718c-.673-2.318-.788-4.702-1.186-7.051-.169-1.004-.332-2.013-.509-3.02a.1.1 0 0 1 .088-.119c.063-.003.122.039.132.1.233 1.245.465 2.485.676 3.73.302 1.79.39 3.603.85 5.377.696 2.684 1.199 5.369 1.367 8.051.016.258-.057 2.274-.051 3.042a39.73 39.73 0 0 1 .83-7.038c-.09-.072-.181-.143-.272-.213-.067-.052-.157-.083-.197-.154-.038-.064-.013-.08-.022-.151a.078.078 0 0 1-.02-.11c.029-.034.079-.044.114-.02.077-.005.097-.033.166-.014.06.014.102.067.152.102l.173.122c.228-1.039.496-2.07.801-3.088l-.187-.323c-.067-.114-.13-.234-.196-.347-.026-.037-.013-.09.028-.115a.086.086 0 0 1 .117.028c.08.109.159.216.232.329l.093.145a43.55 43.55 0 0 1 1.067-3.06.103.103 0 0 1 .131-.057.1.1 0 0 1 .061.128 42.824 42.824 0 0 0-1.112 3.229c.219.363.421.737.611 1.118.114-.261.233-.521.357-.779a.094.094 0 0 1 .124-.046c.049.022.067.075.049.122-.147.307-.287.616-.42.928a27.563 27.563 0 0 1 1.472 3.777c.002-.827.024-1.811.017-2.037a19.039 19.039 0 0 0-.014-.341c-.209-.18-.424-.355-.641-.525-.057-.044-.135-.071-.167-.131-.036-.065-.005-.068-.011-.142a.08.08 0 0 1-.017-.109.083.083 0 0 1 .116-.016c.073-.014.075-.044.148-.028.051.012.087.057.129.085.138.096.275.196.409.297a23.538 23.538 0 0 0-.882-4.875c-.58-1.996-.679-4.049-1.021-6.071-.146-.865-.286-1.734-.438-2.601-.01-.053.024-.095.075-.102a.108.108 0 0 1 .114.086c.2 1.072.4 2.14.581 3.211.26 1.542.337 3.103.733 4.63.512 1.974.902 3.949 1.096 5.922.101.081.202.163.301.247.086-.672.193-1.342.318-2.009-.229-.44-.472-.873-.72-1.301-.056-.098-.106-.197-.162-.294a.082.082 0 0 1 .027-.115.086.086 0 0 1 .119.028c.066.089.134.18.199.274.22.339.421.691.606 1.053a36.786 36.786 0 0 1 1.828-6.228.09.09 0 0 1 .113-.049.086.086 0 0 1 .052.11 36.893 36.893 0 0 0-1.855 6.442c.095.196.187.393.276.592.369-1.36.844-2.689 1.455-3.961.019-.04.066-.059.107-.04.042.019.057.065.042.105a22.937 22.937 0 0 0-1.495 4.147 23.313 23.313 0 0 1 1.12 3.176c.012-.408.033-.817.062-1.225a3.426 3.426 0 0 1-.004-.227c.006-.317.036-.636.056-.952.098-1.631.224-3.261.334-4.895.118-1.71.207-3.422.308-5.132.045-.734.095-1.467.135-2.2a.112.112 0 0 1 .1-.102c.054-.002.095.036.093.085-.036.906-.073 1.811-.128 2.716-.079 1.307-.189 2.61-.278 3.916a247.24 247.24 0 0 0-.146 2.261c.053-.014.062-.036.127-.022.033.007.06.029.087.052.189-.82.412-1.631.667-2.43a3.442 3.442 0 0 0-.059-.103c-.055-.098-.106-.197-.162-.294a.082.082 0 0 1 .028-.115.085.085 0 0 1 .118.027c.054.072.108.145.161.22.182-.555.379-1.104.591-1.646a.09.09 0 0 1 .113-.05.085.085 0 0 1 .05.11 30.906 30.906 0 0 0-.629 1.777c.173.275.333.557.483.846a.083.083 0 0 1 .087-.011.082.082 0 0 1 .039.106l-.037.079c.257.512.487 1.04.703 1.571a23.313 23.313 0 0 1 .887 2.622c.012-.408.033-.816.062-1.223-.003-.077-.006-.154-.004-.231.006-.317.036-.636.056-.952.098-1.631.224-3.262.334-4.895.118-1.71.208-3.422.308-5.132.045-.734.095-1.467.135-2.2a.112.112 0 0 1 .1-.102c.054-.002.095.036.093.085-.036.905-.072 1.811-.128 2.716-.075 1.235-.177 2.466-.263 3.699l.001.001c.04-.007.041-.023.08-.015.028.006.047.031.07.046.162.113.32.233.471.359.094-.305.192-.608.295-.91a16.98 16.98 0 0 0-.459-.839c-.03-.053-.057-.106-.088-.159a.044.044 0 0 1 .015-.062.047.047 0 0 1 .065.014c.035.049.072.098.107.149.154.237.29.485.414.741.134-.389.277-.775.426-1.158a.09.09 0 0 1 .113-.05.084.084 0 0 1 .05.11c-.17.438-.331.881-.481 1.329a12.675 12.675 0 0 1 .687 1.89l.01.036c.006-.221.017-.442.033-.663-.001-.041-.003-.083-.002-.125.003-.171.019-.344.031-.516.053-.883.121-1.766.18-2.651.064-.926.113-1.854.167-2.78.025-.398.052-.795.073-1.192a.062.062 0 0 1 .055-.055c.029-.001.051.019.05.046-.02.49-.04.981-.07 1.471-.043.708-.102 1.414-.151 2.122-.047.681-.088 1.362-.126 2.042l.03-.162c.192-1.022.485-2.028.862-2.991a.047.047 0 0 1 .061-.027.047.047 0 0 1 .027.06 16.996 16.996 0 0 0-1.035 4.181 1.834 1.834 0 0 0-.004.074c-.006.118-.006.235-.017.353-.006.078-.019.156-.029.237.058-.386.13-.771.218-1.151.183-.778.431-1.538.776-2.259.011-.02.037-.031.059-.02.021.009.031.035.021.057a11.04 11.04 0 0 0-.767 2.243c-.156.673-.26 1.36-.33 2.043.028.044.054.088.08.133a.129.129 0 0 1-.054.178.137.137 0 0 1-.068.017.046.046 0 0 1-.036.013.05.05 0 0 1-.042-.038.15.15 0 0 1-.039-.044 4.996 4.996 0 0 0-.419-.627 20.607 20.607 0 0 0-1.185 3.634 30.121 30.121 0 0 0-.61 3.771c.05.081.099.163.147.246a.237.237 0 0 1-.098.329.248.248 0 0 1-.126.031.092.092 0 0 1-.067.024.088.088 0 0 1-.078-.071.246.246 0 0 1-.071-.079 9.637 9.637 0 0 0-1.141-1.601 12.653 12.653 0 0 0-1.296-1.282c-.17.543-.318 1.094-.447 1.65a30.447 30.447 0 0 0-.61 3.77c.051.081.1.164.148.247a.238.238 0 0 1-.098.329.248.248 0 0 1-.126.031.092.092 0 0 1-.067.024.088.088 0 0 1-.078-.07.241.241 0 0 1-.072-.08 9.566 9.566 0 0 0-1.14-1.6 11.147 11.147 0 0 0-.389-.426 38.704 38.704 0 0 0-.46 3.437l.073.125a.243.243 0 0 1-.099.332.256.256 0 0 1-.342-.096 11.714 11.714 0 0 0-1.362-1.902 14.37 14.37 0 0 0-1.267-1.274c-.182.612-.344 1.23-.488 1.854-.441 1.892-.721 3.821-.895 5.738Zm.767-8.118a40.165 40.165 0 0 0-.816 6.657 39.97 39.97 0 0 1 .748-4.32c.154-.657.327-1.309.522-1.954-.149-.13-.301-.258-.454-.383Zm.849-3.425a42.859 42.859 0 0 0-.755 2.974c.169.125.336.254.499.386.246-.77.525-1.53.841-2.275a31.423 31.423 0 0 0-.585-1.085Zm2.286 5.46a27.166 27.166 0 0 0-.994-2.858 21.576 21.576 0 0 0-.594-1.293 26.098 26.098 0 0 0-.791 2.184c.374.311.733.639 1.073.984.505.507.963 1.053 1.366 1.637-.009-.042-.019-.083-.027-.125a3.79 3.79 0 0 1-.033-.529Zm.275-2.772c.01.132.02.265.028.397.014.221-.048 1.947-.044 2.613.026-.947.093-1.896.2-2.842-.061-.056-.122-.113-.184-.168Zm.706-2.1a36.21 36.21 0 0 0-.292 1.877c.069.06.137.121.204.182a28.479 28.479 0 0 1 .35-1.517 18.011 18.011 0 0 0-.262-.542Zm1.412 3.735a21.686 21.686 0 0 0-1.037-2.942 31.467 31.467 0 0 0-.314 1.405 10.481 10.481 0 0 1 1.351 1.537Zm.383-1.07-.013.201.034-.233a.099.099 0 0 1-.021.032Zm.288-4.403c-.023.38-.044.76-.065 1.14l.052-.283c.048-.253.099-.506.153-.758l-.061-.048c-.024-.019-.052-.034-.079-.051Zm1.023-2.542c-.238.77-.447 1.55-.626 2.337.121.086.241.175.359.265.207-.609.444-1.207.714-1.792a30.289 30.289 0 0 0-.447-.81Zm2.092 4.997a21.686 21.686 0 0 0-.901-2.623c-.194-.47-.413-.93-.648-1.381a18.839 18.839 0 0 0-.671 1.717c.409.322.798.669 1.162 1.036.385.391.741.808 1.058 1.251Zm.383-1.071-.013.198.034-.229a.106.106 0 0 1-.021.031Zm.458-7.053-.003.037a280.095 280.095 0 0 0-.232 3.755l.052-.284c.195-1.028.444-2.047.742-3.049a9.202 9.202 0 0 0-.503-.422c-.017-.014-.038-.024-.056-.037Zm1.04-.472a31.76 31.76 0 0 0-.257.81 6.605 6.605 0 0 1 .54.531l.081-.172a.085.085 0 0 1 .086-.045 11.614 11.614 0 0 0-.45-1.124Zm.661 1.812a12.696 12.696 0 0 0-.163-.543l-.097.208c.091.109.178.22.26.335Zm.207-.581-.007.118.02-.141a.041.041 0 0 1-.013.023Zm-2.326 6.135c.105-.679.233-1.357.389-2.028a20.97 20.97 0 0 1 1.234-3.739l-.081-.096a6.33 6.33 0 0 0-.417-.435 31.23 31.23 0 0 0-1.045 5.161l-.007.146c-.011.217-.011.433-.032.651-.008.113-.025.226-.041.34Zm-3.786 3.022c.105-.681.233-1.359.389-2.032.137-.582.294-1.16.474-1.729a15.89 15.89 0 0 0-.313-.258 30.832 30.832 0 0 0-.47 2.877l-.007.147c-.011.218-.011.434-.032.651-.008.114-.026.228-.041.344Zm-2.38 2.413c.093-.779.21-1.558.354-2.333l-.166-.164a34.288 34.288 0 0 0-.188 2.497Z"/>
  </g>
  <g id="blue">
    <path fill="#4bc3f1" d="M33.229 33.452C31.382 34.585 29.815 35.963 29 38c.029 1.024-.625 2.352-2 4l-4 3.969c-4.649-.86-8.756-2.525-11.914-4.799 1.512-1.288 3.024-2.162 4.536-2.67L19.5 37c1.555-1 2.725-2 3.5-3 .757-1.153 1.587-2.159 2.5-3 1.214-1.086 2.729-2.071 4.41-3 .718-1.386 1.107-2.937 1.201-4.635.316-1.122.949-2.243 1.889-3.365.81-1.046 1.502-2.329 2-4 .484-.85 1.222-1.764 2.234-2.746 1.708.148 3.363.399 4.949.746-.876.811-1.589 1.72-1.683 3a5.837 5.837 0 0 1-.187.714c-.335.288-.63.973-.793 1.835-.158.305-.331.622-.52.951L37 24c-.75 1.25-1.03 2.97-1 5 .092.286.124.567.105.844a.24.24 0 0 1-.051.015.09.09 0 0 0-.127.019.092.092 0 0 0 .019.123c.006.083-.028.086.012.16a.233.233 0 0 0 .083.082c-.117.475-.376.938-.729 1.394.033-1.321-.275-2.36-.737-2.529l.047-1.176c.003-.056-.042-.099-.102-.096a.125.125 0 0 0-.11.114c-.02.382-.042.764-.066 1.146-.558.136-1.07 1.425-1.161 2.961-.032.509-.013.985.046 1.395Z"/>
  </g>
  <g id="red">
    <path fill="#d40000" d="M30.567 10.699c16.301-1.073 30.156 6.635 30.948 17.225.793 10.591-11.784 20.036-28.083 21.108-16.3 1.072-30.156-6.638-30.947-17.224-.791-10.585 11.781-20.034 28.082-21.109Zm-14.793 6.409c-2.615 1.328-4.871 2.938-6.656 4.757-2.799 2.853-4.405 6.212-4.14 9.757.266 3.557 2.364 6.682 5.572 9.149 5.325 4.096 13.622 6.365 22.718 5.766 9.085-.597 16.955-3.92 21.614-8.667 2.8-2.853 4.406-6.213 4.14-9.759-.266-3.56-2.365-6.685-5.572-9.152-2.525-1.943-5.718-3.474-9.348-4.483-.086-.352-.225-.592-.396-.654l.031-.785c.002-.037-.028-.066-.068-.064a.082.082 0 0 0-.073.076c-.013.255-.028.51-.044.765-.143.035-.282.184-.402.412-3.097-.768-6.484-1.164-10.028-1.124.022-.648-.131-1.161-.363-1.243.009-.188.016-.377.024-.565.001-.027-.021-.047-.05-.046a.062.062 0 0 0-.055.055l-.032.55c-.257.06-.494.603-.562 1.273-.265.009-.531.021-.798.035-.118-.421-.299-.707-.517-.785l.042-1.043c.002-.049-.039-.087-.093-.085a.112.112 0 0 0-.1.102c-.018.338-.039.676-.06 1.015-.264.062-.515.398-.709.896a41.561 41.561 0 0 0-7.895 1.441c-.172-.222-.352-.368-.526-.418l-.228-1.225a.108.108 0 0 0-.114-.086c-.051.007-.085.049-.075.102.07.399.137.799.204 1.198-.264.052-.461.359-.571.831a34.96 34.96 0 0 0-3.615 1.401.96.96 0 0 0-.375-.226c-.087-.474-.176-.948-.265-1.423-.01-.061-.069-.103-.132-.1a.1.1 0 0 0-.088.119c.081.464.16.928.237 1.391-.283.057-.499.365-.632.842Z"/>
  </g>
  <g id="brown">
    <path fill="#29241e" d="M61.37 31.008c.067.391.115.786.145 1.185.793 10.59-11.784 20.036-28.083 21.108-16.3 1.071-30.156-6.638-30.947-17.224a12.735 12.735 0 0 1 .145-3.082c1.696 9.969 15.118 17.069 30.802 16.037 14.696-.967 26.367-8.741 27.938-18.024Z"/>
    <path fill="#754600" d="M21.267 14.266c.623-.043 1.355 1.284 1.634 2.958.28 1.678.004 3.073-.618 3.116-.623.043-1.356-1.283-1.635-2.958-.278-1.679-.002-3.073.619-3.116Zm-4.799 1.992c.723-.05 1.573 1.491 1.897 3.436.326 1.948.004 3.568-.718 3.618-.723.05-1.575-1.49-1.899-3.436-.323-1.949-.003-3.568.72-3.618Zm24.161 1.31c.584-.039.981 1.225.886 2.825-.095 1.599-.65 2.932-1.234 2.972-.585.039-.982-1.224-.883-2.825.095-1.6.646-2.931 1.231-2.972Zm-10.008-5.213c.532-.035.894 1.086.807 2.504-.087 1.418-.592 2.599-1.124 2.634-.533.036-.895-1.085-.806-2.504.088-1.417.59-2.598 1.123-2.634Zm2.059-.507c.288-.019.484.588.437 1.356-.047.768-.32 1.408-.609 1.427-.289.019-.485-.588-.436-1.357.047-.767.319-1.407.608-1.426Zm-5.845 3.525c.532-.035.894 1.086.807 2.504-.087 1.418-.592 2.599-1.125 2.634-.532.036-.894-1.085-.805-2.504.088-1.417.59-2.598 1.123-2.634Zm16.763-1.566c.39-.028.655.817.591 1.885-.063 1.067-.433 1.956-.823 1.983-.39.026-.655-.817-.59-1.885.064-1.068.432-1.956.822-1.983Zm-9.184 15.278c.584-.04.981 1.225.886 2.825-.096 1.599-.65 2.932-1.235 2.971-.584.04-.981-1.223-.882-2.824.095-1.6.646-2.931 1.231-2.972Zm4.34-6.601c.585-.041.982 1.225.886 2.825-.094 1.599-.648 2.931-1.233 2.971-.585.04-.982-1.224-.884-2.824.096-1.6.647-2.931 1.231-2.972Z"/>
  </g>
</svg>
