<svg xmlns="http://www.w3.org/2000/svg" xml:space="preserve" fill-rule="evenodd" stroke-linejoin="round" stroke-miterlimit="2" clip-rule="evenodd" viewBox="0 0 64 64">
  <g id="brown">
    <path fill="#29241e" d="M61.37 31.008c.067.391.115.786.145 1.185.793 10.59-11.784 20.036-28.083 21.108-16.3 1.071-30.156-6.638-30.947-17.224a12.735 12.735 0 0 1 .145-3.082c1.696 9.969 15.118 17.069 30.802 16.037 14.696-.967 26.367-8.741 27.938-18.024Z"/>
  </g>
  <g id="green">
    <path fill="#274100" d="M30.731 13.194c9.097-.599 17.393 1.668 22.719 5.765 3.207 2.467 5.306 5.592 5.572 9.152.266 3.546-1.34 6.906-4.14 9.759-4.659 4.747-12.529 8.07-21.614 8.667-9.096.599-17.393-1.67-22.718-5.766-3.208-2.467-5.306-5.592-5.572-9.149-.265-3.545 1.341-6.904 4.14-9.757 4.658-4.747 12.527-8.072 21.613-8.671Zm16.526 21.985c-.631 0-1.283.281-1.456.626-.173.345.199.626.83.626s1.284-.281 1.456-.626c.173-.345-.199-.626-.83-.626Zm-1.808-7.947c-2.084-4.202-9.511-7.167-18.13-6.908-9.967.299-17.754 4.794-17.393 10.042.361 5.248 8.733 9.259 18.7 8.961 7.176-.215 13.224-2.604 15.912-5.886v1.287h9l2-2.183v-6.518l-.031.034h-8.969l-1.089 1.171Zm4.87 7.968c-.631 0-1.283.281-1.456.626-.173.345.199.626.83.626s1.284-.281 1.456-.626c.173-.345-.199-.626-.83-.626Z"/>
    <path fill="#558e2f" d="M44.538 28.211v5.23c-2.688 3.282-8.736 5.671-15.912 5.886-9.967.298-18.339-3.713-18.7-8.961-.361-5.248 7.426-9.743 17.393-10.042 8.619-.259 16.046 2.706 18.13 6.908l-.911.979ZM27.39 21.56c-5.556.167-10.399 1.7-13.299 3.982-1.742 1.371-2.761 3.01-2.64 4.767.121 1.764 1.366 3.339 3.297 4.605 3.204 2.102 8.245 3.343 13.806 3.176 5.555-.166 10.4-1.697 13.299-3.979 1.743-1.372 2.763-3.011 2.641-4.769-.121-1.765-1.367-3.34-3.297-4.606-3.205-2.103-8.245-3.342-13.807-3.176Z"/>
  </g>
  <g id="blue">
    <path fill="#73a7c7" d="M32.11 24.348c6.025 1.01 9.115 4.303 6.896 7.348-2.219 3.045-8.912 4.697-14.937 3.687-6.025-1.011-9.114-4.303-6.895-7.348 2.219-3.045 8.912-4.697 14.936-3.687Zm-1.329 1.584c-4.295-.72-9.066.458-10.648 2.629-1.582 2.17.621 4.517 4.916 5.238 4.295.72 9.066-.458 10.648-2.629 1.582-2.171-.62-4.518-4.916-5.238Z"/>
    <path fill="#80afcb" d="M30.781 25.932c4.296.72 6.498 3.067 4.916 5.238-1.582 2.171-6.353 3.349-10.648 2.629-4.295-.721-6.498-3.068-4.916-5.238 1.582-2.171 6.353-3.349 10.648-2.629Zm-2.104 2.778c-1.162-.195-2.446.116-2.867.693-.42.577.182 1.203 1.343 1.398 1.162.195 2.446-.116 2.867-.693.42-.577-.181-1.203-1.343-1.398Z"/>
    <path fill="#82d1ff" d="M28.677 28.71c1.162.195 1.763.821 1.343 1.398-.421.577-1.705.888-2.867.693-1.161-.195-1.763-.821-1.343-1.398.421-.577 1.705-.888 2.867-.693Z"/>
    <path fill="#73a7c7" d="M50.477 36.072c-.565.235-1.025.164-1.519-.181L48.973 33c.049-.534.44-1.481 1.192-2.016.716-.491 1.2-.537 1.561-.025-.152-.017-.343.061-.55.28-.403.535-.925 1.227-.952 1.761l-.023 2.936a.284.284 0 0 0 .276.136Zm.549-.375v.074a5.206 5.206 0 0 1-.113.072.669.669 0 0 0 .113-.146Zm-3.579.371c-.568.24-1.031.17-1.527-.177L45.935 33c.049-.534.44-1.481 1.193-2.016.718-.492 1.202-.537 1.563-.021-.156-.03-.357.045-.576.276-.403.535-.926 1.227-.952 1.761l-.023 2.936c.075.117.188.15.307.132Zm1.546-4.465.014.042-.012.009-.011-.009.009-.042Zm-1.005 4.046v.122c-.06.04-.119.077-.177.112a.674.674 0 0 0 .177-.234Z"/>
    <path fill="#4f8198" d="M50.201 35.936 50.224 33c.027-.534.549-1.226.952-1.761.555-.587 1.001-.163.869.406.14.084-.445.746-.561.677 0 0-.425.539-.428.852l-.002 2.462c-.096.273-.636.64-.853.3Zm-3.061 0L47.163 33c.026-.534.549-1.226.952-1.761.555-.587 1.001-.163.869.406.14.084-.445.746-.561.677 0 0-.425.539-.428.852l-.002 2.462c-.096.273-.636.64-.853.3Z"/>
    <path fill="#4bc3f1" d="m27.895 24.949.008-.271c.016-.489.094-1.038-.305-.973-.03-.017-.139-.014-.227-.154.419-.521.821-.588 1.203-.115-.115.269-.127.055-.25.228-.271.181-.197.561-.225.952a4.981 4.981 0 0 0-.009.16c.337-.484.3-.774 1.064-.776.632.068.872.484 1 1-.356-1.189-1.806-.515-1.902.545-.062.53-.068 4.252-.068 4.252s-.2.072-.257-.015c-.058.087-.258.015-.258.015s-.006-3.722-.067-4.252c-.097-1.06-1.393-1.734-1.749-.545.128-.516.368-.932 1-1 .852.002.562.362 1.042.949Zm2.259.735s.121.248.121.355c0 .073-.055.132-.121.132-.067 0-.121-.059-.121-.132 0-.107.121-.355.121-.355Zm0 .741s.121.249.121.355c0 .073-.055.133-.121.133-.067 0-.121-.06-.121-.133 0-.106.121-.355.121-.355Zm-4.301-.641s.121.248.121.355c0 .073-.054.132-.121.132-.066 0-.121-.059-.121-.132 0-.107.121-.355.121-.355Zm0 .761s.121.248.121.355c0 .073-.054.132-.121.132-.066 0-.121-.059-.121-.132 0-.107.121-.355.121-.355Z"/>
    <path fill="#3a57f7" d="M30.567 10.699c16.301-1.073 30.156 6.635 30.948 17.225.793 10.591-11.784 20.036-28.083 21.108-16.3 1.072-30.156-6.638-30.947-17.224-.791-10.585 11.781-20.034 28.082-21.109Zm.164 2.495c-9.086.599-16.955 3.924-21.613 8.671-2.799 2.853-4.405 6.212-4.14 9.757.266 3.557 2.364 6.682 5.572 9.149 5.325 4.096 13.622 6.365 22.718 5.766 9.085-.597 16.955-3.92 21.614-8.667 2.8-2.853 4.406-6.213 4.14-9.759-.266-3.56-2.365-6.685-5.572-9.152-5.326-4.097-13.622-6.364-22.719-5.765Z"/>
  </g>
  <g id="grey">
    <path fill="#575757" d="M27.39 21.56c5.562-.166 10.602 1.073 13.807 3.176 1.93 1.266 3.176 2.841 3.297 4.606.122 1.758-.898 3.397-2.641 4.769-2.899 2.282-7.744 3.813-13.299 3.979-5.561.167-10.602-1.074-13.806-3.176-1.931-1.266-3.176-2.841-3.297-4.605-.121-1.757.898-3.396 2.64-4.767 2.9-2.282 7.743-3.815 13.299-3.982Zm-1.003 2.586c-4.069.369-7.692 1.802-9.213 3.889-2.219 3.045.87 6.337 6.895 7.348 6.025 1.01 12.718-.642 14.937-3.687 2.219-3.045-.871-6.338-6.896-7.348a21.649 21.649 0 0 0-2.641-.275 1.29 1.29 0 0 0-.315-.073 1.44 1.44 0 0 0-.437.053 19.73 19.73 0 0 0-.596.001c.02-.163.069-.301.203-.39.123-.173.135.041.25-.228-.382-.473-.784-.406-1.203.115.088.14.197.137.227.154.224-.037.298.121.316.353-.193.005-.387.012-.579.021-.102-.051-.249-.078-.482-.079-.187.02-.34.071-.466.146Z"/>
    <path fill="#c9c9c9" d="M45.926 34.728h-1.388v-6.517h9v6.517h-2.483l.001-1.554c.003-.313.428-.852.428-.852.116.069.701-.593.561-.677.083-.357-.062-.657-.319-.686-.361-.512-.845-.466-1.561.025-.752.535-1.143 1.482-1.192 2.016l-.009 1.728h-.97l.001-1.554c.003-.313.428-.852.428-.852.112.067.665-.552.572-.668l.012-.009-.014-.042c.06-.327-.071-.596-.302-.64-.361-.516-.845-.471-1.563.021-.753.535-1.144 1.482-1.193 2.016l-.009 1.728Z"/>
    <path fill="#ababab" d="M47.993 35.378c.135.112.177.262.094.427-.172.345-.825.626-1.456.626s-1.003-.281-.83-.626a.635.635 0 0 1 .12-.162l-.001.248c.496.347.959.417 1.527.177a.741.741 0 0 0 .364-.185c.058-.035.117-.072.177-.112v-.122l.005-.013v-.258Zm.698-4.415c-.361-.516-.845-.471-1.563.021l-.059.043a1.02 1.02 0 0 1 1.969.37c0 .086-.011.169-.031.248l-.014-.042c.06-.327-.071-.596-.302-.64Zm.316.682-.005.021a.075.075 0 0 0-.007-.012l.012-.009Zm-.121.286a1 1 0 0 1-.236.266c.082-.076.169-.173.236-.266Zm-.449.396a.203.203 0 0 0-.026.011.257.257 0 0 0 .012-.016.058.058 0 0 0 .014.005Zm2.617 3.071c.136.112.178.263.095.428-.172.345-.825.626-1.456.626s-1.003-.281-.83-.626a.631.631 0 0 1 .096-.137l-.001.202c.494.345.954.416 1.519.181.151-.011.318-.11.436-.229l.113-.072v-.074a.331.331 0 0 0 .028-.061v-.238Zm.672-4.439c-.336-.477-.78-.47-1.419-.069a1.019 1.019 0 1 1 1.128 1.497 2.38 2.38 0 0 1 .049-.065c.116.069.701-.593.561-.677.083-.357-.062-.657-.319-.686Zm3.812 1.586-2 2.183v-6.517l2-2.184v6.518Z"/>
    <path fill="#d4d4d4" d="m55.538 26.061-2 2.15h-9l2-2.15h9Z"/>
  </g>
</svg>
