<svg xmlns="http://www.w3.org/2000/svg" xml:space="preserve" fill-rule="evenodd" stroke-linejoin="round" stroke-miterlimit="2" clip-rule="evenodd" viewBox="0 0 64 64">
  <g id="blue">
    <path fill="#73a7c7" d="M34.987 33.734c-.35 2.266-6.437 4.102-13.604 4.102-7.178 0-11.773-1.914-11.445-4.184.221-1.535 2.121-2.804 6.178-3.511-1.123-.91-1.678-1.942-1.522-3.032.537-3.711 9.156-6.722 19.235-6.722 5.848 0 10.912 1.015 14.024 2.59 4.295.148 6.268 1.222 6.062 2.664-.144.992-.656 1.976-3.146 2.472-1.581 2.864-7.986 5.137-15.782 5.621Z"/>
  </g>
  <g id="green">
    <path fill="#274100" d="m50.894 23.302-2.692-7.385c1.958.848 3.725 1.87 5.248 3.042 3.207 2.467 5.306 5.592 5.572 9.152.266 3.546-1.34 6.906-4.14 9.759-4.659 4.747-12.529 8.07-21.614 8.667-9.096.599-17.393-1.67-22.718-5.766-3.208-2.467-5.306-5.592-5.572-9.149-.265-3.545 1.341-6.904 4.14-9.757 4.458-4.543 11.858-7.784 20.451-8.579l-.001.04c0 .779.81 1.411 1.812 1.411.739 0 1.373-.344 1.655-.837a2.172 2.172 0 0 0 .774-.084c.216.213.585.422 1.082.592 1.201.411 2.699.44 3.343.066.319-.185.369-.436.192-.691.052-.119.086-.254.096-.397 3.005.357 5.827 1.04 8.368 2l-2.311 6.344c-2.928-.843-6.646-1.343-10.75-1.343-10.079 0-18.701 3.011-19.235 6.722-.157 1.09.399 2.122 1.522 3.032-4.057.707-5.957 1.976-6.178 3.511-.327 2.27 4.267 4.184 11.445 4.184 7.167 0 13.254-1.836 13.604-4.102 4.429-.275 8.409-1.127 11.311-2.338v4.44h2.305v-5.62c1.011-.647 1.753-1.355 2.166-2.103 2.49-.496 3.003-1.48 3.146-2.472.15-1.042-.84-1.892-3.021-2.339ZM32.52 15.44a2.417 2.417 0 0 0-.364-.028c-1.002 0-1.814.631-1.814 1.409 0 .779.812 1.411 1.814 1.411.454 0 .87-.131 1.189-.346a1.526 1.526 0 0 0 1.176.036c.329.26.786.421 1.292.421 1.001 0 1.811-.632 1.811-1.411s-.81-1.409-1.811-1.409a2.27 2.27 0 0 0-.333.024c-.25-.632-.829-1.073-1.503-1.073-.636 0-1.187.392-1.457.966Z"/>
    <path fill="#558e2f" d="M36.068 35.3c-.424.627-1.09 1.233-2.02 1.752-2.523 1.406-7.306 2.424-12.665 2.424-5.527 0-9.634-1.159-11.493-2.634-1.278-1.014-1.748-2.224-1.575-3.424.142-.986.664-1.937 1.718-2.756.74-.575 1.803-1.105 3.232-1.539a4.182 4.182 0 0 1-.294-2.246v-.003c.216-1.493 1.294-2.992 3.222-4.233 3.534-2.274 10.201-3.894 17.636-3.894 5.959 0 11.139 1.037 14.435 2.606 2.815.135 4.714.7 5.764 1.413 1.254.85 1.676 1.948 1.511 3.107l-.001.004c-.096.661-.31 1.311-.773 1.917-.511.667-1.373 1.338-2.991 1.769-.872 1.144-2.344 2.231-4.325 3.122-2.872 1.291-6.873 2.246-11.381 2.615Zm-1.081-1.566c7.796-.484 14.201-2.757 15.782-5.621 2.49-.496 3.002-1.48 3.146-2.472.206-1.442-1.767-2.516-6.062-2.664-3.112-1.575-8.176-2.59-14.024-2.59-10.079 0-18.698 3.011-19.235 6.722-.156 1.09.399 2.122 1.522 3.032-4.057.707-5.957 1.976-6.178 3.511-.328 2.27 4.267 4.184 11.445 4.184 7.167 0 13.254-1.836 13.604-4.102Z"/>
    <path fill="#72ab5e" d="M47.017 14.675a.46.46 0 0 1 .864 0l4.111 11.336a.461.461 0 0 1-.433.617h-8.217a.46.46 0 0 1-.433-.617l4.108-11.336Z"/>
    <path fill="#558e2f" d="M31.618 11.929c.281-.464.879-.784 1.573-.784.963 0 1.743.617 1.743 1.38 0 .07-.007.139-.019.206a5.58 5.58 0 0 1 .804.01c.045-.716.454-1.278.951-1.278.397 0 .738.36.882.871a.604.604 0 0 1 .212-.039c.421 0 .762.444.762.995 0 .179-.037.348-.1.493.177.255.127.506-.192.691-.644.374-2.142.345-3.343-.066-.497-.17-.866-.379-1.082-.592a2.172 2.172 0 0 1-.774.084c-.282.493-.916.837-1.655.837-1.002 0-1.812-.632-1.812-1.411s.81-1.409 1.812-1.409c.081 0 .16.004.238.012Zm.902 3.511c.27-.574.821-.966 1.457-.966.674 0 1.253.441 1.503 1.073a2.27 2.27 0 0 1 .333-.024c1.001 0 1.811.63 1.811 1.409s-.81 1.411-1.811 1.411c-.506 0-.963-.161-1.292-.421a1.526 1.526 0 0 1-1.176-.036 2.136 2.136 0 0 1-1.189.346c-1.002 0-1.814-.632-1.814-1.411 0-.778.812-1.409 1.814-1.409.124 0 .246.01.364.028Z"/>
  </g>
  <g id="brown">
    <path fill="#29241e" d="M61.37 31.008c.067.391.115.786.145 1.185.793 10.59-11.784 20.036-28.083 21.108-16.3 1.071-30.156-6.638-30.947-17.224a12.735 12.735 0 0 1 .145-3.082c1.696 9.969 15.118 17.069 30.802 16.037 14.696-.967 26.367-8.741 27.938-18.024Z"/>
    <path fill="#754600" d="M48.603 26.628v9.208h-2.305v-9.208h2.305ZM36.311 14.709l-.95.592a1.842 1.842 0 0 0-.163-.234l.669-.416a7.6 7.6 0 0 0 .444.058Zm-1.74 3.251.131 1.716-.702-.171.006-1.482c.18-.004.354-.039.515-.101l.05.038Zm-1.536-3.163-.428-.433c.072-.052.139-.108.199-.168l.458.454c-.08.043-.157.092-.229.147Z"/>
    <path fill="#6c3e27" d="M30.567 10.699c16.301-1.073 30.156 6.635 30.948 17.225.793 10.591-11.784 20.036-28.083 21.108-16.3 1.072-30.156-6.638-30.947-17.224-.791-10.585 11.781-20.034 28.082-21.109Zm-.998 2.587c-8.593.795-15.993 4.036-20.451 8.579-2.799 2.853-4.405 6.212-4.14 9.757.266 3.557 2.364 6.682 5.572 9.149 5.325 4.096 13.622 6.365 22.718 5.766 9.085-.597 16.955-3.92 21.614-8.667 2.8-2.853 4.406-6.213 4.14-9.759-.266-3.56-2.365-6.685-5.572-9.152-1.483-1.141-3.197-2.14-5.094-2.975l-.475-1.309a.459.459 0 0 0-.864 0l-.242.668c-2.511-.938-5.293-1.605-8.253-1.957.003-.031.004-.064.004-.096 0-.551-.341-.995-.762-.995a.604.604 0 0 0-.212.039c-.144-.511-.485-.871-.882-.871-.497 0-.906.562-.951 1.278a5.58 5.58 0 0 0-.804-.01 1.17 1.17 0 0 0 .019-.206c0-.763-.78-1.38-1.743-1.38-.694 0-1.292.32-1.573.784a2.327 2.327 0 0 0-.238-.012c-.985 0-1.784.609-1.811 1.369Z"/>
  </g>
</svg>
