<svg xmlns="http://www.w3.org/2000/svg" xml:space="preserve" fill-rule="evenodd" stroke-linecap="round" stroke-linejoin="round" stroke-miterlimit="1.5" clip-rule="evenodd" viewBox="0 0 64 64">
  <path id="green" fill="#274100" d="M7.774 38.135c-1.613-1.93-2.617-4.124-2.796-6.513-.265-3.545 1.341-6.904 4.14-9.757 4.658-4.747 12.527-8.072 21.613-8.671a43.37 43.37 0 0 1 3.59-.089c-.011.059-.019.12-.022.184-.108 2.116-2.924 3.236-4.049 5.438-3.222 3.59-1.416 7.361-3.414 8.512-3.89 2.241-7.569 4.464-10.02 6.895-1.701 1.686-3.559 2.315-5.868 2.909-1.509.388-2.523.752-3.174 1.092Zm6.097-8.791-.014.013.848 1.724h2.874l.848-.609-.238-1.115-.419-.347.012-.007-.656-.526-.323-.267h-.011l-.032-.026h-1.687l-1.216 1.148.014.012Zm35.314-12.979a24.029 24.029 0 0 1 4.265 2.594c3.207 2.467 5.306 5.592 5.572 9.152.266 3.546-1.34 6.906-4.14 9.759-3.943 4.018-10.187 7.016-17.521 8.204-.375-1.266-1.905-3.24-1.996-5.37-.04-.941-.281-3.438 0-3.838 1.382-1.964.213-.779 1.491-2.732 1.623-2.48 3.596-3.942 4.874-5.025.858-.729 1.403-1.287 1.314-1.87-.342-2.271.204-2.819.651-4.679 1.009-2.287 3.079-4.075 5.49-6.195Zm-9.949 17.507-.034.032 2.04 4.148h6.917l2.04-1.465-.574-2.683-1.007-.833.028-.018-1.591-1.276-.765-.633h-.024l-.079-.063h-4.058l-2.927 2.762.034.029Z"/>
  <g id="blue">
    <path fill="#4bc3f1" d="M34.321 13.105c5.566.092 10.701 1.265 14.864 3.26-2.411 2.12-4.481 3.908-5.49 6.195-.447 1.86-.993 2.408-.651 4.679.089.583-.456 1.141-1.314 1.87-1.278 1.083-3.251 2.545-4.874 5.025-1.278 1.953-.109.768-1.491 2.732-.281.4-.04 2.897 0 3.838.091 2.13 1.621 4.104 1.996 5.37a43.723 43.723 0 0 1-4.093.463c-9.096.599-17.393-1.67-22.718-5.766a17.471 17.471 0 0 1-2.776-2.636c.651-.34 1.665-.704 3.174-1.092 2.309-.594 4.167-1.223 5.868-2.909 2.451-2.431 6.13-4.654 10.02-6.895 1.998-1.151.192-4.922 3.414-8.512 1.125-2.202 3.941-3.322 4.049-5.438.003-.064.011-.125.022-.184Z"/>
    <path fill="none" fill-rule="nonzero" stroke="#4f8198" stroke-width="0.71px" d="m38.625 13.289-4.2 5.032c-1.454 1.239-1.781 1.995-2.016 2.706-.275.821-.466 2.186-.934 3.962-.528 2.002-2.453 3.768-3.867 4.12"/>
    <path fill="none" fill-rule="nonzero" stroke="#4f8198" stroke-width="0.71px" d="M40.371 26.064c.689 1.07.31 1.778-.458 2.351l-2.704 2.171c-1.459 1.246-2.399 2.3-2.84 3.172-.82 1.251-2.675 3.447-2.675 3.447-3.555 3.878-3.931 5.429-3.808 7.55"/>
    <path fill="#4f8198" fill-rule="nonzero" stroke="#4f8198" stroke-width="0.71px" d="M45.718 15.15c-2.369 2.114-5.309 5.165-6.516 7.155"/>
    <path fill="none" fill-rule="nonzero" stroke="#4f8198" stroke-width="0.71px" d="M24.136 31.063c-.478.306-1.345 1.952-2.733 3.071-1.569 1.266-3.646 2-3.646 2s-6.091 1.442-8.25 3.57"/>
    <path fill="#4f8198" fill-rule="nonzero" stroke="#4f8198" stroke-width="0.71px" d="M26.475 34.134c-2.503 2.368-8.383 9.312-10.144 10.621"/>
    <path fill="none" stroke="#4f8198" stroke-width="0.66px" d="M39.202 18c-1.488 1.163-2.363 2.414-2.994 3.699-.644.849-1.096 1.905-1.17 3.365-.061 2.261-2.021 5.203-3.509 5.999"/>
  </g>
  <g id="grey">
    <path fill="#2e2e2e" d="M61.37 31.008c.067.391.115.786.145 1.185.793 10.59-11.784 20.036-28.083 21.108-16.3 1.071-30.156-6.638-30.947-17.224a12.735 12.735 0 0 1 .145-3.082c1.696 9.969 15.118 17.069 30.802 16.037 14.696-.967 26.367-8.741 27.938-18.024Z"/>
    <path fill="#8b8383" d="m41.242 38.052-2.04-4.148 2.934-2.76h4.154l3.335 2.76.574 2.683-2.04 1.465h-6.917Zm-26.537-6.971-.848-1.724 1.219-1.147h1.727l1.386 1.147.238 1.115-.848.609h-2.874Z"/>
    <path fill="#fff" fill-opacity="0.3" d="m39.202 33.843 2.927-2.762h4.058l2.459 1.972-3.326 2.117-1.207-.821-2.697 1.335-2.214-1.841Zm-25.345-4.511 1.216-1.148h1.687l1.022.819-1.383.88-.501-.341-1.121.555-.92-.765Z"/>
  </g>
  <g id="yellow">
    <path fill="#fcdf11" d="M30.567 10.699c16.301-1.073 30.156 6.635 30.948 17.225.793 10.591-11.784 20.036-28.083 21.108-16.3 1.072-30.156-6.638-30.947-17.224-.791-10.585 11.781-20.034 28.082-21.109Zm.164 2.495c-9.086.599-16.955 3.924-21.613 8.671-2.799 2.853-4.405 6.212-4.14 9.757.266 3.557 2.364 6.682 5.572 9.149 5.325 4.096 13.622 6.365 22.718 5.766 9.085-.597 16.955-3.92 21.614-8.667 2.8-2.853 4.406-6.213 4.14-9.759-.266-3.56-2.365-6.685-5.572-9.152-5.326-4.097-13.622-6.364-22.719-5.765Z"/>
  </g>
</svg>
