<svg xmlns="http://www.w3.org/2000/svg" xml:space="preserve" fill-rule="evenodd" stroke-linejoin="round" stroke-miterlimit="2" clip-rule="evenodd" viewBox="0 0 64 64">
  <g id="brown">
    <path fill="#29241e" d="M61.37 31.008c.067.391.115.786.145 1.185.793 10.59-11.784 20.036-28.083 21.108-16.3 1.071-30.156-6.638-30.947-17.224a12.735 12.735 0 0 1 .145-3.082c1.008 5.925 6.159 10.838 13.467 13.631l2-1.927c.846.287 1.72.546 2.62.772l-1.589 2.156c4.308 1.212 9.185 1.741 14.304 1.405 14.696-.967 26.367-8.741 27.938-18.024Zm-2.342-1.463a11.626 11.626 0 0 0-.454-3.764c.236.753.388 1.531.448 2.33.036.482.038.96.006 1.434ZM16.419 46.742l-.138-.046c.203.076.408.151.615.224l.287.1a56.11 56.11 0 0 1-.764-.278Z"/>
  </g>
  <g id="green">
    <path fill="#274100" d="M18.097 44.699c-2.888-.983-5.449-2.314-7.547-3.928-3.208-2.467-5.306-5.592-5.572-9.149-.265-3.545 1.341-6.904 4.14-9.757 4.658-4.747 12.527-8.072 21.613-8.671 3.317-.218 6.527-.056 9.526.438l-.002.002-.443-.061-2.887 3.697-10.934-1.328C11.784 19.819 6.415 26.774 9.702 35.754l.38 2.544c2.532 2.266 9.186 4.836 9.536 4.931l.004.001-1.525 1.469ZM43 14.189c4.086.994 7.672 2.633 10.45 4.77 2.487 1.913 4.307 4.222 5.124 6.822a11.64 11.64 0 0 1 .454 3.764c-.198 3.015-1.726 5.86-4.146 8.325-4.659 4.747-12.529 8.07-21.614 8.667-4.461.294-8.731-.102-12.551-1.066l1.203-1.633.006.001v-.011c.152.035.305.07.458.103 4.047.884 9.277 1.067 13.846.519l2.364-2.236c15.387-8.286 20.264-16.418 10.919-23.568l-9.224-.988L43 14.189Z"/>
  </g>
  <g id="violet">
    <path fill="#d942fc" d="M16.097 46.626c-7.79-2.977-13.129-8.363-13.612-14.818-.791-10.585 11.781-20.034 28.082-21.109 16.301-1.073 30.156 6.635 30.948 17.225.793 10.591-11.784 20.036-28.083 21.108-5.119.336-9.996-.193-14.304-1.405l1.589-2.156c3.82.964 8.09 1.36 12.551 1.066 9.085-.597 16.955-3.92 21.614-8.667 2.8-2.853 4.406-6.213 4.14-9.759-.266-3.56-2.365-6.685-5.572-9.152-2.778-2.137-6.364-3.776-10.45-4.77a65.664 65.664 0 0 0-.426-.101c-3.637-.838-7.655-1.17-11.843-.894-9.086.599-16.955 3.924-21.613 8.671-2.799 2.853-4.405 6.212-4.14 9.757.266 3.557 2.364 6.682 5.572 9.149 2.098 1.614 4.659 2.945 7.547 3.928l-2 1.927Zm.322.116c.267.099.524.193.764.278a34.1 34.1 0 0 1-.902-.324l.138.046Z"/>
  </g>
  <g id="grey">
    <path fill="#929090" d="m19.622 43.23-.004-.001c-.35-.095-7.004-2.665-9.536-4.931l-.38-2.544c-3.287-8.98 2.082-15.935 16.289-19.812l10.934 1.328 2.887-3.697.443.061-3.063 4.089-10.872-1.288C14.256 19.649 8.871 25.003 9.476 32.276c2.441 3.715 20.463 11.946 33.702 6.565 11.285-7.457 13.646-14.106 5.266-19.784l-9.063-1.074 3.193-3.895.426.101-2.711 3.469 9.224.988c9.345 7.15 4.468 15.282-10.919 23.568L36.23 44.45c-4.569.548-9.799.365-13.846-.519a33.841 33.841 0 0 1-.458-.103c0-.052-.005-.276-.089-.525-.102-.307-.323-.651-.798-.76-.126-.029-.244-.037-.354-.029-.69.049-1.063.716-1.063.716Zm1.878.53.42.078-2.792 3.789-.282-.069L21.5 43.76Zm-5.081 2.982-.329-.11 3.532-3.402.282.074-3.485 3.438Z"/>
    <path fill="#575757" d="m19.904 43.304-.282-.074s.373-.667 1.063-.716l-.781.79Zm1.933-.001c.095.284.089.536.089.536l-.412-.076.323-.46ZM10 35l-.698-2.854c9.231 7.528 22.713 9.101 33.876 6.695l-4.607 2.615C36.66 42.271 24.544 45.713 10 35Z"/>
  </g>
  <g id="blue">
    <path fill="#4bc3f1" d="M42.574 14.088 39.367 18l-2.187-.261 3.08-4.111c.791.075 1.525.223 2.314.46Z"/>
    <path fill="#4f8198" d="M20.685 42.514c.11-.008.228 0 .354.029.475.109.696.453.798.76l-2.991 4.255c-.204-.037-1.207-.362-2.427-.816l4.266-4.228Zm22.493-3.673c-13.239 5.381-31.261-2.85-33.702-6.565-.605-7.273 4.78-12.627 16.844-15.841l22.124 2.622c8.38 5.678 6.019 12.327-5.266 19.784Z"/>
  </g>
</svg>
