<svg xmlns="http://www.w3.org/2000/svg" xml:space="preserve" fill-rule="evenodd" stroke-linecap="round" stroke-linejoin="round" stroke-miterlimit="1.5" clip-rule="evenodd" viewBox="0 0 64 64">
  <g id="brown">
    <path fill="#29241e" d="M61.37 31.008c.067.391.115.786.145 1.185.793 10.59-11.784 20.036-28.083 21.108-16.3 1.071-30.156-6.638-30.947-17.224a12.735 12.735 0 0 1 .145-3.082c1.696 9.969 15.118 17.069 30.802 16.037 14.696-.967 26.367-8.741 27.938-18.024Z"/>
  </g>
  <g id="green">
    <path fill="#274100" d="M30.731 13.194c9.097-.599 17.393 1.668 22.719 5.765 3.207 2.467 5.306 5.592 5.572 9.152.266 3.546-1.34 6.906-4.14 9.759-4.659 4.747-12.529 8.07-21.614 8.667-9.096.599-17.393-1.67-22.718-5.766-3.208-2.467-5.306-5.592-5.572-9.149-.265-3.545 1.341-6.904 4.14-9.757 4.658-4.747 12.527-8.072 21.613-8.671ZM11.043 38.087 34 43.5l14.98-25.693-17.579-2.499a45.54 45.54 0 0 0-.887-1.788s-.338.636-.781 1.563l-2.11-.283-16.58 23.287Z"/>
  </g>
  <g id="orange">
    <path fill="#f9682b" d="M30.567 10.699c16.301-1.073 30.156 6.635 30.948 17.225.793 10.591-11.784 20.036-28.083 21.108-16.3 1.072-30.156-6.638-30.947-17.224-.791-10.585 11.781-20.034 28.082-21.109Zm.164 2.495c-9.086.599-16.955 3.924-21.613 8.671-2.799 2.853-4.405 6.212-4.14 9.757.266 3.557 2.364 6.682 5.572 9.149 5.325 4.096 13.622 6.365 22.718 5.766 9.085-.597 16.955-3.92 21.614-8.667 2.8-2.853 4.406-6.213 4.14-9.759-.266-3.56-2.365-6.685-5.572-9.152-5.326-4.097-13.622-6.364-22.719-5.765Z"/>
  </g>
  <g id="grey">
    <path fill="#929090" stroke="#929090" stroke-width="1px" d="m47.469 20.416-13.521 23.34-22.905-5.669.973-1.381L27.623 14.8l21.465 2.887-1.619 2.729ZM27.124 15.5 12.035 36.711l22.813 5.452 13.96-24.004L27.124 15.5Z"/>
  </g>
  <g id="brown1">
    <path fill="#aa7850" d="m31.446 15.403 17.534 2.404-14.132 24.356-22.813-5.452 15.513-21.843 2.147.294c-.836 1.76-2.013 4.497-2.013 5.967a2.833 2.833 0 0 0 2.832 2.832 2.834 2.834 0 0 0 2.832-2.832c0-1.405-1.075-3.967-1.9-5.726Zm7.637 3.691s-2.832 5.328-2.832 7.609a2.834 2.834 0 0 0 2.832 2.832 2.833 2.833 0 0 0 2.832-2.832c0-2.281-2.832-7.609-2.832-7.609Zm-15.137 3.599s-2.833 5.328-2.833 7.609a2.834 2.834 0 0 0 2.833 2.832 2.834 2.834 0 0 0 2.832-2.832c0-2.281-2.832-7.609-2.832-7.609Zm8.898 6.221s-2.832 5.328-2.832 7.609a2.833 2.833 0 0 0 2.832 2.832 2.834 2.834 0 0 0 2.832-2.832c0-2.281-2.832-7.609-2.832-7.609Z"/>
  </g>
  <g id="blue">
    <path fill="#4bc3f1" d="M30.514 13.52s2.832 5.328 2.832 7.609a2.834 2.834 0 0 1-2.832 2.832 2.833 2.833 0 0 1-2.832-2.832c0-2.281 2.832-7.609 2.832-7.609Zm-6.568 9.173s2.832 5.328 2.832 7.609a2.834 2.834 0 0 1-2.832 2.832 2.834 2.834 0 0 1-2.833-2.832c0-2.281 2.833-7.609 2.833-7.609Zm8.898 6.221s2.832 5.328 2.832 7.609a2.834 2.834 0 0 1-2.832 2.832 2.833 2.833 0 0 1-2.832-2.832c0-2.281 2.832-7.609 2.832-7.609Zm6.239-9.82s2.832 5.328 2.832 7.609a2.833 2.833 0 0 1-2.832 2.832 2.834 2.834 0 0 1-2.832-2.832c0-2.281 2.832-7.609 2.832-7.609Z"/>
  </g>
</svg>
