<svg xmlns="http://www.w3.org/2000/svg" xml:space="preserve" fill-rule="evenodd" stroke-linejoin="round" stroke-miterlimit="2" clip-rule="evenodd" viewBox="0 0 64 64">
  <g id="brown">
    <path fill="#29241e" fill-rule="nonzero" d="M31.151 21.913c9.654-.635 17.859 3.93 18.328 10.201.47 6.272-6.979 11.866-16.631 12.501-9.653.634-17.859-3.932-18.327-10.201-.468-6.269 6.977-11.864 16.63-12.501Z"/>
  </g>
  <g id="blue">
    <path fill="#73d2fd" fill-rule="nonzero" d="M31.151 19.385c9.654-.635 17.859 3.93 18.328 10.201.47 6.272-6.979 11.866-16.631 12.5-9.653.635-17.859-3.931-18.327-10.2-.468-6.268 6.977-11.864 16.63-12.501Z"/>
    <path fill="#17a" d="M31.151 19.385c9.654-.635 17.859 3.93 18.328 10.201.47 6.272-6.979 11.866-16.631 12.5-9.653.635-17.859-3.931-18.327-10.2-.468-6.268 6.977-11.864 16.63-12.501Zm.098 1.478c-5.381.355-10.041 2.324-12.8 5.135-1.657 1.689-2.609 3.679-2.452 5.778.158 2.107 1.4 3.957 3.3 5.418 3.154 2.426 8.067 3.77 13.454 3.415 5.38-.354 10.041-2.322 12.8-5.133 1.658-1.689 2.609-3.679 2.452-5.779-.158-2.108-1.401-3.959-3.3-5.42-3.154-2.426-8.067-3.769-13.454-3.414Z"/>
  </g>
  <g id="white">
    <path fill="#f4f4f4" d="M45.129 15.688h-6.621v6.297H24.82v-6.297h-5.949L31.742 2.45l13.387 13.238Zm-6.621 27.933v4.691h6.621L31.742 61.55 18.871 48.312h5.949v-4.41c2.44.633 5.171.901 8.028.713a26.05 26.05 0 0 0 5.66-.994Z"/>
  </g>
</svg>
