<?xml version="1.0" encoding="UTF-8" standalone="no"?>
<!DOCTYPE svg PUBLIC "-//W3C//DTD SVG 1.1//EN" "http://www.w3.org/Graphics/SVG/1.1/DTD/svg11.dtd">
<svg width="100%" height="100%" viewBox="0 0 64 64" version="1.1" xmlns="http://www.w3.org/2000/svg" xmlns:xlink="http://www.w3.org/1999/xlink" xml:space="preserve" xmlns:serif="http://www.serif.com/" style="fill-rule:evenodd;clip-rule:evenodd;stroke-linejoin:round;stroke-miterlimit:2;">
    <g id="surface1">
        <path d="M52.448,44.222L39.904,31.682L52.224,19.358C53.724,17.964 53.814,15.577 52.42,14.073L49.873,11.53C48.369,10.147 45.998,10.241 44.603,11.737L32.283,24.057L19.911,11.689C18.407,10.294 16.02,10.38 14.621,11.884L11.883,14.623C10.383,16.021 10.297,18.404 11.692,19.908L24.06,32.28L11.732,44.608C10.232,46.003 10.146,48.385 11.541,49.889L14.088,52.436C15.592,53.831 17.974,53.741 19.373,52.241L31.697,39.917L44.237,52.457C45.741,53.851 48.128,53.765 49.526,52.265L52.264,49.527C52.296,49.492 52.327,49.465 52.362,49.433C53.78,48.011 53.819,45.691 52.448,44.222Z" style="fill:#ff2721;fill-rule:nonzero;"/>
    </g>
</svg>
