<?xml version="1.0" encoding="UTF-8" standalone="no"?>
<!DOCTYPE svg PUBLIC "-//W3C//DTD SVG 1.1//EN" "http://www.w3.org/Graphics/SVG/1.1/DTD/svg11.dtd">
<svg width="100%" height="100%" viewBox="0 0 64 64" version="1.1" xmlns="http://www.w3.org/2000/svg" xmlns:xlink="http://www.w3.org/1999/xlink" xml:space="preserve" xmlns:serif="http://www.serif.com/" style="fill-rule:evenodd;clip-rule:evenodd;stroke-linejoin:round;stroke-miterlimit:2;">
    <g id="surface1">
        <path d="M60,45C60,42.238 57.762,40 55,40L11,40C8.238,40 6,42.238 6,45C6,47.762 8.238,50 11,50L55,50C57.762,50 60,47.762 60,45Z" style="fill:#000000;"/>
        <path d="M46.094,9.906C44.141,7.957 40.973,7.957 39.02,9.906L7.906,41.02C5.957,42.973 5.957,46.141 7.906,48.094C9.859,50.043 13.027,50.043 14.977,48.094L46.094,16.977C48.043,15.027 48.043,11.859 46.094,9.906Z" style="fill:#000000;"/>
    </g>
</svg>
