<svg xmlns="http://www.w3.org/2000/svg" xml:space="preserve" fill-rule="evenodd" stroke-linejoin="round" stroke-miterlimit="2" clip-rule="evenodd" viewBox="0 0 64 64">
  <g id="black">
    <path d="M34.147 15.762c.219-.219.534-.34.871-.288l1.26.124h.004a1.49 1.49 0 0 1 1.289 1.312l-.001.005.465 6.174L52.855 8.27a1.243 1.243 0 0 1 1.728.173l.974.973c.517.431.593 1.204.172 1.727l-.01.011-14.81 14.811 6.175.465h.005a1.5 1.5 0 0 1 1.312 1.286v.004l.126 1.262a1.023 1.023 0 0 1-1.162 1.161l-11.114-1.106h-.005a1.486 1.486 0 0 1-1.284-1.285v-.005l-1.104-11.111a1.002 1.002 0 0 1 .289-.874Zm-4.293 32.475c-.219.22-.535.341-.872.289l-1.26-.124h-.004a1.49 1.49 0 0 1-1.289-1.312l.001-.005-.465-6.174-14.82 14.819a1.243 1.243 0 0 1-1.728-.173l-.974-.973a1.242 1.242 0 0 1-.172-1.727l.01-.011 14.81-14.811-6.175-.465h-.005a1.5 1.5 0 0 1-1.312-1.286v-.004l-.126-1.262a1.023 1.023 0 0 1 1.162-1.161l11.114 1.106h.005c.67.087 1.2.615 1.284 1.285v.005l1.104 11.111a1 1 0 0 1-.288.873Z"/>
  </g>
</svg>
