<svg xmlns="http://www.w3.org/2000/svg" xml:space="preserve" fill-rule="evenodd" stroke-linejoin="round" stroke-miterlimit="2" clip-rule="evenodd" viewBox="0 0 64 64">
  <g id="black">
    <path d="m49.852 27.407.133 1.326a1.378 1.378 0 0 1-1.543 1.542l-11.891-1.184-.021-.001-.013-.001a1.868 1.868 0 0 1-1.608-1.61c.006.043-.002-.098-.002-.039l.001.026-1.182-11.901a1.341 1.341 0 0 1 .387-1.166c.29-.29.708-.45 1.154-.384l1.345.132v.005a.034.034 0 0 1 .012.009v-.013a1.874 1.874 0 0 1 1.616 1.681l.453 6.014L54.17 6.367l.022-.02a1.615 1.615 0 0 1 2.217.213l1.023 1.023.006.005c.657.557.751 1.547.212 2.217l-.011.013a.24.24 0 0 1-.023.022l.004-.001-15.467 15.467 6.023.454h.016l.016.002c.846.1 1.524.764 1.641 1.608l.002.014.001.023c0 .064.001.067 0 0ZM25.76 48.209c.015.136.016-.151.004-.087a.25.25 0 0 0-.005.072l-.454-6.037L9.828 57.633l-.023.02c-.671.536-1.66.44-2.217-.213l-1.023-1.023-.006-.005a1.618 1.618 0 0 1-.2-2.23l.019-.021 15.466-15.467-6.018-.454h-.02l-.017-.002a1.884 1.884 0 0 1-1.64-1.608.271.271 0 0 0 .009.041c.033.111-.012-.141-.012-.082l.001.027-.135-1.349a1.378 1.378 0 0 1 1.544-1.542l11.889 1.183.022.002.014.001a1.866 1.866 0 0 1 1.608 1.61c-.022-.126.002.086.002.034 0 .065.002.068 0 0l1.181 11.88c.067.428-.077.862-.386 1.165a1.346 1.346 0 0 1-1.155.385l-1.323-.131-.022-.001-.013-.001a1.875 1.875 0 0 1-1.613-1.643Z"/>
  </g>
</svg>
