<svg xmlns="http://www.w3.org/2000/svg" xml:space="preserve" fill-rule="evenodd" stroke-linejoin="round" stroke-miterlimit="2" clip-rule="evenodd" viewBox="0 0 64 64">
  <g id="black">
    <path d="M31.25 54h-21a2.25 2.25 0 0 1 0-4.5h21a2.25 2.25 0 0 1 0 4.5Zm-4-8h-17a2.25 2.25 0 0 1 0-4.5h17a2.25 2.25 0 0 1 0 4.5Zm-4-8.004h-13a2.25 2.25 0 0 1 0-4.5h13a2.25 2.25 0 0 1 0 4.5Zm-4-8.004h-9a2.25 2.25 0 0 1 0-4.5h9a2.25 2.25 0 0 1 0 4.5Zm-4-8.004h-5a2.25 2.25 0 0 1 0-4.5h5a2.25 2.25 0 0 1 0 4.5Zm-4-7.988h-1a2.25 2.25 0 0 1 0-4.5h1a2.25 2.25 0 0 1 0 4.5Z"/>
    <path fill-rule="nonzero" d="M36 42.169c0-.311.137-.622.415-.824l.982-.806.003-.001a1.492 1.492 0 0 1 1.845.016l.003.003 4.711 4.052V14.712l.002-.014a1.247 1.247 0 0 1 1.348-1.103h1.382a1.245 1.245 0 0 1 1.347 1.103l.002.014V44.61l4.712-4.053.003-.003a1.507 1.507 0 0 1 1.844-.018l.003.003.984.806a1.027 1.027 0 0 1 0 1.648l-8.674 7.102-.003.003a1.489 1.489 0 0 1-1.822 0l-.003-.003-8.669-7.102a1.011 1.011 0 0 1-.415-.824Z"/>
  </g>
</svg>
