<svg xmlns="http://www.w3.org/2000/svg" xml:space="preserve" fill-rule="evenodd" stroke-linejoin="round" stroke-miterlimit="2" clip-rule="evenodd" viewBox="0 0 64 64">
  <g id="black">
    <path d="m37.478 29.839.005-.001a1.616 1.616 0 0 1-2.218-.213l-1.022-1.023-.005-.005a1.613 1.613 0 0 1-.212-2.216c-.065.08.002-.003.002-.003l.009-.011.018-.02L49.522 10.88l-6.019-.454h-.02l-.017-.002a1.886 1.886 0 0 1-1.64-1.607.259.259 0 0 0 .009.04c.007.024-.012-.141-.012-.082l.001.026-.134-1.347a1.377 1.377 0 0 1 1.544-1.543l11.887 1.184.023.001a1.87 1.87 0 0 1 1.623 1.624l.002.021 1.18 11.879c.071.449-.091.871-.384 1.165a1.354 1.354 0 0 1-1.157.386l-1.323-.131-.035-.003a1.875 1.875 0 0 1-1.613-1.642l-.001-.015-.454-6.037-15.466 15.465-.011.01a.14.14 0 0 1-.027.021Zm-7.608 7.61.006-.002-15.467 15.467 6.023.453.016.001.017.002c.851.101 1.53.772 1.642 1.622l.002.022.131 1.325a1.377 1.377 0 0 1-1.543 1.544L8.808 56.699l-.021-.001-.013-.002a1.874 1.874 0 0 1-1.609-1.609c.006.042-.003-.098-.003-.039l.002.026-1.183-11.901a1.346 1.346 0 0 1 .388-1.165c.289-.29.708-.451 1.154-.385l1.323.131a.171.171 0 0 1 .045.004l.014.002a1.875 1.875 0 0 1 1.589 1.639l.002.038.453 6.014 15.466-15.465c-.077.076.011-.01.011-.01l.01-.01.012-.01a1.615 1.615 0 0 1 2.217.213l1.022 1.023.006.005c.653.557.748 1.546.211 2.217l-.001.002a.257.257 0 0 1-.033.033Z"/>
  </g>
</svg>
