<svg xmlns="http://www.w3.org/2000/svg" xml:space="preserve" fill-rule="evenodd" stroke-linejoin="round" stroke-miterlimit="2" clip-rule="evenodd" viewBox="0 0 64 64">
  <g id="black">
    <path d="m29.511 38.395-.003.004a1.623 1.623 0 0 1 1.719-1.418l1.446.001h.007a1.62 1.62 0 0 1 1.718 1.42l.003.041v15.365l4.577-3.935.014-.014.013-.011a1.89 1.89 0 0 1 2.296-.023.246.246 0 0 0-.034-.022c-.022-.012.108.091.066.049l-.019-.017 1.047.857a1.383 1.383 0 0 1-.001 2.183l-9.242 7.568-.017.016a1.875 1.875 0 0 1-2.296-.001l-.016-.013-9.234-7.566a1.346 1.346 0 0 1-.553-1.095 1.357 1.357 0 0 1 .545-1.091l1.029-.843.026-.022a1.88 1.88 0 0 1 2.302.02l.011.01 4.59 3.948.001-15.363.001-.014c0-.012.001-.023.004-.034Zm-.001-12.957-.003.005V9.986l-4.58 3.938-.012.011-.013.011a1.885 1.885 0 0 1-2.308.014l-.017-.014-1.03-.845a1.383 1.383 0 0 1 0-2.182l9.244-7.57.015-.014.011-.008a1.877 1.877 0 0 1 2.275 0c-.034-.025.072.067.03.026l-.02-.017 9.252 7.578c.349.256.554.666.549 1.098.001.41-.181.82-.543 1.089l-1.028.843a.245.245 0 0 1-.035.029l-.011.008a1.88 1.88 0 0 1-2.283-.035l-.028-.026-4.573-3.932-.001 15.455v.029l-.002.016a1.62 1.62 0 0 1-1.718 1.417l-1.446-.001-.008.001a1.607 1.607 0 0 1-1.717-1.419v-.002a.177.177 0 0 1 0-.046Z"/>
  </g>
  <g id="grey">
    <path fill="#909090" d="M34.215 29.696a3.25 3.25 0 1 1-4.596 4.595 3.25 3.25 0 0 1 4.596-4.595Z"/>
  </g>
</svg>
