<svg xmlns="http://www.w3.org/2000/svg" xml:space="preserve" fill-rule="evenodd" stroke-linejoin="round" stroke-miterlimit="2" clip-rule="evenodd" viewBox="0 0 64 64">
  <g id="black">
    <path d="m54.324 15.195-8.783 8.783 2.795.21c1.423.106 2.82 1.418 3.011 2.857l.001.006c.421 1.603-.126 3.529-1.37 4.284-.611.371-1.402.551-2.39.283-3.734-.371-7.468-.746-11.202-1.114a1.438 1.438 0 0 1-.234-.043c-1.786-.47-2.463-1.62-2.729-3.029-.161-.851-.093-1.84-.26-2.677a1.428 1.428 0 0 1-.022-.146l-.891-8.972a3.257 3.257 0 0 1 .058-1.074l.178-.521.282-.47.601-.569c.282-.192.61-.335.971-.426.803-.203 1.821-.112 2.556.015.05.008.099.019.147.033 1.791.499 2.471 1.703 2.715 3.169.14.841.071 1.802.183 2.618l5.336-5.336 6.202-6.199c.102-.102.219-.189.346-.258 1.279-.692 2.937-.372 4.198.637 1.192.955 1.93 2.457 1.747 3.793-.025.177-.08.347-.164.504-.748 1.398-2.169 2.348-3.203 3.556-.026.03-.052.059-.079.086ZM18.66 50.861l-6.089 6.086c-.04.039-.082.077-.126.112-1.241.987-2.421.839-3.493.198-.663-.396-1.275-1.055-1.774-1.579l-.024-.026c-.689-.761-.919-1.487-.933-2.142-.014-.672.212-1.31.621-1.9.473-.682 1.267-1.298 1.787-1.88l.058-.061 4.391-4.39 5.412-5.413-2.796-.21-.046-.005c-1.761-.186-3.022-1.975-3.107-3.821-.053-1.146.341-2.23 1.093-2.902.56-.5 1.324-.822 2.34-.748l.04.003c3.877.386 7.754.773 11.631 1.157.078.008.154.021.229.041 1.77.459 2.46 1.623 2.732 3.049.164.863.1 1.862.264 2.681.01.05.017.1.022.151.294 3.097.642 6.19.903 9.289a1.59 1.59 0 0 1-.007.316c-.23 1.801-2.071 2.754-4.047 2.485-.989-.135-1.945-.567-2.565-1.17a3.034 3.034 0 0 1-.635-.88l-.195-.559-.07-.611.005.109-.21-2.791-4.572 4.572.001.001-.84.838Z"/>
  </g>
</svg>
