<?xml version="1.0" encoding="UTF-8" standalone="no"?>
<!DOCTYPE svg PUBLIC "-//W3C//DTD SVG 1.1//EN" "http://www.w3.org/Graphics/SVG/1.1/DTD/svg11.dtd">
<svg width="100%" height="100%" viewBox="0 0 64 64" version="1.1" xmlns="http://www.w3.org/2000/svg" xmlns:xlink="http://www.w3.org/1999/xlink" xml:space="preserve" xmlns:serif="http://www.serif.com/" style="fill-rule:evenodd;clip-rule:evenodd;stroke-linecap:round;stroke-linejoin:round;stroke-miterlimit:1.5;">
    <g id="surface1">
        <path d="M19.988,28.551C19.746,28.684 19.445,28.594 19.313,28.352C19.18,28.109 19.27,27.805 19.512,27.672C20.734,27.004 22.445,26.566 23.91,26.934C24.48,27.078 24.984,27.309 25.5,27.504C25.945,27.672 26.398,27.809 26.945,27.801C27.746,27.789 28.523,27.574 29.301,27.355C30.152,27.109 31.004,26.855 31.883,26.777C32.82,26.695 33.637,26.91 34.441,27.164C35.145,27.383 35.836,27.629 36.625,27.641C37.539,27.656 38.402,27.438 39.262,27.211C40.195,26.961 41.129,26.695 42.109,26.641C42.844,26.598 43.57,26.969 44.25,27.145C45.156,27.383 45.996,27.449 46.934,27.301C47.203,27.254 47.461,27.441 47.508,27.711C47.551,27.984 47.363,28.242 47.094,28.285C46.012,28.461 45.043,28.387 43.996,28.113C43.41,27.961 42.797,27.602 42.164,27.637C41.254,27.688 40.387,27.941 39.52,28.176C38.57,28.43 37.621,28.656 36.609,28.641C35.719,28.629 34.938,28.363 34.145,28.117C33.461,27.902 32.77,27.703 31.973,27.773C31.156,27.844 30.367,28.09 29.574,28.316C28.711,28.563 27.848,28.789 26.961,28.801C26.277,28.813 25.703,28.648 25.148,28.438C24.664,28.258 24.199,28.039 23.664,27.902C22.441,27.594 21.012,27.988 19.988,28.551Z" style="fill:#010001;"/>
        <path d="M21.355,30.473C21.105,30.594 20.809,30.488 20.688,30.238C20.566,29.992 20.672,29.691 20.922,29.574C22.434,28.844 24.129,28.719 25.836,28.938C26.73,29.055 27.652,29.348 28.566,29.313C30.082,29.25 31.391,28.676 32.938,28.719C34.398,28.762 35.973,29.383 37.41,29.23C38.148,29.152 38.832,28.91 39.52,28.684C40.289,28.434 41.063,28.207 41.898,28.195C43.164,28.172 44.375,28.641 45.641,28.684C45.918,28.691 46.133,28.922 46.125,29.199C46.113,29.477 45.883,29.691 45.605,29.684C44.359,29.641 43.164,29.172 41.914,29.191C41.184,29.207 40.508,29.414 39.832,29.637C39.074,29.883 38.324,30.141 37.516,30.227C36.035,30.379 34.414,29.762 32.91,29.719C31.387,29.676 30.098,30.25 28.609,30.309C27.641,30.352 26.656,30.055 25.707,29.93C24.195,29.734 22.691,29.828 21.355,30.473Z" style="fill:#010001;"/>
        <path d="M22.371,31.563C22.109,31.641 21.832,31.484 21.754,31.219C21.68,30.953 21.836,30.68 22.098,30.602C23.449,30.219 24.738,30.25 26.027,30.402C27.238,30.551 28.453,30.801 29.719,30.867C30.66,30.918 31.574,30.73 32.492,30.539C33.484,30.336 34.48,30.121 35.512,30.133C36.902,30.145 38.145,30.68 39.484,30.898C40.664,31.094 41.754,30.953 42.934,30.934C43.211,30.926 43.438,31.148 43.441,31.422C43.445,31.699 43.227,31.926 42.953,31.934C41.711,31.953 40.563,32.09 39.324,31.887C38.031,31.672 36.844,31.145 35.504,31.133C34.543,31.121 33.617,31.328 32.695,31.52C31.695,31.727 30.695,31.922 29.668,31.867C28.379,31.801 27.145,31.543 25.91,31.398C24.746,31.262 23.586,31.219 22.371,31.563Z" style="fill:#010001;"/>
        <path d="M29.219,19.438L33.688,24.363L24.75,24.363L29.219,19.438Z" style="fill:#575757;stroke:#575757;stroke-width:2.78px;"/>
        <path d="M29.219,25.373L29.223,37.276C29.063,47.073 39.578,53.151 49.527,46.358" style="fill:none;fill-rule:nonzero;stroke:#575757;stroke-width:3px;"/>
        <path d="M12.643,15.781L54.12,15.781L43.753,32.945L23.015,32.945L12.643,15.781Z" style="fill:none;fill-rule:nonzero;stroke:#010001;stroke-width:3px;"/>
        <path d="M41.426,28.59C40.863,28.535 40.297,28.535 39.73,28.59L39.453,29.945C38.914,30.031 38.383,30.172 37.875,30.371L36.953,29.332C36.438,29.566 35.945,29.852 35.484,30.18L35.926,31.496C35.496,31.84 35.109,32.227 34.77,32.652L33.453,32.215C33.121,32.676 32.84,33.164 32.605,33.684L33.641,34.602C33.445,35.113 33.301,35.641 33.219,36.18L31.859,36.461C31.805,37.023 31.805,37.59 31.859,38.156L33.219,38.434C33.301,38.973 33.445,39.504 33.641,40.012L32.605,40.934C32.84,41.449 33.121,41.941 33.453,42.398L34.77,41.965C35.109,42.391 35.496,42.777 35.926,43.117L35.484,44.434C35.945,44.766 36.438,45.047 36.953,45.281L37.875,44.246C38.383,44.441 38.914,44.586 39.453,44.668L39.73,46.027C40.297,46.082 40.863,46.082 41.426,46.027L41.707,44.668C42.246,44.586 42.773,44.441 43.285,44.246L44.203,45.281C44.723,45.047 45.211,44.766 45.672,44.434L45.234,43.117C45.66,42.777 46.051,42.391 46.391,41.965L47.707,42.398C48.035,41.941 48.32,41.449 48.555,40.934L47.516,40.012C47.715,39.504 47.855,38.973 47.941,38.434L49.297,38.156C49.352,37.59 49.352,37.023 49.297,36.461L47.941,36.18C47.855,35.641 47.715,35.113 47.516,34.602L48.555,33.684C48.32,33.164 48.035,32.676 47.707,32.215L46.391,32.652C46.051,32.227 45.66,31.84 45.234,31.496L45.672,30.18C45.211,29.852 44.723,29.566 44.203,29.332L43.285,30.371C42.773,30.172 42.246,30.031 41.707,29.945L41.426,28.59ZM40.578,35.555C41.547,35.555 42.332,36.34 42.332,37.309C42.332,38.273 41.547,39.059 40.578,39.059C39.613,39.059 38.828,38.273 38.828,37.309C38.828,36.34 39.613,35.555 40.578,35.555Z" style="fill:#575757;stroke:#575757;stroke-width:1px;"/>
    </g>
</svg>
