<svg xmlns="http://www.w3.org/2000/svg" xml:space="preserve" fill-rule="evenodd" stroke-linejoin="round" stroke-miterlimit="2" clip-rule="evenodd" viewBox="0 0 64 64">
  <g id="green">
    <path fill="#c2bdbd" d="M24.062 14.876c.321-4.453 4.307-7.996 9.153-8.138 5.203-.126 9.6 3.706 9.752 8.495a8.195 8.195 0 0 1-.22 2.162c1.502 1.68 2.273 3.815 2.159 5.989-.447 4.122-5.125 7.649-11.424 7.649-4.541 0-8.219-.312-10.276-3.257-2.808-1.031-4.667-3.536-4.693-6.317.038-3.082 2.316-5.783 5.549-6.583Z"/>
    <path fill="#707070" d="M35.623 6.96c4.189.908 7.216 4.319 7.344 8.278a8.195 8.195 0 0 1-.22 2.162c1.502 1.677 2.273 3.815 2.159 5.986-.449 4.123-5.13 7.647-11.424 7.647-4.543 0-8.221-.312-10.276-3.257-2.358-.873-4.08-2.791-4.57-5.085a7.372 7.372 0 0 0 2.337 1.341c1.918 2.58 5.345 2.855 9.579 2.855 5.863 0 10.225-3.094 10.646-6.715a7.062 7.062 0 0 0-2.013-5.255c.156-.62.224-1.258.201-1.897-.111-2.46-1.516-4.721-3.763-6.06Z"/>
    <path fill="#c2bdbd" d="M36.284 24.713c.286-3.953 3.822-7.097 8.123-7.223 4.618-.111 8.52 3.289 8.654 7.54a7.2 7.2 0 0 1-.195 1.918c1.333 1.491 2.017 3.386 1.916 5.315-.396 3.658-4.548 6.788-10.138 6.788-4.03 0-7.294-.277-9.12-2.89-2.491-.915-4.141-3.138-4.164-5.607.033-2.735 2.055-5.132 4.924-5.841Z"/>
    <path fill="#707070" d="M46.544 17.688c3.717.806 6.404 3.832 6.517 7.346a7.2 7.2 0 0 1-.195 1.918c1.333 1.489 2.017 3.386 1.916 5.313-.398 3.659-4.552 6.786-10.138 6.786-4.032 0-7.296-.277-9.12-2.89-2.092-.775-3.621-2.477-4.055-4.513a6.53 6.53 0 0 0 2.074 1.19c1.702 2.29 4.743 2.533 8.501 2.533 5.203 0 9.074-2.745 9.447-5.959a6.263 6.263 0 0 0-1.786-4.663c.138-.55.198-1.117.178-1.684-.098-2.183-1.345-4.189-3.339-5.377Z"/>
  </g>
  <g id="brown">
    <path fill="#444" d="M28.249 50.677c-.857-.492-.494-1.389-.728-2.578l-.278-4.387 2.131 1.788.179 3.054c.163 1.087-.23 1.766-1.304 2.123Zm0 0c.033.022-.036.012 0 0ZM12.634 31.511l-.661 2.788c-.236.794-.183 1.634-1.659 1.612l-.419-.381c-.806-.878.306-1.896.467-2.71l.635-2.682 1.637 1.373Zm23.052 11.045.178 3.054c.163 1.086-.111 1.821-1.149 2.131-.035.01-.065-.039-.097-.062-.856-.493-.551-1.336-.786-2.524l-.276-4.386 2.13 1.787Z"/>
    <path fill="#707070" d="m11.871 31.868-.659 2.786c-.236.795-.46 1.826-1.317.876l-.09-.095c-.806-.878-.365-1.445-.207-2.259l.637-2.683 1.636 1.375Zm16.694 14.008.179 3.054c.163 1.086-.155 2.113-.964 1.636l-.097-.061c-.855-.494-.736-.841-.971-2.029l-.275-4.386 2.128 1.786Zm6.451-3.008.179 3.055c.162 1.086-.155 2.113-.965 1.637l-.097-.063c-.856-.492-.736-.841-.97-2.03l-.278-4.386 2.131 1.787Z"/>
    <path fill="#131313" d="m39.244 37.367.22.183-.429 2.645-1.089.509.427-2.645-19.725-16.552.935-.436 19.085 15.818.296-1.836-19.725-16.552.936-.438 19.064 15.805.3-1.859-19.726-16.551.936-.437 19.88 16.48-.428 2.645-.4.188.252.21-.426 2.646-.383.177Zm-1.796 3.655v1.101l-2.405 1.212v-1.199l2.405-1.114Zm-2.977 1.389v1.101l-2.407 1.212v-1.199l2.407-1.114Zm-3.132 1.461v1.1l-2.405 1.213v-1.2l2.405-1.113Z"/>
    <path fill="#131313" d="M35.043 43.335 15.318 26.783v-1.198l19.725 16.551v1.199Zm-2.979 1.389L12.339 28.172v-1.199l19.725 16.552v1.199Z"/>
    <path fill="#808080" d="M37.946 40.704 18.22 24.152l.428-2.645 19.725 16.552-.427 2.645Zm.59-3.006L18.811 21.147l.428-2.646 19.725 16.552-.428 2.645Zm.576-3.044L19.386 18.103l.427-2.645 19.726 16.551-.427 2.645Zm-4.069 7.482L15.318 25.585l2.405-1.115 19.725 16.552-2.405 1.114Zm-2.979 1.389L12.339 26.973l2.406-1.114 19.726 16.552-2.407 1.114Zm-3.13 1.46L9.208 28.433l2.405-1.113 19.726 16.552-2.405 1.113Z"/>
    <path fill="#909090" d="M28.934 46.185 9.208 29.633v-1.2l19.726 16.552v1.2Z"/>
    <path fill="#bdbdbd" d="M39.912 46.458V57.23l-1.083.028v-10.8h1.083Zm2.472-.732.008 10.795-1.072.434-.018-10.794 1.082-.435Zm1.589-2.189.008 10.795c-.054.78-.258 1.146-.549 1.274l-.019-10.794c.305-.19.493-.611.56-1.275Zm-6.623 2.702-.077 10.78-1-.369V45.851l1.077.388Zm-2.246-1.284-.013 10.785c-.163-.181-.365-.487-.468-.964V43.787c.1.601.262.982.481 1.168Z"/>
  </g>
  <g id="black">
    <path d="M34.623 43.787v-.157h9.301v.25c-.091.469-.263.777-.511.932l.019 10.794a.622.622 0 0 0 .137-.084c-.217.298-.522.58-.916.832a4.845 4.845 0 0 1-.261.155l-.008-10.783-1.082.435.018 10.794a7.113 7.113 0 0 1-1.408.275V46.458h-1.083v10.8a7.119 7.119 0 0 1-1.556-.239l.077-10.78-1.077-.388v10.791a6.494 6.494 0 0 1-.233-.125 3.342 3.342 0 0 1-.949-.777l.013-10.785c-.219-.186-.381-.567-.481-1.168Zm7.678 12.771a5.79 5.79 0 0 1-.981.397l.981-.397Zm-2.389.672c-.36.034-.722.044-1.083.028l1.083-.028Zm-2.639-.211a5.637 5.637 0 0 1-.925-.341l.925.341Z"/>
  </g>
  <g id="grey">
    <path fill="#6e6e6e" d="m22.654 28.608.512-.306 1.123.942-.512.306-1.123-.942Zm4.516-8.264.405-1.147a.699.699 0 0 1 .668-.507.704.704 0 0 1 .683.818l-.621 1.777-1.135-.941Zm10.399 8.621.365-.958a.696.696 0 0 1 .673-.531.698.698 0 0 1 .676.84l-.592 1.578-1.122-.929Zm-2.992 8.912-.512.306-1.123-.943.512-.305 1.123.942Zm-9.118 5.392a.702.702 0 0 1-.806-.676l.806.676Zm-10.381-8.71a.697.697 0 0 1-.542-.456l.542.456Z"/>
    <path fill="#808080" d="M42.555 41.555c1.852 1.058 1.896 2.85.098 3.999-1.797 1.148-4.761 1.221-6.613.163-1.853-1.059-1.897-2.85-.099-3.999s4.761-1.222 6.614-.163Z"/>
    <path fill="#131313" d="M42.021 41.896c1.549.885 1.586 2.383.083 3.343-1.503.961-3.981 1.022-5.53.137-1.548-.885-1.585-2.383-.082-3.343 1.503-.961 3.98-1.022 5.529-.137Z"/>
  </g>
</svg>
