<svg xmlns="http://www.w3.org/2000/svg" xml:space="preserve" fill-rule="evenodd" stroke-linejoin="round" stroke-miterlimit="2" clip-rule="evenodd" viewBox="0 0 64 64">
  <g id="grey">
    <path fill="#2e2e2e" d="M40.697 54.165c2.882 2.063 2.074 3.69-1.802 3.63-3.877-.061-9.364-1.785-12.246-3.849-2.882-2.063-2.074-3.69 1.802-3.63 3.876.06 9.364 1.785 12.246 3.849Z"/>
    <path fill="#444" d="M36.35 43.682v9.865l-.001.05.001.036a.653.653 0 0 1-.082.313.766.766 0 0 1-.264.313c-.351.294-.934.51-1.62.599V42.675l1.966 1.007ZM33.2 54.883a5.28 5.28 0 0 1-.534-.075c.14.026.374.057.534.075Zm-.573-.083a3.937 3.937 0 0 1-.704-.211c.187.067.35.135.704.211Z"/>
    <path fill="#6e6e6e" d="M34.384 42.675v12.163a5.507 5.507 0 0 1-1.757-.057c-.354-.075-.517-.142-.704-.209-.675-.24-1.053-.538-1.053-1.145V40.874l3.514 1.801Z"/>
    <path fill="#444" d="M51.397 26.984v22.311l-1.387 1.388V28.372L16.534 11.215l1.52-1.101 33.343 16.87Z"/>
    <path fill="#d4d4d4" d="m42.356 25.594-2.036 1.677-2.611-1.256v-.367l2.611 1.255 2.036-1.674v.365Zm-12.674-6.449-2.036 1.676-2.611-1.255v-.368l2.611 1.256 2.036-1.674v.365Zm-12.432-6.3-2.037 1.677-2.61-1.255v-.368l2.61 1.255 2.037-1.674v.365Z"/>
    <path fill="#525252" d="m42.356 25.226-2.036 1.677-2.611-1.255 2.143-1.674 2.504 1.252Zm-12.674-6.449-2.036 1.677-2.611-1.256 2.143-1.673 2.504 1.252ZM17.25 12.478l-2.037 1.676-2.61-1.255 2.143-1.674 2.504 1.253Z"/>
    <path fill="#909090" d="m40.099 25.899-.837-.369 8.108-6.486a.42.42 0 0 1 .68.327v5.975l-.837-.423v-4.682l-7.114 5.658ZM27.425 19.45l-.837-.369 8.108-6.486a.418.418 0 0 1 .68.327v5.975l-.837-.423v-4.682l-7.114 5.658Zm-12.432-6.299-.837-.37 8.107-6.486a.42.42 0 0 1 .68.327v5.976l-.837-.424V7.493l-7.113 5.658Z"/>
    <path fill="#838383" d="m17.076 11.493 11.579 5.934-.643.515-.834-.417-.236.184-9.411-4.818v20.012L49 49.011V29l-6.648-3.403.004-.003v-.365l-.277.228-.002-.001.279-.23-.866-.433.603-.479L50 28.367v22.311l-.022-.012v.012L16.531 33.536V13.437l.719-.592v-.365l-.719.591v-.002l.719-.591-.719-.36v-.191l.545-.434Zm12.378 6.344 11.84 6.068-.608.486-.834-.417-.265.207-9.905-5.07v-.331l-.248.204-.002-.001.25-.206-.866-.433.638-.507Z"/>
    <path fill="#2e2e2e" d="m33.392 39.376-2.931-1.517-1.164-3.759-5.335-2.76-1.103 2.587L20 32.448l5.205-11.206 2.849 1.474 5.338 16.66Zm-4.959-8.065-1.837-6.107-1.805 4.224 3.642 1.883Zm6.385-5.096 4.926 2.548c1.11.575 1.957 1.101 2.54 1.58a9.37 9.37 0 0 1 2.011 2.32 11.3 11.3 0 0 1 1.274 2.91c.291 1.039.436 2.209.435 3.511 0 1.143-.137 2.058-.411 2.745-.334.838-.811 1.41-1.43 1.715-.468.232-1.099.276-1.894.13-.595-.112-1.39-.426-2.386-.94l-5.071-2.624.006-13.895Zm2.694 3.745-.004 9.203 2.012 1.041c.753.389 1.296.626 1.63.71.437.113.8.108 1.088-.015.288-.123.524-.448.706-.976.183-.528.274-1.33.274-2.404.001-1.074-.09-1.946-.272-2.615a5.874 5.874 0 0 0-.764-1.741 5.22 5.22 0 0 0-1.247-1.3c-.376-.283-1.113-.708-2.212-1.277l-1.211-.626Z"/>
  </g>
  <g id="white">
    <path fill="#bdbdbd" fill-opacity="0.97" d="m26.942 17.709-1.907 1.489v.368l2.611 1.255 2.036-1.676v-.034l9.905 5.07-1.878 1.467v.367l2.611 1.256 2.032-1.674L49 29v20.011L17.531 32.903V12.891l9.411 4.818Zm2.492 1.275-1.788 1.47 1.786-1.471.002.001Zm12.645 6.473-1.759 1.446 1.757-1.447.002.001ZM50 28.367l.01.005v22.311l-.01-.005V28.367ZM33.392 39.376l-5.338-16.66-2.849-1.474L20 32.448l2.859 1.479 1.103-2.587 5.335 2.76 1.164 3.759 2.931 1.517Zm-4.959-8.065-3.642-1.883 1.805-4.224 1.837 6.107Zm6.385-5.096-.006 13.895 5.071 2.624c.996.514 1.791.828 2.386.94.795.146 1.426.102 1.894-.13.619-.305 1.096-.877 1.43-1.715.274-.687.411-1.602.411-2.745.001-1.302-.144-2.472-.435-3.511a11.3 11.3 0 0 0-1.274-2.91 9.37 9.37 0 0 0-2.011-2.32c-.583-.479-1.43-1.005-2.54-1.58l-4.926-2.548Zm2.694 3.745 1.211.626c1.099.569 1.836.994 2.212 1.277.504.375.92.808 1.247 1.3.328.491.583 1.072.764 1.741.182.669.273 1.541.272 2.615 0 1.074-.091 1.876-.274 2.404-.182.528-.418.853-.706.976s-.651.128-1.088.015c-.334-.084-.877-.321-1.63-.71l-2.012-1.041.004-9.203Z"/>
  </g>
</svg>
