<svg xmlns="http://www.w3.org/2000/svg" xml:space="preserve" fill-rule="evenodd" stroke-linejoin="round" stroke-miterlimit="2" clip-rule="evenodd" viewBox="0 0 64 64">
  <g id="grey">
    <path fill="#808080" d="m26.505 43.278 5.482 4.6-11.415 6.415-5.358-4.496 11.291-6.519Z"/>
    <path d="m31.987 47.878 1.959 1.574-13.47 7.687.096-2.846 11.415-6.415Z"/>
    <path fill="#909090" d="m20.572 54.293-.096 2.846-5.358-4.496.096-2.846 5.358 4.496Z"/>
    <path fill="#444" fill-rule="nonzero" d="M.529 21.481 47.85 61.189l15.71-9.071v-1.765l-15.548 8.976L.508 19.468l.021 2.013Z"/>
    <path fill="#131313" fill-rule="nonzero" d="m.439 19.507 47.505 39.862 15.617-9.016-47.505-39.862L.439 19.507Z"/>
    <path fill="#ababab" d="m29.956 41.843 2.546 2.134-.397.229-2.538-2.138.389-.225Zm4.242 3.556 2.546 2.134-.409.236-2.538-2.138.401-.232Zm4.243 3.556 2.545 2.133-.421.244-2.538-2.138.414-.239ZM21.48 34.727l2.546 2.134-.409.236-2.538-2.138.401-.232Zm4.243 3.556 2.545 2.134-.421.243-2.538-2.138.414-.239Zm16.956 14.236 2.545 2.133-.396.229-2.538-2.137.389-.225Zm4.242 3.555 2.545 2.134-.408.236-2.538-2.138.401-.232ZM34.56 39.186l2.545 2.133-.397.229-2.538-2.137.39-.225Zm-2.211 1.276 2.546 2.133-.397.229-2.538-2.137.389-.225Zm6.453 2.279 2.545 2.134-.409.236-2.538-2.138.402-.232Zm-2.211 1.276 2.546 2.134-.409.236-2.538-2.138.401-.232Zm6.453 2.28 2.545 2.134-.421.243-2.538-2.138.414-.239Zm-2.21 1.276 2.545 2.134-.421.243-2.538-2.138.414-.239Zm-14.75-15.504 2.545 2.134-.409.236-2.538-2.138.402-.232Zm-2.211 1.277 2.546 2.133-.409.237-2.538-2.138.401-.232Zm6.453 2.28 2.545 2.133-.421.243-2.538-2.137.414-.239Zm-2.21 1.276 2.545 2.133-.421.243-2.538-2.137.414-.239Zm19.166 12.959 2.546 2.133-.397.23-2.538-2.138.389-.225Zm-2.21 1.276 2.545 2.133-.396.23-2.538-2.138.389-.225Zm6.452 2.28 2.546 2.133-.409.237-2.538-2.138.401-.232Zm-2.21 1.276 2.545 2.134-.409.236-2.537-2.138.401-.232ZM2.156 18.516l.639.534-.397.229-.631-.538.389-.225Zm2.336 1.956 2.545 2.134-.409.236-2.538-2.138.402-.232Zm4.242 3.556 2.545 2.133-.421.244-2.538-2.138.414-.239Zm4.238 3.564 2.545 2.133-.396.229-2.538-2.137.389-.225Zm4.242 3.555 2.545 2.134-.408.236-2.538-2.138.401-.232ZM6.759 15.858l.639.534-.397.229-.631-.538.389-.225Zm-2.21 1.277.639.533-.397.229-.631-.537.389-.225Zm4.546.679 2.545 2.134-.409.236-2.538-2.138.402-.232Zm-2.21 1.276 2.545 2.134-.409.236-2.538-2.138.402-.232Zm6.452 2.28 2.545 2.134-.421.243-2.538-2.138.414-.239Zm-2.21 1.276 2.545 2.134-.421.243-2.538-2.138.414-.239Zm6.448 2.288 2.546 2.133-.397.23-2.538-2.138.389-.225Zm-2.21 1.276 2.545 2.133-.396.23-2.538-2.138.389-.225Zm6.452 2.28 2.546 2.133-.409.237-2.538-2.138.401-.232Zm-2.21 1.276 2.545 2.134-.408.236-2.538-2.138.401-.232Zm18.318 7.476 2.546 2.134-.397.229-2.538-2.138.389-.225Zm4.242 3.556 2.546 2.134-.409.236-2.538-2.138.401-.232Zm4.243 3.556 2.545 2.133-.421.244-2.538-2.138.414-.239ZM29.449 30.126l2.546 2.134-.409.236-2.538-2.138.401-.232Zm4.243 3.556 2.545 2.134-.421.243-2.538-2.138.414-.239Zm16.956 14.236 2.545 2.133-.396.229-2.538-2.137.389-.225Zm4.242 3.556 2.545 2.133-.408.237-2.538-2.138.401-.232ZM42.529 34.585l2.545 2.133-.397.229-2.538-2.137.39-.225Zm-2.211 1.276 2.546 2.133-.397.229-2.538-2.137.389-.225Zm6.453 2.279 2.545 2.134-.409.236-2.538-2.138.402-.232Zm-2.211 1.276 2.546 2.134-.409.236-2.538-2.137.401-.233Zm6.453 2.281 2.545 2.133-.421.243-2.538-2.138.414-.238Zm-2.21 1.276 2.545 2.133-.421.243-2.538-2.137.414-.239Zm-14.75-15.504 2.545 2.133-.409.237-2.538-2.138.402-.232Zm-2.211 1.276 2.546 2.133-.409.237-2.538-2.138.401-.232Zm6.453 2.28 2.545 2.133-.421.243-2.538-2.137.414-.239Zm-2.21 1.276 2.545 2.133-.421.243-2.538-2.137.414-.239ZM55.251 45.26l2.546 2.133-.397.23-2.538-2.138.389-.225Zm-2.21 1.276 2.545 2.134-.396.229-2.538-2.138.389-.225Zm6.452 2.28 2.546 2.134-.409.236-2.538-2.138.401-.232Zm-2.21 1.276 2.545 2.134-.409.236-2.537-2.138.401-.232ZM10.125 13.915l.639.534-.397.229-.631-.538.389-.225Zm2.336 1.956 2.545 2.134-.409.236-2.538-2.138.402-.232Zm4.242 3.556 2.545 2.133-.421.244-2.538-2.138.414-.239Zm4.238 3.564 2.545 2.133-.396.229-2.538-2.137.389-.225Zm4.242 3.556 2.545 2.133-.408.236-2.538-2.137.401-.232ZM14.728 11.258l.639.533-.397.229-.631-.537.389-.225Zm-2.21 1.276.639.533-.397.229-.631-.537.389-.225Zm4.546.679 2.545 2.134-.409.236-2.538-2.138.402-.232Zm-2.211 1.276 2.546 2.134-.409.236-2.538-2.138.401-.232Zm6.453 2.28 2.545 2.134-.421.243-2.538-2.138.414-.239Zm-2.21 1.277 2.545 2.133-.421.243-2.538-2.137.414-.239Zm6.448 2.287 2.546 2.133-.397.23-2.538-2.138.389-.225Zm-2.21 1.276 2.545 2.134-.396.229-2.538-2.138.389-.225Zm6.452 2.28 2.546 2.134-.409.236-2.538-2.138.401-.232Zm-2.21 1.276 2.545 2.134-.408.236-2.538-2.138.401-.232Z"/>
    <path fill="#525252" d="m8.712 14.731 47.506 39.861-.388.224L8.325 14.954l.387-.223Z"/>
    <path fill="#ababab" d="m36.057 3.772 1.663-.961 2.073 1.74-1.664.96-.045 23.396-2.02-1.681-.007-23.454Z"/>
    <path fill="#707070" d="m39.793 4.551.025 25.865-1.734-1.509.045-23.396 1.664-.96Z"/>
    <path fill="#131313" d="M18.667 16.109v1.172L1.839 22.58l-.684-.574 17.512-5.897ZM6.314 26.335l12.353-3.864v1.172L7.081 26.979l-.767-.644Zm5.68 4.766 6.673-1.628v1.172l-5.815 1.176-.858-.72ZM36.057 6.668V7.84l-17.252 4.944-.683-.574 17.935-5.542ZM23.281 16.54l12.776-3.511v1.173l-2.362.68-9.647 2.301-.767-.643Z"/>
    <path fill="#ababab" d="m18.667 13.896 1.797-1.037 2.013 1.689-1.797 1.037-.013-.011v36.355l-2-1.587V13.896Z"/>
    <path fill="#707070" d="M22.477 14.548v36.336l-1.887 1.09.077-36.381 1.81-1.045Z"/>
    <path fill="#909090" d="m36.08 7.882 2.039 1.579-15.642 9.031v-2.747L36.08 7.882Zm0 9.164 2.039 1.579-15.642 9.031v-2.747l13.603-7.863Z"/>
    <path fill="#707070" d="M38.118 9.461v2l-15.641 9.031v-2l15.641-9.031Zm0 9.165v2l-15.641 9.03v-2l15.641-9.03Z"/>
    <path fill="#131313" d="m45.56 35.179-6.457-10.802v-2.385l8.672 15.047-2.215-1.86Zm7.876 6.61L39.103 16.377v-2.385l16.413 29.542-2.08-1.745Zm7.463 6.262L39.103 8.797V6.412l23.746 43.275-1.95-1.636ZM45.844 59.505l-1.95-1.636-22.641-38.961v-2.385l24.591 42.982Zm-7.868-6.602-2.192-1.839-14.531-25.005v-2.385l16.723 29.229Zm-7.703-6.464-2.428-2.037-6.592-11.343v-2.385l9.02 15.765Z"/>
  </g>
</svg>
