<svg xmlns="http://www.w3.org/2000/svg" xml:space="preserve" fill-rule="evenodd" stroke-linejoin="round" stroke-miterlimit="2" clip-rule="evenodd" viewBox="0 0 64 64">
  <g id="grey">
    <path fill="#131313" d="m39 50.5-6.5 7-2.511.147L26 51.5c.586.06 5.5 5 5.5 5s6.921-5.869 7.5-6Zm4.5-1.5-2.428 8.766-2.572-.113 3.532-8.352c1.177.12.314-.041 1.468-.301ZM22 48l2.5 9.5-1.434-.113-2.534-9.586c1.177.12.314.459 1.468.199Z"/>
    <path fill="#2e2e2e" d="M19.327 33.523a6.003 6.003 0 0 1-.978-3.354c0-2.863 1.847-5.186 4.131-5.186.822 0 1.59.305 2.234.83 1.605-4.203 4.242-6.942 7.227-6.942 2.605 0 4.95 2.093 6.57 5.426.493-1.02 1.335-1.694 2.291-1.694 1.508 0 2.737 1.694 2.737 3.785 0 .478-.065.933-.181 1.354 3.641 1.704 6.216 4.561 6.216 10.758 0 7.586-3.67 11.127-8.557 11.127-.381 0-.757-.037-1.126-.109-.654 3.418-4.327 6.031-8.76 6.031-3.074 0-5.781-1.258-7.368-3.173a5.63 5.63 0 0 1-.468.017c-4.887 0-9.149-2.998-9.149-9.916 0-5.017 2.167-6.956 5.181-8.954Z"/>
    <path fill="#525252" d="M19.327 33.523a6.003 6.003 0 0 1-.978-3.354c0-2.863 1.847-5.186 4.131-5.186.822 0 1.59.305 2.234.83 1.605-4.203 4.243-7.008 7.227-6.942 6.297.139-6.591 35.42-8.178 33.505a5.63 5.63 0 0 1-.468.017c-4.887 0-9.149-2.998-9.149-9.916 0-5.017 2.167-6.956 5.181-8.954Z"/>
  </g>
</svg>
