<svg xmlns="http://www.w3.org/2000/svg" xml:space="preserve" fill-rule="evenodd" stroke-linejoin="round" stroke-miterlimit="2" clip-rule="evenodd" viewBox="0 0 64 64">
  <g id="black">
    <path d="M19.371 11.592A23.874 23.874 0 0 1 32 8c13.246 0 24 10.754 24 24S45.246 56 32 56C19.573 56 9.339 46.534 8.121 34.425a1.508 1.508 0 1 1 2.987-.284c.038.377.087.752.145 1.124C12.823 45.307 21.52 53 32 53c11.59 0 21-9.41 21-21s-9.41-21-21-21c-6.62 0-12.528 3.069-16.378 7.861l4.414-.197.003-.001c.502-.001.943.338 1.07.823l.001.003.202.909a.75.75 0 0 1-.745.949l-8.204.17h-.003a1.092 1.092 0 0 1-1.05-.824l-.001-.004-1.781-8.007a.735.735 0 0 1 .134-.662.742.742 0 0 1 .61-.288l.931-.02.002.001c.504.004.941.353 1.055.844v.003l.882 4.601a24.163 24.163 0 0 1 6.229-5.569Z"/>
    <path d="m34.125 30.943 5.705 5.705a2.251 2.251 0 0 1-3.182 3.182l-6.364-6.364a2.243 2.243 0 0 1-.658-1.658l-.001-.058v-13a2.25 2.25 0 0 1 4.5 0v12.193Z"/>
  </g>
</svg>
