<?xml version="1.0" encoding="UTF-8" standalone="no"?>
<!DOCTYPE svg PUBLIC "-//W3C//DTD SVG 1.1//EN" "http://www.w3.org/Graphics/SVG/1.1/DTD/svg11.dtd">
<svg width="100%" height="100%" viewBox="0 0 64 64" version="1.1" xmlns="http://www.w3.org/2000/svg" xmlns:xlink="http://www.w3.org/1999/xlink" xml:space="preserve" xmlns:serif="http://www.serif.com/" style="fill-rule:evenodd;clip-rule:evenodd;stroke-linejoin:round;stroke-miterlimit:2;">
    <g id="Time">
        <path id="Icon_awesome-clock" d="M31.688,5.018C16.499,5.018 4,17.517 4,32.706C4,47.895 16.499,60.394 31.688,60.394C46.877,60.394 59.376,47.895 59.376,32.706L59.376,32.7C59.376,17.514 46.88,5.018 31.694,5.018L31.688,5.018ZM40.062,46.104L28.216,36.946C27.872,36.693 27.669,36.291 27.668,35.864L27.668,15.074C27.67,14.34 28.274,13.736 29.008,13.734L34.366,13.734C35.1,13.736 35.704,14.34 35.706,15.074L35.706,32.448L44.796,39.606C45.142,39.858 45.347,40.26 45.347,40.688C45.347,40.974 45.256,41.252 45.086,41.482L41.938,45.812C41.502,46.403 40.659,46.534 40.064,46.104L40.062,46.104Z" style="fill:#000000;fill-rule:nonzero;"/>
    </g>
</svg>
