<svg xmlns="http://www.w3.org/2000/svg" xml:space="preserve" fill-rule="evenodd" stroke-linejoin="round" stroke-miterlimit="2" clip-rule="evenodd" viewBox="0 0 64 64">
  <g id="grey">
    <path fill="#575757" d="m34.04 30.965 5.599 5.588a2.2 2.2 0 0 1 .602 1.513 2.229 2.229 0 0 1-2.209 2.205 2.21 2.21 0 0 1-1.515-.601l-6.246-6.234a2.193 2.193 0 0 1-.646-1.624l-.001-.057V19.02c0-1.209.997-2.204 2.208-2.204 1.212 0 2.208.995 2.208 2.204v11.945Z"/>
  </g>
  <g id="black">
    <path d="M11.533 11.636c-.269.006-.078-.032.138.017a.55.55 0 0 0-.121-.016 1.566 1.566 0 0 1 1.509 1.206l.005.021.669 3.484a24.161 24.161 0 0 1 5.568-4.756A23.97 23.97 0 0 1 31.955 8C45.226 8 56 18.754 56 32S45.226 56 31.955 56C19.512 56 9.264 46.545 8.034 34.451a1.989 1.989 0 0 1 1.937-2.331c1.075 0 1.96.878 1.97 1.949.036.353.082.705.137 1.054 1.504 9.602 9.836 16.959 19.877 16.959 11.104 0 20.119-8.999 20.119-20.082s-9.015-20.082-20.119-20.082a20.092 20.092 0 0 0-14.971 6.672l3.207-.143.024-.002a1.58 1.58 0 0 1 1.517 1.142l.001.003.008.027-.011.014a.266.266 0 0 1-.021.053l.037-.046.195.877a1.236 1.236 0 0 1-1.185 1.54l-.022-.001-8.041.167h-.017a1.571 1.571 0 0 1-1.503-1.177l-.004-.018-1.742-7.816-.003-.015a1.209 1.209 0 0 1 .222-1.07c.236-.302.601-.476.984-.469l.903-.02Zm1.539 1.318c0 .109.001.114 0 0a.47.47 0 0 0-.003-.053c-.031-.232.003.139.003.053Z"/>
  </g>
</svg>
