<?xml version="1.0" encoding="UTF-8" standalone="no"?><!DOCTYPE svg PUBLIC "-//W3C//DTD SVG 1.1//EN" "http://www.w3.org/Graphics/SVG/1.1/DTD/svg11.dtd"><svg width="100%" height="100%" viewBox="0 0 64 64" version="1.1" xmlns="http://www.w3.org/2000/svg" xmlns:xlink="http://www.w3.org/1999/xlink" xml:space="preserve" xmlns:serif="http://www.serif.com/" style="fill-rule:evenodd;clip-rule:evenodd;stroke-linejoin:round;stroke-miterlimit:2;"><g id="white"><path d="M32.236,32.248L20.179,39.082C20.191,38.439 20.124,34.85 20.099,34.514L20.118,34.501L24.183,24.894L32.236,20.246L32.236,26.106L54.929,13.002L54.929,29.701L52.774,30.944L52.774,39.125L50.575,40.392L50.575,32.211L34.71,41.372L34.71,49.553L32.291,50.955L32.291,42.774L32.236,42.805L32.236,32.248ZM53.747,9.708L53.747,11.961L51.965,10.718L53.747,9.708ZM28.427,39.529L28.421,44.679L26.192,45.964L26.229,37.686L28.427,39.529Z" style="fill:#d4d4d4;"/><path d="M24.367,36.663L32.297,32.211L32.291,42.627L32.291,50.955L30.337,49.314L30.337,41.133L26.192,37.655L26.192,45.964L24.367,44.44L24.367,36.663ZM50.575,32.07L50.575,40.392L48.628,38.757L48.628,33.338L50.575,32.07ZM51.378,7.718L53.735,9.695L51.965,10.718L49.602,8.74L51.378,7.718Z" style="fill:#ebebeb;"/><path d="M18.795,20.35L14.711,29.872L12.084,27.76L16.192,18.189L21.593,15.084L24.275,17.197L18.795,20.35ZM24.239,24.937L24.251,24.949L20.179,34.348L17.57,32.389L21.624,22.934L21.563,22.885L21.673,22.818L26.963,19.689L29.609,21.765L24.239,24.937ZM46.76,6.15L54.929,13.002L32.885,25.733L33.332,23.749L32.352,22.126L33.062,21.801L34.783,15.733L31.544,17.356L30.895,18.825L28.237,16.841L46.76,6.15Z" style="fill:#fefffe;"/></g><g id="grey"><path d="M26.229,45.946L26.229,48.059L24.275,46.424L24.275,44.311L26.229,45.946ZM50.575,40.478L50.575,42.597L48.628,40.955L48.628,38.843L50.575,40.478ZM32.297,51.035L32.297,53.153L30.344,51.512L30.344,49.4L32.297,51.035ZM9.071,29.499L17.184,36.308L17.184,40.472L9.071,33.663L9.071,29.499Z" style="fill:#6e6e6e;"/><path d="M52.774,39.21L52.774,41.323L50.575,42.597L50.575,40.478L52.774,39.21ZM34.495,49.767L34.495,51.88L32.297,53.153L32.297,51.035L34.495,49.767ZM28.427,44.679L28.427,46.791L26.229,48.059L26.229,45.946L28.427,44.679ZM20.179,39.082L17.184,40.472L17.099,36.24L20.099,34.514C20.124,34.85 20.191,38.439 20.179,39.082Z" style="fill:#444;"/><path d="M12.151,27.723L20.179,34.465L17.099,36.24L9.071,29.499L12.151,27.723Z" style="fill:#808080;"/><path d="M33.387,23.847L32.615,27.557L30.907,25.408L30.717,23.1L31.642,22.536L32.297,22.022L33.387,23.847ZM21.165,14.398L21.33,15.219L20.271,15.831L18.642,15.317L19.903,14.3L21.165,14.398Z" style="fill:#2e2e2e;"/></g><g id="black"><path d="M52.774,21.869L52.774,22.628L44.47,27.423L44.47,20.871L52.774,16.07L52.774,19.187L53.747,18.623L53.747,21.305L52.774,21.869ZM42.254,28.782L42.254,33.118L34.207,37.765L34.207,34.459L38.598,31.923L38.598,30.895L42.254,28.782ZM35.83,15.794L34.783,14.919L38.984,12.494L40.037,13.37L43.007,11.655L44.323,12.757L41.347,14.472L42.89,15.77L39.516,17.717L40.429,18.483L37.318,20.277L35.218,18.519L36.743,17.638L35.071,16.235L35.83,15.794ZM21.667,22.842L17.57,32.389L14.68,29.939L18.789,20.369L18.862,20.43L24.061,17.429L21.979,15.77L22.169,13.878L23.443,12.88L30.797,18.789L30.031,20.264L30.025,22.175L27.043,19.799L21.71,22.879L21.667,22.842ZM27.802,25.622C28.317,25.322 28.733,25.629 28.733,26.302C28.733,26.976 28.317,27.76 27.802,28.06C27.288,28.36 26.866,28.053 26.866,27.38C26.866,26.706 27.288,25.916 27.802,25.622Z"/></g><g id="orange"><path d="M34.869,15.439L32.23,18.152L30.901,20.969L30.895,23.057L30.031,22.395L30.037,20.393L31.427,17.448L34.869,15.439ZM26.002,8.452L23.357,11.177L22.108,13.829L22.028,16.07L21.165,15.409L21.171,13.406L22.561,10.461L26.002,8.452Z" style="fill:#ffddba;"/><path d="M22.04,13.963L23.424,11.036L26.002,8.452L23.583,12.978L22.04,13.963ZM22.04,13.963L22.028,15.984L22.034,13.988L22.04,13.963ZM34.869,15.439L33.062,21.801L30.895,22.971L30.901,20.969L32.291,18.023L34.869,15.439Z" style="fill:#e9b994;"/></g></svg>