<?xml version="1.0" encoding="UTF-8" standalone="no"?><!DOCTYPE svg PUBLIC "-//W3C//DTD SVG 1.1//EN" "http://www.w3.org/Graphics/SVG/1.1/DTD/svg11.dtd"><svg width="100%" height="100%" viewBox="0 0 40 40" version="1.1" xmlns="http://www.w3.org/2000/svg" xmlns:xlink="http://www.w3.org/1999/xlink" xml:space="preserve" xmlns:serif="http://www.serif.com/" style="fill-rule:evenodd;clip-rule:evenodd;stroke-linejoin:round;stroke-miterlimit:2;"><g id="grey"><path d="M20.733,32.026L2.462,16.695L18.922,7.191L37.258,22.486L20.733,32.026ZM6.274,16.157L4.841,16.985L6.066,18.013L6.274,16.157ZM9.334,14.39L8.032,15.142L7.569,19.274L8.682,20.208L9.334,14.39ZM12.719,12.436L11.092,13.375L10.185,21.469L11.576,22.636L12.719,12.436ZM16.277,10.382L14.477,11.421L13.079,23.897L14.618,25.188L16.277,10.382ZM19.728,9.345L19.05,8.78L18.035,9.366L16.121,26.449L17.665,27.745L19.728,9.345ZM22.799,11.908L21.231,10.6L19.168,29.007L20.614,30.22L20.756,30.137L22.799,11.908ZM25.643,14.28L24.303,13.162L22.514,29.122L24.081,28.218L25.643,14.28ZM28.604,16.749L27.147,15.534L25.839,27.203L27.542,26.22L28.604,16.749ZM31.396,19.079L30.107,18.004L29.3,25.205L30.807,24.335L31.396,19.079ZM34.251,21.461L32.9,20.333L32.565,23.32L34.145,22.408L34.251,21.461Z" style="fill:#838383;"/></g></svg>