<svg xmlns="http://www.w3.org/2000/svg" xml:space="preserve" fill-rule="evenodd" stroke-linejoin="round" stroke-miterlimit="2" clip-rule="evenodd" viewBox="0 0 64 64">
  <g id="black">
    <path d="M30.35 33.989 5.695 49.056a2.34 2.34 0 0 1-1.215.341 2.34 2.34 0 0 1-2.33-2.33V16.933a2.34 2.34 0 0 1 2.33-2.33c.429 0 .849.118 1.215.341l24.655 15.07a2.33 2.33 0 0 1 0 3.975Zm30.384 0L36.079 49.056a2.337 2.337 0 0 1-1.215.341 2.34 2.34 0 0 1-2.33-2.33V16.933a2.34 2.34 0 0 1 2.33-2.33c.429 0 .849.118 1.215.341l24.655 15.07a2.327 2.327 0 0 1 0 3.975Z"/>
  </g>
</svg>
