<?xml version="1.0" encoding="UTF-8" standalone="no"?><!DOCTYPE svg PUBLIC "-//W3C//DTD SVG 1.1//EN" "http://www.w3.org/Graphics/SVG/1.1/DTD/svg11.dtd"><svg width="100%" height="100%" viewBox="0 0 64 64" version="1.1" xmlns="http://www.w3.org/2000/svg" xmlns:xlink="http://www.w3.org/1999/xlink" xml:space="preserve" xmlns:serif="http://www.serif.com/" style="fill-rule:evenodd;clip-rule:evenodd;stroke-linejoin:round;stroke-miterlimit:2;"><g id="grey"><path d="M28.5,40.5C28.103,39.816 24.496,25.5 24.496,25.5L26,25.5L31,42.5L28.703,43C28.703,43 28.897,41.184 28.5,40.5Z" style="fill:#838383;"/><path d="M39,30L33.5,44L34.774,44L40.5,30.5L39,30Z" style="fill:#808080;"/><path d="M28.318,40C21.472,37.977 18.323,34.318 16.246,30.184C16.525,29.765 25.707,34.334 27.748,37.75L28.318,40Z" style="fill:#808080;"/><path d="M33.5,26.5C30.909,28.875 29.067,32.406 29,35.7L29.761,38.287C31.645,38.452 35.345,29.518 33.5,26.5Z" style="fill:#707070;"/><path d="M36.895,39C40.652,36.232 44.766,34.847 49.149,34.5C45.862,38.852 41.709,40.881 36.471,40L36.895,39Z" style="fill:#808080;"/><path d="M28.278,41L42.238,41L37.492,57.766L31.838,57.766L28.278,41Z" style="fill:#444;"/><path d="M21.762,41L26.508,57.766L31.838,57.766L28.278,41L21.762,41Z" style="fill:#6e6e6e;"/><path d="M22.753,15.243C22.789,14.311 23.563,13.562 24.496,13.558C25.43,13.558 26.207,14.309 26.239,15.243C26.721,14.419 27.792,14.132 28.621,14.605C29.445,15.087 29.732,16.158 29.259,16.987C30.088,16.514 31.159,16.801 31.641,17.625C32.122,18.458 31.836,19.525 31.003,20.007C31.935,20.043 32.684,20.817 32.688,21.75C32.688,22.684 31.937,23.461 31.003,23.493C31.827,23.975 32.114,25.046 31.641,25.875C31.159,26.699 30.088,26.986 29.259,26.513C29.737,27.341 29.449,28.416 28.621,28.895C27.788,29.376 26.721,29.09 26.239,28.257C26.203,29.189 25.429,29.938 24.496,29.942C23.563,29.938 22.789,29.189 22.753,28.257C22.271,29.081 21.2,29.368 20.371,28.895C19.547,28.413 19.26,27.342 19.733,26.513C18.904,26.986 17.833,26.699 17.351,25.875C16.878,25.046 17.165,23.975 17.989,23.493C17.057,23.457 16.308,22.683 16.304,21.75C16.304,20.816 17.055,20.039 17.989,20.007C17.165,19.525 16.878,18.454 17.351,17.625C17.833,16.801 18.904,16.514 19.733,16.987C19.26,16.158 19.547,15.087 20.371,14.605C21.2,14.132 22.271,14.419 22.753,15.243ZM38.007,22.993C38.043,22.061 38.817,21.312 39.75,21.308C40.684,21.308 41.461,22.059 41.493,22.993C41.975,22.169 43.046,21.882 43.875,22.355C44.699,22.837 44.986,23.908 44.513,24.737C45.342,24.264 46.413,24.551 46.895,25.375C47.376,26.208 47.09,27.275 46.257,27.757C47.189,27.793 47.938,28.567 47.942,29.5C47.942,30.434 47.191,31.211 46.257,31.243C47.081,31.725 47.368,32.796 46.895,33.625C46.413,34.449 45.342,34.736 44.513,34.263C44.991,35.091 44.703,36.166 43.875,36.645C43.042,37.126 41.975,36.84 41.493,36.007C41.457,36.939 40.683,37.688 39.75,37.692C38.817,37.688 38.043,36.939 38.007,36.007C37.525,36.831 36.454,37.118 35.625,36.645C34.801,36.163 34.514,35.092 34.987,34.263C34.158,34.736 33.087,34.449 32.605,33.625C32.132,32.796 32.419,31.725 33.243,31.243C32.311,31.207 31.562,30.433 31.558,29.5C31.558,28.566 32.309,27.789 33.243,27.757C32.419,27.275 32.132,26.204 32.605,25.375C33.087,24.551 34.158,24.264 34.987,24.737C34.514,23.908 34.801,22.837 35.625,22.355C36.454,21.882 37.525,22.169 38.007,22.993Z" style="fill:#d4d4d4;"/><path d="M24.512,19C26.03,19 27.262,20.232 27.262,21.75C27.262,23.268 26.03,24.5 24.512,24.5C22.994,24.5 21.762,23.268 21.762,21.75C21.762,20.232 22.994,19 24.512,19ZM39.75,26.75C41.268,26.75 42.5,27.982 42.5,29.5C42.5,31.018 41.268,32.25 39.75,32.25C38.232,32.25 37,31.018 37,29.5C37,27.982 38.232,26.75 39.75,26.75Z" style="fill:#c2bdbd;"/></g></svg>