<svg xmlns="http://www.w3.org/2000/svg" xml:space="preserve" fill-rule="evenodd" stroke-linejoin="round" stroke-miterlimit="2" clip-rule="evenodd" viewBox="0 0 64 64">
  <g id="black">
    <path d="M26.022 33.264 11.455 15.123a.75.75 0 0 1-.165-.47v-2.852a4.528 4.528 0 0 1 4.551-4.528h.004L48.28 7.25a4.43 4.43 0 0 1 4.43 4.43v3.047a.748.748 0 0 1-.158.461l-14.099 18.07V56a.75.75 0 0 1-1.178.616l-10.931-7.604a.749.749 0 0 1-.322-.616V33.264Zm8.931 17.473V33.864h-5.431v13.095l5.431 3.778Zm14.394-36.933.001-.002c.11-.771.139-1.452.034-2.009-.12-.64-.457-1.065-1.141-1.142l-32.398.023c-1.083.201-1.441 1.261-1.182 3.049l13.426 16.626h8.28l12.98-16.545Z"/>
  </g>
</svg>
