<svg xmlns="http://www.w3.org/2000/svg" xml:space="preserve" fill-rule="evenodd" stroke-linejoin="round" stroke-miterlimit="2" clip-rule="evenodd" viewBox="0 0 64 64">
  <g id="black">
    <path d="M24.773 40.25v-5.83L9.845 15.83a1.786 1.786 0 0 1-.393-1.121v-2.966c0-3.137 2.582-5.719 5.719-5.719h.027L48.931 6c3.081 0 5.617 2.536 5.617 5.617v3.166c.002.399-.132.789-.378 1.103l-14.449 18.52v5.844h-5.66v-4.552h-3.628v4.552h-5.66Zm14.948 0v15.961c0 .981-.808 1.789-1.789 1.789-.366 0-.723-.112-1.022-.321l-11.368-7.907a1.795 1.795 0 0 1-.769-1.47V40.25h5.66v6.029l3.628 2.524V40.25h5.66Zm9.356-26.831c.069-.569.087-1.075.008-1.498-.033-.177-.093-.325-.268-.364l-33.508.025c-.208.068-.308.258-.361.511-.073.338-.071.751-.016 1.236l13.481 16.694h7.637l13.027-16.604Z"/>
  </g>
</svg>
