<?xml version="1.0" encoding="UTF-8" standalone="no"?>
<!DOCTYPE svg PUBLIC "-//W3C//DTD SVG 1.1//EN" "http://www.w3.org/Graphics/SVG/1.1/DTD/svg11.dtd">
<svg width="100%" height="100%" viewBox="0 0 64 64" version="1.1" xmlns="http://www.w3.org/2000/svg" xmlns:xlink="http://www.w3.org/1999/xlink" xml:space="preserve" xmlns:serif="http://www.serif.com/" style="fill-rule:evenodd;clip-rule:evenodd;stroke-linecap:round;stroke-linejoin:round;stroke-miterlimit:1.5;">
    <g id="Layer5">
        <path d="M26.887,21.683C26.349,23.691 26.861,25.38 28.424,26.751C28.433,26.756 28.442,26.761 28.45,26.766C30.419,27.434 32.138,27.033 33.608,25.563C35.469,27.424 36.808,29.743 37.489,32.285C35.481,32.823 34.274,34.112 33.868,36.15L33.868,36.181C34.274,38.22 35.481,39.508 37.489,40.046C36.808,42.589 35.469,44.907 33.608,46.768C32.138,45.298 30.419,44.897 28.45,45.565C28.442,45.57 28.433,45.575 28.424,45.58C26.861,46.951 26.349,48.641 26.887,50.649C24.345,51.33 21.668,51.33 19.125,50.649C19.663,48.641 19.151,46.951 17.588,45.58C17.579,45.575 17.571,45.57 17.562,45.565C15.593,44.897 13.874,45.298 12.404,46.768C10.543,44.907 9.204,42.589 8.523,40.046C10.531,39.508 11.738,38.22 12.144,36.181L12.144,36.15C11.738,34.112 10.531,32.823 8.523,32.285C9.204,29.743 10.543,27.424 12.404,25.563C13.874,27.033 15.593,27.434 17.562,26.766C17.571,26.761 17.579,26.756 17.588,26.751C19.151,25.38 19.663,23.691 19.125,21.683C21.668,21.001 24.345,21.001 26.887,21.683ZM23.006,30.563C26.099,30.563 28.609,33.073 28.609,36.166C28.609,39.258 26.099,41.769 23.006,41.769C19.914,41.769 17.403,39.258 17.403,36.166C17.403,33.073 19.914,30.563 23.006,30.563Z" style="fill:none;stroke:#000;stroke-width:3.13px;"/>
        <path d="M37.142,22.278C36.689,21.586 35.998,21.115 35.069,20.866C35.561,19.03 36.528,17.356 37.872,16.012C38.937,17.077 40.182,17.365 41.606,16.875C42.743,15.886 43.116,14.665 42.726,13.209C44.562,12.718 46.495,12.718 48.331,13.209C47.941,14.665 48.315,15.886 49.451,16.875C50.875,17.365 52.12,17.077 53.185,16.012C54.529,17.356 55.496,19.03 55.988,20.866C54.533,21.256 53.661,22.19 53.373,23.669C53.661,25.147 54.533,26.081 55.988,26.471C55.496,28.307 54.529,29.982 53.185,31.326C52.12,30.261 50.875,29.973 49.451,30.462C48.315,31.451 47.941,32.673 48.331,34.128C46.495,34.62 44.562,34.62 42.726,34.128C43.001,33.103 42.896,32.193 42.413,31.399" style="fill:none;stroke:#000;stroke-width:3.13px;"/>
        <circle cx="45.529" cy="23.669" r="2.572" style="fill:none;stroke:#000;stroke-width:3.13px;"/>
    </g>
</svg>
