<svg xmlns="http://www.w3.org/2000/svg" xml:space="preserve" fill-rule="evenodd" stroke-linejoin="round" stroke-miterlimit="2" clip-rule="evenodd" viewBox="0 0 64 64">
  <g id="grey">
    <path fill="#444" d="m22.6 25.077-8.855.014-1.49.901H9.104c-1.006 0-2.063-.814-2.063-1.802v-7.94c.444-.783 1.141-1.085 1.716-1.079l3.249-7.806c.307-.737.996-1.214 1.753-1.215H29.99c.759 0 1.446.476 1.755 1.215l1.956 4.701H30.34c-.872 0-1.666.516-2.02 1.314l-3.744 8.449c-.661-.006-1.465.319-1.976 1.167v2.081Z"/>
    <path fill="#2e2e2e" d="M26.399 17.717h-9.908c-1.345-1.891-3.811-2.854-6.902-3.299l12.907-.784.126-.005 5.426.365-1.649 3.723Zm-3.713 5.144h-6.395v-2.017l2.234-1.941h7.347l-1.296 2.926c-.625-.006-1.378.284-1.89 1.032Z"/>
    <path fill="#575757" d="M22.6 29.488v-6.492c.511-.848 1.315-1.173 1.976-1.167l3.744-8.449a2.22 2.22 0 0 1 2.02-1.314h18.701c.873 0 1.667.516 2.021 1.314l3.721 8.4h.259c.903-.031 1.548.354 1.917 1.188l-.037 8.594c0 1.07-.953 1.95-2.112 1.95h-3.852l-1.46-.975-5.339.008-.713-1.61a2.441 2.441 0 0 0-2.225-1.447H22.6Z"/>
    <path fill="#b5b5b5" d="M53.935 21.014H25.446l3.02-6.908a2.22 2.22 0 0 1 2.024-1.324h18.401c.878 0 1.673.52 2.026 1.324l3.018 6.908Z"/>
    <path fill="#808080" d="m47.542 40.181.284-.002c.994-.033 1.705.389 2.109 1.309l-.039 9.458c0 1.178-1.049 2.147-2.324 2.147h-4.241l-1.607-1.074-21.105.032-1.889 1.072h-3.995c-1.276 0-2.615-.969-2.615-2.147v-9.457c.561-.934 1.447-1.292 2.174-1.285l4.121-9.299a2.447 2.447 0 0 1 2.223-1.447h20.583c.963 0 1.835.568 2.225 1.447l4.096 9.246Z"/>
    <path fill="#b5b5b5" d="M46.608 39.335H15.252l3.324-7.601a2.444 2.444 0 0 1 2.227-1.458h20.253a2.433 2.433 0 0 1 2.229 1.458l3.323 7.601Z"/>
    <path fill="#2e2e2e" d="M23.85 49.394v-2.403l2.833-2.313h9.444l2.833 2.313v2.403H23.85Zm.251-6.129c-1.705-2.252-4.831-3.399-8.751-3.93l16.369-.933.158-.005 14.828.938c-4.09.719-5.986 1.983-7.492 3.93H24.101Z"/>
    <path fill="#2e2e2e" d="M33.258 29.488v-1.52l2.573-2.101h8.582l2.574 2.101v2.184h-4.095a2.427 2.427 0 0 0-1.671-.664h-7.963Zm.229-4.905c-1.549-2.046-4.39-3.088-7.952-3.569l14.872-.85.144-.005 13.472.855c-3.717.651-5.439 1.801-6.807 3.569H33.487Z"/>
    <path fill="#b5b5b5" d="M27.86 14.418H9.511l2.621-6.383c.306-.741.997-1.222 1.756-1.224h15.973c.762 0 1.452.481 1.757 1.224l1.654 4.031H30.34c-.872 0-1.666.516-2.02 1.314l-.46 1.038Z"/>
    <path fill="#b5b5b5" d="M10.305 16.376c1.005 0 1.832.879 1.833 1.949 0 1.071-.827 1.952-1.833 1.952s-1.834-.881-1.834-1.952c.002-1.07.829-1.949 1.834-1.949Z"/>
    <rect width="15.031" height="1.653" x="7.569" y="23.346" fill="#ababab"/>
    <path fill="#131313" d="M12.711 25.716v2.295c0 1.076-.551 1.95-1.244 1.95H8.975c-.695 0-1.245-.874-1.245-1.95v-2.52a2.25 2.25 0 0 0 1.374.501h3.151l.456-.276Z"/>
    <path fill="#b5b5b5" d="M26.36 23.132c1.158 0 2.111.952 2.112 2.11a2.13 2.13 0 0 1-2.112 2.112 2.14 2.14 0 0 1-2.112-2.112 2.142 2.142 0 0 1 2.112-2.11Zm26.666-.066c1.158 0 2.111.952 2.112 2.11a2.132 2.132 0 0 1-2.112 2.113 2.142 2.142 0 0 1-2.112-2.113 2.142 2.142 0 0 1 2.112-2.11Z"/>
    <path fill="#131313" d="M56.157 33.06v2.666c0 1.164-.632 2.109-1.434 2.109h-2.87c-.8 0-1.434-.945-1.434-2.109v-2.574l.539.36h3.852c.511 0 .982-.171 1.347-.452Z"/>
    <path fill="#ababab" d="M43.312 30.677h12.861v1.789H44.124l-.678-1.531a2.251 2.251 0 0 0-.134-.258Z"/>
    <path fill="#b5b5b5" d="M16.259 41.669a2.357 2.357 0 0 1 2.324 2.321 2.348 2.348 0 0 1-2.324 2.326 2.348 2.348 0 0 1-2.326-2.326 2.356 2.356 0 0 1 2.326-2.321Zm29.348-.073a2.355 2.355 0 0 1 2.325 2.323 2.347 2.347 0 0 1-2.325 2.324 2.348 2.348 0 0 1-2.324-2.324 2.356 2.356 0 0 1 2.324-2.323Z"/>
    <rect width="36.283" height="1.969" x="12.789" y="49.972" fill="#ababab"/>
    <path fill="#131313" d="M49.054 52.594v2.934c0 1.282-.697 2.322-1.578 2.322h-3.16c-.88 0-1.578-1.04-1.578-2.322v-2.832l.593.397h4.241a2.427 2.427 0 0 0 1.482-.499Zm-29.745.201v2.733c0 1.282-.697 2.322-1.579 2.322h-3.158c-.882 0-1.579-1.04-1.579-2.322v-3.003c.502.38 1.113.589 1.742.598h3.995l.579-.328Z"/>
  </g>
</svg>
