<svg xmlns="http://www.w3.org/2000/svg" xml:space="preserve" fill-rule="evenodd" stroke-linejoin="round" stroke-miterlimit="2" clip-rule="evenodd" viewBox="0 0 64 64">
  <g id="blue">
    <path fill="#909090" d="M38.569 49.665c.676-.144.546-1.43 1.158-1.498 1.303-.144.048 3.48-.433 4.496-.483 1.015-.678.966-1.137.338-.461-.627-.312-1.644 0-2.126.311-.485-.264-1.064.412-1.21ZM15.931 13.174c.724.361 1.302-.295 1.807-.436.599-.165.941 1.958.363 1.886-.579-.073-1.23 1.16-2.066 1.087-.838-.073-.467-.652-1.408-1.522-.202-.187-.284-.356-.292-.504.201-.194.401-.389.61-.575.325-.086.711-.074.986.064Zm5.198 10.164c-.24-.248.243-1.225.459-1.515.218-.29-.603-.194-.553.218.048.41-.315 1.039-.821 1.208-.507.169-1.084.12-.796-.339.288-.459.024-.87-.193-1.305-.217-.436 1.205-.701 1.496-.967.289-.265-.457-.435-.435-.845.025-.412.194-.774.481-.822.29-.048.561-.234.821-.217.797.049.554 1.861.845 2.441.289.58 1.11 1.281 1.037 1.788-.073.508-.227.798-.818.652-.594-.145-1.544.75-1.907.58-.363-.17.627-.629.384-.877ZM57.455 32c0 2.176-.275 4.288-.788 6.304-.237-.164-.864.512-1.019-.384-.193-1.113-1.448-1.885-2.123-1.354-.676.532-2.606 2.079-2.701 3.046-.098.966-.919 2.126-1.303 1.306-.387-.822-1.544-3.384-1.496-4.061.047-.676-.533.242-1.399-1.112-.869-1.353-2.364-.194-3.571-.87-1.206-.678-2.557-1.596-3.233-1.885-.674-.291 1.206 2.706 1.448 2.32.243-.386 1.206.29 1.496.29.29 0 1.061.676.579 1.305-.481.63-4.775 3.242-5.21 2.562-.436-.68-2.99-5.946-3.426-5.623-.434.322 2.703 5.816 3.234 6.154.529.339 2.122.049 2.893-.289.773-.338-1.591 3.771-2.603 4.255-1.013.482-1.833 1.981-1.4 2.658.434.676.482 3.239-.433 3.578-.918.337-1.255.869-.966 1.498.288.627-.675 1.69-1.109 2.367-.436.677-2.123 2.079-2.269 2.466-.143.387-2.218.29-3.04.29-.819 0-.192-1.016-.29-1.885-.094-.871-.818-1.692-.818-2.127 0-.435-.243-1.451-.579-1.934-.337-.484-.435-1.402-.097-1.933.339-.533.579-2.078-.095-2.756-.676-.676-1.449-1.837-.917-2.755.531-.918-.579-.821-1.495-1.257-.918-.436-2.8.145-3.764.291-.966.144-1.929-.242-2.219-.727-.289-.483-.917-1.691-1.559-1.982-.641-.289-.274-1.546.112-2.029.387-.482-.386-1.402 0-1.79.387-.386.627-1.787 1.399-2.093.772-.306.627-.516.651-1.241.024-.726.868-.726 1.011-1.112.146-.387.579-.58 1.45-.58.869 0 2.339-.508 3.039-.677.7-.169 1.906-.411 1.809.266-.097.676-.072 1.449.385 1.449.459 0 1.086.266 1.81.717.724.45.747.082.845-.426.097-.508 1.109-.315 2.156.169 1.047.484 2.475.145 2.932.097.459-.05.653-1.426.532-1.885-.122-.459-.845.217-1.303-.073-.458-.289-1.086.073-1.544-.339-.459-.41-.532-1.377 0-1.401.53-.024.797-.193 1.109-.555.315-.363 1.497-.58 1.955-.218.457.362 1.134.604 1.543.193.41-.41-.819-1.207-1.086-1.425-.265-.218-.048-.918-.313-.918-.266 0-.483.12-.338.459.145.338-.772.941-.918.604-.144-.339-.384-.991-.746-.991-.361 0-.844 1.644-.868 1.909-.025.267-.652.701-1.158.701-.505 0-.505.581-.241.848.266.265.072 1.329-.41 1.39-.482.061-.651-.11-.723-.521-.072-.41-.555-.362-.579-1.209-.025-.846-.556-1.256-.893-1.643-.337-.387-1.206-1.523-1.544-1.015-.337.508 1.207 1.596 1.616 1.885.412.29.339.918.122 1.063-.218.146-.628 1.33-.869 1.426-.242.096-.472-.36-.472-.36-.362-.145.505-.58.651-.797.143-.218-1.52-1.74-1.82-2.176-.3-.435-1.581.362-2.16.073-.579-.289-1.448 1.087-1.519 1.884-.073.799-1.014 1.015-1.882 1.015-.868 0-1.448-.652-1.157-1.305.289-.652-.145-1.74.362-1.812.506-.072 1.952 0 2.242-.798.289-.797-1.376-1.522-.723-1.667.65-.145 1.665-1.159 2.388-1.74.722-.58.795-1.304 1.446-1.355.653-.05-.144-1.256.435-1.618.58-.362.724 1.306 1.158 1.306.435 0 1.301-.146 2.026.217.724.363.941-.363 1.231-1.306.289-.942 1.013-1.45 2.459-2.175 1.447-.725-1.663.218-2.243-.508-.579-.725.217-2.321.58-3.447.362-1.127-1.158 1.126-1.954 2.287-.798 1.16.217 1.667.143 2.465-.072.798-1.372 1.74-1.372 1.74-.58.072-.508-1.088-.797-1.595-.29-.507-.797-.29-1.593.29-.797.58-.869-1.377-1.085-2.175-.215-.797 1.303-1.813 2.016-2.355.713-.544 1.89-3.155 3.194-5.184 1.304-2.03 3.185-1.016 3.691-.218.508.797 1.808.289 3.04 1.74 1.231 1.45-.29 2.102-1.663 1.513-1.377-.589.288 1.46 1.083 2.04.796.579 1.231-1.305 1.521-1.74.289-.435 1.373-.217 2.169-1.378.797-1.16 2.605-.942 3.638-.815 1.034.128.776-.635.126-1.26-.482-.462.503-.057 1.663.509C52.433 14.516 57.455 22.67 57.455 32Z"/>
    <path fill-rule="nonzero" d="M32 4.727C16.938 4.727 4.727 16.938 4.727 32l.001.048-.001.048c0 15.009 12.143 27.177 27.123 27.177l.058-.002.092.002c15.062 0 27.273-12.211 27.273-27.273S47.062 4.727 32 4.727M57.455 32c0 2.176-.275 4.288-.788 6.304-.237-.164-.864.512-1.019-.384-.193-1.113-1.448-1.885-2.123-1.354-.676.532-2.606 2.079-2.701 3.046-.098.966-.919 2.126-1.303 1.306-.387-.822-1.544-3.384-1.496-4.061.047-.676-.533.242-1.399-1.112-.869-1.353-2.364-.194-3.571-.87-1.206-.678-2.557-1.596-3.233-1.885-.674-.291 1.206 2.706 1.448 2.32.243-.386 1.206.29 1.496.29.29 0 1.061.676.579 1.305-.481.63-4.775 3.242-5.21 2.562-.436-.68-2.99-5.946-3.426-5.623-.434.322 2.703 5.816 3.234 6.154.529.339 2.122.049 2.893-.289.773-.338-1.591 3.771-2.603 4.255-1.013.482-1.833 1.981-1.4 2.658.434.676.482 3.239-.433 3.578-.918.337-1.255.869-.966 1.498.288.627-.675 1.69-1.109 2.367-.436.677-2.123 2.079-2.269 2.466-.143.387-2.218.29-3.04.29-.819 0-.192-1.016-.29-1.885-.094-.871-.818-1.692-.818-2.127 0-.435-.243-1.451-.579-1.934-.337-.484-.435-1.402-.097-1.933.339-.533.579-2.078-.095-2.756-.676-.676-1.449-1.837-.917-2.755.531-.918-.579-.821-1.495-1.257-.918-.436-2.8.145-3.764.291-.966.144-1.929-.242-2.219-.727-.289-.483-.917-1.691-1.559-1.982-.641-.289-.274-1.546.112-2.029.387-.482-.386-1.402 0-1.79.387-.386.627-1.787 1.399-2.093.772-.306.627-.516.651-1.241.024-.726.868-.726 1.011-1.112.146-.387.579-.58 1.45-.58.869 0 2.339-.508 3.039-.677.7-.169 1.906-.411 1.809.266-.097.676-.072 1.449.385 1.449.459 0 1.086.266 1.81.717.724.45.747.082.845-.426.097-.508 1.109-.315 2.156.169 1.047.484 2.475.145 2.932.097.459-.05.653-1.426.532-1.885-.122-.459-.845.217-1.303-.073-.458-.289-1.086.073-1.544-.339-.459-.41-.532-1.377 0-1.401.53-.024.797-.193 1.109-.555.315-.363 1.497-.58 1.955-.218.457.362 1.134.604 1.543.193.41-.41-.819-1.207-1.086-1.425-.265-.218-.048-.918-.313-.918-.266 0-.483.12-.338.459.145.338-.772.941-.918.604-.144-.339-.384-.991-.746-.991-.361 0-.844 1.644-.868 1.909-.025.267-.652.701-1.158.701-.505 0-.505.581-.241.848.266.265.072 1.329-.41 1.39-.482.061-.651-.11-.723-.521-.072-.41-.555-.362-.579-1.209-.025-.846-.556-1.256-.893-1.643-.337-.387-1.206-1.523-1.544-1.015-.337.508 1.207 1.596 1.616 1.885.412.29.339.918.122 1.063-.218.146-.628 1.33-.869 1.426-.242.096-.472-.36-.472-.36-.362-.145.505-.58.651-.797.143-.218-1.52-1.74-1.82-2.176-.3-.435-1.581.362-2.16.073-.579-.289-1.448 1.087-1.519 1.884-.073.799-1.014 1.015-1.882 1.015-.868 0-1.448-.652-1.157-1.305.289-.652-.145-1.74.362-1.812.506-.072 1.952 0 2.242-.798.289-.797-1.376-1.522-.723-1.667.65-.145 1.665-1.159 2.388-1.74.722-.58.795-1.304 1.446-1.355.653-.05-.144-1.256.435-1.618.58-.362.724 1.306 1.158 1.306.435 0 1.301-.146 2.026.217.724.363.941-.363 1.231-1.306.289-.942 1.013-1.45 2.459-2.175 1.447-.725-1.663.218-2.243-.508-.579-.725.217-2.321.58-3.447.362-1.127-1.158 1.126-1.954 2.287-.798 1.16.217 1.667.143 2.465-.072.798-1.372 1.74-1.372 1.74-.58.072-.508-1.088-.797-1.595-.29-.507-.797-.29-1.593.29-.797.58-.869-1.377-1.085-2.175-.215-.797 1.303-1.813 2.016-2.355.713-.544 1.89-3.155 3.194-5.184 1.304-2.03 3.185-1.016 3.691-.218.508.797 1.808.289 3.04 1.74 1.231 1.45-.29 2.102-1.663 1.513-1.377-.589.288 1.46 1.083 2.04.796.579 1.231-1.305 1.521-1.74.289-.435 1.373-.217 2.169-1.378.797-1.16 2.605-.942 3.638-.815 1.034.128.776-.635.126-1.26-.482-.462.503-.057 1.663.509C52.433 14.516 57.455 22.67 57.455 32m-36.326-8.662c-.24-.248.243-1.225.459-1.515.218-.29-.603-.194-.553.218.048.41-.315 1.039-.821 1.208-.507.169-1.084.12-.796-.339.288-.459.024-.87-.193-1.305-.217-.436 1.205-.701 1.496-.967.289-.265-.457-.435-.435-.845.025-.412.194-.774.481-.822.29-.048.561-.234.821-.217.797.049.554 1.861.845 2.441.289.58 1.11 1.281 1.037 1.788-.073.508-.227.798-.818.652-.594-.145-1.544.75-1.907.58-.363-.17.627-.629.384-.877m-5.198-10.164c.724.361 1.302-.295 1.807-.436.599-.165.941 1.958.363 1.886-.579-.073-1.23 1.16-2.066 1.087-.838-.073-.467-.652-1.408-1.522-.202-.187-.284-.356-.292-.504.201-.194.401-.389.61-.575.325-.086.711-.074.986.064m22.638 36.491c.676-.144.546-1.43 1.158-1.498 1.303-.144.048 3.48-.433 4.496-.483 1.015-.678.966-1.137.338-.461-.627-.312-1.644 0-2.126.311-.485-.264-1.064.412-1.21"/>
  </g>
</svg>
