<svg xmlns="http://www.w3.org/2000/svg" xml:space="preserve" fill-rule="evenodd" stroke-linejoin="round" stroke-miterlimit="2" clip-rule="evenodd" viewBox="0 0 64 64">
  <g id="black">
    <path d="M28.177 12.5a2.336 2.336 0 0 1 2.323 2.323v13.354a2.336 2.336 0 0 1-2.323 2.323H14.323A2.336 2.336 0 0 1 12 28.177V14.823a2.336 2.336 0 0 1 2.323-2.323h13.854Zm0 2H14.323a.325.325 0 0 0-.323.323v13.354c0 .178.145.323.323.323h13.854a.325.325 0 0 0 .323-.323V14.823a.325.325 0 0 0-.323-.323Zm0 19a2.336 2.336 0 0 1 2.323 2.323v13.354a2.336 2.336 0 0 1-2.323 2.323H14.323A2.336 2.336 0 0 1 12 49.177V35.823a2.336 2.336 0 0 1 2.323-2.323h13.854Zm0 2H14.323a.325.325 0 0 0-.323.323v13.354c0 .178.145.323.323.323h13.854a.325.325 0 0 0 .323-.323V35.823a.325.325 0 0 0-.323-.323Zm21.5-23A2.336 2.336 0 0 1 52 14.823v13.354a2.336 2.336 0 0 1-2.323 2.323H35.823a2.336 2.336 0 0 1-2.323-2.323V14.823a2.336 2.336 0 0 1 2.323-2.323h13.854Zm0 2H35.823a.325.325 0 0 0-.323.323v13.354c0 .178.145.323.323.323h13.854a.325.325 0 0 0 .323-.323V14.823a.325.325 0 0 0-.323-.323Zm0 19A2.336 2.336 0 0 1 52 35.823v13.354a2.336 2.336 0 0 1-2.323 2.323H35.823a2.336 2.336 0 0 1-2.323-2.323V35.823a2.336 2.336 0 0 1 2.323-2.323h13.854Zm0 2H35.823a.325.325 0 0 0-.323.323v13.354c0 .178.145.323.323.323h13.854a.325.325 0 0 0 .323-.323V35.823a.325.325 0 0 0-.323-.323Z"/>
    <path d="m14.786 27.773 4.011-6.712 2.243 3.57 4.201-2.228 2.486 5.37H14.786Zm0 21 4.011-6.712 2.243 3.57 4.201-2.228 2.486 5.37H14.786Zm21.494-21 4.011-6.712 2.242 3.57 4.201-2.228 2.486 5.37H36.28Zm0 21 4.011-6.712 2.242 3.57 4.201-2.228 2.486 5.37H36.28Z"/>
    <path d="M24.284 15.227c1.209 0 2.191 1.017 2.191 2.269 0 1.253-.982 2.269-2.191 2.269-1.209 0-2.19-1.016-2.19-2.269 0-1.252.981-2.269 2.19-2.269Zm21.493 0c1.21 0 2.191 1.017 2.191 2.269 0 1.253-.981 2.269-2.191 2.269-1.209 0-2.19-1.016-2.19-2.269 0-1.252.981-2.269 2.19-2.269Zm-21.493 21c1.209 0 2.191 1.017 2.191 2.269 0 1.253-.982 2.269-2.191 2.269-1.209 0-2.19-1.016-2.19-2.269 0-1.252.981-2.269 2.19-2.269Zm21.493 0c1.21 0 2.191 1.017 2.191 2.269 0 1.253-.981 2.269-2.191 2.269-1.209 0-2.19-1.016-2.19-2.269 0-1.252.981-2.269 2.19-2.269Z"/>
  </g>
</svg>
