<svg xmlns="http://www.w3.org/2000/svg" xml:space="preserve" fill-rule="evenodd" stroke-linejoin="round" stroke-miterlimit="2" clip-rule="evenodd" viewBox="0 0 64 64">
  <g id="black">
    <path d="M29.628 51.865a5.27 5.27 0 0 1-2.081 4.664 5.269 5.269 0 0 1-5.055.701 26.374 26.374 0 0 1-16.72-22.564A26.375 26.375 0 0 1 18.951 9.868a26.376 26.376 0 0 1 28.056 1.239 5.27 5.27 0 0 1 2.256 4.32 5.269 5.269 0 0 1-2.705 4.599 5.273 5.273 0 0 1-5.554-.28 15.83 15.83 0 0 0-16.833-.738 15.825 15.825 0 0 0-7.907 14.88 15.823 15.823 0 0 0 10.031 13.529 5.279 5.279 0 0 1 3.333 4.448Z"/>
  </g>
</svg>
