<svg xmlns="http://www.w3.org/2000/svg" xml:space="preserve" fill-rule="evenodd" stroke-linejoin="round" stroke-miterlimit="2" clip-rule="evenodd" viewBox="0 0 64 64">
  <g id="grey">
    <path fill="#444" d="m9.738 30.063-3.04-2.551-.032-2.952 5.138 4.311-2.066 1.192Zm48.279-1.018-.192 2.698-3.801 2.195-1.827-1.533 5.82-3.36Zm-.683 7.67v2.588L35.662 51.816l-5.137-4.311-5.797 3.347-18.72-16.047v-2.588l18.959 15.909 5.796-3.346 5.137 4.31 21.434-12.375Z"/>
    <path fill="#131313" d="m30.763 44.78-5.796 3.346L6.008 32.217l5.796-3.346-5.138-4.311L28.1 12.185l5.137 4.311 5.82-3.36 18.96 15.909-5.82 3.36 5.137 4.31L35.9 49.09l-5.137-4.31Z"/>
    <path fill="#ababab" d="m32.45 30.826-1.426.824-.842-.706 1.429-.821-1.264-1.059.951-.55 1.262 1.063 1.43-.823.833.699-1.428.826 1.26 1.061-.942.544-1.263-1.058Zm-11.618 7.125-2.625 1.51-.783-.658 3.681-2.127 9.66 8.102-1.071.619-8.862-7.446Zm22.531-12.959-10.117-8.501 1.015-.586 9.338 7.769 2.729-1.579.842.707-3.807 2.19Zm-24.427-5.559 3.732 3.182-10.865 6.256-.898-.754 9.963-5.801-2.817-2.372.885-.511Zm23.651 19.785 2.797 2.345-.951.549-3.748-3.155 11.512-6.552.9.755-10.51 6.058Z"/>
  </g>
</svg>
