<svg xmlns="http://www.w3.org/2000/svg" xml:space="preserve" fill-rule="evenodd" stroke-linejoin="round" stroke-miterlimit="2" clip-rule="evenodd" viewBox="0 0 64 64">
  <g id="white">
    <path fill="#bdbdbd" d="m10.425 50.308 3.267 3.267L9.634 56 8 54.367l2.425-4.059Z"/>
  </g>
  <g id="grey" fill="#ababab">
    <path d="m11.735 52.699-.434-.434a.684.684 0 0 1 0-.966l3.625-3.625a3.384 3.384 0 0 0 .854 1.014c.171.137.358.261.56.372l-3.639 3.639a.684.684 0 0 1-.95.016l-.016-.016Z"/>
    <path d="m34.338 19.119-3.013-3.014 1.441-1.441 3.044 3.044a2.318 2.318 0 0 0-.757.504l-.715.907Zm11.954 9.071 3.044 3.044-1.441 1.441-3.014-3.013.907-.715c.22-.219.387-.476.504-.757Z"/>
  </g>
  <g id="yellow" fill="#6e6e6e">
    <path d="m29.105 39.096-8.284 8.283c-1.975-.825-3.388-2.213-4.2-4.2l8.283-8.284 4.201 4.201Z"/>
    <path d="m45.788 28.947-9.874 7.774c-1.143 1.143-3.273.868-4.754-.614l-3.267-3.267c-1.482-1.481-1.757-3.611-.614-4.754l7.774-9.874c1.143-1.143 3.273-.868 4.754.613 2.411 1.263 4.217 3.038 5.369 5.368 1.481 1.481 1.755 3.611.612 4.754Z"/>
  </g>
  <g id="orange">
    <path fill="#444" d="M32.532 37.069 30.3 39.3a.697.697 0 0 1-.991 0c-2.189-1.184-3.679-2.747-4.609-4.609a.7.7 0 0 1 0-.991l2.231-2.232a4.7 4.7 0 0 0 .962 1.372l3.267 3.267a4.7 4.7 0 0 0 1.372.962Z"/>
  </g>
  <g id="black">
    <path d="m18.915 48.354-1.025 1.023a.586.586 0 0 1-.833 0c-1.235-.435-2.071-1.224-2.434-2.433a.59.59 0 0 1 0-.834l1.023-1.024-.233-.234 1.441-1.44 3.734 3.734-1.44 1.441-.233-.233Z"/>
    <path d="m44.321 27.847-1.975 1.975c-.228.228-.585.302-1.009.22-.558-.107-1.246-.489-1.851-1.094l-4.434-4.434c-.605-.605-.987-1.292-1.094-1.85-.082-.425-.008-.782.221-1.01l1.974-1.975c.229-.23.585-.302 1.01-.222.559.107 1.245.49 1.85 1.096l4.435 4.434c.606.605.988 1.291 1.095 1.85.081.425.008.781-.222 1.01Zm-.466-.467c.13-.13.155-.34.108-.581-.083-.44-.399-.976-.875-1.452l-4.435-4.434c-.476-.477-1.012-.792-1.452-.876-.241-.047-.451-.022-.581.108l-1.975 1.975c-.13.13-.155.341-.109.582.084.439.4.975.876 1.452l4.434 4.434c.477.476 1.013.792 1.452.876.241.046.452.021.582-.109l1.975-1.975Zm-7.35-5.02c-.128-.129-.152-.314-.052-.413.099-.1.284-.076.412.053L42 27.135c.129.128.153.313.053.412-.099.1-.284.077-.413-.052l-5.135-5.135Zm-.695.696c-.129-.128-.153-.314-.054-.413.099-.099.285-.075.414.053l5.134 5.134c.128.129.153.315.053.414-.099.099-.285.075-.413-.054l-5.134-5.134Zm1.413-1.413c-.128-.129-.153-.315-.053-.414.099-.099.285-.075.413.054l5.134 5.134c.129.129.153.314.054.413-.099.1-.285.076-.414-.053l-5.134-5.134Z"/>
    <path d="m48.848 33.356-.673.673-.818-.817 2.521-2.521.818.817-.68.679a.703.703 0 0 1 .993 0L55 36.179l.183-.184.817.817-2.521 2.521-.817-.817.177-.176-3.991-3.993a.7.7 0 0 1 0-.991Z"/>
    <path d="m27.821 9 3.992 3.991a.703.703 0 0 1 0 .993l.679-.68.817.818-2.521 2.521-.817-.818.673-.673a.7.7 0 0 1-.991 0l-3.993-3.991-.176.177-.817-.817L27.188 8l.817.817-.184.183Z"/>
  </g>
</svg>
