<svg xmlns="http://www.w3.org/2000/svg" xml:space="preserve" fill-rule="evenodd" stroke-linejoin="round" stroke-miterlimit="2" clip-rule="evenodd" viewBox="0 0 64 64">
  <g id="yellow">
    <path fill="#d4d4d4" d="M39.689 24a4.752 4.752 0 0 1 4.75 4.75 4.752 4.752 0 0 1-4.75 4.75 4.752 4.752 0 0 1-4.75-4.75 4.752 4.752 0 0 1 4.75-4.75Zm-21-12.75a4.752 4.752 0 0 1 4.75 4.75 4.752 4.752 0 0 1-4.75 4.75 4.752 4.752 0 0 1-4.75-4.75 4.752 4.752 0 0 1 4.75-4.75Z"/>
    <path fill="#bdbdbd" d="M39.689 24a2.751 2.751 0 0 1 0 5.5 2.751 2.751 0 0 1 0-5.5Zm-21-12.75a2.751 2.751 0 0 1 0 5.5 2.751 2.751 0 0 1 0-5.5Z"/>
  </g>
  <g id="grey">
    <path fill="#808080" d="M50.061 56.872c-.235.605-.83.999-1.479.977a2.303 2.303 0 0 1-1.739-.983l1.067-35.659-2.997 2.007-2.885 3.926-1.476 1.044s-2.331.203-3.144-.61c-.813-.813 0-2.601 0-2.601l1.746-1.322 4.128-1.524 5.811-3.483.968.812v37.416Z"/>
    <path fill="#808080" d="M28.831 44.377c-.235.606-.83.999-1.479.978a2.302 2.302 0 0 1-1.739-.984L26.68 8.712l-2.997 2.008-2.885 3.926-1.476 1.044s-2.331.202-3.144-.61c-.813-.814 0-2.602 0-2.602l1.746-1.322 4.128-1.523 5.811-3.483.968.811v37.416Z"/>
    <path fill="#131313" d="M50.061 56.872c-.233.606-.193.651-.942.9-.665.22-.655-.933-.594-1.878l1.068-35.659-4.68 2.979-2.885 3.926-1.476 1.044s-2.331.203-3.144-.61c-.813-.813 2.237.095 3.059-.223.784-.301 1.875-1.682 1.875-1.682l1.886-2.818 5.546-3.636.287.241v37.416Z"/>
    <path fill="#2e2e2e" d="M28.831 44.377c-.233.607-.193.652-.942.901-.665.22-.655-.933-.594-1.878l1.068-35.659-4.68 2.979-2.885 3.926-1.476 1.044s-2.331.202-3.144-.61c-.813-.814 2.237.095 3.059-.223.784-.302 1.875-1.682 1.875-1.682l1.886-2.819 5.546-3.636.287.241v37.416Z"/>
  </g>
</svg>
