<svg xmlns="http://www.w3.org/2000/svg" xml:space="preserve" fill-rule="evenodd" stroke-linejoin="round" stroke-miterlimit="2" clip-rule="evenodd" viewBox="0 0 64 64">
  <g id="grey">
    <path fill="#808080" d="M40.581 56.56a2.02 2.02 0 0 1-1.95 1.289 3.034 3.034 0 0 1-2.294-1.297l1.407-47.023-3.952 2.647-3.804 5.177-1.946 1.377s-3.074.267-4.146-.804c-1.073-1.073 0-3.431 0-3.431l2.302-1.743 5.444-2.009 7.663-4.593 1.276 1.07v49.34Z"/>
    <path fill="#525252" d="M40.433 56.56c-.308.8-.255.859-1.242 1.187-.877.291-.864-1.23-.783-2.476l1.408-47.023-6.172 3.928-3.804 5.177-1.946 1.377s-3.074.267-4.146-.804c-1.073-1.073 2.949.125 4.034-.294 1.033-.398 2.472-2.218 2.472-2.218l2.487-3.717 7.313-4.795.379.318v49.34Z"/>
  </g>
</svg>
