<svg xmlns="http://www.w3.org/2000/svg" xml:space="preserve" fill-rule="evenodd" stroke-linejoin="round" stroke-miterlimit="2" clip-rule="evenodd" viewBox="0 0 64 64">
  <g>
    <path fill="#575757" d="M13.508 18.258v1.484c0 .818-.687 1.483-1.535 1.483H9.285c-.848 0-1.535-.665-1.535-1.483v-1.484c0-.818.687-1.483 1.535-1.483h2.688c.848 0 1.535.665 1.535 1.483Zm0 12.63v1.483c0 .819-.687 1.483-1.535 1.483H9.285c-.848 0-1.535-.664-1.535-1.483v-1.483c0-.819.687-1.484 1.535-1.484h2.688c.848 0 1.535.665 1.535 1.484Zm0 12.646v1.483c0 .819-.687 1.483-1.535 1.483H9.285c-.848 0-1.535-.664-1.535-1.483v-1.483c0-.819.687-1.484 1.535-1.484h2.688c.848 0 1.535.665 1.535 1.484Z"/>
  </g>
  <g id="black">
    <path d="M56.25 18.198v1.604c0 .786-.61 1.423-1.362 1.423H17.735c-.752 0-1.362-.637-1.362-1.423v-1.604c0-.786.61-1.423 1.362-1.423h37.153c.752 0 1.362.637 1.362 1.423Zm0 12.629v1.605c0 .786-.61 1.422-1.362 1.422H17.735c-.752 0-1.362-.636-1.362-1.422v-1.605c0-.786.61-1.423 1.362-1.423h37.153c.752 0 1.362.637 1.362 1.423Zm0 12.646v1.605c0 .786-.61 1.422-1.362 1.422H17.735c-.752 0-1.362-.636-1.362-1.422v-1.605c0-.786.61-1.423 1.362-1.423h37.153c.752 0 1.362.637 1.362 1.423Z"/>
  </g>
</svg>
