<?xml version="1.0" encoding="UTF-8" standalone="no"?>
<!DOCTYPE svg PUBLIC "-//W3C//DTD SVG 1.1//EN" "http://www.w3.org/Graphics/SVG/1.1/DTD/svg11.dtd">
<svg width="100%" height="100%" viewBox="0 0 64 64" version="1.1" xmlns="http://www.w3.org/2000/svg" xmlns:xlink="http://www.w3.org/1999/xlink" xml:space="preserve" xmlns:serif="http://www.serif.com/" style="fill-rule:evenodd;clip-rule:evenodd;stroke-linejoin:round;stroke-miterlimit:2;">
    <g id="surface1">
        <path d="M28.543,6.012C16.164,6.012 5.977,16.199 5.977,28.574C5.977,40.957 16.164,51.141 28.543,51.141C32.277,51.172 35.957,50.262 39.246,48.496C39.496,48.801 39.781,49.082 40.086,49.336L46.531,55.785C47.777,57.188 49.566,57.988 51.445,57.988C55.051,57.988 58.023,55.02 58.023,51.41C58.023,49.535 57.219,47.746 55.816,46.5L49.367,40.051C49.055,39.738 48.707,39.457 48.336,39.215C50.172,35.941 51.148,32.262 51.18,28.512C51.16,16.137 40.914,6.027 28.543,6.012ZM28.477,12.523C28.504,12.523 28.453,12.523 28.477,12.523C37.277,12.523 44.66,19.699 44.66,28.504L44.66,28.578C44.703,32.68 43.18,36.645 40.406,39.668L40.207,39.867C39.902,40.121 39.621,40.398 39.367,40.707C36.367,43.367 32.48,44.813 28.473,44.77C19.629,44.77 12.355,37.492 12.355,28.648C12.355,19.809 19.629,12.531 28.473,12.531L28.477,12.523Z" style="fill:#000000;fill-rule:nonzero;"/>
    </g>
</svg>
