<svg xmlns="http://www.w3.org/2000/svg" xml:space="preserve" fill-rule="evenodd" stroke-linejoin="round" stroke-miterlimit="2" clip-rule="evenodd" viewBox="0 0 64 64">
  <g id="black">
    <path fill-rule="nonzero" d="M32 6c-9.683 0-17.659 4.969-17.659 17.554C14.341 36.137 32 58 32 58s17.659-21.863 17.659-34.446C49.659 10.969 41.683 6 32 6Zm0 6.661c5.947 0 10.833 4.886 10.833 10.833S37.947 34.327 32 34.327s-10.833-4.886-10.833-10.833S26.053 12.661 32 12.661Zm0 6.204c-2.595 0-4.634 2.034-4.634 4.629 0 2.596 2.039 4.634 4.634 4.634s4.634-2.038 4.634-4.634c0-2.595-2.039-4.629-4.634-4.629Z"/>
  </g>
</svg>
