<svg xmlns="http://www.w3.org/2000/svg" xml:space="preserve" fill-rule="evenodd" stroke-linejoin="round" stroke-miterlimit="2" clip-rule="evenodd" viewBox="0 0 64 64">
  <g id="black" fill-rule="nonzero">
    <path d="m8 35.466 9.362-24.377h3.475l9.977 24.377h-3.675l-2.843-7.383H14.103l-2.678 7.383H8Zm7.034-10.01h8.264l-2.544-6.751c-.776-2.051-1.353-3.736-1.729-5.055a31.199 31.199 0 0 1-1.314 4.656l-2.677 7.15Z"/>
    <path d="M29.371 32.207H32.2c.215-1.503.416-3.075.604-4.716l3.325.337a175.29 175.29 0 0 1-.67 4.379h4.746c-.116 5.511-.903 9.942-2.36 13.293l3.165 2.488-2.414 2.772c-.786-.777-1.6-1.554-2.44-2.332a17.47 17.47 0 0 1-4.613 4.483 37.481 37.481 0 0 0-2.198-2.876c1.76-1.123 3.191-2.423 4.29-3.9a183.285 183.285 0 0 0-3.513-3.045c.581-2.263 1.109-4.802 1.582-7.618h-2.333v-3.265Zm4.184 10.028 1.609 1.218c.876-2.073 1.439-4.733 1.689-7.981h-1.944a185.883 185.883 0 0 1-1.354 6.763Zm6.892 6.66h6.543v-4.664h-5.471v-3.188h5.471v-4.456h-2.883a28.811 28.811 0 0 1-1.462 3.757l-2.708-1.788c1.108-2.436 1.931-5.373 2.467-8.81l3.111.363a48.249 48.249 0 0 1-.577 3.29h2.052v-5.752h3.62v5.752h4.72v3.188h-4.72v4.456h4.237v3.188H50.61v4.664H56v3.187H40.447v-3.187Z"/>
  </g>
</svg>
