<?xml version="1.0" encoding="UTF-8" standalone="no"?><!DOCTYPE svg PUBLIC "-//W3C//DTD SVG 1.1//EN" "http://www.w3.org/Graphics/SVG/1.1/DTD/svg11.dtd"><svg width="100%" height="100%" viewBox="0 0 64 64" version="1.1" xmlns="http://www.w3.org/2000/svg" xmlns:xlink="http://www.w3.org/1999/xlink" xml:space="preserve" xmlns:serif="http://www.serif.com/" style="fill-rule:evenodd;clip-rule:evenodd;stroke-linejoin:round;stroke-miterlimit:2;"><g id="grey"><path d="M48.964,16.104L46.036,16.104L46.036,14.5C46.036,13.692 46.692,13.036 47.5,13.036L56,13.036C56.808,13.036 57.464,13.692 57.464,14.5L57.464,16.104L54.536,16.104L54.536,15.964L48.964,15.964L48.964,16.104ZM54.536,22.521L57.464,22.521L57.464,25.729L54.536,25.729L54.536,22.521ZM54.536,32.145L57.464,32.145L57.464,35.354L54.536,35.354L54.536,32.145ZM54.536,41.77L57.464,41.77L57.464,44.978L54.536,44.978L54.536,41.77ZM54.536,51.395L57.464,51.395L57.464,52.999C57.464,53.807 56.808,54.463 56,54.463L47.5,54.463C46.692,54.463 46.036,53.807 46.036,52.999L46.036,51.395L48.964,51.395L48.964,51.535L54.536,51.535L54.536,51.395ZM48.964,44.978L46.036,44.978L46.036,41.77L48.964,41.77L48.964,44.978ZM48.964,35.354L46.036,35.354L46.036,32.145L48.964,32.145L48.964,35.354ZM48.964,25.729L46.036,25.729L46.036,22.521L48.964,22.521L48.964,25.729Z" style="fill:#c9c9c9;"/><path d="M9.464,16.104L6.536,16.104L6.536,14.5C6.536,13.692 7.192,13.036 8,13.036L16.5,13.036C17.308,13.036 17.964,13.692 17.964,14.5L17.964,16.104L15.036,16.104L15.036,15.964L9.464,15.964L9.464,16.104ZM15.036,22.521L17.964,22.521L17.964,25.729L15.036,25.729L15.036,22.521ZM15.036,32.145L17.964,32.145L17.964,35.354L15.036,35.354L15.036,32.145ZM15.036,41.77L17.964,41.77L17.964,44.978L15.036,44.978L15.036,41.77ZM15.036,51.395L17.964,51.395L17.964,52.999C17.964,53.807 17.308,54.463 16.5,54.463L8,54.463C7.192,54.463 6.536,53.807 6.536,52.999L6.536,51.395L9.464,51.395L9.464,51.535L15.036,51.535L15.036,51.395ZM9.464,44.978L6.536,44.978L6.536,41.77L9.464,41.77L9.464,44.978ZM9.464,35.354L6.536,35.354L6.536,32.145L9.464,32.145L9.464,35.354ZM9.464,25.729L6.536,25.729L6.536,22.521L9.464,22.521L9.464,25.729Z" style="fill:#c9c9c9;"/><rect x="6.319" y="11.153" width="51.362" height="8" style="fill:#575757;"/></g></svg>