<svg xmlns="http://www.w3.org/2000/svg" xml:space="preserve" fill-rule="evenodd" stroke-linejoin="round" stroke-miterlimit="2" clip-rule="evenodd" viewBox="0 0 512 512">
  <g id="Layer1" fill="#010001" fill-rule="nonzero">
    <path d="M236.731 124.295c-.957-6.922-6.979-11.791-13.423-10.969l-141.04 18.802c-6.457.867-10.896 7.164-9.927 14.041l40.674 289.271c.956 6.923 6.978 11.792 13.423 10.969l141.086-18.789c6.456-.867 10.895-7.165 9.926-14.042l-40.719-289.283Zm-102.634 120.18-9.952-70.809c-.339-2.297 2.045-4.106 4.262-3.227l68.01 27.027a3.023 3.023 0 0 1 .742 5.234l-58.056 43.783c-1.879 1.416-4.68.333-5.006-2.008Zm-3.489 61.658-1.76-12.46c-.198-1.395.546-2.635 1.668-2.769l92.522-12.328c1.122-.132 2.172.867 2.336 2.206l1.761 12.461c.198 1.395-.547 2.635-1.669 2.767l-92.522 12.33c-1.122.132-2.171-.869-2.336-2.207Zm8.43 45.271c-1.122.133-2.171-.867-2.336-2.205l-1.76-12.46c-.198-1.397.546-2.637 1.668-2.769l92.522-12.328c1.122-.134 2.172.866 2.336 2.205l1.761 12.46c.198 1.397-.546 2.637-1.668 2.768l-92.523 12.329Zm98.571 30.724-92.522 12.329c-1.122.133-2.172-.867-2.336-2.205l-1.761-12.46c-.198-1.397.547-2.637 1.669-2.769l92.522-12.328c1.122-.134 2.171.866 2.336 2.205l1.761 12.46c.197 1.397-.547 2.637-1.669 2.768Z"/>
    <path d="M433.523 127.904 305.864 66.586c-5.816-2.8-13.114.001-16.307 6.247l-33.161 65.296 13.19 93.592 68.517 32.917c1.004.46 1.293 1.881.642 3.144L333 279.055c-.651 1.265-1.958 1.875-2.95 1.37l-57.534-27.635 4.351 30.898 41.428 19.883c1.004.46 1.294 1.88.64 3.145l-5.742 11.273c-.654 1.263-1.96 1.875-2.951 1.37l-30.444-14.601 4.35 30.896 14.326 6.895c1.004.459 1.293 1.879.642 3.145l-5.745 11.271c-.653 1.265-1.958 1.876-2.95 1.372l-3.342-1.612 3.669 25.967c.067.641.052 1.213.072 1.841l4.067 28.76c4.241-.354 8.327-2.956 10.516-7.217l132.915-261.785c3.191-6.246 1.022-13.587-4.795-16.387Zm-73.103 59.718-73.297 4.655c-2.416.171-4.042-2.277-3.013-4.353l32.521-64.076c1.088-2.107 4.045-2.278 5.372-.34l40.777 59.421c1.326 1.937-.004 4.555-2.418 4.726l.058-.033Z"/>
  </g>
</svg>
