<?xml version="1.0" encoding="UTF-8" standalone="no"?><!DOCTYPE svg PUBLIC "-//W3C//DTD SVG 1.1//EN" "http://www.w3.org/Graphics/SVG/1.1/DTD/svg11.dtd"><svg width="100%" height="100%" viewBox="0 0 64 64" version="1.1" xmlns="http://www.w3.org/2000/svg" xmlns:xlink="http://www.w3.org/1999/xlink" xml:space="preserve" xmlns:serif="http://www.serif.com/" style="fill-rule:evenodd;clip-rule:evenodd;stroke-linejoin:round;stroke-miterlimit:2;"><g id="blue"><path d="M20.374,21.682C21.319,21.725 22.268,21.532 23.03,21.088C23.76,20.663 24.198,20.078 24.336,19.45L24.335,28.132C24.36,28.94 23.902,29.729 22.984,30.264C22.235,30.7 21.308,30.893 20.381,30.86L20.374,30.86L20.374,25.174L20.376,25.174L20.374,21.682Z" style="fill:#444;"/><path d="M16.337,27.836C16.33,27.79 16.324,27.478 16.319,27.43L16.319,18.596C16.33,18.711 16.346,18.476 16.367,18.586C16.342,19.279 16.672,19.996 17.371,20.588C18.163,21.258 19.266,21.632 20.374,21.682L20.375,25.174L20.374,30.863C20.356,30.861 20.337,30.859 20.319,30.857C18.061,30.597 16.619,29.869 16.337,27.836Z" style="fill:#808080;"/><path d="M17.718,16.59C19.375,15.625 21.911,15.849 23.377,17.09C24.843,18.331 24.688,20.122 23.03,21.088C21.373,22.053 18.837,21.829 17.371,20.588C15.905,19.347 16.061,17.556 17.718,16.59Z" style="fill:#575757;"/><path d="M25.743,26.227C26.688,26.27 27.636,26.077 28.399,25.633C29.129,25.208 29.567,24.623 29.704,23.996L29.704,32.677C29.728,33.485 29.271,34.274 28.352,34.809C27.604,35.245 26.676,35.438 25.749,35.405L25.743,35.405L25.743,29.719L25.744,29.719L25.743,26.227Z" style="fill:#2e2e2e;"/><path d="M21.705,32.382C21.699,32.335 21.693,32.023 21.688,31.975L21.688,23.141C21.698,23.256 21.714,23.022 21.736,23.132C21.71,23.825 22.041,24.542 22.74,25.134C23.531,25.804 24.635,26.177 25.743,26.227L25.743,35.409L25.688,35.403C23.429,35.142 21.988,34.414 21.705,32.382Z" style="fill:#2e2e2e;"/><path d="M23.087,21.135C24.744,20.17 27.28,20.394 28.746,21.635C30.212,22.876 30.056,24.668 28.399,25.633C26.742,26.599 24.206,26.375 22.74,25.134C21.274,23.892 21.429,22.101 23.087,21.135Z" style="fill:#2e2e2e;"/><path d="M31.189,30.838C32.134,30.881 33.083,30.688 33.845,30.244C34.575,29.819 35.013,29.234 35.151,28.606L35.15,37.288C35.175,38.096 34.717,38.885 33.798,39.42C33.05,39.856 32.123,40.049 31.195,40.016L31.189,40.016L31.189,34.33L31.191,34.33L31.189,30.838Z" style="fill:#2e2e2e;"/><path d="M27.151,36.992C27.145,36.946 27.139,36.634 27.134,36.586L27.134,27.752C27.144,27.867 27.16,27.632 27.182,27.743C27.157,28.435 27.487,29.153 28.186,29.744C28.978,30.414 30.081,30.788 31.189,30.838L31.189,40.02L31.134,40.013C28.875,39.753 27.434,39.025 27.151,36.992Z" style="fill:#909090;"/><path d="M28.533,25.746C30.19,24.781 32.726,25.005 34.192,26.246C35.658,27.487 35.503,29.278 33.845,30.244C32.188,31.209 29.652,30.986 28.186,29.744C26.72,28.503 26.875,26.712 28.533,25.746Z" style="fill:#575757;"/><path d="M29.087,26.215C30.399,25.451 32.405,25.629 33.565,26.611C34.726,27.593 34.603,29.011 33.291,29.775C31.98,30.539 29.973,30.362 28.813,29.379C27.652,28.397 27.775,26.979 29.087,26.215Z" style="fill:#c2bdbd;"/><path d="M17.679,27.268C18.624,27.311 19.573,27.118 20.336,26.674C21.065,26.249 21.503,25.664 21.641,25.036L21.64,33.718C21.665,34.526 21.207,35.315 20.289,35.85C19.54,36.286 18.613,36.479 17.686,36.446L17.679,36.446L17.679,30.76L17.681,30.76L17.679,27.268Z" style="fill:#2e2e2e;"/><path d="M13.642,33.422C13.635,33.376 13.629,33.064 13.624,33.016L13.624,24.182C13.635,24.297 13.651,24.062 13.672,24.173C13.647,24.866 13.977,25.583 14.676,26.174C15.468,26.844 16.571,27.218 17.679,27.268L17.68,30.76L17.679,36.45L17.624,36.443C15.366,36.183 13.924,35.455 13.642,33.422Z" style="fill:#808080;"/><path d="M15.023,22.176C16.68,21.211 19.216,21.435 20.682,22.676C22.148,23.917 21.993,25.709 20.336,26.674C18.678,27.639 16.142,27.416 14.676,26.174C13.21,24.933 13.366,23.142 15.023,22.176Z" style="fill:#575757;"/><path d="M23.004,31.776C23.949,31.819 24.898,31.627 25.661,31.182C26.39,30.757 26.829,30.172 26.966,29.545L26.965,38.226C26.99,39.034 26.532,39.823 25.614,40.358C24.865,40.794 23.938,40.987 23.011,40.954L23.004,40.954L23.004,35.269L23.006,35.269L23.004,31.776Z" style="fill:#2e2e2e;"/><path d="M18.967,37.931C18.96,37.884 18.954,37.572 18.949,37.525L18.949,28.691C18.96,28.806 18.976,28.571 18.997,28.681C18.972,29.374 19.302,30.091 20.001,30.683C20.793,31.353 21.896,31.726 23.004,31.776L23.005,35.269L23.004,40.958L22.949,40.952C20.691,40.691 19.249,39.964 18.967,37.931Z" style="fill:#808080;"/><path d="M20.348,26.685C22.005,25.719 24.541,25.943 26.007,27.184C27.473,28.425 27.318,30.217 25.661,31.182C24.003,32.148 21.467,31.924 20.001,30.683C18.535,29.442 18.691,27.65 20.348,26.685Z" style="fill:#575757;"/><path d="M15.554,22.507C16.865,21.743 18.872,21.92 20.032,22.902C21.192,23.884 21.069,25.302 19.758,26.066C18.446,26.83 16.44,26.653 15.279,25.671C14.119,24.688 14.242,23.271 15.554,22.507Z" style="fill:#c2bdbd;"/><path d="M20.897,16.169C21.842,16.212 22.79,16.019 23.553,15.575C24.282,15.15 24.721,14.565 24.858,13.937L24.858,22.619C24.882,23.427 24.425,24.216 23.506,24.751C22.758,25.186 21.83,25.38 20.903,25.347L20.897,25.347L20.897,19.661L20.898,19.661L20.897,16.169Z" style="fill:#2e2e2e;"/><path d="M16.859,22.323C16.853,22.277 16.847,21.965 16.842,21.917L16.842,13.083C16.852,13.198 16.868,12.963 16.89,13.073C16.864,13.766 17.195,14.483 17.894,15.075C18.685,15.745 19.788,16.119 20.897,16.169L20.897,25.35L20.842,25.344C18.583,25.084 17.142,24.356 16.859,22.323Z" style="fill:#808080;"/><path d="M18.241,11.077C19.898,10.112 22.434,10.335 23.9,11.577C25.366,12.818 25.21,14.609 23.553,15.575C21.896,16.54 19.36,16.316 17.894,15.075C16.428,13.834 16.583,12.043 18.241,11.077Z" style="fill:#575757;"/><path d="M20.879,27.015C22.19,26.251 24.197,26.428 25.357,27.41C26.517,28.392 26.395,29.81 25.083,30.574C23.771,31.338 21.765,31.161 20.604,30.179C19.444,29.197 19.567,27.779 20.879,27.015Z" style="fill:#c2bdbd;"/><path d="M26.268,20.716C27.213,20.759 28.162,20.567 28.924,20.122C29.654,19.697 30.092,19.112 30.23,18.485L30.229,27.166C30.254,27.974 29.796,28.763 28.878,29.298C28.129,29.734 27.202,29.928 26.274,29.894L26.268,29.894L26.268,24.209L26.27,24.209L26.268,20.716Z" style="fill:#2e2e2e;"/><path d="M22.23,26.871C22.224,26.824 22.218,26.512 22.213,26.465L22.213,17.631C22.224,17.746 22.24,17.511 22.261,17.621C22.236,18.314 22.566,19.031 23.265,19.623C24.057,20.293 25.16,20.666 26.268,20.716L26.269,24.209L26.268,29.898L26.213,29.892C23.955,29.631 22.513,28.904 22.23,26.871Z" style="fill:#808080;"/><path d="M23.612,15.625C25.269,14.659 27.805,14.883 29.271,16.124C30.737,17.365 30.582,19.157 28.924,20.122C27.267,21.088 24.731,20.864 23.265,19.623C21.799,18.382 21.955,16.59 23.612,15.625Z" style="fill:#575757;"/><path d="M18.808,11.588C20.12,10.824 22.127,11.002 23.287,11.984C24.447,12.966 24.324,14.384 23.012,15.148C21.701,15.912 19.694,15.735 18.534,14.752C17.374,13.77 17.497,12.352 18.808,11.588Z" style="fill:#c2bdbd;"/><path d="M24.213,16.134C25.525,15.37 27.531,15.547 28.692,16.529C29.852,17.511 29.729,18.929 28.417,19.693C27.106,20.457 25.099,20.28 23.939,19.298C22.779,18.315 22.902,16.898 24.213,16.134Z" style="fill:#c2bdbd;"/></g><g id="brown"><path d="M43.474,34.462L44.973,35.721L24.306,47.653L22.806,46.395L43.474,34.462Z" style="fill:#444;"/><path d="M44.973,35.721L44.973,36.569L24.306,48.501L24.306,47.653L44.973,35.721Z"/><path d="M24.306,47.653L24.306,48.501L22.806,47.243L22.806,46.395L24.306,47.653Z" style="fill:#909090;"/><path d="M43.859,33.229L45.359,34.487L24.692,46.419L23.192,45.161L43.859,33.229Z" style="fill:#444;"/><path d="M45.359,34.487L45.359,35.335L24.692,47.267L24.692,46.419L45.359,34.487Z"/><path d="M24.692,46.419L24.692,47.267L23.192,46.009L23.192,45.161L24.692,46.419Z" style="fill:#909090;"/><path d="M43.859,32.22L45.359,33.479L24.692,45.411L23.192,44.153L43.859,32.22Z" style="fill:#444;"/><path d="M45.359,33.479L45.359,34.327L24.692,46.259L24.692,45.411L45.359,33.479Z"/><path d="M24.692,45.411L24.692,46.259L23.192,45.001L23.192,44.153L24.692,45.411Z" style="fill:#909090;"/><path d="M43.267,32.496L44.767,33.755L24.099,45.687L22.6,44.429L43.267,32.496Z" style="fill:#444;"/><path d="M44.767,33.755L44.767,34.603L24.099,46.535L24.099,45.687L44.767,33.755Z"/><path d="M24.099,45.687L24.099,46.535L22.6,45.277L22.6,44.429L24.099,45.687Z" style="fill:#909090;"/><path d="M43.267,31.488L44.767,32.747L24.099,44.679L22.6,43.421L43.267,31.488Z" style="fill:#b5b5b5;"/><path d="M44.767,32.747L44.767,33.595L24.099,45.527L24.099,44.679L44.767,32.747Z"/><path d="M24.099,44.679L24.099,45.527L22.6,44.269L22.6,43.421L24.099,44.679Z" style="fill:#ababab;"/><path d="M44.984,36.147L46.483,37.405L25.816,49.338L24.316,48.079L44.984,36.147Z" style="fill:#444;"/><path d="M46.483,37.405L46.483,38.253L25.816,50.186L25.816,49.338L46.483,37.405Z"/><path d="M25.816,49.338L25.816,50.186L24.316,48.927L24.316,48.079L25.816,49.338Z" style="fill:#909090;"/><path d="M45.369,34.913L46.869,36.171L26.202,48.104L24.702,46.845L45.369,34.913Z" style="fill:#444;"/><path d="M46.869,36.171L46.869,37.02L26.202,48.952L26.202,48.104L46.869,36.171Z"/><path d="M26.202,48.104L26.202,48.952L24.702,47.694L24.702,46.845L26.202,48.104Z" style="fill:#909090;"/><path d="M45.369,33.905L46.869,35.163L26.202,47.096L24.702,45.837L45.369,33.905Z" style="fill:#444;"/><path d="M46.869,35.163L46.869,36.012L26.202,47.944L26.202,47.096L46.869,35.163Z"/><path d="M26.202,47.096L26.202,47.944L24.702,46.685L24.702,45.837L26.202,47.096Z" style="fill:#909090;"/><path d="M44.777,34.181L46.277,35.439L25.61,47.372L24.11,46.113L44.777,34.181Z" style="fill:#444;"/><path d="M46.277,35.439L46.277,36.288L25.61,48.22L25.61,47.372L46.277,35.439Z"/><path d="M25.61,47.372L25.61,48.22L24.11,46.962L24.11,46.113L25.61,47.372Z" style="fill:#909090;"/><path d="M44.777,33.173L46.277,34.431L25.61,46.364L24.11,45.105L44.777,33.173Z" style="fill:#444;"/><path d="M46.277,34.431L46.277,35.279L25.61,47.212L25.61,46.364L46.277,34.431Z"/><path d="M25.61,46.364L25.61,47.212L24.11,45.953L24.11,45.105L25.61,46.364Z" style="fill:#909090;"/><path d="M47.242,37.624L48.742,38.883L28.074,50.815L26.575,49.556L47.242,37.624Z" style="fill:#444;"/><path d="M48.742,38.883L48.742,39.731L28.074,51.663L28.074,50.815L48.742,38.883Z"/><path d="M28.074,50.815L28.074,51.663L26.575,50.405L26.575,49.556L28.074,50.815Z" style="fill:#909090;"/><path d="M47.627,36.39L49.127,37.649L28.46,49.581L26.96,48.323L47.627,36.39Z" style="fill:#444;"/><path d="M49.127,37.649L49.127,38.497L28.46,50.429L28.46,49.581L49.127,37.649Z"/><path d="M28.46,49.581L28.46,50.429L26.96,49.171L26.96,48.323L28.46,49.581Z" style="fill:#909090;"/><path d="M47.627,35.382L49.127,36.641L28.46,48.573L26.96,47.315L47.627,35.382Z" style="fill:#444;"/><path d="M49.127,36.641L49.127,37.489L28.46,49.421L28.46,48.573L49.127,36.641Z"/><path d="M28.46,48.573L28.46,49.421L26.96,48.163L26.96,47.315L28.46,48.573Z" style="fill:#909090;"/><path d="M47.035,35.658L48.535,36.917L27.868,48.849L26.368,47.591L47.035,35.658Z" style="fill:#444;"/><path d="M48.535,36.917L48.535,37.765L27.868,49.697L27.868,48.849L48.535,36.917Z"/><path d="M27.868,48.849L27.868,49.697L26.368,48.439L26.368,47.591L27.868,48.849Z" style="fill:#909090;"/><path d="M47.035,34.65L48.535,35.909L27.868,47.841L26.368,46.583L47.035,34.65Z" style="fill:#444;"/><path d="M48.535,35.909L48.535,36.757L27.868,48.689L27.868,47.841L48.535,35.909Z"/><path d="M27.868,47.841L27.868,48.689L26.368,47.431L26.368,46.583L27.868,47.841Z" style="fill:#909090;"/><path d="M48.491,39.484L49.99,40.742L29.323,52.675L27.823,51.416L48.491,39.484Z" style="fill:#444;"/><path d="M49.99,40.742L49.99,41.59L29.323,53.523L29.323,52.675L49.99,40.742Z"/><path d="M29.323,52.675L29.323,53.523L27.823,52.264L27.823,51.416L29.323,52.675Z" style="fill:#909090;"/><path d="M48.876,38.25L50.376,39.508L29.709,51.441L28.209,50.182L48.876,38.25Z" style="fill:#444;"/><path d="M50.376,39.508L50.376,40.357L29.709,52.289L29.709,51.441L50.376,39.508Z"/><path d="M29.709,51.441L29.709,52.289L28.209,51.031L28.209,50.182L29.709,51.441Z" style="fill:#909090;"/><path d="M48.876,37.242L50.376,38.5L29.709,50.433L28.209,49.174L48.876,37.242Z" style="fill:#444;"/><path d="M50.376,38.5L50.376,39.349L29.709,51.281L29.709,50.433L50.376,38.5Z"/><path d="M29.709,50.433L29.709,51.281L28.209,50.022L28.209,49.174L29.709,50.433Z" style="fill:#909090;"/><path d="M48.284,37.518L49.784,38.776L29.117,50.709L27.617,49.45L48.284,37.518Z" style="fill:#444;"/><path d="M49.784,38.776L49.784,39.625L29.117,51.557L29.117,50.709L49.784,38.776Z"/><path d="M29.117,50.709L29.117,51.557L27.617,50.299L27.617,49.45L29.117,50.709Z" style="fill:#909090;"/><path d="M48.284,36.51L49.784,37.768L29.117,49.701L27.617,48.442L48.284,36.51Z" style="fill:#b5b5b5;"/><path d="M49.784,37.768L49.784,38.616L29.117,50.549L29.117,49.701L49.784,37.768Z"/><path d="M29.117,49.701L29.117,50.549L27.617,49.29L27.617,48.442L29.117,49.701Z" style="fill:#ababab;"/><path d="M44.723,31.365L46.222,32.623L25.555,44.555L24.055,43.297L44.723,31.365Z" style="fill:#444;"/><path d="M46.222,32.623L46.222,33.471L25.555,45.404L25.555,44.555L46.222,32.623Z"/><path d="M25.555,44.555L25.555,45.404L24.055,44.145L24.055,43.297L25.555,44.555Z" style="fill:#909090;"/><path d="M46.233,33.049L47.732,34.308L27.065,46.24L25.565,44.981L46.233,33.049Z" style="fill:#444;"/><path d="M47.732,34.308L47.732,35.156L27.065,47.088L27.065,46.24L47.732,34.308Z"/><path d="M27.065,46.24L27.065,47.088L25.565,45.83L25.565,44.981L27.065,46.24Z" style="fill:#909090;"/><path d="M48.491,34.527L49.99,35.785L29.323,47.717L27.823,46.459L48.491,34.527Z" style="fill:#444;"/><path d="M49.99,35.785L49.99,36.633L29.323,48.565L29.323,47.717L49.99,35.785Z"/><path d="M29.323,47.717L29.323,48.565L27.823,47.307L27.823,46.459L29.323,47.717Z" style="fill:#909090;"/><path d="M45.956,31.116L47.455,32.374L26.788,44.307L25.288,43.048L45.956,31.116Z" style="fill:#838383;"/><path d="M47.455,32.374L47.455,33.223L26.788,45.155L26.788,44.307L47.455,32.374Z"/><path d="M26.788,44.307L26.788,45.155L25.288,43.897L25.288,43.048L26.788,44.307Z" style="fill:#909090;"/><path d="M46.905,33.139L48.405,34.397L27.738,46.329L26.238,45.071L46.905,33.139Z" style="fill:#c9c9c9;"/><path d="M48.405,34.397L48.405,35.245L27.738,47.178L27.738,46.329L48.405,34.397Z" style="fill:#b5b5b5;"/><path d="M27.738,46.329L27.738,47.178L26.238,45.919L26.238,45.071L27.738,46.329Z" style="fill:#808080;"/></g></svg>