<svg xmlns="http://www.w3.org/2000/svg" xml:space="preserve" fill-rule="evenodd" stroke-linejoin="round" stroke-miterlimit="2" clip-rule="evenodd" viewBox="0 0 64 64">
  <g id="brown">
    <path fill="#131313" d="M13.072 30.418 9.429 32.52l-5.693-4.778 3.64-2.102 5.696 4.778Zm-1.463-7.222 13.009-7.511 5.695 4.779-13.011 7.511-5.693-4.779Zm17.302-9.905 2.733-1.662 5.694 4.778-2.733 1.662-5.694-4.778Zm11.256 9.445 2.733-1.661 5.696 4.778-2.733 1.662-5.696-4.779Zm11.67 9.793 2.734-1.662 5.693 4.777-2.734 1.664-5.693-4.779Zm1.401 7.172-13.009 7.512-5.696-4.779 13.011-7.51 5.694 4.777Zm-17.24 9.954-3.641 2.102-5.695-4.778 3.64-2.102 5.696 4.778Zm-11.671-9.791-3.64 2.102-5.694-4.778 3.64-2.102 5.694 4.778Zm-1.463-7.222 13.011-7.511 5.694 4.779-13.009 7.51-5.696-4.778Z"/>
    <path fill="#444" d="m14.561 31.67-5.132 2.962-5.693-4.763v-2.127l5.693 4.763 3.632-2.096 1.5 1.261Zm2.73-3.705 13.011-7.51 1.501 1.26-13.011 7.511-1.501-1.261Zm17.303-9.905 2.733-1.662v2.127l-1.232.795-1.501-1.26Zm11.256 9.446 2.735-1.662v2.127l-1.233.795-1.502-1.26ZM57.52 37.3l2.735-1.663v2.127l-1.515.958-1.22-1.422Zm-2.789 3.654-13.294 7.674-1.218-1.424 13.009-7.511 1.503 1.259v.002Zm-17.242 9.954-5.132 2.962-5.695-4.764v-2.127l5.695 4.764 3.63-2.096 1.502 1.261Zm-11.67-9.793-5.132 2.963-5.694-4.763v-2.127l5.694 4.763 3.629-2.096 1.503 1.26Zm2.73-3.704L41.558 29.9l1.502 1.261-13.01 7.511-1.501-1.261Z"/>
  </g>
  <g id="grey">
    <path fill="#2e2e2e" d="m39.676 52.828.245-2.819 2.146-1.253-.248 2.83-2.143 1.24v.002Zm17.241-9.954.245-2.82 2.146-1.253-.248 2.831-2.143 1.24v.002Z"/>
    <path fill="#525252" d="M5.753 24.363v-3.039l34.168 28.67-.248 2.832-33.92-28.463Zm17.242-9.954V11.37l34.167 28.67-.248 2.832-33.919-28.463Z"/>
    <path fill="#ababab" d="m5.753 21.324 2.146-1.24 34.179 28.68-2.157 1.23-34.168-28.67Zm17.242-9.954 2.146-1.24 34.177 28.679-2.156 1.231-34.167-28.67Z"/>
  </g>
</svg>
