<?xml version="1.0" encoding="UTF-8" standalone="no"?>
<!DOCTYPE svg PUBLIC "-//W3C//DTD SVG 1.1//EN" "http://www.w3.org/Graphics/SVG/1.1/DTD/svg11.dtd">
<svg width="100%" height="100%" viewBox="0 0 64 64" version="1.1" xmlns="http://www.w3.org/2000/svg" xmlns:xlink="http://www.w3.org/1999/xlink" xml:space="preserve" xmlns:serif="http://www.serif.com/" style="fill-rule:evenodd;clip-rule:evenodd;stroke-linejoin:round;stroke-miterlimit:2;">
    <g id="surface1">
        <path d="M43.391,31.691L20.621,31.637L11.438,46.672L51.699,46.672L43.391,31.691Z" style="fill:#010001;"/>
        <path d="M58.016,22.145L6.645,22.336L20.621,31.637L43.391,31.691L58.016,22.145Z" style="fill:#575757;"/>
        <rect x="27.008" y="22.918" width="8.695" height="8.719" style="fill:#010001;"/>
        <path d="M-0.461,18.211C-0.738,18.191 -0.941,17.949 -0.922,17.676C-0.898,17.398 -0.656,17.191 -0.383,17.215C1.383,17.355 3.016,16.98 4.668,16.332C5.898,15.848 7.676,15.574 9.027,15.578C10.426,15.586 11.547,15.961 12.668,16.352C13.695,16.711 14.719,17.078 16,17.113C17.449,17.152 18.809,16.781 20.164,16.422C21.617,16.035 23.066,15.66 24.609,15.73C26.129,15.797 27.574,16.25 29.031,16.648C30.387,17.016 31.754,17.336 33.203,17.152C34.602,16.977 35.824,16.539 37.055,16.156C38.359,15.746 39.668,15.391 41.164,15.402C42.445,15.414 43.707,15.813 44.965,16.242C46.137,16.645 47.301,17.074 48.48,17.18C50.086,17.324 51.68,17.031 53.203,16.512C54.711,15.996 56.094,15.527 57.715,15.617C58.801,15.676 59.734,16.047 60.691,16.484C61.563,16.883 62.449,17.336 63.52,17.59C63.789,17.656 63.953,17.926 63.891,18.195C63.824,18.465 63.555,18.629 63.285,18.563C62.148,18.289 61.199,17.816 60.273,17.395C59.434,17.012 58.617,16.664 57.66,16.613C56.176,16.535 54.906,16.984 53.527,17.457C51.867,18.023 50.133,18.332 48.391,18.176C47.133,18.063 45.887,17.617 44.641,17.191C43.488,16.793 42.332,16.414 41.156,16.402C39.77,16.391 38.559,16.73 37.352,17.109C36.07,17.512 34.785,17.961 33.328,18.145C31.742,18.344 30.25,18.016 28.77,17.613C27.383,17.234 26.012,16.789 24.566,16.727C23.129,16.664 21.777,17.027 20.422,17.387C18.973,17.773 17.52,18.156 15.973,18.113C14.578,18.074 13.457,17.684 12.34,17.297C11.316,16.941 10.297,16.586 9.023,16.578C7.785,16.574 6.16,16.82 5.031,17.262C3.234,17.969 1.457,18.363 -0.461,18.211Z" style="fill:#010001;stroke:#000;stroke-width:0.5px;"/>
        <path d="M-0.48,16.242C-0.754,16.223 -0.961,15.98 -0.938,15.703C-0.918,15.43 -0.676,15.223 -0.402,15.246C1.383,15.387 3.031,15.012 4.699,14.359C5.941,13.879 7.734,13.605 9.098,13.609C10.508,13.617 11.641,13.992 12.77,14.383C13.809,14.738 14.844,15.113 16.137,15.148C17.602,15.188 18.973,14.813 20.344,14.453C21.809,14.066 23.27,13.695 24.824,13.762C26.359,13.828 27.816,14.285 29.285,14.68C30.656,15.051 32.035,15.367 33.5,15.188C34.91,15.012 36.148,14.574 37.391,14.188C38.703,13.781 40.027,13.426 41.535,13.438C42.828,13.449 44.102,13.848 45.371,14.277C46.551,14.68 47.727,15.109 48.922,15.215C50.539,15.359 52.148,15.066 53.691,14.547C55.211,14.031 56.605,13.563 58.242,13.652C59.336,13.711 60.277,14.082 61.242,14.52C62.121,14.918 63.02,15.371 64.098,15.629C64.367,15.691 64.535,15.961 64.469,16.23C64.406,16.496 64.137,16.664 63.867,16.602C62.723,16.328 61.762,15.852 60.828,15.43C59.98,15.047 59.152,14.699 58.188,14.648C56.688,14.57 55.406,15.02 54.012,15.492C52.34,16.059 50.59,16.367 48.832,16.211C47.563,16.098 46.305,15.652 45.051,15.223C43.883,14.828 42.715,14.449 41.527,14.438C40.129,14.426 38.906,14.766 37.688,15.145C36.391,15.547 35.098,15.996 33.625,16.18C32.027,16.375 30.52,16.051 29.027,15.645C27.629,15.27 26.242,14.824 24.781,14.762C23.328,14.695 21.965,15.059 20.598,15.418C19.137,15.805 17.672,16.188 16.109,16.145C14.703,16.109 13.57,15.719 12.445,15.328C11.41,14.973 10.383,14.617 9.094,14.609C7.844,14.605 6.199,14.852 5.063,15.293C3.25,15.996 1.457,16.395 -0.48,16.242Z" style="stroke:#000;stroke-width:0.5px;"/>
        <path d="M65.18,17.434L-1.18,17.363L7.719,23.051L56.988,22.816L65.18,17.434Z" style="fill:#575757;"/>
        <path d="M35.68,31.637L27.027,31.637L21.664,49.816L42.117,49.816L35.68,31.637Z" style="fill:#575757;"/>
        <path d="M0.25,18.078L20.621,31.637L43.391,31.691L64.25,18.078" style="fill:none;fill-rule:nonzero;stroke:#575757;stroke-width:1px;stroke-linecap:round;stroke-miterlimit:1.5;"/>
    </g>
</svg>
