<?xml version="1.0" encoding="UTF-8" standalone="no"?>
<!DOCTYPE svg PUBLIC "-//W3C//DTD SVG 1.1//EN" "http://www.w3.org/Graphics/SVG/1.1/DTD/svg11.dtd">
<svg width="100%" height="100%" viewBox="0 0 64 64" version="1.1" xmlns="http://www.w3.org/2000/svg" xmlns:xlink="http://www.w3.org/1999/xlink" xml:space="preserve" xmlns:serif="http://www.serif.com/" style="fill-rule:evenodd;clip-rule:evenodd;stroke-linejoin:round;stroke-miterlimit:2;">
    <g id="surface1">
        <path d="M45.457,9.867C45.578,9.727 45.793,9.711 45.934,9.832C46.07,9.953 46.09,10.168 45.965,10.309C45.281,11.098 44.598,11.887 43.891,12.66C43.422,13.18 42.941,13.688 42.449,14.191C41.266,15.402 40,16.645 38.895,17.938C38.129,18.824 37.441,19.738 36.91,20.684C36.609,21.219 36.398,21.73 36.234,22.234C35.801,23.578 35.695,24.852 35.211,26.223C34.898,27.117 34.438,28.012 33.859,28.895C33.34,29.691 32.719,30.477 32.023,31.23C31.328,32 30.563,32.664 29.746,33.258C27.883,34.613 25.785,35.621 23.945,37.047C21.559,38.914 19.449,41.215 17.129,43.184C16.305,43.883 15.48,44.57 14.566,45.125C14.336,45.266 14.094,45.387 13.852,45.512C13.402,45.734 12.949,45.926 12.504,46.109C11.449,46.535 10.402,46.891 9.359,47.289C8.227,47.727 7.066,48.207 5.918,48.762C4.816,49.293 3.723,49.895 2.672,50.586C2.52,50.688 2.313,50.645 2.211,50.492C2.109,50.34 2.148,50.133 2.301,50.031C3.367,49.309 4.48,48.68 5.602,48.121C6.762,47.539 7.93,47.031 9.074,46.57C9.957,46.211 10.852,45.902 11.734,45.52C12.293,45.273 12.844,44.992 13.391,44.668C13.609,44.539 13.824,44.398 14.039,44.266C14.914,43.727 15.773,43.168 16.582,42.523C18.961,40.613 21.055,38.273 23.461,36.426C25.305,34.984 27.383,33.934 29.277,32.602C30.063,32.051 30.82,31.457 31.508,30.746C32.184,30.031 32.785,29.281 33.289,28.52C33.84,27.688 34.273,26.84 34.57,25.996C35.055,24.629 35.156,23.363 35.594,22.027C35.77,21.484 36,20.93 36.324,20.352C36.875,19.371 37.59,18.422 38.383,17.496C39.5,16.195 40.777,14.941 41.969,13.723C42.457,13.223 42.93,12.719 43.391,12.211C44.094,11.438 44.777,10.652 45.457,9.867Z" style="fill:#000000;stroke:#000000;stroke-width:0.5px;"/>
        <path d="M60.914,10.16C61.012,10.055 61.18,10.043 61.289,10.141C61.398,10.238 61.41,10.406 61.313,10.516C60.785,11.105 60.301,11.707 59.828,12.313C58.707,13.766 57.684,15.246 56.527,16.688C55.598,17.84 54.516,19.07 53.73,20.328C53.168,21.23 52.758,22.141 52.691,23.051C52.539,25.086 54.391,26.637 54.957,28.449C55.223,29.297 55.238,30.191 54.742,31.195C54.063,32.574 53.609,33.324 53.098,33.906C52.344,34.77 51.461,35.254 49.477,36.895C49.059,37.238 48.727,37.676 48.441,38.172C47.262,40.215 46.883,43.137 45.496,44.637C44.055,46.188 42.813,48.148 41.301,49.855C40.652,50.59 39.949,51.273 39.176,51.871C39.051,51.973 38.863,51.949 38.766,51.82C38.664,51.695 38.684,51.508 38.813,51.41C39.547,50.82 40.195,50.141 40.813,49.43C42.313,47.699 43.578,45.754 45.02,44.195C46.379,42.73 46.727,39.852 47.887,37.848C48.211,37.289 48.594,36.789 49.07,36.398C51.012,34.801 51.883,34.336 52.625,33.492C53.109,32.941 53.535,32.227 54.184,30.918C54.598,30.082 54.586,29.34 54.367,28.633C53.785,26.754 51.934,25.117 52.098,23.004C52.176,22.008 52.617,21.004 53.238,20.02C54.039,18.746 55.145,17.5 56.09,16.336C57.254,14.902 58.277,13.426 59.406,11.98C59.883,11.367 60.383,10.762 60.914,10.16Z" style="fill:#000000;stroke:#000000;stroke-width:0.5px;"/>
        <path d="M52.031,10.172C47.156,13.746 43.184,18.324 43.277,21.773C43.633,25.488 43.23,29.66 39.301,31.418C34.477,34.633 33.215,36.34 30.176,39.828C28.066,42.246 25.762,43.148 22.898,44C14.926,46.375 8.395,49.883 10.074,51.258C14.301,52.473 23.145,53.156 28.027,51.496C31.172,50.422 32.98,46.848 35.973,43.758C37.281,41.781 38.594,39.707 39.906,37.551C41.301,36.168 43.223,34.797 45.531,33.43C48.898,31.781 48.633,29.836 48.359,27.758C47.934,24.5 48.297,24.516 48.852,21.848C50.336,17.961 53.566,14.098 57.258,10.238C55.527,9.262 53.785,9.133 52.031,10.172Z" style="fill:#000000;"/>
        <path d="M48.367,10.34L42.863,16.523C40.957,18.422 40.527,19.582 40.219,20.672C39.859,21.93 39.609,24.023 38.996,26.746C38.305,29.816 35.781,32.523 33.926,33.063" style="fill:none;fill-rule:nonzero;stroke:#000000;stroke-width:1px;stroke-linecap:round;stroke-miterlimit:1.5;"/>
        <path d="M50.656,28.395C51.559,30.035 51.063,31.121 50.055,32L46.512,35.328C44.598,37.238 43.367,38.855 42.789,40.191C40.582,44.133 37.922,47.324 35.141,50.309" style="fill:none;fill-rule:nonzero;stroke:#000000;stroke-width:1px;stroke-linecap:round;stroke-miterlimit:1.5;"/>
        <path d="M57.664,11.66C54.559,14.902 52.238,18.047 50.656,21.098" style="fill:none;fill-rule:nonzero;stroke:#000000;stroke-width:1px;stroke-linecap:round;stroke-miterlimit:1.5;"/>
    </g>
</svg>
