<?xml version="1.0" encoding="UTF-8" standalone="no"?>
<!DOCTYPE svg PUBLIC "-//W3C//DTD SVG 1.1//EN" "http://www.w3.org/Graphics/SVG/1.1/DTD/svg11.dtd">
<svg width="100%" height="100%" viewBox="0 0 64 64" version="1.1" xmlns="http://www.w3.org/2000/svg" xmlns:xlink="http://www.w3.org/1999/xlink" xml:space="preserve" xmlns:serif="http://www.serif.com/" style="fill-rule:evenodd;clip-rule:evenodd;stroke-linejoin:round;stroke-miterlimit:2;">
    <g id="surface1">
        <path d="M4.035,24.652L32,48.348L33.68,49.66L59.746,33.707L59.82,32.238L4.07,22.246L4.035,24.652Z" style="fill:#010001;fill-rule:nonzero;"/>
        <path d="M59.746,33.707L59.117,44.984L33.656,61.617L33.867,49.543L59.746,33.707Z" style="fill:#575757;"/>
        <path d="M4.598,22.098L38.684,44.488L52.551,36.273L27.137,8.23L4.598,22.098Z" style="fill:#929090;fill-rule:nonzero;"/>
        <path d="M4.035,22.234L33.906,47.336L45.551,40.422L15.535,15.309L4.035,22.234Z" style="fill:#010001;fill-rule:nonzero;"/>
        <path d="M17.34,14.258L47.184,39.453L56.805,33.918L27.137,8.23L23.914,10.215L17.34,14.258Z" style="fill:#010001;fill-rule:nonzero;"/>
        <path d="M45.855,40.922L57.168,34.227L45.855,40.922Z" style="fill:#010001;fill-rule:nonzero;"/>
        <path d="M4.035,22.234L33.906,47.336L37.066,45.457L6.93,20.492L4.035,22.234Z" style="fill:#575757;fill-rule:nonzero;"/>
        <path d="M27.137,8.23L56.805,33.914L59.82,32.238L30.031,6.488L27.137,8.23Z" style="fill:#575757;fill-rule:nonzero;"/>
        <path d="M33.656,61.617C33.629,61.602 30.363,58.723 30.363,58.723C23.633,39.25 17.492,33.391 5.855,36.898L4.148,35.758L3.996,24.445L33.867,49.543L33.656,61.617Z" style="fill:#929090;fill-rule:nonzero;"/>
    </g>
</svg>
