<?xml version="1.0" encoding="UTF-8" standalone="no"?>
<!DOCTYPE svg PUBLIC "-//W3C//DTD SVG 1.1//EN" "http://www.w3.org/Graphics/SVG/1.1/DTD/svg11.dtd">
<svg width="100%" height="100%" viewBox="0 0 64 64" version="1.1" xmlns="http://www.w3.org/2000/svg" xmlns:xlink="http://www.w3.org/1999/xlink" xml:space="preserve" xmlns:serif="http://www.serif.com/" style="fill-rule:evenodd;clip-rule:evenodd;stroke-linejoin:round;stroke-miterlimit:2;">
    <g id="surface1">
        <path d="M25.934,43.957C25.934,43.434 25.512,43.012 24.984,43.008L14.219,43.008C13.695,43.012 13.27,43.434 13.27,43.957L13.27,54.723C13.27,55.246 13.695,55.672 14.219,55.672L24.984,55.672C25.512,55.672 25.934,55.246 25.934,54.723L25.934,43.957Z" style="fill:#575757;"/>
        <path d="M27.934,43.957L27.934,54.723C27.934,56.352 26.613,57.672 24.984,57.672L14.219,57.672C12.594,57.672 11.27,56.352 11.27,54.723L11.27,43.957C11.27,42.328 12.594,41.012 14.219,41.008L24.984,41.008C26.613,41.012 27.934,42.328 27.934,43.957ZM25.934,43.957C25.934,43.434 25.512,43.012 24.984,43.008L14.219,43.008C13.695,43.012 13.27,43.434 13.27,43.957L13.27,54.723C13.27,55.246 13.695,55.672 14.219,55.672L24.984,55.672C25.512,55.672 25.934,55.246 25.934,54.723L25.934,43.957Z" style="fill:#010001;"/>
        <path d="M29.012,53.328C29.012,53.328 37.457,52.848 43.484,49.566C48.117,47.051 50.699,42.223 50.723,38.66C50.781,30.328 50.379,21.227 48.539,18.402C44.883,12.809 34.125,14.297 34.125,14.297L34.125,8.324L24.176,16.664L34.125,26.98L34.125,20.395C34.125,20.395 40.828,18.758 43.082,22.824C44.145,24.746 44.402,31.863 44.379,38.848C44.355,46.66 29.188,46.434 29.188,46.434L29.012,53.328Z" style="fill-rule:nonzero;"/>
    </g>
</svg>
