<svg xmlns="http://www.w3.org/2000/svg" xml:space="preserve" fill-rule="evenodd" stroke-linejoin="round" stroke-miterlimit="2" clip-rule="evenodd" viewBox="0 0 64 64">
  <g id="Layer1">
    <path d="M33.832 3.621c0-.527-.123-.953-.275-.953h-3.114c-.152 0-.275.426-.275.953v10.762c0 .523.123.949.275.949h3.114c.152 0 .275-.426.275-.949V3.621Z"/>
    <path d="M33.832 49.621c0-.527-.123-.953-.275-.953h-3.114c-.152 0-.275.426-.275.953v10.762c0 .523.123.949.275.949h3.114c.152 0 .275-.426.275-.949V49.621Z"/>
    <path d="M58.832 26.517c0-.527-.123-.953-.275-.953h-3.114c-.152 0-.275.426-.275.953v10.762c0 .523.123.949.275.949h3.114c.152 0 .275-.426.275-.949V26.517Z"/>
    <path d="M8.832 26.517c0-.527-.123-.953-.275-.953H5.443c-.152 0-.275.426-.275.953v10.762c0 .523.123.949.275.949h3.114c.152 0 .275-.426.275-.949V26.517Z"/>
    <path d="M16.832 9.953c0-.527-.123-.953-.275-.953h-3.114c-.152 0-.275.426-.275.953v10.762c0 .523.123.949.275.949h3.114c.152 0 .275-.426.275-.949V9.953Z"/>
    <path d="M16.832 43.289c0-.527-.123-.953-.275-.953h-3.114c-.152 0-.275.426-.275.953v10.762c0 .523.123.949.275.949h3.114c.152 0 .275-.426.275-.949V43.289Z"/>
    <path d="M50.832 43.289c0-.527-.123-.953-.275-.953h-3.114c-.152 0-.275.426-.275.953v10.762c0 .523.123.949.275.949h3.114c.152 0 .275-.426.275-.949V43.289Z"/>
    <path d="M50.832 9.953c0-.527-.123-.953-.275-.953h-3.114c-.152 0-.275.426-.275.953v10.762c0 .523.123.949.275.949h3.114c.152 0 .275-.426.275-.949V9.953Z"/>
  </g>
</svg>
