<?xml version="1.0" encoding="UTF-8" standalone="no"?>
<!DOCTYPE svg PUBLIC "-//W3C//DTD SVG 1.1//EN" "http://www.w3.org/Graphics/SVG/1.1/DTD/svg11.dtd">
<svg width="100%" height="100%" viewBox="0 0 64 64" version="1.1" xmlns="http://www.w3.org/2000/svg" xmlns:xlink="http://www.w3.org/1999/xlink" xml:space="preserve" xmlns:serif="http://www.serif.com/" style="fill-rule:evenodd;clip-rule:evenodd;stroke-linejoin:round;stroke-miterlimit:1;">
    <g id="surface1">
        <path d="M0,56.027L14.168,52.125L27.754,55.266L42.504,50.977L54.035,54.727L64,50.824L64,64L0,64L0,56.027Z" style="fill:#010001;stroke:#010001;stroke-width:2.06px;"/>
        <path d="M0,44.781L15.867,42.18L28.289,45.316L42.859,41.184L53.586,45.391L64,41.414L64,50.824C60.805,53.527 57.469,54.676 54.035,54.727C49.086,54.527 45.305,53.219 42.504,50.977C37.82,53.406 32.914,54.875 27.754,55.266C22.313,55.195 17.703,54.234 14.168,52.125C8.625,55.332 3.875,56.699 0,56.027L0,44.781Z" style="fill:#575757;stroke:#575757;stroke-width:2.06px;stroke-linecap:square;"/>
        <path d="M0,36.605C3.25,38.039 8.621,37.324 17.117,33.453C23.063,36.465 27.145,37.266 29.988,36.605C34.59,36.148 39.871,34.109 43.754,32.23C47.938,34.887 51.488,35.82 54.48,35.215C57.785,34.969 61.184,33.465 64,32L64,41.414C61.746,43.996 58.223,45.254 53.586,45.391C49.441,44.867 45.816,43.543 42.859,41.184C38.387,43.438 33.48,44.695 28.289,45.316C23.102,46.16 18.906,45.211 15.867,42.18C8.465,45.195 3.59,45.641 0,44.781L0,36.605Z" style="fill:#929090;stroke:#929090;stroke-width:2px;stroke-linecap:square;"/>
    </g>
</svg>
