<svg xmlns="http://www.w3.org/2000/svg" xml:space="preserve" fill-rule="evenodd" stroke-linejoin="round" stroke-miterlimit="2" clip-rule="evenodd" viewBox="0 0 64 64">
  <g id="white">
    <path d="m40.891 15.301 1.855 2.565-20.111 14.546-1.855-2.565 20.111-14.546Zm2.179 31.441-1.709 2.67-20.905-13.38 1.709-2.671L43.07 46.742Z"/>
    <path d="M43.368 43.088A5.915 5.915 0 0 1 49.28 49a5.915 5.915 0 0 1-5.912 5.912A5.915 5.915 0 0 1 37.456 49a5.915 5.915 0 0 1 5.912-5.912Zm-22.824-16A5.915 5.915 0 0 1 26.456 33a5.915 5.915 0 0 1-5.912 5.912A5.915 5.915 0 0 1 14.632 33a5.915 5.915 0 0 1 5.912-5.912Zm22.912-18A5.915 5.915 0 0 1 49.368 15a5.915 5.915 0 0 1-5.912 5.912A5.915 5.915 0 0 1 37.544 15a5.915 5.915 0 0 1 5.912-5.912Z"/>
  </g>
</svg>
