<svg xmlns="http://www.w3.org/2000/svg" xml:space="preserve" fill-rule="evenodd" stroke-linejoin="round" stroke-miterlimit="2" clip-rule="evenodd" viewBox="0 0 64 64">
  <g id="grey">
    <path fill="#4e565a" fill-opacity="0.18" d="M64 10.105v43.79C64 59.472 59.472 64 53.895 64h-43.79C4.528 64 0 59.472 0 53.895v-43.79C0 4.528 4.528 0 10.105 0h43.79C59.472 0 64 4.528 64 10.105Z"/>
  </g>
  <g id="black">
    <path d="M56 22.5v26c0 4.139-3.361 7.5-7.5 7.5h-33c-4.114-.002-7.498-3.386-7.5-7.5v-33C8 11.361 11.361 8 15.5 8h22c-2.192.462-2.527 1.351-4 3h-18c-2.468.001-4.499 2.032-4.5 4.5v33c0 2.484 2.016 4.5 4.5 4.5h33c2.484 0 4.5-2.016 4.5-4.5V25.608l3-3.108Z"/>
    <path d="m15.5 47.996 10.228-17.115 5.719 9.102 10.714-5.681L48.5 47.996h-33Z"/>
    <path d="M20.086 16.004c3.083 0 5.586 2.593 5.586 5.786 0 3.194-2.503 5.786-5.586 5.786S14.5 24.984 14.5 21.79c0-3.193 2.503-5.786 5.586-5.786Z"/>
    <path fill-rule="nonzero" d="m43.034 25.5-6.343-.18s-.227-10.67 1.617-13.494c3.652-5.594 14.41-4.105 14.41-4.105V1.748l9.953 8.34L52.718 20.4v-6.582s-6.699-1.636-8.953 2.43c-1.062 1.922-.731 9.252-.731 9.252Z"/>
  </g>
  <g id="blue"/>
</svg>
