<?xml version="1.0" encoding="UTF-8" standalone="no"?>
<!DOCTYPE svg PUBLIC "-//W3C//DTD SVG 1.1//EN" "http://www.w3.org/Graphics/SVG/1.1/DTD/svg11.dtd">
<svg width="100%" height="100%" viewBox="0 0 32 32" version="1.1" xmlns="http://www.w3.org/2000/svg" xmlns:xlink="http://www.w3.org/1999/xlink" xml:space="preserve" xmlns:serif="http://www.serif.com/" style="fill-rule:evenodd;clip-rule:evenodd;stroke-linejoin:round;stroke-miterlimit:2;">
    <g id="Weather">
        <circle id="Ellipse_580" cx="16" cy="16" r="6.685" style="fill:#010001;"/>
        <path id="Rectangle_3933" d="M17.486,5.433C17.486,4.881 17.037,4.433 16.486,4.433L15.514,4.433C14.963,4.433 14.514,4.881 14.514,5.433L14.514,6.887C14.514,7.439 14.963,7.887 15.514,7.887L16.486,7.887C17.037,7.887 17.486,7.439 17.486,6.887L17.486,5.433Z" style="fill:#010001;"/>
        <path id="Rectangle_3938" d="M24.814,9.412C25.179,9.035 25.168,8.433 24.791,8.068L24.128,7.427C23.751,7.063 23.149,7.073 22.785,7.45L21.683,8.59C21.318,8.967 21.328,9.569 21.705,9.934L22.369,10.575C22.746,10.939 23.347,10.929 23.712,10.552L24.814,9.412Z" style="fill:#010001;"/>
        <path id="Rectangle_3936" d="M6.63,17.486C7.181,17.486 7.63,17.037 7.63,16.486L7.63,15.514C7.63,14.963 7.181,14.514 6.63,14.514L5.119,14.514C4.567,14.514 4.119,14.963 4.119,15.514L4.119,16.486C4.119,17.037 4.567,17.486 5.119,17.486L6.63,17.486Z" style="fill:#010001;"/>
        <path id="Rectangle_3940" d="M8.333,10.575C8.71,10.939 9.312,10.929 9.676,10.552L10.317,9.889C10.682,9.512 10.672,8.91 10.295,8.546L9.168,7.457C8.791,7.092 8.189,7.102 7.825,7.479L7.184,8.143C6.819,8.52 6.83,9.122 7.207,9.486L8.333,10.575Z" style="fill:#010001;"/>
        <path id="Rectangle_3934" d="M17.486,25.399C17.486,24.847 17.037,24.399 16.486,24.399L15.514,24.399C14.963,24.399 14.514,24.847 14.514,25.399L14.514,26.91C14.514,27.462 14.963,27.91 15.514,27.91L16.486,27.91C17.037,27.91 17.486,27.462 17.486,26.91L17.486,25.399Z" style="fill:#010001;"/>
        <path id="Rectangle_3939" d="M10.317,23.712C10.682,23.335 10.672,22.733 10.295,22.369L9.631,21.727C9.254,21.363 8.653,21.373 8.288,21.75L7.156,22.921C6.792,23.298 6.802,23.9 7.179,24.264L7.842,24.906C8.219,25.27 8.821,25.26 9.186,24.883L10.317,23.712Z" style="fill:#010001;"/>
        <path id="Rectangle_3935" d="M26.595,17.486C27.147,17.486 27.595,17.037 27.595,16.486L27.595,15.514C27.595,14.963 27.147,14.514 26.595,14.514L25.084,14.514C24.533,14.514 24.084,14.963 24.084,15.514L24.084,16.486C24.084,17.037 24.533,17.486 25.084,17.486L26.595,17.486Z" style="fill:#010001;"/>
        <path id="Rectangle_3937" d="M22.891,24.948C23.268,25.312 23.87,25.302 24.234,24.925L24.875,24.262C25.24,23.885 25.23,23.283 24.853,22.919L23.667,21.773C23.29,21.408 22.688,21.418 22.324,21.795L21.683,22.459C21.318,22.836 21.328,23.438 21.705,23.802L22.891,24.948Z" style="fill:#010001;"/>
    </g>
</svg>
