<?xml version="1.0" encoding="UTF-8" standalone="no"?>
<!DOCTYPE svg PUBLIC "-//W3C//DTD SVG 1.1//EN" "http://www.w3.org/Graphics/SVG/1.1/DTD/svg11.dtd">
<svg width="100%" height="100%" viewBox="0 0 64 64" version="1.1" xmlns="http://www.w3.org/2000/svg" xmlns:xlink="http://www.w3.org/1999/xlink" xml:space="preserve" xmlns:serif="http://www.serif.com/" style="fill-rule:evenodd;clip-rule:evenodd;stroke-linejoin:round;stroke-miterlimit:2;">
    <g id="surface1">
        <path d="M48.992,29.254C48.992,27.914 48.027,26.824 46.836,26.824C45.648,26.824 44.684,27.914 44.684,29.254C44.684,30.598 45.648,31.688 46.836,31.688C48.027,31.688 48.992,30.598 48.992,29.254Z" style="fill:#000000;"/>
        <path d="M41.281,6.18C41.281,4.91 40.313,3.879 39.117,3.879C37.922,3.879 36.953,4.91 36.953,6.18C36.953,7.449 37.922,8.48 39.117,8.48C40.313,8.48 41.281,7.449 41.281,6.18Z" style="fill:#000000;"/>
        <path d="M29.746,5.539C29.746,3.914 28.379,2.598 26.695,2.598C25.012,2.598 23.645,3.914 23.645,5.539C23.645,7.164 25.012,8.48 26.695,8.48C28.379,8.48 29.746,7.164 29.746,5.539Z" style="fill:#000000;"/>
        <path d="M53.07,34.441C53.07,32.02 51.066,30.055 48.594,30.055C46.117,30.055 44.113,32.02 44.113,34.441C44.113,36.863 46.117,38.828 48.594,38.828C51.066,38.828 53.07,36.863 53.07,34.441Z" style="fill:#000000;"/>
        <path d="M43.293,45.867C44.098,46.281 44.441,47.211 44.063,47.941C43.684,48.676 42.727,48.93 41.922,48.516C41.121,48.098 40.773,47.168 41.152,46.438C41.531,45.707 42.488,45.449 43.293,45.867Z" style="fill:#000000;"/>
        <path d="M44.59,40.945C44.59,40.488 44.215,40.121 43.75,40.121C43.285,40.121 42.906,40.488 42.906,40.945C42.906,41.398 43.285,41.766 43.75,41.766C44.215,41.766 44.59,41.398 44.59,40.945Z" style="fill:#000000;"/>
        <path d="M44.488,45.746C44.902,45.961 45.066,46.461 44.859,46.863C44.648,47.27 44.145,47.422 43.734,47.211C43.32,46.996 43.156,46.492 43.363,46.09C43.574,45.688 44.078,45.531 44.488,45.746Z" style="fill:#000000;"/>
        <path d="M42.113,45.492C42.527,45.707 42.691,46.207 42.484,46.613C42.273,47.016 41.77,47.168 41.359,46.957C40.945,46.742 40.781,46.242 40.988,45.84C41.195,45.434 41.703,45.281 42.113,45.492Z" style="fill:#000000;"/>
        <path d="M44.238,40.008C44.238,39.551 43.863,39.184 43.398,39.184C42.934,39.184 42.559,39.551 42.559,40.008C42.559,40.461 42.934,40.828 43.398,40.828C43.863,40.828 44.238,40.461 44.238,40.008Z" style="fill:#000000;"/>
        <path d="M56.578,35.387C56.91,35.063 57.438,35.066 57.754,35.391C58.07,35.719 58.055,36.246 57.723,36.566C57.387,36.891 56.859,36.887 56.547,36.563C56.23,36.234 56.242,35.707 56.578,35.387Z" style="fill:#000000;"/>
        <path d="M43.531,40.828C43.531,40.551 43.254,40.324 42.906,40.324C42.563,40.324 42.285,40.551 42.285,40.828C42.285,41.109 42.563,41.336 42.906,41.336C43.254,41.336 43.531,41.109 43.531,40.828Z" style="fill:#000000;"/>
        <path d="M57.02,36.547C57.266,36.305 57.625,36.273 57.816,36.477C58.012,36.676 57.969,37.031 57.723,37.273C57.473,37.512 57.117,37.543 56.922,37.344C56.727,37.141 56.77,36.785 57.02,36.547Z" style="fill:#000000;"/>
        <path d="M59.848,29.605C59.848,28.945 59.242,28.414 58.488,28.414C57.738,28.414 57.133,28.945 57.133,29.605C57.133,30.262 57.738,30.797 58.488,30.797C59.242,30.797 59.848,30.262 59.848,29.605Z" style="fill:#000000;"/>
        <path d="M51.367,30.055C51.367,26.895 50.516,24.336 49.469,24.336C48.422,24.336 47.574,26.895 47.574,30.055C47.574,33.215 48.422,35.777 49.469,35.777C50.516,35.777 51.367,33.215 51.367,30.055Z" style="fill:#000000;"/>
        <path d="M54.797,30.313C54.797,28.59 53.605,27.195 52.133,27.195C50.664,27.195 49.469,28.59 49.469,30.313C49.469,32.035 50.664,33.43 52.133,33.43C53.605,33.43 54.797,32.035 54.797,30.313Z" style="fill:#000000;"/>
        <path d="M46.422,31.688C46.422,30.438 45.207,29.426 43.711,29.426C42.215,29.426 41,30.438 41,31.688C41,32.934 42.215,33.945 43.711,33.945C45.207,33.945 46.422,32.934 46.422,31.688Z" style="fill:#000000;"/>
        <path d="M42.906,33.215C43.895,32.094 45.457,31.852 46.395,32.676C47.328,33.5 47.285,35.078 46.297,36.203C45.305,37.324 43.742,37.566 42.809,36.742C41.871,35.918 41.918,34.336 42.906,33.215Z" style="fill:#000000;"/>
        <path d="M18.699,39.344C18.699,38.039 17.637,36.984 16.324,36.984C15.016,36.984 13.953,38.039 13.953,39.344C13.953,40.648 15.016,41.703 16.324,41.703C17.637,41.703 18.699,40.648 18.699,39.344Z" style="fill:#000000;"/>
        <path d="M32.621,16.785C32.621,13.566 30.887,10.953 28.742,10.953C26.598,10.953 24.859,13.566 24.859,16.785C24.859,20.008 26.598,22.617 28.742,22.617C30.887,22.617 32.621,20.008 32.621,16.785Z" style="fill:#000000;"/>
        <path d="M31.902,12.813C34.219,11.426 37.473,12.598 39.164,15.426C40.852,18.258 40.34,21.676 38.023,23.063C35.703,24.445 32.449,23.273 30.758,20.445C29.07,17.617 29.582,14.195 31.902,12.813Z" style="fill:#000000;"/>
        <path d="M39.121,8.266C39.121,4.16 36.57,0.832 33.426,0.832C30.281,0.832 27.73,4.16 27.73,8.266C27.73,12.371 30.281,15.699 33.426,15.699C36.57,15.699 39.121,12.371 39.121,8.266Z" style="fill:#000000;"/>
        <path d="M16.574,44.566C17.395,44.063 18.438,44.27 18.898,45.023C19.359,45.777 19.066,46.797 18.242,47.301C17.422,47.801 16.383,47.598 15.922,46.84C15.461,46.086 15.754,45.066 16.574,44.566Z" style="fill:#000000;"/>
        <path d="M15.883,48.031C16.328,47.418 16.75,46.961 16.82,47.012C16.895,47.066 16.59,47.605 16.145,48.219C15.695,48.836 15.277,49.289 15.203,49.238C15.133,49.188 15.438,48.645 15.883,48.031Z" style="fill:#000000;"/>
        <path d="M45.051,41.402C45.711,41.77 46.219,42.129 46.176,42.203C46.133,42.277 45.563,42.039 44.898,41.672C44.234,41.301 43.73,40.941 43.773,40.867C43.813,40.793 44.387,41.031 45.051,41.402Z" style="fill:#000000;"/>
        <path d="M44.59,48.316C45.219,48.742 45.684,49.152 45.633,49.23C45.578,49.305 45.027,49.023 44.398,48.598C43.77,48.172 43.305,47.762 43.355,47.688C43.41,47.609 43.961,47.891 44.59,48.316Z" style="fill:#000000;"/>
        <path d="M56.234,34.633C56.566,33.949 56.91,33.43 57.004,33.477C57.098,33.52 56.902,34.113 56.574,34.797C56.242,35.477 55.898,35.996 55.805,35.949C55.711,35.906 55.902,35.313 56.234,34.633Z" style="fill:#000000;"/>
        <path d="M55.898,36.512C56.582,36.184 57.176,35.988 57.219,36.082C57.266,36.176 56.746,36.52 56.063,36.852C55.379,37.18 54.789,37.371 54.742,37.277C54.699,37.184 55.219,36.844 55.898,36.512Z" style="fill:#000000;"/>
        <path d="M29.996,9.813C29.996,7.648 28.082,5.891 25.723,5.891C23.359,5.891 21.445,7.648 21.445,9.813C21.445,11.977 23.359,13.73 25.723,13.73C28.082,13.73 29.996,11.977 29.996,9.813Z" style="fill:#000000;"/>
        <path d="M41.285,10.953C41.285,8.789 39.344,7.035 36.953,7.035C34.563,7.035 32.621,8.789 32.621,10.953C32.621,13.121 34.563,14.875 36.953,14.875C39.344,14.875 41.285,13.121 41.285,10.953Z" style="fill:#000000;"/>
        <path d="M26.879,15.188C26.879,13.496 25.531,12.129 23.867,12.129C22.207,12.129 20.859,13.496 20.859,15.188C20.859,16.879 22.207,18.25 23.867,18.25C25.531,18.25 26.879,16.879 26.879,15.188Z" style="fill:#000000;"/>
        <path d="M44.078,13.527C44.078,11.809 42.676,10.41 40.941,10.41C39.211,10.41 37.809,11.809 37.809,13.527C37.809,15.25 39.211,16.648 40.941,16.648C42.676,16.648 44.078,15.25 44.078,13.527Z" style="fill:#000000;"/>
        <path d="M14.902,41.918L12.184,41.918L11.098,57.086L16.273,57.086L14.902,41.918Z" style="fill:#000000;"/>
        <rect x="29.41" y="20.93" width="5.18" height="15.688" style="fill:#000000;"/>
        <path d="M49.664,37.086L47.371,37.18L46.949,57.086L50.227,57.086L49.664,37.086Z" style="fill:#000000;"/>
        <path d="M56.402,35.129L56.156,34.988L47.82,46.418L49.145,47.383L56.402,35.129Z" style="fill:#000000;"/>
        <path d="M44.945,41.398L44.801,41.641L48.816,44.246L49.707,42.875L44.945,41.398Z" style="fill:#000000;"/>
        <path d="M44.473,48.438L44.379,48.602L48.395,51.207L48.992,50.285L44.473,48.438Z" style="fill:#000000;"/>
        <path d="M18.414,36.984C18.414,33.586 15.57,30.836 12.063,30.836C8.555,30.836 5.715,33.586 5.715,36.984C5.715,40.379 8.555,43.133 12.063,43.133C15.57,43.133 18.414,40.379 18.414,36.984Z" style="fill:#000000;"/>
        <path d="M19.156,28.945C19.156,26.039 17.031,23.684 14.41,23.684C11.785,23.684 9.66,26.039 9.66,28.945C9.66,31.855 11.785,34.211 14.41,34.211C17.031,34.211 19.156,31.855 19.156,28.945Z" style="fill:#000000;"/>
        <path d="M22.418,34.383C22.418,32.422 20.754,30.836 18.699,30.836C16.645,30.836 14.98,32.422 14.98,34.383C14.98,36.34 16.645,37.93 18.699,37.93C20.754,37.93 22.418,36.34 22.418,34.383Z" style="fill:#000000;"/>
        <path d="M11.148,33.035C11.148,31.219 9.508,29.746 7.488,29.746C5.465,29.746 3.824,31.219 3.824,33.035C3.824,34.852 5.465,36.324 7.488,36.324C9.508,36.324 11.148,34.852 11.148,33.035Z" style="fill:#000000;"/>
        <path d="M14.41,25.984C14.41,22.094 12.668,18.934 10.52,18.934C8.371,18.934 6.629,22.094 6.629,25.984C6.629,29.879 8.371,33.035 10.52,33.035C12.668,33.035 14.41,29.879 14.41,25.984Z" style="fill:#000000;"/>
        <path d="M59.848,32C59.848,30.676 58.883,29.605 57.691,29.605C56.504,29.605 55.539,30.676 55.539,32C55.539,33.324 56.504,34.395 57.691,34.395C58.883,34.395 59.848,33.324 59.848,32Z" style="fill:#000000;"/>
    </g>
</svg>
