<?xml version="1.0" encoding="UTF-8" standalone="no"?>
<!DOCTYPE svg PUBLIC "-//W3C//DTD SVG 1.1//EN" "http://www.w3.org/Graphics/SVG/1.1/DTD/svg11.dtd">
<svg width="100%" height="100%" viewBox="0 0 64 64" version="1.1" xmlns="http://www.w3.org/2000/svg" xmlns:xlink="http://www.w3.org/1999/xlink" xml:space="preserve" xmlns:serif="http://www.serif.com/" style="fill-rule:evenodd;clip-rule:evenodd;stroke-linejoin:round;stroke-miterlimit:2;">
    <g id="CinematicCameraOn">
        <path id="Icon_awesome-video" d="M37.774,14.712L8.938,14.712C6.577,14.712 4.634,16.655 4.634,19.016L4.634,44.984C4.634,47.345 6.577,49.288 8.938,49.288L37.774,49.288C40.135,49.288 42.078,47.345 42.078,44.984L42.078,19.016C42.078,16.655 40.135,14.712 37.774,14.712ZM54.828,18.112L44.958,24.912L44.958,39.084L54.826,45.884C55.31,46.221 55.886,46.402 56.476,46.402C58.043,46.402 59.339,45.127 59.364,43.56L59.364,20.43C59.335,18.866 58.041,17.595 56.476,17.595C55.887,17.595 55.312,17.776 54.828,18.112Z" style="fill:#000000;fill-rule:nonzero;"/>
    </g>
</svg>
