<?xml version="1.0" encoding="UTF-8" standalone="no"?>
<!DOCTYPE svg PUBLIC "-//W3C//DTD SVG 1.1//EN" "http://www.w3.org/Graphics/SVG/1.1/DTD/svg11.dtd">
<svg width="100%" height="100%" viewBox="0 0 64 64" version="1.1" xmlns="http://www.w3.org/2000/svg" xmlns:xlink="http://www.w3.org/1999/xlink" xml:space="preserve" xmlns:serif="http://www.serif.com/" style="fill-rule:evenodd;clip-rule:evenodd;stroke-linejoin:round;stroke-miterlimit:2;">
    <g id="b">
        <path d="M30.567,14.968C46.868,13.895 60.723,21.603 61.515,32.193C62.308,42.783 49.731,52.229 33.432,53.301C17.132,54.372 3.276,46.663 2.485,36.077C1.694,25.491 14.266,16.043 30.567,14.968Z" style="fill:#010001;fill-rule:nonzero;"/>
        <path d="M30.567,10.699C46.868,9.626 60.723,17.334 61.515,27.924C62.308,38.515 49.731,47.96 33.432,49.032C17.132,50.104 3.276,42.394 2.485,31.808C1.694,21.223 14.266,11.774 30.567,10.699Z" style="fill:#575757;fill-rule:nonzero;"/>
        <path d="M30.811,14.848C44.611,13.939 56.284,19.876 56.9,28.112C57.516,36.348 46.833,43.755 33.04,44.663C19.248,45.572 7.567,39.632 6.951,31.399C6.336,23.166 17.018,15.756 30.811,14.848Z" style="fill:#575757;fill-rule:nonzero;"/>
        <path d="M30.706,12.624C45.679,11.594 58.344,18.321 59.012,27.655C59.681,36.988 48.09,45.382 33.124,46.411C18.16,47.441 5.487,40.709 4.818,31.38C4.151,22.05 15.741,13.653 30.706,12.624Z" style="fill:#575757;fill-rule:nonzero;"/>
        <path d="M27.188,20.82C36.637,20.279 44.629,23.812 45.051,28.714C45.473,33.615 38.158,38.024 28.714,38.564C19.271,39.105 11.273,35.57 10.851,30.67C10.43,25.77 17.744,21.361 27.188,20.82Z" style="fill:#575757;fill-rule:nonzero;"/>
        <path d="M30.567,10.699C46.868,9.626 60.723,17.334 61.515,27.924C62.308,38.515 49.731,47.96 33.432,49.032C17.132,50.104 3.276,42.394 2.485,31.808C1.694,21.223 14.266,11.774 30.567,10.699ZM30.731,13.194C21.645,13.793 13.776,17.118 9.118,21.865C6.319,24.718 4.713,28.077 4.978,31.622C5.244,35.179 7.342,38.304 10.55,40.771C15.875,44.867 24.172,47.136 33.268,46.537C42.353,45.94 50.223,42.617 54.882,37.87C57.682,35.017 59.288,31.657 59.022,28.111C58.756,24.551 56.657,21.426 53.45,18.959C48.124,14.862 39.828,12.595 30.731,13.194Z" style="fill:#2c2e2e;"/>
        <path d="M27.319,20.324C37.285,20.025 45.657,24.035 46.019,29.285C46.381,34.536 38.591,39.029 28.626,39.327C18.659,39.625 10.287,35.614 9.926,30.366C9.565,25.118 17.352,20.623 27.319,20.324ZM27.39,21.56C21.834,21.727 16.991,23.26 14.091,25.542C12.349,26.913 11.33,28.552 11.451,30.309C11.572,32.073 12.817,33.648 14.748,34.914C17.952,37.016 22.993,38.257 28.554,38.09C34.109,37.924 38.954,36.393 41.853,34.111C43.596,32.739 44.616,31.1 44.494,29.342C44.373,27.577 43.127,26.002 41.197,24.736C37.992,22.633 32.952,21.394 27.39,21.56Z" style="fill:#010001;"/>
    </g>
    <g id="a">
        <rect x="44.538" y="28.211" width="9" height="6.517" style="fill:#929090;"/>
        <path d="M55.538,32.545L53.538,34.728L53.538,28.211L55.538,26.027L55.538,32.545Z" style="fill:#2c2e2e;"/>
        <path d="M55.538,26.061L53.538,28.211L44.538,28.211L46.538,26.061L55.538,26.061Z" style="fill:#acabab;"/>
        <circle cx="48.019" cy="31.397" r="1.019" style="fill:#c2bdbd;"/>
        <circle cx="51.056" cy="31.397" r="1.019" style="fill:#c2bdbd;"/>
        <path d="M50.319,35.2C50.95,35.2 51.322,35.481 51.149,35.826C50.977,36.171 50.324,36.452 49.693,36.452C49.062,36.452 48.69,36.171 48.863,35.826C49.036,35.481 49.688,35.2 50.319,35.2Z" style="fill:#c2bdbd;"/>
        <path d="M47.257,35.179C47.888,35.179 48.26,35.46 48.087,35.805C47.915,36.15 47.262,36.431 46.631,36.431C46,36.431 45.628,36.15 45.801,35.805C45.974,35.46 46.626,35.179 47.257,35.179Z" style="fill:#c2bdbd;"/>
        <path d="M30.781,25.932C35.077,26.652 37.279,28.999 35.697,31.17C34.115,33.341 29.344,34.519 25.049,33.799C20.754,33.078 18.551,30.731 20.133,28.561C21.715,26.39 26.486,25.212 30.781,25.932Z" style="fill:#acabab;fill-opacity:0.75;"/>
        <path d="M32.11,24.348C38.135,25.358 41.225,28.651 39.006,31.696C36.787,34.741 30.094,36.393 24.069,35.383C18.044,34.372 14.955,31.08 17.174,28.035C19.393,24.99 26.086,23.338 32.11,24.348Z" style="fill:#acabab;fill-opacity:0.5;"/>
        <path d="M28.677,28.71C29.839,28.905 30.44,29.531 30.02,30.108C29.599,30.685 28.315,30.996 27.153,30.801C25.992,30.606 25.39,29.98 25.81,29.403C26.231,28.826 27.515,28.515 28.677,28.71Z" style="fill:#acabab;fill-opacity:0.78;"/>
        <path d="M48.958,35.891L48.973,33C49.022,32.466 49.413,31.519 50.165,30.984C51.115,30.332 51.658,30.465 52.045,31.645C51.578,32.015 51.037,32.446 51.026,33.104L51.026,35.771C50.19,36.325 49.602,36.341 48.958,35.891Z" style="fill:#c2bdbd;"/>
        <path d="M45.92,35.891L45.935,33C45.984,32.466 46.375,31.519 47.128,30.984C48.078,30.332 48.62,30.465 49.007,31.645C48.54,32.015 47.999,32.446 47.988,33.104L47.988,35.771C47.152,36.325 46.564,36.341 45.92,35.891Z" style="fill:#c2bdbd;"/>
        <path d="M50.201,35.936L50.224,33C50.251,32.466 50.773,31.774 51.176,31.239C51.731,30.652 52.177,31.076 52.045,31.645C52.185,31.729 51.6,32.391 51.484,32.322C51.484,32.322 51.059,32.861 51.056,33.174L51.054,35.636C50.958,35.909 50.418,36.276 50.201,35.936Z" style="fill:#acabab;"/>
        <path d="M47.14,35.936L47.163,33C47.189,32.466 47.712,31.774 48.115,31.239C48.67,30.652 49.116,31.076 48.984,31.645C49.124,31.729 48.539,32.391 48.423,32.322C48.423,32.322 47.998,32.861 47.995,33.174L47.993,35.636C47.897,35.909 47.357,36.276 47.14,35.936Z" style="fill:#acabab;"/>
        <path d="M27.915,29.755L27.915,25C28.455,24.383 28.278,24.002 29.154,24C29.786,24.068 30.026,24.484 30.154,25C29.798,23.811 28.348,24.485 28.252,25.545C28.19,26.075 28.184,29.797 28.184,29.797C28.184,29.797 27.947,29.882 27.915,29.755Z" style="fill:#b5b5b5;"/>
        <path d="M30.154,25.684C30.154,25.684 30.033,25.932 30.033,26.039C30.033,26.112 30.087,26.171 30.154,26.171C30.22,26.171 30.275,26.112 30.275,26.039C30.275,25.932 30.154,25.684 30.154,25.684Z" style="fill:#b5b5b5;"/>
        <path d="M30.154,26.425C30.154,26.425 30.033,26.674 30.033,26.78C30.033,26.853 30.087,26.913 30.154,26.913C30.22,26.913 30.275,26.853 30.275,26.78C30.275,26.674 30.154,26.425 30.154,26.425Z" style="fill:#b5b5b5;"/>
        <path d="M25.853,25.784C25.853,25.784 25.732,26.032 25.732,26.139C25.732,26.212 25.787,26.271 25.853,26.271C25.92,26.271 25.974,26.212 25.974,26.139C25.974,26.032 25.853,25.784 25.853,25.784Z" style="fill:#b5b5b5;"/>
        <path d="M25.853,26.545C25.853,26.545 25.732,26.793 25.732,26.9C25.732,26.973 25.787,27.032 25.853,27.032C25.92,27.032 25.974,26.973 25.974,26.9C25.974,26.793 25.853,26.545 25.853,26.545Z" style="fill:#b5b5b5;"/>
        <path d="M27.798,28.181L27.903,24.678C27.919,24.189 27.997,23.64 27.598,23.705C27.568,23.688 27.459,23.691 27.371,23.551C27.79,23.03 28.192,22.963 28.574,23.436C28.459,23.705 28.447,23.491 28.324,23.664C28.053,23.845 28.127,24.225 28.099,24.616C28.065,25.09 27.986,28.2 27.986,28.2C27.986,28.2 27.816,28.295 27.798,28.181Z" style="fill:#b5b5b5;"/>
        <path d="M27.938,29.755L27.938,25C27.398,24.383 27.729,24.002 26.853,24C26.221,24.068 25.981,24.484 25.853,25C26.209,23.811 27.505,24.485 27.602,25.545C27.663,26.075 27.669,29.797 27.669,29.797C27.669,29.797 27.906,29.882 27.938,29.755Z" style="fill:#b5b5b5;"/>
    </g>
</svg>
