<svg xmlns="http://www.w3.org/2000/svg" xml:space="preserve" fill-rule="evenodd" stroke-linejoin="round" stroke-miterlimit="2" clip-rule="evenodd" viewBox="0 0 64 64">
  <g id="grey">
    <path fill="#010001" fill-rule="nonzero" d="M30.567 14.968c16.301-1.073 30.156 6.635 30.948 17.225.793 10.59-11.784 20.036-28.083 21.108-16.3 1.071-30.156-6.638-30.947-17.224-.791-10.586 11.781-20.034 28.082-21.109Z"/>
    <path fill="#575757" fill-rule="nonzero" d="M30.567 10.699c16.301-1.073 30.156 6.635 30.948 17.225.793 10.591-11.784 20.036-28.083 21.108-16.3 1.072-30.156-6.638-30.947-17.224-.791-10.585 11.781-20.034 28.082-21.109Z"/>
    <path fill="#575757" fill-rule="nonzero" d="M30.811 14.848c13.8-.909 25.473 5.028 26.089 13.264.616 8.236-10.067 15.643-23.86 16.551-13.792.909-25.473-5.031-26.089-13.264-.615-8.233 10.067-15.643 23.86-16.551Z"/>
    <path fill="#575757" fill-rule="nonzero" d="M30.706 12.624c14.973-1.03 27.638 5.697 28.306 15.031.669 9.333-10.922 17.727-25.888 18.756C18.16 47.441 5.487 40.709 4.818 31.38c-.667-9.33 10.923-17.727 25.888-18.756Z"/>
    <path fill="#2c2e2e" d="M30.567 10.699c16.301-1.073 30.156 6.635 30.948 17.225.793 10.591-11.784 20.036-28.083 21.108-16.3 1.072-30.156-6.638-30.947-17.224-.791-10.585 11.781-20.034 28.082-21.109Zm.164 2.495c-9.086.599-16.955 3.924-21.613 8.671-2.799 2.853-4.405 6.212-4.14 9.757.266 3.557 2.364 6.682 5.572 9.149 5.325 4.096 13.622 6.365 22.718 5.766 9.085-.597 16.955-3.92 21.614-8.667 2.8-2.853 4.406-6.213 4.14-9.759-.266-3.56-2.365-6.685-5.572-9.152-5.326-4.097-13.622-6.364-22.719-5.765Z"/>
    <path fill="#ababab" d="m50.261 33.72-5.071-4.256-5.804 3.351-10.485-8.799 5.803-3.35-4.557-3.824 22.06 1.229-1.946 15.649Zm-16.217 9.363-22.455-1.561 2.341-15.317 4.557 3.824 5.803-3.351 10.486 8.798-5.803 3.351 5.071 4.256Z"/>
  </g>
</svg>
